<svg xmlns="http://www.w3.org/2000/svg" xmlns:xlink="http://www.w3.org/1999/xlink" width="1920" height="1078" viewBox="0 0 1920 1078">
  <defs>
    <clipPath id="clip-path">
      <rect id="Rectangle_9604" data-name="Rectangle 9604" width="1920" height="1078" fill="none" stroke="#707070" stroke-width="1"/>
    </clipPath>
  </defs>
  <g id="Mask_Group_4" data-name="Mask Group 4" clip-path="url(#clip-path)">
    <g id="Group_15441" data-name="Group 15441" transform="translate(0 1.125)">
      <g id="Path_23899" data-name="Path 23899" fill="#114e7b">
        <path d="M 1936.5 531.5 L 0.5 531.5 L 0.5 0.5 L 1936.5 0.5 L 1936.5 531.5 Z" stroke="none"/>
        <path d="M 1 1 L 1 531 L 1936 531 L 1936 1 L 1 1 M 0 0 L 1937 0 L 1937 532 L 0 532 L 0 0 Z" stroke="none" fill="#707070"/>
      </g>
      <g id="Group_15437" data-name="Group 15437" transform="translate(0 -117)">
        <path id="Path_23883" data-name="Path 23883" d="M1918,727.448H0l-.874-569.3L162.444,99.967c248-88.34,523.192-101.445,780.873-37.187h0c248.174,61.887,512.865,52.075,754.027-27.953l219.781-71.276Z" transform="translate(2 405.368)" fill="#094571"/>
        <path id="Path_186" data-name="Path 186" d="M1744.59,379.439a25.2,25.2,0,0,1,36.927-22.3c-.022-.6-.046-1.2-.046-1.8a48.936,48.936,0,0,1,94.959-16.629,35.419,35.419,0,0,1,52.05,18.475,25.2,25.2,0,1,1,11.1,47.815h-26.722" transform="translate(-30.863 377.299)" fill="none" stroke="#cef0ff" stroke-width="4"/>
        <path id="Path_187" data-name="Path 187" d="M1193.79,409.362V327.967A24.965,24.965,0,0,1,1218.755,303h172.571a24.964,24.964,0,0,1,24.964,24.964l.573,122.619" transform="translate(-30.863 528.134)" fill="none" stroke="#2688ba" stroke-width="4"/>
        <line id="Line_1" data-name="Line 1" y1="77.394" transform="translate(1162.927 1042.606)" fill="none" stroke="#2688ba" stroke-width="4"/>
        <path id="Path_188" data-name="Path 188" d="M1.539,698.234C26.677,667.934,69.362,648,117.79,648c27.6,0,53.33,6.474,75.013,17.65" transform="translate(-30.863 395.063)" fill="none" stroke="#4ecbb6" stroke-width="4"/>
        <path id="Path_189" data-name="Path 189" d="M151.7,698.041C176.859,667.85,219.465,648,267.79,648a169.175,169.175,0,0,1,48.414,6.97" transform="translate(-30.863 395.063)" fill="none" stroke="#4ecbb6" stroke-width="4"/>
        <path id="Path_190" data-name="Path 190" d="M317.79,686.418V327.967A24.965,24.965,0,0,1,342.755,303h172.57a24.965,24.965,0,0,1,24.965,24.964V550.335" transform="translate(-30.863 430)" fill="none" stroke="#2688ba" stroke-width="4"/>
        <path id="Path_191" data-name="Path 191" d="M557.176,643.706h0a35.759,35.759,0,0,1-35.759-35.759V580.8a35.759,35.759,0,0,1,71.518,0v27.15A35.759,35.759,0,0,1,557.176,643.706Z" transform="translate(-30.863 430)" fill="none" stroke="#4ecbb6" stroke-width="4"/>
        <line id="Line_2" data-name="Line 2" y1="126.52" transform="translate(526.313 999.539)" fill="none" stroke="#4ecbb6" stroke-width="4"/>
        <line id="Line_3" data-name="Line 3" x1="14.648" y2="14.648" transform="translate(526.22 1020.73)" fill="none" stroke="#4ecbb6" stroke-width="4"/>
        <path id="Path_192" data-name="Path 192" d="M101.176,623.706h0a35.759,35.759,0,0,1-35.759-35.759V560.8a35.759,35.759,0,0,1,71.518,0v27.15A35.759,35.759,0,0,1,101.176,623.706Z" transform="translate(-30.863 395.063)" fill="none" stroke="#4ecbb6" stroke-width="4"/>
        <line id="Line_4" data-name="Line 4" y1="146.52" transform="translate(70.313 944.602)" fill="none" stroke="#4ecbb6" stroke-width="4"/>
        <line id="Line_5" data-name="Line 5" x1="14.648" y2="14.648" transform="translate(70.22 965.793)" fill="none" stroke="#4ecbb6" stroke-width="4"/>
        <path id="Rectangle_64" data-name="Rectangle 64" d="M.959,0H25.341A.959.959,0,0,1,26.3.959V32.053a.96.96,0,0,1-.96.96H.959A.959.959,0,0,1,0,32.054V.959A.959.959,0,0,1,.959,0Z" transform="translate(329.474 781.674)" fill="none" stroke="#2688ba" stroke-width="4"/>
        <rect id="Rectangle_65" data-name="Rectangle 65" width="26.3" height="33.012" rx="0.959" transform="translate(385.027 781.89)" fill="none" stroke="#2688ba" stroke-width="4"/>
        <rect id="Rectangle_66" data-name="Rectangle 66" width="26.3" height="33.012" rx="0.959" transform="translate(440.58 782.104)" fill="none" stroke="#2688ba" stroke-width="4"/>
        <rect id="Rectangle_67" data-name="Rectangle 67" width="26.3" height="33.012" rx="0.959" transform="translate(329.474 858.491)" fill="none" stroke="#2688ba" stroke-width="4"/>
        <rect id="Rectangle_68" data-name="Rectangle 68" width="26.3" height="33.012" rx="0.959" transform="translate(385.027 858.705)" fill="none" stroke="#2688ba" stroke-width="4"/>
        <rect id="Rectangle_69" data-name="Rectangle 69" width="26.3" height="33.012" rx="0.959" transform="translate(440.58 858.919)" fill="none" stroke="#2688ba" stroke-width="4"/>
        <rect id="Rectangle_70" data-name="Rectangle 70" width="26.3" height="33.012" rx="0.959" transform="translate(329.474 935.306)" fill="none" stroke="#2688ba" stroke-width="4"/>
        <rect id="Rectangle_71" data-name="Rectangle 71" width="26.3" height="33.012" rx="0.959" transform="translate(385.027 935.521)" fill="none" stroke="#2688ba" stroke-width="4"/>
        <rect id="Rectangle_72" data-name="Rectangle 72" width="26.3" height="33.012" rx="0.959" transform="translate(440.58 935.735)" fill="none" stroke="#2688ba" stroke-width="4"/>
        <path id="Path_193" data-name="Path 193" d="M379.044,641.719c0,7.5-6.078,57.281-13.575,57.281s-13.575-49.784-13.575-57.281a13.575,13.575,0,1,1,27.15,0Z" transform="translate(-30.863 430)" fill="none" stroke="#cef0ff" stroke-width="4"/>
        <path id="Path_194" data-name="Path 194" d="M374.077,608.278a8.609,8.609,0,1,1-8.609-8.609A8.609,8.609,0,0,1,374.077,608.278Z" transform="translate(-30.863 430)" fill="none" stroke="#cef0ff" stroke-width="4"/>
        <path id="Path_195" data-name="Path 195" d="M442.044,641.719c0,7.5-6.078,57.281-13.575,57.281s-13.575-49.784-13.575-57.281a13.575,13.575,0,1,1,27.15,0Z" transform="translate(-30.863 430)" fill="none" stroke="#cef0ff" stroke-width="4"/>
        <path id="Path_196" data-name="Path 196" d="M437.077,608.278a8.609,8.609,0,1,1-8.609-8.609A8.609,8.609,0,0,1,437.077,608.278Z" transform="translate(-30.863 430)" fill="none" stroke="#cef0ff" stroke-width="4"/>
        <path id="Path_197" data-name="Path 197" d="M688.954,641.719c0,7.5-6.078,57.281-13.575,57.281S661.8,649.216,661.8,641.719a13.575,13.575,0,1,1,27.15,0Z" transform="translate(-30.863 430)" fill="none" stroke="#cef0ff" stroke-width="4"/>
        <path id="Path_198" data-name="Path 198" d="M683.988,608.278a8.608,8.608,0,1,1-8.609-8.609A8.609,8.609,0,0,1,683.988,608.278Z" transform="translate(-30.863 430)" fill="none" stroke="#cef0ff" stroke-width="4"/>
        <path id="Path_199" data-name="Path 199" d="M761.68,618.3a31.7,31.7,0,0,1,1.11,8.32v70.4" transform="translate(-30.863 430)" fill="none" stroke="#b48ed1" stroke-width="4"/>
        <path id="Path_200" data-name="Path 200" d="M603.861,697.013v-70.4a31.723,31.723,0,0,1,9.976-23.1l47.739-44.954a31.725,31.725,0,0,1,43.5,0l30.751,28.957" transform="translate(-30.863 430)" fill="none" stroke="#b48ed1" stroke-width="4"/>
        <path id="Path_23885" data-name="Path 23885" d="M0,226.059V0" transform="translate(205.427 875.063)" fill="none" stroke="#8cc63f" stroke-width="4"/>
        <path id="Path_201" data-name="Path 201" d="M196.072,554.718l40.66,40.66,39.857-39.858" transform="translate(-30.863 395.063)" fill="none" stroke="#8cc63f" stroke-width="4"/>
        <path id="Path_202" data-name="Path 202" d="M279.79,578.5a43.5,43.5,0,0,1-87,0c0-24.024,19.476-99.5,43.5-99.5S279.79,554.476,279.79,578.5Z" transform="translate(-30.863 395.063)" fill="none" stroke="#8cc63f" stroke-width="4"/>
        <path id="Path_203" data-name="Path 203" d="M205.572,518.218l31.16,31.16,29.809-29.129" transform="translate(-30.863 395.063)" fill="none" stroke="#8cc63f" stroke-width="4"/>
        <line id="Line_7" data-name="Line 7" y1="216.059" transform="translate(748.427 910)" fill="none" stroke="#8cc63f" stroke-width="4"/>
        <path id="Path_204" data-name="Path 204" d="M739.071,554.718l40.66,40.66,39.857-39.858" transform="translate(-30.863 430)" fill="none" stroke="#8cc63f" stroke-width="4"/>
        <path id="Path_205" data-name="Path 205" d="M822.79,578.5a43.5,43.5,0,0,1-87,0c0-24.024,19.476-99.5,43.5-99.5S822.79,554.476,822.79,578.5Z" transform="translate(-30.863 430)" fill="none" stroke="#8cc63f" stroke-width="4"/>
        <path id="Path_206" data-name="Path 206" d="M748.571,518.218l31.16,31.16,29.809-29.129" transform="translate(-30.863 430)" fill="none" stroke="#8cc63f" stroke-width="4"/>
        <path id="Path_207" data-name="Path 207" d="M848.7,698.041a127.257,127.257,0,0,1,27.5-24.431" transform="translate(-30.863 424.808)" fill="none" stroke="#4ecbb6" stroke-width="4"/>
        <path id="Path_208" data-name="Path 208" d="M1063.212,649.34A173.417,173.417,0,0,1,1084.79,648c48.325,0,90.931,19.85,116.09,50.041" transform="translate(-30.863 430)" fill="none" stroke="#4ecbb6" stroke-width="4"/>
        <path id="Path_209" data-name="Path 209" d="M1025.211,658.761a160.5,160.5,0,0,1,20.755-6.34" transform="translate(-30.863 430)" fill="none" stroke="#4ecbb6" stroke-width="4"/>
        <line id="Line_8" data-name="Line 8" x2="3.155" y2="184.153" transform="translate(1029.699 925)" fill="none" stroke="#3491e2" stroke-width="4"/>
        <line id="Line_9" data-name="Line 9" y1="174.418" x2="2.121" transform="translate(1014.6 924)" fill="none" stroke="#3491e2" stroke-width="4"/>
        <path id="Path_210" data-name="Path 210" d="M1049.778,484.825a6.68,6.68,0,1,1,9.443-.3A6.68,6.68,0,0,1,1049.778,484.825Z" transform="translate(-30.863 430)" fill="none" stroke="#3491e2" stroke-width="4"/>
        <path id="Path_211" data-name="Path 211" d="M1131.834,533.135,1056.4,492.249a9.335,9.335,0,0,1-1.834-1.121" transform="translate(-30.863 430)" fill="none" stroke="#3491e2" stroke-width="4"/>
        <path id="Path_212" data-name="Path 212" d="M1058.237,474.529h0a9.418,9.418,0,0,1,8.059,1.866l67.776,48.362" transform="translate(-30.863 430)" fill="none" stroke="#3491e2" stroke-width="4"/>
        <path id="Path_213" data-name="Path 213" d="M1047.583,479.566a9.421,9.421,0,0,1-2.19-6.95l3.048-102.763a3.027,3.027,0,0,1,6.04-.193l9.6,102.359a9.429,9.429,0,0,1-.05,3.216" transform="translate(-30.863 430)" fill="none" stroke="#3491e2" stroke-width="4"/>
        <path id="Path_214" data-name="Path 214" d="M1057.745,485.634a9.426,9.426,0,0,1-6.328,6.868L955.573,529.7a3.027,3.027,0,0,1-2.529-5.488l90.551-48.683a9.4,9.4,0,0,1,1.832-.879" transform="translate(-30.863 430)" fill="none" stroke="#3491e2" stroke-width="4"/>
        <path id="Path_215" data-name="Path 215" d="M897,662.168q2.188-.984,4.424-1.905A166.416,166.416,0,0,1,964.789,648c48.326,0,90.932,19.85,116.091,50.041" transform="translate(-30.863 430)" fill="none" stroke="#4ecbb6" stroke-width="4"/>
        <line id="Line_10" data-name="Line 10" x2="3.911" y2="244.725" transform="translate(862.523 881.775)" fill="none" stroke="#3491e2" stroke-width="4"/>
        <line id="Line_11" data-name="Line 11" y1="211.864" x2="1.959" transform="translate(845.03 914.636)" fill="none" stroke="#3491e2" stroke-width="4"/>
        <circle id="Ellipse_1" data-name="Ellipse 1" cx="7.568" cy="7.568" r="7.568" transform="translate(847.327 861.571)" fill="none" stroke="#3491e2" stroke-width="4"/>
        <path id="Path_216" data-name="Path 216" d="M884.766,431.644h0a10.668,10.668,0,0,1,8.1-4.705L1008.3,411.411a3.43,3.43,0,0,1,1.329,6.716L896.98,447.713a10.678,10.678,0,0,1-2.385.495" transform="translate(-30.863 430)" fill="none" stroke="#3491e2" stroke-width="4"/>
        <path id="Path_217" data-name="Path 217" d="M879.869,444.063a10.671,10.671,0,0,1-7.2-4.045l-77.135-87.269a3.429,3.429,0,0,1,4.841-4.84l87.268,77.135a10.675,10.675,0,0,1,2.451,2.7" transform="translate(-30.863 430)" fill="none" stroke="#3491e2" stroke-width="4"/>
        <path id="Path_218" data-name="Path 218" d="M892.967,441.2a10.8,10.8,0,0,1,.61,1.222,10.67,10.67,0,0,1-.514,9.357L842.7,556.8a3.43,3.43,0,0,1-6.344-2.575l37.082-110.41a10.7,10.7,0,0,1,.832-2.147" transform="translate(-30.863 430)" fill="none" stroke="#3491e2" stroke-width="4"/>
        <path id="Path_219" data-name="Path 219" d="M1433.176,643.706h0a35.759,35.759,0,0,1-35.759-35.759V580.8a35.759,35.759,0,0,1,71.518,0v27.15A35.759,35.759,0,0,1,1433.176,643.706Z" transform="translate(-30.863 430)" fill="none" stroke="#4ecbb6" stroke-width="4"/>
        <line id="Line_12" data-name="Line 12" y1="126.52" transform="translate(1402.313 999.539)" fill="none" stroke="#4ecbb6" stroke-width="4"/>
        <line id="Line_13" data-name="Line 13" x1="14.648" y2="14.648" transform="translate(1402.22 1020.73)" fill="none" stroke="#4ecbb6" stroke-width="4"/>
        <path id="Path_220" data-name="Path 220" d="M977.176,635.706h0a35.759,35.759,0,0,1-35.759-35.759V572.8a35.759,35.759,0,0,1,71.518,0v27.15A35.759,35.759,0,0,1,977.176,635.706Z" transform="translate(-30.863 430)" fill="none" stroke="#4ecbb6" stroke-width="4"/>
        <line id="Line_14" data-name="Line 14" y1="146.52" transform="translate(946.313 991.539)" fill="none" stroke="#4ecbb6" stroke-width="4"/>
        <line id="Line_15" data-name="Line 15" x1="14.648" y2="14.648" transform="translate(946.22 1012.73)" fill="none" stroke="#4ecbb6" stroke-width="4"/>
        <rect id="Rectangle_76" data-name="Rectangle 76" width="26.3" height="33.012" rx="0.959" transform="translate(1205.474 858.491)" fill="none" stroke="#2688ba" stroke-width="4"/>
        <rect id="Rectangle_77" data-name="Rectangle 77" width="26.3" height="33.012" rx="0.959" transform="translate(1261.027 858.705)" fill="none" stroke="#2688ba" stroke-width="4"/>
        <rect id="Rectangle_78" data-name="Rectangle 78" width="26.3" height="33.012" rx="0.959" transform="translate(1316.58 858.919)" fill="none" stroke="#2688ba" stroke-width="4"/>
        <rect id="Rectangle_79" data-name="Rectangle 79" width="26.3" height="33.012" rx="0.959" transform="translate(1205.474 935.306)" fill="none" stroke="#2688ba" stroke-width="4"/>
        <rect id="Rectangle_80" data-name="Rectangle 80" width="26.3" height="33.012" rx="0.959" transform="translate(1261.027 935.521)" fill="none" stroke="#2688ba" stroke-width="4"/>
        <rect id="Rectangle_81" data-name="Rectangle 81" width="26.3" height="33.012" rx="0.959" transform="translate(1316.58 935.735)" fill="none" stroke="#2688ba" stroke-width="4"/>
        <path id="Path_221" data-name="Path 221" d="M1690.79,544.417V409.08c0-16.059,11.177-29.077,24.965-29.077h172.571c13.787,0,24.964,13.019,24.964,29.077V577.234" transform="translate(-30.863 377.569)" fill="none" stroke="#2688ba" stroke-width="4"/>
        <line id="Line_16" data-name="Line 16" y1="127.89" transform="translate(1659.927 999.123)" fill="none" stroke="#2688ba" stroke-width="4"/>
        <rect id="Rectangle_82" data-name="Rectangle 82" width="26.3" height="33.012" rx="0.959" transform="translate(1702.474 875.425)" fill="none" stroke="#2688ba" stroke-width="4"/>
        <rect id="Rectangle_9601" data-name="Rectangle 9601" width="26.3" height="33.012" rx="0.959" transform="translate(1702.474 798.61)" fill="none" stroke="#2688ba" stroke-width="4"/>
        <rect id="Rectangle_83" data-name="Rectangle 83" width="26.3" height="33.012" rx="0.959" transform="translate(1758.027 875.64)" fill="none" stroke="#2688ba" stroke-width="4"/>
        <rect id="Rectangle_9600" data-name="Rectangle 9600" width="26.3" height="33.012" rx="0.959" transform="translate(1758.027 798.824)" fill="none" stroke="#2688ba" stroke-width="4"/>
        <rect id="Rectangle_84" data-name="Rectangle 84" width="26.3" height="33.012" rx="0.959" transform="translate(1813.58 875.854)" fill="none" stroke="#2688ba" stroke-width="4"/>
        <rect id="Rectangle_9599" data-name="Rectangle 9599" width="26.3" height="33.012" rx="0.959" transform="translate(1813.58 799.039)" fill="none" stroke="#2688ba" stroke-width="4"/>
        <rect id="Rectangle_85" data-name="Rectangle 85" width="26.3" height="33.012" rx="0.959" transform="translate(1702.474 952.241)" fill="none" stroke="#2688ba" stroke-width="4"/>
        <rect id="Rectangle_86" data-name="Rectangle 86" width="26.3" height="33.012" rx="0.959" transform="translate(1758.027 952.455)" fill="none" stroke="#2688ba" stroke-width="4"/>
        <rect id="Rectangle_87" data-name="Rectangle 87" width="26.3" height="33.012" rx="0.959" transform="translate(1813.58 952.669)" fill="none" stroke="#2688ba" stroke-width="4"/>
        <path id="Path_222" data-name="Path 222" d="M1760.044,641.719c0,7.5-6.078,57.281-13.575,57.281s-13.575-49.784-13.575-57.281a13.575,13.575,0,1,1,27.15,0Z" transform="translate(-30.863 430)" fill="none" stroke="#cef0ff" stroke-width="4"/>
        <path id="Path_223" data-name="Path 223" d="M1755.077,608.278a8.609,8.609,0,1,1-8.609-8.609A8.609,8.609,0,0,1,1755.077,608.278Z" transform="translate(-30.863 430)" fill="none" stroke="#cef0ff" stroke-width="4"/>
        <path id="Path_224" data-name="Path 224" d="M1318.044,641.719c0,7.5-6.078,57.281-13.575,57.281s-13.575-49.784-13.575-57.281a13.575,13.575,0,1,1,27.15,0Z" transform="translate(-30.863 412.667)" fill="none" stroke="#cef0ff" stroke-width="4"/>
        <path id="Path_225" data-name="Path 225" d="M1313.077,608.278a8.609,8.609,0,1,1-8.609-8.609A8.609,8.609,0,0,1,1313.077,608.278Z" transform="translate(-30.863 412.667)" fill="none" stroke="#cef0ff" stroke-width="4"/>
        <path id="Path_226" data-name="Path 226" d="M1479.861,697.013V632.652a45.7,45.7,0,0,1,14.37-33.27l43.345-40.817a31.725,31.725,0,0,1,43.5,0l43.345,40.817a45.7,45.7,0,0,1,14.369,33.27" transform="translate(-30.863 430)" fill="none" stroke="#b48ed1" stroke-width="4"/>
        <path id="Path_227" data-name="Path 227" d="M1835.863,697V626.6a31.723,31.723,0,0,1,9.976-23.1l47.739-44.954a31.725,31.725,0,0,1,43.5,0l30.751,28.957" transform="translate(-30.863 430)" fill="none" stroke="#b48ed1" stroke-width="4"/>
        <line id="Line_17" data-name="Line 17" y1="216.059" transform="translate(1136.427 910)" fill="none" stroke="#8cc63f" stroke-width="4"/>
        <path id="Path_228" data-name="Path 228" d="M1127.072,554.718l40.66,40.66,39.857-39.858" transform="translate(-30.863 430)" fill="none" stroke="#8cc63f" stroke-width="4"/>
        <path id="Path_229" data-name="Path 229" d="M1210.79,578.5a43.5,43.5,0,0,1-87,0c0-24.024,19.476-99.5,43.5-99.5S1210.79,554.476,1210.79,578.5Z" transform="translate(-30.863 430)" fill="none" stroke="#8cc63f" stroke-width="4"/>
        <path id="Path_230" data-name="Path 230" d="M1136.572,518.218l31.16,31.16,29.809-29.129" transform="translate(-30.863 430)" fill="none" stroke="#8cc63f" stroke-width="4"/>
        <line id="Line_18" data-name="Line 18" y1="159.606" transform="translate(1624.427 875)" fill="none" stroke="#8cc63f" stroke-width="4"/>
        <line id="Line_19" data-name="Line 19" y1="19.576" transform="translate(1624.427 1041.195)" fill="none" stroke="#8cc63f" stroke-width="4"/>
        <line id="Line_20" data-name="Line 20" y1="17.1" transform="translate(1624.427 1108.959)" fill="none" stroke="#8cc63f" stroke-width="4"/>
        <path id="Path_231" data-name="Path 231" d="M1615.072,519.718l40.66,40.66,39.857-39.858" transform="translate(-30.863 430)" fill="none" stroke="#8cc63f" stroke-width="4"/>
        <path id="Path_232" data-name="Path 232" d="M1698.79,543.5a43.5,43.5,0,0,1-87,0c0-24.024,19.476-99.5,43.5-99.5S1698.79,519.476,1698.79,543.5Z" transform="translate(-30.863 430)" fill="none" stroke="#8cc63f" stroke-width="4"/>
        <path id="Path_233" data-name="Path 233" d="M1624.572,483.218l31.16,31.16,29.809-29.129" transform="translate(-30.863 430)" fill="none" stroke="#8cc63f" stroke-width="4"/>
        <path id="Path_234" data-name="Path 234" d="M1660.954,641.719c0,7.5-6.078,57.281-13.575,57.281s-13.575-49.784-13.575-57.281a13.575,13.575,0,1,1,27.15,0Z" transform="translate(-30.863 430)" fill="none" stroke="#cef0ff" stroke-width="4"/>
        <path id="Path_235" data-name="Path 235" d="M1655.988,608.278a8.609,8.609,0,1,1-8.609-8.609A8.609,8.609,0,0,1,1655.988,608.278Z" transform="translate(-30.863 430)" fill="none" stroke="#cef0ff" stroke-width="4"/>
        <path id="Path_236" data-name="Path 236" d="M253.363,298.5a24.908,24.908,0,0,0-17.023,6.7,50.543,50.543,0,0,0,.523-7.2,50,50,0,0,0-94.811-22.182A36.5,36.5,0,1,0,134.363,348h52.5c17.354,0,53.444.5,66.5.5a25,25,0,0,0,0-50Z" transform="translate(-30.863 430)" fill="none" stroke="#cef0ff" stroke-width="4"/>
        <path id="Path_237" data-name="Path 237" d="M1732.363,266.5a24.907,24.907,0,0,0-17.023,6.7,50,50,0,0,0-94.288-29.38A36.5,36.5,0,1,0,1613.363,316h52.5c17.354,0,53.444.5,66.5.5a25,25,0,0,0,0-50Z" transform="translate(-30.863 394.91)" fill="none" stroke="#cef0ff" stroke-width="4"/>
        <path id="Path_238" data-name="Path 238" d="M376.474,241.092a13.982,13.982,0,0,0-6.194,1.438,19.759,19.759,0,0,0-29.037-10.307A27.3,27.3,0,0,0,288.27,241.5c0,.338.014.672.026,1.006A14.055,14.055,0,1,0,281.752,269c6.169,0,90.065.2,94.722.2a14.056,14.056,0,1,0,0-28.111Z" transform="translate(-30.863 430)" fill="none" stroke="#cef0ff" stroke-width="4"/>
        <rect id="Rectangle_88" data-name="Rectangle 88" width="1920" height="680" transform="translate(0 430)" fill="none"/>
      </g>
      <path id="Path_24017" data-name="Path 24017" d="M0,126.537H1920V44.827l-163.915-13.4c-248.9-20.35-525.1-23.369-783.727-8.566h0c-249.081,14.257-514.739,12-756.783-6.439L0,0Z" transform="translate(0 950.338)" fill="#3491e2" stroke="rgba(0,0,0,0)" stroke-width="1"/>
    </g>
  </g>
</svg>
