<svg xmlns="http://www.w3.org/2000/svg" xmlns:xlink="http://www.w3.org/1999/xlink" width="142.642" height="44.421" viewBox="0 0 142.642 44.421">
  <defs>
    <clipPath id="clip-path">
      <rect id="Rectangle_4" data-name="Rectangle 4" width="142.642" height="44.421" fill="#fff"/>
    </clipPath>
  </defs>
  <g id="Group_15467" data-name="Group 15467" transform="translate(0 0)">
    <g id="Group_6" data-name="Group 6" transform="translate(0 0)" clip-path="url(#clip-path)">
      <path id="Path_14" data-name="Path 14" d="M5.507,19.634H8.717a6.751,6.751,0,0,0,4.041-1.018,3.958,3.958,0,0,0,1.635-3.331,4.4,4.4,0,0,0-1.655-3.52A6.967,6.967,0,0,0,8.63,10.749H0v.614H2.01V26.816H0v.614H7.727v-.614H5.507Zm0-8.271h2.1a2.826,2.826,0,0,1,2.481.969,4.939,4.939,0,0,1,.565,2.854c0,2.031-.589,2.881-.945,3.14a3.761,3.761,0,0,1-2.031.616H5.507Zm13.445-.756c-.4.047-.875.119-2.2.189-.969.047-1.772.047-2.409.047v.639h1.7V26.816h-1.7v.614h6.023v-.614H18.926v-4.3c.023-1.345.047-2.852,1.394-3.78a2.29,2.29,0,0,1,1.349-.425c1.3,0,1.417,1.062,1.394,2.267v6.238h-1.3v.614h5.79v-.614H26V20.484a3.161,3.161,0,0,0-.639-2.335,3.154,3.154,0,0,0-2.48-.873,4.818,4.818,0,0,0-3.922,2.008Zm9.039,7.561H29.6v8.647H27.99v.614h6.072v-.614H32.55V17.342c-1.111.07-1.725.117-2.318.164-.614.023-1.181.047-2.244.047Zm1.062-4.963a1.36,1.36,0,1,0-.006-.019v.019m10.074-2.593a17.492,17.492,0,0,1-2.552.236c-.852.023-1.63.023-2.076.023v.661h1.655V26.816H34.493v.614h6.191v-.614H39.129Zm11.064,9.758A2.431,2.431,0,0,0,48.6,17.7a6.268,6.268,0,0,0-2.363-.425c-2.29,0-4.133,1.062-4.133,2.575a1.258,1.258,0,0,0,1.22,1.3.88.88,0,0,0,.1,0,1.312,1.312,0,0,0,1.345-1.279l0-.045a1.1,1.1,0,0,0-.119-.472c-.07-.191-.212-.331-.283-.52a.522.522,0,0,1-.07-.259c0-.212.353-.684,1.417-.684,1.583,0,1.653.8,1.653,1.8v1.866a9.728,9.728,0,0,0-4.725,1.275,3.065,3.065,0,0,0-1.37,2.472c0,.733.353,2.386,2.788,2.386a4.2,4.2,0,0,0,3.308-1.63,2.383,2.383,0,0,0,2.174,1.63,3.16,3.16,0,0,0,2.316-1.179l-.378-.519a1.285,1.285,0,0,1-.71.355c-.567,0-.593-.686-.593-1.228Zm-2.813,3.663a2.178,2.178,0,0,1-.663,1.914,1.739,1.739,0,0,1-1.037.378,1.653,1.653,0,0,1-1.614-1.692c0-.041,0-.084.006-.125,0-2.1,2.057-2.22,3.308-2.292Zm9.24-6.686c-1.749.072-3.119.212-4.561.212v.608h1.606v8.647H52.049v.614h6.072v-.614H56.61V22.422a8.989,8.989,0,0,1,.094-1.914,2.9,2.9,0,0,1,2.481-2.15c1.441,0,1.441,1.277,1.441,2.595v5.86H59.3v.614h5.811v-.614H63.56V20.5c0-1.037,0-2.5-1.914-3.047a4.628,4.628,0,0,0-1.347-.189,4.76,4.76,0,0,0-1.8.353,4.372,4.372,0,0,0-1.891,1.464Zm12.456-3.76h-.661a7.3,7.3,0,0,1-3.9,4.207v.374h1.7l-.047,6.756c0,1.037.023,2.788,2.409,2.788a3.242,3.242,0,0,0,3.355-2.836l-.663-.14c-.283.945-.661,1.725-1.37,1.725-.8,0-.827-.875-.827-1.443v-6.85h2.055v-.616H69.067Zm7.09-2.982c-.4.047-.875.117-2.2.189-.969.047-1.772.047-2.411.047v.637h1.7V26.816h-1.7v.614h6.023v-.614H76.131v-4.3c.023-1.345.047-2.852,1.394-3.78a2.29,2.29,0,0,1,1.349-.425c1.3,0,1.417,1.062,1.394,2.267v6.238h-1.3v.614h5.788v-.614H83.2V20.484a2.726,2.726,0,0,0-3.119-3.214,4.819,4.819,0,0,0-3.922,2.01Zm12.9,6.733a43.645,43.645,0,0,1-4.655.214v.616h1.606v8.647H84.4v.614h6.544v-.614H88.985V22.328a5.6,5.6,0,0,1,.945-3.261s.756-.969,1.088-.969c.164,0,.329.117.329.236,0,.07-.07.142-.119.236a1.369,1.369,0,0,0-.308.873,1.426,1.426,0,0,0,1.456,1.4l.057,0a1.517,1.517,0,0,0,1.583-1.448c0-.053,0-.1,0-.156a1.928,1.928,0,0,0-1.885-1.967,1.564,1.564,0,0,0-.191.006,2.741,2.741,0,0,0-2.2,1.037,7.263,7.263,0,0,0-.733,1.064Zm16.328,4.94a4.952,4.952,0,1,0-.283,2.2,5.3,5.3,0,0,0,.283-2.2m-3.214.023c.023,2.316.023,4.916-2.316,4.916a2.144,2.144,0,0,1-1.961-1.181c-.189-.331-.425-.828-.425-3.639,0-2.076.047-4.538,2.363-4.538a2.083,2.083,0,0,1,2.033,1.3c.142.306.283.637.306,3.142m7.774-4.963a24.677,24.677,0,0,1-4.583.212v.637H106.9V33.693h-1.538v.661h6.45v-.661H109.9v-7.68a3.866,3.866,0,0,0,3.191,1.7,4.154,4.154,0,0,0,3.448-1.8,5.167,5.167,0,0,0,1.037-3.261c0-3.85-2.622-5.388-4.63-5.388a3.692,3.692,0,0,0-3.049,1.725Zm4.372,4.938c.047,2.86-.259,4.655-1.842,4.655a2.812,2.812,0,0,1-2.222-1.653,6.118,6.118,0,0,1-.5-2.764c0-2.647.875-3.5,1.417-3.924a2.045,2.045,0,0,1,1.2-.448c1.111,0,1.489.969,1.655,1.606a11.387,11.387,0,0,1,.285,2.528m3.661-4.1h1.606v8.647h-1.606v.614h6.072v-.614h-1.513V17.342c-1.111.07-1.725.117-2.316.164-.614.023-1.181.047-2.244.047Zm1.062-4.963a2.668,2.668,0,1,0,0-.012v.012m15.238,8.649a5.249,5.249,0,0,0-1.275-3.121,4.781,4.781,0,0,0-3.52-1.464,5.045,5.045,0,0,0-5.22,4.866c0,.111,0,.222,0,.331a5.131,5.131,0,0,0,5.008,5.253q.2.006.4-.006a4.79,4.79,0,0,0,4.489-3l-.6-.285a4.321,4.321,0,0,1-3.591,2.552c-2.363,0-2.435-2.363-2.458-3.261-.023-.637,0-1.253,0-1.866ZM127.6,19.892c.092-.945.236-2.074,1.889-2.074,1.534,0,1.608,1.158,1.678,1.984v1.37h-3.593Zm14.365.285V17.153H141.3c-.047.519-.072.756-.5.756a.948.948,0,0,1-.544-.191,4.011,4.011,0,0,0-1.867-.448,3.008,3.008,0,0,0-3.166,2.842,3.465,3.465,0,0,0,0,.349c0,2.316,1.678,2.852,3.191,3.355.969.283,2.671.5,2.671,1.747,0,.756-.78,1.513-2.01,1.513a3.239,3.239,0,0,1-2.2-.873,3.782,3.782,0,0,1-1.088-2.363h-.686V27.43h.686c-.023-.168-.047-.639.378-.639a2.189,2.189,0,0,1,.756.355,4.19,4.19,0,0,0,2.074.567,3.491,3.491,0,0,0,3.639-3.335c0-.078,0-.154,0-.232,0-2.174-1.815-2.692-2.953-3.023l-.71-.189a5.6,5.6,0,0,1-1.655-.637,1.3,1.3,0,0,1-.448-.969,1.541,1.541,0,0,1,1.673-1.4h0a3.1,3.1,0,0,1,1.75.569,2.64,2.64,0,0,1,.992,1.678Z" transform="translate(0 10.067)" fill="#fff"/>
      <path id="Path_15" data-name="Path 15" d="M.024.142V.758h2.01V16.211H.024v.614H7.4c2.481-.023,5.458-.023,6.733-2.409a4.238,4.238,0,0,0,.474-2.01,4.1,4.1,0,0,0-3.378-4.02A14,14,0,0,0,9.451,8.1a12.23,12.23,0,0,0,1.612-.3,3.577,3.577,0,0,0,2.76-3.52A3.628,3.628,0,0,0,11.909.947,8.664,8.664,0,0,0,7.728.142ZM5.531,8.483h2.2a2.832,2.832,0,0,1,2.363.922,4.816,4.816,0,0,1,.661,3,5.257,5.257,0,0,1-.5,2.671,2.462,2.462,0,0,1-2.363,1.135H5.531Zm0-7.678H7.373c1.938,0,2.93.472,2.93,3.591,0,2.766-.992,3.427-2.834,3.427H5.531ZM19.4,0a17.2,17.2,0,0,1-2.552.236c-.85.023-1.635.023-2.078.023V.92h1.655V16.211H14.769v.614H20.96v-.614H19.4Zm13.02,11.671a5.3,5.3,0,0,0-5.536-5.006,5.332,5.332,0,0,0-5.661,4.986c0,.062-.008.125-.01.187A5.279,5.279,0,0,0,26.5,17.1c.15,0,.3-.006.45-.019a5.28,5.28,0,0,0,5.181-3.209,5.326,5.326,0,0,0,.283-2.2M29.2,11.7c.023,2.316.023,4.914-2.316,4.914a2.137,2.137,0,0,1-1.961-1.181c-.189-.331-.425-.828-.425-3.639,0-2.074.047-4.538,2.363-4.538A2.09,2.09,0,0,1,28.9,8.55c.14.308.283.637.306,3.142m15.281-.021a5.3,5.3,0,0,0-5.528-5.006,5.334,5.334,0,0,0-5.663,4.986c0,.062-.006.125-.008.187A5.277,5.277,0,0,0,38.578,17.1c.15,0,.3-.006.448-.019A5.278,5.278,0,0,0,44.2,13.869a5.3,5.3,0,0,0,.283-2.2m-3.207.027c.021,2.316.021,4.914-2.318,4.914A2.14,2.14,0,0,1,37,15.431c-.189-.329-.425-.827-.425-3.637,0-2.076.047-4.54,2.363-4.54a2.094,2.094,0,0,1,2.033,1.3c.14.306.283.637.306,3.142m7.94-4.963a27.944,27.944,0,0,1-4.513.212v.616h1.556v8.651H44.7v.614h5.953v-.614H49.186V11.2a4.225,4.225,0,0,1,.686-2.593,2.3,2.3,0,0,1,1.723-.85c1.277,0,1.419,1.109,1.419,2.456v6H51.738v.614h5.554v-.614H55.872V11.6a3.99,3.99,0,0,1,.922-3.168,2.367,2.367,0,0,1,1.558-.708c1.347,0,1.347,1.158,1.347,2.363v6.121H58.4v.614h5.7v-.614H62.633V10.02c-.072-1.275-.1-3.355-3.214-3.355A3.835,3.835,0,0,0,55.874,8.7a3.169,3.169,0,0,0-3.261-2.055,4.141,4.141,0,0,0-3.4,1.815ZM68.182,0a24.275,24.275,0,0,1-2.552.259H63.582V.92h1.653V16.211H63.582v.614h4.583V15.335a4.22,4.22,0,0,0,3.474,1.749,4.164,4.164,0,0,0,3.567-1.725A5.209,5.209,0,0,0,76.34,12c0-3.828-2.624-5.339-4.751-5.339a4.216,4.216,0,0,0-3.4,1.725Zm4.893,11.649c0,2.624-.072,4.678-1.963,4.678a2.857,2.857,0,0,1-2.333-1.394,5.944,5.944,0,0,1-.71-3.023,6.537,6.537,0,0,1,.614-2.883,3.092,3.092,0,0,1,2.429-1.635c1.466,0,1.7,1.345,1.8,1.815a16.683,16.683,0,0,1,.166,2.435m14.135-.4a5.258,5.258,0,0,0-1.277-3.119,4.783,4.783,0,0,0-3.52-1.466,5.044,5.044,0,0,0-5.22,4.864c0,.111-.006.224,0,.335A5.132,5.132,0,0,0,82.2,17.105q.2.006.4-.006a4.793,4.793,0,0,0,4.489-3l-.591-.285a4.33,4.33,0,0,1-3.593,2.552c-2.365,0-2.433-2.363-2.464-3.261-.023-.637,0-1.251,0-1.866ZM80.516,9.289c.1-.945.238-2.076,1.891-2.076,1.536,0,1.608,1.158,1.678,1.984v1.366H80.494ZM92.048,6.735a43.183,43.183,0,0,1-4.655.212v.616H89v8.647h-1.6v.614h6.546v-.614H91.98V11.721a5.608,5.608,0,0,1,.945-3.263s.756-.967,1.088-.967c.164,0,.329.117.329.236,0,.07-.07.14-.117.236a1.347,1.347,0,0,0-.308.873,1.425,1.425,0,0,0,1.456,1.4l.057,0a1.518,1.518,0,0,0,1.585-1.446,1.457,1.457,0,0,0,0-.16,1.925,1.925,0,0,0-1.885-1.967c-.062,0-.127,0-.189.006a2.742,2.742,0,0,0-2.2,1.037A6.974,6.974,0,0,0,92,8.764Zm7.513,9.193c-.778,0-1.466-.023-1.466-.78s.922-1.251,1.655-1.534a4.92,4.92,0,0,0,2.409.542c2.386,0,4.4-1.3,4.4-3.827a3.186,3.186,0,0,0-.519-1.725c.07-.331.14-.448.259-.448s.14,0,.329.236a.854.854,0,0,0,.686.306.988.988,0,0,0,1.019-.961c0-.033,0-.068,0-.1A1.063,1.063,0,0,0,107.3,6.548c-.025,0-.053,0-.078,0a1.629,1.629,0,0,0-.945.329,2.032,2.032,0,0,0-.686,1.135,4.677,4.677,0,0,0-3.4-1.349c-2.15,0-4.561,1.2-4.561,3.782A3.5,3.5,0,0,0,99.229,13.3a3.148,3.148,0,0,0-2.409,3,2.251,2.251,0,0,0,.639,1.632,1.968,1.968,0,0,0,1.3.684c-.661.236-1.914.661-1.914,1.984,0,1.466,1.749,3,5.15,3,3.244,0,5.649-1.608,5.649-4.466a3.192,3.192,0,0,0-.591-2.01c-.852-1.228-1.725-1.2-3.427-1.2Zm.922-5.6c0-1.678,0-3.1,1.606-3.1a1.371,1.371,0,0,1,1.324.778,5.806,5.806,0,0,1,.238,2.411c0,1.678,0,3.047-1.534,3.047-1.558,0-1.632-1.275-1.632-3.142m4.322,8.478c.5,0,1.678-.023,1.678,1.3,0,1.466-1.678,2.743-4.489,2.743-2.595,0-3.5-1.349-3.5-2.411a2.18,2.18,0,0,1,.8-1.63Z" transform="translate(0.023 -0.001)" fill="#fff"/>
    </g>
  </g>
</svg>
