<svg xmlns="http://www.w3.org/2000/svg" width="32.5" height="32.609" viewBox="0 0 32.5 32.609">
  <g id="Group_5997" data-name="Group 5997" transform="translate(0.25 0.25)">
    <g id="Group_5998" data-name="Group 5998">
      <path id="Path_14257" data-name="Path 14257" d="M5.136,20.046,11.83,26.74l16.2-4.339-2.515-5.112A2.4,2.4,0,0,0,23.3,15.911H12.935c-.551.867-1.115,1.7-1.64,2.474a33.042,33.042,0,0,0-1.964,3.107.672.672,0,0,1-1.2,0,33.092,33.092,0,0,0-1.964-3.107l-.027-.043-.1-.141ZM8.73,3.965A3.551,3.551,0,1,1,6.22,5l.039-.037A3.538,3.538,0,0,1,8.73,3.965Zm1.556,1.993A2.207,2.207,0,0,0,7.2,5.93l-.028.03a2.2,2.2,0,1,0,3.112,0m2.646,21.884,2.916,2.916H28.175A2.449,2.449,0,0,0,30.389,27.2l-1.756-3.568Zm1.007,2.916L4.506,21.325,1.612,27.2a2.446,2.446,0,0,0,2.214,3.554Zm-.175-16.2H23.3a3.748,3.748,0,0,1,3.421,2.133L31.6,26.607a3.8,3.8,0,0,1-3.422,5.5H3.826A3.8,3.8,0,0,1,.4,26.61c1.582-3.216,3.132-6.52,4.769-9.706-1.929-2.918-3.957-6.365-3.957-9.39A7.492,7.492,0,0,1,3.417,2.2l.038-.035A7.507,7.507,0,0,1,14.04,2.2l0,0a7.49,7.49,0,0,1,2.2,5.309C16.244,9.762,15.128,12.24,13.764,14.56ZM7.283,17.632c.541.8,1.04,1.538,1.447,2.2.407-.661.906-1.4,1.447-2.2,2.048-3.026,4.716-6.968,4.716-10.117A6.166,6.166,0,0,0,4.4,3.124l-.03.032A6.146,6.146,0,0,0,2.566,7.514c0,3.139,2.642,7.057,4.685,10.075Z" transform="translate(0)" fill="#fff" stroke="#fff" stroke-width="0.5"/>
    </g>
  </g>
</svg>
