<svg xmlns="http://www.w3.org/2000/svg" width="180.078" height="54.705" viewBox="0 0 180.078 54.705">
  <g id="Group_15469" data-name="Group 15469" transform="translate(-2894.676 -4541.468)">
    <path id="Path_23961" data-name="Path 23961" d="M42.946,18.923a6.783,6.783,0,0,1-4.92-1.8,6.326,6.326,0,0,1-1.868-4.768A6.3,6.3,0,0,1,38.025,7.6a6.783,6.783,0,0,1,4.92-1.8,6.741,6.741,0,0,1,4.2,1.309,5.765,5.765,0,0,1,2.191,3.52c.035.24-.071.36-.323.36H46.807a.4.4,0,0,1-.4-.287,3.375,3.375,0,0,0-1.274-1.778,3.7,3.7,0,0,0-2.174-.63A3.8,3.8,0,0,0,40.1,9.414a4.046,4.046,0,0,0-1.088,2.937A4.065,4.065,0,0,0,40.1,15.314a3.821,3.821,0,0,0,2.864,1.113,3.71,3.71,0,0,0,2.165-.628,3.364,3.364,0,0,0,1.283-1.76.4.4,0,0,1,.4-.305h2.209c.252,0,.358.121.323.36a5.652,5.652,0,0,1-2.182,3.527,6.8,6.8,0,0,1-4.211,1.3" transform="translate(2922.676 4545.957)" fill="#fff"/>
    <path id="Path_23962" data-name="Path 23962" d="M51.4,18.915a6.826,6.826,0,0,1-4.938-1.831,6.264,6.264,0,0,1-1.9-4.723,6.267,6.267,0,0,1,1.9-4.723A6.826,6.826,0,0,1,51.4,5.806,6.838,6.838,0,0,1,56.33,7.637a6.253,6.253,0,0,1,1.911,4.723,6.25,6.25,0,0,1-1.911,4.723A6.838,6.838,0,0,1,51.4,18.915m-2.873-3.591a4.166,4.166,0,0,0,5.747,0,4.082,4.082,0,0,0,1.113-2.963A4.085,4.085,0,0,0,54.274,9.4a4.166,4.166,0,0,0-5.747,0,4.086,4.086,0,0,0-1.114,2.963,4.083,4.083,0,0,0,1.114,2.963" transform="translate(2929.181 4545.964)" fill="#fff"/>
    <path id="Path_23963" data-name="Path 23963" d="M63.039,7.968c0,.215-.114.323-.341.323H56.232v2.855h5.621q.341,0,.341.325v1.652a.3.3,0,0,1-.341.341H56.232v2.729H62.7q.341,0,.341.325v1.67a.3.3,0,0,1-.341.341H53.773c-.24,0-.36-.114-.36-.341V6.3c0-.227.121-.341.36-.341H62.7a.3.3,0,0,1,.341.341Z" transform="translate(2936.039 4546.082)" fill="#fff"/>
    <path id="Path_23964" data-name="Path 23964" d="M66.5,18.923a6.783,6.783,0,0,1-4.92-1.8,6.326,6.326,0,0,1-1.868-4.768A6.3,6.3,0,0,1,61.576,7.6a7.512,7.512,0,0,1,9.122-.5,5.765,5.765,0,0,1,2.191,3.52c.035.24-.071.36-.323.36H70.358a.4.4,0,0,1-.4-.287,3.375,3.375,0,0,0-1.274-1.778,3.7,3.7,0,0,0-2.174-.63,3.8,3.8,0,0,0-2.864,1.123,4.046,4.046,0,0,0-1.088,2.937,4.065,4.065,0,0,0,1.088,2.963,3.821,3.821,0,0,0,2.864,1.113,3.71,3.71,0,0,0,2.165-.628,3.364,3.364,0,0,0,1.283-1.76.4.4,0,0,1,.4-.305h2.209c.252,0,.358.121.323.36a5.652,5.652,0,0,1-2.183,3.527,6.8,6.8,0,0,1-4.211,1.3" transform="translate(2940.913 4545.957)" fill="#fff"/>
    <path id="Path_23965" data-name="Path 23965" d="M72.593,18.529a.3.3,0,0,1-.341-.341V14.614L67.334,6.353a.284.284,0,0,1-.03-.279.272.272,0,0,1,.261-.117h2.371a.431.431,0,0,1,.413.234l3.323,5.621L77,6.191a.426.426,0,0,1,.41-.234h2.371a.289.289,0,0,1,.27.117.246.246,0,0,1-.035.279l-4.92,8.242v3.593a.3.3,0,0,1-.341.341Z" transform="translate(2946.777 4546.082)" fill="#fff"/>
    <path id="Path_23966" data-name="Path 23966" d="M85.855,5.957A.3.3,0,0,1,86.2,6.3V8a.3.3,0,0,1-.341.341H81.921v9.841a.3.3,0,0,1-.341.342H79.444a.3.3,0,0,1-.342-.342V8.345H75.17A.3.3,0,0,1,74.829,8V6.3a.3.3,0,0,1,.341-.341Z" transform="translate(2952.623 4546.082)" fill="#fff"/>
    <path id="Path_23967" data-name="Path 23967" d="M86.3,18.816a5.264,5.264,0,0,1-3.43-1.095,4.229,4.229,0,0,1-1.544-2.963c-.037-.24.076-.36.341-.36h2.119a.321.321,0,0,1,.341.305,1.9,1.9,0,0,0,.772,1.23,2.548,2.548,0,0,0,1.545.46,2.087,2.087,0,0,0,1.643-.7,2.687,2.687,0,0,0,.619-1.849v-5.5H83.449A.3.3,0,0,1,83.106,8V6.3a.3.3,0,0,1,.342-.342h7.775a.3.3,0,0,1,.341.342v7.506a4.869,4.869,0,0,1-1.373,3.7A5.4,5.4,0,0,1,86.3,18.816" transform="translate(2957.652 4546.082)" fill="#fff"/>
    <path id="Path_23968" data-name="Path 23968" d="M88.029,18.529c-.275,0-.366-.131-.27-.4L93.093,6.209a.382.382,0,0,1,.378-.252h2.1a.393.393,0,0,1,.394.252l5.3,11.924a.3.3,0,0,1,0,.287.278.278,0,0,1-.252.108h-2.28a.4.4,0,0,1-.4-.252l-.987-2.316H91.693l-.971,2.316a.393.393,0,0,1-.4.252Zm4.615-4.885h3.771l-1.9-4.471Z" transform="translate(2962.607 4546.082)" fill="#fff"/>
    <path id="Path_23969" data-name="Path 23969" d="M99.013,16.193h6.232c.227,0,.341.108.341.323v1.67a.3.3,0,0,1-.341.342H96.552c-.24,0-.358-.114-.358-.342V6.3c0-.227.119-.341.358-.341h2.12a.3.3,0,0,1,.341.341Z" transform="translate(2969.168 4546.082)" fill="#fff"/>
    <path id="Path_23970" data-name="Path 23970" d="M39.748,20.628a2.879,2.879,0,0,1-2.09-.767,2.685,2.685,0,0,1-.795-2.026,2.673,2.673,0,0,1,.795-2.017,3.186,3.186,0,0,1,3.875-.211,2.456,2.456,0,0,1,.932,1.5c.016.1-.03.153-.137.153h-.939a.168.168,0,0,1-.169-.122,1.435,1.435,0,0,0-.541-.754,1.566,1.566,0,0,0-.924-.268,1.62,1.62,0,0,0-1.217.477,1.934,1.934,0,0,0,0,2.507,1.629,1.629,0,0,0,1.217.472,1.572,1.572,0,0,0,.919-.266,1.432,1.432,0,0,0,.547-.749.171.171,0,0,1,.169-.13h.939c.106,0,.153.051.137.153a2.4,2.4,0,0,1-.928,1.5,2.886,2.886,0,0,1-1.789.554" transform="translate(2923.222 4553.122)" fill="#fff"/>
    <path id="Path_23971" data-name="Path 23971" d="M44.016,19.377a2.412,2.412,0,0,1-3.045,0,2.064,2.064,0,0,1,0-2.862,2.412,2.412,0,0,1,3.045,0,2.069,2.069,0,0,1,0,2.862m-2.252-.683a1.092,1.092,0,0,0,1.457,0,1,1,0,0,0,.279-.743,1.018,1.018,0,0,0-.279-.749,1.081,1.081,0,0,0-1.457,0,1.018,1.018,0,0,0-.279.749,1,1,0,0,0,.279.743" transform="translate(2925.957 4553.839)" fill="#fff"/>
    <path id="Path_23972" data-name="Path 23972" d="M45.95,15.974a1.628,1.628,0,0,1,1.207.461,1.666,1.666,0,0,1,.458,1.224v1.993a.13.13,0,0,1-.146.145h-.855c-.1,0-.153-.05-.153-.145v-1.84a.892.892,0,0,0-.216-.625.757.757,0,0,0-.584-.238.854.854,0,0,0-.616.225.8.8,0,0,0-.232.6v1.877a.128.128,0,0,1-.144.145h-.855a.129.129,0,0,1-.146-.145v-2.4a.263.263,0,0,0-.3-.3,1.391,1.391,0,0,0-.167.023c-.112,0-.169-.041-.169-.122v-.626a.159.159,0,0,1,.115-.167,1.492,1.492,0,0,1,.548-.092.947.947,0,0,1,.916.481,1.805,1.805,0,0,1,1.336-.481" transform="translate(2928.002 4553.839)" fill="#fff"/>
    <path id="Path_23973" data-name="Path 23973" d="M47.863,19.918a2.437,2.437,0,0,1-1.306-.316,1.225,1.225,0,0,1-.589-.882c-.014-.1.034-.153.146-.153l.751.007a.2.2,0,0,1,.165.106c.106.275.387.413.834.413A.983.983,0,0,0,48.317,19a.278.278,0,0,0,.172-.245c0-.131-.083-.227-.245-.286a2.783,2.783,0,0,0-.594-.13,6.085,6.085,0,0,1-.7-.126,1.192,1.192,0,0,1-.6-.344.984.984,0,0,1-.241-.7,1.011,1.011,0,0,1,.463-.869,2.091,2.091,0,0,1,1.23-.328,2.245,2.245,0,0,1,1.2.3,1.12,1.12,0,0,1,.559.8c.016.1-.028.153-.135.153h-.756a.168.168,0,0,1-.154-.092.529.529,0,0,0-.263-.27,1.048,1.048,0,0,0-.871-.016.262.262,0,0,0-.161.232.326.326,0,0,0,.247.305,2.606,2.606,0,0,0,.6.149c.236.034.47.078.7.133a1.218,1.218,0,0,1,.6.344.97.97,0,0,1,.247.694,1.025,1.025,0,0,1-.472.885,2.243,2.243,0,0,1-1.29.328" transform="translate(2930.271 4553.839)" fill="#fff"/>
    <path id="Path_23974" data-name="Path 23974" d="M50.461,19.918a2.139,2.139,0,0,1-1.519-.541,1.861,1.861,0,0,1-.578-1.427,1.9,1.9,0,0,1,.561-1.435,2.024,2.024,0,0,1,1.467-.541,1.97,1.97,0,0,1,1.455.534,1.9,1.9,0,0,1,.538,1.411c0,.032,0,.076,0,.135s0,.1,0,.126a.146.146,0,0,1-.161.13h-2.74a.954.954,0,0,0,.364.541,1.053,1.053,0,0,0,.644.2.8.8,0,0,0,.626-.229.3.3,0,0,1,.183-.076h.855a.143.143,0,0,1,.117.043.1.1,0,0,1,0,.11,1.525,1.525,0,0,1-.678.747,2.227,2.227,0,0,1-1.13.275m-.992-2.289h1.824a.822.822,0,0,0-.252-.584.856.856,0,0,0-.617-.225.947.947,0,0,0-.639.225.926.926,0,0,0-.316.584" transform="translate(2932.129 4553.839)" fill="#fff"/>
    <path id="Path_23975" data-name="Path 23975" d="M50.915,22.489a.146.146,0,0,1-.16-.137l-.1-.633c-.016-.087.035-.142.153-.169a.763.763,0,0,0,.477-.193.707.707,0,0,0,.133-.477V17.033a.128.128,0,0,1,.145-.144h.862a.127.127,0,0,1,.144.144V20.75a1.837,1.837,0,0,1-.4,1.294,1.683,1.683,0,0,1-1.253.445M52,16.21a.689.689,0,0,1-.488-.183.589.589,0,0,1-.2-.451.579.579,0,0,1,.2-.447.744.744,0,0,1,.969,0,.585.585,0,0,1,.2.447.6.6,0,0,1-.2.451A.683.683,0,0,1,52,16.21" transform="translate(2933.902 4553.045)" fill="#fff"/>
    <path id="Path_23976" data-name="Path 23976" d="M55.791,19.377a2.412,2.412,0,0,1-3.045,0,2.064,2.064,0,0,1,0-2.862,2.412,2.412,0,0,1,3.045,0,2.069,2.069,0,0,1,0,2.862m-2.252-.683a1.092,1.092,0,0,0,1.457,0,1,1,0,0,0,.279-.743A1.018,1.018,0,0,0,55,17.2a1.081,1.081,0,0,0-1.457,0,1.018,1.018,0,0,0-.279.749,1,1,0,0,0,.279.743" transform="translate(2935.075 4553.839)" fill="#fff"/>
    <path id="Path_23977" data-name="Path 23977" d="M60.138,15.973c0,.092-.048.137-.145.137H57.246v1.214h2.388c.1,0,.146.046.146.138v.7a.128.128,0,0,1-.146.146H57.246v1.16h2.747c.1,0,.145.046.145.137v.71a.129.129,0,0,1-.145.145H56.2c-.1,0-.153-.05-.153-.145V15.263c0-.1.051-.146.153-.146h3.792a.129.129,0,0,1,.145.146Z" transform="translate(2938.079 4553.176)" fill="#fff"/>
    <path id="Path_23978" data-name="Path 23978" d="M60.539,19.918a2.43,2.43,0,0,1-1.3-.316,1.215,1.215,0,0,1-.589-.882c-.014-.1.034-.153.146-.153l.749.007a.2.2,0,0,1,.167.106c.106.275.385.413.832.413A.978.978,0,0,0,60.994,19a.275.275,0,0,0,.172-.245c0-.131-.082-.227-.245-.286a2.783,2.783,0,0,0-.594-.13,6.085,6.085,0,0,1-.7-.126,1.18,1.18,0,0,1-.6-.344.985.985,0,0,1-.243-.7,1.012,1.012,0,0,1,.465-.869,2.084,2.084,0,0,1,1.23-.328,2.239,2.239,0,0,1,1.2.3,1.127,1.127,0,0,1,.561.8c.016.1-.03.153-.137.153h-.756a.167.167,0,0,1-.153-.092.533.533,0,0,0-.264-.27,1.044,1.044,0,0,0-.869-.016.264.264,0,0,0-.163.232.325.325,0,0,0,.248.305,2.566,2.566,0,0,0,.6.149c.238.034.472.078.706.133a1.2,1.2,0,0,1,.6.344.962.962,0,0,1,.247.694,1.021,1.021,0,0,1-.472.885,2.235,2.235,0,0,1-1.29.328" transform="translate(2940.089 4553.839)" fill="#fff"/>
    <path id="Path_23979" data-name="Path 23979" d="M63.349,20.352a1.616,1.616,0,0,1-1.18-.424,1.551,1.551,0,0,1-.431-1.155v-1.32h-.7a.127.127,0,0,1-.144-.145v-.633a.128.128,0,0,1,.144-.146h.7V15.56a.13.13,0,0,1,.146-.146h.853a.13.13,0,0,1,.147.146v.969h1.2a.13.13,0,0,1,.147.146v.633a.129.129,0,0,1-.147.145h-1.2v1.281a.613.613,0,0,0,.17.458.635.635,0,0,0,.463.169,2.333,2.333,0,0,0,.571-.069.129.129,0,0,1,.169.115l.1.657a.157.157,0,0,1-.117.167,3.664,3.664,0,0,1-.891.122" transform="translate(2941.829 4553.405)" fill="#fff"/>
    <path id="Path_23980" data-name="Path 23980" d="M68.059,19.667a.136.136,0,0,1-.122.161,2.079,2.079,0,0,1-.573.09,1,1,0,0,1-.96-.465,1.887,1.887,0,0,1-1.283.465,1.978,1.978,0,0,1-1.446-.55,2.086,2.086,0,0,1,0-2.846,1.984,1.984,0,0,1,1.446-.548,1.709,1.709,0,0,1,1.084.351V16.24a.127.127,0,0,1,.144-.144h.841a.127.127,0,0,1,.144.144v2.4c0,.2.085.3.252.3a1.128,1.128,0,0,0,.236-.021c.1-.011.156.03.161.121Zm-2.839-.641a.883.883,0,0,0,.694-.3,1.264,1.264,0,0,0,0-1.556.883.883,0,0,0-.694-.3.919.919,0,0,0-.71.3,1.238,1.238,0,0,0,0,1.556.919.919,0,0,0,.71.3" transform="translate(2943.551 4553.839)" fill="#fff"/>
    <path id="Path_23981" data-name="Path 23981" d="M68.479,20.352a1.609,1.609,0,0,1-1.178-.424,1.545,1.545,0,0,1-.431-1.155v-1.32h-.7a.128.128,0,0,1-.145-.145v-.633a.129.129,0,0,1,.145-.146h.7V15.56a.128.128,0,0,1,.144-.146h.855a.13.13,0,0,1,.146.146v.969h1.2a.13.13,0,0,1,.146.146v.633a.129.129,0,0,1-.146.145h-1.2v1.281a.613.613,0,0,0,.17.458.638.638,0,0,0,.463.169,2.333,2.333,0,0,0,.571-.069.129.129,0,0,1,.169.115l.1.657a.158.158,0,0,1-.115.167,3.689,3.689,0,0,1-.893.122" transform="translate(2945.802 4553.405)" fill="#fff"/>
    <path id="Path_23982" data-name="Path 23982" d="M73.19,19.667a.136.136,0,0,1-.122.161,2.079,2.079,0,0,1-.573.09,1,1,0,0,1-.96-.465,1.887,1.887,0,0,1-1.283.465,1.975,1.975,0,0,1-1.446-.55,2.086,2.086,0,0,1,0-2.846,1.981,1.981,0,0,1,1.446-.548,1.709,1.709,0,0,1,1.084.351V16.24a.127.127,0,0,1,.144-.144h.841a.127.127,0,0,1,.144.144v2.4c0,.2.085.3.252.3a1.128,1.128,0,0,0,.236-.021c.1-.011.156.03.161.121Zm-2.839-.641a.883.883,0,0,0,.694-.3,1.264,1.264,0,0,0,0-1.556.883.883,0,0,0-.694-.3.919.919,0,0,0-.71.3,1.238,1.238,0,0,0,0,1.556.919.919,0,0,0,.71.3" transform="translate(2947.524 4553.839)" fill="#fff"/>
    <path id="Path_23983" data-name="Path 23983" d="M72.578,20.715a1.352,1.352,0,0,1-.85-.245.791.791,0,0,1-.318-.664V15.09a.128.128,0,0,1,.145-.144h.853a.128.128,0,0,1,.146.144v4.351c0,.193.087.289.259.289a.978.978,0,0,0,.229-.023c.1-.009.156.032.161.122l.076.633a.134.134,0,0,1-.122.16,1.992,1.992,0,0,1-.58.092" transform="translate(2949.975 4553.042)" fill="#fff"/>
    <path id="Path_23984" data-name="Path 23984" d="M78.773,20.463a.128.128,0,0,1-.115.161,2.124,2.124,0,0,1-.587.09.983.983,0,0,1-.962-.481,1.758,1.758,0,0,1-1.267.481,1.978,1.978,0,0,1-1.446-.55,2.086,2.086,0,0,1,0-2.846,1.984,1.984,0,0,1,1.446-.548A1.746,1.746,0,0,1,76.9,17.1V15.091a.128.128,0,0,1,.145-.145h.862a.128.128,0,0,1,.144.145v4.349c0,.193.085.289.252.289a1.023,1.023,0,0,0,.229-.021c.106-.011.163.03.169.121Zm-2.832-.641a.883.883,0,0,0,.694-.3,1.264,1.264,0,0,0,0-1.556.883.883,0,0,0-.694-.3.919.919,0,0,0-.71.3,1.238,1.238,0,0,0,0,1.556.919.919,0,0,0,.71.3" transform="translate(2951.853 4553.042)" fill="#fff"/>
    <path id="Path_23985" data-name="Path 23985" d="M79,19.918a2.139,2.139,0,0,1-1.519-.541,1.861,1.861,0,0,1-.578-1.427,1.9,1.9,0,0,1,.561-1.435,2.024,2.024,0,0,1,1.467-.541,1.97,1.97,0,0,1,1.455.534,1.9,1.9,0,0,1,.538,1.411c0,.032,0,.076,0,.135s0,.1,0,.126a.146.146,0,0,1-.161.13h-2.74a.954.954,0,0,0,.364.541,1.053,1.053,0,0,0,.644.2.8.8,0,0,0,.626-.229.3.3,0,0,1,.183-.076h.855a.143.143,0,0,1,.117.043.1.1,0,0,1,0,.11,1.525,1.525,0,0,1-.678.747,2.227,2.227,0,0,1-1.13.275M78,17.63h1.824a.822.822,0,0,0-.252-.584.856.856,0,0,0-.617-.225.947.947,0,0,0-.639.225A.926.926,0,0,0,78,17.63" transform="translate(2954.225 4553.839)" fill="#fff"/>
    <path id="Path_23986" data-name="Path 23986" d="M83.489,20.628a2.879,2.879,0,0,1-2.09-.767,2.685,2.685,0,0,1-.795-2.026,2.673,2.673,0,0,1,.795-2.017,3.186,3.186,0,0,1,3.875-.211,2.456,2.456,0,0,1,.932,1.5c.016.1-.03.153-.137.153H85.13a.168.168,0,0,1-.169-.122,1.435,1.435,0,0,0-.541-.754,1.566,1.566,0,0,0-.924-.268,1.62,1.62,0,0,0-1.217.477,1.934,1.934,0,0,0,0,2.507,1.629,1.629,0,0,0,1.217.472,1.572,1.572,0,0,0,.919-.266,1.432,1.432,0,0,0,.547-.749.171.171,0,0,1,.169-.13h.939c.106,0,.153.051.137.153a2.4,2.4,0,0,1-.928,1.5,2.886,2.886,0,0,1-1.789.554" transform="translate(2957.095 4553.122)" fill="#fff"/>
    <path id="Path_23987" data-name="Path 23987" d="M85.342,16.026a.728.728,0,0,1-.969,0,.594.594,0,0,1-.2-.449.582.582,0,0,1,.2-.447.744.744,0,0,1,.969,0,.582.582,0,0,1,.2.447.594.594,0,0,1-.2.449M84.43,20.59a.128.128,0,0,1-.146-.145v-3.41a.129.129,0,0,1,.146-.145h.855a.128.128,0,0,1,.144.145v3.41a.128.128,0,0,1-.144.145Z" transform="translate(2959.863 4553.046)" fill="#fff"/>
    <path id="Path_23988" data-name="Path 23988" d="M87.415,19.918a2.139,2.139,0,0,1-1.519-.541,1.861,1.861,0,0,1-.578-1.427,1.9,1.9,0,0,1,.561-1.435,2.024,2.024,0,0,1,1.467-.541,1.97,1.97,0,0,1,1.455.534,1.9,1.9,0,0,1,.538,1.411c0,.032,0,.076,0,.135s0,.1,0,.126a.146.146,0,0,1-.161.13h-2.74a.954.954,0,0,0,.364.541,1.053,1.053,0,0,0,.644.2.8.8,0,0,0,.626-.229.3.3,0,0,1,.183-.076H89.1a.143.143,0,0,1,.117.043.1.1,0,0,1,0,.11,1.525,1.525,0,0,1-.678.747,2.227,2.227,0,0,1-1.13.275m-.992-2.289h1.824A.822.822,0,0,0,88,17.046a.857.857,0,0,0-.618-.225.947.947,0,0,0-.639.225.926.926,0,0,0-.316.584" transform="translate(2960.745 4553.839)" fill="#fff"/>
    <path id="Path_23989" data-name="Path 23989" d="M90.778,15.974a1.628,1.628,0,0,1,1.207.461,1.666,1.666,0,0,1,.458,1.224v1.993a.13.13,0,0,1-.146.145h-.855c-.1,0-.153-.05-.153-.145v-1.84a.891.891,0,0,0-.216-.625.757.757,0,0,0-.584-.238.854.854,0,0,0-.616.225.8.8,0,0,0-.232.6v1.877a.128.128,0,0,1-.144.145h-.855a.129.129,0,0,1-.146-.145v-2.4a.263.263,0,0,0-.3-.3,1.391,1.391,0,0,0-.167.023c-.112,0-.169-.041-.169-.122v-.626a.159.159,0,0,1,.115-.167,1.492,1.492,0,0,1,.548-.092.947.947,0,0,1,.916.481,1.805,1.805,0,0,1,1.336-.481" transform="translate(2962.717 4553.839)" fill="#fff"/>
    <path id="Path_23990" data-name="Path 23990" d="M92.942,19.918a2.136,2.136,0,0,1-1.522-.541,2.064,2.064,0,0,1,0-2.862,2.4,2.4,0,0,1,2.805-.169,1.566,1.566,0,0,1,.641,1.008c.014.1-.028.153-.13.153h-.818a.172.172,0,0,1-.16-.122.7.7,0,0,0-.3-.355.962.962,0,0,0-.515-.133.949.949,0,0,0-.724.289,1.06,1.06,0,0,0-.275.763,1.043,1.043,0,0,0,.275.759.954.954,0,0,0,.724.287,1.01,1.01,0,0,0,.52-.131.632.632,0,0,0,.3-.358.183.183,0,0,1,.16-.121h.818c.1,0,.144.05.13.153a1.558,1.558,0,0,1-.641,1.006,2.131,2.131,0,0,1-1.283.374" transform="translate(2965.024 4553.839)" fill="#fff"/>
    <path id="Path_23991" data-name="Path 23991" d="M94.652,16.026a.728.728,0,0,1-.969,0,.594.594,0,0,1-.2-.449.582.582,0,0,1,.2-.447.744.744,0,0,1,.969,0,.582.582,0,0,1,.2.447.594.594,0,0,1-.2.449M93.74,20.59a.128.128,0,0,1-.146-.145v-3.41a.129.129,0,0,1,.146-.145H94.6a.128.128,0,0,1,.144.145v3.41a.128.128,0,0,1-.144.145Z" transform="translate(2967.072 4553.046)" fill="#fff"/>
    <path id="Path_23992" data-name="Path 23992" d="M99.569,19.667a.136.136,0,0,1-.122.161,2.08,2.08,0,0,1-.573.09,1,1,0,0,1-.96-.465,1.887,1.887,0,0,1-1.283.465,1.978,1.978,0,0,1-1.446-.55,2.086,2.086,0,0,1,0-2.846,1.984,1.984,0,0,1,1.446-.548,1.709,1.709,0,0,1,1.084.351V16.24a.127.127,0,0,1,.144-.144H98.7a.127.127,0,0,1,.144.144v2.4c0,.2.085.3.252.3a1.128,1.128,0,0,0,.236-.021c.1-.011.156.03.161.121Zm-2.839-.641a.883.883,0,0,0,.694-.3,1.264,1.264,0,0,0,0-1.556.883.883,0,0,0-.694-.3.919.919,0,0,0-.71.3,1.238,1.238,0,0,0,0,1.556.919.919,0,0,0,.71.3" transform="translate(2967.952 4553.839)" fill="#fff"/>
    <path id="Path_23993" data-name="Path 23993" d="M41.273,21.2a.114.114,0,0,1,.11.046.14.14,0,0,1,0,.122l-1.9,4.227a1.794,1.794,0,0,1-1.7,1.207,3.048,3.048,0,0,1-.9-.122.128.128,0,0,1-.115-.16l.1-.657q.04-.154.17-.122a2.661,2.661,0,0,0,.578.067.8.8,0,0,0,.793-.5l.16-.344-1.808-3.6a.113.113,0,0,1,0-.122.142.142,0,0,1,.121-.046h.9a.184.184,0,0,1,.169.106l1.184,2.381L40.2,21.31a.163.163,0,0,1,.165-.106Z" transform="translate(2923.124 4557.889)" fill="#fff"/>
    <path id="Path_23994" data-name="Path 23994" d="M45.355,20.279a.129.129,0,0,1,.145.146v.724a.129.129,0,0,1-.145.145H43.684v4.182a.128.128,0,0,1-.146.144h-.907a.128.128,0,0,1-.145-.144V21.294H40.814a.129.129,0,0,1-.146-.145v-.724a.129.129,0,0,1,.146-.146Z" transform="translate(2926.17 4557.172)" fill="#fff"/>
    <path id="Path_23995" data-name="Path 23995" d="M45.511,25.079a2.139,2.139,0,0,1-1.519-.541,1.861,1.861,0,0,1-.578-1.427,1.9,1.9,0,0,1,.561-1.435,2.024,2.024,0,0,1,1.467-.541,1.97,1.97,0,0,1,1.455.534,1.9,1.9,0,0,1,.538,1.411c0,.032,0,.076,0,.135s0,.1,0,.126a.146.146,0,0,1-.161.13h-2.74a.954.954,0,0,0,.364.541,1.053,1.053,0,0,0,.644.2.8.8,0,0,0,.626-.229.3.3,0,0,1,.183-.076H47.2a.143.143,0,0,1,.117.043.1.1,0,0,1,0,.11,1.525,1.525,0,0,1-.678.747,2.227,2.227,0,0,1-1.13.275m-.992-2.289h1.824a.822.822,0,0,0-.252-.584.856.856,0,0,0-.617-.225.947.947,0,0,0-.639.225.926.926,0,0,0-.316.584" transform="translate(2928.296 4557.835)" fill="#fff"/>
    <path id="Path_23996" data-name="Path 23996" d="M48.118,25.079a2.136,2.136,0,0,1-1.522-.541,2.064,2.064,0,0,1,0-2.862,2.4,2.4,0,0,1,2.805-.169,1.566,1.566,0,0,1,.641,1.008c.014.1-.028.153-.13.153h-.818a.172.172,0,0,1-.16-.122.7.7,0,0,0-.3-.355.962.962,0,0,0-.515-.133.949.949,0,0,0-.724.289,1.06,1.06,0,0,0-.275.763,1.043,1.043,0,0,0,.275.759.954.954,0,0,0,.724.287,1.01,1.01,0,0,0,.52-.131.632.632,0,0,0,.3-.358.183.183,0,0,1,.16-.121h.818c.1,0,.144.05.13.153a1.558,1.558,0,0,1-.641,1.006,2.131,2.131,0,0,1-1.283.374" transform="translate(2930.313 4557.835)" fill="#fff"/>
    <path id="Path_23997" data-name="Path 23997" d="M51.476,21.135a1.628,1.628,0,0,1,1.207.461,1.666,1.666,0,0,1,.458,1.224v1.993a.13.13,0,0,1-.145.146H52.14c-.1,0-.153-.05-.153-.146v-1.84a.892.892,0,0,0-.216-.625.757.757,0,0,0-.584-.238.854.854,0,0,0-.616.225.8.8,0,0,0-.232.6v1.877a.128.128,0,0,1-.144.146H49.34a.129.129,0,0,1-.146-.146v-2.4a.263.263,0,0,0-.3-.3,1.39,1.39,0,0,0-.167.023c-.112,0-.169-.041-.169-.122v-.626a.159.159,0,0,1,.115-.167,1.492,1.492,0,0,1,.548-.092.947.947,0,0,1,.916.481,1.805,1.805,0,0,1,1.336-.481" transform="translate(2932.281 4557.835)" fill="#fff"/>
    <path id="Path_23998" data-name="Path 23998" d="M55.163,24.538a2.412,2.412,0,0,1-3.045,0,2.064,2.064,0,0,1,0-2.862,2.412,2.412,0,0,1,3.045,0,2.069,2.069,0,0,1,0,2.862m-2.252-.683a1.092,1.092,0,0,0,1.457,0,1,1,0,0,0,.279-.743,1.018,1.018,0,0,0-.279-.749,1.081,1.081,0,0,0-1.457,0,1.018,1.018,0,0,0-.279.749,1,1,0,0,0,.279.743" transform="translate(2934.589 4557.835)" fill="#fff"/>
    <path id="Path_23999" data-name="Path 23999" d="M55.513,25.876a1.352,1.352,0,0,1-.85-.245.791.791,0,0,1-.318-.664V20.251a.128.128,0,0,1,.145-.144h.853a.128.128,0,0,1,.145.144V24.6c0,.193.087.289.259.289a.978.978,0,0,0,.229-.023c.1-.009.156.032.161.122l.076.633a.134.134,0,0,1-.122.16,1.992,1.992,0,0,1-.58.092" transform="translate(2936.76 4557.039)" fill="#fff"/>
    <path id="Path_24000" data-name="Path 24000" d="M59.3,24.538a2.412,2.412,0,0,1-3.045,0,2.064,2.064,0,0,1,0-2.862,2.412,2.412,0,0,1,3.045,0,2.069,2.069,0,0,1,0,2.862m-2.252-.683a1.092,1.092,0,0,0,1.457,0,1,1,0,0,0,.279-.743,1.018,1.018,0,0,0-.279-.749,1.081,1.081,0,0,0-1.457,0,1.018,1.018,0,0,0-.279.749,1,1,0,0,0,.279.743" transform="translate(2937.79 4557.835)" fill="#fff"/>
    <path id="Path_24001" data-name="Path 24001" d="M62.468,21.256a.128.128,0,0,1,.144.146v3.648a1.661,1.661,0,0,1-.564,1.308,2.148,2.148,0,0,1-1.48.5,2.368,2.368,0,0,1-1.377-.381,1.517,1.517,0,0,1-.669-1.015c-.025-.1.021-.146.138-.146h.853a.188.188,0,0,1,.169.115.638.638,0,0,0,.312.362,1.134,1.134,0,0,0,.564.133.9.9,0,0,0,.657-.236.841.841,0,0,0,.245-.633v-.321a1.706,1.706,0,0,1-1.061.328,1.972,1.972,0,0,1-1.443-.552,2.054,2.054,0,0,1,0-2.828,1.984,1.984,0,0,1,1.443-.548,1.718,1.718,0,0,1,1.084.35V21.4a.128.128,0,0,1,.144-.146ZM60.5,24.164a.885.885,0,0,0,.694-.3,1.234,1.234,0,0,0,0-1.54.891.891,0,0,0-.69-.3.922.922,0,0,0-.706.3,1.2,1.2,0,0,0,0,1.537.922.922,0,0,0,.71.3" transform="translate(2939.894 4557.835)" fill="#fff"/>
    <path id="Path_24002" data-name="Path 24002" d="M62.307,22a.129.129,0,0,1,.146.146v3.41a.129.129,0,0,1-.146.145h-.855a.128.128,0,0,1-.144-.145v-3.41A.128.128,0,0,1,61.452,22Zm-.809-.61a.122.122,0,0,1-.11-.05.1.1,0,0,1,0-.119l.5-.939a.175.175,0,0,1,.167-.106h.9a.118.118,0,0,1,.11.046c.018.03.009.075-.027.13l-.648.955a.206.206,0,0,1-.176.083Z" transform="translate(2942.152 4557.091)" fill="#fff"/>
    <path id="Path_24003" data-name="Path 24003" d="M67.328,24.827a.136.136,0,0,1-.122.161,2.079,2.079,0,0,1-.573.09,1,1,0,0,1-.96-.465,1.887,1.887,0,0,1-1.283.465,1.978,1.978,0,0,1-1.446-.55,2.086,2.086,0,0,1,0-2.846,1.984,1.984,0,0,1,1.446-.548,1.709,1.709,0,0,1,1.084.351V21.4a.127.127,0,0,1,.144-.144h.841a.127.127,0,0,1,.144.144v2.4c0,.2.085.3.252.3a1.128,1.128,0,0,0,.236-.021c.1-.011.156.03.161.121Zm-2.839-.641a.883.883,0,0,0,.694-.3,1.264,1.264,0,0,0,0-1.556.883.883,0,0,0-.694-.3.919.919,0,0,0-.71.3,1.238,1.238,0,0,0,0,1.556.919.919,0,0,0,.71.3" transform="translate(2942.985 4557.835)" fill="#fff"/>
    <path id="Path_24004" data-name="Path 24004" d="M71.479,25.624a.128.128,0,0,1-.115.161,2.124,2.124,0,0,1-.587.09.983.983,0,0,1-.962-.481,1.758,1.758,0,0,1-1.267.481,1.978,1.978,0,0,1-1.446-.55,2.086,2.086,0,0,1,0-2.846,1.984,1.984,0,0,1,1.446-.548,1.746,1.746,0,0,1,1.061.328V20.252a.128.128,0,0,1,.146-.145h.862a.128.128,0,0,1,.144.145V24.6c0,.193.085.289.252.289a1.024,1.024,0,0,0,.229-.021c.106-.011.163.03.169.121Zm-2.832-.641a.883.883,0,0,0,.694-.3,1.264,1.264,0,0,0,0-1.556.883.883,0,0,0-.694-.3.919.919,0,0,0-.71.3,1.238,1.238,0,0,0,0,1.556.919.919,0,0,0,.71.3" transform="translate(2946.205 4557.039)" fill="#fff"/>
    <path id="Path_24005" data-name="Path 24005" d="M71.7,25.079a2.139,2.139,0,0,1-1.519-.541,1.861,1.861,0,0,1-.578-1.427,1.9,1.9,0,0,1,.561-1.435,2.024,2.024,0,0,1,1.467-.541,1.97,1.97,0,0,1,1.455.534,1.9,1.9,0,0,1,.538,1.411c0,.032,0,.076,0,.135s0,.1,0,.126a.146.146,0,0,1-.161.13h-2.74a.954.954,0,0,0,.364.541,1.053,1.053,0,0,0,.644.2.8.8,0,0,0,.626-.229.3.3,0,0,1,.183-.076h.855a.143.143,0,0,1,.117.043.1.1,0,0,1,0,.11,1.525,1.525,0,0,1-.678.747,2.227,2.227,0,0,1-1.13.275m-.992-2.289h1.824a.822.822,0,0,0-.252-.584.856.856,0,0,0-.617-.225.947.947,0,0,0-.639.225.926.926,0,0,0-.316.584" transform="translate(2948.577 4557.835)" fill="#fff"/>
    <path id="Path_24006" data-name="Path 24006" d="M75.3,25.742a2.23,2.23,0,0,1-1.457-.465,1.8,1.8,0,0,1-.657-1.26c-.016-.1.032-.153.144-.153h.9a.137.137,0,0,1,.145.13.8.8,0,0,0,.328.523,1.08,1.08,0,0,0,.655.193.885.885,0,0,0,.7-.3,1.144,1.144,0,0,0,.263-.786V21.294H74.087a.128.128,0,0,1-.144-.145v-.726a.127.127,0,0,1,.144-.144h3.3a.128.128,0,0,1,.146.144v3.19a2.07,2.07,0,0,1-.584,1.572,2.3,2.3,0,0,1-1.652.557" transform="translate(2951.349 4557.172)" fill="#fff"/>
    <path id="Path_24007" data-name="Path 24007" d="M81,24.827a.136.136,0,0,1-.122.161,2.079,2.079,0,0,1-.573.09,1,1,0,0,1-.96-.465,1.887,1.887,0,0,1-1.283.465,1.978,1.978,0,0,1-1.446-.55,2.086,2.086,0,0,1,0-2.846,1.984,1.984,0,0,1,1.446-.548,1.709,1.709,0,0,1,1.084.351V21.4a.127.127,0,0,1,.144-.144h.841a.127.127,0,0,1,.144.144v2.4c0,.2.085.3.252.3a1.128,1.128,0,0,0,.236-.021c.1-.011.156.03.161.121Zm-2.839-.641a.883.883,0,0,0,.694-.3,1.264,1.264,0,0,0,0-1.556.883.883,0,0,0-.694-.3.919.919,0,0,0-.71.3,1.238,1.238,0,0,0,0,1.556.919.919,0,0,0,.71.3" transform="translate(2953.568 4557.835)" fill="#fff"/>
    <path id="Path_24008" data-name="Path 24008" d="M80.383,25.876a1.352,1.352,0,0,1-.85-.245.791.791,0,0,1-.318-.664V20.251a.128.128,0,0,1,.145-.144h.853a.128.128,0,0,1,.145.144V24.6c0,.193.087.289.259.289a.978.978,0,0,0,.229-.023c.1-.009.156.032.161.122l.076.633a.134.134,0,0,1-.122.16,1.992,1.992,0,0,1-.58.092" transform="translate(2956.02 4557.039)" fill="#fff"/>
    <path id="Path_24009" data-name="Path 24009" d="M81.751,21.186a.728.728,0,0,1-.969,0,.594.594,0,0,1-.2-.449.582.582,0,0,1,.2-.447.744.744,0,0,1,.969,0,.582.582,0,0,1,.2.447.594.594,0,0,1-.2.449m-.912,4.564a.128.128,0,0,1-.145-.145v-3.41a.129.129,0,0,1,.145-.146h.855a.128.128,0,0,1,.144.146V25.6a.128.128,0,0,1-.144.145Z" transform="translate(2957.082 4557.042)" fill="#fff"/>
    <path id="Path_24010" data-name="Path 24010" d="M83.577,25.079a2.43,2.43,0,0,1-1.3-.316,1.208,1.208,0,0,1-.587-.882c-.016-.1.032-.153.144-.153l.749.007a.2.2,0,0,1,.167.106c.106.275.385.413.832.413a.978.978,0,0,0,.454-.092.275.275,0,0,0,.172-.245c0-.131-.082-.227-.245-.286a2.783,2.783,0,0,0-.594-.13,6.084,6.084,0,0,1-.7-.126,1.167,1.167,0,0,1-.594-.344.978.978,0,0,1-.245-.7,1.012,1.012,0,0,1,.465-.869,2.084,2.084,0,0,1,1.23-.328,2.239,2.239,0,0,1,1.2.3,1.127,1.127,0,0,1,.561.8c.016.1-.03.153-.137.153h-.756a.167.167,0,0,1-.153-.092.533.533,0,0,0-.264-.27,1.026,1.026,0,0,0-.869-.016.264.264,0,0,0-.163.232.325.325,0,0,0,.248.305,2.566,2.566,0,0,0,.6.149c.238.034.472.078.706.133a1.2,1.2,0,0,1,.6.344.962.962,0,0,1,.247.694,1.023,1.023,0,0,1-.472.885,2.235,2.235,0,0,1-1.29.328" transform="translate(2957.93 4557.835)" fill="#fff"/>
    <path id="Path_24011" data-name="Path 24011" d="M86.173,25.079a2.136,2.136,0,0,1-1.522-.541,2.064,2.064,0,0,1,0-2.862,2.4,2.4,0,0,1,2.805-.169,1.566,1.566,0,0,1,.641,1.008c.014.1-.028.153-.13.153h-.818a.172.172,0,0,1-.16-.122.7.7,0,0,0-.3-.355.962.962,0,0,0-.515-.133.949.949,0,0,0-.724.289,1.06,1.06,0,0,0-.275.763,1.043,1.043,0,0,0,.275.759.954.954,0,0,0,.724.287,1,1,0,0,0,.518-.131.628.628,0,0,0,.3-.358.183.183,0,0,1,.16-.121h.818c.1,0,.144.05.13.153a1.558,1.558,0,0,1-.641,1.006,2.131,2.131,0,0,1-1.283.374" transform="translate(2959.782 4557.835)" fill="#fff"/>
    <path id="Path_24012" data-name="Path 24012" d="M90.3,24.538a2.412,2.412,0,0,1-3.045,0,2.064,2.064,0,0,1,0-2.862,2.412,2.412,0,0,1,3.045,0,2.068,2.068,0,0,1,0,2.862m-2.252-.683a1.092,1.092,0,0,0,1.457,0,1,1,0,0,0,.279-.743,1.018,1.018,0,0,0-.279-.749,1.081,1.081,0,0,0-1.457,0,1.018,1.018,0,0,0-.279.749,1,1,0,0,0,.279.743" transform="translate(2961.797 4557.835)" fill="#fff"/>
    <path id="Path_24013" data-name="Path 24013" d="M42.837,18.713c.422-1.324.772-2.61,1.034-3.84,1.249-5.834.525-9.747-2.092-11.319a4.638,4.638,0,0,0-.827-.381,4.561,4.561,0,0,0-8.71,2.709,38.39,38.39,0,0,0-4.748,4.3,42.176,42.176,0,0,0-3.32-3.162c-4.555-3.85-8.348-5.059-10.967-3.49S9.857,9.016,11.1,14.85c.263,1.233.61,2.525,1.033,3.856-1.269.309-2.475.657-3.6,1.045-.115.041-.225.082-.339.124A4.558,4.558,0,0,0,.678,24.941,4.826,4.826,0,0,0,0,27.368c0,4.044,5.133,6.966,12.124,8.652-.426,1.336-.777,2.631-1.043,3.87-1.249,5.834-.525,9.747,2.092,11.319a4.814,4.814,0,0,0,2.525.674c3.373,0,7.619-2.94,11.761-7.307a42.175,42.175,0,0,0,3.32,3.162,19.585,19.585,0,0,0,6,3.7,4.559,4.559,0,1,0,7.527-4.585c.442-2.859-.174-6.672-1.5-10.82,1.283-.311,2.5-.66,3.632-1.052,5.582-1.932,8.533-4.567,8.533-7.617,0-4.046-5.137-6.968-12.131-8.655M34.613,4.326a2.014,2.014,0,0,1,4.014.234,2.018,2.018,0,0,1-4.037,0,2.053,2.053,0,0,1,.023-.234M32.446,8.975c.406-.342.806-.658,1.2-.955A4.55,4.55,0,0,0,40.9,6.093c1.153,1.237,1.343,4.234.484,8.246a38.919,38.919,0,0,1-1.045,3.84,65.714,65.714,0,0,0-7.117-.932c-1.308-1.858-2.658-3.593-4.024-5.176a40.089,40.089,0,0,1,3.249-3.1M27.485,35.168q-2.225,0-4.372-.13c-.8-1.175-1.577-2.394-2.33-3.652-.8-1.336-1.547-2.678-2.239-4.012.694-1.333,1.443-2.674,2.245-4.008q1.139-1.9,2.349-3.673c1.421-.082,2.873-.128,4.347-.128s2.917.046,4.335.128q1.206,1.775,2.351,3.682c.8,1.336,1.545,2.678,2.238,4.012-.694,1.333-1.443,2.672-2.243,4.008q-1.134,1.884-2.333,3.645c-1.421.083-2.875.128-4.347.128m2.473,2.5q-1.232,1.642-2.491,3.112c-.836-.981-1.668-2.019-2.486-3.114q1.254.043,2.5.043t2.473-.041m-10.066-2.9c-1.528-.161-3.006-.373-4.416-.632.5-1.3,1.058-2.621,1.682-3.964q.692,1.256,1.441,2.513.636,1.059,1.294,2.083M17.162,24.568q-.937-2.023-1.68-3.978c1.416-.259,2.9-.472,4.434-.633q-.671,1.041-1.309,2.1-.751,1.254-1.444,2.511m7.853-7.5c.813-1.086,1.64-2.113,2.47-3.086.829.972,1.654,2,2.465,3.086-.822-.027-1.645-.041-2.465-.041s-1.654.014-2.47.041M36.347,32.706q.751-1.254,1.444-2.511c.621,1.34,1.18,2.662,1.671,3.955-1.409.257-2.883.468-4.409.63q.663-1.027,1.294-2.074m.007-10.636q-.644-1.078-1.313-2.115c1.54.161,3.027.374,4.447.635-.5,1.306-1.065,2.642-1.695,4-.465-.848-.944-1.689-1.439-2.516M13.586,14.321c-.951-4.471-.605-7.688.926-8.6a2.321,2.321,0,0,1,1.208-.3c1.661,0,4.086,1.247,6.81,3.551a39.788,39.788,0,0,1,3.252,3.111c-1.382,1.6-2.736,3.339-4.026,5.16a64,64,0,0,0-7.131.926,39.029,39.029,0,0,1-1.04-3.843M4.711,20.8a2.026,2.026,0,0,1,2.017,2.017,1.933,1.933,0,0,1-.053.444,2.017,2.017,0,0,1-3.984-.444c0-.039.011-.076.012-.114a2.012,2.012,0,0,1,2.007-1.9M9.365,32.581C5.094,31.1,2.544,29.153,2.544,27.368a2,2,0,0,1,.073-.506A4.537,4.537,0,0,0,9.227,22.2c.048-.016.09-.034.138-.05,1.116-.387,2.323-.731,3.6-1.036a65.669,65.669,0,0,0,2.727,6.255,65.547,65.547,0,0,0-2.733,6.241c-1.274-.3-2.479-.648-3.593-1.033M22.506,45.788c-3.494,2.947-6.494,4.157-8.024,3.24s-1.87-4.136-.914-8.606a39.126,39.126,0,0,1,1.054-3.866,66.073,66.073,0,0,0,7.089.93c1.313,1.868,2.67,3.614,4.044,5.2a39.818,39.818,0,0,1-3.249,3.1m20.661,4.354a2.017,2.017,0,1,1-2.019-2.019c.039,0,.076.011.114.012a2.129,2.129,0,0,1,1.906,2.007m-1.8-9.7a19.675,19.675,0,0,1,.5,5.2,4.519,4.519,0,0,0-5.05,3.075,19.517,19.517,0,0,1-4.4-2.922,40.121,40.121,0,0,1-3.254-3.112c1.391-1.608,2.754-3.355,4.049-5.187a63.977,63.977,0,0,0,7.1-.921,39.019,39.019,0,0,1,1.047,3.866M45.6,32.581c-1.129.39-2.348.738-3.637,1.045A67.428,67.428,0,0,0,39.258,27.4a65.427,65.427,0,0,0,2.747-6.28c1.276.305,2.482.649,3.6,1.036,4.271,1.478,6.821,3.426,6.821,5.213S49.875,31.1,45.6,32.581" transform="translate(2894.676 4541.468)" fill="#fff"/>
    <path id="Path_24014" data-name="Path 24014" d="M18.033,12.14a5.827,5.827,0,1,0,5.827,5.827,5.833,5.833,0,0,0-5.827-5.827m0,9.11a3.283,3.283,0,1,1,3.283-3.283,3.287,3.287,0,0,1-3.283,3.283" transform="translate(2904.128 4550.869)" fill="#fff"/>
  </g>
</svg>
