<svg xmlns="http://www.w3.org/2000/svg" width="248" height="248" viewBox="0 0 248 248">
  <g id="Group_15481" data-name="Group 15481" transform="translate(-1055.5 -1957)">
    <circle id="Ellipse_62" data-name="Ellipse 62" cx="124" cy="124" r="124" transform="translate(1055.5 1957)" fill="none"/>
    <g id="Group_15482" data-name="Group 15482" transform="translate(0 -21.389)">
      <circle id="Ellipse_4" data-name="Ellipse 4" cx="61.5" cy="61.5" r="61.5" transform="translate(1118 2019.5)" fill="#8cc63f" opacity="0.16"/>
      <g id="Group_15478" data-name="Group 15478" transform="translate(0.5)">
        <line id="Line_70" data-name="Line 70" x2="41.148" transform="translate(1185.852 2139.799)" fill="none" stroke="#8cc63f" stroke-width="4"/>
        <line id="Line_71" data-name="Line 71" x2="28.894" transform="translate(1131 2139.799)" fill="none" stroke="#8cc63f" stroke-width="4"/>
        <line id="Line_72" data-name="Line 72" x2="65" transform="translate(1146.5 2121.946)" fill="none" stroke="#8cc63f" stroke-width="4"/>
        <path id="Path_24018" data-name="Path 24018" d="M74.772,46H90.957A5.746,5.746,0,0,1,96.7,51.747V85a5.746,5.746,0,0,1-5.746,5.747H37.772A5.746,5.746,0,0,1,32.025,85V51.747A5.746,5.746,0,0,1,37.772,46H53.784" transform="translate(1114.636 2040.495)" fill="none" stroke="#8cc63f" stroke-width="4"/>
        <path id="Path_24019" data-name="Path 24019" d="M92.933,198.435H63.461a4.364,4.364,0,0,1-4.364-4.365V155.365A4.364,4.364,0,0,1,63.461,151H83.048L97.3,165.249v28.822A4.365,4.365,0,0,1,92.933,198.435Z" transform="translate(1100.803 1986.843)" fill="none" stroke="#8cc63f" stroke-width="4"/>
        <path id="Path_24020" data-name="Path 24020" d="M108.074,151v10.355a3.894,3.894,0,0,0,3.894,3.895h10.355" transform="translate(1075.777 1986.843)" fill="none" stroke="#8cc63f" stroke-width="4"/>
        <line id="Line_73" data-name="Line 73" x2="9.235" transform="translate(1168.222 2152.092)" fill="none" stroke="#8cc63f" stroke-width="4"/>
        <line id="Line_74" data-name="Line 74" x2="22.249" transform="translate(1168.222 2163.03)" fill="none" stroke="#8cc63f" stroke-width="4"/>
        <line id="Line_75" data-name="Line 75" x2="22.249" transform="translate(1168.222 2173.944)" fill="none" stroke="#8cc63f" stroke-width="4"/>
        <path id="Path_24021" data-name="Path 24021" d="M95.152,40.144H78.645a2.519,2.519,0,0,1-2.519-2.519V4.519A2.519,2.519,0,0,1,78.645,2H95.152A2.519,2.519,0,0,1,97.67,4.519V37.625A2.519,2.519,0,0,1,95.152,40.144Z" transform="translate(1092.102 2062.978)" fill="none" stroke="#8cc63f" stroke-width="4"/>
        <path id="Path_24022" data-name="Path 24022" d="M98.067,65.956A1.956,1.956,0,1,1,96.111,64a1.956,1.956,0,0,1,1.956,1.956" transform="translate(1082.889 2031.298)" fill="#8cc63f"/>
        <path id="Path_24023" data-name="Path 24023" d="M86.066,29.41,89.2,26.588a1.43,1.43,0,0,1,2.379.9,1.43,1.43,0,0,0,2.394.89L97.8,25.4" transform="translate(1087.022 2051.022)" fill="none" stroke="#8cc63f" stroke-width="4"/>
        <line id="Line_76" data-name="Line 76" y1="5.877" transform="translate(1170.198 2131.477)" fill="none" stroke="#8cc63f" stroke-width="4"/>
        <line id="Line_77" data-name="Line 77" y1="8.322" transform="translate(1187.802 2131.477)" fill="none" stroke="#8cc63f" stroke-width="4"/>
      </g>
    </g>
  </g>
</svg>
