<svg xmlns="http://www.w3.org/2000/svg" width="327.85" height="725.949" viewBox="0 0 327.85 725.949">
  <g id="Group_6458" data-name="Group 6458" transform="translate(0 0.003)" opacity="0.237">
    <rect id="Rectangle_6815" data-name="Rectangle 6815" width="147.375" height="716.669" transform="translate(0 0.188)" fill="#c4d9ed"/>
    <rect id="Rectangle_6816" data-name="Rectangle 6816" width="147.375" height="716.669" transform="translate(33.1 0.188)" fill="#d5e7f7"/>
    <rect id="Rectangle_6817" data-name="Rectangle 6817" width="147.337" height="41.413" transform="translate(33.138 -0.003)" fill="#c4d9ed"/>
    <rect id="Rectangle_6818" data-name="Rectangle 6818" width="147.337" height="41.413" transform="translate(33.138 89.816)" fill="#c4d9ed"/>
    <rect id="Rectangle_6819" data-name="Rectangle 6819" width="147.337" height="41.413" transform="translate(33.138 179.636)" fill="#c4d9ed"/>
    <rect id="Rectangle_6820" data-name="Rectangle 6820" width="147.337" height="41.413" transform="translate(33.138 269.454)" fill="#c4d9ed"/>
    <rect id="Rectangle_6821" data-name="Rectangle 6821" width="147.337" height="41.413" transform="translate(33.138 359.274)" fill="#c4d9ed"/>
    <rect id="Rectangle_6822" data-name="Rectangle 6822" width="147.337" height="41.414" transform="translate(33.138 449.092)" fill="#c4d9ed"/>
    <rect id="Rectangle_6823" data-name="Rectangle 6823" width="147.337" height="41.412" transform="translate(33.138 538.912)" fill="#c4d9ed"/>
    <rect id="Rectangle_6824" data-name="Rectangle 6824" width="147.337" height="41.413" transform="translate(33.138 628.731)" fill="#c4d9ed"/>
    <rect id="Rectangle_6825" data-name="Rectangle 6825" width="147.375" height="615.26" transform="translate(147.375 110.686)" fill="#c4d9ed"/>
    <rect id="Rectangle_6826" data-name="Rectangle 6826" width="147.376" height="615.26" transform="translate(180.474 110.686)" fill="#d5e7f7"/>
    <rect id="Rectangle_6827" data-name="Rectangle 6827" width="147.337" height="35.553" transform="translate(180.512 110.523)" fill="#c4d9ed"/>
    <rect id="Rectangle_6828" data-name="Rectangle 6828" width="147.337" height="35.553" transform="translate(180.512 187.631)" fill="#c4d9ed"/>
    <rect id="Rectangle_6829" data-name="Rectangle 6829" width="147.337" height="35.553" transform="translate(180.512 264.742)" fill="#c4d9ed"/>
    <rect id="Rectangle_6830" data-name="Rectangle 6830" width="147.337" height="35.553" transform="translate(180.512 341.851)" fill="#c4d9ed"/>
    <rect id="Rectangle_6831" data-name="Rectangle 6831" width="147.337" height="35.553" transform="translate(180.512 418.961)" fill="#c4d9ed"/>
    <rect id="Rectangle_6832" data-name="Rectangle 6832" width="147.337" height="35.553" transform="translate(180.512 496.071)" fill="#c4d9ed"/>
    <rect id="Rectangle_6833" data-name="Rectangle 6833" width="147.337" height="35.553" transform="translate(180.512 573.18)" fill="#c4d9ed"/>
    <rect id="Rectangle_6834" data-name="Rectangle 6834" width="147.337" height="35.553" transform="translate(180.512 650.29)" fill="#c4d9ed"/>
  </g>
</svg>
