<svg xmlns="http://www.w3.org/2000/svg" width="1921.002" height="324.031" viewBox="0 0 1921.002 324.031">
  <path id="img_footer" d="M70.132-227.969v-219h5.383v-.468h78.326v-23.988h18.335V-512.67h98.3v41.245h91.9v-67.208H463.795V-495h23.129v-52.088H588.338V-495H716.6v48.035H810.22v-78.866h57.971v-25.118h21.827V-551h97.056v81.03h28.8v23h137.067v-78.866h21.829v-.041h97.056v28.041h89.158v50.866H1371.4v-3.469h83.23v-23.987h19.483v-41.245h73.034V-536.2h12.222l-.009,20.534h19.207v41.245h97.656v-67.208h107.764V-498h24.576v-52.087h107.763v97.659l73.809.651-.773,210.559h-.566v13.253Z" transform="translate(-69.632 551.5)" fill="#f4f4f4" stroke="rgba(0,0,0,0)" stroke-width="1"/>
</svg>
