<?xml version="1.0" encoding="UTF-8"?>
<svg id="Capa_1" xmlns="http://www.w3.org/2000/svg" version="1.1" viewBox="0 0 318.1 417.1">
  <!-- Generator: Adobe Illustrator 29.0.1, SVG Export Plug-In . SVG Version: 2.1.0 Build 192)  -->
  <defs>
    <style>
      .st0 {
        fill: #f4f4f4;
      }
    </style>
  </defs>
  <path id="img_footer" class="st0" d="M-251.8,423.7V104.5h5.4v-.5h78.3v-24h18.3v-41.2H-51.4v41.2H40.5V12.9h101.4v43.6h23.1V4.4h101.4v52.1h128.3v48h93.6V25.7h58V.6h21.8c0,0,97.1,0,97.1,0v81h28.8v23h137.1V25.7h21.8s97.1,0,97.1,0v28h89.2v50.9h10.4v-3.5h83.2v-24h19.5v-41.2h73V15.3h12.2v20.5s19.2,0,19.2,0v41.2h97.7V9.9h107.8v43.6h24.6V1.4h107.8v97.7l73.8.7-.8,310.7h-.6v13.3H-251.8Z"/>
</svg>