<svg xmlns="http://www.w3.org/2000/svg" xmlns:xlink="http://www.w3.org/1999/xlink" width="181.692" height="244.646" viewBox="0 0 181.692 244.646">
  <defs>
    <clipPath id="clip-path">
      <rect id="Rectangle_6303" data-name="Rectangle 6303" width="181.692" height="244.646" fill="none"/>
    </clipPath>
  </defs>
  <g id="Group_5994" data-name="Group 5994" transform="translate(-108.154 -142.177)">
    <g id="Group_5993" data-name="Group 5993" transform="translate(108.154 142.177)">
      <g id="Group_5981" data-name="Group 5981" clip-path="url(#clip-path)">
        <path id="Path_14189" data-name="Path 14189" d="M28.437,94.871a4.672,4.672,0,0,1,3.744,1.7l2.542-1.7a7.839,7.839,0,0,0-6.286-2.928,8.228,8.228,0,0,0,0,16.454,5.972,5.972,0,0,0,5.22-2.564l.407,2.27h1.657V99.115H28.64v2.677h4.517a4.47,4.47,0,0,1-4.72,3.654c-3.29,0-4.993-2.632-4.993-5.288,0-2.632,1.7-5.288,4.993-5.288" transform="translate(12.27 55.42)" fill="#6f767c"/>
        <path id="Path_14190" data-name="Path 14190" d="M30.865,100.713a6.071,6.071,0,1,0,6.058-6.036,5.968,5.968,0,0,0-6.058,6.036m9.19,0a3.124,3.124,0,1,1-3.132-3.268,3.087,3.087,0,0,1,3.132,3.268" transform="translate(18.604 57.068)" fill="#6f767c"/>
        <path id="Path_14191" data-name="Path 14191" d="M39.431,92.114V108h2.883v-1.338a4.4,4.4,0,0,0,3.675,1.632c3.563,0,5.606-3.016,5.606-6.034s-2.044-6.036-5.606-6.036a4.334,4.334,0,0,0-3.675,1.633V92.114Zm6.1,6.874a3.273,3.273,0,1,1-3.109,3.27,3.057,3.057,0,0,1,3.109-3.27" transform="translate(23.768 55.523)" fill="#6f767c"/>
        <rect id="Rectangle_6301" data-name="Rectangle 6301" width="2.882" height="11.506" transform="translate(76.953 152.016)" fill="#6f767c"/>
        <path id="Path_14192" data-name="Path 14192" d="M49.477,91.887a1.532,1.532,0,1,0,1.543,1.521,1.521,1.521,0,0,0-1.543-1.521" transform="translate(28.906 55.386)" fill="#6f767c"/>
        <path id="Path_14193" data-name="Path 14193" d="M56.68,94.677a5.829,5.829,0,0,0-5.877,6.036c0,3.494,2.518,6.036,6.331,6.036a6.006,6.006,0,0,0,4.879-2.337L59.7,103.05a3.358,3.358,0,0,1-2.564,1.135,3.154,3.154,0,0,1-3.268-2.359H62.4c.522-4.539-2.247-7.148-5.719-7.148M53.866,99.6a2.862,2.862,0,0,1,2.859-2.361A2.717,2.717,0,0,1,59.585,99.6Z" transform="translate(30.622 57.068)" fill="#6f767c"/>
        <path id="Path_14194" data-name="Path 14194" d="M65.789,97.808V94.676a4.57,4.57,0,0,0-3.835,2.156V94.948H59.072v11.5h2.882v-4.743c0-2.133.431-4.311,3.835-3.9" transform="translate(35.606 57.067)" fill="#6f767c"/>
        <path id="Path_14195" data-name="Path 14195" d="M71.812,100.055v6.4h2.882v-6.99c0-2.428-1.316-4.789-4.22-4.789a3.832,3.832,0,0,0-3.359,1.68V94.948H64.255v11.506h2.859v-6.4a2.376,2.376,0,0,1,2.451-2.587c1.635,0,2.247,1.112,2.247,2.587" transform="translate(38.731 57.067)" fill="#6f767c"/>
        <path id="Path_14196" data-name="Path 14196" d="M83.9,100.712a6.071,6.071,0,1,0-6.082,6.036,5.96,5.96,0,0,0,6.082-6.036m-6.082,3.268a3.271,3.271,0,1,1,3.132-3.268,3.083,3.083,0,0,1-3.132,3.268" transform="translate(43.254 57.067)" fill="#6f767c"/>
        <path id="Path_14197" data-name="Path 14197" d="M92.582,106.661V108h2.883V92.114H92.582v5.741a4.364,4.364,0,0,0-3.675-1.633c-3.563,0-5.606,3.018-5.606,6.036s2.044,6.036,5.606,6.036a4.43,4.43,0,0,0,3.675-1.633m-6.331-4.4a3.1,3.1,0,1,1,3.109,3.268,3.056,3.056,0,0,1-3.109-3.268" transform="translate(50.21 55.523)" fill="#6f767c"/>
        <path id="Path_14198" data-name="Path 14198" d="M103.093,104.411l-2.314-1.361a3.358,3.358,0,0,1-2.564,1.135,3.154,3.154,0,0,1-3.268-2.361h8.533c.521-4.539-2.247-7.148-5.719-7.148a5.831,5.831,0,0,0-5.877,6.038c0,3.494,2.518,6.036,6.331,6.036a6.007,6.007,0,0,0,4.879-2.338M97.805,97.24a2.715,2.715,0,0,1,2.859,2.361H94.946a2.861,2.861,0,0,1,2.859-2.361" transform="translate(55.384 57.067)" fill="#6f767c"/>
        <path id="Path_14199" data-name="Path 14199" d="M12.934,118.444h4.039a5.754,5.754,0,0,1-5.429,3.794c-3.957,0-6-3.21-6-6.421s2.042-6.421,6-6.421a5.6,5.6,0,0,1,4.541,2.108l4.6-3.048a11.172,11.172,0,0,0-9.145-4.377C4.8,104.078,0,109.1,0,115.817s4.8,11.74,11.545,11.74a8.924,8.924,0,0,0,8.123-4.638l-.08,4.249H23V115.24H12.934Z" transform="translate(0 62.734)" fill="#6f767c"/>
        <path id="Path_14200" data-name="Path 14200" d="M26.511,117.112a2.526,2.526,0,0,1-2.627,2.821,2.557,2.557,0,0,1-2.627-2.821v-8.886H16v10.312c0,3.308,1.914,6.552,6.033,6.552a5.6,5.6,0,0,0,4.475-1.914v1.491H31.8V108.226H26.511Z" transform="translate(9.646 65.235)" fill="#6f767c"/>
        <path id="Path_14201" data-name="Path 14201" d="M37.593,123.289v1.524h5.254V114.6c0-3.924-1.848-6.615-7.1-6.615a9.779,9.779,0,0,0-7.394,2.951l3.436,2.335A5.147,5.147,0,0,1,34.9,112.23a2.4,2.4,0,0,1,2.691,2.659v.066H35.647c-1.1,0-8.172,0-8.172,5.448,0,3.989,3.406,4.832,5.611,4.832a5.69,5.69,0,0,0,4.507-1.946m-.422-5.707h.422v2.627a3.559,3.559,0,0,1-2.691,1.167c-1.135,0-2.108-.454-2.108-1.654,0-1.652,1.75-2.14,4.377-2.14" transform="translate(16.561 65.088)" fill="#6f767c"/>
        <path id="Path_14202" data-name="Path 14202" d="M56.455,127.021v-22.7H51.2V112.2a5.7,5.7,0,0,0-4.638-2.01c-5.124,0-7.879,4.313-7.879,8.626s2.755,8.626,7.879,8.626a5.7,5.7,0,0,0,4.638-2.011v1.59Zm-8.95-4.7a3.519,3.519,0,0,1,0-7.038,3.519,3.519,0,1,1,0,7.038" transform="translate(23.318 62.881)" fill="#6f767c"/>
        <path id="Path_14203" data-name="Path 14203" d="M66.76,124.814V114.6c0-3.924-1.848-6.615-7.1-6.615a9.775,9.775,0,0,0-7.394,2.951l3.438,2.335a5.142,5.142,0,0,1,3.113-1.039,2.4,2.4,0,0,1,2.691,2.659v.066H59.561c-1.1,0-8.171,0-8.171,5.448,0,3.989,3.4,4.832,5.61,4.832a5.69,5.69,0,0,0,4.507-1.946v1.524Zm-7.945-3.438c-1.135,0-2.108-.454-2.108-1.654,0-1.654,1.752-2.14,4.377-2.14h.422v2.627a3.559,3.559,0,0,1-2.691,1.167" transform="translate(30.976 65.088)" fill="#6f767c"/>
        <rect id="Rectangle_6302" data-name="Rectangle 6302" width="5.286" height="22.7" transform="translate(101.304 167.202)" fill="#6f767c"/>
        <path id="Path_14204" data-name="Path 14204" d="M83.492,124.814V114.6c0-3.924-1.848-6.615-7.1-6.615A9.775,9.775,0,0,0,69,110.934l3.438,2.335a5.142,5.142,0,0,1,3.113-1.039,2.4,2.4,0,0,1,2.691,2.659v.066H76.293c-1.1,0-8.171,0-8.171,5.448,0,3.989,3.4,4.832,5.61,4.832a5.69,5.69,0,0,0,4.507-1.946v1.524Zm-7.945-3.438c-1.135,0-2.108-.454-2.108-1.654,0-1.654,1.752-2.14,4.377-2.14h.422v2.627a3.559,3.559,0,0,1-2.691,1.167" transform="translate(41.061 65.088)" fill="#6f767c"/>
        <path id="Path_14205" data-name="Path 14205" d="M81.039,123.532c0,2.044-.973,2.5-2.984,2.3v4.6a15.076,15.076,0,0,0,2.271.226c4.313,0,6-2.983,6-6.583V108.226H81.039Z" transform="translate(47.049 65.235)" fill="#6f767c"/>
        <path id="Path_14206" data-name="Path 14206" d="M82.613,103.633a2.773,2.773,0,1,0,2.757,2.757,2.755,2.755,0,0,0-2.757-2.757" transform="translate(48.134 62.466)" fill="#6f767c"/>
        <path id="Path_14207" data-name="Path 14207" d="M93.1,107.983a9.785,9.785,0,0,0-7.4,2.951l3.438,2.335a5.147,5.147,0,0,1,3.114-1.039,2.4,2.4,0,0,1,2.691,2.661v.064H93.005c-1.1,0-8.172,0-8.172,5.448,0,3.989,3.406,4.832,5.611,4.832a5.69,5.69,0,0,0,4.507-1.946v1.524h5.254V114.6c0-3.924-1.85-6.615-7.1-6.615m1.848,12.226a3.559,3.559,0,0,1-2.691,1.167c-1.136,0-2.109-.454-2.109-1.654,0-1.652,1.752-2.14,4.379-2.14h.422Z" transform="translate(51.134 65.088)" fill="#6f767c"/>
        <path id="Path_14208" data-name="Path 14208" d="M101.9,110.87v-2.5H96.649v16.441H101.9v-6.485c0-2.757.519-5.416,5.188-4.7v-5.643a6.264,6.264,0,0,0-5.188,2.887" transform="translate(58.256 65.088)" fill="#6f767c"/>
        <path id="Path_14209" data-name="Path 14209" d="M112.041,107.983a9.785,9.785,0,0,0-7.4,2.951l3.438,2.335a5.147,5.147,0,0,1,3.114-1.039,2.4,2.4,0,0,1,2.691,2.661v.064h-1.946c-1.1,0-8.172,0-8.172,5.448,0,3.989,3.406,4.832,5.611,4.832a5.69,5.69,0,0,0,4.507-1.946v1.524h5.254V114.6c0-3.924-1.85-6.615-7.1-6.615m1.848,12.226a3.559,3.559,0,0,1-2.691,1.167c-1.136,0-2.109-.454-2.109-1.654,0-1.652,1.752-2.14,4.379-2.14h.422Z" transform="translate(62.549 65.088)" fill="#6f767c"/>
        <path id="Path_14210" data-name="Path 14210" d="M63.617,62.8l-.763.444.087.107a.575.575,0,0,0,.83.149l.531-.62-.244-.1a.467.467,0,0,0-.441.016" transform="translate(37.886 37.816)" fill="#6f767c"/>
        <path id="Path_14211" data-name="Path 14211" d="M50.966,63.353l.085-.107L50.29,62.8a.472.472,0,0,0-.441-.016l-.245.1.531.62a.577.577,0,0,0,.832-.149" transform="translate(29.899 37.817)" fill="#6f767c"/>
        <path id="Path_14212" data-name="Path 14212" d="M93.24,98.679V41.685H40.1V98.679l26.38,8.9Zm-13.5-6.453.234.074.272.083v1.128h-.28l-.258-.478-.9,2.471-.178.518H77.585v0H74.458l.625-1.713,2.318-.353a.454.454,0,0,0,.066-.006.578.578,0,0,0-.133-.867l-.006-.006a.524.524,0,0,1-.05-.032l-.006,0a3.659,3.659,0,0,1-.337-.25l-.131-.1a2.636,2.636,0,0,1-1.066-2.117v-1.51c0-.024,0-.048,0-.071V87.917a6.057,6.057,0,0,1,4.861,2.1l-.571.4-.455.332-.061.046a.767.767,0,0,0-.335.648.711.711,0,0,0,.559.781M83.8,78.557A5.064,5.064,0,0,1,82.721,81.7a7.12,7.12,0,0,1-1.455,1.282,3.064,3.064,0,0,0-1.681,2.606s.391-.912,2.327-1.927a3.973,3.973,0,0,0,.888,1.744,2.559,2.559,0,0,0,3.007.748,1.823,1.823,0,0,0,.426-.325,1.848,1.848,0,0,0,.095-2.468l-.279-.337a2.979,2.979,0,0,1-.684-1.9V79.483a2.444,2.444,0,0,1,4.888,0v1.46a1.119,1.119,0,0,1-1.119-1.119v-.341a1.325,1.325,0,0,0-2.649,0v1.646a1.846,1.846,0,0,0,.426,1.181l.279.337A2.969,2.969,0,0,1,84.9,87.511h-.736c-.019.42-.061,3.19,2.34,4.01l.561.173v1.128h-.28l-.383-.708-.583,3.393-.1.516-1.127,0H81.487l.659-1.725,2.095-.329h.021s.377-.7-.346-.819l0,0a3.087,3.087,0,0,1-.537-.1,3.669,3.669,0,0,1-2.4-2.092,5.349,5.349,0,0,1-.232-.723,4.18,4.18,0,0,0-3.355-3.159l-4.709-1.2-.011.064a.667.667,0,0,1-.656.548H70.355l.365-2.052,4.46-.3a2.632,2.632,0,0,1,.109-.636l-2.119.088-1.784-3.339h-.213a.667.667,0,0,1-.619-.42l-.748-1.872h2.314l2.556,3.423,2.045-.048c.13-.151.28-.3.441-.455.181-.192.361-.385.531-.575,1.4-1.58,1.085-2.576,1.085-2.576a2.38,2.38,0,0,1-.622.906l0,0a2.594,2.594,0,0,1-.353.244l-1.632,1.132a.431.431,0,0,1-.678-.16l-.314-1.023a6.9,6.9,0,0,0,1.33-.3c.349-.143.68-.313.68-.684a.683.683,0,0,0-.68-.683c-.375,0-.582.232-.941.6a5.015,5.015,0,0,1-.539.468.4.4,0,0,1-.575-.046l-.984-1.128L76.5,75.309l.789-.452-1.082.215-.646-.526a.3.3,0,0,1-.088-.353h0l0,0a.3.3,0,0,1,.063-.093,3.05,3.05,0,0,1,1.234-1,4.843,4.843,0,0,1,5.377.976,5.465,5.465,0,0,1,1.673,4.284c0,.05-.013.1-.018.149v.045M54.155,57.951c0-.021,0-.038,0-.059A6.932,6.932,0,0,1,60.9,50.811a6.633,6.633,0,0,1,12.159.037,6.975,6.975,0,0,1,6.066,7.044l0,.019a7.148,7.148,0,0,1,3.157,5.983,6.933,6.933,0,0,1-6.772,7.083,6.215,6.215,0,0,1-1.013-.087,6.735,6.735,0,0,1-.859-.194,8.85,8.85,0,0,1-5.7,3.5,8.433,8.433,0,0,1-1.358.122,8.535,8.535,0,0,1-1.17-.087,8.847,8.847,0,0,1-5.861-3.5,6.607,6.607,0,0,1-.878.178,6.012,6.012,0,0,1-.837.061,6.933,6.933,0,0,1-6.772-7.083,7.154,7.154,0,0,1,3.095-5.943m1.6,38.072H54.715l-.178-.518-.9-2.471-.258.478H53.1V92.384l.272-.083.236-.074a.711.711,0,0,0,.558-.781.767.767,0,0,0-.335-.648l-.061-.046-.455-.332-.571-.4a6.059,6.059,0,0,1,4.861-2.1V89c0,.022,0,.046,0,.071v1.51a2.636,2.636,0,0,1-1.066,2.117l-.131.1a3.453,3.453,0,0,1-.337.25l-.006,0a.525.525,0,0,1-.05.032l-.006.006a.578.578,0,0,0-.133.867.454.454,0,0,0,.066.006l2.318.353.625,1.713H55.76Zm2.406-11.891,4.459.3.367,2.052H61.326a.667.667,0,0,1-.656-.548l-.011-.064-4.709,1.2A4.18,4.18,0,0,0,52.6,90.228a5.132,5.132,0,0,1-.232.723,3.683,3.683,0,0,1-.79,1.16,3.731,3.731,0,0,1-1.611.931,3.059,3.059,0,0,1-.537.1l0,0c-.724.117-.348.819-.348.819H49.1L51.2,94.3l.659,1.725H48.748l-1.127,0-.1-.516-.583-3.393-.383.708h-.28V91.694l.561-.173c2.4-.821,2.359-3.59,2.34-4.01h-.734a2.97,2.97,0,0,1-2.287-4.864l.28-.337a1.853,1.853,0,0,0,.425-1.181V79.483a1.325,1.325,0,0,0-2.649,0v.341a1.119,1.119,0,0,1-1.119,1.119v-1.46a2.444,2.444,0,0,1,4.888,0v1.646a2.979,2.979,0,0,1-.684,1.9l-.279.337a1.843,1.843,0,0,0,.521,2.794,2.558,2.558,0,0,0,3.007-.748,3.992,3.992,0,0,0,.89-1.744c1.935,1.015,2.326,1.927,2.326,1.927a3.06,3.06,0,0,0-1.681-2.606A7.168,7.168,0,0,1,50.623,81.7a5.074,5.074,0,0,1-1.082-3.145l0-.045c0-.05-.014-.1-.018-.149A5.464,5.464,0,0,1,51.2,74.078a4.843,4.843,0,0,1,5.377-.976,3.066,3.066,0,0,1,1.236,1,.322.322,0,0,1,.061.093l0,0h0a.3.3,0,0,1-.087.353l-.648.526-1.082-.215.789.452,3.031,1.739-.984,1.128a.4.4,0,0,1-.575.046,5.016,5.016,0,0,1-.539-.468c-.359-.369-.566-.6-.941-.6a.683.683,0,0,0-.68.683c0,.372.33.542.68.684a6.9,6.9,0,0,0,1.33.3l-.313,1.023a.433.433,0,0,1-.68.16l-1.632-1.132a2.593,2.593,0,0,1-.353-.244l0,0a2.379,2.379,0,0,1-.622-.906s-.313,1,1.085,2.576c.17.191.349.383.531.575.16.152.311.3.441.455l2.045.048,2.556-3.423h2.314l-.748,1.872a.667.667,0,0,1-.619.42h-.213l-1.784,3.339L58.055,83.5a2.713,2.713,0,0,1,.111.636M65.408,94.8V75.833a7.819,7.819,0,0,0,2.528-.03v19a1.156,1.156,0,0,1,1.175.556H64.234a1.156,1.156,0,0,1,1.175-.556" transform="translate(24.173 25.126)" fill="#6f767c"/>
        <path id="Path_14213" data-name="Path 14213" d="M16.749,69.934a13.565,13.565,0,0,1,5.185-1.652c-5,3.276-7.858,9.411-8.346,15.242-.032.391-.054.785-.063,1.178a21.618,21.618,0,0,0,27,21.538c6-1.718,8.285-5.352,8.285-5.352l.282-.625v17.973l34.366,11.59,34.857-11.59V100.263l.282.625s2.281,3.633,8.285,5.352a21.619,21.619,0,0,0,27-21.538c-.01-.393-.03-.787-.064-1.178-.487-5.831-3.348-11.966-8.346-15.242a13.572,13.572,0,0,1,5.187,1.652,45.221,45.221,0,0,1,4.707,3.087,13.92,13.92,0,0,0-.737-7.543,10.119,10.119,0,0,0-1.846-2.763,11.551,11.551,0,0,0-1.233-1.143c-.12-.1-.577-.5-.91-.729a.937.937,0,0,0-.295-.151.087.087,0,0,0-.042,0l.723-.247.545-.186.58-.2.282-.1.986-.335a9.752,9.752,0,0,0-4.637-3.706,15.108,15.108,0,0,0-5.925-1.072,21.868,21.868,0,0,0-5.315.713c-1.712.449-3.294,1.266-5,1.723a5.312,5.312,0,0,1-2.98.024,49.848,49.848,0,0,1-5.661-2.558c.481-.133.955-.272,1.412-.422,8.124-2.733,11.551-9.048,11.513-16.395a18.388,18.388,0,0,0-9.1-15.563c-.181-.106-.365-.207-.551-.306l-.189-.1,0,0c-.071-.037-.143-.072-.213-.107-.051-.027-.1-.053-.155-.079-.079-.038-.159-.075-.239-.112-.111-.051-.22-.1-.33-.149-.09-.04-.178-.077-.268-.114s-.205-.087-.309-.127-.192-.075-.288-.112l-.1-.037-.192-.071h0c-.1-.037-.205-.074-.309-.107-.088-.03-.18-.059-.269-.088-.112-.035-.226-.072-.34-.106-.075-.022-.151-.042-.226-.064l0,0c-.127-.035-.255-.071-.383-.1l-.1-.026a18.474,18.474,0,0,0-2.2-.415l-.037,0-.034,0c-.173-.021-.346-.04-.521-.056l-.032,0-.056,0h0c-.173-.016-.345-.03-.518-.04l-.024,0-.061,0h0c-.176-.01-.351-.018-.527-.024h0c-.019,0-.04,0-.059,0h0c-.188,0-.373-.008-.559-.008a18.841,18.841,0,0,0-2.189.131l-.046,0c-.17.021-.34.043-.51.069l-.054.008a18.237,18.237,0,0,0-2.665.609l-.008,0c-.175.054-.348.111-.519.17l-.01,0a17.024,17.024,0,0,0-2.528,1.1c-.212.114-.422.231-.628.354l-.018.01c-.191.114-.38.234-.567.356l0,0-.059.038,0,0c-.17.112-.337.229-.5.348l0,0c-.026.019-.053.037-.079.054l-.022.016c-.194.141-.383.285-.571.436a13.929,13.929,0,0,0-1.962,1.914,11.887,11.887,0,0,0-.513,14.893,11.535,11.535,0,0,0,3.4,2.9,7.306,7.306,0,0,0,7.509.478c-1.016-.712-2.779-3.832-2.779-3.832a8.49,8.49,0,0,0,1.407.117,8.789,8.789,0,0,0,6.764-3.2c-3,.457-5.14-2.358-5.142-2.359a4.856,4.856,0,0,1-.656-2.22c-.024-2.8,1.851-3.411,3.43-3.435a9.01,9.01,0,0,1,6.238,15.253,9.427,9.427,0,0,1-.712.683,8.6,8.6,0,0,1-.742.567,7.5,7.5,0,0,1-.773.462,8.05,8.05,0,0,1-.806.362,9.369,9.369,0,0,1-2.646.566c-.314.026-.636.038-.965.042h-.369v0L95.1,46.885l-1.556-.649a9.8,9.8,0,0,1-3.875-3.2A13.293,13.293,0,0,0,94.321,35a2.6,2.6,0,0,0,.923-1.968,2.561,2.561,0,0,0-1.184-2.146,11.487,11.487,0,0,0-7.821-8.778,9.7,9.7,0,0,0-1.558-1.3,1.674,1.674,0,0,0-1-.329,1.734,1.734,0,0,0-.981.329,8.969,8.969,0,0,0-1.55,1.3A11.49,11.49,0,0,0,73.33,30.9a2.565,2.565,0,0,0-1.159,2.13,2.6,2.6,0,0,0,.9,1.947,13.566,13.566,0,0,0,4.892,8.195A11.353,11.353,0,0,1,74,46.288l-1.234.6L49.1,46.905v0h-.369c-.165,0-.329-.006-.489-.013s-.327-.016-.487-.029c-.136-.011-.272-.026-.407-.04l-.127-.016c-.1-.013-.2-.027-.3-.042l-.123-.019c-.135-.022-.268-.046-.4-.075s-.261-.059-.391-.093c-.038-.01-.077-.019-.114-.03-.1-.026-.191-.054-.285-.083-.037-.011-.075-.022-.112-.035-.127-.04-.252-.083-.375-.131a8.048,8.048,0,0,1-.806-.362,7.5,7.5,0,0,1-.773-.462,8.355,8.355,0,0,1-.742-.567c-.064-.054-.125-.114-.189-.171-.176-.162-.351-.329-.524-.511a9.011,9.011,0,0,1,6.24-15.253c1.579.024,3.454.639,3.428,3.435a4.833,4.833,0,0,1-.656,2.22s-2.141,2.816-5.14,2.359a8.789,8.789,0,0,0,6.764,3.2,8.456,8.456,0,0,0,1.406-.117S52.362,43.19,51.345,43.9a7.307,7.307,0,0,0,7.509-.478,11.514,11.514,0,0,0,3.4-2.9,11.887,11.887,0,0,0-.511-14.893,14.016,14.016,0,0,0-1.962-1.914c-.188-.151-.378-.295-.571-.436l-.022-.016-.077-.053c-.16-.115-.322-.228-.487-.337l-.019-.014,0,0-.059-.037q-.26-.171-.529-.332l-.043-.027-.016-.01c-.207-.123-.417-.24-.628-.354A17.1,17.1,0,0,0,54.8,21l-.01,0c-.171-.059-.346-.115-.519-.17l-.008,0a18.211,18.211,0,0,0-2.667-.609l-.053-.008c-.17-.026-.34-.048-.511-.069l-.045,0A18.862,18.862,0,0,0,48.793,20c-.186,0-.373,0-.559.008h0c-.018,0-.035,0-.054,0-.178.006-.357.014-.537.024l-.059,0-.022,0c-.173.01-.348.024-.521.04l-.054,0-.034,0c-.173.016-.346.035-.519.056h0l-.032,0-.037,0a18.473,18.473,0,0,0-2.2.415h0c-.034.008-.069.016-.1.026-.131.034-.261.071-.393.107l-.221.063c-.114.034-.228.071-.341.106-.09.029-.18.058-.268.088-.018,0-.035.011-.053.018-.088.03-.175.059-.261.091l-.191.069-.1.037c-.1.037-.192.074-.288.112s-.207.083-.309.127-.18.074-.268.114c-.111.048-.22.1-.33.149-.08.037-.16.074-.239.112-.053.026-.1.051-.155.079l-.212.106,0,0h0l-.188.1c-.186.1-.37.2-.551.306a18.393,18.393,0,0,0-9.1,15.563C30.546,45.29,33.972,51.6,42.1,54.337c.457.149.931.288,1.412.422a49.848,49.848,0,0,1-5.661,2.558,5.317,5.317,0,0,1-2.981-.024c-1.707-.457-3.289-1.274-5-1.723a21.855,21.855,0,0,0-5.313-.713,15.1,15.1,0,0,0-5.925,1.072,9.752,9.752,0,0,0-4.637,3.706l.016,0,.016.006.045.014.909.309.282.1.531.181,1.191.406.127.043h0a.228.228,0,0,0-.149.037,1.473,1.473,0,0,0-.186.111c-.037.026-.077.053-.117.083l-.035.026c-.032.022-.063.046-.093.071a.25.25,0,0,0-.032.026c-.04.03-.08.063-.12.095l-.032.026-.088.072-.042.035c-.026.022-.053.043-.077.064l-.032.027-.082.071-.088.074-.018.014c-.021.019-.042.035-.056.046a11.708,11.708,0,0,0-1.233,1.143,10.119,10.119,0,0,0-1.846,2.763,13.92,13.92,0,0,0-.736,7.543,45.055,45.055,0,0,1,4.707-3.087m101.57-20.48,1.749-.042,0,0c7.365-.3,11.851-8.653,9.536-15.34-1.648-4.755-7.188-8.693-12.319-7.347a5.581,5.581,0,0,0-4.119,5.679,6.8,6.8,0,0,0,2.58,5.212c-.354.042-.686.077-1,.085a5.136,5.136,0,0,1-3.092-1.059,1.31,1.31,0,0,1-.18-.173,1.606,1.606,0,0,1-.115-.143l-.027-.043a.878.878,0,0,1-.058-.091c-.011-.018-.021-.035-.03-.053s-.032-.059-.046-.091a.6.6,0,0,1-.027-.056l-.043-.1-.014-.037,0-.013c-.027-.072-.053-.147-.075-.224l-.013-.042c-.021-.077-.04-.155-.058-.234l-.008-.038c-.016-.082-.032-.165-.045-.247l0-.018c-.013-.083-.022-.168-.03-.252l0-.019c-.008-.085-.013-.167-.018-.248l0-.037c0-.08-.006-.159-.008-.236V34.2c0-.077,0-.151,0-.224l0-.027c0-.1,0-.2.01-.292,0-.045,0-.09.006-.131.006-.1.014-.2.022-.277l0-.022c.01-.085.016-.152.022-.2l0-.022v0l.006-.043,0-.008,0-.013a8.1,8.1,0,0,0-.726,5.781,11.63,11.63,0,0,0,1.3,3.276,10.363,10.363,0,0,1-3.258-1.84,9.02,9.02,0,0,1-2.292-3.143,9.251,9.251,0,0,1,.763-8.657c2.422-3.859,7.573-5.856,11.976-5.873a15.581,15.581,0,0,1,15.656,15.478c0,.2,0,.4-.008.595,0,.061,0,.123-.008.186-.006.136-.014.271-.022.407,0,.069-.011.139-.016.208-.011.131-.024.263-.038.393-.008.066-.014.131-.022.2-.019.155-.04.311-.064.465,0,.035-.01.072-.016.109-.03.189-.064.378-.1.566l-.034.151c-.027.136-.058.274-.09.409l-.048.194c-.032.123-.064.247-.1.369l-.053.191c-.04.133-.08.264-.123.4-.016.048-.03.1-.046.144q-.089.267-.188.529c-.011.034-.026.066-.038.1-.054.141-.111.282-.168.422-.024.058-.05.114-.075.171-.05.117-.1.231-.154.345-.027.061-.055.12-.083.178-.056.117-.114.232-.173.348-.026.051-.051.1-.079.152q-.257.49-.55.957c-.029.048-.061.1-.091.144-.069.107-.139.215-.212.321-.035.053-.072.106-.109.16-.072.1-.144.2-.218.3-.035.048-.072.1-.107.147-.09.119-.183.236-.276.351-.021.027-.04.053-.062.08-.114.141-.232.279-.351.417-.032.035-.066.071-.1.107-.09.1-.18.2-.272.3-.043.045-.087.09-.13.136-.087.087-.171.175-.26.26-.045.045-.09.088-.135.131-.1.093-.2.183-.295.274l-.107.1c-.135.12-.272.239-.412.353-.026.022-.053.042-.079.063-.115.093-.231.184-.349.274-.048.037-.1.072-.144.107-.1.074-.2.146-.3.216-.051.037-.1.074-.157.109-.1.072-.21.141-.317.21l-.141.091c-.154.1-.308.189-.465.28-.091.051-.175.1-.255.139a10.5,10.5,0,0,1-1.292.534l-.011,0-.016,0c-.021.008-.04.016-.064.024l-.006,0a21.936,21.936,0,0,1-6.206,1.588c-.567,1.668,4.392,3.935,4.4,3.938l.436.207.367.176c.383.186.768.372,1.154.555l.046.022.314.147.006,0,3.334,1.558c-.079.083-.152.163-.224.244l-.043.046c-.066.074-.127.147-.184.22-.018.019-.035.04-.051.059-.054.069-.107.136-.157.2l-.048.063c-.048.066-.091.128-.135.191-.014.021-.029.043-.043.063-.04.061-.077.12-.114.18-.013.021-.026.04-.037.061-.035.056-.066.112-.1.167-.011.019-.022.038-.032.058-.029.051-.054.1-.08.154l-.026.053c-.024.048-.045.1-.066.141l-.021.048c-.019.045-.035.087-.051.127l-.018.045c-.014.038-.027.077-.04.112l-.013.038c-.01.034-.021.067-.029.1l-.01.034c-.008.029-.016.056-.021.08l-.006.029-.014.061,0,.024-.006.042,0,.021,0,.019,0,.014a2.661,2.661,0,0,1,.21-.223c.079-.075.167-.152.263-.231.144-.117.308-.236.484-.357.119-.08.244-.162.373-.244.066-.04.131-.082.2-.122.136-.082.277-.163.422-.247.8-.452,1.723-.9,2.614-1.308.405-.184.8-.359,1.18-.521.3-.13.588-.25.854-.359.192-.075.381-.151.564-.224A25.605,25.605,0,0,1,139.8,57.2a16.011,16.011,0,0,1,5.353-.133,11.557,11.557,0,0,1,3.7,1.165,4.772,4.772,0,0,1,.773.476c-4.515.125-4.815,1.829-4.823,1.9v.042l.032.018c2.633.67,6.092,2.108,7.671,5.121a6.919,6.919,0,0,1,.377.856c.067.184.122.361.168.532a6.64,6.64,0,0,1,.154.713,6.257,6.257,0,0,1,.074.742c.006.2,0,.349,0,.433a14.756,14.756,0,0,0-2.092-1.244,16.4,16.4,0,0,0-8.469-1.611,9.46,9.46,0,0,0-4.852-1.091A12.646,12.646,0,0,1,140.1,66.61l-.038.011a.125.125,0,0,1,.067.011c.946.731,1.891,1.521,2.335,1.9.292.256.585.511.869.776,4.622,4.276,8.043,9.429,8.084,15.925a19.081,19.081,0,0,1-18.941,19.166c-4.876.029-10.607-1.862-12.837-6.565-2.167-4.557-1.042-10.474,1.8-14.484a7.329,7.329,0,0,1,4.624-3,14.271,14.271,0,0,0-3.047,7.219,11.614,11.614,0,0,0,.367,6,6.215,6.215,0,0,0,.627,1.257c.059.091.279.29.3.394-.535-3.209,1.176-4.459,1.176-4.459-.024.154-.059.316-.075.481a8.474,8.474,0,0,0-.05.88c0,5.036,4.751,8.185,9.461,7.368A14.481,14.481,0,0,0,146.054,80.85c-.058-.181-.12-.359-.186-.537a14.229,14.229,0,0,0-.683-1.563,14.961,14.961,0,0,0-.859-1.47c-.106-.159-.215-.314-.325-.466,0,0-4.329-7.753-22.841-15.763l-.069-.03c-.045-.021-.109-.051-.192-.088l-.136-.063-.223-.1c-.407-.184-.965-.436-1.537-.691l-.683-.3Zm0,13.035,2.609,1.135c16.666,7.363,20.93,14.345,20.982,14.417a1.551,1.551,0,0,0,.141.224A11.813,11.813,0,0,1,144,82.453a12.144,12.144,0,0,1,.341,2.776,11.588,11.588,0,0,1-.234,2.374,12.128,12.128,0,0,1-7.182,8.714c-2.292.96-5.223,1.425-7.286-.3-2.729-2.279-1.656-6.342-1.04-9.363a4.5,4.5,0,0,0-2.968,1.659,12.2,12.2,0,0,1,2.244-6.791,27.429,27.429,0,0,1,1.707-2.164c.077-.09.827-1.088.942-1.055a9.781,9.781,0,0,0-10.562,3.012c-.226.271-.441.551-.649.835a13.324,13.324,0,0,0-.776,1.141c-.077.133-.151.268-.218.406ZM91.9,33.838c0,.072-.013.141-.014.213l-1.72.978V32.647l1.7.415c.018.256.034.513.034.776m-9.359-9.492,1.167-.962,1.157.966a8.651,8.651,0,0,1,6.554,6.284L83.7,28.751l-7.714,1.83a8.639,8.639,0,0,1,6.559-6.235M87.918,32.1v4.214l-3.095,1.761v-6.73Zm-5.348-.765v6.725L79.452,36.3V32.073Zm-7.081,2.505c0-.282.016-.558.037-.833l1.675-.4v2.427l-1.694-.955c0-.08-.018-.16-.018-.24m.779,3.254,7.451,4.2,7.443-4.235c-1.662,3.688-5.7,6.377-7.466,6.377-1.576,0-5.707-2.656-7.429-6.342m3.722,7.543a7.782,7.782,0,0,0,3.707,1.29,8.177,8.177,0,0,0,3.975-1.4,12.876,12.876,0,0,0,3.3,3.156A22.183,22.183,0,0,1,83.9,51.449a19.242,19.242,0,0,1-7.358-3.725,13.333,13.333,0,0,0,3.443-3.09M51.539,49.348H74.65c3.489,3.326,8.767,4.553,9.014,4.61l.3.069.3-.085a24.344,24.344,0,0,0,8.564-4.594h23.041v67.127L83.469,127.25l-31.93-10.767ZM49.1,83.7a6.836,6.836,0,0,0-.442-.763c-.024-.037-.048-.072-.072-.107-.058-.087-.115-.171-.176-.256-.022-.032-.046-.066-.071-.1-.077-.109-.155-.216-.232-.322-.208-.284-.423-.564-.649-.835a9.782,9.782,0,0,0-10.562-3.012c.115-.034.865.965.942,1.055a27.038,27.038,0,0,1,1.705,2.164,12.2,12.2,0,0,1,2.245,6.791,4.506,4.506,0,0,0-2.968-1.659c.615,3.021,1.689,7.084-1.042,9.363-2.061,1.721-4.993,1.257-7.285.3A12.12,12.12,0,0,1,23.308,87.6a11.589,11.589,0,0,1-.234-2.374c0-.21.011-.418.022-.627l.01-.157q.046-.623.152-1.234l.029-.152c.038-.2.08-.406.128-.6v0c.042-.17.088-.34.138-.508.016-.054.032-.106.048-.159.037-.119.074-.236.114-.353.021-.058.04-.115.061-.175.042-.115.087-.231.131-.346.019-.051.04-.1.061-.152q.2-.49.446-.962c.026-.05.051-.1.079-.146.058-.109.119-.218.181-.325.032-.055.063-.107.095-.16.064-.107.13-.213.2-.319.029-.046.059-.093.09-.139.1-.149.2-.3.306-.442a1.316,1.316,0,0,0,.141-.224c.053-.072,4.318-7.054,20.983-14.417L49.1,62.489ZM14.133,68.634c0-.151.018-.33.043-.532.008-.067.019-.138.03-.21v0c.014-.095.034-.2.056-.3,0-.027.011-.053.016-.08.024-.107.05-.216.08-.33l0,0c.046-.171.1-.348.168-.532.029-.082.063-.165.1-.25l.03-.074c.027-.064.054-.128.085-.192.011-.026.022-.051.035-.077.04-.087.083-.175.13-.263,1.579-3.013,5.037-4.451,7.669-5.121l.032-.018v-.042c-.008-.074-.306-1.777-4.823-1.9a4.718,4.718,0,0,1,.774-.476,11.547,11.547,0,0,1,3.7-1.165,16.02,16.02,0,0,1,5.355.133,25.559,25.559,0,0,1,5.062,1.625l.566.224c.426.175.907.38,1.414.6l.035.016c.189.083.38.168.575.256l.008,0,.034.014.261.12c.032.016.064.03.1.045l.22.1.09.043c.1.046.2.093.293.141l.063.029c.08.04.16.079.239.119l.091.045.242.122.054.029.288.149.069.037c.075.038.149.079.223.119l.077.042c.242.133.476.266.7.4.295.178.563.353.8.526l.054.04a5.145,5.145,0,0,1,.468.388,2.394,2.394,0,0,1,.208.223l0-.014,0-.019,0-.021v0l-.008-.038,0-.024-.008-.035,0-.026-.006-.029c-.006-.024-.014-.051-.021-.08l-.01-.034c-.008-.029-.019-.063-.03-.1l-.013-.038-.018-.051-.022-.061-.016-.045-.013-.029c-.013-.032-.026-.064-.04-.1-.006-.016-.013-.032-.021-.048-.019-.045-.042-.093-.064-.141l-.027-.053-.022-.045c-.018-.037-.037-.072-.058-.111l-.03-.056c-.026-.046-.053-.095-.082-.143L39.3,61.3l-.037-.059c-.034-.053-.067-.107-.1-.163l-.011-.018L39.1,61c-.029-.043-.061-.087-.091-.13-.014-.021-.029-.04-.043-.063l-.048-.061c-.029-.04-.061-.08-.091-.12s-.043-.056-.067-.085l-.05-.059,0-.008c-.058-.069-.117-.139-.181-.212l-.04-.043c-.04-.045-.083-.091-.125-.136s-.066-.072-.1-.111L41.6,58.408l.314-.147,0,0a.321.321,0,0,0,.04-.019c.362-.17.72-.345,1.079-.518l.077-.037.367-.176.436-.207c.01,0,4.969-2.27,4.4-3.938a21.92,21.92,0,0,1-6.2-1.588l-.008,0-.064-.024-.014,0-.011,0c-.133-.05-.248-.091-.357-.133l-.027-.01c-.05-.019-.1-.037-.146-.056l-.027-.01c-.048-.019-.1-.037-.141-.056l-.011,0a6.137,6.137,0,0,1-.579-.264h0v0c-.082-.042-.165-.087-.255-.138-.361-.207-.71-.431-1.05-.668l-.032-.022c-.288-.2-.571-.414-.843-.636l-.029-.024c-.147-.12-.29-.244-.433-.37L38,49.265l0,0c-.236-.212-.463-.433-.684-.66l0,0c-.043-.045-.085-.088-.127-.133-.1-.1-.2-.208-.29-.316l-.083-.091c-.12-.138-.237-.276-.353-.417l-.006-.01c-.112-.138-.221-.279-.33-.422l-.046-.063c-.115-.157-.229-.316-.34-.476l-.05-.072v0c-.071-.1-.141-.21-.208-.317l0,0-.093-.144q-.327-.524-.611-1.075l-.016-.034q-.089-.173-.173-.346v0l-.034-.072c-.071-.149-.139-.3-.205-.449v0c-.024-.058-.05-.114-.074-.171-.061-.146-.12-.293-.176-.442-.011-.026-.022-.051-.032-.079-.131-.349-.25-.707-.356-1.069-.019-.064-.037-.127-.054-.191-.034-.122-.066-.245-.1-.367v0c-.006-.029-.014-.056-.021-.085-.046-.188-.09-.377-.128-.566-.008-.035-.016-.069-.022-.1v0c-.037-.186-.071-.375-.1-.564,0-.019,0-.038-.008-.059-.027-.17-.05-.341-.072-.514-.006-.053-.011-.106-.018-.159-.016-.143-.029-.285-.042-.428v0c0-.069-.011-.139-.016-.208-.01-.135-.016-.271-.022-.407l0-.119c-.008-.22-.014-.439-.013-.662A15.583,15.583,0,0,1,48.737,22.481c4.4.016,9.554,2.013,11.977,5.873a9.25,9.25,0,0,1,.761,8.657,9,9,0,0,1-2.292,3.143,10.338,10.338,0,0,1-3.257,1.84,11.731,11.731,0,0,0,1.3-3.276,8.1,8.1,0,0,0-.726-5.781l.008.063v0l0,0,0,.022v0c.006.05.014.115.022.2v0l0,.022v0c.016.18.034.422.038.7v.03c0,.072,0,.146,0,.223v.04c0,.077,0,.154-.01.234l0,.037c0,.082-.011.163-.019.247v0l0,.019v0c-.008.083-.019.165-.03.248v0l0,.018c-.013.083-.027.165-.043.247l-.008.038c-.018.079-.037.157-.059.232v0l-.011.042c-.022.077-.048.152-.075.224l0,.013-.016.037c-.013.034-.027.067-.042.1s-.018.038-.027.056-.03.061-.046.091h0l-.029.053c-.024.042-.05.082-.075.12l-.01.014a1.5,1.5,0,0,1-.295.316A5.14,5.14,0,0,1,52.673,37.7c-.319-.008-.651-.043-1-.085a6.8,6.8,0,0,0,2.58-5.212,5.582,5.582,0,0,0-4.118-5.679C45,25.374,39.459,29.312,37.813,34.067c-2.314,6.687,2.172,15.039,9.536,15.34l0,0,1.749.042V59.777c-.212.091-.428.188-.644.284-.447.2-.89.4-1.26.566l-.038.018-.138.063c-.034.014-.067.029-.1.045s-.042.019-.063.027l-.09.042L46.37,61l-.045.022-.069.03C27.744,69.062,23.413,76.815,23.413,76.815c-.21.29-.41.591-.6.9-.027.043-.053.085-.079.128-.066.109-.13.218-.192.329-.024.043-.05.087-.074.131-.083.149-.163.3-.242.45s-.151.306-.223.46l-.063.139c-.053.114-.1.231-.152.346l-.058.139c-.136.333-.261.672-.372,1.015A14.481,14.481,0,0,0,32.6,99.487c4.711.817,9.46-2.332,9.46-7.368a8.471,8.471,0,0,0-.048-.88c-.016-.165-.053-.327-.077-.481a1.445,1.445,0,0,1,.155.136c.032.032.071.072.112.117.064.071.135.159.21.26q.031.043.063.091c.035.05.069.1.1.159.013.022.026.046.04.069.035.061.071.125.106.194l.01.021c.042.083.082.171.122.266l0,0a4.388,4.388,0,0,1,.17.5l.006.026a4.845,4.845,0,0,1,.147.787.427.427,0,0,1,0,.045c.006.061.011.122.016.184l0,.093c.006.128.01.26.008.4,0,.04,0,.082,0,.123s0,.091,0,.138l0,.024c-.01.17-.026.348-.05.532-.01.075-.022.152-.034.229l-.01.066c.034-.2.406-.569.516-.76a7.081,7.081,0,0,0,.407-.891,8.75,8.75,0,0,0,.277-.888c.066-.266.122-.534.165-.8.056-.337.093-.673.119-1.008a14.189,14.189,0,0,0-.194-3.3c-.077-.447-.165-.894-.268-1.34a24.894,24.894,0,0,0-1.091-3.268,11.011,11.011,0,0,0-1.354-2.215l-.022-.027c-.1-.125-.2-.247-.311-.367v0a5.278,5.278,0,0,1,.955.245c.139.048.29.1.449.17.106.045.215.095.327.147.058.027.114.054.172.085.115.058.234.122.354.191a7.491,7.491,0,0,1,2.367,2.157c2.847,4.01,3.97,9.928,1.8,14.484-2.229,4.7-7.963,6.594-12.837,6.565A19.079,19.079,0,0,1,16,85.229c.04-6.5,3.462-11.649,8.084-15.925.284-.264.575-.519.869-.776.444-.375,1.39-1.165,2.335-1.9a.125.125,0,0,1,.067-.011l-.038-.011a12.646,12.646,0,0,1,2.228-1.489,9.466,9.466,0,0,0-4.853,1.091,16.4,16.4,0,0,0-8.469,1.611,14.739,14.739,0,0,0-2.09,1.244c0-.042,0-.1,0-.173s0-.16,0-.26" transform="translate(7.139 12.057)" fill="#6f767c"/>
        <path id="Path_14214" data-name="Path 14214" d="M58.714,29.106a7,7,0,0,0,1.755-1.449,7.111,7.111,0,0,0,1.766,1.462V24.1a17.438,17.438,0,0,1,3.693.718l.106.032a18.912,18.912,0,0,1,3.274,1.4l-1.981,1.306c2.362,1.013,11.974,4.507,20.446-1.515L82.143,20.9l4.052-9.434a16.067,16.067,0,0,1-14.827,2.3l-.417-.159V8.028a23.18,23.18,0,0,0-9.427-3.007,17.153,17.153,0,0,0-7.152.862,16.488,16.488,0,0,0-4.137,2.144v19.2a19.568,19.568,0,0,1,8.479-3.064Zm-.029-9.166v-3.3H55.537v-3.2h3.148V10.176H62.2v3.257H65.3v3.2H62.2v3.3Z" transform="translate(30.28 2.986)" fill="#6f767c"/>
        <path id="Path_14215" data-name="Path 14215" d="M61.777,6.467,58.048,0,54.464,6.206a17.709,17.709,0,0,1,3.063-.266,17.266,17.266,0,0,1,4.251.527" transform="translate(32.829)" fill="#6f767c"/>
        <path id="Path_14216" data-name="Path 14216" d="M111.4,132.679a4.606,4.606,0,0,0-6.131,2.2,36.4,36.4,0,0,1-65.832,0,4.6,4.6,0,1,0-8.326,3.935,45.613,45.613,0,0,0,82.485,0,4.61,4.61,0,0,0-2.2-6.131" transform="translate(18.489 79.706)" fill="#6f767c"/>
      </g>
    </g>
  </g>
</svg>
