<svg xmlns="http://www.w3.org/2000/svg" width="1559.14" height="709.917" viewBox="0 0 1559.14 709.917">
  <g id="Group_6454" data-name="Group 6454" transform="translate(0 -0.002)">
    <g id="Group_6457" data-name="Group 6457" transform="translate(0 0.002)">
      <path id="Path_14708" data-name="Path 14708" d="M93.306,616.747S-122.956,417.559,103,308.778c143.223-68.95,108.96-86.126,155.179-181.365C314.837,10.668,596.4-76.89,714.075,102.1,800.71,233.87,849.9,231.035,913.12,207.948c72.5-26.476,135.4-83.557,221.487-44.116,123.645,56.653,141.522,177.248,220.472,150.963,211.349-70.364-49.813,329.926-237.657,395.124Z" transform="translate(0 -0.002)" fill="#eaf1f8" opacity="0.999"/>
      <rect id="Rectangle_6501" data-name="Rectangle 6501" width="97.462" height="473.95" transform="translate(1056.537 76.765)" fill="#c4d9ed"/>
      <rect id="Rectangle_6502" data-name="Rectangle 6502" width="97.463" height="473.95" transform="translate(1078.426 76.765)" fill="#d5e7f7"/>
      <rect id="Rectangle_6503" data-name="Rectangle 6503" width="97.438" height="27.387" transform="translate(1078.451 76.639)" fill="#c4d9ed"/>
      <rect id="Rectangle_6504" data-name="Rectangle 6504" width="97.438" height="27.387" transform="translate(1078.451 136.038)" fill="#c4d9ed"/>
      <rect id="Rectangle_6505" data-name="Rectangle 6505" width="97.438" height="27.387" transform="translate(1078.451 195.438)" fill="#c4d9ed"/>
      <rect id="Rectangle_6506" data-name="Rectangle 6506" width="97.438" height="27.387" transform="translate(1078.451 254.837)" fill="#c4d9ed"/>
      <rect id="Rectangle_6507" data-name="Rectangle 6507" width="97.438" height="27.387" transform="translate(1078.451 314.237)" fill="#c4d9ed"/>
      <rect id="Rectangle_6508" data-name="Rectangle 6508" width="97.438" height="27.388" transform="translate(1078.451 373.636)" fill="#c4d9ed"/>
      <rect id="Rectangle_6509" data-name="Rectangle 6509" width="97.438" height="27.387" transform="translate(1078.451 433.036)" fill="#c4d9ed"/>
      <rect id="Rectangle_6510" data-name="Rectangle 6510" width="97.438" height="27.387" transform="translate(1078.451 492.435)" fill="#c4d9ed"/>
      <rect id="Rectangle_6511" data-name="Rectangle 6511" width="97.462" height="406.886" transform="translate(1212.339 143.829)" fill="#c4d9ed"/>
      <rect id="Rectangle_6512" data-name="Rectangle 6512" width="97.463" height="406.886" transform="translate(1234.229 143.829)" fill="#d5e7f7"/>
      <rect id="Rectangle_6513" data-name="Rectangle 6513" width="97.438" height="23.512" transform="translate(1234.254 143.721)" fill="#c4d9ed"/>
      <rect id="Rectangle_6514" data-name="Rectangle 6514" width="97.438" height="23.512" transform="translate(1234.254 194.715)" fill="#c4d9ed"/>
      <rect id="Rectangle_6515" data-name="Rectangle 6515" width="97.438" height="23.512" transform="translate(1234.254 245.71)" fill="#c4d9ed"/>
      <rect id="Rectangle_6516" data-name="Rectangle 6516" width="97.438" height="23.512" transform="translate(1234.254 296.704)" fill="#c4d9ed"/>
      <rect id="Rectangle_6517" data-name="Rectangle 6517" width="97.438" height="23.512" transform="translate(1234.254 347.699)" fill="#c4d9ed"/>
      <rect id="Rectangle_6518" data-name="Rectangle 6518" width="97.438" height="23.512" transform="translate(1234.254 398.693)" fill="#c4d9ed"/>
      <rect id="Rectangle_6519" data-name="Rectangle 6519" width="97.438" height="23.512" transform="translate(1234.254 449.687)" fill="#c4d9ed"/>
      <rect id="Rectangle_6520" data-name="Rectangle 6520" width="97.438" height="23.512" transform="translate(1234.254 500.682)" fill="#c4d9ed"/>
      <rect id="Rectangle_6521" data-name="Rectangle 6521" width="40.813" height="59.514" transform="translate(1003.788 536.177)" fill="#dceaf9"/>
      <path id="Path_14709" data-name="Path 14709" d="M947.226,484.782V448.34h11.158V385.68h59.827v62.66h55.934v-102.1h61.722v66.28h14.075v-79.13h61.722V481.751h78.06v86.515h29.166v21.795h66.994V552.531h38.464V450.549h47.515V638.807h47.515V802.622H899.557V484.782Z" transform="translate(-503.129 -186.467)" fill="#d5e7f7"/>
      <rect id="Rectangle_6522" data-name="Rectangle 6522" width="47.932" height="23.536" transform="translate(920.783 265.107)" fill="#c4d9ed"/>
      <rect id="Rectangle_6523" data-name="Rectangle 6523" width="47.932" height="23.536" transform="translate(920.783 300.109)" fill="#c4d9ed"/>
      <rect id="Rectangle_6524" data-name="Rectangle 6524" width="47.932" height="23.536" transform="translate(920.783 335.111)" fill="#c4d9ed"/>
      <rect id="Rectangle_6525" data-name="Rectangle 6525" width="47.932" height="23.536" transform="translate(920.783 371.802)" fill="#c4d9ed"/>
      <rect id="Rectangle_6526" data-name="Rectangle 6526" width="47.932" height="23.536" transform="translate(920.783 407.356)" fill="#c4d9ed"/>
      <rect id="Rectangle_6527" data-name="Rectangle 6527" width="47.932" height="23.536" transform="translate(920.783 442.909)" fill="#c4d9ed"/>
      <rect id="Rectangle_6528" data-name="Rectangle 6528" width="47.932" height="23.536" transform="translate(920.783 480.106)" fill="#c4d9ed"/>
      <rect id="Rectangle_6529" data-name="Rectangle 6529" width="17.674" height="102.856" transform="translate(903.775 265.106)" fill="#c4d9ed"/>
      <rect id="Rectangle_6530" data-name="Rectangle 6530" width="35.55" height="37.856" transform="translate(847.206 367.962)" fill="#c4d9ed"/>
      <path id="Path_14710" data-name="Path 14710" d="M1280.192,362.921h-12.27V465.854h12.252Z" transform="translate(-709.158 -202.985)" fill="#c4d9ed"/>
      <rect id="Rectangle_6531" data-name="Rectangle 6531" width="7.532" height="79.765" transform="translate(639.282 146.921)" fill="#c4d9ed"/>
      <rect id="Rectangle_6532" data-name="Rectangle 6532" width="61.756" height="15.248" transform="translate(646.813 157.023)" fill="#c4d9ed"/>
      <rect id="Rectangle_6533" data-name="Rectangle 6533" width="61.756" height="15.248" transform="translate(646.813 185.667)" fill="#c4d9ed"/>
      <rect id="Rectangle_6534" data-name="Rectangle 6534" width="61.756" height="15.248" transform="translate(646.813 211.438)" fill="#c4d9ed"/>
      <rect id="Rectangle_6535" data-name="Rectangle 6535" width="61.756" height="15.248" transform="translate(571.034 211.438)" fill="#c4d9ed"/>
      <rect id="Rectangle_6536" data-name="Rectangle 6536" width="61.756" height="15.248" transform="translate(571.034 185.667)" fill="#c4d9ed"/>
      <rect id="Rectangle_6537" data-name="Rectangle 6537" width="61.756" height="15.248" transform="translate(571.034 159.936)" fill="#c4d9ed"/>
      <rect id="Rectangle_6538" data-name="Rectangle 6538" width="137.554" height="15.248" transform="translate(571.016 236.425)" fill="#c4d9ed"/>
      <rect id="Rectangle_6539" data-name="Rectangle 6539" width="137.554" height="15.248" transform="translate(571.016 261.413)" fill="#c4d9ed"/>
      <rect id="Rectangle_6540" data-name="Rectangle 6540" width="137.554" height="9.679" transform="translate(571.016 285.833)" fill="#c4d9ed"/>
      <rect id="Rectangle_6541" data-name="Rectangle 6541" width="10.463" height="14.749" transform="translate(763.377 311.584)" fill="#c4d9ed"/>
      <rect id="Rectangle_6542" data-name="Rectangle 6542" width="10.463" height="14.749" transform="translate(743.811 311.584)" fill="#c4d9ed"/>
      <rect id="Rectangle_6543" data-name="Rectangle 6543" width="10.463" height="14.749" transform="translate(724.682 311.584)" fill="#c4d9ed"/>
      <rect id="Rectangle_6544" data-name="Rectangle 6544" width="10.463" height="14.749" transform="translate(706.545 311.584)" fill="#c4d9ed"/>
      <rect id="Rectangle_6545" data-name="Rectangle 6545" width="10.463" height="14.749" transform="translate(688.06 311.584)" fill="#c4d9ed"/>
      <rect id="Rectangle_6546" data-name="Rectangle 6546" width="10.463" height="14.749" transform="translate(669.364 311.584)" fill="#c4d9ed"/>
      <rect id="Rectangle_6547" data-name="Rectangle 6547" width="10.463" height="14.749" transform="translate(649.797 311.584)" fill="#c4d9ed"/>
      <rect id="Rectangle_6548" data-name="Rectangle 6548" width="10.463" height="14.749" transform="translate(630.668 311.584)" fill="#c4d9ed"/>
      <rect id="Rectangle_6549" data-name="Rectangle 6549" width="10.463" height="14.749" transform="translate(612.532 311.584)" fill="#c4d9ed"/>
      <rect id="Rectangle_6550" data-name="Rectangle 6550" width="10.463" height="14.749" transform="translate(594.047 311.584)" fill="#c4d9ed"/>
      <rect id="Rectangle_6551" data-name="Rectangle 6551" width="10.463" height="14.749" transform="translate(574.784 311.584)" fill="#c4d9ed"/>
      <rect id="Rectangle_6552" data-name="Rectangle 6552" width="10.463" height="14.749" transform="translate(555.217 311.584)" fill="#c4d9ed"/>
      <rect id="Rectangle_6553" data-name="Rectangle 6553" width="10.463" height="14.749" transform="translate(536.089 311.584)" fill="#c4d9ed"/>
      <rect id="Rectangle_6554" data-name="Rectangle 6554" width="10.463" height="14.749" transform="translate(517.951 311.584)" fill="#c4d9ed"/>
      <rect id="Rectangle_6555" data-name="Rectangle 6555" width="10.463" height="14.749" transform="translate(499.467 311.584)" fill="#c4d9ed"/>
      <rect id="Rectangle_6556" data-name="Rectangle 6556" width="10.463" height="14.749" transform="translate(480.77 311.584)" fill="#c4d9ed"/>
      <rect id="Rectangle_6557" data-name="Rectangle 6557" width="10.463" height="14.749" transform="translate(461.203 311.584)" fill="#c4d9ed"/>
      <rect id="Rectangle_6558" data-name="Rectangle 6558" width="10.463" height="14.749" transform="translate(442.075 311.584)" fill="#c4d9ed"/>
      <rect id="Rectangle_6559" data-name="Rectangle 6559" width="10.463" height="14.749" transform="translate(423.938 311.584)" fill="#c4d9ed"/>
      <rect id="Rectangle_6560" data-name="Rectangle 6560" width="10.463" height="14.749" transform="translate(405.453 311.584)" fill="#c4d9ed"/>
      <rect id="Rectangle_6561" data-name="Rectangle 6561" width="10.463" height="14.748" transform="translate(763.377 337.61)" fill="#c4d9ed"/>
      <rect id="Rectangle_6562" data-name="Rectangle 6562" width="10.463" height="14.748" transform="translate(743.811 337.61)" fill="#c4d9ed"/>
      <rect id="Rectangle_6563" data-name="Rectangle 6563" width="10.463" height="14.748" transform="translate(724.682 337.61)" fill="#c4d9ed"/>
      <rect id="Rectangle_6564" data-name="Rectangle 6564" width="10.463" height="14.748" transform="translate(706.545 337.61)" fill="#c4d9ed"/>
      <rect id="Rectangle_6565" data-name="Rectangle 6565" width="10.463" height="14.748" transform="translate(688.06 337.61)" fill="#c4d9ed"/>
      <rect id="Rectangle_6566" data-name="Rectangle 6566" width="10.463" height="14.748" transform="translate(669.364 337.61)" fill="#c4d9ed"/>
      <rect id="Rectangle_6567" data-name="Rectangle 6567" width="10.463" height="14.748" transform="translate(649.797 337.61)" fill="#c4d9ed"/>
      <rect id="Rectangle_6568" data-name="Rectangle 6568" width="10.463" height="14.748" transform="translate(630.668 337.61)" fill="#c4d9ed"/>
      <rect id="Rectangle_6569" data-name="Rectangle 6569" width="10.463" height="14.748" transform="translate(612.532 337.61)" fill="#c4d9ed"/>
      <rect id="Rectangle_6570" data-name="Rectangle 6570" width="10.463" height="14.748" transform="translate(594.047 337.61)" fill="#c4d9ed"/>
      <rect id="Rectangle_6571" data-name="Rectangle 6571" width="10.463" height="14.748" transform="translate(574.784 337.61)" fill="#c4d9ed"/>
      <rect id="Rectangle_6572" data-name="Rectangle 6572" width="10.463" height="14.748" transform="translate(555.217 337.61)" fill="#c4d9ed"/>
      <rect id="Rectangle_6573" data-name="Rectangle 6573" width="10.463" height="14.748" transform="translate(536.089 337.61)" fill="#c4d9ed"/>
      <rect id="Rectangle_6574" data-name="Rectangle 6574" width="10.463" height="14.748" transform="translate(517.951 337.61)" fill="#c4d9ed"/>
      <rect id="Rectangle_6575" data-name="Rectangle 6575" width="10.463" height="14.748" transform="translate(499.467 337.61)" fill="#c4d9ed"/>
      <rect id="Rectangle_6576" data-name="Rectangle 6576" width="10.463" height="14.748" transform="translate(480.77 337.61)" fill="#c4d9ed"/>
      <rect id="Rectangle_6577" data-name="Rectangle 6577" width="10.463" height="14.748" transform="translate(461.203 337.61)" fill="#c4d9ed"/>
      <rect id="Rectangle_6578" data-name="Rectangle 6578" width="10.463" height="14.748" transform="translate(442.075 337.61)" fill="#c4d9ed"/>
      <rect id="Rectangle_6579" data-name="Rectangle 6579" width="10.463" height="14.748" transform="translate(423.938 337.61)" fill="#c4d9ed"/>
      <rect id="Rectangle_6580" data-name="Rectangle 6580" width="10.463" height="14.748" transform="translate(405.453 337.61)" fill="#c4d9ed"/>
      <rect id="Rectangle_6581" data-name="Rectangle 6581" width="10.463" height="14.748" transform="translate(763.377 363.236)" fill="#c4d9ed"/>
      <rect id="Rectangle_6582" data-name="Rectangle 6582" width="10.463" height="14.748" transform="translate(743.811 363.236)" fill="#c4d9ed"/>
      <rect id="Rectangle_6583" data-name="Rectangle 6583" width="10.463" height="14.748" transform="translate(724.682 363.236)" fill="#c4d9ed"/>
      <rect id="Rectangle_6584" data-name="Rectangle 6584" width="10.463" height="14.748" transform="translate(706.545 363.236)" fill="#c4d9ed"/>
      <rect id="Rectangle_6585" data-name="Rectangle 6585" width="10.463" height="14.748" transform="translate(688.06 363.236)" fill="#c4d9ed"/>
      <rect id="Rectangle_6586" data-name="Rectangle 6586" width="10.463" height="14.748" transform="translate(669.364 363.236)" fill="#c4d9ed"/>
      <rect id="Rectangle_6587" data-name="Rectangle 6587" width="10.463" height="14.748" transform="translate(649.797 363.236)" fill="#c4d9ed"/>
      <rect id="Rectangle_6588" data-name="Rectangle 6588" width="10.463" height="14.748" transform="translate(630.668 363.236)" fill="#c4d9ed"/>
      <rect id="Rectangle_6589" data-name="Rectangle 6589" width="10.463" height="14.748" transform="translate(612.532 363.236)" fill="#c4d9ed"/>
      <rect id="Rectangle_6590" data-name="Rectangle 6590" width="10.463" height="14.748" transform="translate(594.047 363.236)" fill="#c4d9ed"/>
      <rect id="Rectangle_6591" data-name="Rectangle 6591" width="10.463" height="14.748" transform="translate(574.784 363.236)" fill="#c4d9ed"/>
      <rect id="Rectangle_6592" data-name="Rectangle 6592" width="10.463" height="14.748" transform="translate(555.217 363.236)" fill="#c4d9ed"/>
      <rect id="Rectangle_6593" data-name="Rectangle 6593" width="10.463" height="14.748" transform="translate(536.089 363.236)" fill="#c4d9ed"/>
      <rect id="Rectangle_6594" data-name="Rectangle 6594" width="10.463" height="14.748" transform="translate(517.951 363.236)" fill="#c4d9ed"/>
      <rect id="Rectangle_6595" data-name="Rectangle 6595" width="10.463" height="14.748" transform="translate(499.467 363.236)" fill="#c4d9ed"/>
      <rect id="Rectangle_6596" data-name="Rectangle 6596" width="10.463" height="14.748" transform="translate(480.77 363.236)" fill="#c4d9ed"/>
      <rect id="Rectangle_6597" data-name="Rectangle 6597" width="10.463" height="14.748" transform="translate(461.203 363.236)" fill="#c4d9ed"/>
      <rect id="Rectangle_6598" data-name="Rectangle 6598" width="10.463" height="14.748" transform="translate(442.075 363.236)" fill="#c4d9ed"/>
      <rect id="Rectangle_6599" data-name="Rectangle 6599" width="10.463" height="14.748" transform="translate(423.938 363.236)" fill="#c4d9ed"/>
      <rect id="Rectangle_6600" data-name="Rectangle 6600" width="10.463" height="14.748" transform="translate(405.453 363.236)" fill="#c4d9ed"/>
      <rect id="Rectangle_6601" data-name="Rectangle 6601" width="10.463" height="14.748" transform="translate(763.377 390.463)" fill="#c4d9ed"/>
      <rect id="Rectangle_6602" data-name="Rectangle 6602" width="10.463" height="14.748" transform="translate(743.811 390.463)" fill="#c4d9ed"/>
      <rect id="Rectangle_6603" data-name="Rectangle 6603" width="10.463" height="14.748" transform="translate(724.682 390.463)" fill="#c4d9ed"/>
      <rect id="Rectangle_6604" data-name="Rectangle 6604" width="10.463" height="14.748" transform="translate(706.545 390.463)" fill="#c4d9ed"/>
      <rect id="Rectangle_6605" data-name="Rectangle 6605" width="10.463" height="14.748" transform="translate(688.06 390.463)" fill="#c4d9ed"/>
      <rect id="Rectangle_6606" data-name="Rectangle 6606" width="10.463" height="14.748" transform="translate(669.364 390.463)" fill="#c4d9ed"/>
      <rect id="Rectangle_6607" data-name="Rectangle 6607" width="10.463" height="14.748" transform="translate(649.797 390.463)" fill="#c4d9ed"/>
      <rect id="Rectangle_6608" data-name="Rectangle 6608" width="10.463" height="14.748" transform="translate(630.668 390.463)" fill="#c4d9ed"/>
      <rect id="Rectangle_6609" data-name="Rectangle 6609" width="10.463" height="14.748" transform="translate(612.532 390.463)" fill="#c4d9ed"/>
      <rect id="Rectangle_6610" data-name="Rectangle 6610" width="10.463" height="14.748" transform="translate(594.047 390.463)" fill="#c4d9ed"/>
      <rect id="Rectangle_6611" data-name="Rectangle 6611" width="10.463" height="14.748" transform="translate(574.784 390.463)" fill="#c4d9ed"/>
      <rect id="Rectangle_6612" data-name="Rectangle 6612" width="10.463" height="14.748" transform="translate(555.217 390.463)" fill="#c4d9ed"/>
      <rect id="Rectangle_6613" data-name="Rectangle 6613" width="10.463" height="14.748" transform="translate(536.089 390.463)" fill="#c4d9ed"/>
      <rect id="Rectangle_6614" data-name="Rectangle 6614" width="10.463" height="14.748" transform="translate(517.951 390.463)" fill="#c4d9ed"/>
      <rect id="Rectangle_6615" data-name="Rectangle 6615" width="10.463" height="14.748" transform="translate(499.467 390.463)" fill="#c4d9ed"/>
      <rect id="Rectangle_6616" data-name="Rectangle 6616" width="10.463" height="14.748" transform="translate(480.77 390.463)" fill="#c4d9ed"/>
      <rect id="Rectangle_6617" data-name="Rectangle 6617" width="10.463" height="14.748" transform="translate(461.203 390.463)" fill="#c4d9ed"/>
      <rect id="Rectangle_6618" data-name="Rectangle 6618" width="10.463" height="14.748" transform="translate(442.075 390.463)" fill="#c4d9ed"/>
      <rect id="Rectangle_6619" data-name="Rectangle 6619" width="10.463" height="14.748" transform="translate(423.938 390.463)" fill="#c4d9ed"/>
      <rect id="Rectangle_6620" data-name="Rectangle 6620" width="10.463" height="14.748" transform="translate(405.453 390.463)" fill="#c4d9ed"/>
      <rect id="Rectangle_6621" data-name="Rectangle 6621" width="10.463" height="14.748" transform="translate(763.377 416.488)" fill="#c4d9ed"/>
      <rect id="Rectangle_6622" data-name="Rectangle 6622" width="10.463" height="14.748" transform="translate(743.811 416.488)" fill="#c4d9ed"/>
      <rect id="Rectangle_6623" data-name="Rectangle 6623" width="10.463" height="14.748" transform="translate(724.682 416.488)" fill="#c4d9ed"/>
      <rect id="Rectangle_6624" data-name="Rectangle 6624" width="10.463" height="14.748" transform="translate(706.545 416.488)" fill="#c4d9ed"/>
      <rect id="Rectangle_6625" data-name="Rectangle 6625" width="10.463" height="14.748" transform="translate(688.06 416.488)" fill="#c4d9ed"/>
      <rect id="Rectangle_6626" data-name="Rectangle 6626" width="10.463" height="14.748" transform="translate(669.364 416.488)" fill="#c4d9ed"/>
      <rect id="Rectangle_6627" data-name="Rectangle 6627" width="10.463" height="14.748" transform="translate(649.797 416.488)" fill="#c4d9ed"/>
      <rect id="Rectangle_6628" data-name="Rectangle 6628" width="10.463" height="14.748" transform="translate(630.668 416.488)" fill="#c4d9ed"/>
      <rect id="Rectangle_6629" data-name="Rectangle 6629" width="10.463" height="14.748" transform="translate(612.532 416.488)" fill="#c4d9ed"/>
      <rect id="Rectangle_6630" data-name="Rectangle 6630" width="10.463" height="14.748" transform="translate(594.047 416.488)" fill="#c4d9ed"/>
      <rect id="Rectangle_6631" data-name="Rectangle 6631" width="10.463" height="14.748" transform="translate(574.784 416.488)" fill="#c4d9ed"/>
      <rect id="Rectangle_6632" data-name="Rectangle 6632" width="10.463" height="14.748" transform="translate(555.217 416.488)" fill="#c4d9ed"/>
      <rect id="Rectangle_6633" data-name="Rectangle 6633" width="10.463" height="14.748" transform="translate(536.089 416.488)" fill="#c4d9ed"/>
      <rect id="Rectangle_6634" data-name="Rectangle 6634" width="10.463" height="14.748" transform="translate(517.951 416.488)" fill="#c4d9ed"/>
      <rect id="Rectangle_6635" data-name="Rectangle 6635" width="10.463" height="14.748" transform="translate(499.467 416.488)" fill="#c4d9ed"/>
      <rect id="Rectangle_6636" data-name="Rectangle 6636" width="10.463" height="14.748" transform="translate(480.77 416.488)" fill="#c4d9ed"/>
      <rect id="Rectangle_6637" data-name="Rectangle 6637" width="10.463" height="14.748" transform="translate(461.203 416.488)" fill="#c4d9ed"/>
      <rect id="Rectangle_6638" data-name="Rectangle 6638" width="10.463" height="14.748" transform="translate(442.075 416.488)" fill="#c4d9ed"/>
      <rect id="Rectangle_6639" data-name="Rectangle 6639" width="10.463" height="14.748" transform="translate(423.938 416.488)" fill="#c4d9ed"/>
      <rect id="Rectangle_6640" data-name="Rectangle 6640" width="10.463" height="14.748" transform="translate(405.453 416.488)" fill="#c4d9ed"/>
      <rect id="Rectangle_6641" data-name="Rectangle 6641" width="10.463" height="14.748" transform="translate(763.377 442.115)" fill="#c4d9ed"/>
      <rect id="Rectangle_6642" data-name="Rectangle 6642" width="10.463" height="14.748" transform="translate(743.811 442.115)" fill="#c4d9ed"/>
      <rect id="Rectangle_6643" data-name="Rectangle 6643" width="10.463" height="14.748" transform="translate(724.682 442.115)" fill="#c4d9ed"/>
      <rect id="Rectangle_6644" data-name="Rectangle 6644" width="10.463" height="14.748" transform="translate(706.545 442.115)" fill="#c4d9ed"/>
      <rect id="Rectangle_6645" data-name="Rectangle 6645" width="10.463" height="14.748" transform="translate(688.06 442.115)" fill="#c4d9ed"/>
      <rect id="Rectangle_6646" data-name="Rectangle 6646" width="10.463" height="14.748" transform="translate(669.364 442.115)" fill="#c4d9ed"/>
      <rect id="Rectangle_6647" data-name="Rectangle 6647" width="10.463" height="14.748" transform="translate(649.797 442.115)" fill="#c4d9ed"/>
      <rect id="Rectangle_6648" data-name="Rectangle 6648" width="10.463" height="14.748" transform="translate(630.668 442.115)" fill="#c4d9ed"/>
      <rect id="Rectangle_6649" data-name="Rectangle 6649" width="10.463" height="14.748" transform="translate(612.532 442.115)" fill="#c4d9ed"/>
      <rect id="Rectangle_6650" data-name="Rectangle 6650" width="10.463" height="14.748" transform="translate(594.047 442.115)" fill="#c4d9ed"/>
      <rect id="Rectangle_6651" data-name="Rectangle 6651" width="10.463" height="14.748" transform="translate(574.784 442.115)" fill="#c4d9ed"/>
      <rect id="Rectangle_6652" data-name="Rectangle 6652" width="10.463" height="14.748" transform="translate(555.217 442.115)" fill="#c4d9ed"/>
      <rect id="Rectangle_6653" data-name="Rectangle 6653" width="10.463" height="14.748" transform="translate(536.089 442.115)" fill="#c4d9ed"/>
      <rect id="Rectangle_6654" data-name="Rectangle 6654" width="10.463" height="14.748" transform="translate(517.951 442.115)" fill="#c4d9ed"/>
      <rect id="Rectangle_6655" data-name="Rectangle 6655" width="10.463" height="14.748" transform="translate(499.467 442.115)" fill="#c4d9ed"/>
      <rect id="Rectangle_6656" data-name="Rectangle 6656" width="10.463" height="14.748" transform="translate(480.77 442.115)" fill="#c4d9ed"/>
      <rect id="Rectangle_6657" data-name="Rectangle 6657" width="10.463" height="14.748" transform="translate(461.203 442.115)" fill="#c4d9ed"/>
      <rect id="Rectangle_6658" data-name="Rectangle 6658" width="10.463" height="14.748" transform="translate(442.075 442.115)" fill="#c4d9ed"/>
      <rect id="Rectangle_6659" data-name="Rectangle 6659" width="10.463" height="14.748" transform="translate(423.938 442.115)" fill="#c4d9ed"/>
      <rect id="Rectangle_6660" data-name="Rectangle 6660" width="10.463" height="14.748" transform="translate(405.453 442.115)" fill="#c4d9ed"/>
      <rect id="Rectangle_6661" data-name="Rectangle 6661" width="242.518" height="129.852" transform="translate(604.689 488.321)" fill="#c4d9ed"/>
      <rect id="Rectangle_6662" data-name="Rectangle 6662" width="242.518" height="64.435" transform="translate(788.584 553.738)" fill="#c4d9ed"/>
      <rect id="Rectangle_6663" data-name="Rectangle 6663" width="242.518" height="109.612" transform="translate(342.729 508.707)" fill="#c4d9ed"/>
      <rect id="Rectangle_6664" data-name="Rectangle 6664" width="45.185" height="24.231" transform="translate(785.821 503.642)" fill="#d5e7f7"/>
      <rect id="Rectangle_6665" data-name="Rectangle 6665" width="45.185" height="24.231" transform="translate(727.82 503.642)" fill="#d5e7f7"/>
      <rect id="Rectangle_6666" data-name="Rectangle 6666" width="45.185" height="24.231" transform="translate(670.924 503.642)" fill="#d5e7f7"/>
      <rect id="Rectangle_6667" data-name="Rectangle 6667" width="45.185" height="24.231" transform="translate(615.121 503.642)" fill="#d5e7f7"/>
      <rect id="Rectangle_6668" data-name="Rectangle 6668" width="23.278" height="129.852" transform="translate(583.931 488.321)" fill="#adc9e0"/>
      <rect id="Rectangle_6669" data-name="Rectangle 6669" width="23.278" height="155.293" transform="translate(295.181 462.8)" fill="#adc9e0"/>
      <rect id="Rectangle_6670" data-name="Rectangle 6670" width="24.989" height="109.385" transform="translate(317.74 508.707)" fill="#adc9e0"/>
      <rect id="Rectangle_6671" data-name="Rectangle 6671" width="1.26" height="10.243" transform="translate(957.914 254.864)" fill="#dceaf9"/>
      <rect id="Rectangle_6672" data-name="Rectangle 6672" width="1.26" height="10.243" transform="translate(912.624 254.864)" fill="#dceaf9"/>
      <rect id="Rectangle_6673" data-name="Rectangle 6673" width="133.477" height="155.676" transform="translate(317.74 462.417)" fill="#d5e7f7"/>
      <rect id="Rectangle_6674" data-name="Rectangle 6674" width="2.467" height="31.563" transform="translate(326.692 431.236)" fill="#d5e7f7"/>
      <rect id="Rectangle_6675" data-name="Rectangle 6675" width="166.516" height="111.985" transform="translate(284.701 506.107)" fill="#d5e7f7"/>
      <rect id="Rectangle_6676" data-name="Rectangle 6676" width="166.516" height="36.397" transform="translate(284.701 491.476)" fill="#c4d9ed"/>
      <rect id="Rectangle_6677" data-name="Rectangle 6677" width="8.552" height="12.054" transform="translate(431.327 538.66)" fill="#adc9e0"/>
      <rect id="Rectangle_6678" data-name="Rectangle 6678" width="8.552" height="12.054" transform="translate(415.335 538.66)" fill="#adc9e0"/>
      <rect id="Rectangle_6679" data-name="Rectangle 6679" width="8.552" height="12.054" transform="translate(399.701 538.66)" fill="#adc9e0"/>
      <rect id="Rectangle_6680" data-name="Rectangle 6680" width="8.552" height="12.054" transform="translate(384.877 538.66)" fill="#adc9e0"/>
      <rect id="Rectangle_6681" data-name="Rectangle 6681" width="8.552" height="12.054" transform="translate(369.769 538.66)" fill="#adc9e0"/>
      <rect id="Rectangle_6682" data-name="Rectangle 6682" width="8.552" height="12.054" transform="translate(354.488 538.66)" fill="#adc9e0"/>
      <rect id="Rectangle_6683" data-name="Rectangle 6683" width="8.552" height="12.054" transform="translate(338.495 538.66)" fill="#adc9e0"/>
      <rect id="Rectangle_6684" data-name="Rectangle 6684" width="8.552" height="12.054" transform="translate(322.861 538.66)" fill="#adc9e0"/>
      <rect id="Rectangle_6685" data-name="Rectangle 6685" width="8.552" height="12.054" transform="translate(308.037 538.66)" fill="#adc9e0"/>
      <rect id="Rectangle_6686" data-name="Rectangle 6686" width="8.552" height="12.054" transform="translate(292.929 538.66)" fill="#adc9e0"/>
      <rect id="Rectangle_6687" data-name="Rectangle 6687" width="8.552" height="12.055" transform="translate(431.327 559.931)" fill="#adc9e0"/>
      <rect id="Rectangle_6688" data-name="Rectangle 6688" width="8.552" height="12.055" transform="translate(415.335 559.931)" fill="#adc9e0"/>
      <rect id="Rectangle_6689" data-name="Rectangle 6689" width="8.552" height="12.055" transform="translate(399.701 559.931)" fill="#adc9e0"/>
      <rect id="Rectangle_6690" data-name="Rectangle 6690" width="8.552" height="12.055" transform="translate(384.877 559.931)" fill="#adc9e0"/>
      <rect id="Rectangle_6691" data-name="Rectangle 6691" width="8.552" height="12.055" transform="translate(369.769 559.931)" fill="#adc9e0"/>
      <rect id="Rectangle_6692" data-name="Rectangle 6692" width="8.552" height="12.055" transform="translate(354.488 559.931)" fill="#adc9e0"/>
      <rect id="Rectangle_6693" data-name="Rectangle 6693" width="8.552" height="12.055" transform="translate(338.495 559.931)" fill="#adc9e0"/>
      <rect id="Rectangle_6694" data-name="Rectangle 6694" width="8.552" height="12.055" transform="translate(322.861 559.931)" fill="#adc9e0"/>
      <rect id="Rectangle_6695" data-name="Rectangle 6695" width="8.552" height="12.055" transform="translate(308.037 559.931)" fill="#adc9e0"/>
      <rect id="Rectangle_6696" data-name="Rectangle 6696" width="8.552" height="12.055" transform="translate(292.929 559.931)" fill="#adc9e0"/>
      <rect id="Rectangle_6697" data-name="Rectangle 6697" width="8.552" height="12.054" transform="translate(431.327 580.877)" fill="#adc9e0"/>
      <rect id="Rectangle_6698" data-name="Rectangle 6698" width="8.552" height="12.054" transform="translate(415.335 580.877)" fill="#adc9e0"/>
      <rect id="Rectangle_6699" data-name="Rectangle 6699" width="8.552" height="12.054" transform="translate(399.701 580.877)" fill="#adc9e0"/>
      <rect id="Rectangle_6700" data-name="Rectangle 6700" width="8.552" height="12.054" transform="translate(384.877 580.877)" fill="#adc9e0"/>
      <rect id="Rectangle_6701" data-name="Rectangle 6701" width="8.552" height="12.054" transform="translate(369.769 580.877)" fill="#adc9e0"/>
      <rect id="Rectangle_6702" data-name="Rectangle 6702" width="8.552" height="12.054" transform="translate(354.488 580.877)" fill="#adc9e0"/>
      <rect id="Rectangle_6703" data-name="Rectangle 6703" width="8.552" height="12.054" transform="translate(338.495 580.877)" fill="#adc9e0"/>
      <rect id="Rectangle_6704" data-name="Rectangle 6704" width="8.552" height="12.054" transform="translate(322.861 580.877)" fill="#adc9e0"/>
      <rect id="Rectangle_6705" data-name="Rectangle 6705" width="8.552" height="12.054" transform="translate(308.037 580.877)" fill="#adc9e0"/>
      <rect id="Rectangle_6706" data-name="Rectangle 6706" width="8.552" height="12.054" transform="translate(292.929 580.877)" fill="#adc9e0"/>
      <rect id="Rectangle_6707" data-name="Rectangle 6707" width="7.186" height="12.433" transform="translate(431.328 501.702)" fill="#adc9e0"/>
      <rect id="Rectangle_6708" data-name="Rectangle 6708" width="7.186" height="12.433" transform="translate(359.982 501.701)" fill="#adc9e0"/>
      <rect id="Rectangle_6709" data-name="Rectangle 6709" width="7.186" height="12.433" transform="translate(303.227 501.702)" fill="#adc9e0"/>
      <rect id="Rectangle_6710" data-name="Rectangle 6710" width="166.517" height="111.985" transform="translate(985.194 506.107)" fill="#d5e7f7"/>
      <rect id="Rectangle_6711" data-name="Rectangle 6711" width="166.517" height="36.397" transform="translate(985.194 491.476)" fill="#c4d9ed"/>
      <rect id="Rectangle_6712" data-name="Rectangle 6712" width="8.552" height="12.054" transform="translate(1131.821 538.66)" fill="#adc9e0"/>
      <rect id="Rectangle_6713" data-name="Rectangle 6713" width="8.552" height="12.054" transform="translate(1115.828 538.66)" fill="#adc9e0"/>
      <rect id="Rectangle_6714" data-name="Rectangle 6714" width="8.552" height="12.054" transform="translate(1100.194 538.66)" fill="#adc9e0"/>
      <rect id="Rectangle_6715" data-name="Rectangle 6715" width="8.552" height="12.054" transform="translate(1085.37 538.66)" fill="#adc9e0"/>
      <rect id="Rectangle_6716" data-name="Rectangle 6716" width="8.552" height="12.054" transform="translate(1070.262 538.66)" fill="#adc9e0"/>
      <rect id="Rectangle_6717" data-name="Rectangle 6717" width="8.552" height="12.054" transform="translate(1054.981 538.66)" fill="#adc9e0"/>
      <rect id="Rectangle_6718" data-name="Rectangle 6718" width="8.552" height="12.054" transform="translate(1038.988 538.66)" fill="#adc9e0"/>
      <rect id="Rectangle_6719" data-name="Rectangle 6719" width="8.552" height="12.054" transform="translate(1023.354 538.66)" fill="#adc9e0"/>
      <rect id="Rectangle_6720" data-name="Rectangle 6720" width="8.552" height="12.054" transform="translate(1008.531 538.66)" fill="#adc9e0"/>
      <rect id="Rectangle_6721" data-name="Rectangle 6721" width="8.552" height="12.054" transform="translate(993.422 538.66)" fill="#adc9e0"/>
      <rect id="Rectangle_6722" data-name="Rectangle 6722" width="8.552" height="12.055" transform="translate(1131.821 559.931)" fill="#adc9e0"/>
      <rect id="Rectangle_6723" data-name="Rectangle 6723" width="8.552" height="12.055" transform="translate(1115.828 559.931)" fill="#adc9e0"/>
      <rect id="Rectangle_6724" data-name="Rectangle 6724" width="8.552" height="12.055" transform="translate(1100.194 559.931)" fill="#adc9e0"/>
      <rect id="Rectangle_6725" data-name="Rectangle 6725" width="8.552" height="12.055" transform="translate(1085.37 559.931)" fill="#adc9e0"/>
      <rect id="Rectangle_6726" data-name="Rectangle 6726" width="8.552" height="12.055" transform="translate(1070.262 559.931)" fill="#adc9e0"/>
      <rect id="Rectangle_6727" data-name="Rectangle 6727" width="8.552" height="12.055" transform="translate(1054.981 559.931)" fill="#adc9e0"/>
      <rect id="Rectangle_6728" data-name="Rectangle 6728" width="8.552" height="12.055" transform="translate(1038.988 559.931)" fill="#adc9e0"/>
      <rect id="Rectangle_6729" data-name="Rectangle 6729" width="8.552" height="12.055" transform="translate(1023.354 559.931)" fill="#adc9e0"/>
      <rect id="Rectangle_6730" data-name="Rectangle 6730" width="8.552" height="12.055" transform="translate(1008.531 559.931)" fill="#adc9e0"/>
      <rect id="Rectangle_6731" data-name="Rectangle 6731" width="8.552" height="12.055" transform="translate(993.422 559.931)" fill="#adc9e0"/>
      <rect id="Rectangle_6732" data-name="Rectangle 6732" width="8.552" height="12.054" transform="translate(1131.821 580.877)" fill="#adc9e0"/>
      <rect id="Rectangle_6733" data-name="Rectangle 6733" width="8.552" height="12.054" transform="translate(1115.828 580.877)" fill="#adc9e0"/>
      <rect id="Rectangle_6734" data-name="Rectangle 6734" width="8.552" height="12.054" transform="translate(1100.194 580.877)" fill="#adc9e0"/>
      <rect id="Rectangle_6735" data-name="Rectangle 6735" width="8.552" height="12.054" transform="translate(1085.37 580.877)" fill="#adc9e0"/>
      <rect id="Rectangle_6736" data-name="Rectangle 6736" width="8.552" height="12.054" transform="translate(1070.262 580.877)" fill="#adc9e0"/>
      <rect id="Rectangle_6737" data-name="Rectangle 6737" width="8.552" height="12.054" transform="translate(1054.981 580.877)" fill="#adc9e0"/>
      <rect id="Rectangle_6738" data-name="Rectangle 6738" width="8.552" height="12.054" transform="translate(1038.988 580.877)" fill="#adc9e0"/>
      <rect id="Rectangle_6739" data-name="Rectangle 6739" width="8.552" height="12.054" transform="translate(1023.354 580.877)" fill="#adc9e0"/>
      <rect id="Rectangle_6740" data-name="Rectangle 6740" width="8.552" height="12.054" transform="translate(1008.531 580.877)" fill="#adc9e0"/>
      <rect id="Rectangle_6741" data-name="Rectangle 6741" width="8.552" height="12.054" transform="translate(993.422 580.877)" fill="#adc9e0"/>
      <rect id="Rectangle_6742" data-name="Rectangle 6742" width="7.186" height="12.433" transform="translate(1131.821 501.702)" fill="#adc9e0"/>
      <rect id="Rectangle_6743" data-name="Rectangle 6743" width="7.186" height="12.433" transform="translate(1060.475 501.701)" fill="#adc9e0"/>
      <rect id="Rectangle_6744" data-name="Rectangle 6744" width="7.186" height="12.433" transform="translate(1003.721 501.702)" fill="#adc9e0"/>
      <rect id="Rectangle_6745" data-name="Rectangle 6745" width="166.517" height="111.985" transform="translate(1162.168 506.107)" fill="#d5e7f7"/>
      <rect id="Rectangle_6746" data-name="Rectangle 6746" width="166.517" height="36.397" transform="translate(1162.168 491.476)" fill="#c4d9ed"/>
      <rect id="Rectangle_6747" data-name="Rectangle 6747" width="8.552" height="12.054" transform="translate(1308.795 538.66)" fill="#c4d9ed"/>
      <rect id="Rectangle_6748" data-name="Rectangle 6748" width="8.552" height="12.054" transform="translate(1292.803 538.66)" fill="#c4d9ed"/>
      <rect id="Rectangle_6749" data-name="Rectangle 6749" width="8.552" height="12.054" transform="translate(1277.168 538.66)" fill="#c4d9ed"/>
      <rect id="Rectangle_6750" data-name="Rectangle 6750" width="8.552" height="12.054" transform="translate(1262.345 538.66)" fill="#c4d9ed"/>
      <rect id="Rectangle_6751" data-name="Rectangle 6751" width="8.552" height="12.054" transform="translate(1247.236 538.66)" fill="#c4d9ed"/>
      <rect id="Rectangle_6752" data-name="Rectangle 6752" width="8.552" height="12.054" transform="translate(1231.956 538.66)" fill="#c4d9ed"/>
      <rect id="Rectangle_6753" data-name="Rectangle 6753" width="8.552" height="12.054" transform="translate(1215.963 538.66)" fill="#c4d9ed"/>
      <rect id="Rectangle_6754" data-name="Rectangle 6754" width="8.552" height="12.054" transform="translate(1200.329 538.66)" fill="#c4d9ed"/>
      <rect id="Rectangle_6755" data-name="Rectangle 6755" width="8.552" height="12.054" transform="translate(1185.505 538.66)" fill="#c4d9ed"/>
      <rect id="Rectangle_6756" data-name="Rectangle 6756" width="8.552" height="12.054" transform="translate(1170.397 538.66)" fill="#c4d9ed"/>
      <rect id="Rectangle_6757" data-name="Rectangle 6757" width="8.552" height="12.055" transform="translate(1308.795 559.931)" fill="#c4d9ed"/>
      <rect id="Rectangle_6758" data-name="Rectangle 6758" width="8.552" height="12.055" transform="translate(1292.803 559.931)" fill="#c4d9ed"/>
      <rect id="Rectangle_6759" data-name="Rectangle 6759" width="8.552" height="12.055" transform="translate(1277.168 559.931)" fill="#c4d9ed"/>
      <rect id="Rectangle_6760" data-name="Rectangle 6760" width="8.552" height="12.055" transform="translate(1262.345 559.931)" fill="#c4d9ed"/>
      <rect id="Rectangle_6761" data-name="Rectangle 6761" width="8.552" height="12.055" transform="translate(1247.236 559.931)" fill="#c4d9ed"/>
      <rect id="Rectangle_6762" data-name="Rectangle 6762" width="8.552" height="12.055" transform="translate(1231.956 559.931)" fill="#c4d9ed"/>
      <rect id="Rectangle_6763" data-name="Rectangle 6763" width="8.552" height="12.055" transform="translate(1215.963 559.931)" fill="#c4d9ed"/>
      <rect id="Rectangle_6764" data-name="Rectangle 6764" width="8.552" height="12.055" transform="translate(1200.329 559.931)" fill="#c4d9ed"/>
      <rect id="Rectangle_6765" data-name="Rectangle 6765" width="8.552" height="12.055" transform="translate(1185.505 559.931)" fill="#c4d9ed"/>
      <rect id="Rectangle_6766" data-name="Rectangle 6766" width="8.552" height="12.055" transform="translate(1170.397 559.931)" fill="#c4d9ed"/>
      <rect id="Rectangle_6767" data-name="Rectangle 6767" width="8.552" height="12.054" transform="translate(1308.795 580.877)" fill="#c4d9ed"/>
      <rect id="Rectangle_6768" data-name="Rectangle 6768" width="8.552" height="12.054" transform="translate(1292.803 580.877)" fill="#c4d9ed"/>
      <rect id="Rectangle_6769" data-name="Rectangle 6769" width="8.552" height="12.054" transform="translate(1277.168 580.877)" fill="#c4d9ed"/>
      <rect id="Rectangle_6770" data-name="Rectangle 6770" width="8.552" height="12.054" transform="translate(1262.345 580.877)" fill="#c4d9ed"/>
      <rect id="Rectangle_6771" data-name="Rectangle 6771" width="8.552" height="12.054" transform="translate(1247.236 580.877)" fill="#c4d9ed"/>
      <rect id="Rectangle_6772" data-name="Rectangle 6772" width="8.552" height="12.054" transform="translate(1231.956 580.877)" fill="#c4d9ed"/>
      <rect id="Rectangle_6773" data-name="Rectangle 6773" width="8.552" height="12.054" transform="translate(1215.963 580.877)" fill="#c4d9ed"/>
      <rect id="Rectangle_6774" data-name="Rectangle 6774" width="8.552" height="12.054" transform="translate(1200.329 580.877)" fill="#c4d9ed"/>
      <rect id="Rectangle_6775" data-name="Rectangle 6775" width="8.552" height="12.054" transform="translate(1185.505 580.877)" fill="#c4d9ed"/>
      <rect id="Rectangle_6776" data-name="Rectangle 6776" width="8.552" height="12.054" transform="translate(1170.397 580.877)" fill="#c4d9ed"/>
      <rect id="Rectangle_6777" data-name="Rectangle 6777" width="7.187" height="12.433" transform="translate(1308.795 501.701)" fill="#adc9e0"/>
      <rect id="Rectangle_6778" data-name="Rectangle 6778" width="7.186" height="12.433" transform="translate(1237.449 501.701)" fill="#adc9e0"/>
      <rect id="Rectangle_6779" data-name="Rectangle 6779" width="7.187" height="12.433" transform="translate(1180.695 501.701)" fill="#adc9e0"/>
      <rect id="Rectangle_6780" data-name="Rectangle 6780" width="166.517" height="111.985" transform="translate(1339.535 506.107)" fill="#d5e7f7"/>
      <rect id="Rectangle_6781" data-name="Rectangle 6781" width="166.517" height="36.397" transform="translate(1339.535 491.476)" fill="#c4d9ed"/>
      <rect id="Rectangle_6782" data-name="Rectangle 6782" width="8.552" height="12.054" transform="translate(1486.161 538.66)" fill="#c4d9ed"/>
      <rect id="Rectangle_6783" data-name="Rectangle 6783" width="8.552" height="12.054" transform="translate(1470.169 538.66)" fill="#c4d9ed"/>
      <rect id="Rectangle_6784" data-name="Rectangle 6784" width="8.552" height="12.054" transform="translate(1454.535 538.66)" fill="#c4d9ed"/>
      <rect id="Rectangle_6785" data-name="Rectangle 6785" width="8.552" height="12.054" transform="translate(1439.711 538.66)" fill="#c4d9ed"/>
      <rect id="Rectangle_6786" data-name="Rectangle 6786" width="8.552" height="12.054" transform="translate(1424.602 538.66)" fill="#c4d9ed"/>
      <rect id="Rectangle_6787" data-name="Rectangle 6787" width="8.552" height="12.054" transform="translate(1409.321 538.66)" fill="#c4d9ed"/>
      <rect id="Rectangle_6788" data-name="Rectangle 6788" width="8.552" height="12.054" transform="translate(1393.329 538.66)" fill="#c4d9ed"/>
      <rect id="Rectangle_6789" data-name="Rectangle 6789" width="8.552" height="12.054" transform="translate(1377.695 538.66)" fill="#c4d9ed"/>
      <rect id="Rectangle_6790" data-name="Rectangle 6790" width="8.552" height="12.054" transform="translate(1362.871 538.66)" fill="#c4d9ed"/>
      <rect id="Rectangle_6791" data-name="Rectangle 6791" width="8.552" height="12.054" transform="translate(1347.763 538.66)" fill="#c4d9ed"/>
      <rect id="Rectangle_6792" data-name="Rectangle 6792" width="8.552" height="12.055" transform="translate(1486.161 559.931)" fill="#c4d9ed"/>
      <rect id="Rectangle_6793" data-name="Rectangle 6793" width="8.552" height="12.055" transform="translate(1470.169 559.931)" fill="#c4d9ed"/>
      <rect id="Rectangle_6794" data-name="Rectangle 6794" width="8.552" height="12.055" transform="translate(1454.535 559.931)" fill="#c4d9ed"/>
      <rect id="Rectangle_6795" data-name="Rectangle 6795" width="8.552" height="12.055" transform="translate(1439.711 559.931)" fill="#c4d9ed"/>
      <rect id="Rectangle_6796" data-name="Rectangle 6796" width="8.552" height="12.055" transform="translate(1424.602 559.931)" fill="#c4d9ed"/>
      <rect id="Rectangle_6797" data-name="Rectangle 6797" width="8.552" height="12.055" transform="translate(1409.321 559.931)" fill="#c4d9ed"/>
      <rect id="Rectangle_6798" data-name="Rectangle 6798" width="8.552" height="12.055" transform="translate(1393.329 559.931)" fill="#c4d9ed"/>
      <rect id="Rectangle_6799" data-name="Rectangle 6799" width="8.552" height="12.055" transform="translate(1377.695 559.931)" fill="#c4d9ed"/>
      <rect id="Rectangle_6800" data-name="Rectangle 6800" width="8.552" height="12.055" transform="translate(1362.871 559.931)" fill="#c4d9ed"/>
      <rect id="Rectangle_6801" data-name="Rectangle 6801" width="8.552" height="12.055" transform="translate(1347.763 559.931)" fill="#c4d9ed"/>
      <rect id="Rectangle_6802" data-name="Rectangle 6802" width="8.552" height="12.054" transform="translate(1486.161 580.877)" fill="#c4d9ed"/>
      <rect id="Rectangle_6803" data-name="Rectangle 6803" width="8.552" height="12.054" transform="translate(1470.169 580.877)" fill="#c4d9ed"/>
      <rect id="Rectangle_6804" data-name="Rectangle 6804" width="8.552" height="12.054" transform="translate(1454.535 580.877)" fill="#c4d9ed"/>
      <rect id="Rectangle_6805" data-name="Rectangle 6805" width="8.552" height="12.054" transform="translate(1439.711 580.877)" fill="#c4d9ed"/>
      <rect id="Rectangle_6806" data-name="Rectangle 6806" width="8.552" height="12.054" transform="translate(1424.602 580.877)" fill="#c4d9ed"/>
      <rect id="Rectangle_6807" data-name="Rectangle 6807" width="8.552" height="12.054" transform="translate(1409.321 580.877)" fill="#c4d9ed"/>
      <rect id="Rectangle_6808" data-name="Rectangle 6808" width="8.552" height="12.054" transform="translate(1393.329 580.877)" fill="#c4d9ed"/>
      <rect id="Rectangle_6809" data-name="Rectangle 6809" width="8.552" height="12.054" transform="translate(1377.695 580.877)" fill="#c4d9ed"/>
      <rect id="Rectangle_6810" data-name="Rectangle 6810" width="8.552" height="12.054" transform="translate(1362.871 580.877)" fill="#c4d9ed"/>
      <rect id="Rectangle_6811" data-name="Rectangle 6811" width="8.552" height="12.054" transform="translate(1347.763 580.877)" fill="#c4d9ed"/>
      <rect id="Rectangle_6812" data-name="Rectangle 6812" width="7.186" height="12.433" transform="translate(1486.161 501.701)" fill="#adc9e0"/>
      <rect id="Rectangle_6813" data-name="Rectangle 6813" width="7.186" height="12.433" transform="translate(1414.816 501.701)" fill="#adc9e0"/>
      <rect id="Rectangle_6814" data-name="Rectangle 6814" width="7.186" height="12.433" transform="translate(1358.061 501.701)" fill="#adc9e0"/>
      <path id="Path_14711" data-name="Path 14711" d="M717.843,1396.818c.03.03.043.047.043.047h2.287a4.034,4.034,0,0,0-.605-.047Z" transform="translate(-401.495 -781.252)" fill="#2e3552"/>
      <path id="Path_14712" data-name="Path 14712" d="M1484.8,901.994c-.089-.012-.214-.031-.366-.059.121.015.245.035.366.059" transform="translate(-830.256 -504.46)" fill="#7dabbd"/>
      <path id="Path_14713" data-name="Path 14713" d="M748.354,1396.818c-.03.03-.043.047-.043.047h-2.287a4.034,4.034,0,0,1,.605-.047Z" transform="translate(-417.257 -781.252)" fill="#2e3552"/>
      <path id="Path_14714" data-name="Path 14714" d="M3480.65,1385.815c2.194-3.619,2.455-7.274-.535-10.639-7.147-8.04-27.3,1.905-41.6,10.639Z" transform="translate(-1923.189 -767.491)" fill="#a8d29f"/>
      <path id="Path_14715" data-name="Path 14715" d="M3350.3,1332.338c13.592-15.224,35.122-43.134,21.276-53.9-14.1-10.967-42.571,29.878-57.2,53.242,1-18.25-.418-42.519-15.966-36.992-16.134,5.737-2.795,23.119,6.77,37.652Z" transform="translate(-1840.603 -714.014)" fill="#a8d29f"/>
      <path id="Path_14716" data-name="Path 14716" d="M754.867,1022.44c-44.231-.9-71.389-25.411-97.3-46.245,37.438-18.108,82.624-40.879,59.573-57.341-21.7-15.5-53.658,16.406-76.023,44.86q-3.143-2.175-6.337-4.151c9.5-26.743,14.46-54.8-3.886-59.727-17.518-4.7-22.717,20.7-23.381,48.444-48.26-9.976-87.67-6.325-129.75,6.673-42.286,13.062-102.566-83.45-226.724-72.566a117.428,117.428,0,0,0-34.8,8.117c-.438-34.3-6.784-78.735-36.725-78.8-48.774-.1,3.615,59.353,10.248,73.858,2.746,6.006,4.958,11.373,6.738,16.143a84.325,84.325,0,0,0-9.964,8.84c-5.891-21.6-15.182-43.911-28.654-45.65-26.611-3.434-43.994,30.044-22.533,41.2,10.23,5.32,24.214,16,36.05,25.729-26.388,50.9-9.34,124.347,4.395,139.278l672.009-.161s-21.853-47.059-92.929-48.51" transform="translate(-70.305 -453.996)" fill="#acd29a"/>
      <path id="Path_14784" data-name="Path 14784" d="M218.629,1022.44c44.231-.9,71.39-25.411,97.3-46.245-37.438-18.108-82.624-40.879-59.573-57.341,21.7-15.5,53.658,16.406,76.023,44.86q3.143-2.175,6.337-4.151c-9.5-26.743-14.46-54.8,3.886-59.727,17.518-4.7,22.717,20.7,23.381,48.444,48.26-9.976,87.67-6.325,129.75,6.673,42.286,13.062,102.566-83.45,226.724-72.566a117.428,117.428,0,0,1,34.8,8.117c.438-34.3,6.784-78.735,36.725-78.8,48.774-.1-3.615,59.353-10.248,73.858-2.746,6.006-4.958,11.373-6.738,16.143a84.329,84.329,0,0,1,9.964,8.84c5.891-21.6,15.182-43.911,28.654-45.65,26.611-3.434,43.994,30.044,22.533,41.2-10.23,5.32-24.214,16-36.05,25.729,26.388,50.9,9.34,124.347-4.395,139.278L125.7,1070.95s21.853-47.059,92.929-48.51" transform="translate(662.407 -453.996)" fill="#acd29a"/>
      <path id="Path_14717" data-name="Path 14717" d="M112.52,1350.219s11.484-31.761,65.375-23.177,77.743,2.575,104.246-4.292,37.883-7.212,63.114,1.973,34.065,28.071,116.226,9.186,121.032-34.337,172.271-19.744,114.368-12.094,177.573,12.876,162.933-28.44,212.405,13.622Z" transform="translate(-62.933 -723.793)" fill="#88b374"/>
      <path id="Path_14718" data-name="Path 14718" d="M706.571,435.374c-.068-.926-1.16-10.886-16.391-10.837,0,0,7.513.611,8.929,3.852,0,0-5.246-3.873-9.344-2.41s-6.263,8.821-6.2,11.212,2.658,10.01,5.316,10.566a8.034,8.034,0,0,0,3.188-.115,35.911,35.911,0,0,0-1.906,3.724c-5.6,12.688,1.114,24.63,6.2,23.093,3.264-.987,4.407,4.6,4.407,4.6l31.047-27.122s-12.673-23.894-25.249-16.564" transform="translate(-382.323 -237.447)" fill="#2c3a64"/>
      <path id="Path_14719" data-name="Path 14719" d="M663.592,820.955s5.719,11.9,12.948,28.384c8.108,18.487,18.109,42.75,24.066,62.476,3.15,10.433,5.172,19.6,5.178,25.967,0,2.186-8.429,11.066-10.862,14.452-15.362,21.38-36.344,49.93-36.344,49.93l-5.727-1.437s8.022-35.709,19.709-53.536c2.3-3.5,8.773-7.773,8.465-8.158a.034.034,0,0,0-.012-.011c-1.009-1.264-3.526-4.434-6.958-8.953-9.474-12.467-25.922-35.187-36.937-56.322q-1.029-1.977-1.994-3.934c-5.807-11.8-9.64-22.849-9.265-31.041Z" transform="translate(-350.034 -459.167)" fill="#c0783d"/>
      <path id="Path_14720" data-name="Path 14720" d="M672.541,1215.069l3.941,2.494c1.452.627,2.668.862,4.135,1.542,2.227,1.031,2.64,2.473,2.706,2.786a.6.6,0,0,1,.012.063l16.743,10.594c.8-.335,1.279-1.984,1.531-3.26a2.819,2.819,0,0,0-.661-2.425c-1.45-1.637-4.66-4.31-6.03-9.24-.773-2.77-4.917-11.5-4.917-11.5l-.031-.032c-.153-.093-1.016-.328-5.834.337-2.489.34-3.168-4.711-3.168-4.711a4.674,4.674,0,0,0-1.686.656,4.925,4.925,0,0,0-1.986,2.343c-.7,1.667-3.284,3.96-5.128,5.449-1.117.9-1.962,1.509-1.962,1.509s-.787.828,2.335,3.4" transform="translate(-374.802 -672.129)" fill="#b84c42"/>
      <path id="Path_14721" data-name="Path 14721" d="M690.911,1202.371c.522,1.259,1.681,3.822,2.89,4.826,1.631,1.358,7.829-1.077,7.829-1.077l-.031-.032c-.153-.093-1.016-.328-5.834.337-2.489.341-3.168-4.711-3.168-4.711a4.662,4.662,0,0,0-1.686.656" transform="translate(-386.432 -672.129)" fill="#aa3e39"/>
      <path id="Path_14722" data-name="Path 14722" d="M672.541,1225.792l3.941,2.494c1.452.627,2.668.862,4.135,1.542,2.227,1.031,2.64,2.473,2.706,2.786a.6.6,0,0,1,.012.063l16.743,10.594c.8-.335,1.279-1.984,1.531-3.26-.222-.774-1.894,1.551-2.419,1.758s-13.747-8.5-14.164-9.552a9.564,9.564,0,0,0-5.832-4.772c-3.237-1.108-6.29-5.451-7.026-6.558-1.117.9-1.962,1.509-1.962,1.509s-.787.827,2.335,3.4" transform="translate(-374.802 -682.852)" fill="#aa3e39"/>
      <path id="Path_14723" data-name="Path 14723" d="M677.971,943.2l-8.09-10.78-1.407.951-.012-.013-.022.036-100.473,67.93-22.4-70.062-7.583,2.424,23.11,72.285-88.058,59.536,106.139,9.229.689-7.931-83.761-7.284,68.16-43.637,18.689,58.457,7.583-2.424-2.14-6.692,5.084,3.28ZM571.2,1011.443l80.815-51.74L587.633,1062.84Z" transform="translate(-264.572 -520.863)" fill="#d8716b"/>
      <path id="Path_14724" data-name="Path 14724" d="M507.955,1021.957a3.98,3.98,0,0,1-3.378-.349c-35.8-21.631-85.337-13.5-99.666-10.494l-.024,0a1.271,1.271,0,0,1-1.532-1.243v-2.8a4.318,4.318,0,0,1,3.682-4.272c7.752-1.154,25.861-3.632,35.979-3.676l.819,0c22.663,0,42.235,4.056,58.318,12.072a13.572,13.572,0,0,0,10.552.651l4.413-1.551a4.837,4.837,0,0,1,6.167,2.961,3.124,3.124,0,0,1-1.912,3.983Z" transform="translate(-225.6 -558.82)" fill="#b84c42"/>
      <path id="Path_14725" data-name="Path 14725" d="M564.888,918.343s-1.437-6.524,2.654-6.967,19.019,2.765,23,2.323,24.77-3.87,28.419-.332,2.1,6.635-5.2,7.3-17.029,1.879-19.794,4.2-22.779,9.178-29.082-6.524" transform="translate(-315.809 -509.717)" fill="#415da5"/>
      <path id="Path_14726" data-name="Path 14726" d="M738.623,1208.357l-14.939-8.625a3.686,3.686,0,1,0-3.686,6.384l1.842,1.063-1.774,1.963a19.892,19.892,0,1,0,1.518,1.754l2.3-2.54,11.058,6.384a3.686,3.686,0,0,0,3.686-6.384" transform="translate(-383.625 -670.745)" fill="#415da5"/>
      <path id="Path_14727" data-name="Path 14727" d="M468.873,1128.421l-.293-1.745L402.1,1137.828l2.538-3.627.789.263.884-2.653,35.86-51.23-1.449-1.014-32.448,46.354,17.5-52.5-1.679-.56-19.381,58.143-4.113,5.876-.726-.5-.054-.15,1.229-1.239v-67.154h-1.769v65.74l-.438-.075-1.671-4.656.123-.107-.275-.317L378.3,1076.236l-1.665.6,17.189,47.9-34.56-39.785-1.336,1.16,37.545,43.221,1.373,3.827-9.6-1.65-50.37-25.535-.8,1.579,45.248,22.938-50.448-8.676-.3,1.743,56.106,9.649,9.085,4.606-1.16,1.17-63.127,9.367.26,1.75,60.787-9.02-.5.507-55.013,23.633.7,1.626,50.989-21.9-40.024,40.372,1.256,1.246,43.107-43.482,4.847-2.082-34.732,54.64,1.493.95,31.614-49.734c-6.767,17.813-22.231,58.535-22.585,59.6l1.679.56c.335-1.005,15.951-42.136,24.843-65.538l1.245,3.061-5.251,63.45,1.763.146,4.963-59.969c9.323,22.924,22.611,55.64,22.952,56.639l1.678-.561c-.347-1.04-15.556-38.461-22.814-56.308l32.727,51.753,1.5-.946-37.278-58.95,55.488,38.477,1.008-1.454-54.1-37.513Zm-71.479,6.625-.823,1.187-3.968-2.011Z" transform="translate(-184.893 -597.25)" fill="#415da5"/>
      <path id="Path_14728" data-name="Path 14728" d="M458.884,1212.869a13.048,13.048,0,1,1,13.048,13.048,13.048,13.048,0,0,1-13.048-13.048" transform="translate(-256.657 -671.07)" fill="#2c3a64"/>
      <path id="Path_14729" data-name="Path 14729" d="M391.376,1208.833a76.491,76.491,0,1,1,38.714-10.5,76.607,76.607,0,0,1-38.714,10.5m0-142.425a65.923,65.923,0,1,0,65.9,65.9,65.979,65.979,0,0,0-65.9-65.9" transform="translate(-176.101 -590.513)" fill="#2c3a64"/>
      <path id="Path_14730" data-name="Path 14730" d="M404.279,1212.315a67.4,67.4,0,1,1,67.4-67.4,67.478,67.478,0,0,1-67.4,67.4m0-132.082a64.68,64.68,0,1,0,64.68,64.68,64.753,64.753,0,0,0-64.68-64.68" transform="translate(-188.418 -602.662)" fill="#b84c42"/>
      <path id="Path_14731" data-name="Path 14731" d="M765.53,612.048s-10.816,6.087-9.543,21.5,15.419,39.713,26.173,45.743c8.518,4.777,33.156,12.233,33.156,12.233l.886-6.691s-20.048-13.09-24.385-17.56c-9.3-9.59-18.162-58.954-26.287-55.226" transform="translate(-422.771 -342.212)" fill="#c0783d"/>
      <path id="Path_14732" data-name="Path 14732" d="M680.9,607.348a39.8,39.8,0,0,1-2.538,9.31c-.942,2.382-2.032,4.652-3.153,7.017-3.284,6.952-11.024,10.375-11.285,23.739-.089,4.6-3.927,14.967-1.754,22.478,10.7,37.02-59.314,3.358-55.523-6.477,7.536-19.544,18.3-30.843,18.074-46.939a.653.653,0,0,0-.013-.124c-.068-.78-.174-2.869-.293-5.631-.292-6.756-.673-17.532-.811-22.987,0-.128-.005-.253-.01-.373-.056-2.337-.128-4.027-.219-4.471,5.2-22.149,17.182-22.244,21.27-22.175,1.515.025,3.106.125,4.414.235,2.568-1.462,7.013-8.274,9.317-19.478l.933.4,15.7,6.673s-1.452,5.078-2.48,9.93c-.8,3.793-1.343,7.447-.738,8.445,1.235.448,1.973.731,1.973.731a.053.053,0,0,0,0,.015c.276.624,9.641,22.071,7.134,39.687" transform="translate(-339.22 -302.85)" fill="#ce8e55"/>
      <path id="Path_14733" data-name="Path 14733" d="M701.1,704.544c-.942,2.381-2.032,4.652-3.153,7.017-3.284,6.952-11.024,10.375-11.286,23.739-.236.025-.477.045-.721.067-28.711,2.243-38.5-31.13-38.5-31.13-.068-.78-.174-2.869-.293-5.631l51.81.085a52.353,52.353,0,0,1,2.138,5.854" transform="translate(-361.959 -390.737)" fill="#c0783d"/>
      <path id="Path_14734" data-name="Path 14734" d="M742.038,549.046s-1.452,5.076-2.48,9.929c-9.111-2.178-12.2-11.553-13.219-16.6Z" transform="translate(-406.247 -303.354)" fill="#c0783d"/>
      <path id="Path_14735" data-name="Path 14735" d="M701.041,609.086c-.865-2.3-5.066-11.125-5.066-11.125s-3.385-2.893-12.67-6.14a.053.053,0,0,0,0,.015c.167.531,4.586,14.482,3.28,17.543-1.33,3.116-29.025-5.741-30.6-7.939-1.265-1.762-1.658-11.327-1.763-15.059-.027-.925-.036-1.493-.036-1.493s-10.255-1-15.9,1.538a44.253,44.253,0,0,1,3.485,10.228c.1.51.182,1.024.252,1.539a20.88,20.88,0,0,1,.2,3.253c-.058,2.714-2.512,4.919-5.808,7.518-1.028.809-2.141,1.656-3.285,2.57,0,.12,0,.245.01.373.195,7.686.838,22.477,1.075,25.164.005.043-.364,5.327-.358,5.37,4.89-.234-18.641,30.954-7.062,32.391,3.738.463,10.105,10.746,44.81,7.7,4.361-.383,9.506-28.277,11.833-30.784.108-.116,4.339-9.384,4.475-9.307,0,0,1.813-4.273,6.789-16.137.178-.431.341-.857.485-1.287,1.583-4.725,1.082-9.5.32-13.758a9.557,9.557,0,0,1,5.529-2.174" transform="translate(-348.761 -327.025)" fill="#739cf3"/>
      <path id="Path_14736" data-name="Path 14736" d="M742.36,519.868s-21.758-4.184-18.944-17.693,1.9-23.148,15.912-21.048,15.628,7.815,15.785,12.553-7.02,26.928-12.753,26.188" transform="translate(-404.471 -268.938)" fill="#ce8e55"/>
      <path id="Path_14737" data-name="Path 14737" d="M697.321,678.882c-.135-.077-.275-.153-.413-.23a48.287,48.287,0,0,0-11.577-4.294,94.039,94.039,0,0,0-11.072-2,172.4,172.4,0,0,0-27.84-.905c-.006-.043-.007-.082-.013-.125-.237-2.687-.909-20.932-1.1-28.617,0-.128-.005-.252-.01-.373,1.145-.914,2.257-1.761,3.285-2.571,14.1,6.845,40.627,21.583,48.744,39.115" transform="translate(-360.917 -357.827)" fill="#6488d3"/>
      <path id="Path_14738" data-name="Path 14738" d="M748.689,482.8c-2.5-4.765-5.221-4.4-6.9-3.479-10.487-9-20.142-.964-20.142-.964a26.361,26.361,0,0,1-11.631,13.476s3.441,3.269,13.043,2.834a15.821,15.821,0,0,0,8.447-3.547,51.685,51.685,0,0,1-10.933,8.81c11.937-2.751,19.477-16.973,20.248-18.482,1.075,1.466,3.143,4.595,3.409,7.292.36,3.666-.636,10.848,1.478,11.039,0,0,6.729-9.834,2.978-16.979" transform="translate(-397.12 -265.703)" fill="#2c3a64"/>
      <path id="Path_14739" data-name="Path 14739" d="M722.863,678.49l-1.563,6.674s-36.507-4.986-48.441-11.932-30-47.775-31.428-65.037q-.116-1.373-.145-2.621c-.434-14.906,6.907-17.224,6.907-17.224,2.938-1.348,6.59,3.691,10.457,11.562,8.114,16.51,17.18,45.49,22.569,54.07,4.138,6.588,41.644,24.51,41.644,24.51" transform="translate(-358.666 -328.947)" fill="#ce8e55"/>
      <path id="Path_14740" data-name="Path 14740" d="M658.651,599.91c-10.011-2.36-17.364,5.663-17.364,5.663-.434-14.907,6.907-17.225,6.907-17.225,2.938-1.347,6.59,3.691,10.457,11.562" transform="translate(-358.666 -328.947)" fill="#739cf3"/>
      <path id="Path_14741" data-name="Path 14741" d="M597.391,820.9s-16.185,25.656,3.815,39.767,87.335,20.861,84.033,23.6c-10.1,8.372-19.274,21.249-18.791,98.345l4.99,2.575s48.018-104.459,44.8-116.906c-2.131-8.241-72.166-52.842-118.846-47.379" transform="translate(-330.667 -458.879)" fill="#ce8e55"/>
      <path id="Path_14742" data-name="Path 14742" d="M633.515,852.426s-39.26-7.3-45.009-21.163c-3.938-9.493-4.075-15.148,14.416-49.914,0,0,7.566,14.574,47.895,11.174,0,0-.047,2.011-.047,4.586.052,4.275.721,10.352,4.069,12.1.052.051.154.051.206.1,5.305,2.421,13.523,7.3,14.759,7.768.052,0-24.751,4.747-36.288,35.342" transform="translate(-327.966 -437.015)" fill="#35488b"/>
      <path id="Path_14743" data-name="Path 14743" d="M692.567,829.216c-17.975-5.305-38.732-6.542-38.732-6.7,15.246-3.915,26.422-5.408,34.663-5.408.052,4.274.721,10.352,4.069,12.1" transform="translate(-365.695 -457.018)" fill="#2c3a64"/>
      <path id="Path_14744" data-name="Path 14744" d="M743.085,1178.846l4.2,2.02c1.516.454,2.751.546,4.286,1.051,2.332.766,2.909,2.15,3.01,2.453a.614.614,0,0,1,.019.061l17.859,8.579c.758-.426,1.04-2.12,1.142-3.416a2.816,2.816,0,0,0-.938-2.331c-1.63-1.458-5.129-3.74-7.061-8.478-1.089-2.662-6.219-10.853-6.219-10.853l-.035-.027c-.163-.075-1.047-.208-5.756,1.011-2.433.628-3.693-4.311-3.693-4.311a4.665,4.665,0,0,0-1.6.847,4.924,4.924,0,0,0-1.7,2.557c-.506,1.737-2.8,4.315-4.461,6.008-1.005,1.026-1.773,1.726-1.773,1.726s-.686.913,2.714,3.1" transform="translate(-414.063 -651.373)" fill="#b84c42"/>
      <path id="Path_14745" data-name="Path 14745" d="M758.447,1165.451c.664,1.189,2.113,3.6,3.431,4.458,1.777,1.16,7.651-1.978,7.651-1.978l-.035-.028c-.163-.074-1.047-.208-5.756,1.011-2.433.628-3.693-4.311-3.693-4.311a4.667,4.667,0,0,0-1.6.848" transform="translate(-424.205 -651.372)" fill="#aa3e39"/>
      <path id="Path_14746" data-name="Path 14746" d="M743.085,1190.792l4.2,2.02c1.516.454,2.751.547,4.286,1.052,2.332.766,2.909,2.15,3.01,2.453a.62.62,0,0,1,.019.061l17.859,8.579c.758-.426,1.04-2.119,1.142-3.416-.31-.743-1.7,1.76-2.2,2.027s-14.641-6.848-15.177-7.844a9.559,9.559,0,0,0-6.346-4.062c-3.343-.725-6.881-4.685-7.74-5.7-1.005,1.025-1.773,1.726-1.773,1.726s-.686.913,2.714,3.1" transform="translate(-414.063 -663.319)" fill="#aa3e39"/>
      <path id="Path_14747" data-name="Path 14747" d="M919.354,900.279a7.689,7.689,0,0,0-6.682-4.824c-33.033-75.889-33.388-76.484-33.887-77.3l-4.777,9.463c-.253-.414,18.036,40.24,31.089,70.041a1.9,1.9,0,0,0-1.014,2.566l44.634,95.519,7.372-3.008Z" transform="translate(-488.838 -457.601)" fill="#b84c42"/>
      <path id="Path_14748" data-name="Path 14748" d="M878.47,782.273a9.968,9.968,0,0,0-19.513,2.378L814.526,795.8a9.972,9.972,0,1,0,1.364,11.634L866.4,794.759a9.97,9.97,0,0,0,12.071-12.487" transform="translate(-445.896 -433.544)" fill="#415da5"/>
      <path id="Path_14749" data-name="Path 14749" d="M824.436,793.169s6.911,3.556,9.329,3.418a28.2,28.2,0,0,1,8.772,1.449,8.543,8.543,0,0,1,5.633,7.646s-.023,1.775-8.128-.724c-1.772-.546-6.036.483-7.484,0s-7.138-4.6-9.685-5.114Z" transform="translate(-460.239 -443.626)" fill="#ce8e55"/>
      <path id="Path_14750" data-name="Path 14750" d="M889.824,777.465s5.466,3.579,9.328,3.418a30.212,30.212,0,0,1,8.772,1.449,8.542,8.542,0,0,1,5.633,7.646s-.111,2.515-8.128-.724c-2.2-.889-6.036.483-7.485,0s-6.757-4.557-10.433-5.566Z" transform="translate(-496.393 -434.843)" fill="#c0783d"/>
      <path id="Path_14751" data-name="Path 14751" d="M1035.112,1128.421l-.293-1.745-66.477,11.151,2.538-3.627.788.263.884-2.653,35.861-51.23-1.45-1.014-32.447,46.354,17.5-52.5-1.679-.56-19.381,58.143-4.114,5.876-.726-.5-.054-.15,1.229-1.239v-67.154h-1.769v65.74l-.439-.075-1.671-4.656.123-.107-.275-.317-18.727-52.185-1.665.6,17.189,47.9-34.56-39.785-1.336,1.16,37.545,43.221,1.373,3.827-9.6-1.65-50.37-25.535-.8,1.579,45.248,22.938-50.448-8.676-.3,1.743,56.106,9.649,9.085,4.606-1.16,1.17-63.126,9.367.26,1.75,60.787-9.02-.5.507-55.013,23.633.7,1.626,50.99-21.9-40.025,40.373,1.256,1.246,43.108-43.482,4.847-2.082-34.732,54.64,1.493.95,31.614-49.734c-6.767,17.813-22.231,58.535-22.584,59.6l1.678.56c.335-1.005,15.951-42.136,24.843-65.538l1.245,3.061-5.251,63.45,1.763.146,4.963-59.969c9.323,22.924,22.612,55.64,22.952,56.639l1.678-.561c-.346-1.04-15.555-38.461-22.813-56.308l32.727,51.753,1.5-.946-37.278-58.95,55.488,38.477,1.008-1.454-54.1-37.513Zm-71.479,6.625-.823,1.187-3.968-2.011Z" transform="translate(-501.595 -597.25)" fill="#415da5"/>
      <path id="Path_14752" data-name="Path 14752" d="M1025.123,1212.869a13.048,13.048,0,1,1,13.048,13.048,13.048,13.048,0,0,1-13.048-13.048" transform="translate(-573.359 -671.07)" fill="#2c3a64"/>
      <path id="Path_14753" data-name="Path 14753" d="M957.614,1208.833a76.491,76.491,0,1,1,38.714-10.5,76.607,76.607,0,0,1-38.714,10.5m0-142.425a65.923,65.923,0,1,0,65.9,65.9,65.979,65.979,0,0,0-65.9-65.9" transform="translate(-492.803 -590.513)" fill="#2c3a64"/>
      <path id="Path_14754" data-name="Path 14754" d="M970.518,1212.315a67.4,67.4,0,1,1,67.4-67.4,67.477,67.477,0,0,1-67.4,67.4m0-132.082a64.68,64.68,0,1,0,64.68,64.68,64.753,64.753,0,0,0-64.68-64.68" transform="translate(-505.12 -602.662)" fill="#b84c42"/>
      <path id="Path_14755" data-name="Path 14755" d="M1678.362,1114.124l-6.6-1.288s15.774-62.38,13.61-67.53c-1.751-4.275-19.932-7.365-28.843-14.834a14.078,14.078,0,0,1-4.172-5.357,19.955,19.955,0,0,1,2.988-20.19,208.687,208.687,0,0,1,30.851,9.992c10.456,4.481,20.139,10.3,22.817,17.048,6.438,16.327-30.652,82.157-30.652,82.157" transform="translate(-923.317 -562.064)" fill="#c0783d"/>
      <path id="Path_14756" data-name="Path 14756" d="M1717.1,1255.083a2.243,2.243,0,0,0-1.173-1.583c-1.569-.865-4.782-2.1-7.188-5.317-1.354-1.8-6.945-7.144-6.945-7.144l-.033-.016c-.145-.035-.875-.026-4.421,1.425-1.833.748-3.737-2.691-3.737-2.691a3.5,3.5,0,0,0-1.125.807,3.226,3.226,0,0,0-.9,2.063c-.09,1.324-1.459,3.473-2.479,4.9-.618.866-1.105,1.467-1.105,1.467s-.383.747,2.735,1.931l3.729.964c1.294.149,2.3.068,3.619.251a3.889,3.889,0,0,1,2.854,1.422c.018.027.026.042.026.042l15.844,4.1c.529-.4.448-1.665.294-2.62" transform="translate(-944.103 -693.407)" fill="#415da5"/>
      <path id="Path_14757" data-name="Path 14757" d="M1682.1,1058.531l-6.67-6.9.588-1.2-1.059.715-.009-.01-.017.027-75.545,51.076-16.842-52.679-5.7,1.823,17.376,54.35-66.21,44.765,79.806,6.939.518-5.963-62.98-5.477,51.249-32.811,14.053,43.954,5.7-1.822-1.609-5.032,3.823,2.466Zm-80.28,51.311,60.765-38.9-48.41,77.548Z" transform="translate(-854.63 -587.025)" fill="#739cf3"/>
      <path id="Path_14758" data-name="Path 14758" d="M1853.6,1037.7a5.8,5.8,0,0,0-6.909-3.451c-8.722-22.632-11.623-30.079-12.662-32.641l7.1-4.518a6.07,6.07,0,1,0-6.279-4.385l-14.113,8.981a6.078,6.078,0,1,0,2.885,6.544l5.316-3.383c1.9,4.733,8.385,20.668,12.537,31.444l34.2,73.188,5.542-2.261Z" transform="translate(-1013.258 -550.903)" fill="#415da5"/>
      <path id="Path_14759" data-name="Path 14759" d="M1491.092,1205.537c0-.325-.017-.647-.047-.964l41.9-7.027-.22-1.312-41.9,7.028a9.811,9.811,0,0,0-3.386-5.361l25.428-36.326-1.09-.762-24.4,34.853,13.157-39.472-1.262-.421-13.655,40.964a9.738,9.738,0,0,0-3.673-.986v-43.759h-1.331v43.759a9.757,9.757,0,0,0-2.2.4l-13.58-37.844-1.252.449,12.924,36.016-25.986-29.914-1,.872,27.085,31.18a9.858,9.858,0,0,0-3.506,3.217l-1.532-.263-37.873-19.2-.6,1.187,34.022,17.247-37.932-6.523-.225,1.31,42.186,7.255,1.107.561a9.785,9.785,0,0,0-.777,3.834c0,.262.013.521.033.778l-41.869,6.213.2,1.316,41.867-6.213a9.8,9.8,0,0,0,.328,1.158l-38.232,16.423.525,1.222,38.233-16.424.021.041-30.009,30.269.944.937,29.779-30.039a9.87,9.87,0,0,0,2.183,2.22l-22.02,34.642,1.122.714,22.02-34.64c.193.1.392.2.592.294-5.5,14.484-15.575,41.019-15.822,41.76l1.262.421c.219-.656,9.091-24.038,15.8-41.706a9.8,9.8,0,0,0,2.855.424c.164,0,.326,0,.487-.013l-3.478,42.028,1.326.11,3.5-42.3a9.737,9.737,0,0,0,1.237-.319c6.921,17.021,16.008,39.4,16.252,40.115l1.262-.421c-.248-.743-10.567-26.141-16.281-40.193.123-.06.245-.123.365-.187l23.369,36.955,1.125-.711-23.37-36.958a9.859,9.859,0,0,0,2.378-2.488l34.684,24.051.758-1.093-34.779-24.117a9.768,9.768,0,0,0,.976-4.27" transform="translate(-799.225 -644.319)" fill="#415da5"/>
      <path id="Path_14760" data-name="Path 14760" d="M1474.671,1258.008a57.514,57.514,0,1,1,29.109-7.9,57.6,57.6,0,0,1-29.109,7.9m0-107.089a49.567,49.567,0,1,0,49.554,49.554,49.61,49.61,0,0,0-49.554-49.554" transform="translate(-792.615 -639.254)" fill="#2c3a64"/>
      <path id="Path_14761" data-name="Path 14761" d="M1911.188,1205.537c0-.325-.017-.647-.048-.964l41.9-7.027-.22-1.312-41.9,7.028a9.812,9.812,0,0,0-3.386-5.361l25.427-36.326-1.09-.762-24.4,34.853,13.157-39.472-1.262-.421-13.654,40.964a9.743,9.743,0,0,0-3.674-.986v-43.759h-1.33v43.759a9.758,9.758,0,0,0-2.2.4l-13.58-37.844-1.252.449,12.924,36.016-25.986-29.914-1,.872,27.086,31.18a9.86,9.86,0,0,0-3.506,3.217l-1.532-.263-37.873-19.2-.6,1.187,34.022,17.247-37.932-6.523-.226,1.31,42.186,7.255,1.107.561a9.779,9.779,0,0,0-.778,3.834c0,.262.014.521.034.778l-41.869,6.213.2,1.316,41.867-6.213a9.71,9.71,0,0,0,.328,1.158l-38.232,16.423.525,1.222,38.233-16.424.021.041-30.009,30.269.945.937,29.779-30.039a9.861,9.861,0,0,0,2.183,2.22l-22.021,34.642,1.123.714,22.02-34.64c.193.1.391.2.592.294-5.5,14.484-15.575,41.019-15.822,41.76l1.261.421c.219-.656,9.092-24.038,15.8-41.706a9.8,9.8,0,0,0,2.855.424c.163,0,.326,0,.487-.013l-3.478,42.028,1.326.11,3.5-42.3a9.748,9.748,0,0,0,1.237-.319c6.921,17.021,16.008,39.4,16.252,40.115l1.262-.421c-.248-.743-10.567-26.141-16.281-40.193q.185-.09.366-.187l23.369,36.955,1.125-.711-23.37-36.958a9.861,9.861,0,0,0,2.378-2.488l34.684,24.051.758-1.093-34.779-24.117a9.765,9.765,0,0,0,.977-4.27" transform="translate(-1034.188 -644.319)" fill="#415da5"/>
      <path id="Path_14762" data-name="Path 14762" d="M1894.767,1258.008a57.512,57.512,0,1,1,29.109-7.9,57.6,57.6,0,0,1-29.109,7.9m0-107.089a49.568,49.568,0,1,0,49.553,49.554,49.61,49.61,0,0,0-49.553-49.554" transform="translate(-1027.578 -639.254)" fill="#2c3a64"/>
      <path id="Path_14763" data-name="Path 14763" d="M1554.27,1117.747a2.994,2.994,0,0,1-2.54-.262c-26.92-16.264-64.164-10.152-74.938-7.891l-.018,0a.956.956,0,0,1-1.152-.935v-2.1a3.247,3.247,0,0,1,2.768-3.213c5.828-.867,19.445-2.731,27.052-2.764h.616c17.04,0,31.757,3.05,43.849,9.077a10.2,10.2,0,0,0,7.935.489l3.318-1.166a3.638,3.638,0,0,1,4.638,2.226,2.349,2.349,0,0,1-1.437,3Z" transform="translate(-825.327 -615.564)" fill="#d57912"/>
      <path id="Path_14764" data-name="Path 14764" d="M1597.078,1039.84s-1.081-4.906,2-5.238,14.3,2.078,17.294,1.746,18.624-2.91,21.367-.25,1.58,4.989-3.908,5.488-12.8,1.413-14.883,3.159-17.127,6.9-21.867-4.905" transform="translate(-893.155 -578.644)" fill="#415da5"/>
      <path id="Path_14765" data-name="Path 14765" d="M1734.4,1282.365h-5.5l-11.587-5.28a14.992,14.992,0,1,0-.87,2.162l6.844,3.118h-1.855a2.771,2.771,0,0,0,0,5.543h12.97a2.771,2.771,0,1,0,0-5.543" transform="translate(-944.145 -703.411)" fill="#2c3a64"/>
      <path id="Path_14766" data-name="Path 14766" d="M1775.67,931.252c-.023-.007-.047-.009-.071-.015-4.988-2.721-31.507-17.327-32.673-20.825-.721-2.163-4.069-11.28-7.726-19.366-.927-2.008-2.158-1.8-3.085-3.607-2.009-3.863-9.557-.671-11-1.341-4.738-2.163-9.969-4.014-9.969.725,0,0,1.339,3.451,3.4,8.24.824,1.906,1.751,4.017,2.73,6.232,4.12,9.013,9.477,19.315,13.185,21.169,6.01,2.96,28.769,12.593,37.644,14.215l-.012.016s4.274,4.21,5.222,5.006a5.61,5.61,0,0,0,5.136.962c2.053-.727,2-4.124,2.111-4.986a6.441,6.441,0,0,0-4.892-6.424" transform="translate(-957.058 -494.348)" fill="#c0783d"/>
      <path id="Path_14767" data-name="Path 14767" d="M1704.977,846.416l16.539,6.1a39.726,39.726,0,0,0,5.933-8.3c2.111-3.707,3.573-6.98,3.573-6.98l-11.555-8.091-5.132-3.6c-.235,7.373-9.358,20.863-9.358,20.863" transform="translate(-953.607 -461.739)" fill="#ce8e55"/>
      <path id="Path_14768" data-name="Path 14768" d="M1725.56,833.894s4.188,11.479,13.4,14.889c2.111-3.707,3.574-6.981,3.574-6.981l-11.556-8.091Z" transform="translate(-965.119 -466.302)" fill="#c0783d"/>
      <path id="Path_14769" data-name="Path 14769" d="M1745.225,808.532s-20.452,3.207-22.253-9.56-5.654-20.951,7.328-23.539,16.212,1.926,17.849,6.042,2.349,25.894-2.924,27.057" transform="translate(-962.575 -433.281)" fill="#ce8e55"/>
      <path id="Path_14770" data-name="Path 14770" d="M1706.4,765.305a3.552,3.552,0,0,1,1.675.968l.01-.015c.053-2.753,2.756-5.536,2.756-5.536-1.3,1.63-.877,4.651-.877,4.651,3.852-6.587,22.6-1.406,24.36-.968s3-2.2,3-2.2c2.776,2.4,3.833,8.29,1.532,12.137s-9.763,9.5-11.911,8.427-2.153,1.147-2.041,4.272-5.3,8.376-9.116,9.14c-3.073.615-3.315-1.49-4.153-2.832a4.246,4.246,0,0,0-.748-.9c-4.185-3.779-6.492-11.331-5.554-18.772a18.633,18.633,0,0,1,2.28-6.64,9.607,9.607,0,0,0-1.211-1.729" transform="translate(-953.687 -425.479)" fill="#2c3a64"/>
      <path id="Path_14771" data-name="Path 14771" d="M1686.2,1014.919c-.206.928-2.472,8.55-8.344,10.507-3.811,1.288-13.082,4.429-21.323,5.047a14.073,14.073,0,0,1-4.172-5.356,19.955,19.955,0,0,1,2.988-20.19,208.706,208.706,0,0,1,30.851,9.992" transform="translate(-923.317 -562.064)" fill="#aa3e39"/>
      <path id="Path_14772" data-name="Path 14772" d="M1617.406,968.134s-17.809,18.413-2.593,39.871,39.99,38.773,41.354,46.426c2.639,14.811,18.413,45.392,25.924,60.522l6.438-2.468s-12.075-71.708-16.367-80.292-26.529-48.767-26.529-48.767Z" transform="translate(-899.737 -541.486)" fill="#ce8e55"/>
      <path id="Path_14773" data-name="Path 14773" d="M1740.469,885.571c-1.6.515-5.459,1.957-6.49,3.708-1.082,1.752-12.412-3.142-13.752-7.726,3.244-3.554,8.808-6.592,12.052-5.562,1.906.566,5,4.635,8.189,9.58" transform="translate(-962.136 -489.836)" fill="#6488d3"/>
      <path id="Path_14774" data-name="Path 14774" d="M1611.255,979.928s21.511,15.326,35.889,14.468c0,0,9.443,16.1,11.535,21.407,0,0-24.465,12.232-37.18,9.979,0,0-16.578-16.1-15.613-27.362a46.016,46.016,0,0,1,5.368-18.492" transform="translate(-898.162 -548.082)" fill="#35488a"/>
      <path id="Path_14775" data-name="Path 14775" d="M1677.111,881.541l-5.157,7.346-.412.927-10.713,24.465-5.459,12.464c-3.657.876-10.456.257-13.494-.824-16.585-5.665-23.8-15.554-23.8-15.554,9.632-25.186,22.972-42.389,25.7-45.427,4.739-5.15,17.151-9.374,17.151-9.374,3.4,3.5,15.555,9.631,15.555,9.631,2.678,2.112.625,16.347.625,16.347" transform="translate(-905.004 -478.524)" fill="#739cf3"/>
      <path id="Path_14776" data-name="Path 14776" d="M1719.966,913.215l-10.713,24.465c-8.138-16.431-2.987-40.278-2.987-40.278s13.083,11.331,13.546,12.207a26.818,26.818,0,0,1,.155,3.606" transform="translate(-953.428 -501.925)" fill="#6488d3"/>
      <path id="Path_14777" data-name="Path 14777" d="M1767.452,931.248c-.021-.006-.043-.007-.064-.011-4.972-2.713-31.513-17.329-32.68-20.829-.721-2.163-4.069-11.279-7.726-19.366-.927-2.009-1.854-3.966-2.781-5.769-2.009-3.863-3.914-6.8-5.357-7.468-4.738-2.163-15.915,4.275-15.915,9.014,0,0,1.339,3.451,3.4,8.24.824,1.906,1.751,4.017,2.73,6.232,4.12,9.014,9.477,19.315,13.185,21.169,6.011,2.96,28.77,12.593,37.644,14.215l-.012.016s4.274,4.21,5.222,5.006a5.612,5.612,0,0,0,5.136.962c2.053-.727,2.507-3.5,2.619-4.365s.969-5.454-5.4-7.045" transform="translate(-952.461 -490.723)" fill="#ce8e55"/>
      <path id="Path_14778" data-name="Path 14778" d="M1726.982,891.043c-4.326,1.957-12.1,5.769-17.924,10.25-.979-2.215-1.906-4.327-2.73-6.232-2.06-4.79-3.4-8.24-3.4-8.24,0-4.739,11.177-11.177,15.915-9.014,1.442.669,3.348,3.605,5.357,7.468.927,1.8,1.854,3.76,2.781,5.769" transform="translate(-952.461 -490.724)" fill="#739cf3"/>
      <path id="Path_14779" data-name="Path 14779" d="M1765.561,1298.932h3.853c1.291-.18,2.244-.51,3.567-.663a3.886,3.886,0,0,1,3.12.663c.025.022.036.034.036.034H1792.5c.412-.52.016-1.724-.371-2.61a2.244,2.244,0,0,0-1.532-1.238c-1.735-.445-5.156-.84-8.29-3.349-1.763-1.408-8.512-5.179-8.512-5.179l-.036-.007c-.148,0-.854.194-3.924,2.486-1.587,1.183-4.292-1.67-4.292-1.67a3.5,3.5,0,0,0-.887,1.063,3.227,3.227,0,0,0-.351,2.221c.244,1.3-.544,3.727-1.173,5.366-.382.993-.7,1.7-.7,1.7s-.184.818,3.13,1.185" transform="translate(-985.74 -719.597)" fill="#739cf3"/>
      <path id="Path_14780" data-name="Path 14780" d="M1767.486,1288.461a12.878,12.878,0,0,0,4.149,1.85c1.738.2,4.989-3.722,4.989-3.722l-.036-.007c-.149,0-.854.194-3.924,2.486-1.587,1.182-4.292-1.67-4.292-1.67a3.5,3.5,0,0,0-.887,1.063" transform="translate(-988.568 -719.596)" fill="#415da5"/>
      <path id="Path_14781" data-name="Path 14781" d="M1765.561,1310.948h3.853c1.291-.18,2.244-.51,3.567-.663a3.887,3.887,0,0,1,3.12.663c.025.022.036.033.036.033H1792.5c.412-.52.016-1.724-.371-2.61-.5-.39-.637,1.7-.912,2.03s-13.35.121-14.1-.364a8.777,8.777,0,0,0-6.178-.668c-2.749.58-6.8-.908-7.8-1.3-.382.993-.7,1.7-.7,1.7s-.184.818,3.13,1.185" transform="translate(-985.74 -731.612)" fill="#415da5"/>
    </g>
  </g>
</svg>
