<?xml version="1.0" encoding="UTF-8"?>
<svg id="Capa_1" xmlns="http://www.w3.org/2000/svg" version="1.1" xmlns:xlink="http://www.w3.org/1999/xlink" viewBox="0 0 1927.1 887.3">
  <!-- Generator: Adobe Illustrator 29.0.1, SVG Export Plug-In . SVG Version: 2.1.0 Build 192)  -->
  <defs>
    <style>
      .st0 {
        fill: #2e3552;
      }

      .st1 {
        fill: url(#Degradado_sin_nombre_242);
      }

      .st2 {
        fill: url(#Degradado_sin_nombre);
        stroke: #70ce68;
      }

      .st3 {
        fill: url(#Degradado_sin_nombre_24);
      }

      .st4 {
        fill: #b84c42;
      }

      .st5 {
        fill: #acd29a;
      }

      .st6 {
        fill: #35488b;
      }

      .st7 {
        fill: #c4d9ed;
      }

      .st8 {
        fill: #35488a;
      }

      .st9 {
        fill: #739cf3;
      }

      .st10 {
        fill: #aa3e39;
      }

      .st11 {
        fill: #ce8e55;
      }

      .st12 {
        fill: #d8716b;
      }

      .st13 {
        fill: #2c3a64;
      }

      .st14 {
        fill: #65c65e;
      }

      .st15 {
        fill: #adc9e0;
      }

      .st16 {
        fill: url(#Degradado_sin_nombre_241);
      }

      .st17 {
        fill: #eaf1f8;
        isolation: isolate;
        opacity: 1;
      }

      .st18 {
        fill: #d57912;
      }

      .st19 {
        fill: #dceaf9;
      }

      .st20 {
        fill: #88b374;
      }

      .st21 {
        fill: #415da5;
      }

      .st22 {
        fill: #a8d29f;
      }

      .st23 {
        fill: #d5e7f7;
      }

      .st24 {
        fill: #6488d3;
      }

      .st25 {
        fill: #c0783d;
      }

      .st26 {
        fill: #7dabbd;
      }
    </style>
    <linearGradient id="Degradado_sin_nombre" data-name="Degradado sin nombre" x1="401.5" y1="1661.8" x2="401.5" y2="1660.8" gradientTransform="translate(-774677.7 1471234.9) scale(1931.7 -885.3)" gradientUnits="userSpaceOnUse">
      <stop offset="0" stop-color="#71ce68"/>
      <stop offset="1" stop-color="#4da847"/>
    </linearGradient>
    <linearGradient id="Degradado_sin_nombre_24" data-name="Degradado sin nombre 24" x1="1294.8" y1="373.9" x2="1294.8" y2="269.4" gradientUnits="userSpaceOnUse">
      <stop offset="0" stop-color="#dadfe4"/>
      <stop offset="1" stop-color="#e5ebf2"/>
    </linearGradient>
    <linearGradient id="Degradado_sin_nombre_241" data-name="Degradado sin nombre 24" x1="1674.9" y1="527.8" x2="1674.9" y2="456.7" xlink:href="#Degradado_sin_nombre_24"/>
    <linearGradient id="Degradado_sin_nombre_242" data-name="Degradado sin nombre 24" x1="1808.3" y1="617.1" x2="1808.3" y2="542.6" xlink:href="#Degradado_sin_nombre_24"/>
  </defs>
  <path class="st2" d="M.5,338.1s-118.3,596.3,709.4,491.6c827.7-104.7,1216.5,56,1216.5,56V.5H.5v337.6h0Z"/>
  <g id="Group_6454">
    <g id="Group_6457">
      <path id="Path_14708" class="st17" d="M898.9,794.8s-216.3-199.2,9.7-308c143.2-68.9,109-86.1,155.2-181.4,56.7-116.7,338.2-204.3,455.9-25.3,86.6,131.8,135.8,128.9,199,105.8,72.5-26.5,135.4-83.6,221.5-44.1,123.6,56.7,141.5,177.2,220.5,151,211.3-70.4-49.8,329.9-237.7,395.1l-1024.1-93.2Z"/>
      <rect id="Rectangle_6501" class="st7" x="1862.1" y="254.8" width="97.5" height="474"/>
      <rect id="Rectangle_6502" class="st23" x="1884" y="254.8" width="97.5" height="474"/>
      <rect id="Rectangle_6503" class="st7" x="1884" y="254.7" width="97.4" height="27.4"/>
      <rect id="Rectangle_6504" class="st7" x="1884" y="314.1" width="97.4" height="27.4"/>
      <rect id="Rectangle_6505" class="st7" x="1884" y="373.5" width="97.4" height="27.4"/>
      <rect id="Rectangle_6506" class="st7" x="1884" y="432.9" width="97.4" height="27.4"/>
      <rect id="Rectangle_6507" class="st7" x="1884" y="492.3" width="97.4" height="27.4"/>
      <rect id="Rectangle_6508" class="st7" x="1884" y="551.7" width="97.4" height="27.4"/>
      <rect id="Rectangle_6509" class="st7" x="1884" y="611.1" width="97.4" height="27.4"/>
      <rect id="Rectangle_6510" class="st7" x="1884" y="670.5" width="97.4" height="27.4"/>
      <rect id="Rectangle_6511" class="st7" x="2017.9" y="321.9" width="97.5" height="406.9"/>
      <rect id="Rectangle_6512" class="st23" x="2039.8" y="321.9" width="97.5" height="406.9"/>
      <rect id="Rectangle_6513" class="st7" x="2039.8" y="321.8" width="97.4" height="23.5"/>
      <rect id="Rectangle_6514" class="st7" x="2039.8" y="372.8" width="97.4" height="23.5"/>
      <rect id="Rectangle_6515" class="st7" x="2039.8" y="423.8" width="97.4" height="23.5"/>
      <rect id="Rectangle_6516" class="st7" x="2039.8" y="474.8" width="97.4" height="23.5"/>
      <rect id="Rectangle_6517" class="st7" x="2039.8" y="525.8" width="97.4" height="23.5"/>
      <rect id="Rectangle_6518" class="st7" x="2039.8" y="576.8" width="97.4" height="23.5"/>
      <rect id="Rectangle_6519" class="st7" x="2039.8" y="627.7" width="97.4" height="23.5"/>
      <rect id="Rectangle_6520" class="st7" x="2039.8" y="678.7" width="97.4" height="23.5"/>
      <rect id="Rectangle_6521" class="st19" x="1809.4" y="714.2" width="40.8" height="59.5"/>
      <path id="Path_14709" class="st23" d="M1249.7,476.4v-36.4h11.2v-62.7h59.8v62.7h55.9v-102.1h61.7v66.3h14.1v-79.1h61.7v148.4h78.1v86.5h29.2v21.8h67v-37.5h38.5v-102h47.5v188.3h47.5v163.8h-619.8v-317.8h47.7Z"/>
      <rect id="Rectangle_6522" class="st7" x="1726.4" y="443.2" width="47.9" height="23.5"/>
      <rect id="Rectangle_6523" class="st7" x="1726.4" y="478.2" width="47.9" height="23.5"/>
      <rect id="Rectangle_6524" class="st7" x="1726.4" y="513.2" width="47.9" height="23.5"/>
      <rect id="Rectangle_6525" class="st7" x="1726.4" y="549.9" width="47.9" height="23.5"/>
      <rect id="Rectangle_6526" class="st7" x="1726.4" y="585.4" width="47.9" height="23.5"/>
      <rect id="Rectangle_6527" class="st7" x="1726.4" y="621" width="47.9" height="23.5"/>
      <rect id="Rectangle_6528" class="st7" x="1726.4" y="658.2" width="47.9" height="23.5"/>
      <rect id="Rectangle_6529" class="st7" x="1709.4" y="443.2" width="17.7" height="102.9"/>
      <rect id="Rectangle_6530" class="st7" x="1652.8" y="546" width="35.5" height="37.9"/>
      <path id="Path_14710" class="st7" d="M1376.6,338h-12.3v102.9h12.3v-102.9Z"/>
      <rect id="Rectangle_6531" class="st7" x="1444.9" y="325" width="7.5" height="79.8"/>
      <rect id="Rectangle_6532" class="st7" x="1452.4" y="335.1" width="61.8" height="15.2"/>
      <rect id="Rectangle_6533" class="st7" x="1452.4" y="363.7" width="61.8" height="15.2"/>
      <rect id="Rectangle_6534" class="st7" x="1452.4" y="389.5" width="61.8" height="15.2"/>
      <rect id="Rectangle_6535" class="st7" x="1376.6" y="389.5" width="61.8" height="15.2"/>
      <rect id="Rectangle_6536" class="st7" x="1376.6" y="363.7" width="61.8" height="15.2"/>
      <rect id="Rectangle_6537" class="st7" x="1376.6" y="338" width="61.8" height="15.2"/>
      <rect id="Rectangle_6538" class="st7" x="1376.6" y="414.5" width="137.6" height="15.2"/>
      <rect id="Rectangle_6539" class="st7" x="1376.6" y="439.5" width="137.6" height="15.2"/>
      <rect id="Rectangle_6540" class="st7" x="1376.6" y="463.9" width="137.6" height="9.7"/>
      <rect id="Rectangle_6541" class="st7" x="1569" y="489.6" width="10.5" height="14.7"/>
      <rect id="Rectangle_6542" class="st7" x="1549.4" y="489.6" width="10.5" height="14.7"/>
      <rect id="Rectangle_6543" class="st7" x="1530.3" y="489.6" width="10.5" height="14.7"/>
      <rect id="Rectangle_6544" class="st7" x="1512.1" y="489.6" width="10.5" height="14.7"/>
      <rect id="Rectangle_6545" class="st7" x="1493.6" y="489.6" width="10.5" height="14.7"/>
      <rect id="Rectangle_6546" class="st7" x="1474.9" y="489.6" width="10.5" height="14.7"/>
      <rect id="Rectangle_6547" class="st7" x="1455.4" y="489.6" width="10.5" height="14.7"/>
      <rect id="Rectangle_6548" class="st7" x="1436.2" y="489.6" width="10.5" height="14.7"/>
      <rect id="Rectangle_6549" class="st7" x="1418.1" y="489.6" width="10.5" height="14.7"/>
      <rect id="Rectangle_6550" class="st7" x="1399.6" y="489.6" width="10.5" height="14.7"/>
      <rect id="Rectangle_6551" class="st7" x="1380.4" y="489.6" width="10.5" height="14.7"/>
      <rect id="Rectangle_6552" class="st7" x="1360.8" y="489.6" width="10.5" height="14.7"/>
      <rect id="Rectangle_6553" class="st7" x="1341.7" y="489.6" width="10.5" height="14.7"/>
      <rect id="Rectangle_6554" class="st7" x="1323.5" y="489.6" width="10.5" height="14.7"/>
      <rect id="Rectangle_6555" class="st7" x="1305" y="489.6" width="10.5" height="14.7"/>
      <rect id="Rectangle_6556" class="st7" x="1286.4" y="489.6" width="10.5" height="14.7"/>
      <rect id="Rectangle_6557" class="st7" x="1266.8" y="489.6" width="10.5" height="14.7"/>
      <rect id="Rectangle_6558" class="st7" x="1247.7" y="489.6" width="10.5" height="14.7"/>
      <rect id="Rectangle_6559" class="st7" x="1229.5" y="489.6" width="10.5" height="14.7"/>
      <rect id="Rectangle_6560" class="st7" x="1211" y="489.6" width="10.5" height="14.7"/>
      <rect id="Rectangle_6561" class="st7" x="1569" y="515.7" width="10.5" height="14.7"/>
      <rect id="Rectangle_6562" class="st7" x="1549.4" y="515.7" width="10.5" height="14.7"/>
      <rect id="Rectangle_6563" class="st7" x="1530.3" y="515.7" width="10.5" height="14.7"/>
      <rect id="Rectangle_6564" class="st7" x="1512.1" y="515.7" width="10.5" height="14.7"/>
      <rect id="Rectangle_6565" class="st7" x="1493.6" y="515.7" width="10.5" height="14.7"/>
      <rect id="Rectangle_6566" class="st7" x="1474.9" y="515.7" width="10.5" height="14.7"/>
      <rect id="Rectangle_6567" class="st7" x="1455.4" y="515.7" width="10.5" height="14.7"/>
      <rect id="Rectangle_6568" class="st7" x="1436.2" y="515.7" width="10.5" height="14.7"/>
      <rect id="Rectangle_6569" class="st7" x="1418.1" y="515.7" width="10.5" height="14.7"/>
      <rect id="Rectangle_6570" class="st7" x="1399.6" y="515.7" width="10.5" height="14.7"/>
      <rect id="Rectangle_6571" class="st7" x="1380.4" y="515.7" width="10.5" height="14.7"/>
      <rect id="Rectangle_6572" class="st7" x="1360.8" y="515.7" width="10.5" height="14.7"/>
      <rect id="Rectangle_6573" class="st7" x="1341.7" y="515.7" width="10.5" height="14.7"/>
      <rect id="Rectangle_6574" class="st7" x="1323.5" y="515.7" width="10.5" height="14.7"/>
      <rect id="Rectangle_6575" class="st7" x="1305" y="515.7" width="10.5" height="14.7"/>
      <rect id="Rectangle_6576" class="st7" x="1286.4" y="515.7" width="10.5" height="14.7"/>
      <rect id="Rectangle_6577" class="st7" x="1266.8" y="515.7" width="10.5" height="14.7"/>
      <rect id="Rectangle_6578" class="st7" x="1247.7" y="515.7" width="10.5" height="14.7"/>
      <rect id="Rectangle_6579" class="st7" x="1229.5" y="515.7" width="10.5" height="14.7"/>
      <rect id="Rectangle_6580" class="st7" x="1211" y="515.7" width="10.5" height="14.7"/>
      <rect id="Rectangle_6581" class="st7" x="1569" y="541.3" width="10.5" height="14.7"/>
      <rect id="Rectangle_6582" class="st7" x="1549.4" y="541.3" width="10.5" height="14.7"/>
      <rect id="Rectangle_6583" class="st7" x="1530.3" y="541.3" width="10.5" height="14.7"/>
      <rect id="Rectangle_6584" class="st7" x="1512.1" y="541.3" width="10.5" height="14.7"/>
      <rect id="Rectangle_6585" class="st7" x="1493.6" y="541.3" width="10.5" height="14.7"/>
      <rect id="Rectangle_6586" class="st7" x="1474.9" y="541.3" width="10.5" height="14.7"/>
      <rect id="Rectangle_6587" class="st7" x="1455.4" y="541.3" width="10.5" height="14.7"/>
      <rect id="Rectangle_6588" class="st7" x="1436.2" y="541.3" width="10.5" height="14.7"/>
      <rect id="Rectangle_6589" class="st7" x="1418.1" y="541.3" width="10.5" height="14.7"/>
      <rect id="Rectangle_6590" class="st7" x="1399.6" y="541.3" width="10.5" height="14.7"/>
      <rect id="Rectangle_6591" class="st7" x="1380.4" y="541.3" width="10.5" height="14.7"/>
      <rect id="Rectangle_6592" class="st7" x="1360.8" y="541.3" width="10.5" height="14.7"/>
      <rect id="Rectangle_6593" class="st7" x="1341.7" y="541.3" width="10.5" height="14.7"/>
      <rect id="Rectangle_6594" class="st7" x="1323.5" y="541.3" width="10.5" height="14.7"/>
      <rect id="Rectangle_6595" class="st7" x="1305" y="541.3" width="10.5" height="14.7"/>
      <rect id="Rectangle_6596" class="st7" x="1286.4" y="541.3" width="10.5" height="14.7"/>
      <rect id="Rectangle_6597" class="st7" x="1266.8" y="541.3" width="10.5" height="14.7"/>
      <rect id="Rectangle_6598" class="st7" x="1247.7" y="541.3" width="10.5" height="14.7"/>
      <rect id="Rectangle_6599" class="st7" x="1229.5" y="541.3" width="10.5" height="14.7"/>
      <rect id="Rectangle_6600" class="st7" x="1211" y="541.3" width="10.5" height="14.7"/>
      <rect id="Rectangle_6601" class="st7" x="1569" y="568.5" width="10.5" height="14.7"/>
      <rect id="Rectangle_6602" class="st7" x="1549.4" y="568.5" width="10.5" height="14.7"/>
      <rect id="Rectangle_6603" class="st7" x="1530.3" y="568.5" width="10.5" height="14.7"/>
      <rect id="Rectangle_6604" class="st7" x="1512.1" y="568.5" width="10.5" height="14.7"/>
      <rect id="Rectangle_6605" class="st7" x="1493.6" y="568.5" width="10.5" height="14.7"/>
      <rect id="Rectangle_6606" class="st7" x="1474.9" y="568.5" width="10.5" height="14.7"/>
      <rect id="Rectangle_6607" class="st7" x="1455.4" y="568.5" width="10.5" height="14.7"/>
      <rect id="Rectangle_6608" class="st7" x="1436.2" y="568.5" width="10.5" height="14.7"/>
      <rect id="Rectangle_6609" class="st7" x="1418.1" y="568.5" width="10.5" height="14.7"/>
      <rect id="Rectangle_6610" class="st7" x="1399.6" y="568.5" width="10.5" height="14.7"/>
      <rect id="Rectangle_6611" class="st7" x="1380.4" y="568.5" width="10.5" height="14.7"/>
      <rect id="Rectangle_6612" class="st7" x="1360.8" y="568.5" width="10.5" height="14.7"/>
      <rect id="Rectangle_6613" class="st7" x="1341.7" y="568.5" width="10.5" height="14.7"/>
      <rect id="Rectangle_6614" class="st7" x="1323.5" y="568.5" width="10.5" height="14.7"/>
      <rect id="Rectangle_6615" class="st7" x="1305" y="568.5" width="10.5" height="14.7"/>
      <rect id="Rectangle_6616" class="st7" x="1286.4" y="568.5" width="10.5" height="14.7"/>
      <rect id="Rectangle_6617" class="st7" x="1266.8" y="568.5" width="10.5" height="14.7"/>
      <rect id="Rectangle_6618" class="st7" x="1247.7" y="568.5" width="10.5" height="14.7"/>
      <rect id="Rectangle_6619" class="st7" x="1229.5" y="568.5" width="10.5" height="14.7"/>
      <rect id="Rectangle_6620" class="st7" x="1211" y="568.5" width="10.5" height="14.7"/>
      <rect id="Rectangle_6621" class="st7" x="1569" y="594.5" width="10.5" height="14.7"/>
      <rect id="Rectangle_6622" class="st7" x="1549.4" y="594.5" width="10.5" height="14.7"/>
      <rect id="Rectangle_6623" class="st7" x="1530.3" y="594.5" width="10.5" height="14.7"/>
      <rect id="Rectangle_6624" class="st7" x="1512.1" y="594.5" width="10.5" height="14.7"/>
      <rect id="Rectangle_6625" class="st7" x="1493.6" y="594.5" width="10.5" height="14.7"/>
      <rect id="Rectangle_6626" class="st7" x="1474.9" y="594.5" width="10.5" height="14.7"/>
      <rect id="Rectangle_6627" class="st7" x="1455.4" y="594.5" width="10.5" height="14.7"/>
      <rect id="Rectangle_6628" class="st7" x="1436.2" y="594.5" width="10.5" height="14.7"/>
      <rect id="Rectangle_6629" class="st7" x="1418.1" y="594.5" width="10.5" height="14.7"/>
      <rect id="Rectangle_6630" class="st7" x="1399.6" y="594.5" width="10.5" height="14.7"/>
      <rect id="Rectangle_6631" class="st7" x="1380.4" y="594.5" width="10.5" height="14.7"/>
      <rect id="Rectangle_6632" class="st7" x="1360.8" y="594.5" width="10.5" height="14.7"/>
      <rect id="Rectangle_6633" class="st7" x="1341.7" y="594.5" width="10.5" height="14.7"/>
      <rect id="Rectangle_6634" class="st7" x="1323.5" y="594.5" width="10.5" height="14.7"/>
      <rect id="Rectangle_6635" class="st7" x="1305" y="594.5" width="10.5" height="14.7"/>
      <rect id="Rectangle_6636" class="st7" x="1286.4" y="594.5" width="10.5" height="14.7"/>
      <rect id="Rectangle_6637" class="st7" x="1266.8" y="594.5" width="10.5" height="14.7"/>
      <rect id="Rectangle_6638" class="st7" x="1247.7" y="594.5" width="10.5" height="14.7"/>
      <rect id="Rectangle_6639" class="st7" x="1229.5" y="594.5" width="10.5" height="14.7"/>
      <rect id="Rectangle_6640" class="st7" x="1211" y="594.5" width="10.5" height="14.7"/>
      <rect id="Rectangle_6641" class="st7" x="1569" y="620.2" width="10.5" height="14.7"/>
      <rect id="Rectangle_6642" class="st7" x="1549.4" y="620.2" width="10.5" height="14.7"/>
      <rect id="Rectangle_6643" class="st7" x="1530.3" y="620.2" width="10.5" height="14.7"/>
      <rect id="Rectangle_6644" class="st7" x="1512.1" y="620.2" width="10.5" height="14.7"/>
      <rect id="Rectangle_6645" class="st7" x="1493.6" y="620.2" width="10.5" height="14.7"/>
      <rect id="Rectangle_6646" class="st7" x="1474.9" y="620.2" width="10.5" height="14.7"/>
      <rect id="Rectangle_6647" class="st7" x="1455.4" y="620.2" width="10.5" height="14.7"/>
      <rect id="Rectangle_6648" class="st7" x="1436.2" y="620.2" width="10.5" height="14.7"/>
      <rect id="Rectangle_6649" class="st7" x="1418.1" y="620.2" width="10.5" height="14.7"/>
      <rect id="Rectangle_6650" class="st7" x="1399.6" y="620.2" width="10.5" height="14.7"/>
      <rect id="Rectangle_6651" class="st7" x="1380.4" y="620.2" width="10.5" height="14.7"/>
      <rect id="Rectangle_6652" class="st7" x="1360.8" y="620.2" width="10.5" height="14.7"/>
      <rect id="Rectangle_6653" class="st7" x="1341.7" y="620.2" width="10.5" height="14.7"/>
      <rect id="Rectangle_6654" class="st7" x="1323.5" y="620.2" width="10.5" height="14.7"/>
      <rect id="Rectangle_6655" class="st7" x="1305" y="620.2" width="10.5" height="14.7"/>
      <rect id="Rectangle_6656" class="st7" x="1286.4" y="620.2" width="10.5" height="14.7"/>
      <rect id="Rectangle_6657" class="st7" x="1266.8" y="620.2" width="10.5" height="14.7"/>
      <rect id="Rectangle_6658" class="st7" x="1247.7" y="620.2" width="10.5" height="14.7"/>
      <rect id="Rectangle_6659" class="st7" x="1229.5" y="620.2" width="10.5" height="14.7"/>
      <rect id="Rectangle_6660" class="st7" x="1211" y="620.2" width="10.5" height="14.7"/>
      <rect id="Rectangle_6661" class="st7" x="1410.3" y="666.4" width="242.5" height="129.9"/>
      <rect id="Rectangle_6662" class="st7" x="1594.2" y="731.8" width="242.5" height="64.4"/>
      <rect id="Rectangle_6663" class="st7" x="1148.3" y="686.8" width="242.5" height="109.6"/>
      <rect id="Rectangle_6664" class="st23" x="1591.4" y="681.7" width="45.2" height="24.2"/>
      <rect id="Rectangle_6665" class="st23" x="1533.4" y="681.7" width="45.2" height="24.2"/>
      <rect id="Rectangle_6666" class="st23" x="1476.5" y="681.7" width="45.2" height="24.2"/>
      <rect id="Rectangle_6667" class="st23" x="1420.7" y="681.7" width="45.2" height="24.2"/>
      <rect id="Rectangle_6668" class="st15" x="1389.5" y="666.4" width="23.3" height="129.9"/>
      <rect id="Rectangle_6669" class="st15" x="1100.8" y="640.9" width="23.3" height="155.3"/>
      <rect id="Rectangle_6670" class="st15" x="1123.3" y="686.8" width="25" height="109.4"/>
      <rect id="Rectangle_6671" class="st19" x="1763.5" y="432.9" width="1.3" height="10.2"/>
      <rect id="Rectangle_6672" class="st19" x="1718.2" y="432.9" width="1.3" height="10.2"/>
      <rect id="Rectangle_6673" class="st23" x="1123.3" y="640.5" width="133.5" height="155.7"/>
      <rect id="Rectangle_6674" class="st23" x="1132.3" y="609.3" width="2.5" height="31.6"/>
      <rect id="Rectangle_6675" class="st23" x="1090.3" y="684.2" width="166.5" height="112"/>
      <rect id="Rectangle_6676" class="st7" x="1090.3" y="669.5" width="166.5" height="36.4"/>
      <rect id="Rectangle_6677" class="st15" x="1236.9" y="716.7" width="8.6" height="12.1"/>
      <rect id="Rectangle_6678" class="st15" x="1220.9" y="716.7" width="8.6" height="12.1"/>
      <rect id="Rectangle_6679" class="st15" x="1205.3" y="716.7" width="8.6" height="12.1"/>
      <rect id="Rectangle_6680" class="st15" x="1190.5" y="716.7" width="8.6" height="12.1"/>
      <rect id="Rectangle_6681" class="st15" x="1175.4" y="716.7" width="8.6" height="12.1"/>
      <rect id="Rectangle_6682" class="st15" x="1160.1" y="716.7" width="8.6" height="12.1"/>
      <rect id="Rectangle_6683" class="st15" x="1144.1" y="716.7" width="8.6" height="12.1"/>
      <rect id="Rectangle_6684" class="st15" x="1128.4" y="716.7" width="8.6" height="12.1"/>
      <rect id="Rectangle_6685" class="st15" x="1113.6" y="716.7" width="8.6" height="12.1"/>
      <rect id="Rectangle_6686" class="st15" x="1098.5" y="716.7" width="8.6" height="12.1"/>
      <rect id="Rectangle_6687" class="st15" x="1236.9" y="738" width="8.6" height="12.1"/>
      <rect id="Rectangle_6688" class="st15" x="1220.9" y="738" width="8.6" height="12.1"/>
      <rect id="Rectangle_6689" class="st15" x="1205.3" y="738" width="8.6" height="12.1"/>
      <rect id="Rectangle_6690" class="st15" x="1190.5" y="738" width="8.6" height="12.1"/>
      <rect id="Rectangle_6691" class="st15" x="1175.4" y="738" width="8.6" height="12.1"/>
      <rect id="Rectangle_6692" class="st15" x="1160.1" y="738" width="8.6" height="12.1"/>
      <rect id="Rectangle_6693" class="st15" x="1144.1" y="738" width="8.6" height="12.1"/>
      <rect id="Rectangle_6694" class="st15" x="1128.4" y="738" width="8.6" height="12.1"/>
      <rect id="Rectangle_6695" class="st15" x="1113.6" y="738" width="8.6" height="12.1"/>
      <rect id="Rectangle_6696" class="st15" x="1098.5" y="738" width="8.6" height="12.1"/>
      <rect id="Rectangle_6697" class="st15" x="1236.9" y="758.9" width="8.6" height="12.1"/>
      <rect id="Rectangle_6698" class="st15" x="1220.9" y="758.9" width="8.6" height="12.1"/>
      <rect id="Rectangle_6699" class="st15" x="1205.3" y="758.9" width="8.6" height="12.1"/>
      <rect id="Rectangle_6700" class="st15" x="1190.5" y="758.9" width="8.6" height="12.1"/>
      <rect id="Rectangle_6701" class="st15" x="1175.4" y="758.9" width="8.6" height="12.1"/>
      <rect id="Rectangle_6702" class="st15" x="1160.1" y="758.9" width="8.6" height="12.1"/>
      <rect id="Rectangle_6703" class="st15" x="1144.1" y="758.9" width="8.6" height="12.1"/>
      <rect id="Rectangle_6704" class="st15" x="1128.4" y="758.9" width="8.6" height="12.1"/>
      <rect id="Rectangle_6705" class="st15" x="1113.6" y="758.9" width="8.6" height="12.1"/>
      <rect id="Rectangle_6706" class="st15" x="1098.5" y="758.9" width="8.6" height="12.1"/>
      <rect id="Rectangle_6707" class="st15" x="1236.9" y="679.8" width="7.2" height="12.4"/>
      <rect id="Rectangle_6708" class="st15" x="1165.6" y="679.8" width="7.2" height="12.4"/>
      <rect id="Rectangle_6709" class="st15" x="1108.8" y="679.8" width="7.2" height="12.4"/>
      <rect id="Rectangle_6710" class="st23" x="1790.8" y="684.2" width="166.5" height="112"/>
      <rect id="Rectangle_6711" class="st7" x="1790.8" y="669.5" width="166.5" height="36.4"/>
      <rect id="Rectangle_6712" class="st15" x="1937.4" y="716.7" width="8.6" height="12.1"/>
      <rect id="Rectangle_6713" class="st15" x="1921.4" y="716.7" width="8.6" height="12.1"/>
      <rect id="Rectangle_6714" class="st15" x="1905.8" y="716.7" width="8.6" height="12.1"/>
      <rect id="Rectangle_6715" class="st15" x="1891" y="716.7" width="8.6" height="12.1"/>
      <rect id="Rectangle_6716" class="st15" x="1875.8" y="716.7" width="8.6" height="12.1"/>
      <rect id="Rectangle_6717" class="st15" x="1860.6" y="716.7" width="8.6" height="12.1"/>
      <rect id="Rectangle_6718" class="st15" x="1844.6" y="716.7" width="8.6" height="12.1"/>
      <rect id="Rectangle_6719" class="st15" x="1828.9" y="716.7" width="8.6" height="12.1"/>
      <rect id="Rectangle_6720" class="st15" x="1814.1" y="716.7" width="8.6" height="12.1"/>
      <rect id="Rectangle_6721" class="st15" x="1799" y="716.7" width="8.6" height="12.1"/>
      <rect id="Rectangle_6722" class="st15" x="1937.4" y="738" width="8.6" height="12.1"/>
      <rect id="Rectangle_6723" class="st15" x="1921.4" y="738" width="8.6" height="12.1"/>
      <rect id="Rectangle_6724" class="st15" x="1905.8" y="738" width="8.6" height="12.1"/>
      <rect id="Rectangle_6725" class="st15" x="1891" y="738" width="8.6" height="12.1"/>
      <rect id="Rectangle_6726" class="st15" x="1875.8" y="738" width="8.6" height="12.1"/>
      <rect id="Rectangle_6727" class="st15" x="1860.6" y="738" width="8.6" height="12.1"/>
      <rect id="Rectangle_6728" class="st15" x="1844.6" y="738" width="8.6" height="12.1"/>
      <rect id="Rectangle_6729" class="st15" x="1828.9" y="738" width="8.6" height="12.1"/>
      <rect id="Rectangle_6730" class="st15" x="1814.1" y="738" width="8.6" height="12.1"/>
      <rect id="Rectangle_6731" class="st15" x="1799" y="738" width="8.6" height="12.1"/>
      <rect id="Rectangle_6732" class="st15" x="1937.4" y="758.9" width="8.6" height="12.1"/>
      <rect id="Rectangle_6733" class="st15" x="1921.4" y="758.9" width="8.6" height="12.1"/>
      <rect id="Rectangle_6734" class="st15" x="1905.8" y="758.9" width="8.6" height="12.1"/>
      <rect id="Rectangle_6735" class="st15" x="1891" y="758.9" width="8.6" height="12.1"/>
      <rect id="Rectangle_6736" class="st15" x="1875.8" y="758.9" width="8.6" height="12.1"/>
      <rect id="Rectangle_6737" class="st15" x="1860.6" y="758.9" width="8.6" height="12.1"/>
      <rect id="Rectangle_6738" class="st15" x="1844.6" y="758.9" width="8.6" height="12.1"/>
      <rect id="Rectangle_6739" class="st15" x="1828.9" y="758.9" width="8.6" height="12.1"/>
      <rect id="Rectangle_6740" class="st15" x="1814.1" y="758.9" width="8.6" height="12.1"/>
      <rect id="Rectangle_6741" class="st15" x="1799" y="758.9" width="8.6" height="12.1"/>
      <rect id="Rectangle_6742" class="st15" x="1937.4" y="679.8" width="7.2" height="12.4"/>
      <rect id="Rectangle_6743" class="st15" x="1866.1" y="679.8" width="7.2" height="12.4"/>
      <rect id="Rectangle_6744" class="st15" x="1809.3" y="679.8" width="7.2" height="12.4"/>
      <rect id="Rectangle_6745" class="st23" x="1967.7" y="684.2" width="166.5" height="112"/>
      <rect id="Rectangle_6746" class="st7" x="1967.7" y="669.5" width="166.5" height="36.4"/>
      <rect id="Rectangle_6747" class="st7" x="2114.4" y="716.7" width="8.6" height="12.1"/>
      <rect id="Rectangle_6748" class="st7" x="2098.4" y="716.7" width="8.6" height="12.1"/>
      <rect id="Rectangle_6749" class="st7" x="2082.7" y="716.7" width="8.6" height="12.1"/>
      <rect id="Rectangle_6750" class="st7" x="2067.9" y="716.7" width="8.6" height="12.1"/>
      <rect id="Rectangle_6751" class="st7" x="2052.8" y="716.7" width="8.6" height="12.1"/>
      <rect id="Rectangle_6752" class="st7" x="2037.5" y="716.7" width="8.6" height="12.1"/>
      <rect id="Rectangle_6753" class="st7" x="2021.5" y="716.7" width="8.6" height="12.1"/>
      <rect id="Rectangle_6754" class="st7" x="2005.9" y="716.7" width="8.6" height="12.1"/>
      <rect id="Rectangle_6755" class="st7" x="1991.1" y="716.7" width="8.6" height="12.1"/>
      <rect id="Rectangle_6756" class="st7" x="1976" y="716.7" width="8.6" height="12.1"/>
      <rect id="Rectangle_6757" class="st7" x="2114.4" y="738" width="8.6" height="12.1"/>
      <rect id="Rectangle_6758" class="st7" x="2098.4" y="738" width="8.6" height="12.1"/>
      <rect id="Rectangle_6759" class="st7" x="2082.7" y="738" width="8.6" height="12.1"/>
      <rect id="Rectangle_6760" class="st7" x="2067.9" y="738" width="8.6" height="12.1"/>
      <rect id="Rectangle_6761" class="st7" x="2052.8" y="738" width="8.6" height="12.1"/>
      <rect id="Rectangle_6762" class="st7" x="2037.5" y="738" width="8.6" height="12.1"/>
      <rect id="Rectangle_6763" class="st7" x="2021.5" y="738" width="8.6" height="12.1"/>
      <rect id="Rectangle_6764" class="st7" x="2005.9" y="738" width="8.6" height="12.1"/>
      <rect id="Rectangle_6765" class="st7" x="1991.1" y="738" width="8.6" height="12.1"/>
      <rect id="Rectangle_6766" class="st7" x="1976" y="738" width="8.6" height="12.1"/>
      <rect id="Rectangle_6767" class="st7" x="2114.4" y="758.9" width="8.6" height="12.1"/>
      <rect id="Rectangle_6768" class="st7" x="2098.4" y="758.9" width="8.6" height="12.1"/>
      <rect id="Rectangle_6769" class="st7" x="2082.7" y="758.9" width="8.6" height="12.1"/>
      <rect id="Rectangle_6770" class="st7" x="2067.9" y="758.9" width="8.6" height="12.1"/>
      <rect id="Rectangle_6771" class="st7" x="2052.8" y="758.9" width="8.6" height="12.1"/>
      <rect id="Rectangle_6772" class="st7" x="2037.5" y="758.9" width="8.6" height="12.1"/>
      <rect id="Rectangle_6773" class="st7" x="2021.5" y="758.9" width="8.6" height="12.1"/>
      <rect id="Rectangle_6774" class="st7" x="2005.9" y="758.9" width="8.6" height="12.1"/>
      <rect id="Rectangle_6775" class="st7" x="1991.1" y="758.9" width="8.6" height="12.1"/>
      <rect id="Rectangle_6776" class="st7" x="1976" y="758.9" width="8.6" height="12.1"/>
      <rect id="Rectangle_6777" class="st15" x="2114.4" y="679.8" width="7.2" height="12.4"/>
      <rect id="Rectangle_6778" class="st15" x="2043" y="679.8" width="7.2" height="12.4"/>
      <rect id="Rectangle_6779" class="st15" x="1986.3" y="679.8" width="7.2" height="12.4"/>
      <rect id="Rectangle_6780" class="st23" x="2145.1" y="684.2" width="166.5" height="112"/>
      <rect id="Rectangle_6781" class="st7" x="2145.1" y="669.5" width="166.5" height="36.4"/>
      <rect id="Rectangle_6782" class="st7" x="2291.7" y="716.7" width="8.6" height="12.1"/>
      <rect id="Rectangle_6783" class="st7" x="2275.8" y="716.7" width="8.6" height="12.1"/>
      <rect id="Rectangle_6784" class="st7" x="2260.1" y="716.7" width="8.6" height="12.1"/>
      <rect id="Rectangle_6785" class="st7" x="2245.3" y="716.7" width="8.6" height="12.1"/>
      <rect id="Rectangle_6786" class="st7" x="2230.2" y="716.7" width="8.6" height="12.1"/>
      <rect id="Rectangle_6787" class="st7" x="2214.9" y="716.7" width="8.6" height="12.1"/>
      <rect id="Rectangle_6788" class="st7" x="2198.9" y="716.7" width="8.6" height="12.1"/>
      <rect id="Rectangle_6789" class="st7" x="2183.3" y="716.7" width="8.6" height="12.1"/>
      <rect id="Rectangle_6790" class="st7" x="2168.5" y="716.7" width="8.6" height="12.1"/>
      <rect id="Rectangle_6791" class="st7" x="2153.3" y="716.7" width="8.6" height="12.1"/>
      <rect id="Rectangle_6792" class="st7" x="2291.7" y="738" width="8.6" height="12.1"/>
      <rect id="Rectangle_6793" class="st7" x="2275.8" y="738" width="8.6" height="12.1"/>
      <rect id="Rectangle_6794" class="st7" x="2260.1" y="738" width="8.6" height="12.1"/>
      <rect id="Rectangle_6795" class="st7" x="2245.3" y="738" width="8.6" height="12.1"/>
      <rect id="Rectangle_6796" class="st7" x="2230.2" y="738" width="8.6" height="12.1"/>
      <rect id="Rectangle_6797" class="st7" x="2214.9" y="738" width="8.6" height="12.1"/>
      <rect id="Rectangle_6798" class="st7" x="2198.9" y="738" width="8.6" height="12.1"/>
      <rect id="Rectangle_6799" class="st7" x="2183.3" y="738" width="8.6" height="12.1"/>
      <rect id="Rectangle_6800" class="st7" x="2168.5" y="738" width="8.6" height="12.1"/>
      <rect id="Rectangle_6801" class="st7" x="2153.3" y="738" width="8.6" height="12.1"/>
      <rect id="Rectangle_6802" class="st7" x="2291.7" y="758.9" width="8.6" height="12.1"/>
      <rect id="Rectangle_6803" class="st7" x="2275.8" y="758.9" width="8.6" height="12.1"/>
      <rect id="Rectangle_6804" class="st7" x="2260.1" y="758.9" width="8.6" height="12.1"/>
      <rect id="Rectangle_6805" class="st7" x="2245.3" y="758.9" width="8.6" height="12.1"/>
      <rect id="Rectangle_6806" class="st7" x="2230.2" y="758.9" width="8.6" height="12.1"/>
      <rect id="Rectangle_6807" class="st7" x="2214.9" y="758.9" width="8.6" height="12.1"/>
      <rect id="Rectangle_6808" class="st7" x="2198.9" y="758.9" width="8.6" height="12.1"/>
      <rect id="Rectangle_6809" class="st7" x="2183.3" y="758.9" width="8.6" height="12.1"/>
      <rect id="Rectangle_6810" class="st7" x="2168.5" y="758.9" width="8.6" height="12.1"/>
      <rect id="Rectangle_6811" class="st7" x="2153.3" y="758.9" width="8.6" height="12.1"/>
      <rect id="Rectangle_6812" class="st15" x="2291.7" y="679.8" width="7.2" height="12.4"/>
      <rect id="Rectangle_6813" class="st15" x="2220.4" y="679.8" width="7.2" height="12.4"/>
      <rect id="Rectangle_6814" class="st15" x="2163.6" y="679.8" width="7.2" height="12.4"/>
      <path id="Path_14711" class="st0" d="M1121.9,793.6s0,0,0,0h2.3c-.2,0-.4,0-.6,0h-1.7Z"/>
      <path id="Path_14712" class="st26" d="M1460.1,575.6c0,0-.2,0-.4,0,.1,0,.2,0,.4,0"/>
      <path id="Path_14713" class="st0" d="M1136.7,793.6s0,0,0,0h-2.3c.2,0,.4,0,.6,0h1.7Z"/>
      <path id="Path_14714" class="st22" d="M2363,796.4c2.2-3.6,2.5-7.3-.5-10.6-7.1-8-27.3,1.9-41.6,10.6h42.1Z"/>
      <path id="Path_14715" class="st22" d="M2315.3,796.4c13.6-15.2,35.1-43.1,21.3-53.9-14.1-11-42.6,29.9-57.2,53.2,1-18.2-.4-42.5-16-37-16.1,5.7-2.8,23.1,6.8,37.7h45.1Z"/>
      <path id="Path_14716" class="st5" d="M1490.1,746.5c-44.2-.9-71.4-25.4-97.3-46.2,37.4-18.1,82.6-40.9,59.6-57.3-21.7-15.5-53.7,16.4-76,44.9-2.1-1.5-4.2-2.8-6.3-4.2,9.5-26.7,14.5-54.8-3.9-59.7-17.5-4.7-22.7,20.7-23.4,48.4-48.3-10-87.7-6.3-129.8,6.7-42.3,13.1-102.6-83.5-226.7-72.6-11.9.9-23.7,3.7-34.8,8.1-.4-34.3-6.8-78.7-36.7-78.8-48.8,0,3.6,59.4,10.2,73.9,2.7,6,5,11.4,6.7,16.1-3.5,2.7-6.9,5.6-10,8.8-5.9-21.6-15.2-43.9-28.7-45.7-26.6-3.4-44,30-22.5,41.2,10.2,5.3,24.2,16,36.1,25.7-26.4,50.9-9.3,124.3,4.4,139.3l672-.2s-21.9-47.1-92.9-48.5"/>
      <path id="Path_14784" class="st5" d="M1686.6,746.5c44.2-.9,71.4-25.4,97.3-46.2-37.4-18.1-82.6-40.9-59.6-57.3,21.7-15.5,53.7,16.4,76,44.9,2.1-1.5,4.2-2.8,6.3-4.2-9.5-26.7-14.5-54.8,3.9-59.7,17.5-4.7,22.7,20.7,23.4,48.4,48.3-10,87.7-6.3,129.8,6.7,42.3,13.1,102.6-83.5,226.7-72.6,11.9.9,23.7,3.7,34.8,8.1.4-34.3,6.8-78.7,36.7-78.8,48.8,0-3.6,59.4-10.2,73.9-2.7,6-5,11.4-6.7,16.1,3.5,2.7,6.9,5.6,10,8.8,5.9-21.6,15.2-43.9,28.7-45.7,26.6-3.4,44,30,22.5,41.2-10.2,5.3-24.2,16-36,25.7,26.4,50.9,9.3,124.3-4.4,139.3l-672-.2s21.9-47.1,92.9-48.5"/>
      <path id="Path_14717" class="st20" d="M855.2,804.5s11.5-31.8,65.4-23.2,77.7,2.6,104.2-4.3c26.5-6.9,37.9-7.2,63.1,2s34.1,28.1,116.2,9.2,121-34.3,172.3-19.7,114.4-12.1,177.6,12.9,162.9-28.4,212.4,13.6l-911.2,9.6Z"/>
      <path id="Path_14718" class="st13" d="M1129.8,376c0-.9-1.2-10.9-16.4-10.8,0,0,7.5.6,8.9,3.9,0,0-5.2-3.9-9.3-2.4s-6.3,8.8-6.2,11.2,2.7,10,5.3,10.6c1.1.2,2.1.1,3.2-.1-.7,1.2-1.3,2.4-1.9,3.7-5.6,12.7,1.1,24.6,6.2,23.1,3.3-1,4.4,4.6,4.4,4.6l31-27.1s-12.7-23.9-25.2-16.6"/>
      <path id="Path_14719" class="st25" d="M1119.1,539.8s5.7,11.9,12.9,28.4c8.1,18.5,18.1,42.8,24.1,62.5,3.2,10.4,5.2,19.6,5.2,26,0,2.2-8.4,11.1-10.9,14.5-15.4,21.4-36.3,49.9-36.3,49.9l-5.7-1.4s8-35.7,19.7-53.5c2.3-3.5,8.8-7.8,8.5-8.2,0,0,0,0,0,0-1-1.3-3.5-4.4-7-9-9.5-12.5-25.9-35.2-36.9-56.3-.7-1.3-1.4-2.6-2-3.9-5.8-11.8-9.6-22.8-9.3-31l37.7-17.8Z"/>
      <path id="Path_14720" class="st4" d="M1103.3,721l3.9,2.5c1.5.6,2.7.9,4.1,1.5,2.2,1,2.6,2.5,2.7,2.8,0,0,0,0,0,0l16.7,10.6c.8-.3,1.3-2,1.5-3.3.2-.9,0-1.8-.7-2.4-1.5-1.6-4.7-4.3-6-9.2-.8-2.8-4.9-11.5-4.9-11.5h0c-.2-.1-1-.4-5.8.3-2.5.3-3.2-4.7-3.2-4.7-.6.1-1.2.3-1.7.7-.9.5-1.6,1.4-2,2.3-.7,1.7-3.3,4-5.1,5.4-1.1.9-2,1.5-2,1.5,0,0-.8.8,2.3,3.4"/>
      <path id="Path_14721" class="st10" d="M1110.1,708.3c.5,1.3,1.7,3.8,2.9,4.8,1.6,1.4,7.8-1.1,7.8-1.1h0c-.2-.1-1-.4-5.8.3-2.5.3-3.2-4.7-3.2-4.7-.6.1-1.2.3-1.7.7"/>
      <path id="Path_14722" class="st10" d="M1103.3,721l3.9,2.5c1.5.6,2.7.9,4.1,1.5,2.2,1,2.6,2.5,2.7,2.8,0,0,0,0,0,0l16.7,10.6c.8-.3,1.3-2,1.5-3.3-.2-.8-1.9,1.6-2.4,1.8s-13.7-8.5-14.2-9.6c-1.2-2.3-3.3-4-5.8-4.8-3.2-1.1-6.3-5.5-7-6.6-1.1.9-2,1.5-2,1.5,0,0-.8.8,2.3,3.4"/>
      <path id="Path_14723" class="st12" d="M1219,600.4l-8.1-10.8-1.4,1h0s0,0,0,0l-100.5,67.9-22.4-70.1-7.6,2.4,23.1,72.3-88.1,59.5,106.1,9.2.7-7.9-83.8-7.3,68.2-43.6,18.7,58.5,7.6-2.4-2.1-6.7,5.1,3.3,84.5-125.3ZM1112.2,668.6l80.8-51.7-64.4,103.1-16.4-51.4Z"/>
      <path id="Path_14724" class="st4" d="M1087.9,641.2c-1.1.4-2.4.3-3.4-.3-35.8-21.6-85.3-13.5-99.7-10.5h0c-.7.1-1.4-.3-1.5-1,0,0,0-.2,0-.3v-2.8c0-2.1,1.6-4,3.7-4.3,7.8-1.2,25.9-3.6,36-3.7h.8c22.7,0,42.2,4.1,58.3,12.1,3.3,1.6,7.1,1.9,10.6.7l4.4-1.6c2.5-.9,5.3.4,6.2,3,0,0,0,0,0,0,.6,1.6-.3,3.4-1.9,4,0,0,0,0,0,0l-13.4,4.7Z"/>
      <path id="Path_14725" class="st21" d="M1054.7,586.7s-1.4-6.5,2.7-7,19,2.8,23,2.3,24.8-3.9,28.4-.3,2.1,6.6-5.2,7.3-17,1.9-19.8,4.2-22.8,9.2-29.1-6.5"/>
      <path id="Path_14726" class="st21" d="M1160.6,715.7l-14.9-8.6c-1.8-1-4-.4-5,1.3-1,1.8-.4,4,1.3,5,0,0,0,0,0,0l1.8,1.1-1.8,2c-7.7-7.9-20.3-8-28.1-.4s-8,20.3-.4,28.1c7.7,7.9,20.3,8,28.1.4,7.2-7,8-18.4,1.9-26.4l2.3-2.5,11.1,6.4c1.8,1,4,.4,5-1.4,1-1.8.4-4-1.3-5"/>
      <path id="Path_14727" class="st21" d="M1089.6,709.2l-.3-1.7-66.5,11.2,2.5-3.6.8.3.9-2.7,35.9-51.2-1.4-1-32.4,46.4,17.5-52.5-1.7-.6-19.4,58.1-4.1,5.9-.7-.5v-.2c0,0,1.2-1.2,1.2-1.2v-67.2h-1.8v65.7h-.4c0,0-1.7-4.7-1.7-4.7h.1c0-.1-.3-.4-.3-.4l-18.7-52.2-1.7.6,17.2,47.9-34.6-39.8-1.3,1.2,37.5,43.2,1.4,3.8-9.6-1.7-50.4-25.5-.8,1.6,45.2,22.9-50.4-8.7-.3,1.7,56.1,9.6,9.1,4.6-1.2,1.2-63.1,9.4.3,1.8,60.8-9-.5.5-55,23.6.7,1.6,51-21.9-40,40.4,1.3,1.2,43.1-43.5,4.8-2.1-34.7,54.6,1.5.9,31.6-49.7c-6.8,17.8-22.2,58.5-22.6,59.6l1.7.6c.3-1,16-42.1,24.8-65.5l1.2,3.1-5.3,63.4h1.8c0,.1,5-59.8,5-59.8,9.3,22.9,22.6,55.6,23,56.6l1.7-.6c-.3-1-15.6-38.5-22.8-56.3l32.7,51.8,1.5-.9-37.3-58.9,55.5,38.5,1-1.5-54.1-37.5,64.8-10.9ZM1018.1,715.9l-.8,1.2-4-2,4.8.8Z"/>
      <path id="Path_14728" class="st13" d="M1007.8,719.9c0-7.2,5.8-13,13-13,7.2,0,13,5.8,13,13,0,7.2-5.8,13-13,13h0c-7.2,0-13-5.8-13-13"/>
      <path id="Path_14729" class="st13" d="M1020.9,796.4c-42.2,0-76.5-34.3-76.5-76.5,0-42.2,34.3-76.5,76.5-76.5,42.2,0,76.5,34.3,76.5,76.5,0,27.1-14.4,52.2-37.8,66-11.7,6.9-25.1,10.5-38.7,10.5M1020.9,654c-36.4,0-65.9,29.5-65.9,65.9,0,36.4,29.5,65.9,65.9,65.9s65.9-29.5,65.9-65.9h0c0-36.4-29.5-65.9-65.9-65.9"/>
      <path id="Path_14730" class="st4" d="M1021.4,787.7c-37.2,0-67.4-30.2-67.4-67.4,0-37.2,30.2-67.4,67.4-67.4s67.4,30.2,67.4,67.4c0,37.2-30.2,67.4-67.4,67.4M1021.4,655.6c-35.7,0-64.7,29-64.7,64.7s29,64.7,64.7,64.7,64.7-29,64.7-64.7c0-35.7-29-64.6-64.7-64.7"/>
      <path id="Path_14731" class="st25" d="M1148.3,447.9s-10.8,6.1-9.5,21.5,15.4,39.7,26.2,45.7c8.5,4.8,33.2,12.2,33.2,12.2l.9-6.7s-20-13.1-24.4-17.6c-9.3-9.6-18.2-59-26.3-55.2"/>
      <path id="Path_14732" class="st11" d="M1147.3,482.6c-.5,3.2-1.3,6.3-2.5,9.3-.9,2.4-2,4.7-3.2,7-3.3,7-11,10.4-11.3,23.7,0,4.6-3.9,15-1.8,22.5,10.7,37-59.3,3.4-55.5-6.5,7.5-19.5,18.3-30.8,18.1-46.9,0,0,0,0,0-.1,0-.8-.2-2.9-.3-5.6-.3-6.8-.7-17.5-.8-23,0-.1,0-.3,0-.4,0-2.3-.1-4-.2-4.5,5.2-22.1,17.2-22.2,21.3-22.2,1.5,0,3.1.1,4.4.2,2.6-1.5,7-8.3,9.3-19.5l.9.4,15.7,6.7s-1.5,5.1-2.5,9.9c-.8,3.8-1.3,7.4-.7,8.4,1.2.4,2,.7,2,.7,0,0,0,0,0,0,.3.6,9.6,22.1,7.1,39.7"/>
      <path id="Path_14733" class="st25" d="M1144.7,491.9c-.9,2.4-2,4.7-3.2,7-3.3,7-11,10.4-11.3,23.7-.2,0-.5,0-.7,0-28.7,2.2-38.5-31.1-38.5-31.1,0-.8-.2-2.9-.3-5.6h51.8c.8,2,1.5,3.9,2.1,5.9"/>
      <path id="Path_14734" class="st25" d="M1141.4,423.8s-1.5,5.1-2.5,9.9c-9.1-2.2-12.2-11.6-13.2-16.6l15.7,6.7Z"/>
      <path id="Path_14735" class="st9" d="M1157.9,460.1c-.9-2.3-5.1-11.1-5.1-11.1,0,0-3.4-2.9-12.7-6.1,0,0,0,0,0,0,.2.5,4.6,14.5,3.3,17.5-1.3,3.1-29-5.7-30.6-7.9-1.3-1.8-1.7-11.3-1.8-15.1,0-.9,0-1.5,0-1.5,0,0-10.3-1-15.9,1.5,1.6,3.3,2.7,6.7,3.5,10.2,0,.5.2,1,.3,1.5.2,1.1.2,2.2.2,3.3,0,2.7-2.5,4.9-5.8,7.5-1,.8-2.1,1.7-3.3,2.6,0,.1,0,.2,0,.4.2,7.7.8,22.5,1.1,25.2,0,0-.4,5.3-.4,5.4,4.9-.2-18.6,31-7.1,32.4,3.7.5,10.1,10.7,44.8,7.7,4.4-.4,9.5-28.3,11.8-30.8.1-.1,4.3-9.4,4.5-9.3,0,0,1.8-4.3,6.8-16.1.2-.4.3-.9.5-1.3,1.6-4.7,1.1-9.5.3-13.8,1.6-1.3,3.5-2.1,5.5-2.2"/>
      <path id="Path_14736" class="st11" d="M1143.5,429s-21.8-4.2-18.9-17.7,1.9-23.1,15.9-21,15.6,7.8,15.8,12.6-7,26.9-12.8,26.2"/>
      <path id="Path_14737" class="st24" d="M1142,499.1c-.1,0-.3-.2-.4-.2-3.7-1.9-7.6-3.4-11.6-4.3-3.6-.9-7.3-1.6-11.1-2-9.2-1.1-18.6-1.4-27.8-.9,0,0,0,0,0-.1-.2-2.7-.9-20.9-1.1-28.6,0-.1,0-.3,0-.4,1.1-.9,2.3-1.8,3.3-2.6,14.1,6.8,40.6,21.6,48.7,39.1"/>
      <path id="Path_14738" class="st13" d="M1157.2,395.2c-2.5-4.8-5.2-4.4-6.9-3.5-10.5-9-20.1-1-20.1-1-2.2,5.7-6.3,10.5-11.6,13.5,0,0,3.4,3.3,13,2.8,3.1-.3,6-1.6,8.4-3.5-3.2,3.4-6.9,6.4-10.9,8.8,11.9-2.8,19.5-17,20.2-18.5,1.1,1.5,3.1,4.6,3.4,7.3.4,3.7-.6,10.8,1.5,11,0,0,6.7-9.8,3-17"/>
      <path id="Path_14739" class="st11" d="M1169.8,527.6l-1.6,6.7s-36.5-5-48.4-11.9-30-47.8-31.4-65c0-.9-.1-1.8-.1-2.6-.4-14.9,6.9-17.2,6.9-17.2,2.9-1.3,6.6,3.7,10.5,11.6,8.1,16.5,17.2,45.5,22.6,54.1,4.1,6.6,41.6,24.5,41.6,24.5"/>
      <path id="Path_14740" class="st9" d="M1105.6,449c-10-2.4-17.4,5.7-17.4,5.7-.4-14.9,6.9-17.2,6.9-17.2,2.9-1.3,6.6,3.7,10.5,11.6"/>
      <path id="Path_14741" class="st11" d="M1072.3,540.1s-16.2,25.7,3.8,39.8,87.3,20.9,84,23.6c-10.1,8.4-19.3,21.2-18.8,98.3l5,2.6s48-104.5,44.8-116.9c-2.1-8.2-72.2-52.8-118.8-47.4"/>
      <path id="Path_14742" class="st6" d="M1111.1,593.5s-39.3-7.3-45-21.2c-3.9-9.5-4.1-15.1,14.4-49.9,0,0,7.6,14.6,47.9,11.2,0,0,0,2,0,4.6,0,4.3.7,10.4,4.1,12.1,0,0,.2,0,.2,0,5.3,2.4,13.5,7.3,14.8,7.8,0,0-24.8,4.7-36.3,35.3"/>
      <path id="Path_14743" class="st13" d="M1132.5,550.3c-18-5.3-38.7-6.5-38.7-6.7,15.2-3.9,26.4-5.4,34.7-5.4,0,4.3.7,10.4,4.1,12.1"/>
      <path id="Path_14744" class="st4" d="M1134.6,705.5l4.2,2c1.5.5,2.8.5,4.3,1.1,2.3.8,2.9,2.2,3,2.5,0,0,0,0,0,0l17.9,8.6c.8-.4,1-2.1,1.1-3.4,0-.9-.3-1.7-.9-2.3-1.6-1.5-5.1-3.7-7.1-8.5-1.1-2.7-6.2-10.9-6.2-10.9h0c-.2-.1-1-.2-5.8,1-2.4.6-3.7-4.3-3.7-4.3-.6.2-1.1.5-1.6.8-.8.6-1.4,1.5-1.7,2.6-.5,1.7-2.8,4.3-4.5,6-1,1-1.8,1.7-1.8,1.7,0,0-.7.9,2.7,3.1"/>
      <path id="Path_14745" class="st10" d="M1139.8,692.1c.7,1.2,2.1,3.6,3.4,4.5,1.8,1.2,7.7-2,7.7-2h0c-.2-.1-1-.2-5.8,1-2.4.6-3.7-4.3-3.7-4.3-.6.2-1.1.5-1.6.8"/>
      <path id="Path_14746" class="st10" d="M1134.6,705.5l4.2,2c1.5.5,2.8.5,4.3,1.1,2.3.8,2.9,2.2,3,2.5,0,0,0,0,0,0l17.9,8.6c.8-.4,1-2.1,1.1-3.4-.3-.7-1.7,1.8-2.2,2s-14.6-6.8-15.2-7.8c-1.5-2.2-3.8-3.6-6.3-4.1-3.3-.7-6.9-4.7-7.7-5.7-1,1-1.8,1.7-1.8,1.7,0,0-.7.9,2.7,3.1"/>
      <path id="Path_14747" class="st4" d="M1236.1,620.7c-1.1-2.8-3.7-4.6-6.7-4.8-33-75.9-33.4-76.5-33.9-77.3l-4.8,9.5c-.3-.4,18,40.2,31.1,70-1,.4-1.4,1.5-1.1,2.5,0,0,0,0,0,0l44.6,95.5,7.4-3-36.7-92.5Z"/>
      <path id="Path_14748" class="st21" d="M1238.2,526.8c-1.6-5.3-7.1-8.3-12.4-6.7-4.1,1.2-6.9,4.9-7.1,9.1l-44.4,11.1c-3.7-4.1-10-4.3-14.1-.6-4.1,3.7-4.3,10-.6,14.1s10,4.3,14.1.6c.8-.7,1.4-1.5,1.9-2.5l50.5-12.7c5.3,1.4,10.8-1.8,12.2-7.1.5-1.8.4-3.6,0-5.4"/>
      <path id="Path_14749" class="st11" d="M1169.8,527.6s6.9,3.6,9.3,3.4c3,0,5.9.5,8.8,1.4,3.3,1.2,5.5,4.2,5.6,7.6,0,0,0,1.8-8.1-.7-1.8-.5-6,.5-7.5,0s-7.1-4.6-9.7-5.1l1.6-6.7Z"/>
      <path id="Path_14750" class="st25" d="M1199,520.7s5.5,3.6,9.3,3.4c3,0,5.9.5,8.8,1.4,3.3,1.2,5.5,4.2,5.6,7.6,0,0-.1,2.5-8.1-.7-2.2-.9-6,.5-7.5,0s-6.8-4.6-10.4-5.6l2.3-6.2Z"/>
      <path id="Path_14751" class="st21" d="M1339.1,709.2l-.3-1.7-66.5,11.2,2.5-3.6.8.3.9-2.7,35.9-51.2-1.5-1-32.4,46.4,17.5-52.5-1.7-.6-19.4,58.1-4.1,5.9-.7-.5v-.2c0,0,1.2-1.2,1.2-1.2v-67.2h-1.8v65.7h-.4c0,0-1.7-4.7-1.7-4.7h.1c0-.1-.3-.4-.3-.4l-18.7-52.2-1.7.6,17.2,47.9-34.6-39.8-1.3,1.2,37.5,43.2,1.4,3.8-9.6-1.7-50.4-25.5-.8,1.6,45.2,22.9-50.4-8.7-.3,1.7,56.1,9.6,9.1,4.6-1.2,1.2-63.1,9.4.3,1.8,60.8-9-.5.5-55,23.6.7,1.6,51-21.9-40,40.4,1.3,1.2,43.1-43.5,4.8-2.1-34.7,54.6,1.5.9,31.6-49.7c-6.8,17.8-22.2,58.5-22.6,59.6l1.7.6c.3-1,16-42.1,24.8-65.5l1.2,3.1-5.3,63.4h1.8c0,.1,5-59.8,5-59.8,9.3,22.9,22.6,55.6,23,56.6l1.7-.6c-.3-1-15.6-38.5-22.8-56.3l32.7,51.8,1.5-.9-37.3-58.9,55.5,38.5,1-1.5-54.1-37.5,64.8-10.9ZM1267.6,715.9l-.8,1.2-4-2,4.8.8Z"/>
      <path id="Path_14752" class="st13" d="M1257.3,719.9c0-7.2,5.8-13,13-13,7.2,0,13,5.8,13,13,0,7.2-5.8,13-13,13h0c-7.2,0-13-5.8-13-13"/>
      <path id="Path_14753" class="st13" d="M1270.4,796.4c-42.2,0-76.5-34.3-76.5-76.5,0-42.2,34.3-76.5,76.5-76.5,42.2,0,76.5,34.3,76.5,76.5,0,27.1-14.4,52.2-37.8,66-11.7,6.9-25.1,10.5-38.7,10.5M1270.4,654c-36.4,0-65.9,29.5-65.9,65.9,0,36.4,29.5,65.9,65.9,65.9s65.9-29.5,65.9-65.9h0c0-36.4-29.5-65.9-65.9-65.9"/>
      <path id="Path_14754" class="st4" d="M1271,787.7c-37.2,0-67.4-30.2-67.4-67.4,0-37.2,30.2-67.4,67.4-67.4,37.2,0,67.4,30.2,67.4,67.4h0c0,37.2-30.2,67.4-67.4,67.4M1271,655.6c-35.7,0-64.7,29-64.7,64.7,0,35.7,29,64.7,64.7,64.7s64.7-29,64.7-64.7c0-35.7-29-64.6-64.7-64.7"/>
      <path id="Path_14755" class="st25" d="M1560.6,730.1l-6.6-1.3s15.8-62.4,13.6-67.5c-1.8-4.3-19.9-7.4-28.8-14.8-1.8-1.4-3.2-3.3-4.2-5.4-2.8-6.8-1.6-14.5,3-20.2,10.5,2.5,20.8,5.9,30.9,10,10.5,4.5,20.1,10.3,22.8,17,6.4,16.3-30.7,82.2-30.7,82.2"/>
      <path id="Path_14756" class="st21" d="M1578.6,739.7c-.1-.7-.6-1.3-1.2-1.6-1.6-.9-4.8-2.1-7.2-5.3-1.4-1.8-6.9-7.1-6.9-7.1h0c-.1,0-.9,0-4.4,1.4-1.8.7-3.7-2.7-3.7-2.7-.4.2-.8.5-1.1.8-.5.6-.9,1.3-.9,2.1,0,1.3-1.5,3.5-2.5,4.9-.6.9-1.1,1.5-1.1,1.5,0,0-.4.7,2.7,1.9l3.7,1c1.3.1,2.3,0,3.6.3,1.1,0,2.1.6,2.9,1.4,0,0,0,0,0,0l15.8,4.1c.5-.4.4-1.7.3-2.6"/>
      <path id="Path_14757" class="st9" d="M1633.1,649.6l-6.7-6.9.6-1.2-1.1.7h0s0,0,0,0l-75.5,51.1-16.8-52.7-5.7,1.8,17.4,54.3-66.2,44.8,79.8,6.9.5-6-63-5.5,51.2-32.8,14.1,44,5.7-1.8-1.6-5,3.8,2.5,63.5-94.2ZM1552.8,700.9l60.8-38.9-48.4,77.5-12.4-38.6Z"/>
      <path id="Path_14758" class="st21" d="M1645.9,664.9c-1.1-2.7-4.1-4.2-6.9-3.5-8.7-22.6-11.6-30.1-12.7-32.6l7.1-4.5c3.3-.2,5.9-3.2,5.6-6.5s-3.2-5.9-6.5-5.6c-3.3.2-5.9,3.2-5.6,6.5,0,.4.1.8.2,1.2l-14.1,9c-2.9-1.7-6.6-.7-8.3,2.2-1.7,2.9-.7,6.6,2.2,8.3,2.9,1.7,6.6.7,8.3-2.2.3-.5.6-1.1.7-1.8l5.3-3.4c1.9,4.7,8.4,20.7,12.5,31.4l34.2,73.2,5.5-2.3-27.6-69.5Z"/>
      <path id="Path_14759" class="st21" d="M1497.4,739.3c0-.3,0-.6,0-1l41.9-7-.2-1.3-41.9,7c-.5-2.1-1.7-4-3.4-5.4l25.4-36.3-1.1-.8-24.4,34.9,13.2-39.5-1.3-.4-13.7,41c-1.1-.6-2.4-.9-3.7-1v-43.8h-1.3v43.8c-.7,0-1.5.2-2.2.4l-13.6-37.8-1.3.4,12.9,36-26-29.9-1,.9,27.1,31.2c-1.4.8-2.6,1.9-3.5,3.2l-1.5-.3-37.9-19.2-.6,1.2,34,17.2-37.9-6.5-.2,1.3,42.2,7.3,1.1.6c-.5,1.2-.8,2.5-.8,3.8,0,.3,0,.5,0,.8l-41.9,6.2.2,1.3,41.9-6.2c0,.4.2.8.3,1.2l-38.2,16.4.5,1.2,38.2-16.4h0s-30,30.3-30,30.3l.9.9,29.8-30c.6.9,1.3,1.6,2.2,2.2l-22,34.6,1.1.7,22-34.6c.2,0,.4.2.6.3-5.5,14.5-15.6,41-15.8,41.8l1.3.4c.2-.7,9.1-24,15.8-41.7.9.3,1.9.4,2.9.4.2,0,.3,0,.5,0l-3.5,42h1.3c0,.1,3.5-42.2,3.5-42.2.4,0,.8-.2,1.2-.3,6.9,17,16,39.4,16.3,40.1l1.3-.4c-.2-.7-10.6-26.1-16.3-40.2.1,0,.2-.1.4-.2l23.4,37,1.1-.7-23.4-37c.9-.7,1.7-1.5,2.4-2.5l34.7,24.1.8-1.1-34.8-24.1c.6-1.3,1-2.8,1-4.3"/>
      <path id="Path_14760" class="st13" d="M1487.6,796.8c-31.8,0-57.5-25.8-57.5-57.5,0-31.8,25.8-57.5,57.5-57.5,31.8,0,57.5,25.8,57.5,57.5,0,20.4-10.8,39.3-28.4,49.6-8.8,5.2-18.9,7.9-29.1,7.9M1487.6,689.7c-27.4,0-49.6,22.2-49.6,49.6s22.2,49.6,49.6,49.6,49.6-22.2,49.6-49.6h0c0-27.4-22.2-49.5-49.6-49.6"/>
      <path id="Path_14761" class="st21" d="M1682.6,739.3c0-.3,0-.6,0-1l41.9-7-.2-1.3-41.9,7c-.5-2.1-1.7-4-3.4-5.4l25.4-36.3-1.1-.8-24.4,34.9,13.2-39.5-1.3-.4-13.7,41c-1.1-.6-2.4-.9-3.7-1v-43.8h-1.3v43.8c-.7,0-1.5.2-2.2.4l-13.6-37.8-1.3.4,12.9,36-26-29.9-1,.9,27.1,31.2c-1.4.8-2.6,1.9-3.5,3.2l-1.5-.3-37.9-19.2-.6,1.2,34,17.2-37.9-6.5-.2,1.3,42.2,7.3,1.1.6c-.5,1.2-.8,2.5-.8,3.8,0,.3,0,.5,0,.8l-41.9,6.2.2,1.3,41.9-6.2c0,.4.2.8.3,1.2l-38.2,16.4.5,1.2,38.2-16.4h0s-30,30.3-30,30.3l.9.9,29.8-30c.6.9,1.3,1.6,2.2,2.2l-22,34.6,1.1.7,22-34.6c.2,0,.4.2.6.3-5.5,14.5-15.6,41-15.8,41.8l1.3.4c.2-.7,9.1-24,15.8-41.7.9.3,1.9.4,2.9.4.2,0,.3,0,.5,0l-3.5,42h1.3c0,.1,3.5-42.2,3.5-42.2.4,0,.8-.2,1.2-.3,6.9,17,16,39.4,16.3,40.1l1.3-.4c-.2-.7-10.6-26.1-16.3-40.2.1,0,.2-.1.4-.2l23.4,37,1.1-.7-23.4-37c.9-.7,1.7-1.5,2.4-2.5l34.7,24.1.8-1.1-34.8-24.1c.6-1.3,1-2.8,1-4.3"/>
      <path id="Path_14762" class="st13" d="M1672.8,796.8c-31.8,0-57.5-25.8-57.5-57.5,0-31.8,25.8-57.5,57.5-57.5,31.8,0,57.5,25.8,57.5,57.5,0,20.4-10.8,39.3-28.4,49.6-8.8,5.2-18.9,7.9-29.1,7.9M1672.8,689.7c-27.4,0-49.6,22.2-49.6,49.6s22.2,49.6,49.6,49.6,49.6-22.2,49.6-49.6h0c0-27.4-22.2-49.6-49.6-49.6"/>
      <path id="Path_14763" class="st18" d="M1534.5,680.2c-.8.3-1.8.2-2.5-.3-26.9-16.3-64.2-10.2-74.9-7.9h0c-.5.1-1-.2-1.1-.7,0,0,0-.1,0-.2v-2.1c0-1.6,1.2-3,2.8-3.2,5.8-.9,19.4-2.7,27.1-2.8h.6c17,0,31.8,3.1,43.8,9.1,2.5,1.2,5.3,1.4,7.9.5l3.3-1.2c1.9-.7,4,.3,4.6,2.2.4,1.2-.2,2.6-1.4,3,0,0,0,0,0,0l-10.1,3.5Z"/>
      <path id="Path_14764" class="st21" d="M1509.5,639.3s-1.1-4.9,2-5.2,14.3,2.1,17.3,1.7,18.6-2.9,21.4-.2,1.6,5-3.9,5.5-12.8,1.4-14.9,3.2-17.1,6.9-21.9-4.9"/>
      <path id="Path_14765" class="st13" d="M1595.8,757h-5.5l-11.6-5.3c2.5-7.9-1.9-16.3-9.8-18.8-7.9-2.5-16.3,1.9-18.8,9.8-2.5,7.9,1.9,16.3,9.8,18.8,7,2.2,14.6-1,17.9-7.6l6.8,3.1h-1.9c-1.5,0-2.8,1.2-2.8,2.8s1.2,2.8,2.8,2.8h13c1.5,0,2.8-1.2,2.8-2.8s-1.2-2.8-2.8-2.8"/>
      <path id="Path_14766" class="st25" d="M1624.2,615s0,0,0,0c-5-2.7-31.5-17.3-32.7-20.8-.7-2.2-4.1-11.3-7.7-19.4-.9-2-2.2-1.8-3.1-3.6-2-3.9-9.6-.7-11-1.3-4.7-2.2-10-4-10,.7,0,0,1.3,3.5,3.4,8.2.8,1.9,1.8,4,2.7,6.2,4.1,9,9.5,19.3,13.2,21.2,6,3,28.8,12.6,37.6,14.2h0s4.3,4.2,5.2,5c1.4,1.1,3.4,1.5,5.1,1,2.1-.7,2-4.1,2.1-5,0-3-2-5.7-4.9-6.4"/>
      <path id="Path_14767" class="st11" d="M1557,562.7l16.5,6.1c2.3-2.5,4.3-5.3,5.9-8.3,2.1-3.7,3.6-7,3.6-7l-11.6-8.1-5.1-3.6c-.2,7.4-9.4,20.9-9.4,20.9"/>
      <path id="Path_14768" class="st25" d="M1566,545.7s4.2,11.5,13.4,14.9c2.1-3.7,3.6-7,3.6-7l-11.6-8.1-5.4.2Z"/>
      <path id="Path_14769" class="st11" d="M1588.2,553.3s-20.5,3.2-22.3-9.6-5.7-21,7.3-23.5,16.2,1.9,17.8,6,2.3,25.9-2.9,27.1"/>
      <path id="Path_14770" class="st13" d="M1558.3,517.9c.6.2,1.2.5,1.7,1h0c0-2.8,2.8-5.6,2.8-5.6-1.3,1.6-.9,4.7-.9,4.7,3.9-6.6,22.6-1.4,24.4-1s3-2.2,3-2.2c2.8,2.4,3.8,8.3,1.5,12.1s-9.8,9.5-11.9,8.4-2.2,1.1-2,4.3-5.3,8.4-9.1,9.1c-3.1.6-3.3-1.5-4.2-2.8-.2-.3-.5-.6-.7-.9-4.2-3.8-6.5-11.3-5.6-18.8.3-2.3,1.1-4.6,2.3-6.6-.3-.6-.7-1.2-1.2-1.7"/>
      <path id="Path_14771" class="st10" d="M1568.5,630.9c-.2.9-2.5,8.5-8.3,10.5-3.8,1.3-13.1,4.4-21.3,5-1.8-1.4-3.2-3.3-4.2-5.4-2.8-6.8-1.6-14.5,3-20.2,10.5,2.5,20.8,5.9,30.9,10"/>
      <path id="Path_14772" class="st11" d="M1523.3,604.7s-17.8,18.4-2.6,39.9,40,38.8,41.4,46.4c2.6,14.8,18.4,45.4,25.9,60.5l6.4-2.5s-12.1-71.7-16.4-80.3-26.5-48.8-26.5-48.8l-28.2-15.3Z"/>
      <path id="Path_14773" class="st24" d="M1583.9,573.8c-1.6.5-5.5,2-6.5,3.7-1.1,1.8-12.4-3.1-13.8-7.7,3.2-3.6,8.8-6.6,12.1-5.6,1.9.6,5,4.6,8.2,9.6"/>
      <path id="Path_14774" class="st8" d="M1518.7,609.9s21.5,15.3,35.9,14.5c0,0,9.4,16.1,11.5,21.4,0,0-24.5,12.2-37.2,10,0,0-16.6-16.1-15.6-27.4.5-6.5,2.3-12.8,5.4-18.5"/>
      <path id="Path_14775" class="st9" d="M1577.7,581.1l-5.2,7.3-.4.9-10.7,24.5-5.5,12.5c-3.7.9-10.5.3-13.5-.8-16.6-5.7-23.8-15.6-23.8-15.6,9.6-25.2,23-42.4,25.7-45.4,4.7-5.2,17.2-9.4,17.2-9.4,3.4,3.5,15.6,9.6,15.6,9.6,2.7,2.1.6,16.3.6,16.3"/>
      <path id="Path_14776" class="st24" d="M1572.1,589.4l-10.7,24.5c-8.1-16.4-3-40.3-3-40.3,0,0,13.1,11.3,13.5,12.2.1,1.2.2,2.4.2,3.6"/>
      <path id="Path_14777" class="st11" d="M1620.6,618.6s0,0,0,0c-5-2.7-31.5-17.3-32.7-20.8-.7-2.2-4.1-11.3-7.7-19.4-.9-2-1.9-4-2.8-5.8-2-3.9-3.9-6.8-5.4-7.5-4.7-2.2-15.9,4.3-15.9,9,0,0,1.3,3.5,3.4,8.2.8,1.9,1.8,4,2.7,6.2,4.1,9,9.5,19.3,13.2,21.2,6,3,28.8,12.6,37.6,14.2h0s4.3,4.2,5.2,5c1.4,1.1,3.4,1.5,5.1,1,2.1-.7,2.5-3.5,2.6-4.4s1-5.5-5.4-7"/>
      <path id="Path_14778" class="st9" d="M1580.1,578.4c-4.3,2-12.1,5.8-17.9,10.2-1-2.2-1.9-4.3-2.7-6.2-2.1-4.8-3.4-8.2-3.4-8.2,0-4.7,11.2-11.2,15.9-9,1.4.7,3.3,3.6,5.4,7.5.9,1.8,1.9,3.8,2.8,5.8"/>
      <path id="Path_14779" class="st9" d="M1585.4,757.4h3.9c1.3-.2,2.2-.5,3.6-.7,1.1-.2,2.2,0,3.1.7,0,0,0,0,0,0h16.4c.4-.5,0-1.7-.4-2.6-.3-.6-.9-1.1-1.5-1.2-1.7-.4-5.2-.8-8.3-3.3-1.8-1.4-8.5-5.2-8.5-5.2h0c-.1,0-.9.2-3.9,2.5-1.6,1.2-4.3-1.7-4.3-1.7-.4.3-.7.7-.9,1.1-.4.7-.5,1.5-.4,2.2.2,1.3-.5,3.7-1.2,5.4-.4,1-.7,1.7-.7,1.7,0,0-.2.8,3.1,1.2"/>
      <path id="Path_14780" class="st21" d="M1584.5,746.9c1.3.9,2.7,1.5,4.1,1.8,1.7.2,5-3.7,5-3.7h0c-.1,0-.9.2-3.9,2.5-1.6,1.2-4.3-1.7-4.3-1.7-.4.3-.7.7-.9,1.1"/>
      <path id="Path_14781" class="st21" d="M1585.4,757.4h3.9c1.3-.2,2.2-.5,3.6-.7,1.1-.2,2.2,0,3.1.7,0,0,0,0,0,0h16.4c.4-.5,0-1.7-.4-2.6-.5-.4-.6,1.7-.9,2s-13.3.1-14.1-.4c-1.9-1-4.1-1.2-6.2-.7-2.7.6-6.8-.9-7.8-1.3-.4,1-.7,1.7-.7,1.7,0,0-.2.8,3.1,1.2"/>
    </g>
  </g>
  <g>
    <g>
      <path class="st3" d="M1325.7,299.2c-.3-16.8-14.2-30.2-31-29.9-.4,0-.8,0-1.1,0-16.7.3-30,14.2-29.7,30.9.2,4.7,1.1,9.4,2.6,13.9,9.2,19.5,19.1,39.7,28.4,59.6,9.5-19.9,19-39.8,28.4-59.6,1.5-4.5,2.3-9.2,2.6-13.9,0-.3,0-.7,0-1ZM1294.8,308.3c-5.3,0-9.6-4.3-9.6-9.6,0-5.3,4.2-9.6,9.5-9.6,0,0,0,0,.1,0,5.3,0,9.6,4.3,9.6,9.6s-4.3,9.6-9.6,9.6Z"/>
      <path class="st14" d="M1321.6,297.8c-.3-14.6-12.3-26.2-26.9-26-.3,0-.7,0-1,0-14.5.3-26.1,12.3-25.8,26.9.2,4.1.9,8.2,2.2,12.1,8,17,16.6,34.4,24.6,51.8,8.3-17.3,16.5-34.5,24.6-51.8,1.3-3.9,2-8,2.2-12.1,0-.3,0-.6,0-.9ZM1294.8,308.3c-5.3,0-9.6-4.3-9.6-9.6,0-5.3,4.2-9.6,9.5-9.6,0,0,0,0,.1,0,5.3,0,9.6,4.3,9.6,9.6s-4.3,9.6-9.6,9.6Z"/>
    </g>
    <g>
      <path class="st16" d="M1695.9,477c-.2-11.4-9.7-20.6-21.1-20.4-.3,0-.5,0-.8,0-11.4.2-20.5,9.7-20.2,21.1.1,3.2.7,6.4,1.7,9.5,6.3,13.3,13,27,19.3,40.6,6.5-13.5,12.9-27.1,19.3-40.6,1-3.1,1.6-6.3,1.7-9.5,0-.2,0-.5,0-.7ZM1674.9,483.2c-3.6,0-6.5-2.9-6.5-6.5,0-3.6,2.9-6.5,6.5-6.5,0,0,0,0,0,0,3.6,0,6.5,2.9,6.5,6.5s-2.9,6.5-6.5,6.5Z"/>
      <path class="st14" d="M1693.2,476.1c-.2-9.9-8.4-17.9-18.3-17.7-.2,0-.5,0-.7,0-9.9.2-17.8,8.4-17.6,18.3.1,2.8.6,5.6,1.5,8.2,5.4,11.6,11.3,23.5,16.8,35.3,5.6-11.8,11.2-23.5,16.8-35.3.9-2.7,1.4-5.4,1.5-8.2,0-.2,0-.4,0-.6ZM1674.9,483.2c-3.6,0-6.5-2.9-6.5-6.5,0-3.6,2.9-6.5,6.5-6.5,0,0,0,0,0,0,3.6,0,6.5,2.9,6.5,6.5s-2.9,6.5-6.5,6.5Z"/>
    </g>
    <g>
      <path class="st1" d="M1830.3,563.9c-.2-12-10.1-21.5-22.1-21.3-.3,0-.5,0-.8,0-11.9.2-21.4,10.1-21.2,22.1.2,3.4.8,6.7,1.8,9.9,6.6,13.9,13.6,28.3,20.2,42.5,6.8-14.2,13.5-28.4,20.2-42.6,1.1-3.2,1.7-6.6,1.8-9.9,0-.2,0-.5,0-.7ZM1808.3,570.4c-3.8,0-6.8-3.1-6.8-6.8,0-3.8,3-6.8,6.8-6.8,0,0,0,0,0,0,3.8,0,6.8,3.1,6.8,6.8s-3.1,6.8-6.8,6.8Z"/>
      <path class="st14" d="M1827.4,562.9c-.2-10.4-8.8-18.7-19.2-18.5-.2,0-.5,0-.7,0-10.4.2-18.6,8.8-18.4,19.2.1,2.9.7,5.8,1.6,8.6,5.7,12.1,11.8,24.6,17.6,37,5.9-12.3,11.8-24.6,17.6-37,.9-2.8,1.5-5.7,1.6-8.6,0-.2,0-.4,0-.6ZM1808.3,570.4c-3.8,0-6.8-3.1-6.8-6.8,0-3.8,3-6.8,6.8-6.8,0,0,0,0,0,0,3.8,0,6.8,3.1,6.8,6.8s-3.1,6.8-6.8,6.8Z"/>
    </g>
  </g>
</svg>