<svg xmlns="http://www.w3.org/2000/svg" xmlns:xlink="http://www.w3.org/1999/xlink" width="106.529" height="95.133" viewBox="0 0 106.529 95.133">
  <defs>
    <clipPath id="clip-path">
      <rect id="Rectangle_6009" data-name="Rectangle 6009" width="106.529" height="95.133" transform="translate(0 0)" fill="#e1f2df"/>
    </clipPath>
    <clipPath id="clip-path-2">
      <rect id="Rectangle_6315" data-name="Rectangle 6315" width="68" height="68" transform="translate(0.291 0.291)" fill="#65c65e" stroke="#64c65f" stroke-width="1"/>
    </clipPath>
  </defs>
  <g id="ico_licencia_negocio" transform="translate(-255 -816)">
    <g id="Group_2316" data-name="Group 2316" transform="translate(255 816)">
      <g id="Group_2315" data-name="Group 2315" clip-path="url(#clip-path)">
        <path id="Path_13803" data-name="Path 13803" d="M106.411,39.956a19.078,19.078,0,0,0-2.023-10.75C102.112,24.633,96.869,21,92.361,18.054a64.186,64.186,0,0,0-9.439-8.911A43.17,43.17,0,0,0,49.711.528C40.144,2.03,30.1,6.794,21.979,12.063,13.441,17.6,7.189,24.609,5.025,34.218a43.41,43.41,0,0,0-3.277,9.489C-.894,54.976-1.146,66.725,5.289,76.867c6.659,10.49,17.372,17.329,29.87,18.182a38.457,38.457,0,0,0,30.382-12.06A51.944,51.944,0,0,0,73.813,71.2c.959-1.907,1.729-3.9,2.654-5.822.469-.974.946-1.945,1.495-2.878.238-.382.427-.686.572-.915l.068-.029c-.382.609-.215.538.511-.223l.675-.3c.676-.3,1.346-.633,2.017-.955-.673.355,2.882-1.1,3.693-1.408,1.4-.524,2.858-1.052,4.323-1.62a13.039,13.039,0,0,0,8.9-1.771c5.065-3.115,8.488-9.376,7.689-15.322" fill="#e1f2df"/>
      </g>
    </g>
    <g id="Group_6015" data-name="Group 6015" transform="translate(273.709 829.709)">
      <g id="Group_6014" data-name="Group 6014" clip-path="url(#clip-path-2)">
        <path id="Path_14276" data-name="Path 14276" d="M10.994,0A10.9,10.9,0,0,0,0,10.973a15.655,15.655,0,0,0,.857,4.908Q5.27,25.368,9.73,34.87a1.406,1.406,0,0,0,1.243.793h19.2a6.172,6.172,0,1,1,0,12.345H19.889a10.287,10.287,0,1,0,0,20.574H56.237a1.4,1.4,0,0,0,1.243-.793c3.339-7.124,6.828-14.2,10.138-21.325a16.638,16.638,0,0,0,.964-5.315,12.345,12.345,0,1,0-24.689,0,16.727,16.727,0,0,0,.964,5.315q4.584,9.682,9.216,19.374H19.889a7.544,7.544,0,0,1,0-15.088H30.176a8.916,8.916,0,0,0,0-17.831H13.137c2.643-5.683,5.354-11.346,7.951-17.038a15.769,15.769,0,0,0,.857-4.908A10.867,10.867,0,0,0,10.994,0Zm0,2.743a7.993,7.993,0,0,1,8.209,8.23,16.047,16.047,0,0,1-.686,3.943c-2.5,5.375-5.027,10.747-7.544,16.117-2.457-5.4-5-10.616-7.544-16.117a15.975,15.975,0,0,1-.686-3.943,8.03,8.03,0,0,1,8.251-8.23m-.021,3.429a4.8,4.8,0,1,0,4.8,4.8,4.822,4.822,0,0,0-4.8-4.8m0,2.743a2.057,2.057,0,1,1-2.057,2.057,2.037,2.037,0,0,1,2.057-2.057M56.216,31.548a9.454,9.454,0,0,1,9.623,9.6,16.142,16.142,0,0,1-.793,4.33Q60.665,54.74,56.237,64c-2.878-6.2-5.955-12.447-8.809-18.517a16.2,16.2,0,0,1-.793-4.33A9.417,9.417,0,0,1,56.216,31.548Zm.021,3.429a6.172,6.172,0,1,0,6.172,6.172,6.193,6.193,0,0,0-6.172-6.172m0,2.743a3.429,3.429,0,1,1-3.429,3.429,3.409,3.409,0,0,1,3.429-3.429" fill="#65c65e" stroke="#64c65f" stroke-width="1"/>
      </g>
    </g>
  </g>
</svg>
