<svg id="e1DCXLgpHMI1" xmlns="http://www.w3.org/2000/svg" xmlns:xlink="http://www.w3.org/1999/xlink" viewBox="0 0 1921.002 500" shape-rendering="geometricPrecision" text-rendering="geometricPrecision" style="background-color:transparent"><path d="M70.132,-51.006191v-338.972557h5.383v-.72438h78.326v-37.129104h18.335v-63.839832h98.3v63.839832h91.9v-104.02588h101.419v67.536026h23.129v-80.622843h101.414v80.622843h128.262v74.349529h93.62v-122.070364h57.971v-38.87814h21.827v-.078939h97.056v125.419846h28.8v35.599858h137.067v-122.070364h21.829v-.063461h97.056v43.402418h89.158v78.731407h10.416v-5.369387h83.23v-37.127556h19.483v-63.839832h73.034v-31.775195h12.222l-.009,31.782934h19.207v63.839832h97.656v-104.02588h107.764v67.529834h24.576v-80.621295h107.763v151.158543l73.809,1.007631-.773,325.907409h-.566v20.513257L70.132,-51.006191Z" transform="translate(-69.632 551.5)" fill="#f4f4f4" stroke="rgba(0,0,0,0)"/></svg>
