<svg id="logo_bloomberg" xmlns="http://www.w3.org/2000/svg" xmlns:xlink="http://www.w3.org/1999/xlink" width="134.896" height="42.008" viewBox="0 0 134.896 42.008">
  <defs>
    <clipPath id="clip-path">
      <rect id="Rectangle_11" data-name="Rectangle 11" width="134.896" height="42.008" fill="none"/>
    </clipPath>
  </defs>
  <g id="Group_5" data-name="Group 5" clip-path="url(#clip-path)">
    <path id="Path_21" data-name="Path 21" d="M5.206,90.706H8.245a6.393,6.393,0,0,0,3.821-.961,3.752,3.752,0,0,0,1.542-3.15,4.172,4.172,0,0,0-1.564-3.33A6.592,6.592,0,0,0,8.156,82.3H0v.581H1.9V97.5H0v.581H7.307V97.5h-2.1Zm0-7.821H7.2a2.674,2.674,0,0,1,2.346.916,4.67,4.67,0,0,1,.536,2.7c0,1.922-.558,2.726-.894,2.972a3.556,3.556,0,0,1-1.922.581H5.206Zm12.714-.715c-.38.045-.827.112-2.078.179-.916.045-1.676.045-2.279.045V83h1.609V97.5H13.563v.581h5.7V97.5H17.9V93.432c.022-1.273.045-2.7,1.318-3.575a2.163,2.163,0,0,1,1.274-.4c1.229,0,1.341,1.006,1.318,2.145v5.9H20.58v.581h5.475V97.5H24.579V91.51a2.984,2.984,0,0,0-.6-2.212,2.985,2.985,0,0,0-2.346-.827,4.557,4.557,0,0,0-3.709,1.9Zm8.549,7.15h1.519V97.5H26.47v.581h5.743V97.5h-1.43v-8.96c-1.05.067-1.631.112-2.19.156-.581.022-1.117.044-2.123.044Zm1.006-4.692a1.609,1.609,0,1,0,1.609-1.609,1.6,1.6,0,0,0-1.609,1.609M37,82.17a16.418,16.418,0,0,1-2.413.223c-.8.022-1.542.022-1.966.022v.626h1.564V97.5H32.621v.581h5.854V97.5H37ZM47.458,91.4a2.3,2.3,0,0,0-1.5-2.525,5.934,5.934,0,0,0-2.235-.4c-2.167,0-3.91,1.005-3.91,2.435a1.191,1.191,0,0,0,1.251,1.229,1.241,1.241,0,0,0,1.273-1.252,1.019,1.019,0,0,0-.112-.447c-.067-.178-.2-.313-.268-.491a.511.511,0,0,1-.067-.246c0-.2.335-.648,1.341-.648,1.5,0,1.564.76,1.564,1.7v1.765a9.19,9.19,0,0,0-4.469,1.207,2.9,2.9,0,0,0-1.3,2.347c0,.692.335,2.256,2.637,2.256A3.972,3.972,0,0,0,44.8,96.783a2.256,2.256,0,0,0,2.056,1.541,2.992,2.992,0,0,0,2.19-1.116l-.358-.492a1.2,1.2,0,0,1-.67.335c-.536,0-.559-.648-.559-1.162ZM44.8,94.862a2.06,2.06,0,0,1-.626,1.81,1.645,1.645,0,0,1-.983.357,1.563,1.563,0,0,1-1.52-1.721c0-1.988,1.944-2.1,3.128-2.168Zm8.737-6.324c-1.654.067-2.95.2-4.313.2v.581h1.519V97.5H49.223v.581h5.742V97.5h-1.43V93.343a8.434,8.434,0,0,1,.089-1.81A2.741,2.741,0,0,1,55.971,89.5c1.363,0,1.363,1.207,1.363,2.458V97.5H56.083v.581h5.5V97.5H60.1V91.532c0-.983,0-2.368-1.81-2.882a4.475,4.475,0,0,0-1.274-.178,4.521,4.521,0,0,0-1.7.335,4.127,4.127,0,0,0-1.787,1.385Zm11.78-3.553h-.626c-1.3,2.816-2.681,3.508-3.687,3.978v.357h1.609l-.045,6.391c0,.983.022,2.637,2.279,2.637,2.324,0,2.86-1.609,3.173-2.682l-.626-.134c-.268.894-.626,1.631-1.3,1.631-.76,0-.782-.827-.782-1.364V89.32h1.944v-.581H65.315Zm6.7-2.815c-.38.045-.827.112-2.078.179-.916.045-1.676.045-2.279.045V83H69.27V97.5H67.661v.581h5.7V97.5H72V93.432c.022-1.273.044-2.7,1.318-3.575a2.163,2.163,0,0,1,1.274-.4c1.229,0,1.341,1.006,1.318,2.145v5.9H74.678v.581h5.474V97.5H78.678V91.51a2.575,2.575,0,0,0-2.95-3.039,4.556,4.556,0,0,0-3.709,1.9Zm12.2,6.368a41.208,41.208,0,0,1-4.4.2v.581h1.519V97.5H79.817v.581h6.19V97.5H84.152V93.253a5.294,5.294,0,0,1,.893-3.084s.715-.916,1.028-.916c.156,0,.313.112.313.223,0,.068-.067.134-.112.224a1.289,1.289,0,0,0-.291.827,1.349,1.349,0,0,0,1.43,1.319,1.435,1.435,0,0,0,1.5-1.52,1.821,1.821,0,0,0-1.967-1.855,2.588,2.588,0,0,0-2.077.983,6.64,6.64,0,0,0-.693,1.006Zm15.44,4.67a5.013,5.013,0,0,0-5.229-4.736c-2.279,0-5.362,1.43-5.362,4.894,0,2.5,1.832,4.96,5.429,4.96a4.689,4.689,0,0,0,5.162-5.117m-3.039.023c.022,2.19.022,4.648-2.19,4.648a2.021,2.021,0,0,1-1.855-1.118c-.178-.313-.4-.782-.4-3.441,0-1.967.044-4.29,2.234-4.29a1.976,1.976,0,0,1,1.922,1.229c.134.29.268.6.29,2.972m7.351-4.693a23.219,23.219,0,0,1-4.335.2v.6h1.453V104H99.636v.626h6.1V104h-1.81V96.739a3.657,3.657,0,0,0,3.016,1.609,3.931,3.931,0,0,0,3.262-1.7,4.886,4.886,0,0,0,.983-3.084c0-3.641-2.48-5.094-4.38-5.094a3.488,3.488,0,0,0-2.883,1.631Zm4.134,4.67c.044,2.7-.246,4.4-1.743,4.4a2.66,2.66,0,0,1-2.1-1.564,5.785,5.785,0,0,1-.469-2.614c0-2.5.826-3.307,1.34-3.709a1.932,1.932,0,0,1,1.14-.424c1.05,0,1.408.916,1.564,1.519a10.76,10.76,0,0,1,.268,2.39m3.463-3.887h1.519V97.5h-1.519v.581h5.743V97.5h-1.43v-8.96c-1.05.067-1.632.112-2.19.156-.581.022-1.117.044-2.123.044Zm1.006-4.692a1.609,1.609,0,1,0,1.608-1.609,1.6,1.6,0,0,0-1.608,1.609m14.412,8.179a4.962,4.962,0,0,0-1.206-2.95,4.524,4.524,0,0,0-3.33-1.385,4.771,4.771,0,0,0-4.938,4.916,4.853,4.853,0,0,0,5.117,4.961,4.529,4.529,0,0,0,4.245-2.838l-.558-.268c-.559.894-1.5,2.414-3.4,2.414-2.235,0-2.3-2.235-2.324-3.084-.022-.6,0-1.184,0-1.765Zm-6.323-1.855c.089-.893.223-1.966,1.787-1.966,1.452,0,1.52,1.1,1.587,1.877v1.3h-3.4Zm13.585.268v-2.86h-.626c-.045.492-.067.715-.469.715a.891.891,0,0,1-.514-.178,3.773,3.773,0,0,0-1.766-.424,2.845,2.845,0,0,0-2.994,3.016c0,2.19,1.586,2.7,3.016,3.173.916.268,2.525.47,2.525,1.654,0,.715-.737,1.43-1.9,1.43a3.059,3.059,0,0,1-2.078-.827,3.579,3.579,0,0,1-1.028-2.234h-.648v3.4h.648c-.022-.157-.044-.6.357-.6a2.022,2.022,0,0,1,.715.335,3.971,3.971,0,0,0,1.966.537,3.3,3.3,0,0,0,3.442-3.375c0-2.055-1.721-2.547-2.794-2.859l-.67-.179a5.258,5.258,0,0,1-1.564-.6,1.226,1.226,0,0,1-.424-.916A1.455,1.455,0,0,1,131.03,89.1a2.917,2.917,0,0,1,1.654.537,2.492,2.492,0,0,1,.938,1.586Z" transform="translate(0 -62.618)" fill="#181d72"/>
    <path id="Path_22" data-name="Path 22" d="M.188.135V.716h1.9V15.329H.188v.581H7.159c2.346-.022,5.162-.022,6.368-2.279a4.033,4.033,0,0,0,.447-1.9,3.875,3.875,0,0,0-3.2-3.8A13.108,13.108,0,0,0,9.1,7.665a11.392,11.392,0,0,0,1.519-.291,3.38,3.38,0,0,0,2.614-3.329A3.434,3.434,0,0,0,11.427.895,8.181,8.181,0,0,0,7.472.135ZM5.394,8.023H7.472a2.68,2.68,0,0,1,2.235.871,4.551,4.551,0,0,1,.626,2.838,4.968,4.968,0,0,1-.469,2.525,2.33,2.33,0,0,1-2.235,1.073H5.394Zm0-7.262H7.137c1.832,0,2.771.447,2.771,3.4,0,2.615-.938,3.24-2.681,3.24H5.394ZM18.51,0A16.415,16.415,0,0,1,16.1.224c-.8.023-1.542.023-1.966.023V.872H15.7V15.329H14.131v.581h5.854v-.581H18.51ZM30.823,11.039A5.013,5.013,0,0,0,25.593,6.3c-2.279,0-5.363,1.43-5.363,4.894,0,2.5,1.832,4.961,5.43,4.961a4.99,4.99,0,0,0,4.893-3.039,5.04,5.04,0,0,0,.269-2.078m-3.039.022c.022,2.19.022,4.648-2.19,4.648a2.02,2.02,0,0,1-1.855-1.118c-.179-.313-.4-.782-.4-3.441,0-1.966.045-4.29,2.235-4.29A1.975,1.975,0,0,1,27.493,8.09c.134.29.268.6.291,2.972m14.45-.022A5.012,5.012,0,0,0,37,6.3c-2.279,0-5.362,1.43-5.362,4.894,0,2.5,1.832,4.961,5.43,4.961a4.991,4.991,0,0,0,4.893-3.039,5.032,5.032,0,0,0,.268-2.078m-3.039.022c.022,2.19.022,4.648-2.19,4.648a2.02,2.02,0,0,1-1.854-1.118c-.179-.313-.4-.782-.4-3.441,0-1.966.045-4.29,2.235-4.29A1.976,1.976,0,0,1,38.9,8.09c.134.29.268.6.291,2.972M46.7,6.369a26.633,26.633,0,0,1-4.267.2v.581h1.475v8.178H42.435v.581h5.631v-.581H46.68V10.592a3.994,3.994,0,0,1,.648-2.458,2.182,2.182,0,0,1,1.631-.8c1.206,0,1.341,1.05,1.341,2.324v5.676H49.093v.581h5.251v-.581H53V10.972a3.767,3.767,0,0,1,.872-2.994,2.228,2.228,0,0,1,1.475-.67c1.274,0,1.274,1.095,1.274,2.234v5.787H55.394v.581H60.78v-.581H59.395V9.475C59.327,8.268,59.305,6.3,56.356,6.3A3.629,3.629,0,0,0,53,8.224,3,3,0,0,0,49.92,6.28,3.913,3.913,0,0,0,46.7,8ZM64.645,0a23.017,23.017,0,0,1-2.413.246H60.288V.872h1.564V15.329H60.288v.581h4.335V14.5a3.991,3.991,0,0,0,3.285,1.654,3.936,3.936,0,0,0,3.374-1.631,4.914,4.914,0,0,0,1.073-3.173c0-3.62-2.48-5.05-4.492-5.05a3.989,3.989,0,0,0-3.217,1.631Zm4.626,11.016c0,2.481-.068,4.425-1.855,4.425A2.7,2.7,0,0,1,65.2,14.123a5.624,5.624,0,0,1-.671-2.86,6.179,6.179,0,0,1,.581-2.726,2.924,2.924,0,0,1,2.3-1.542c1.385,0,1.609,1.273,1.7,1.721a15.671,15.671,0,0,1,.157,2.3m13.362-.38a4.961,4.961,0,0,0-1.206-2.95A4.522,4.522,0,0,0,78.1,6.3a4.772,4.772,0,0,0-4.938,4.916,4.853,4.853,0,0,0,5.117,4.96,4.529,4.529,0,0,0,4.245-2.838l-.558-.268c-.559.894-1.5,2.413-3.4,2.413-2.235,0-2.3-2.234-2.324-3.084-.022-.6,0-1.184,0-1.765ZM76.309,8.782c.09-.894.224-1.966,1.788-1.966,1.452,0,1.519,1.095,1.586,1.877v1.3h-3.4Zm10.9-2.413a41.206,41.206,0,0,1-4.4.2v.581h1.519v8.178H82.811v.581H89v-.581H87.146V11.084A5.293,5.293,0,0,1,88.04,8s.715-.916,1.028-.916c.156,0,.313.112.313.224,0,.067-.067.134-.111.223a1.285,1.285,0,0,0-.291.827,1.348,1.348,0,0,0,1.43,1.318,1.435,1.435,0,0,0,1.5-1.519A1.821,1.821,0,0,0,89.939,6.3a2.589,2.589,0,0,0-2.079.983,6.631,6.631,0,0,0-.692,1.006Zm7.105,8.692c-.737,0-1.386-.022-1.386-.738S93.8,13.14,94.5,12.871a4.647,4.647,0,0,0,2.279.514c2.257,0,4.156-1.229,4.156-3.62a3,3,0,0,0-.491-1.631c.067-.313.134-.425.246-.425s.134,0,.312.224a.811.811,0,0,0,.648.291.937.937,0,0,0,.961-1.006,1,1,0,0,0-1.05-1.028,1.547,1.547,0,0,0-.893.313,1.908,1.908,0,0,0-.648,1.072A4.425,4.425,0,0,0,96.8,6.3c-2.033,0-4.313,1.14-4.313,3.575a3.3,3.3,0,0,0,1.52,2.7,2.975,2.975,0,0,0-2.279,2.838,2.126,2.126,0,0,0,.6,1.542,1.859,1.859,0,0,0,1.229.648c-.626.223-1.81.626-1.81,1.877,0,1.386,1.654,2.838,4.871,2.838,3.062,0,5.341-1.519,5.341-4.223a3,3,0,0,0-.558-1.9c-.8-1.162-1.632-1.14-3.24-1.14Zm.872-5.3c0-1.587,0-2.927,1.519-2.927a1.3,1.3,0,0,1,1.251.737,5.493,5.493,0,0,1,.224,2.279c0,1.587,0,2.882-1.452,2.882-1.475,0-1.542-1.207-1.542-2.972m4.089,8.022c.469,0,1.586-.022,1.586,1.229,0,1.385-1.586,2.592-4.246,2.592-2.457,0-3.307-1.274-3.307-2.279a2.063,2.063,0,0,1,.76-1.542Z" transform="translate(-0.143 -0.001)" fill="#181d72"/>
  </g>
</svg>
