<svg xmlns="http://www.w3.org/2000/svg" xmlns:xlink="http://www.w3.org/1999/xlink" width="222.002" height="99.479" viewBox="0 0 222.002 99.479">
  <defs>
    <clipPath id="clip-path">
      <rect id="Rectangle_2" data-name="Rectangle 2" width="222.002" height="99.479" fill="none"/>
    </clipPath>
  </defs>
  <g id="logo_visor" transform="translate(-789 -45)">
    <g id="Group_3" data-name="Group 3" transform="translate(789 45)">
      <path id="Path_1" data-name="Path 1" d="M14.214,51.452,9.581,67.315,5.219,51.452H0L6.627,73.509h5.848l7.017-22.057Z" transform="translate(0 25.697)" fill="#7b868c"/>
      <rect id="Rectangle_1" data-name="Rectangle 1" width="4.948" height="22.057" transform="translate(23.796 77.148)" fill="#7b868c"/>
      <g id="Group_2" data-name="Group 2" transform="translate(0 0)">
        <g id="Group_1" data-name="Group 1" clip-path="url(#clip-path)">
          <path id="Path_2" data-name="Path 2" d="M22.34,59.013V57.154c0-3.794,1.994-5.743,6-5.818h1.275a24.455,24.455,0,0,1,7.617.961v3.852c-2.039-.195-3.794-.3-5.218-.3H29.762a4.371,4.371,0,0,0-1.9.3q-.54.315-.54,1.5v.735a1.861,1.861,0,0,0,.33,1.334,2.691,2.691,0,0,0,1.784.48h3.194a5.079,5.079,0,0,1,3.4,1.05,6.222,6.222,0,0,1,2.009,5.038v1.26c0,2.834-.885,4.693-2.669,5.608a7.759,7.759,0,0,1-3.449.69,40.525,40.525,0,0,1-5.248-.178,19.042,19.042,0,0,1-3.6-.781v-3.9a76.9,76.9,0,0,0,7.752.345,3.537,3.537,0,0,0,1.694-.345,1.3,1.3,0,0,0,.6-1.258v-.871a1.5,1.5,0,0,0-1.176-1.765,1.458,1.458,0,0,0-.639.012H28.158a6.2,6.2,0,0,1-3.224-.721,4.3,4.3,0,0,1-1.739-1.694,6.49,6.49,0,0,1-.69-1.829,13.337,13.337,0,0,1-.165-1.844" transform="translate(11.157 25.633)" fill="#7b868c"/>
          <path id="Path_3" data-name="Path 3" d="M35.98,66.607a37.441,37.441,0,0,1-.21-4.08,26.113,26.113,0,0,1,.24-3.717,16.745,16.745,0,0,1,.645-2.894,6.828,6.828,0,0,1,1.065-2.039,6.653,6.653,0,0,1,1.364-1.334,5.619,5.619,0,0,1,1.679-.75,12.545,12.545,0,0,1,3.419-.451,21.193,21.193,0,0,1,2.714.091,12.079,12.079,0,0,1,1.9.36,5.274,5.274,0,0,1,1.679.75,6.656,6.656,0,0,1,1.349,1.334,6.531,6.531,0,0,1,1.05,2.009,22.451,22.451,0,0,1,.84,6.777,17.09,17.09,0,0,1-1.409,7.707,5.646,5.646,0,0,1-2.324,2.354,11.367,11.367,0,0,1-5.233.9,11.737,11.737,0,0,1-5.218-.84,5.23,5.23,0,0,1-2.354-2.266,11.041,11.041,0,0,1-1.2-3.912m5.293-9a9.8,9.8,0,0,0-.42,1.978,25.9,25.9,0,0,0-.15,2.79v2.414a12.727,12.727,0,0,0,.15,1.589,4.338,4.338,0,0,0,.33,1.185,3.074,3.074,0,0,0,.495.81,1.629,1.629,0,0,0,.735.523,6.16,6.16,0,0,0,2.2.346,5.991,5.991,0,0,0,2.084-.375,2.433,2.433,0,0,0,1.23-.99,4.808,4.808,0,0,0,.675-1.981,22.737,22.737,0,0,0,.18-3.194,29.027,29.027,0,0,0-.135-3.147,10.8,10.8,0,0,0-.39-1.964,2.235,2.235,0,0,0-.78-1.155,2.817,2.817,0,0,0-1.11-.525,7.784,7.784,0,0,0-1.6-.136,10.642,10.642,0,0,0-1.589.106,3.1,3.1,0,0,0-1.11.48,2.155,2.155,0,0,0-.795,1.2Z" transform="translate(17.864 25.642)" fill="#7b868c"/>
          <path id="Path_4" data-name="Path 4" d="M50.8,73.513V51.456h9.731a6.48,6.48,0,0,1,4.663,1.589,7.171,7.171,0,0,1,1.694,5.366,9.232,9.232,0,0,1-.93,4.71,3.95,3.95,0,0,1-1.125,1.228,9.286,9.286,0,0,1-1.349.631l4,8.532H61.881L58.6,65.4l-2.864-.42v8.532Zm4.963-12.325h4.2a1.742,1.742,0,0,0,1.5-.57,3.977,3.977,0,0,0,.39-2.114,3.834,3.834,0,0,0-.45-2.159,1.728,1.728,0,0,0-1.5-.616H55.7Z" transform="translate(25.371 25.693)" fill="#7b868c"/>
          <path id="Path_5" data-name="Path 5" d="M73.4,73.66h-.42a9.755,9.755,0,0,1-4.693-.75,7.979,7.979,0,0,1-1.245-1.081,4.5,4.5,0,0,1-1.05-1.723,19.744,19.744,0,0,1-.84-6.238V51.452h2.774V63.869a17.293,17.293,0,0,0,.195,3.162c.12.615.24,1.11.33,1.5a2.682,2.682,0,0,0,.4.915c.18.241.345.466.495.645a1.682,1.682,0,0,0,.63.451,6.9,6.9,0,0,0,.7.27,5.944,5.944,0,0,0,.825.148H74.7a5.221,5.221,0,0,0,1.095-.195,2.955,2.955,0,0,0,.99-.435,4.016,4.016,0,0,0,.825-.793,3.969,3.969,0,0,0,.63-1.289,14.649,14.649,0,0,0,.54-4.365V51.452h2.8V63.869c0,3.929-.69,6.581-2.084,7.917a8.237,8.237,0,0,1-1.289,1.093,4.614,4.614,0,0,1-1.5.541,16.81,16.81,0,0,1-3.314.24" transform="translate(32.535 25.697)" fill="#6abf4b"/>
          <path id="Path_6" data-name="Path 6" d="M89.3,51.452q5.321,0,5.323,6.687a9.29,9.29,0,0,1-.346,3,12.183,12.183,0,0,1-.585,1.394,2.8,2.8,0,0,1-.583.81l-.6.511a2.76,2.76,0,0,1-.66.343,6.6,6.6,0,0,1-.96.27l4.5,9h-3l-4.378-8.832L82.6,64.317v9.251H79.84V51.452Zm-6.7,10.5h6.584c1.093,0,1.814-.283,2.129-.87a5.315,5.315,0,0,0,.508-2.549,10.575,10.575,0,0,0-.208-2.459,2.384,2.384,0,0,0-.631-1.23,2.425,2.425,0,0,0-1.8-.69H82.6Z" transform="translate(39.874 25.697)" fill="#6abf4b"/>
          <path id="Path_7" data-name="Path 7" d="M102.31,51.454a6.97,6.97,0,0,1,2.79.508,4.266,4.266,0,0,1,1.814,1.4,6.314,6.314,0,0,1,1.273,3.884q0,4.026-2.862,4.813a3.476,3.476,0,0,1,2.129,1.619,6.2,6.2,0,0,1,.913,3.6,7.017,7.017,0,0,1-1.273,4.365,5.531,5.531,0,0,1-4.753,1.874H93.66V51.454Zm-5.846,9.221h5.786a3.185,3.185,0,0,0,2.416-.855,3.534,3.534,0,0,0,.81-2.5,2.792,2.792,0,0,0-2.054-3.105,4.406,4.406,0,0,0-1.111-.12H96.464Zm0,10.181h5.818c2.2,0,3.314-1.23,3.314-3.674a4.671,4.671,0,0,0-.825-2.8,2.9,2.9,0,0,0-2.489-1.111H96.464Z" transform="translate(46.776 25.697)" fill="#6abf4b"/>
          <path id="Path_8" data-name="Path 8" d="M105.92,73.509l7.917-22.057h3l7.6,22.057h-3.164l-1.814-5.818h-8.352l-1.889,5.818Zm6-8.442h6.627l-3.254-9.641Z" transform="translate(52.899 25.697)" fill="#6abf4b"/>
          <path id="Path_9" data-name="Path 9" d="M121.67,73.509V51.452H124.5l10.946,16.9v-16.9h2.759V73.509H135.45L124.474,56.64V73.509Z" transform="translate(60.765 25.697)" fill="#6abf4b"/>
          <path id="Path_10" data-name="Path 10" d="M136.546,62.224a23.66,23.66,0,0,1,.435-4.678,11.761,11.761,0,0,1,1.125-3.314,4.848,4.848,0,0,1,1.874-1.861,7.482,7.482,0,0,1,2.339-.838,16.72,16.72,0,0,1,2.624-.18q1.5,0,2.384.088a10.558,10.558,0,0,1,1.829.361,5.074,5.074,0,0,1,1.6.75,6.7,6.7,0,0,1,2.236,3.342,24.21,24.21,0,0,1,.795,6.779,18.167,18.167,0,0,1-1.065,7.182,7.069,7.069,0,0,1-1.185,1.963,4.337,4.337,0,0,1-1.739,1.17,12.777,12.777,0,0,1-4.6.69,10,10,0,0,1-5.7-1.17,5.993,5.993,0,0,1-2.264-3.254,26.106,26.106,0,0,1-.69-7.031m3-3.705a12.9,12.9,0,0,0-.195,1.859v2.476a23,23,0,0,0,.09,2.578,17.481,17.481,0,0,0,.27,2.069,5.013,5.013,0,0,0,.525,1.5,4.7,4.7,0,0,0,.778,1.02,2.525,2.525,0,0,0,1.081.615,9.27,9.27,0,0,0,2.729.36,17.893,17.893,0,0,0,2.354-.12,5.076,5.076,0,0,0,1.5-.463,2.99,2.99,0,0,0,1.11-.916,5.469,5.469,0,0,0,.735-1.5,18.936,18.936,0,0,0,.54-5.308,27.178,27.178,0,0,0-.195-3.809c-.135-.75-.24-1.333-.33-1.754a3.533,3.533,0,0,0-.42-1.11c-.18-.3-.345-.57-.51-.793a1.738,1.738,0,0,0-.66-.555,6.083,6.083,0,0,0-.735-.346,3.568,3.568,0,0,0-.885-.18,17.468,17.468,0,0,0-1.816-.088h-1.363a9.128,9.128,0,0,0-.99.073,3.568,3.568,0,0,0-.885.18c-.21.075-.45.195-.735.33a1.579,1.579,0,0,0-.66.541c-.165.223-.345.495-.54.795a4.381,4.381,0,0,0-.435,1.108,12.84,12.84,0,0,0-.345,1.439Z" transform="translate(68.185 25.647)" fill="#6abf4b"/>
          <path id="Path_11" data-name="Path 11" d="M87.682,51.463V43.022a6.882,6.882,0,0,1,.7-13.72h.48A6.882,6.882,0,0,1,89,43.007v9h-.135a1.169,1.169,0,0,1-.48.12.69.69,0,0,1-.7-.675.1.1,0,0,1,0-.03M82.869,36.124a5.472,5.472,0,0,0,4.813,5.489v-3.36l-2.326-1.379a.689.689,0,0,1-.343-.765.705.705,0,0,1,.675-.51.784.784,0,0,1,.358.09l1.636.945V33.98a.659.659,0,0,1,.628-.688h.03a.66.66,0,0,1,.661.66v.33l1.14-.855a.659.659,0,0,1,1.078.345.6.6,0,0,1-.24.7L89,35.974v2.234l1.858-1.394a.659.659,0,0,1,.375-.12.721.721,0,0,1,.661.48.707.707,0,0,1-.226.795L89,39.963v1.6a5.49,5.49,0,0,0,4.888-5.488,5.58,5.58,0,0,0-5.5-5.5,5.517,5.517,0,0,0-5.518,5.5" transform="translate(40.744 14.635)" fill="#7b868c"/>
          <path id="Path_12" data-name="Path 12" d="M88.517,29.618h.465a6.642,6.642,0,0,1-.09,13.238v9a.785.785,0,0,1-.375.106.437.437,0,0,1-.466-.4.447.447,0,0,1,0-.063V42.871a6.631,6.631,0,1,1,.466-13.253m.375,12.34a5.7,5.7,0,1,0-.841,0V38.195l-2.443-1.5a.45.45,0,0,1-.166-.615.455.455,0,0,1,.376-.226.492.492,0,0,1,.24.076l1.993,1.155v-3a.421.421,0,0,1,.841,0v.783l1.5-1.155a.4.4,0,0,1,.255-.106.451.451,0,0,1,.27.8L88.847,36v2.835l2.234-1.681a.366.366,0,0,1,.24,0,.465.465,0,0,1,.285.84l-2.759,2.071v1.994m-.375-12.82a7.121,7.121,0,0,0-7.152,7.062,7.231,7.231,0,0,0,1.918,4.9,7.052,7.052,0,0,0,4.29,2.2v8.233a.928.928,0,0,0,.915.943h.03a1.331,1.331,0,0,0,.585-.148l.27-.12V43.306a7.122,7.122,0,0,0-.36-14.153h-.495m.855,12.279V40.217l2.579-1.934a.915.915,0,0,0,.285-1.035.945.945,0,0,0-.885-.645,1,1,0,0,0-.511.151l-1.5,1.108V36.215l1.874-1.5a.856.856,0,0,0,.331-.975.944.944,0,0,0-.885-.69.877.877,0,0,0-.555.208l-.78.585a.883.883,0,0,0-.885-.763.9.9,0,0,0-.9.9v2.279l-1.275-.733a.929.929,0,1,0-.933,1.607l.048.025,2.219,1.306v3a5.278,5.278,0,0,1,.945-10.5,5.336,5.336,0,0,1,5.263,5.261,5.265,5.265,0,0,1-4.408,5.219" transform="translate(40.613 14.56)" fill="#7b868c"/>
          <path id="Path_13" data-name="Path 13" d="M43.132,51.463V43.022a6.882,6.882,0,0,1,.7-13.72h.48a6.882,6.882,0,0,1,.165,13.72v9h-.135a1.244,1.244,0,0,1-.48.12.688.688,0,0,1-.7-.675.1.1,0,0,1,0-.03M38.319,36.124a5.475,5.475,0,0,0,4.813,5.489v-3.36l-2.339-1.379a.675.675,0,0,1,.33-1.275.817.817,0,0,1,.375.09l1.634.945V33.98a.66.66,0,0,1,1.319,0v.3l1.14-.855a.646.646,0,0,1,.42-.165.721.721,0,0,1,.66.51.63.63,0,0,1-.24.7l-1.979,1.5v2.234L46.3,36.814a.744.744,0,0,1,.375-.12.721.721,0,0,1,.675.48.706.706,0,0,1-.225.795l-2.639,2.039v1.606a5.489,5.489,0,0,0,4.888-5.489,5.578,5.578,0,0,0-5.5-5.5,5.517,5.517,0,0,0-5.518,5.5" transform="translate(18.494 14.635)" fill="#7b868c"/>
          <path id="Path_14" data-name="Path 14" d="M43.962,29.618h.465a6.642,6.642,0,0,1-.09,13.238v9a.844.844,0,0,1-.375.106.435.435,0,0,1-.465-.4.44.44,0,0,1,0-.063V42.871a6.631,6.631,0,1,1,.465-13.253m.375,12.34a5.713,5.713,0,1,0-.84,0V38.195l-2.459-1.5a.451.451,0,0,1,.21-.841.549.549,0,0,1,.255.076L43.5,37.085v-3a.42.42,0,1,1,.84,0v.78l1.5-1.155a.407.407,0,0,1,.27-.106c.36,0,.645.541.27.8L44.307,36v2.835l2.219-1.681a.409.409,0,0,1,.24,0,.48.48,0,0,1,.3.84l-2.759,2.071v1.994m-.39-12.82a7.121,7.121,0,0,0-7.137,7.062,7.212,7.212,0,0,0,1.9,4.9,7.122,7.122,0,0,0,4.3,2.2v8.233a.928.928,0,0,0,.915.943h.03a1.2,1.2,0,0,0,.57-.148l.285-.12V43.306a7.122,7.122,0,0,0-.36-14.153h-.51m.87,12.279V40.217l2.564-1.934a.916.916,0,0,0,.3-1.035.959.959,0,0,0-.9-.645,1,1,0,0,0-.495.151l-1.5,1.108V36.215l1.874-1.5a.872.872,0,0,0,.33-.975.944.944,0,0,0-.885-.69.874.874,0,0,0-.555.208l-.78.585a.883.883,0,0,0-.885-.763.9.9,0,0,0-.9.9v2.279l-1.275-.733a1.022,1.022,0,0,0-.495-.136.915.915,0,0,0-.885.691.9.9,0,0,0,.435,1.033l2.219,1.3v3a5.278,5.278,0,0,1,.945-10.5,5.339,5.339,0,0,1,5.263,5.263A5.262,5.262,0,0,1,44.757,41.4" transform="translate(18.369 14.56)" fill="#7b868c"/>
          <path id="Path_15" data-name="Path 15" d="M185.426,67.523h-9.9a1.006,1.006,0,0,1-.99-.991V48.93H158.286V59.425a1,1,0,0,1-.99.99h-6.567a.989.989,0,0,1-.975-.99V47.939a.991.991,0,0,1,.975-.99h5.578V36.035h-23.2l.24,30.452a1.007,1.007,0,0,1-.99,1.006H107.006a.991.991,0,0,1-.99-.99V49.425H99.134a1.006,1.006,0,0,1-.99-.99V10.214l-21.4-7.766V51.839h5.083a.989.989,0,0,1,.99.99V66.564a.988.988,0,0,1-.99.988h-6a.989.989,0,0,1-.99-.988V53.819H66.312V66.564a.988.988,0,0,1-.975.988H39.967a1,1,0,0,1-.99-.988V53.069h-12V66.564a1,1,0,0,1-.99.988H19.68a.989.989,0,1,1,0-1.978h5.293V52.079a.974.974,0,0,1,.96-.99H39.967a.973.973,0,0,1,.99.958V65.574H64.347V52.829a.99.99,0,0,1,.99-.99h9.431V1.039a.955.955,0,0,1,.42-.81,1,1,0,0,1,.945-.18l23.331,8.53a.991.991,0,0,1,.66.931V47.445h6.882a.991.991,0,0,1,.99.991V65.574h23.346l-.225-30.453a1,1,0,0,1,.285-.706.946.946,0,0,1,.7-.3H157.3a1,1,0,0,1,.99.988V46.95H175.53a.991.991,0,0,1,.99.99V65.574h8.907a.989.989,0,1,1,0,1.978ZM76.748,65.574h4.093V53.819H76.748Zm74.971-7.169h4.588V48.929h-4.588Z" transform="translate(9.334 0.001)" fill="#7b868c"/>
          <path id="Path_16" data-name="Path 16" d="M80.456,15.191H57.08a.99.99,0,0,1-.99-.991V9.7a.972.972,0,0,1,.96-.988.1.1,0,0,1,.03,0H80.456a.988.988,0,0,1,.99.988v4.5a1.006,1.006,0,0,1-.99.991M58.069,13.152h21.4V10.6h-21.4Z" transform="translate(28.013 4.352)" fill="#7b868c"/>
          <path id="Path_17" data-name="Path 17" d="M80.456,21.191H57.08a.99.99,0,0,1-.99-.991V15.7a.972.972,0,0,1,.96-.988.1.1,0,0,1,.03,0H80.456a.988.988,0,0,1,.99.988v4.5a1.006,1.006,0,0,1-.99.991M58.069,19.272h21.4V16.693h-21.4Z" transform="translate(28.013 7.348)" fill="#7d858b"/>
          <path id="Path_18" data-name="Path 18" d="M80.456,27.311H57.08a.99.99,0,0,1-.99-.991v-4.5a.976.976,0,0,1,.96-.99H80.456a.99.99,0,0,1,.99.99v4.5a1.006,1.006,0,0,1-.99.991M58.069,25.33h21.4V22.781h-21.4Z" transform="translate(28.013 10.405)" fill="#7b868c"/>
          <path id="Path_19" data-name="Path 19" d="M103.433,33.2H98.32a.958.958,0,0,1-.96-.958V27.088a.96.96,0,0,1,.96-.946h5.158a.961.961,0,0,1,.96.946v5.158a.96.96,0,0,1-.96.96h-.045m-4.213-1.9h3.254V28.046H99.219Z" transform="translate(48.624 13.057)" fill="#7b868c"/>
          <path id="Path_20" data-name="Path 20" d="M122.018,41.314h-5.1a.959.959,0,0,1-.96-.945V35.213a.96.96,0,0,1,.96-.961h5.1a.945.945,0,0,1,.945.945V40.37a.945.945,0,0,1-.945.945m-4.213-1.9h3.254V36.158H117.8Z" transform="translate(57.913 17.107)" fill="#7b868c"/>
        </g>
      </g>
    </g>
  </g>
</svg>
