<?xml version="1.0" encoding="UTF-8"?>
<svg id="Capa_1" xmlns="http://www.w3.org/2000/svg" version="1.1" xmlns:xlink="http://www.w3.org/1999/xlink" viewBox="0 0 1694.8 813.8">
  <!-- Generator: Adobe Illustrator 29.0.1, SVG Export Plug-In . SVG Version: 2.1.0 Build 192)  -->
  <defs>
    <style>
      .st0 {
        opacity: .2;
      }

      .st1 {
        fill: none;
      }

      .st2 {
        opacity: .6;
      }

      .st3 {
        fill: #3f3d56;
      }

      .st4 {
        fill: #c4d9ed;
      }

      .st5 {
        clip-path: url(#clippath-1);
      }

      .st6 {
        opacity: .3;
      }

      .st7 {
        fill: #aed9aa;
      }

      .st8 {
        fill: #d5e7f7;
      }

      .st9 {
        clip-path: url(#clippath);
      }
    </style>
    <clipPath id="clippath">
      <rect class="st1" x="58.2" y="654.3" width="86.8" height="186.4"/>
    </clipPath>
    <clipPath id="clippath-1">
      <rect class="st1" x="145" y="526.8" width="86.8" height="315.7"/>
    </clipPath>
  </defs>
  <g id="Group_6458" class="st0">
    <rect id="Rectangle_6815" class="st4" x="1433.4" y="196.2" width="147.4" height="716.7"/>
    <rect id="Rectangle_6816" class="st8" x="1466.5" y="196.2" width="147.4" height="716.7"/>
    <rect id="Rectangle_6817" class="st4" x="1466.5" y="196" width="147.3" height="41.4"/>
    <rect id="Rectangle_6818" class="st4" x="1466.5" y="285.8" width="147.3" height="41.4"/>
    <rect id="Rectangle_6819" class="st4" x="1466.5" y="375.7" width="147.3" height="41.4"/>
    <rect id="Rectangle_6820" class="st4" x="1466.5" y="465.5" width="147.3" height="41.4"/>
    <rect id="Rectangle_6821" class="st4" x="1466.5" y="555.3" width="147.3" height="41.4"/>
    <rect id="Rectangle_6822" class="st4" x="1466.5" y="645.1" width="147.3" height="41.4"/>
    <rect id="Rectangle_6823" class="st4" x="1466.5" y="734.9" width="147.3" height="41.4"/>
    <rect id="Rectangle_6825" class="st4" x="1580.8" y="306.7" width="147.4" height="615.3"/>
    <rect id="Rectangle_6826" class="st8" x="1613.9" y="306.7" width="147.4" height="615.3"/>
    <rect id="Rectangle_6827" class="st4" x="1613.9" y="306.5" width="147.3" height="35.6"/>
    <rect id="Rectangle_6828" class="st4" x="1613.9" y="383.7" width="147.3" height="35.6"/>
    <rect id="Rectangle_6829" class="st4" x="1613.9" y="460.8" width="147.3" height="35.6"/>
    <rect id="Rectangle_6830" class="st4" x="1613.9" y="537.9" width="147.3" height="35.6"/>
    <rect id="Rectangle_6831" class="st4" x="1613.9" y="615" width="147.3" height="35.6"/>
    <rect id="Rectangle_6832" class="st4" x="1613.9" y="692.1" width="147.3" height="35.6"/>
    <rect id="Rectangle_6833" class="st4" x="1613.9" y="769.2" width="147.3" height="35.6"/>
  </g>
  <g id="Group_6459">
    <g id="Group_6020" class="st2">
      <g id="Group_2376">
        <g class="st9">
          <g id="Group_2375">
            <path id="Path_14127" class="st7" d="M58.2,735.1c0-24,19.4-80.8,43.4-80.8s43.4,56.9,43.4,80.8c-.1,24-19.6,43.3-43.6,43.2-23.8-.1-43.1-19.4-43.2-43.2"/>
            <path id="Path_14128" class="st3" d="M101.6,840.7c-.2,0-.4-.2-.4-.4h0v-149.6c0-.2.2-.4.4-.4.2,0,.4.2.4.4h0v149.6c0,.2-.2.4-.4.4h0"/>
            <path id="Path_14129" class="st3" d="M101.6,719.6c0,0-.2,0-.3-.1l-17.2-17.2c-.1-.1-.1-.4,0-.5.1-.1.4-.1.5,0h0l17.2,17.2c.1.1.1.4,0,.5,0,0-.2.1-.3.1"/>
            <path id="Path_14130" class="st3" d="M101.6,749.3c-.2,0-.4-.2-.4-.4,0,0,0-.2.1-.3l28.8-28.8c.1-.1.4-.1.5,0,.1.1.1.4,0,.5,0,0,0,0,0,0h0l-28.8,28.8c0,0-.2.1-.3.1"/>
          </g>
        </g>
      </g>
    </g>
    <g id="Group_6019" class="st6">
      <g id="Group_2376-2">
        <g class="st5">
          <g id="Group_2375-2">
            <path id="Path_14127-2" class="st7" d="M145,607.6c0-24,19.4-80.8,43.4-80.8s43.4,56.9,43.4,80.8c-.1,24-19.6,43.3-43.6,43.2-23.8-.1-43.1-19.4-43.2-43.2"/>
            <path id="Path_14128-2" class="st3" d="M188.4,837.8c-.4,0-.7-.3-.7-.7h0v-273.6c0-.4.3-.7.6-.7.4,0,.7.3.7.6,0,0,0,0,0,0v273.6c0,.4-.3.7-.7.7h0"/>
            <path id="Path_14129-2" class="st3" d="M188.4,592.1c0,0-.2,0-.3-.1l-17.2-17.2c-.1-.1-.1-.4,0-.5.1-.1.4-.1.5,0h0l17.2,17.2c.1.1.1.4,0,.5,0,0-.2.1-.3.1"/>
            <path id="Path_14130-2" class="st3" d="M188.4,621.9c-.2,0-.4-.2-.4-.4,0,0,0-.2.1-.3l28.8-28.8c.1-.1.4-.1.5,0,.1.1.1.4,0,.5,0,0,0,0,0,0h0l-28.8,28.8c0,0-.2.1-.3.1"/>
          </g>
        </g>
      </g>
    </g>
  </g>
</svg>