<?xml version="1.0" encoding="UTF-8" standalone="no"?>
<!-- Created with Inkscape (http://www.inkscape.org/) -->

<svg
   width="1922mm"
   height="801mm"
   viewBox="0 0 1922 801"
   version="1.1"
   id="svg1"
   xml:space="preserve"
   inkscape:version="1.3.2 (1:1.3.2+202311252150+091e20ef0f)"
   sodipodi:docname="Subtraction_1_v2.svg"
   xmlns:inkscape="http://www.inkscape.org/namespaces/inkscape"
   xmlns:sodipodi="http://sodipodi.sourceforge.net/DTD/sodipodi-0.dtd"
   xmlns="http://www.w3.org/2000/svg"
   xmlns:svg="http://www.w3.org/2000/svg"><sodipodi:namedview
     id="namedview1"
     pagecolor="#ffffff"
     bordercolor="#000000"
     borderopacity="0.25"
     inkscape:showpageshadow="2"
     inkscape:pageopacity="0.0"
     inkscape:pagecheckerboard="0"
     inkscape:deskcolor="#d1d1d1"
     inkscape:document-units="px"
     inkscape:zoom="0.13579016"
     inkscape:cx="2599.5992"
     inkscape:cy="2404.4452"
     inkscape:window-width="1680"
     inkscape:window-height="1013"
     inkscape:window-x="0"
     inkscape:window-y="0"
     inkscape:window-maximized="1"
     inkscape:current-layer="svg1" /><defs
     id="defs1" /><g
     inkscape:label="Layer 1"
     inkscape:groupmode="layer"
     id="layer1" /><path
     id="Subtraction_1"
     data-name="Subtraction 1"
     d="m -4.4551798,793.65932 v 0 L -2.0894643,-0.93946537 214.96868,16.012588 c 68.48556,5.348185 139.77858,9.491961 211.89934,12.313156 71.6686,2.803973 144.96453,4.335427 217.8514,4.551602 112.46448,0.333559 224.29968,-2.428751 332.39638,-8.208729 108.0966,-5.779981 219.9256,-8.543287 332.3832,-8.209749 77.7492,0.230596 155.8454,1.952127 232.1066,5.126285 76.7735,3.192572 152.4036,7.879578 224.7897,13.932623 l 165.0424,13.802171 -2.1006,705.549073 -217.1571,15.66422 c -68.5151,4.94286 -139.8336,8.66266 -211.974,11.05599 -71.687,2.37879 -144.9928,3.47544 -217.8798,3.25927 -112.4543,-0.33353 -224.2671,-3.75814 -332.33242,-10.18026 -108.06538,-6.42207 -219.87407,-9.84668 -332.33555,-10.18023 -77.74921,-0.23059 -155.85338,1.02762 -232.12893,3.74942 -76.7922,2.7361 -152.44685,6.97541 -224.86369,12.599 z"
     fill="#3491e2"
     stroke="rgba(0,0,0,0)"
     stroke-width="1.00016" /></svg>
