<svg xmlns="http://www.w3.org/2000/svg" width="1921.95" height="801.417" viewBox="0 0 1921.95 801.417">
  <path id="Subtraction_1" data-name="Subtraction 1" d="M-2038,800h0V0l215.573,16.419c68.017,5.18,138.818,9.139,210.437,11.764,71.17,2.609,143.952,3.932,216.324,3.932,111.67,0,222.706-3.115,330.021-9.257S-847.3,13.6-735.637,13.6c77.2,0,154.749,1.5,230.48,4.468,76.24,2.985,151.349,7.478,223.241,13.356L-118,44.827V755.172l-215.575,16.419c-68.016,5.181-138.819,9.139-210.442,11.764-71.173,2.609-143.957,3.932-216.329,3.932-111.66,0-222.692-3.114-330.012-9.257s-218.348-9.257-330.015-9.257c-77.2,0-154.748,1.5-230.476,4.468-76.241,2.984-151.348,7.478-223.236,13.356L-2038,800Z" transform="translate(2039.449 0.54)" fill="#3491e2" stroke="rgba(0,0,0,0)" stroke-width="1"/>
</svg>
