<svg xmlns="http://www.w3.org/2000/svg" width="123.478" height="133.9" viewBox="0 0 123.478 133.9">
  <g id="Group_8866" data-name="Group 8866" transform="translate(-896.966 -420.261)">
    <path id="Path_21466" data-name="Path 21466" d="M1341.629,368.906a9.2,9.2,0,0,1,18.245.389,9.332,9.332,0,1,1,2.7,18.264h-20.531a9.331,9.331,0,0,1-.417-18.653" transform="translate(-431.902 106.798)" fill="#d7f6e7"/>
    <path id="Path_21473" data-name="Path 21473" d="M1341.629,368.906a9.2,9.2,0,0,1,18.245.389,9.332,9.332,0,1,1,2.7,18.264h-20.531a9.331,9.331,0,0,1-.417-18.653" transform="translate(-355.551 63.798)" fill="#d7f6e7"/>
    <path id="Path_21467" data-name="Path 21467" d="M1359.719,384.916h-20.53a10.32,10.32,0,0,1-1.247-20.565,10.191,10.191,0,0,1,19.878.1,10.321,10.321,0,1,1,1.9,20.466m-11.85-26.475a8.258,8.258,0,0,0-8.12,6.98l-.12.806-.814.036a8.342,8.342,0,0,0,.374,16.675h20.53a8.342,8.342,0,1,0-2.417-16.328l-1.142.345-.127-1.187a8.191,8.191,0,0,0-8.164-7.327" transform="translate(-431.902 106.798)"/>
    <path id="Path_21472" data-name="Path 21472" d="M1359.719,384.916h-20.53a10.32,10.32,0,0,1-1.247-20.565,10.191,10.191,0,0,1,19.878.1,10.321,10.321,0,1,1,1.9,20.466m-11.85-26.475a8.258,8.258,0,0,0-8.12,6.98l-.12.806-.814.036a8.342,8.342,0,0,0,.374,16.675h20.53a8.342,8.342,0,1,0-2.417-16.328l-1.142.345-.127-1.187a8.191,8.191,0,0,0-8.164-7.327" transform="translate(-355.551 63.798)"/>
    <g id="Group_8862" data-name="Group 8862" transform="translate(460.349 -131)">
      <path id="Path_21468" data-name="Path 21468" d="M1356.18,570.265a.989.989,0,0,1-.989-.989V522.037a.989.989,0,1,1,1.978,0v47.239a.989.989,0,0,1-.989.989" transform="translate(-851.719 114.798)"/>
      <path id="Path_21469" data-name="Path 21469" d="M1356.18,531.8a.982.982,0,0,1-.7-.29l-3.869-3.867a.989.989,0,0,1,1.4-1.4l3.868,3.867a.99.99,0,0,1-.7,1.689" transform="translate(-851.719 114.798)"/>
      <path id="Path_21470" data-name="Path 21470" d="M1356.179,539.02a.989.989,0,0,1-.811-1.554l4.24-6.1a.989.989,0,1,1,1.624,1.129l-4.24,6.1a.986.986,0,0,1-.813.425" transform="translate(-851.719 114.798)"/>
      <path id="Path_21471" data-name="Path 21471" d="M1356.291,551.724a1,1,0,0,1-.248-.032c-.232-.06-5.706-1.557-7.639-9.171-1.966-7.747,2.125-34.14,6.079-39.224a2.915,2.915,0,0,1,1.292-1.023.99.99,0,0,1,.438-.1h.156a.99.99,0,0,1,.438.1,2.915,2.915,0,0,1,1.292,1.023c3.954,5.084,8.045,31.477,6.079,39.224-1.932,7.613-7.407,9.111-7.639,9.171a.992.992,0,0,1-.248.032m0-47.5c-.864.694-2.947,5.2-4.81,16.233-1.585,9.392-2.051,18.063-1.16,21.577,1.425,5.612,5,7.3,5.971,7.661.991-.365,4.541-2.037,5.969-7.661.892-3.514.426-12.185-1.16-21.577-1.863-11.035-3.945-15.539-4.81-16.233" transform="translate(-851.719 114.798)"/>
    </g>
    <path id="Path_14639" data-name="Path 14639" d="M1451.133,576.385H1347.6c-.771,0-1.4.443-1.4.989s.625.989,1.4.989h103.537c.771,0,1.4-.443,1.4-.989s-.625-.989-1.4-.989" transform="translate(-432.085 -24.202)"/>
    <g id="Group_8864" data-name="Group 8864" transform="translate(647.337 331.833)">
      <path id="Path_14685" data-name="Path 14685" d="M1342,578.791a.989.989,0,0,1-.989-.989V552.2a.989.989,0,1,1,1.978,0V577.8a.989.989,0,0,1-.989.989" transform="translate(-1058.423 -356.463)"/>
      <path id="Path_14686" data-name="Path 14686" d="M1342,557.855a.985.985,0,0,1-.7-.288l-2.5-2.483a.989.989,0,1,1,1.4-1.4l2.5,2.483a.989.989,0,0,1-.7,1.691" transform="translate(-1058.423 -356.463)"/>
      <path id="Path_14687" data-name="Path 14687" d="M1342,562.3a.99.99,0,0,1-.82-1.542l2.992-4.443a.989.989,0,1,1,1.641,1.1l-2.992,4.444a.987.987,0,0,1-.821.437" transform="translate(-1058.423 -356.463)"/>
      <path id="Path_14688" data-name="Path 14688" d="M1342,565.665a10.04,10.04,0,1,1,10.04-10.041A10.052,10.052,0,0,1,1342,565.665m0-18.1a8.062,8.062,0,1,0,8.062,8.062,8.072,8.072,0,0,0-8.062-8.062" transform="translate(-1058.423 -356.463)"/>
    </g>
    <g id="Group_8865" data-name="Group 8865" transform="translate(720.337 331.833)">
      <path id="Path_14685-2" data-name="Path 14685" d="M1342,578.791a.989.989,0,0,1-.989-.989V552.2a.989.989,0,1,1,1.978,0V577.8a.989.989,0,0,1-.989.989" transform="translate(-1058.423 -356.463)"/>
      <path id="Path_14686-2" data-name="Path 14686" d="M1342,557.855a.985.985,0,0,1-.7-.288l-2.5-2.483a.989.989,0,1,1,1.4-1.4l2.5,2.483a.989.989,0,0,1-.7,1.691" transform="translate(-1058.423 -356.463)"/>
      <path id="Path_14687-2" data-name="Path 14687" d="M1342,562.3a.99.99,0,0,1-.82-1.542l2.992-4.443a.989.989,0,1,1,1.641,1.1l-2.992,4.444a.987.987,0,0,1-.821.437" transform="translate(-1058.423 -356.463)"/>
      <path id="Path_14688-2" data-name="Path 14688" d="M1342,565.665a10.04,10.04,0,1,1,10.04-10.041A10.052,10.052,0,0,1,1342,565.665m0-18.1a8.062,8.062,0,1,0,8.062,8.062,8.072,8.072,0,0,0-8.062-8.062" transform="translate(-1058.423 -356.463)"/>
    </g>
  </g>
</svg>
