<svg xmlns="http://www.w3.org/2000/svg" width="140" height="140" viewBox="0 0 140 140">
  <g id="Group_8923" data-name="Group 8923" transform="translate(-678 -4840)">
    <g id="Group_8906" data-name="Group 8906">
      <path id="Path_21519" data-name="Path 21519" d="M70,0A70,70,0,1,1,0,70,70,70,0,0,1,70,0Z" transform="translate(678 4840)" fill="#bce2af"/>
      <g id="Group_8883" data-name="Group 8883" transform="translate(713 4870)">
        <g id="Group_8894" data-name="Group 8894">
          <path id="Path_21520" data-name="Path 21520" d="M7.126,18.617a4.2,4.2,0,0,1,4.191-4.19.976.976,0,0,0,0-1.951,4.2,4.2,0,0,1-4.191-4.2.975.975,0,0,0-1.951,0,4.2,4.2,0,0,1-4.2,4.2.976.976,0,1,0,0,1.951,4.2,4.2,0,0,1,4.2,4.19.975.975,0,1,0,1.951,0M6.15,15.3A6.2,6.2,0,0,0,4.3,13.451,6.2,6.2,0,0,0,6.15,11.6,6.2,6.2,0,0,0,8,13.451,6.2,6.2,0,0,0,6.15,15.3" fill="#2050c5"/>
          <path id="Path_21520_-_Outline" data-name="Path 21520 - Outline" d="M6.15,20.343a1.727,1.727,0,0,1-1.725-1.726,3.448,3.448,0,0,0-3.449-3.44,1.725,1.725,0,1,1,0-3.451,3.453,3.453,0,0,0,3.449-3.45,1.726,1.726,0,0,1,3.451,0,3.449,3.449,0,0,0,3.441,3.45,1.725,1.725,0,0,1,0,3.451,3.444,3.444,0,0,0-3.441,3.44A1.728,1.728,0,0,1,6.15,20.343Zm0-12.292a.225.225,0,0,0-.225.225,4.955,4.955,0,0,1-4.949,4.95.226.226,0,1,0,0,.451,4.95,4.95,0,0,1,4.949,4.94.226.226,0,1,0,.451,0,4.946,4.946,0,0,1,4.941-4.94.226.226,0,0,0,0-.451,4.951,4.951,0,0,1-4.941-4.95A.226.226,0,0,0,6.15,8.051Zm0,8.632-.631-.976a5.482,5.482,0,0,0-1.629-1.625l-.98-.63.98-.631a5.484,5.484,0,0,0,1.629-1.629l.631-.98.63.98a5.482,5.482,0,0,0,1.625,1.629l.976.631-.977.63A5.479,5.479,0,0,0,6.78,15.706ZM5.536,13.45a7.04,7.04,0,0,1,.614.612,7.036,7.036,0,0,1,.612-.612,7.04,7.04,0,0,1-.612-.614A7.043,7.043,0,0,1,5.536,13.45Z" fill="#2050c6"/>
          <path id="Path_21521" data-name="Path 21521" d="M44.925,7.126a4.2,4.2,0,0,1,4.2,4.191.976.976,0,0,0,1.952,0,4.2,4.2,0,0,1,4.19-4.191.975.975,0,0,0,0-1.951,4.2,4.2,0,0,1-4.19-4.2.976.976,0,1,0-1.952,0,4.2,4.2,0,0,1-4.2,4.2.975.975,0,0,0,0,1.951M50.1,4.3a6.2,6.2,0,0,0,1.85,1.852A6.189,6.189,0,0,0,50.1,8,6.2,6.2,0,0,0,48.247,6.15,6.206,6.206,0,0,0,50.1,4.3" fill="#2050c5"/>
          <path id="Path_21521_-_Outline" data-name="Path 21521 - Outline" d="M50.1,13.042a1.727,1.727,0,0,1-1.726-1.725,3.449,3.449,0,0,0-3.449-3.441,1.726,1.726,0,0,1,0-3.451A3.453,3.453,0,0,0,48.374.976a1.726,1.726,0,1,1,3.452,0,3.448,3.448,0,0,0,3.44,3.449,1.726,1.726,0,0,1,0,3.451,3.444,3.444,0,0,0-3.44,3.441A1.727,1.727,0,0,1,50.1,13.042ZM50.1.75a.226.226,0,0,0-.226.226,4.955,4.955,0,0,1-4.949,4.949.226.226,0,0,0,0,.451,4.951,4.951,0,0,1,4.949,4.941.226.226,0,0,0,.452,0,4.946,4.946,0,0,1,4.94-4.941.226.226,0,0,0,0-.451A4.95,4.95,0,0,1,50.326.976.226.226,0,0,0,50.1.75Zm0,8.632-.631-.976a5.48,5.48,0,0,0-1.628-1.625l-.98-.63.98-.631a5.49,5.49,0,0,0,1.628-1.628l.631-.978.63.979A5.482,5.482,0,0,0,52.356,5.52l.978.631-.979.63a5.472,5.472,0,0,0-1.626,1.625Zm-.614-3.233a7.039,7.039,0,0,1,.613.612,7.028,7.028,0,0,1,.613-.612,7.039,7.039,0,0,1-.613-.613A7.048,7.048,0,0,1,49.486,6.149Z" fill="#2050c6"/>
          <path id="Path_21522" data-name="Path 21522" d="M58.418,60.175a3.188,3.188,0,0,1-3.182-3.188.976.976,0,1,0-1.951,0A3.192,3.192,0,0,1,50.1,60.175a.976.976,0,1,0,0,1.952,3.189,3.189,0,0,1,3.189,3.181.976.976,0,1,0,1.951,0,3.185,3.185,0,0,1,3.182-3.181.976.976,0,0,0,0-1.952M54.26,62.3a5.181,5.181,0,0,0-1.153-1.151A5.2,5.2,0,0,0,54.26,60a5.165,5.165,0,0,0,1.151,1.154A5.152,5.152,0,0,0,54.26,62.3" fill="#2050c5"/>
          <path id="Path_21522_-_Outline" data-name="Path 21522 - Outline" d="M54.26,67.034a1.727,1.727,0,0,1-1.725-1.726A2.438,2.438,0,0,0,50.1,62.877a1.726,1.726,0,1,1,0-3.452,2.441,2.441,0,0,0,2.439-2.438,1.726,1.726,0,1,1,3.451,0,2.438,2.438,0,0,0,2.432,2.438,1.726,1.726,0,0,1,0,3.452,2.434,2.434,0,0,0-2.432,2.431A1.728,1.728,0,0,1,54.26,67.034Zm0-10.273a.226.226,0,0,0-.225.226A3.943,3.943,0,0,1,50.1,60.925a.226.226,0,1,0,0,.452,3.939,3.939,0,0,1,3.939,3.931.226.226,0,1,0,.451,0,3.936,3.936,0,0,1,3.932-3.931.226.226,0,0,0,0-.452,3.939,3.939,0,0,1-3.932-3.938A.226.226,0,0,0,54.26,56.761Zm0,6.819-.608-.837a4.42,4.42,0,0,0-.986-.984l-.838-.607.837-.608a4.433,4.433,0,0,0,.986-.987l.608-.839.607.84a4.4,4.4,0,0,0,.984.986l.837.608-.838.607a4.391,4.391,0,0,0-.983.983Z" fill="#2050c6"/>
          <path id="Path_21523" data-name="Path 21523" d="M23.248,67.145l-.962,7.546a.976.976,0,0,0,.968,1.1H42.616a.975.975,0,0,0,.968-1.1l-.962-7.546a.976.976,0,0,0-.968-.852H24.216a.977.977,0,0,0-.968.852m1.827,1.1h15.72l.713,5.595H24.362Z" fill="#2050c5"/>
          <path id="Path_21523_-_Outline" data-name="Path 21523 - Outline" d="M24.216,65.543H41.654a1.729,1.729,0,0,1,1.712,1.507l.962,7.546a1.725,1.725,0,0,1-1.712,1.944H23.254A1.726,1.726,0,0,1,21.542,74.6L22.5,67.05A1.731,1.731,0,0,1,24.216,65.543Zm18.4,9.5a.225.225,0,0,0,.224-.253l-.962-7.547a.226.226,0,0,0-.224-.2H24.216a.227.227,0,0,0-.224.2l-.962,7.545a.226.226,0,0,0,.224.254Zm-18.2-7.546H41.455l.9,7.095H23.51Zm15.72,1.5h-14.4l-.522,4.095H40.656Z" fill="#2050c6"/>
          <path id="Path_21526" data-name="Path 21526" d="M51.467,26.129a5.192,5.192,0,0,0-4.032-8.488h-29A5.192,5.192,0,0,0,14.4,26.129a8.229,8.229,0,0,0-7.926,8.209V36.9A16.247,16.247,0,0,0,20.433,52.977a16.225,16.225,0,0,0,6.305,4.667v4.439H19.391a.976.976,0,0,0-.969.859L16.5,78.907A.977.977,0,0,0,17.466,80H48.4a.977.977,0,0,0,.969-1.093L47.449,62.942a.976.976,0,0,0-.968-.859H39.133V57.644a16.229,16.229,0,0,0,6.306-4.667A16.247,16.247,0,0,0,59.393,36.9v-2.56a8.229,8.229,0,0,0-7.926-8.209M8.429,36.9v-2.56A6.28,6.28,0,0,1,14.7,28.066h2.014V42.661c0,.415.02.828.05,1.238.01.125.024.249.036.373.029.292.064.582.108.871.021.132.041.265.065.4.055.311.121.619.194.925.022.09.039.182.063.273q.151.587.347,1.159c.031.091.068.18.1.271q.157.439.342.87c.052.122.107.242.162.362q.184.4.392.793c.055.1.108.211.166.315.028.05.052.1.08.152A14.309,14.309,0,0,1,8.429,36.9M45.616,64.034l1.689,14.014H18.566l1.69-14.014h25.36ZM28.69,62.083V58.319l.022.005c.04.011.081.018.122.029.366.1.737.177,1.111.246.143.027.288.049.432.072q.42.066.844.11c.155.017.31.034.465.046.357.027.714.043,1.071.046.06,0,.119.008.179.008s.119-.007.178-.008c.358,0,.714-.019,1.07-.046.156-.012.311-.029.467-.046q.423-.043.843-.11c.144-.023.288-.045.432-.072.376-.07.75-.151,1.119-.248.038-.01.076-.016.113-.026l.024-.006v3.764ZM44.862,50.495q-.33.5-.7.975a14.282,14.282,0,0,1-6.336,4.6q-.587.215-1.189.375a14.469,14.469,0,0,1-6.179.267,14.125,14.125,0,0,1-2.407-.642,14.289,14.289,0,0,1-6.334-4.6,14.139,14.139,0,0,1-3.047-8.811V28.066H32.954a.976.976,0,1,0,0-1.952H18.025a.99.99,0,0,0-.163-.06,3.256,3.256,0,0,1,.574-6.462h29a3.256,3.256,0,0,1,.574,6.462.976.976,0,0,0-.8.961V42.661a14.429,14.429,0,0,1-.2,2.379,14.084,14.084,0,0,1-2.147,5.455m12.58-13.6A14.31,14.31,0,0,1,47.049,50.66c.029-.049.052-.1.08-.15.058-.106.112-.213.168-.32.138-.26.269-.524.391-.791.055-.119.11-.239.162-.36q.186-.434.344-.877c.032-.088.068-.175.1-.263q.2-.574.349-1.163c.022-.088.039-.177.06-.265.074-.309.141-.62.2-.933.024-.131.044-.262.064-.394.044-.288.08-.579.108-.871.013-.125.027-.249.036-.375.031-.41.051-.822.051-1.237V28.066h2.013a6.28,6.28,0,0,1,6.273,6.272Z" fill="#2050c5"/>
          <path id="Path_21526_-_Outline" data-name="Path 21526 - Outline" d="M18.436,16.891h29A5.969,5.969,0,0,1,53.4,22.853a5.9,5.9,0,0,1-.641,2.661,8.982,8.982,0,0,1,7.387,8.824V36.9A17,17,0,0,1,45.831,53.676a17.073,17.073,0,0,1-5.948,4.461v3.2h6.6a1.726,1.726,0,0,1,1.713,1.519l1.925,15.965A1.727,1.727,0,0,1,48.4,80.75H17.466a1.727,1.727,0,0,1-1.714-1.932l1.925-15.966a1.727,1.727,0,0,1,1.714-1.519h6.6v-3.2a17.068,17.068,0,0,1-5.947-4.461A17,17,0,0,1,5.728,36.9v-2.56a8.982,8.982,0,0,1,7.387-8.824,5.9,5.9,0,0,1-.641-2.661A5.969,5.969,0,0,1,18.436,16.891ZM48.4,79.25A.227.227,0,0,0,48.629,79L46.7,63.032a.225.225,0,0,0-.223-.2h-8.1v-5.69l.463-.192A15.553,15.553,0,0,0,44.861,52.5l.185-.224.287-.041A15.5,15.5,0,0,0,58.643,36.9v-2.56a7.479,7.479,0,0,0-7.2-7.459l-1.508-.055.954-1.169a4.392,4.392,0,0,0,1.011-2.8,4.467,4.467,0,0,0-4.462-4.462h-29a4.467,4.467,0,0,0-4.462,4.462,4.392,4.392,0,0,0,1.011,2.8l.954,1.169-1.508.055a7.479,7.479,0,0,0-7.2,7.459V36.9A15.5,15.5,0,0,0,20.539,52.235l.287.041.185.224a15.547,15.547,0,0,0,6.014,4.452l.463.192v5.69h-8.1a.226.226,0,0,0-.224.2L17.242,79a.228.228,0,0,0,.056.177.225.225,0,0,0,.168.076ZM18.436,18.842h29a4.006,4.006,0,0,1,.705,7.95.226.226,0,0,0-.185.223V42.661a15.229,15.229,0,0,1-.206,2.5,14.794,14.794,0,0,1-2.261,5.744c-.232.352-.481.7-.739,1.025a15.031,15.031,0,0,1-6.669,4.841c-.407.149-.829.282-1.252.395a15.219,15.219,0,0,1-6.5.281,15.022,15.022,0,0,1-12.409-14.79V27.316H32.954a.226.226,0,0,0,0-.452H17.891l-.126-.047c-.028-.01-.056-.022-.084-.034a4.006,4.006,0,0,1,.755-7.941Zm14.5,37.334a13.624,13.624,0,0,0,3.506-.456c.38-.1.758-.221,1.124-.355a13.533,13.533,0,0,0,6-4.359c.233-.3.457-.608.667-.925a13.3,13.3,0,0,0,2.033-5.165,13.726,13.726,0,0,0,.186-2.256V27.015a1.724,1.724,0,0,1,1.422-1.7,2.506,2.506,0,0,0-.442-4.974h-29a2.506,2.506,0,0,0-.443,4.974H18a1.093,1.093,0,0,1,.172.047H32.954a1.726,1.726,0,0,1,0,3.452H19.417V42.661A13.4,13.4,0,0,0,22.3,51.009a13.442,13.442,0,0,0,8.28,4.964A13.69,13.69,0,0,0,32.935,56.176ZM14.7,27.316h2.764V42.661c0,.354.016.74.048,1.181.006.078.014.155.022.232q.006.063.013.126c.03.3.063.569.1.828l.013.085c.016.1.031.2.048.293.049.28.11.568.186.885.01.041.02.086.03.131s.019.089.029.125c.1.381.209.752.331,1.107.016.046.033.089.049.133s.032.083.047.125c.1.28.21.559.326.83.049.114.1.226.154.345.113.246.239.5.373.755l.051.1c.037.071.071.138.107.2.018.032.036.066.053.1.009.017.017.034.026.05l.886,1.582-1.745-.494A15.059,15.059,0,0,1,7.679,36.9v-2.56A7.03,7.03,0,0,1,14.7,27.316Zm1.264,1.5H14.7a5.529,5.529,0,0,0-5.523,5.522V36.9a13.442,13.442,0,0,0,2.771,8.213,13.658,13.658,0,0,0,5.382,4.22c-.128-.3-.248-.6-.358-.91-.011-.03-.024-.063-.036-.1-.021-.056-.046-.119-.069-.186-.134-.39-.256-.8-.363-1.213-.017-.064-.031-.127-.043-.184-.007-.033-.014-.066-.022-.1-.084-.35-.15-.667-.2-.972-.02-.109-.037-.218-.054-.325l-.014-.09c-.044-.286-.081-.584-.113-.91,0-.041-.008-.081-.012-.12-.009-.089-.018-.178-.025-.267v-.005c-.035-.478-.052-.9-.052-1.293Zm32.44-1.5h2.763a7.03,7.03,0,0,1,7.023,7.022V36.9A15.055,15.055,0,0,1,47.253,51.382l-1.8.509.946-1.612c.007-.013.014-.026.02-.039.016-.031.032-.063.049-.093.037-.067.071-.135.106-.2l.053-.1c.136-.257.261-.509.373-.755.052-.112.105-.228.155-.344.114-.266.224-.546.327-.834.016-.043.031-.083.046-.123s.033-.086.048-.129c.122-.358.234-.73.332-1.106.01-.04.019-.081.027-.121s.019-.089.03-.133c.078-.324.139-.614.187-.889V45.4c.021-.115.039-.231.06-.371.042-.273.076-.552.1-.83l.008-.073c.01-.1.02-.193.027-.284.033-.438.049-.824.049-1.184Zm.135,22.014a13.662,13.662,0,0,0,5.38-4.22A13.441,13.441,0,0,0,56.692,36.9v-2.56a5.529,5.529,0,0,0-5.523-5.522H49.906V42.661c0,.4-.017.821-.053,1.294-.008.114-.02.224-.031.332l-.006.062c-.029.305-.067.611-.113.909-.018.119-.04.267-.067.413-.053.3-.12.623-.2.975-.008.034-.016.068-.023.1-.012.057-.025.113-.039.169l0,.007c-.108.414-.231.823-.365,1.217-.022.065-.046.127-.067.182-.012.031-.024.063-.036.095C48.787,48.73,48.667,49.037,48.541,49.33ZM37.932,57.358v5.475H27.94V57.379l.971.221.025.006.092.022c.328.086.684.165,1.053.233.11.021.219.038.336.056l.078.012c.27.042.541.078.8.1H31.3c.153.017.3.033.441.044.347.026.691.041,1.019.044h.006c.039,0,.079,0,.118.005a.773.773,0,0,0,.1,0c.039,0,.078,0,.117-.005h.006c.329,0,.672-.018,1.02-.044.14-.011.282-.026.433-.043h.01c.266-.027.536-.063.808-.105l.071-.011c.118-.019.23-.036.339-.057.388-.072.736-.149,1.067-.236l.091-.021.021,0L37,57.591Zm-1.5,3.975V59.264q-.18.037-.369.072c-.129.024-.257.044-.38.064l-.071.011c-.3.047-.6.086-.885.115h-.005c-.156.017-.316.034-.481.047-.38.029-.756.045-1.117.048l-.045,0c-.039,0-.088.006-.143.006s-.1,0-.144-.006l-.046,0c-.361,0-.736-.019-1.117-.048-.168-.013-.331-.031-.488-.048-.287-.029-.583-.068-.881-.115l-.078-.012c-.122-.019-.248-.039-.377-.064s-.245-.047-.366-.072v2.069ZM19.591,63.284h26.69L48.151,78.8H17.72Zm25.36,1.5H20.921L19.412,77.3H46.459Z" fill="#2050c6"/>
        </g>
      </g>
    </g>
  </g>
</svg>
