<svg xmlns="http://www.w3.org/2000/svg" xmlns:xlink="http://www.w3.org/1999/xlink" width="140" height="140" viewBox="0 0 140 140">
  <defs>
    <clipPath id="clip-path">
      <rect id="Rectangle_6981" data-name="Rectangle 6981" width="61.769" height="84.453" fill="#2151c6" stroke="#2151c7" stroke-width="1"/>
    </clipPath>
  </defs>
  <g id="Group_8918" data-name="Group 8918" transform="translate(-140 -4273)">
    <g id="Group_8904" data-name="Group 8904">
      <path id="Path_21475" data-name="Path 21475" d="M70,0A70,70,0,1,1,0,70,70,70,0,0,1,70,0Z" transform="translate(140 4273)" fill="#bce2af"/>
      <g id="Group_8870" data-name="Group 8870" transform="translate(178.683 4301.061)">
        <g id="Group_8869" data-name="Group 8869" transform="translate(0 0)" clip-path="url(#clip-path)">
          <path id="Path_21476" data-name="Path 21476" d="M29.088,18.171,15.853,2.726l-3.818.043L27.286,20.284ZM32.08,48.739l2.478,4.7,5.234.9A1.367,1.367,0,0,1,40.907,55.9a1.309,1.309,0,0,1-.418.762L36.832,60.43l.762,5.266a1.367,1.367,0,0,1-1.984,1.394l-4.73-2.327L26.117,67.1A1.345,1.345,0,0,1,24.176,65.7l.751-5.266-3.7-3.808a1.36,1.36,0,0,1,.751-2.285l5.223-.9,2.478-4.7a1.353,1.353,0,0,1,1.834-.568,1.267,1.267,0,0,1,.568.568m.386,6.553-1.587-3.014-1.555,2.971a1.364,1.364,0,0,1-1,.751l-3.357.579L27.3,58.971a1.369,1.369,0,0,1,.418,1.18l-.483,3.379,3.046-1.5a1.352,1.352,0,0,1,1.2,0l3.057,1.5-.493-3.368a1.373,1.373,0,0,1,.375-1.137l2.37-2.445L33.442,56a1.374,1.374,0,0,1-.976-.708m-24-52.48-4.151.054L23.414,24.8l2.081-2.435Zm21.451,22.7L49.735,2.769l-3.818-.043L26.374,25.507h3.539m23.392-22.7-19.778,22.7h4.194L57.446,2.865l-4.14-.054M30.879,30.806a26.737,26.737,0,0,1,12.613,3.143V27.095a3.285,3.285,0,0,0-.5-1.727,3.5,3.5,0,0,0-.794-.847l-2.789,3.207a1.349,1.349,0,0,1-1.062.5H23.414A1.334,1.334,0,0,1,22.4,27.77l-2.832-3.25a3.264,3.264,0,0,0-.783.847,3.164,3.164,0,0,0-.5,1.727v6.854a26.662,26.662,0,0,1,12.6-3.143m13.107-8.334A6.021,6.021,0,0,1,45.273,23.9a5.942,5.942,0,0,1,.944,3.2v8.516a28.2,28.2,0,0,1,3.636,3.046,26.83,26.83,0,1,1-37.936,0,27.492,27.492,0,0,1,3.636-3.046V27.095a5.906,5.906,0,0,1,.933-3.2,6.285,6.285,0,0,1,1.287-1.427L.333,2.436A1.361,1.361,0,0,1,1.341.184L16.389,0A1.384,1.384,0,0,1,17.5.474L30.879,16.079,44.265.474A1.379,1.379,0,0,1,45.3,0L60.321.184A1.342,1.342,0,0,1,61.3.517a1.359,1.359,0,0,1,.129,1.92L43.986,22.472M30.879,37.638a19.994,19.994,0,1,1-14.136,5.856,19.932,19.932,0,0,1,14.136-5.856m12.206,7.776A17.258,17.258,0,1,0,48.147,57.63a17.2,17.2,0,0,0-5.062-12.216m4.837-4.827A24.107,24.107,0,1,0,54.979,57.63a24.034,24.034,0,0,0-7.057-17.043" transform="translate(0 0.002)" fill="#2151c6"/>
          <path id="Path_21476_-_Outline" data-name="Path 21476 - Outline" d="M30.879,84.955A27.317,27.317,0,0,1,11.563,38.3a27.963,27.963,0,0,1,3.49-2.951V27.095a6.42,6.42,0,0,1,1.012-3.466l0-.006a6.951,6.951,0,0,1,1-1.2L-.045,2.765A1.85,1.85,0,0,1-.5,1.56,1.838,1.838,0,0,1,.028.243,1.852,1.852,0,0,1,1.334-.316L16.374-.5l.087,0a1.883,1.883,0,0,1,1.42.645l13,15.166L43.885.148A1.884,1.884,0,0,1,45.3-.5h.006l15,.182A1.859,1.859,0,0,1,61.8,2.764L44.691,22.424a6.425,6.425,0,0,1,2.026,4.671v8.258A28.869,28.869,0,0,1,50.2,38.3,27.321,27.321,0,0,1,30.879,84.955ZM16.9,24.171a5.422,5.422,0,0,0-.852,2.924V35.87l-.213.149a27.032,27.032,0,0,0-3.57,2.99,26.327,26.327,0,1,0,37.229,0,27.8,27.8,0,0,0-3.569-2.99l-.213-.149V27.095a5.428,5.428,0,0,0-.865-2.927,5.494,5.494,0,0,0-1.18-1.307l-.4-.326L61.048,2.108a.865.865,0,0,0,.212-.627.859.859,0,0,0-.908-.8h-.037L45.3.5a.885.885,0,0,0-.657.3L30.879,16.848,17.125.8a.884.884,0,0,0-.71-.3h-.02L1.347.684a.858.858,0,0,0-.6.259A.845.845,0,0,0,.5,1.55v.007a.849.849,0,0,0,.211.553l17.78,20.426-.405.326A5.8,5.8,0,0,0,16.9,24.171Zm13.974,58.06A24.534,24.534,0,1,1,40.46,80.3,24.436,24.436,0,0,1,30.879,82.231Zm0-48.2a23.534,23.534,0,1,0,9.191,1.856A23.441,23.441,0,0,0,30.879,34.03Zm0,44.093a20.432,20.432,0,1,1,7.979-1.612A20.34,20.34,0,0,1,30.879,78.123Zm0-39.985a19.432,19.432,0,1,0,7.589,1.533A19.346,19.346,0,0,0,30.879,38.138Zm0,37.261A17.821,17.821,0,1,1,43.438,70.19,17.622,17.622,0,0,1,30.879,75.4Zm0-34.536a16.766,16.766,0,1,0,11.852,4.905A16.672,16.672,0,0,0,30.879,40.862Zm5.358,26.882a1.866,1.866,0,0,1-.854-.208l-4.5-2.217-4.542,2.23a1.866,1.866,0,0,1-2.491-.837l-.007-.015a1.865,1.865,0,0,1-.158-1.078L24.4,60.6l-3.529-3.632a1.847,1.847,0,0,1,.044-2.629,1.861,1.861,0,0,1,.983-.5l4.978-.859,2.363-4.48a1.851,1.851,0,0,1,2.506-.779,1.758,1.758,0,0,1,.783.783l2.361,4.476,4.991.859A1.877,1.877,0,0,1,41.4,55.982v.006a1.81,1.81,0,0,1-.563,1.036L37.362,60.6l.726,5.023A1.835,1.835,0,0,1,37.739,67a1.886,1.886,0,0,1-1.5.748Zm-5.358-3.539,4.961,2.441a.876.876,0,0,0,1.1-.25.842.842,0,0,0,.16-.629l-.8-5.51,3.853-3.964a.808.808,0,0,0,.259-.472.862.862,0,0,0-.708-.992l-5.476-.943-2.6-4.925a.765.765,0,0,0-.345-.345l-.011-.006a.839.839,0,0,0-.4-.1.862.862,0,0,0-.76.462l-2.592,4.914-5.472.944a.863.863,0,0,0-.454.234.847.847,0,0,0-.019,1.207l3.873,3.985-.787,5.521a.837.837,0,0,0,.846.963.856.856,0,0,0,.381-.089Zm4.29.191-3.91-1.921a.862.862,0,0,0-.757,0L26.6,64.4l.617-4.317a.867.867,0,0,0-.271-.749l-.011-.011-2.989-3.072,4.292-.741a.869.869,0,0,0,.635-.482l0-.008,2-3.815,2.031,3.856a.877.877,0,0,0,.621.449l4.276.74-3.029,3.125a.873.873,0,0,0-.239.72Zm-7.519-5.78a1.856,1.856,0,0,1,.56,1.6l-.349,2.44,2.2-1.083a1.851,1.851,0,0,1,1.646,0l2.2,1.081-.357-2.435a1.868,1.868,0,0,1,.511-1.549l1.713-1.767-2.419-.419a1.871,1.871,0,0,1-1.328-.966L30.88,53.354l-1.112,2.124a1.857,1.857,0,0,1-1.36,1.016l-2.419.417ZM17.777,34.782V27.095a3.648,3.648,0,0,1,.584-2,3.788,3.788,0,0,1,.9-.975l.372-.282,3.138,3.6a.832.832,0,0,0,.642.29h14.93a.847.847,0,0,0,.67-.315l.014-.017,3.1-3.56.373.283a3.986,3.986,0,0,1,.908.968l.009.015a3.8,3.8,0,0,1,.579,1.989v7.687l-.735-.392a26.3,26.3,0,0,0-24.745,0Zm13.1-4.477a27.234,27.234,0,0,1,12.113,2.824V27.095a2.8,2.8,0,0,0-.425-1.457,3.055,3.055,0,0,0-.327-.408l-2.45,2.818a1.841,1.841,0,0,1-1.446.684H23.414a1.841,1.841,0,0,1-1.4-.635l-2.5-2.866a2.688,2.688,0,0,0-.316.4l0,.006a2.651,2.651,0,0,0-.423,1.454v6.034a27.113,27.113,0,0,1,5.377-1.988A27.408,27.408,0,0,1,30.879,30.306Zm7.07-4.3h-5.52l20.652-23.7,5.451.071Zm-3.322-1h2.867L56.36,3.351l-2.829-.037Zm-4.486,1H25.287l20.4-23.784,5.134.058Zm-2.679-1h2.224l18.96-21.75-2.5-.028Zm-4.044.558L3.226,2.379l5.462-.071L26.155,22.361ZM5.4,3.351,23.411,24.034l1.424-1.666L8.238,3.315ZM27.29,21.05,10.946,2.281l5.134-.058L29.746,18.17ZM13.122,3.257l14.16,16.261,1.148-1.346L15.625,3.229Z" transform="translate(0 0.002)" fill="#2151c7"/>
        </g>
      </g>
    </g>
  </g>
</svg>
