<svg xmlns="http://www.w3.org/2000/svg" xmlns:xlink="http://www.w3.org/1999/xlink" width="140" height="140" viewBox="0 0 140 140">
  <defs>
    <clipPath id="clip-path">
      <rect id="Rectangle_6980" data-name="Rectangle 6980" width="77.537" height="77.544" fill="#2151c6"/>
    </clipPath>
  </defs>
  <g id="Group_8922" data-name="Group 8922" transform="translate(-262 -4840)">
    <g id="Group_8905" data-name="Group 8905">
      <circle id="Ellipse_9" data-name="Ellipse 9" cx="70" cy="70" r="70" transform="translate(262 4840)" fill="#bce2af"/>
      <g id="Group_8868" data-name="Group 8868" transform="translate(292 4871.566)">
        <g id="Group_8867" data-name="Group 8867" transform="translate(0 0)" clip-path="url(#clip-path)">
          <path id="Path_21474" data-name="Path 21474" d="M26.3,24.172l-3.72-.192a12.592,12.592,0,0,0-9.535,3.673l-6.22,6.18a3.036,3.036,0,0,0,1.022,4.935l8.561,3.569a56.406,56.406,0,0,0-1.6,5.909,2.4,2.4,0,0,0,.648,2.2L27.118,62.109a2.4,2.4,0,0,0,2.2.647,55.91,55.91,0,0,0,5.909-1.6l3.537,8.528A3.034,3.034,0,0,0,43.7,70.709l6.18-6.18a12.6,12.6,0,0,0,3.665-9.534l-.192-3.721C66.875,40.461,75,24.547,77.512,3.9A3.481,3.481,0,0,0,73.639.025C52.989,2.54,37.075,10.661,26.3,24.172M72.545,5.007C69.9,24,62.164,38.545,49.46,48.215a2.4,2.4,0,0,0-.942,2.028l.256,4.959a7.8,7.8,0,0,1-2.284,5.925l-4.32,4.32-3.4-8.265A2.4,2.4,0,0,0,35.7,55.865a52.6,52.6,0,0,1-6.157,1.924L19.747,48a53,53,0,0,1,1.924-6.157,2.4,2.4,0,0,0-1.318-3.074l-8.241-3.4,4.3-4.32a7.816,7.816,0,0,1,5.908-2.276l4.959.256a2.4,2.4,0,0,0,2.028-.942C39.007,15.4,53.54,7.626,72.537,5ZM53.285,32.955a3.344,3.344,0,1,0-.008.024Zm-2.779-11.5a5.127,5.127,0,1,1-.029.045l.021-.021ZM2.987,77.544h.048c13.119-.232,19.563-7.187,21.727-10.2a2.787,2.787,0,0,0-2.939-4.328,13.153,13.153,0,0,1-4.838.327A3.192,3.192,0,0,1,14.2,60.552a13.09,13.09,0,0,1,.327-4.839A2.787,2.787,0,0,0,10.2,52.774C7.211,54.93.224,61.382,0,74.494a3,3,0,0,0,2.954,3.05h.032Zm6.388-17.3a4.815,4.815,0,0,0,.079.87A7.985,7.985,0,0,0,16.41,68.09l.87.08a22.964,22.964,0,0,1-12.4,4.488A22.977,22.977,0,0,1,9.359,60.248Z" transform="translate(0 0)" fill="#2151c6"/>
        </g>
      </g>
    </g>
  </g>
</svg>
