<svg xmlns="http://www.w3.org/2000/svg" width="140" height="140" viewBox="0 0 140 140">
  <g id="Group_8924" data-name="Group 8924" transform="translate(-1082 -4840)">
    <g id="Group_8900" data-name="Group 8900">
      <circle id="Ellipse_9" data-name="Ellipse 9" cx="70" cy="70" r="70" transform="translate(1082 4840)" fill="#bce2af"/>
      <g id="Group_8876" data-name="Group 8876" transform="translate(1103.572 4862.24)">
        <g id="Group_8875" data-name="Group 8875">
          <path id="Path_21488" data-name="Path 21488" d="M96.44,23.451l-6.85-4.87a1,1,0,0,0-1.3.12l-9.4,9.75-8-4a1,1,0,0,0-1,.1L66.82,26.9a1,1,0,0,0-.38,1.14l2.75,7.44-5.21,2.53-2.93-.49a1,1,0,0,0-1.12.72l-.77,2.75-3.19,1.16-4.85-1.3-2.5-2.35,2.14-3.83a1,1,0,0,0-.13-1.17l-1.6-1.71,2-6.09,9.38-5a1,1,0,0,0,.53-.88v-6.73a1,1,0,0,0-.53-.88l-4.69-2.53a1,1,0,0,0-1.36.43l-3,5.81-2.63.2,2.59-7.76a1,1,0,0,0-.44-1.18l-3.06-1.8a1,1,0,0,0-1.363.378l-.017.032-1.9,3.62V6.5l.9-5.33a.99.99,0,0,0-.99-1.16h-3.4a1.143,1.143,0,0,0-.32,0l-3.78,1.26a1,1,0,0,0-.638,1.262c.011.033.024.066.038.1l2.23,4.94-.51.49L36.58,7a1,1,0,0,0-1-.1l-2.34,1.13a1,1,0,0,0-.56.68l-2.7,11.54a1,1,0,0,0,1,1.23h3.46l1,3.91a1,1,0,0,0,1,.78h4.17l.75,6-3.62,6.41-3.5,1.14a1,1,0,0,0-.68,1v5.31l-2,3.27-3.25-2.68a1.013,1.013,0,0,0-.22-.14l-6.65-3.11a1,1,0,0,0-.82,0l-5.77,2.52a1,1,0,0,0-.36.27l-4.5,5.22a1,1,0,0,0-.25.66v2.49l-7.21,2.14a1,1,0,0,0-.53.37L.2,59.571a1,1,0,0,0,0,1.2l3.29,4.12L2.9,67.1a1,1,0,0,0,.22.92l8.76,9.77,2.64,6.51a1,1,0,0,0,.46.51L25.44,90.4a1,1,0,0,0,.83,0l10.64-4.14a1,1,0,0,0,.58-.62l1.13-3.39,4.82,1.54a1.063,1.063,0,0,0,.66,0l3.87-1.49,1.79,3.31-.35,8a1,1,0,0,0,.91,1l9.74.91h.09a1,1,0,0,0,.86-.49l2.64-4.47,6.21-1a1,1,0,0,0,.81-.75l2-7.93a1,1,0,0,0-.98-1.24H69.03l-1.28-4.53,1.47-1.76a1,1,0,0,0,.11-1.12l-1.26-2.34a1,1,0,0,0-.88-.53H62.44l.39-2,21.1-7.73a1,1,0,0,0,.51-.44l2.54-4.4a1,1,0,0,0-.05-1.08l-2.63-3.62,10.73-14.2a1,1,0,0,0,.11-1l-.93-2.1,2.59-8.2a1,1,0,0,0-.36-1.14m-4.24,9.08a1,1,0,0,0,0,.7l.84,1.9L82.25,49.441a1,1,0,0,0,0,1.19l2.69,3.7-2,3.55-21.32,7.81a1,1,0,0,0-.64.75l-.72,3.79a.993.993,0,0,0,.98,1.18h5.35l.66,1.23-1.37,1.64a1,1,0,0,0-.2.91l1.63,5.77a1,1,0,0,0,1,.73h2.13l-1.51,6-6,1a1,1,0,0,0-.7.47l-2.56,4.33-8.23-.7.32-7.34a1,1,0,0,0-.12-.52L49.3,80.6a1,1,0,0,0-1.24-.45l-4.34,1.64L38.28,80.1a1,1,0,0,0-1.24.63l-1.3,3.88-9.77,3.81-9.73-5.2-2.57-6.33a.787.787,0,0,0-.18-.29l-8.47-9.51L5.6,64.9a1,1,0,0,0-.18-.88L2.28,60.1l1.16-1.62,7.6-2.25a1,1,0,0,0,.71-1V52.4l4.12-4.78,5.15-2.25,6.14,2.82,4.05,3.35a1,1,0,0,0,1.407-.142.964.964,0,0,0,.083-.118l2.74-4.49a1,1,0,0,0,.14-.51v-4.89l3.1-1a1,1,0,0,0,.56-.46l4-7a1,1,0,0,0,.12-.62l-.92-7.27a1,1,0,0,0-1-.87H37.16l-.91-3.92a1,1,0,0,0-1-.77H32.22l2.3-9.83,1.37-.64,1.69,1.21a1,1,0,0,0,1.27-.09l1.59-1.55a1,1,0,0,0,.22-1.13l-2.07-4.58,2.58-.86h2.08l-.7,4.24a.965.965,0,0,0,0,.17v7a1,1,0,0,0,1.89.46l3.3-6.28,1.46.86-2.76,8.46a1,1,0,0,0,1.03,1.31l4.68-.36a1,1,0,0,0,.81-.54l2.78-5.4,3.27,1.76v5.47L49.8,24.1a1,1,0,0,0-.48.57l-2.34,7a1,1,0,0,0,.21,1l1.5,1.63-2.17,3.88a1,1,0,0,0,.18,1.21l3.25,3.07a1.07,1.07,0,0,0,.43.24l5.4,1.44a1.006,1.006,0,0,0,.6,0l4-1.44a1,1,0,0,0,.62-.67l.66-2.38,2.36.39a1,1,0,0,0,.6-.08l6.31-3.07a1,1,0,0,0,.5-1.24l-2.81-7.6,2-1.52,8.1,4.05a1,1,0,0,0,1.17-.2l9.31-9.66,5.56,3.95Z" fill="#2151c6"/>
          <path id="Path_21488_-_Outline" data-name="Path 21488 - Outline" d="M40.89-.75a1.9,1.9,0,0,1,.206.011H44.46a1.746,1.746,0,0,1,1.33.613l0,0A1.747,1.747,0,0,1,46.179,1.3l-.841,4.979.456-.868L45.8,5.39a1.75,1.75,0,0,1,2.385-.662l.011.006,3.06,1.8a1.758,1.758,0,0,1,.77,2.066L49.8,15.288l1.087-.083,2.808-5.438a1.75,1.75,0,0,1,2.378-.748l4.694,2.532a1.746,1.746,0,0,1,.924,1.538v6.732a1.748,1.748,0,0,1-.928,1.542l-9.114,4.858L49.881,31.6l1.3,1.386.005.006a1.744,1.744,0,0,1,.23,2.045L49.56,38.356l1.936,1.82,4.44,1.19,2.606-.948.666-2.379a1.748,1.748,0,0,1,1.96-1.258h.006l2.694.451L68.251,35.1l-2.514-6.8-.008-.022a1.759,1.759,0,0,1,.648-1.983l3.058-2.34.016-.012a1.748,1.748,0,0,1,1.751-.175l.024.012,7.507,3.754L87.75,18.18a1.761,1.761,0,0,1,1.26-.535h0a1.74,1.74,0,0,1,1.015.324l6.85,4.87,0,0a1.74,1.74,0,0,1,.634,1.983l-2.5,7.921.815,1.841a1.752,1.752,0,0,1-.193,1.75l0,.006L85.233,50.1l2.3,3.17,0,.006a1.754,1.754,0,0,1,.088,1.89l-2.539,4.4a1.753,1.753,0,0,1-.891.767l-.011,0-20.7,7.584-.135.691h3.84a1.748,1.748,0,0,1,1.542.928l1.258,2.337a1.739,1.739,0,0,1-.195,1.956l-1.216,1.456,1.018,3.6h2.1a1.755,1.755,0,0,1,1.7,2.167l0,.007-2,7.928A1.747,1.747,0,0,1,69.981,90.3l-5.865.944-2.461,4.167a1.757,1.757,0,0,1-1.506.859h-.09q-.035,0-.07,0l-9.74-.91a1.74,1.74,0,0,1-1.59-1.75q0-.015,0-.03L49,85.785l-1.378-2.547-3.255,1.253-.036.013a1.821,1.821,0,0,1-1.123,0L39.1,83.191,38.2,85.875a1.745,1.745,0,0,1-1.015,1.083l-.006,0L26.559,91.093a1.752,1.752,0,0,1-1.429-.01l-.043-.021-10.46-5.59a1.744,1.744,0,0,1-.8-.892l-2.59-6.386L2.562,68.522a1.744,1.744,0,0,1-.386-1.613l.493-1.845L-.386,61.239-.4,61.221A1.759,1.759,0,0,1-.406,59.13l1.8-2.523.006-.008a1.756,1.756,0,0,1,.924-.647l6.671-1.98v-1.93a1.745,1.745,0,0,1,.434-1.153l4.5-5.215a1.755,1.755,0,0,1,.628-.469l5.768-2.519a1.752,1.752,0,0,1,1.43,0l.011.005,6.65,3.11a1.765,1.765,0,0,1,.383.244l2.58,2.127L32.81,45.82V40.737A1.757,1.757,0,0,1,34,39.01l.007,0,3.223-1.05,3.355-5.94-.637-5.1h-3.5a1.741,1.741,0,0,1-1.737-1.353l-.853-3.337h-2.87a1.757,1.757,0,0,1-.438-.047,1.749,1.749,0,0,1-1.3-2.105L31.95,8.54a1.761,1.761,0,0,1,.971-1.188l2.333-1.127.015-.007a1.748,1.748,0,0,1,1.748.173l.306.218L35.666,2.94l0-.008c-.024-.055-.045-.109-.062-.162A1.75,1.75,0,0,1,36.716.558L40.493-.7a.75.75,0,0,1,.132-.031A1.9,1.9,0,0,1,40.89-.75ZM44.45.761h-3.4a.75.75,0,0,1-.105-.007.4.4,0,0,0-.06,0l-3.7,1.233a.247.247,0,0,0-.148.125.25.25,0,0,0-.014.192s0,.013.011.028l2.228,4.935a.75.75,0,0,1-.164.849l-.51.49a.75.75,0,0,1-.954.07l-1.49-1.06-.006,0a.25.25,0,0,0-.244-.027l-2.33,1.125-.016.008a.251.251,0,0,0-.14.169l-2.7,11.539a.25.25,0,0,0,.185.3.257.257,0,0,0,.061.007H34.44a.75.75,0,0,1,.727.564l1,3.91,0,.021a.248.248,0,0,0,.243.2h4.2a.75.75,0,0,1,.744.657l.75,6a.75.75,0,0,1-.091.462l-3.62,6.41a.75.75,0,0,1-.421.344l-3.5,1.139a.252.252,0,0,0-.168.25q0,.019,0,.038v5.31a.75.75,0,0,1-.11.391l-2,3.27a.75.75,0,0,1-1.117.187l-3.25-2.68a.274.274,0,0,0-.061-.039L21.13,44.054a.253.253,0,0,0-.2,0l-.007,0-5.77,2.52a.246.246,0,0,0-.087.067l0,.006-4.5,5.22-.006.007a.246.246,0,0,0-.062.163v2.49a.75.75,0,0,1-.537.719l-7.21,2.14-.007,0a.245.245,0,0,0-.129.089l-1.8,2.524L.8,60.021a.248.248,0,0,0,0,.294l3.281,4.108a.75.75,0,0,1,.139.661l-.59,2.21a.247.247,0,0,0,.055.227l8.759,9.769a.75.75,0,0,1,.137.219l2.64,6.51a.248.248,0,0,0,.114.128l10.436,5.577a.253.253,0,0,0,.194-.006L26,89.7l10.636-4.139a.249.249,0,0,0,.143-.154l0-.005,1.13-3.39a.75.75,0,0,1,.94-.477l4.82,1.54,0,0a.315.315,0,0,0,.181,0L47.7,81.6a.75.75,0,0,1,.929.343l1.79,3.31a.75.75,0,0,1,.09.39l-.349,7.98a.249.249,0,0,0,.228.24l9.707.907h.055a.25.25,0,0,0,.215-.122L63,90.18a.75.75,0,0,1,.527-.359l6.21-1a.249.249,0,0,0,.2-.187v-.006l2-7.925a.249.249,0,0,0-.048-.214.258.258,0,0,0-.2-.1H69.03a.75.75,0,0,1-.722-.546l-1.28-4.53a.75.75,0,0,1,.146-.685l1.47-1.76a.249.249,0,0,0,.027-.28L67.41,70.247a.251.251,0,0,0-.222-.136H62.44a.75.75,0,0,1-.736-.894l.39-2a.75.75,0,0,1,.478-.561l21.093-7.727a.25.25,0,0,0,.123-.108l0,0,2.54-4.4a.251.251,0,0,0-.01-.268l-2.627-3.616a.75.75,0,0,1,.008-.893l10.727-14.2a.25.25,0,0,0,.026-.248l-.93-2.1a.75.75,0,0,1-.029-.53l2.59-8.2.007-.02A.25.25,0,0,0,96,24.06l-6.847-4.868a.251.251,0,0,0-.326.03l-9.4,9.749a.75.75,0,0,1-.875.15L70.571,25.13a.251.251,0,0,0-.235.025L67.276,27.5l-.029.021a.252.252,0,0,0-.1.278l2.745,7.425a.75.75,0,0,1-.376.935l-5.21,2.53a.75.75,0,0,1-.451.065l-2.926-.489a.25.25,0,0,0-.277.18l-.77,2.752a.75.75,0,0,1-.466.5l-3.19,1.16a.75.75,0,0,1-.45.02l-4.85-1.3a.75.75,0,0,1-.32-.178l-2.5-2.35a.75.75,0,0,1-.141-.912l2.14-3.83,0-.006a.249.249,0,0,0-.03-.29l-1.6-1.706a.75.75,0,0,1-.165-.746l2-6.09a.75.75,0,0,1,.36-.428l9.38-5a.25.25,0,0,0,.133-.22V13.091a.249.249,0,0,0-.132-.218l-4.694-2.532a.253.253,0,0,0-.188-.015.25.25,0,0,0-.148.126l-3,5.813a.75.75,0,0,1-.61.4l-2.63.2a.75.75,0,0,1-.768-.985l2.59-7.76a.251.251,0,0,0-.11-.3l-3.052-1.8a.25.25,0,0,0-.334.091l-.011.02L45.2,9.76a.75.75,0,0,1-1.414-.349V6.5a.751.751,0,0,1,.01-.125l.9-5.33a.24.24,0,0,0-.24-.285Zm-3.28.5h2.08a.75.75,0,0,1,.74.872l-.694,4.2c0,.007,0,.013,0,.02s0,.044,0,.066v7a.251.251,0,0,0,.249.254l0,.75v-.75a.249.249,0,0,0,.221-.137l0-.006,3.3-6.28a.75.75,0,0,1,1.045-.3l1.46.86a.75.75,0,0,1,.332.879l-2.76,8.46a.248.248,0,0,0,.255.33l4.685-.36a.251.251,0,0,0,.2-.135l2.78-5.4a.75.75,0,0,1,1.022-.317l3.27,1.76a.75.75,0,0,1,.395.66v5.47a.75.75,0,0,1-.4.661l-9.21,4.94a.252.252,0,0,0-.122.145l-2.341,7a.253.253,0,0,0,.051.255l1.5,1.629a.75.75,0,0,1,.1.874l-2.17,3.88a.251.251,0,0,0,.043.3l3.241,3.061a.322.322,0,0,0,.121.068l5.394,1.438.031.009a.258.258,0,0,0,.142,0L60.126,42a.249.249,0,0,0,.152-.167l.659-2.378a.75.75,0,0,1,.845-.54l2.36.39h.009a.253.253,0,0,0,.147-.019l6.3-3.067a.249.249,0,0,0,.123-.309l-2.809-7.6a.75.75,0,0,1,.25-.857l2-1.52a.75.75,0,0,1,.789-.074l8.1,4.05a.25.25,0,0,0,.294-.049l9.31-9.66a.75.75,0,0,1,.974-.091l5.56,3.95a.75.75,0,0,1,.279.844l-2.56,7.86-.01.029a.255.255,0,0,0,0,.163l.828,1.872a.75.75,0,0,1-.087.755L82.852,49.889a.249.249,0,0,0,0,.3l0,.005,2.69,3.7a.75.75,0,0,1,.047.809l-2,3.55a.75.75,0,0,1-.4.336L61.878,66.4a.253.253,0,0,0-.162.189L61,70.371a.243.243,0,0,0,.243.29h5.35a.75.75,0,0,1,.661.4l.66,1.23a.75.75,0,0,1-.085.835l-1.37,1.64a.252.252,0,0,0-.053.229l1.629,5.766a.251.251,0,0,0,.241.185H70.44a.75.75,0,0,1,.727.933l-1.51,6a.75.75,0,0,1-.6.557l-6,1h-.006a.252.252,0,0,0-.175.116l-2.557,4.325a.75.75,0,0,1-.709.366l-8.23-.7a.75.75,0,0,1-.686-.78l.32-7.34a.251.251,0,0,0-.03-.13l-2.338-4.327a.251.251,0,0,0-.219-.129.247.247,0,0,0-.09.017l-.008,0-4.34,1.64a.75.75,0,0,1-.488.015l-5.44-1.69a.248.248,0,0,0-.072-.011.251.251,0,0,0-.235.167l-1.3,3.876a.75.75,0,0,1-.439.46l-9.77,3.81a.75.75,0,0,1-.626-.037l-9.73-5.2a.75.75,0,0,1-.341-.379l-2.57-6.33-.013-.035a.038.038,0,0,0-.009-.013L12.93,77.1,4.46,67.59a.75.75,0,0,1-.165-.691l.58-2.19v0a.248.248,0,0,0-.045-.218L1.695,60.57a.75.75,0,0,1-.024-.906l1.16-1.62a.75.75,0,0,1,.4-.283l7.6-2.25a.25.25,0,0,0,.174-.25q0-.016,0-.031V52.4a.75.75,0,0,1,.182-.49l4.12-4.78a.75.75,0,0,1,.268-.2l5.15-2.25a.75.75,0,0,1,.613.006l6.14,2.82a.749.749,0,0,1,.165.1l4.047,3.348a.25.25,0,0,0,.35-.036l.006-.008s.006-.007.018-.027L34.8,46.4a.248.248,0,0,0,.033-.123v-4.89a.75.75,0,0,1,.52-.714l3.1-1a.249.249,0,0,0,.137-.115l4-7a.247.247,0,0,0,.028-.151l-.92-7.273a.25.25,0,0,0-.248-.214H37.16a.75.75,0,0,1-.731-.58l-.91-3.92a.248.248,0,0,0-.242-.19H32.22a.75.75,0,0,1-.73-.921l2.3-9.83a.75.75,0,0,1,.413-.509l1.37-.64a.75.75,0,0,1,.754.07l1.69,1.21a.247.247,0,0,0,.143.045.251.251,0,0,0,.171-.067l1.586-1.546,0,0a.248.248,0,0,0,.055-.281L37.907,3.18a.75.75,0,0,1,.446-1.02l2.58-.86A.75.75,0,0,1,41.17,1.261Zm1.2,1.5H41.292l-1.676.559,1.728,3.822a1.752,1.752,0,0,1-.382,1.978l-1.588,1.548-.007.006a1.751,1.751,0,0,1-2.222.157L35.81,9.876l-.643.3-2,8.555h2.076a1.744,1.744,0,0,1,1.739,1.347l.776,3.343h3.692a1.756,1.756,0,0,1,1.736,1.522l.92,7.274a1.757,1.757,0,0,1-.211,1.083l-4,7a1.745,1.745,0,0,1-.978.8l-2.584.833v4.344a1.745,1.745,0,0,1-.246.895l0,.006-2.74,4.49a1.708,1.708,0,0,1-.145.205,1.75,1.75,0,0,1-2.459.245l0,0-3.974-3.287-5.745-2.639L16.327,48.24,12.5,52.68v2.538a1.75,1.75,0,0,1-1.243,1.731L3.9,59.127l-.679.949,2.785,3.476A1.756,1.756,0,0,1,6.324,65.1l-.476,1.8,8.193,9.2a1.548,1.548,0,0,1,.33.531l2.462,6.064L26.019,87.6,35.14,84.04l1.188-3.547,0-.006a1.749,1.749,0,0,1,2.17-1.1L43.7,81l4.095-1.547a1.749,1.749,0,0,1,2.166.789l0,0,2.34,4.33a1.75,1.75,0,0,1,.209.91L52.221,92.1l7.044.6,2.32-3.924,0-.008a1.749,1.749,0,0,1,1.219-.821l5.514-.919,1.155-4.591H68.322a1.755,1.755,0,0,1-1.734-1.279l-1.629-5.767,0-.006a1.75,1.75,0,0,1,.351-1.592l1.042-1.248-.208-.388h-4.9a1.743,1.743,0,0,1-1.717-2.069l.72-3.791a1.761,1.761,0,0,1,1.121-1.315l21.059-7.714,1.628-2.889-2.406-3.309a1.741,1.741,0,0,1,0-2.079l0-.005L92.176,35.031l-.662-1.5q-.009-.021-.017-.042a1.755,1.755,0,0,1-.006-1.206l2.385-7.323-4.584-3.257L80.43,30.9a1.75,1.75,0,0,1-2.047.35L70.7,27.411l-1.186.9,2.617,7.079a1.747,1.747,0,0,1-.873,2.174l-6.312,3.071-.009,0a1.767,1.767,0,0,1-1.045.141L62.2,40.5l-.48,1.731a1.755,1.755,0,0,1-1.086,1.174l-4,1.441-.03.01a1.764,1.764,0,0,1-1.031.005l-5.387-1.436-.01,0a1.829,1.829,0,0,1-.732-.407l-.01-.009-3.25-3.07,0,0a1.751,1.751,0,0,1-.315-2.117l1.9-3.406-1.132-1.23a1.751,1.751,0,0,1-.368-1.749l2.339-7a1.743,1.743,0,0,1,.839-.994l8.813-4.727V14.139l-2.2-1.186-2.43,4.721a1.74,1.74,0,0,1-1.416.944l-4.683.36c-.043,0-.092.006-.141.006a1.747,1.747,0,0,1-1.659-2.3L48.3,8.8l-.262-.155-2.932,5.58a1.743,1.743,0,0,1-1.554.949h-.009A1.752,1.752,0,0,1,41.8,13.418V6.449a1.7,1.7,0,0,1,0-.264q0-.028.007-.057Z" fill="#2151c6"/>
          <path id="Path_21499" data-name="Path 21499" d="M22.589,55a3.767,3.767,0,1,0,3.767,3.767A3.767,3.767,0,0,0,22.589,55m0,6.278A2.511,2.511,0,1,1,25.1,58.768a2.511,2.511,0,0,1-2.511,2.511" transform="translate(24 2)" fill="#2151c6"/>
          <path id="Path_21499_-_Outline" data-name="Path 21499 - Outline" d="M22.589,63.285a4.517,4.517,0,1,1,4.517-4.518A4.522,4.522,0,0,1,22.589,63.285Zm0-6.278a1.761,1.761,0,1,0,1.761,1.76A1.763,1.763,0,0,0,22.589,57.007Z" transform="translate(24 2)" fill="#2151c6"/>
          <path id="Path_21501" data-name="Path 21501" d="M22.589,52.175a6.663,6.663,0,0,0-6.654,6.655c0,3.565,4.908,9.668,6.654,9.668s6.655-6.1,6.655-9.668a6.663,6.663,0,0,0-6.655-6.655m.021,15.069c-.918-.162-5.42-5.262-5.42-8.414a5.4,5.4,0,1,1,10.8,0v0c0,3.152-4.5,8.252-5.378,8.414" transform="translate(24 2)" fill="#2151c6"/>
          <path id="Path_21501_-_Outline" data-name="Path 21501 - Outline" d="M22.589,69.248a3.778,3.778,0,0,1-2.275-1.2A17.217,17.217,0,0,1,18,65.444a18.945,18.945,0,0,1-1.956-3.29,8.287,8.287,0,0,1-.861-3.325,7.4,7.4,0,1,1,14.809,0,8.286,8.286,0,0,1-.861,3.326,18.945,18.945,0,0,1-1.956,3.29C26.522,66.337,24.257,69.248,22.589,69.248Zm0-15.819,0,.75A4.649,4.649,0,0,0,17.94,58.83a9.479,9.479,0,0,0,2.1,4.724A14.873,14.873,0,0,0,22.6,66.4a15.245,15.245,0,0,0,2.54-2.85,9.508,9.508,0,0,0,2.095-4.718,4.655,4.655,0,0,0-4.649-4.651Z" transform="translate(24 2)" fill="#2151c6"/>
        </g>
      </g>
    </g>
  </g>
</svg>
