<svg xmlns="http://www.w3.org/2000/svg" xmlns:xlink="http://www.w3.org/1999/xlink" width="140" height="140" viewBox="0 0 140 140">
  <defs>
    <clipPath id="clip-path">
      <rect id="Rectangle_6983" data-name="Rectangle 6983" width="90.308" height="77.861" fill="#2151c6" stroke="#1f51c5" stroke-width="0.6"/>
    </clipPath>
  </defs>
  <g id="Group_8921" data-name="Group 8921" transform="translate(-1382 -4273)">
    <g id="Group_8901" data-name="Group 8901">
      <path id="Path_21487" data-name="Path 21487" d="M70,0A70,70,0,1,1,0,70,70,70,0,0,1,70,0Z" transform="translate(1382 4273)" fill="#bce2af"/>
      <g id="Group_8878" data-name="Group 8878" transform="translate(1406.846 4304.07)">
        <g id="Group_8877" data-name="Group 8877" transform="translate(0 0)" clip-path="url(#clip-path)">
          <path id="Path_21503" data-name="Path 21503" d="M62.594,77.762a1.479,1.479,0,0,0,.524.094,1.427,1.427,0,0,0,.354-.045l25.683-6.2a1.51,1.51,0,0,0,1.15-1.576L85.706,7.6a1.5,1.5,0,0,0-1.1-1.342L61.862.053a1.517,1.517,0,0,0-.924.041L45.155,5.971,29.374.1A1.462,1.462,0,0,0,28.451.06L5.708,6.258A1.505,1.505,0,0,0,4.6,7.6L0,70.038a1.5,1.5,0,0,0,1.15,1.576l25.683,6.2a1.445,1.445,0,0,0,.875-.053l17.443-6.42ZM27.1,74.777,3.107,68.983l4.426-60.1,21.25-5.79,15.848,5.9a1.529,1.529,0,0,0,1.052,0l15.852-5.9,21.243,5.79L87.2,68.979,63.208,74.773,45.679,68.315a1.479,1.479,0,0,0-.524-.094,1.568,1.568,0,0,0-.524.094Z" transform="translate(-0.001 0.001)" fill="#2151c6"/>
          <path id="Path_21503_-_Outline" data-name="Path 21503 - Outline" d="M27.188,78.16a1.713,1.713,0,0,1-.425-.054l-25.679-6.2a1.8,1.8,0,0,1-1.378-1.89L4.3,7.578A1.8,1.8,0,0,1,5.63,5.968l22.742-6.2A1.785,1.785,0,0,1,28.858-.3a1.748,1.748,0,0,1,.623.114L45.155,5.651,60.834-.187a1.825,1.825,0,0,1,1.1-.051l22.743,6.2a1.793,1.793,0,0,1,1.325,1.61l4.6,62.438A1.8,1.8,0,0,1,89.226,71.9L63.542,78.1a1.709,1.709,0,0,1-.425.054,1.776,1.776,0,0,1-.63-.114L45.155,71.662,27.816,78.044A1.792,1.792,0,0,1,27.188,78.16ZM28.858.3a1.191,1.191,0,0,0-.325.046L5.787,6.547A1.2,1.2,0,0,0,4.9,7.621L.3,70.06a1.2,1.2,0,0,0,.921,1.262l25.684,6.2a1.139,1.139,0,0,0,.7-.042l17.548-6.459L62.7,77.481a1.182,1.182,0,0,0,.42.076,1.135,1.135,0,0,0,.279-.036l25.688-6.2a1.206,1.206,0,0,0,.921-1.263l-4.6-62.438a1.194,1.194,0,0,0-.882-1.074L61.783.342A1.308,1.308,0,0,0,61.458.3a1.157,1.157,0,0,0-.412.074L45.155,6.291,29.27.379A1.153,1.153,0,0,0,28.858.3ZM27.12,75.09,2.789,69.215,7.249,8.651,28.8,2.78,44.735,8.71a1.236,1.236,0,0,0,.844,0L61.52,2.78,83.06,8.652l4.46,60.559L63.19,75.086,45.575,68.6a1.2,1.2,0,0,0-.844,0ZM3.425,68.751l23.658,5.713,17.444-6.43a1.8,1.8,0,0,1,1.258,0L63.226,74.46l23.658-5.713L82.493,9.119,61.548,3.41,45.787,9.272a1.835,1.835,0,0,1-1.26,0L28.768,3.41,7.816,9.119Z" transform="translate(-0.001 0.001)" fill="#1f51c5"/>
          <path id="Path_21504" data-name="Path 21504" d="M25.26,19.179a8.211,8.211,0,1,0-16.421,0,7.985,7.985,0,0,0,.829,3.6c.053.128,5.606,12.636,7.381,12.636s7.31-12.474,7.3-12.47a8.137,8.137,0,0,0,.909-3.762m-3.31,2.677c-.388.991-3.291,6.657-4.9,9.632-1.613-2.986-4.543-8.7-4.976-9.794a5.514,5.514,0,0,1-.6-2.514,5.575,5.575,0,1,1,11.151,0,5.825,5.825,0,0,1-.679,2.677" transform="translate(24.482 30.33)" fill="#2151c6"/>
          <path id="Path_21504_-_Outline" data-name="Path 21504 - Outline" d="M17.05,35.712c-.6,0-1.671-.731-4.6-6.433-1.57-3.053-2.938-6.123-3.048-6.373a8.256,8.256,0,0,1-.859-3.727,8.511,8.511,0,1,1,17.021,0,8.442,8.442,0,0,1-.94,3.9c-.007.017-.014.033-.021.049l-.079.177c-.069.153-.169.376-.3.655-.23.5-.6,1.3-1.044,2.234-.781,1.635-1.945,3.986-3.052,5.9C18.276,35.3,17.51,35.712,17.05,35.712Zm0-24.462a7.929,7.929,0,0,0-7.911,7.929,7.643,7.643,0,0,0,.8,3.458l.011.024c.01.024,1.41,3.189,3.048,6.371,2.979,5.786,3.9,6.08,4.056,6.08s1.066-.289,4.008-5.989c1.432-2.774,2.666-5.508,2.953-6.152L24,22.961l.081-.157a7.849,7.849,0,0,0,.875-3.625A7.929,7.929,0,0,0,17.05,11.25Zm0,20.868-.264-.488c-1.541-2.851-4.514-8.637-4.986-9.812a5.816,5.816,0,0,1-.622-2.639,5.875,5.875,0,1,1,11.751,0,6.084,6.084,0,0,1-.7,2.8c-.41,1.032-3.265,6.611-4.911,9.652Zm0-18.229a5.289,5.289,0,0,0-5.275,5.291,5.211,5.211,0,0,0,.562,2.377l.012.027c.4,1,2.989,6.082,4.7,9.271,1.643-3.066,4.265-8.2,4.621-9.108l.012-.026a5.511,5.511,0,0,0,.646-2.542A5.289,5.289,0,0,0,17.053,13.889Z" transform="translate(24.482 30.33)" fill="#1f51c5"/>
          <path id="Path_21505" data-name="Path 21505" d="M14.094,12.016A4.188,4.188,0,1,0,18.282,16.2a4.191,4.191,0,0,0-4.188-4.188m0,5.745a1.553,1.553,0,1,1,1.553-1.553,1.558,1.558,0,0,1-1.553,1.553" transform="translate(27.437 33.283)" fill="#2151c6"/>
          <path id="Path_21505_-_Outline" data-name="Path 21505 - Outline" d="M14.094,20.692A4.488,4.488,0,1,1,18.582,16.2,4.493,4.493,0,0,1,14.094,20.692Zm0-8.376A3.888,3.888,0,1,0,17.982,16.2,3.893,3.893,0,0,0,14.094,12.316Zm0,5.745a1.853,1.853,0,1,1,1.853-1.853A1.855,1.855,0,0,1,14.094,18.061Zm0-3.106a1.253,1.253,0,1,0,1.253,1.253A1.255,1.255,0,0,0,14.094,14.955Z" transform="translate(27.437 33.283)" fill="#1f51c5"/>
          <path id="Path_21506" data-name="Path 21506" d="M9.212,3.806A4.188,4.188,0,1,0,13.4,7.994,4.191,4.191,0,0,0,9.212,3.806m0,5.741a1.553,1.553,0,1,1,1.549-1.553A1.558,1.558,0,0,1,9.212,9.547" transform="translate(13.915 10.543)" fill="#2151c6"/>
          <path id="Path_21506_-_Outline" data-name="Path 21506 - Outline" d="M9.212,12.482A4.488,4.488,0,1,1,13.7,7.994,4.493,4.493,0,0,1,9.212,12.482Zm0-8.376A3.888,3.888,0,1,0,13.1,7.994,3.893,3.893,0,0,0,9.212,4.106Zm0,5.741a1.853,1.853,0,1,1,1.849-1.853A1.855,1.855,0,0,1,9.212,9.847Zm0-3.106a1.253,1.253,0,1,0,1.249,1.253A1.255,1.255,0,0,0,9.212,6.741Z" transform="translate(13.915 10.543)" fill="#1f51c5"/>
          <path id="Path_21507" data-name="Path 21507" d="M12.17,2.739a8.232,8.232,0,0,0-8.214,8.229,7.886,7.886,0,0,0,.833,3.593c.053.128,5.587,12.636,7.381,12.636,1.768,0,7.306-12.474,7.3-12.47a8.117,8.117,0,0,0,.912-3.762A8.228,8.228,0,0,0,12.17,2.739m4.9,10.906c-.385.984-3.287,6.654-4.9,9.628-1.617-2.986-4.543-8.7-4.976-9.8a5.416,5.416,0,0,1-.6-2.507,5.575,5.575,0,1,1,11.151,0,5.755,5.755,0,0,1-.679,2.677" transform="translate(10.957 7.587)" fill="#2151c6"/>
          <path id="Path_21507_-_Outline" data-name="Path 21507 - Outline" d="M12.17,27.5c-.608,0-1.682-.731-4.611-6.433-1.585-3.085-2.93-6.121-3.041-6.372a8.155,8.155,0,0,1-.863-3.723,8.512,8.512,0,1,1,17.025,0,8.423,8.423,0,0,1-.943,3.9c-.007.017-.014.033-.021.049l-.079.177c-.069.153-.169.377-.3.656-.23.5-.6,1.3-1.046,2.237-.782,1.637-1.947,3.99-3.054,5.908C13.394,27.087,12.63,27.5,12.17,27.5Zm0-24.458a7.931,7.931,0,0,0-7.914,7.929,7.541,7.541,0,0,0,.8,3.453l.012.026c.01.024,1.414,3.206,3.041,6.37,2.975,5.787,3.907,6.08,4.063,6.08s1.064-.289,4-5.989c1.432-2.776,2.665-5.508,2.953-6.152l-.007-.01.081-.157a7.829,7.829,0,0,0,.879-3.625A7.927,7.927,0,0,0,12.17,3.039Zm0,20.864-.264-.487c-1.683-3.106-4.531-8.681-4.985-9.815a5.713,5.713,0,0,1-.626-2.632,5.875,5.875,0,1,1,11.751,0,6.012,6.012,0,0,1-.7,2.8c-.41,1.033-3.262,6.608-4.907,9.648Zm0-18.225a5.289,5.289,0,0,0-5.275,5.291,5.107,5.107,0,0,0,.565,2.367l.013.029c.4,1.007,3.023,6.155,4.7,9.275,1.642-3.064,4.263-8.2,4.618-9.1l.012-.027a5.441,5.441,0,0,0,.646-2.541A5.289,5.289,0,0,0,12.17,5.678Z" transform="translate(10.957 7.587)" fill="#1f51c5"/>
          <path id="Path_21508" data-name="Path 21508" d="M19.536,2.935a4.188,4.188,0,1,0,4.184,4.188,4.191,4.191,0,0,0-4.184-4.188m0,5.741a1.553,1.553,0,1,1,1.549-1.553,1.558,1.558,0,0,1-1.549,1.553" transform="translate(42.51 8.13)" fill="#2151c6"/>
          <path id="Path_21508_-_Outline" data-name="Path 21508 - Outline" d="M19.536,11.611a4.488,4.488,0,1,1,4.484-4.488A4.493,4.493,0,0,1,19.536,11.611Zm0-8.376a3.888,3.888,0,1,0,3.884,3.888A3.893,3.893,0,0,0,19.536,3.235Zm0,5.741a1.853,1.853,0,1,1,1.849-1.853A1.855,1.855,0,0,1,19.536,8.976Zm0-3.106a1.253,1.253,0,1,0,1.249,1.253A1.255,1.255,0,0,0,19.536,5.87Z" transform="translate(42.51 8.13)" fill="#1f51c5"/>
          <path id="Path_21509" data-name="Path 21509" d="M22.494,1.868A8.232,8.232,0,0,0,14.28,10.1a7.886,7.886,0,0,0,.833,3.593c.053.128,5.587,12.636,7.381,12.636,1.768,0,7.306-12.474,7.3-12.47a8.116,8.116,0,0,0,.912-3.762,8.228,8.228,0,0,0-8.211-8.226m4.9,10.906c-.385.984-3.287,6.654-4.9,9.628-1.617-2.986-4.543-8.7-4.976-9.8a5.417,5.417,0,0,1-.6-2.507,5.575,5.575,0,1,1,11.151,0,5.755,5.755,0,0,1-.679,2.677" transform="translate(39.552 5.175)" fill="#2151c6"/>
          <path id="Path_21509_-_Outline" data-name="Path 21509 - Outline" d="M22.494,26.626c-.608,0-1.682-.731-4.611-6.433-1.584-3.084-2.93-6.121-3.041-6.372A8.156,8.156,0,0,1,13.98,10.1a8.512,8.512,0,1,1,17.025,0,8.423,8.423,0,0,1-.943,3.9c-.007.017-.014.033-.021.049l-.079.177c-.069.153-.169.377-.3.656-.23.5-.6,1.3-1.046,2.237-.782,1.637-1.947,3.99-3.054,5.908C23.718,26.216,22.954,26.626,22.494,26.626Zm0-24.458A7.931,7.931,0,0,0,14.58,10.1a7.541,7.541,0,0,0,.8,3.453l.012.025c.01.024,1.414,3.207,3.041,6.37,2.975,5.787,3.907,6.081,4.063,6.081s1.064-.289,4-5.989c1.432-2.776,2.665-5.508,2.953-6.152l-.007-.01.081-.157a7.829,7.829,0,0,0,.879-3.625A7.927,7.927,0,0,0,22.494,2.168Zm0,20.864-.264-.487c-1.683-3.106-4.531-8.681-4.985-9.815a5.713,5.713,0,0,1-.626-2.632,5.875,5.875,0,1,1,11.751,0,6.012,6.012,0,0,1-.7,2.8c-.409,1.032-3.262,6.608-4.907,9.648Zm0-18.225A5.289,5.289,0,0,0,17.219,10.1a5.107,5.107,0,0,0,.565,2.367l.013.029c.4,1.007,3.023,6.155,4.7,9.275,1.642-3.064,4.263-8.2,4.618-9.1l.012-.027A5.441,5.441,0,0,0,27.77,10.1,5.289,5.289,0,0,0,22.494,4.807Z" transform="translate(39.552 5.175)" fill="#1f51c5"/>
          <path id="Path_21510" data-name="Path 21510" d="M20.173,11.6a1.213,1.213,0,0,0,.162-.011A1.5,1.5,0,0,0,21.67,9.928c-.128-1.2-.253-1.945-.253-1.945a1.508,1.508,0,1,0-2.974.494c0,.023.113.7.234,1.776a1.509,1.509,0,0,0,1.5,1.346" transform="translate(51.026 18.614)" fill="#2151c6"/>
          <path id="Path_21510_-_Outline" data-name="Path 21510 - Outline" d="M20.173,11.9a1.8,1.8,0,0,1-1.795-1.614c-.12-1.075-.23-1.752-.231-1.758a1.807,1.807,0,0,1,1.487-2.079,1.753,1.753,0,0,1,.3-.026,1.82,1.82,0,0,1,1.776,1.514c.005.03.127.768.255,1.962a1.8,1.8,0,0,1-1.6,1.988A1.509,1.509,0,0,1,20.173,11.9ZM19.937,7.02a1.163,1.163,0,0,0-.2.018,1.207,1.207,0,0,0-1,1.39c0,.006.113.7.236,1.791a1.2,1.2,0,0,0,1.2,1.079.92.92,0,0,0,.122-.009H20.3a1.2,1.2,0,0,0,1.068-1.326c-.126-1.177-.249-1.923-.25-1.93A1.215,1.215,0,0,0,19.937,7.02Z" transform="translate(51.026 18.614)" fill="#1f51c5"/>
          <path id="Path_21511" data-name="Path 21511" d="M14.4,12.539a28.6,28.6,0,0,0,2.073,2.424l.437.377a1.508,1.508,0,1,0,1.93-2.318l-.3-.249a25.476,25.476,0,0,1-1.783-2.107l-.275-.347A1.507,1.507,0,0,0,14.128,12.2Z" transform="translate(38.215 27.003)" fill="#2151c6"/>
          <path id="Path_21511_-_Outline" data-name="Path 21511 - Outline" d="M15.307,9.449h0a1.782,1.782,0,0,1,1.413.685l.374.471a23.614,23.614,0,0,0,1.651,1.947l.288.24a1.808,1.808,0,1,1-2.315,2.779l-.456-.394a29.189,29.189,0,0,1-2.1-2.45l-.271-.339a1.811,1.811,0,0,1,1.413-2.939Zm2.568,5.942a1.209,1.209,0,0,0,.774-2.138l-.318-.267a23.767,23.767,0,0,1-1.707-2.008l-.375-.472a1.187,1.187,0,0,0-.942-.457h0a1.2,1.2,0,0,0-.752.266,1.209,1.209,0,0,0-.192,1.7l.271.339a28.917,28.917,0,0,0,2.043,2.391l.429.37A1.2,1.2,0,0,0,17.875,15.391Z" transform="translate(38.215 27.003)" fill="#1f51c5"/>
          <path id="Path_21512" data-name="Path 21512" d="M9.3,10.809q-1.312,1.334-2.71,2.906a1.51,1.51,0,0,0,2.262,2q1.34-1.521,2.6-2.8A1.506,1.506,0,0,0,9.3,10.809" transform="translate(17.208 28.68)" fill="#2151c6"/>
          <path id="Path_21512_-_Outline" data-name="Path 21512 - Outline" d="M7.722,16.526a1.81,1.81,0,0,1-1.356-3.009C7.285,12.483,8.2,11.5,9.087,10.6a1.766,1.766,0,0,1,1.282-.544,1.81,1.81,0,0,1,1.294,3.077c-.851.867-1.722,1.8-2.586,2.785A1.814,1.814,0,0,1,7.722,16.526Zm2.648-5.872a1.173,1.173,0,0,0-.852.363c-.882.9-1.791,1.872-2.7,2.9a1.21,1.21,0,0,0,1.813,1.6c.871-.988,1.748-1.933,2.608-2.808a1.21,1.21,0,0,0-.866-2.056Z" transform="translate(17.208 28.68)" fill="#1f51c5"/>
          <path id="Path_21513" data-name="Path 21513" d="M17.152,14.554a9.8,9.8,0,0,0,3.623.792,6.954,6.954,0,0,0,.95-.068,1.512,1.512,0,0,0,1.285-1.7,1.538,1.538,0,0,0-1.7-1.285,6,6,0,0,1-3.027-.535,1.51,1.51,0,0,0-1.127,2.8" transform="translate(44.887 32.253)" fill="#2151c6"/>
          <path id="Path_21513_-_Outline" data-name="Path 21513 - Outline" d="M20.775,15.645a10.1,10.1,0,0,1-3.735-.813,1.809,1.809,0,0,1,.681-3.488,1.782,1.782,0,0,1,.671.13,6.638,6.638,0,0,0,2.389.551,3.261,3.261,0,0,0,.481-.034l.017,0c.06-.005.122-.008.182-.008a1.806,1.806,0,0,1,.306,3.594A7.214,7.214,0,0,1,20.775,15.645Zm-3.054-3.7a1.226,1.226,0,0,0-1.128.758,1.213,1.213,0,0,0,.671,1.573,9.514,9.514,0,0,0,3.511.77,6.616,6.616,0,0,0,.909-.065,1.206,1.206,0,0,0-.223-2.4c-.04,0-.08,0-.119.005a3.868,3.868,0,0,1-.561.04,7.22,7.22,0,0,1-2.613-.594A1.187,1.187,0,0,0,17.721,11.944Z" transform="translate(44.887 32.253)" fill="#1f51c5"/>
          <path id="Path_21514" data-name="Path 21514" d="M10.862,13.241a25.621,25.621,0,0,1,3.11-1.949,1.507,1.507,0,0,0-1.391-2.673,28.041,28.041,0,0,0-3.487,2.175,1.509,1.509,0,1,0,1.768,2.447" transform="translate(23.458 23.391)" fill="#2151c6"/>
          <path id="Path_21514_-_Outline" data-name="Path 21514 - Outline" d="M9.976,13.827a1.81,1.81,0,0,1-1.058-3.276,28.356,28.356,0,0,1,3.526-2.2,1.807,1.807,0,1,1,1.667,3.205,25.311,25.311,0,0,0-3.072,1.926A1.817,1.817,0,0,1,9.976,13.827Zm3.3-5.082a1.175,1.175,0,0,0-.556.139,27.763,27.763,0,0,0-3.452,2.153A1.209,1.209,0,1,0,10.687,13a25.9,25.9,0,0,1,3.145-1.97,1.209,1.209,0,0,0-.555-2.281Z" transform="translate(23.458 23.391)" fill="#1f51c5"/>
          <path id="Path_21515" data-name="Path 21515" d="M20.526,9.277a1.523,1.523,0,0,0-1.595,1.417,22.922,22.922,0,0,1-.471,3.627,1.51,1.51,0,0,0,1.146,1.8,1.652,1.652,0,0,0,.328.038,1.513,1.513,0,0,0,1.474-1.18,26.254,26.254,0,0,0,.539-4.105,1.514,1.514,0,0,0-1.421-1.6" transform="translate(51.028 25.696)" fill="#2151c6"/>
          <path id="Path_21515_-_Outline" data-name="Path 21515 - Outline" d="M19.934,16.461a1.941,1.941,0,0,1-.389-.044,1.813,1.813,0,0,1-1.378-2.161,22.616,22.616,0,0,0,.465-3.579,1.823,1.823,0,0,1,1.9-1.7h.011a1.82,1.82,0,0,1,1.7,1.914,26.511,26.511,0,0,1-.546,4.154A1.8,1.8,0,0,1,19.934,16.461Zm.553-6.884a1.226,1.226,0,0,0-1.257,1.137,23.2,23.2,0,0,1-.478,3.673,1.211,1.211,0,0,0,.918,1.444,1.334,1.334,0,0,0,.263.031,1.205,1.205,0,0,0,1.181-.946,25.908,25.908,0,0,0,.532-4.057,1.218,1.218,0,0,0-1.134-1.281Z" transform="translate(51.028 25.696)" fill="#1f51c5"/>
          <path id="Path_21516" data-name="Path 21516" d="M12.644,11.013a8.371,8.371,0,0,1,3.106,1.063,1.539,1.539,0,0,0,.746.2,1.509,1.509,0,0,0,.75-2.82,11.442,11.442,0,0,0-4.218-1.433,1.507,1.507,0,0,0-.385,2.989" transform="translate(31.383 22.177)" fill="#2151c6"/>
          <path id="Path_21516_-_Outline" data-name="Path 21516 - Outline" d="M16.5,12.576a1.845,1.845,0,0,1-.892-.238,8.076,8.076,0,0,0-3-1.028,1.81,1.81,0,0,1,.2-3.6,1.741,1.741,0,0,1,.263.02A11.733,11.733,0,0,1,17.4,9.2a1.809,1.809,0,0,1-.9,3.381ZM12.808,8.306a1.21,1.21,0,0,0-.125,2.409,8.661,8.661,0,0,1,3.217,1.1,1.241,1.241,0,0,0,.6.161,1.209,1.209,0,0,0,.6-2.259,11.135,11.135,0,0,0-4.108-1.4h-.008A1.138,1.138,0,0,0,12.808,8.306Z" transform="translate(31.383 22.177)" fill="#1f51c5"/>
          <path id="Path_21517" data-name="Path 21517" d="M6.03,13.323c-.385.5-.765,1.007-1.154,1.527a1.511,1.511,0,0,0,.32,2.111,1.484,1.484,0,0,0,.893.294A1.511,1.511,0,0,0,7.3,16.64L8.42,15.155a1.506,1.506,0,1,0-2.39-1.832" transform="translate(12.694 35.274)" fill="#2151c6"/>
          <path id="Path_21517_-_Outline" data-name="Path 21517 - Outline" d="M6.091,17.555A1.779,1.779,0,0,1,5.018,17.2a1.811,1.811,0,0,1-.383-2.529c.408-.547.777-1.039,1.158-1.532a1.828,1.828,0,0,1,1.446-.7,1.765,1.765,0,0,1,1.085.367,1.8,1.8,0,0,1,.334,2.536L7.544,16.82A1.813,1.813,0,0,1,6.091,17.555Zm1.148-4.52a1.23,1.23,0,0,0-.973.473c-.377.488-.743.977-1.149,1.521a1.211,1.211,0,0,0,.258,1.69,1.185,1.185,0,0,0,.716.236,1.212,1.212,0,0,0,.972-.492l1.118-1.488a1.2,1.2,0,0,0-.222-1.7A1.17,1.17,0,0,0,7.239,13.035Z" transform="translate(12.694 35.274)" fill="#1f51c5"/>
        </g>
      </g>
    </g>
  </g>
</svg>
