<svg id="twitter" xmlns="http://www.w3.org/2000/svg" width="19.874" height="16.141" viewBox="0 0 19.874 16.141">
  <path id="twitter-2" data-name="twitter" d="M17.831,52.1c.013.177.013.353.013.53A11.51,11.51,0,0,1,6.255,64.223,11.511,11.511,0,0,1,0,62.395a8.426,8.426,0,0,0,.984.05,8.157,8.157,0,0,0,5.057-1.74A4.08,4.08,0,0,1,2.232,57.88,5.137,5.137,0,0,0,3,57.943,4.308,4.308,0,0,0,4.073,57.8a4.074,4.074,0,0,1-3.266-4v-.05a4.1,4.1,0,0,0,1.841.517,4.079,4.079,0,0,1-1.261-5.448,11.578,11.578,0,0,0,8.4,4.262,4.6,4.6,0,0,1-.1-.933,4.077,4.077,0,0,1,7.049-2.787,8.019,8.019,0,0,0,2.585-.984,4.062,4.062,0,0,1-1.791,2.245A8.166,8.166,0,0,0,19.874,50,8.756,8.756,0,0,1,17.831,52.1Z" transform="translate(0 -48.082)" fill="#6abf4b"/>
</svg>
