<svg xmlns="http://www.w3.org/2000/svg" width="510.193" height="325.776" viewBox="0 0 510.193 325.776">
  <g id="Group_15452" data-name="Group 15452" transform="translate(-281.807 -2628.887)">
    <path id="Trazado_23903" data-name="Trazado 23903" d="M365.468,597.669a10.609,10.609,0,1,1-10.608,10.609A10.621,10.621,0,0,1,365.468,597.669Zm0,17.218a6.609,6.609,0,1,0-6.608-6.609A6.616,6.616,0,0,0,365.468,614.887Z" transform="translate(61.574 2253.491)" fill="#cef0ff"/>
    <path id="Trazado_23905" data-name="Trazado 23905" d="M428.468,597.669a10.609,10.609,0,1,1-10.608,10.609A10.621,10.621,0,0,1,428.468,597.669Zm0,17.218a6.609,6.609,0,1,0-6.608-6.609A6.616,6.616,0,0,0,428.468,614.887Z" transform="translate(46.225 2253.491)" fill="#cef0ff"/>
    <g id="Group_15450" data-name="Group 15450" transform="translate(212.236 52.526)">
      <path id="Trazado_23906" data-name="Trazado 23906" d="M2,226.059H-2V0H2Z" transform="translate(474.246 2660.531)" fill="#4ecbb5"/>
      <path id="Trazado_23907" data-name="Trazado 23907" d="M236.732,598.207l-42.074-42.074,2.828-2.828,39.246,39.246,38.443-38.444L278,556.935Z" transform="translate(237.956 2180.531)" fill="#4ecbb5"/>
      <path id="Trazado_23908" data-name="Trazado 23908" d="M236.29,624a45.464,45.464,0,0,1-45.5-45.5c0-6.226,1.229-15.493,3.461-26.094a255.917,255.917,0,0,1,9.4-33.342c2.072-5.757,4.264-11.065,6.515-15.778a94.464,94.464,0,0,1,7.554-13.263C223.754,481.382,230,477,236.29,477s12.536,4.382,18.572,13.023a94.459,94.459,0,0,1,7.554,13.263c2.251,4.713,4.443,10.021,6.515,15.778a255.917,255.917,0,0,1,9.4,33.342c2.232,10.6,3.461,19.868,3.461,26.094a45.464,45.464,0,0,1-45.5,45.5Zm0-143a12.791,12.791,0,0,0-7.571,2.894,36.556,36.556,0,0,0-7.721,8.42,90.5,90.5,0,0,0-7.224,12.7c-2.194,4.593-4.334,9.777-6.361,15.408a255.494,255.494,0,0,0-9.247,32.812c-2.145,10.188-3.376,19.4-3.376,25.27a41.5,41.5,0,1,0,83,0c0-5.871-1.23-15.082-3.376-25.27a255.5,255.5,0,0,0-9.247-32.812c-2.027-5.631-4.167-10.815-6.361-15.408a90.5,90.5,0,0,0-7.224-12.7,36.556,36.556,0,0,0-7.721-8.42A12.791,12.791,0,0,0,236.29,481Z" transform="translate(237.956 2180.531)" fill="#4ecbb5"/>
      <path id="Trazado_23909" data-name="Trazado 23909" d="M236.715,552.19l-32.558-32.558,2.828-2.828,29.762,29.762,28.395-27.747,2.8,2.861Z" transform="translate(237.956 2180.531)" fill="#4ecbb5"/>
    </g>
    <path id="Trazado_23911" data-name="Trazado 23911" d="M675.379,597.669a10.609,10.609,0,1,1-10.608,10.609A10.621,10.621,0,0,1,675.379,597.669Zm0,17.218a6.609,6.609,0,1,0-6.608-6.609A6.616,6.616,0,0,0,675.379,614.887Z" transform="translate(-93.861 2253.663)" fill="#cef0ff"/>
    <path id="Trazado_23912" data-name="Trazado 23912" d="M605.861,729.862h-4V626.616a33.723,33.723,0,0,1,10.6-24.553L660.2,557.109a33.725,33.725,0,0,1,46.241,0L737.2,586.066l-2.742,2.912L703.7,560.021a29.725,29.725,0,0,0-40.757,0l-47.739,44.954a29.723,29.723,0,0,0-9.347,21.641Z" transform="translate(-93.861 2204)" fill="#b48ed1"/>
    <g id="Group_15451" data-name="Group 15451" transform="translate(281.928 1960.361)">
      <path id="Trazado_23913" data-name="Trazado 23913" d="M101.176,625.706a37.729,37.729,0,0,1-37.759-37.759V560.8a37.759,37.759,0,1,1,75.518,0v27.15a37.729,37.729,0,0,1-37.759,37.759Zm0-98.668A33.729,33.729,0,0,0,67.417,560.8v27.15a33.759,33.759,0,1,0,67.518,0V560.8a33.729,33.729,0,0,0-33.759-33.759Z" transform="translate(-30.863 278.063)" fill="#4ecbb6"/>
      <path id="Línea_21" data-name="Línea 21" d="M2,146.52H-2V0H2Z" transform="translate(70.313 827.602)" fill="#4ecbb6"/>
      <path id="Línea_22" data-name="Línea 22" d="M1.414,16.062l-2.828-2.828L13.234-1.414l2.828,2.828Z" transform="translate(70.22 848.793)" fill="#4ecbb6"/>
    </g>
    <path id="Trazado_23914" data-name="Trazado 23914" d="M187.625,308.013c-3.51,0-9.923-.063-16.711-.129-8.024-.078-16.321-.16-21.676-.16H118.933a23.07,23.07,0,1,1,3.352-45.894A30.857,30.857,0,0,1,180.1,276.862q0,.056,0,.111a16.434,16.434,0,1,1,7.525,31.04Zm-68.692-42.428a19.07,19.07,0,1,0,0,38.139h30.306c5.374,0,13.681.081,21.715.16,6.779.066,13.181.129,16.672.129a12.431,12.431,0,1,0-8.464-21.532l-4.148,3.86.806-5.609a27.3,27.3,0,0,0,.282-3.87,26.864,26.864,0,0,0-41.209-22.712,26.965,26.965,0,0,0-9.729,10.8l-.691,1.392-1.52-.325A19.239,19.239,0,0,0,118.933,265.586Z" transform="translate(185.944 2382.887)" fill="#cef0ff"/>
    <path id="Trazado_23919" data-name="Trazado 23919" d="M166.949,294.65c-2.7,0-7.64-.048-12.866-.1-6.175-.06-12.559-.123-16.678-.123H114.079a18.216,18.216,0,1,1,2.333-36.282,24.224,24.224,0,0,1,43.3,2.642,24.031,24.031,0,0,1,1.9,8.783,13.108,13.108,0,1,1,5.339,25.08ZM114.079,262a14.216,14.216,0,1,0,0,28.433H137.4c4.139,0,10.533.063,16.718.123,5.216.051,10.143.1,12.827.1a9.107,9.107,0,1,0-6.2-15.774l-4.148,3.86.806-5.609a20.549,20.549,0,0,0,.212-2.913,20.215,20.215,0,0,0-31.009-17.091,20.293,20.293,0,0,0-7.322,8.125l-.691,1.392-1.52-.325A14.344,14.344,0,0,0,114.079,262Z" transform="translate(355.944 2450.029)" fill="#cef0ff"/>
    <path id="Línea_23" data-name="Línea 23" d="M137.5,2H0V-2H137.5Z" transform="translate(283.5 2935.5)" fill="#4ecbb5"/>
    <path id="Línea_67" data-name="Línea 67" d="M30.349,2H0V-2H30.349Z" transform="translate(435.651 2935.5)" fill="#4ecbb5"/>
    <path id="Línea_68" data-name="Línea 68" d="M89.7,2H0V-2H89.7Z" transform="translate(483.302 2935.5)" fill="#4ecbb5"/>
    <path id="Línea_69" data-name="Línea 69" d="M202.7,2H0V-2H202.7Z" transform="translate(589.302 2935.5)" fill="#4ecbb5"/>
    <path id="Trazado_23902" data-name="Trazado 23902" d="M365.469,626.144a15.575,15.575,0,0,1,15.575,15.575c0,4.066-1.562,18.481-4.009,31.813a135.422,135.422,0,0,1-4.388,18.215,28.726,28.726,0,0,1-2.759,6.18c-1.31,2.039-2.8,3.073-4.419,3.073s-3.109-1.034-4.419-3.073a28.727,28.727,0,0,1-2.759-6.18,135.427,135.427,0,0,1-4.388-18.215c-2.447-13.332-4.009-27.747-4.009-31.813a15.575,15.575,0,0,1,15.575-15.575Zm0,70.831c.312-.186,1.754-1.343,3.737-7.569a144.818,144.818,0,0,0,4.074-17.583c2.263-12.6,3.764-26.466,3.764-30.1a11.575,11.575,0,0,0-23.15,0c0,3.639,1.5,17.5,3.764,30.1a144.825,144.825,0,0,0,4.074,17.583C363.715,695.632,365.157,696.789,365.469,696.975Z" transform="translate(61.574 2253.491)" fill="#cef0ff"/>
    <path id="Trazado_23904" data-name="Trazado 23904" d="M428.469,626.144a15.575,15.575,0,0,1,15.575,15.575c0,4.066-1.562,18.481-4.009,31.813a135.422,135.422,0,0,1-4.388,18.215,28.726,28.726,0,0,1-2.759,6.18c-1.31,2.039-2.8,3.073-4.419,3.073s-3.109-1.034-4.419-3.073a28.727,28.727,0,0,1-2.759-6.18,135.427,135.427,0,0,1-4.388-18.215c-2.447-13.332-4.009-27.747-4.009-31.813a15.575,15.575,0,0,1,15.575-15.575Zm0,70.831c.312-.186,1.754-1.343,3.737-7.569a144.818,144.818,0,0,0,4.074-17.583c2.263-12.6,3.764-26.466,3.764-30.1a11.575,11.575,0,0,0-23.15,0c0,3.639,1.5,17.5,3.764,30.1a144.825,144.825,0,0,0,4.074,17.583C426.715,695.632,428.157,696.789,428.469,696.975Z" transform="translate(46.225 2253.491)" fill="#cef0ff"/>
    <path id="Trazado_23910" data-name="Trazado 23910" d="M675.379,626.144a15.575,15.575,0,0,1,15.575,15.575c0,4.066-1.562,18.481-4.009,31.813a135.431,135.431,0,0,1-4.388,18.215,28.726,28.726,0,0,1-2.759,6.18c-1.31,2.039-2.8,3.073-4.419,3.073s-3.109-1.034-4.419-3.073a28.72,28.72,0,0,1-2.759-6.18,135.4,135.4,0,0,1-4.388-18.215c-2.447-13.331-4.009-27.746-4.009-31.813a15.575,15.575,0,0,1,15.575-15.575Zm0,70.831c.312-.186,1.754-1.343,3.737-7.569a144.817,144.817,0,0,0,4.074-17.583c2.263-12.6,3.764-26.466,3.764-30.1a11.575,11.575,0,1,0-23.15,0c0,3.639,1.5,17.5,3.764,30.106a144.793,144.793,0,0,0,4.074,17.583C673.625,695.633,675.067,696.79,675.379,696.975Z" transform="translate(-93.861 2253.663)" fill="#cef0ff"/>
  </g>
</svg>
