<?xml version="1.0" encoding="UTF-8" standalone="no"?>
<svg
   width="1920"
   height="1078"
   viewBox="0 0 1920 1078"
   version="1.1"
   id="svg2"
   sodipodi:docname="background_image_v2.svg"
   inkscape:version="1.3.2 (1:1.3.2+202311252150+091e20ef0f)"
   xmlns:inkscape="http://www.inkscape.org/namespaces/inkscape"
   xmlns:sodipodi="http://sodipodi.sourceforge.net/DTD/sodipodi-0.dtd"
   xmlns="http://www.w3.org/2000/svg"
   xmlns:svg="http://www.w3.org/2000/svg">
  <sodipodi:namedview
     id="namedview2"
     pagecolor="#ffffff"
     bordercolor="#000000"
     borderopacity="0.25"
     inkscape:showpageshadow="2"
     inkscape:pageopacity="0.0"
     inkscape:pagecheckerboard="0"
     inkscape:deskcolor="#d1d1d1"
     showguides="true"
     inkscape:zoom="0.51375727"
     inkscape:cx="803.88157"
     inkscape:cy="684.17523"
     inkscape:window-width="1680"
     inkscape:window-height="1013"
     inkscape:window-x="0"
     inkscape:window-y="0"
     inkscape:window-maximized="1"
     inkscape:current-layer="svg2" />
  <defs
     id="defs1" />
  <g
     id="Mask_Group_4"
     data-name="Mask Group 4"
     clip-path="none"
     transform="matrix(1.0069571,0,0,1.0175757,-3.3696026,-17.399689)">
    <g
       id="Group_15441"
       data-name="Group 15441"
       transform="translate(0,1.125)">
      <g
         id="Path_23899"
         data-name="Path 23899"
         fill="#114e7b">
        <path
           d="M 1936.5,531.5 H 0.5 V 0.5 h 1936 z"
           stroke="none"
           id="path1" />
        <path
           d="M 1,1 V 531 H 1936 V 1 H 1 M 0,0 H 1937 V 532 H 0 Z"
           stroke="none"
           fill="#707070"
           id="path2" />
      </g>
      <g
         id="Group_15437"
         data-name="Group 15437"
         transform="translate(0,-117)">
        <path
           id="Path_23883"
           data-name="Path 23883"
           d="M 1918,727.448 H 0 l -0.874,-569.3 163.318,-58.181 c 248,-88.34 523.192,-101.445 780.873,-37.187 v 0 c 248.174,61.887 512.865,52.075 754.027,-27.953 l 219.781,-71.276 z"
           transform="translate(2,405.368)"
           fill="#094571" />
        <path
           id="Path_186"
           data-name="Path 186"
           d="m 1744.59,379.439 a 25.2,25.2 0 0 1 36.927,-22.3 c -0.022,-0.6 -0.046,-1.2 -0.046,-1.8 a 48.936,48.936 0 0 1 94.959,-16.629 35.419,35.419 0 0 1 52.05,18.475 25.2,25.2 0 1 1 11.1,47.815 h -26.722"
           transform="translate(-30.863,377.299)"
           fill="none"
           stroke="#cef0ff"
           stroke-width="4" />
        <path
           id="Path_187"
           data-name="Path 187"
           d="M 1193.79,409.362 V 327.967 A 24.965,24.965 0 0 1 1218.755,303 h 172.571 a 24.964,24.964 0 0 1 24.964,24.964 l 0.573,122.619"
           transform="translate(-30.863,528.134)"
           fill="none"
           stroke="#2688ba"
           stroke-width="4" />
        <line
           id="Line_1"
           data-name="Line 1"
           y1="77.393997"
           transform="translate(1162.927,1042.606)"
           fill="none"
           stroke="#2688ba"
           stroke-width="4"
           x1="0"
           x2="0"
           y2="0" />
        <path
           id="Path_188"
           data-name="Path 188"
           d="M 1.539,698.234 C 26.677,667.934 69.362,648 117.79,648 c 27.6,0 53.33,6.474 75.013,17.65"
           transform="translate(-30.863,395.063)"
           fill="none"
           stroke="#4ecbb6"
           stroke-width="4" />
        <path
           id="Path_189"
           data-name="Path 189"
           d="M 151.7,698.041 C 176.859,667.85 219.465,648 267.79,648 a 169.175,169.175 0 0 1 48.414,6.97"
           transform="translate(-30.863,395.063)"
           fill="none"
           stroke="#4ecbb6"
           stroke-width="4" />
        <path
           id="Path_190"
           data-name="Path 190"
           d="M 317.79,686.418 V 327.967 A 24.965,24.965 0 0 1 342.755,303 h 172.57 a 24.965,24.965 0 0 1 24.965,24.964 v 222.371"
           transform="translate(-30.863,430)"
           fill="none"
           stroke="#2688ba"
           stroke-width="4" />
        <path
           id="Path_191"
           data-name="Path 191"
           d="m 557.176,643.706 v 0 A 35.759,35.759 0 0 1 521.417,607.947 V 580.8 a 35.759,35.759 0 0 1 71.518,0 v 27.15 a 35.759,35.759 0 0 1 -35.759,35.756 z"
           transform="translate(-30.863,430)"
           fill="none"
           stroke="#4ecbb6"
           stroke-width="4" />
        <line
           id="Line_2"
           data-name="Line 2"
           y1="126.52"
           transform="translate(526.313,999.539)"
           fill="none"
           stroke="#4ecbb6"
           stroke-width="4"
           x1="0"
           x2="0"
           y2="0" />
        <line
           id="Line_3"
           data-name="Line 3"
           x1="14.648"
           y2="14.648"
           transform="translate(526.22,1020.73)"
           fill="none"
           stroke="#4ecbb6"
           stroke-width="4"
           y1="0"
           x2="0" />
        <path
           id="Path_192"
           data-name="Path 192"
           d="m 101.176,623.706 v 0 A 35.759,35.759 0 0 1 65.417,587.947 V 560.8 a 35.759,35.759 0 0 1 71.518,0 v 27.15 a 35.759,35.759 0 0 1 -35.759,35.756 z"
           transform="translate(-30.863,395.063)"
           fill="none"
           stroke="#4ecbb6"
           stroke-width="4" />
        <line
           id="Line_4"
           data-name="Line 4"
           y1="146.52"
           transform="translate(70.313,944.602)"
           fill="none"
           stroke="#4ecbb6"
           stroke-width="4"
           x1="0"
           x2="0"
           y2="0" />
        <line
           id="Line_5"
           data-name="Line 5"
           x1="14.648"
           y2="14.648"
           transform="translate(70.22,965.793)"
           fill="none"
           stroke="#4ecbb6"
           stroke-width="4"
           y1="0"
           x2="0" />
        <path
           id="Rectangle_64"
           data-name="Rectangle 64"
           d="M 0.959,0 H 25.341 A 0.959,0.959 0 0 1 26.3,0.959 v 31.094 a 0.96,0.96 0 0 1 -0.96,0.96 H 0.959 A 0.959,0.959 0 0 1 0,32.054 V 0.959 A 0.959,0.959 0 0 1 0.959,0 Z"
           transform="translate(329.474,781.674)"
           fill="none"
           stroke="#2688ba"
           stroke-width="4" />
        <rect
           id="Rectangle_65"
           data-name="Rectangle 65"
           width="26.299999"
           height="33.012001"
           rx="0.95899999"
           transform="translate(385.027,781.89)"
           fill="none"
           stroke="#2688ba"
           stroke-width="4"
           x="0"
           y="0" />
        <rect
           id="Rectangle_66"
           data-name="Rectangle 66"
           width="26.299999"
           height="33.012001"
           rx="0.95899999"
           transform="translate(440.58,782.104)"
           fill="none"
           stroke="#2688ba"
           stroke-width="4"
           x="0"
           y="0" />
        <rect
           id="Rectangle_67"
           data-name="Rectangle 67"
           width="26.299999"
           height="33.012001"
           rx="0.95899999"
           transform="translate(329.474,858.491)"
           fill="none"
           stroke="#2688ba"
           stroke-width="4"
           x="0"
           y="0" />
        <rect
           id="Rectangle_68"
           data-name="Rectangle 68"
           width="26.299999"
           height="33.012001"
           rx="0.95899999"
           transform="translate(385.027,858.705)"
           fill="none"
           stroke="#2688ba"
           stroke-width="4"
           x="0"
           y="0" />
        <rect
           id="Rectangle_69"
           data-name="Rectangle 69"
           width="26.299999"
           height="33.012001"
           rx="0.95899999"
           transform="translate(440.58,858.919)"
           fill="none"
           stroke="#2688ba"
           stroke-width="4"
           x="0"
           y="0" />
        <rect
           id="Rectangle_70"
           data-name="Rectangle 70"
           width="26.299999"
           height="33.012001"
           rx="0.95899999"
           transform="translate(329.474,935.306)"
           fill="none"
           stroke="#2688ba"
           stroke-width="4"
           x="0"
           y="0" />
        <rect
           id="Rectangle_71"
           data-name="Rectangle 71"
           width="26.299999"
           height="33.012001"
           rx="0.95899999"
           transform="translate(385.027,935.521)"
           fill="none"
           stroke="#2688ba"
           stroke-width="4"
           x="0"
           y="0" />
        <rect
           id="Rectangle_72"
           data-name="Rectangle 72"
           width="26.299999"
           height="33.012001"
           rx="0.95899999"
           transform="translate(440.58,935.735)"
           fill="none"
           stroke="#2688ba"
           stroke-width="4"
           x="0"
           y="0" />
        <path
           id="Path_193"
           data-name="Path 193"
           d="m 379.044,641.719 c 0,7.5 -6.078,57.281 -13.575,57.281 -7.497,0 -13.575,-49.784 -13.575,-57.281 a 13.575,13.575 0 1 1 27.15,0 z"
           transform="translate(-30.863,430)"
           fill="none"
           stroke="#cef0ff"
           stroke-width="4" />
        <path
           id="Path_194"
           data-name="Path 194"
           d="m 374.077,608.278 a 8.609,8.609 0 1 1 -8.609,-8.609 8.609,8.609 0 0 1 8.609,8.609 z"
           transform="translate(-30.863,430)"
           fill="none"
           stroke="#cef0ff"
           stroke-width="4" />
        <path
           id="Path_195"
           data-name="Path 195"
           d="m 442.044,641.719 c 0,7.5 -6.078,57.281 -13.575,57.281 -7.497,0 -13.575,-49.784 -13.575,-57.281 a 13.575,13.575 0 1 1 27.15,0 z"
           transform="translate(-30.863,430)"
           fill="none"
           stroke="#cef0ff"
           stroke-width="4" />
        <path
           id="Path_196"
           data-name="Path 196"
           d="m 437.077,608.278 a 8.609,8.609 0 1 1 -8.609,-8.609 8.609,8.609 0 0 1 8.609,8.609 z"
           transform="translate(-30.863,430)"
           fill="none"
           stroke="#cef0ff"
           stroke-width="4" />
        <path
           id="Path_197"
           data-name="Path 197"
           d="m 688.954,641.719 c 0,7.5 -6.078,57.281 -13.575,57.281 -7.497,0 -13.579,-49.784 -13.579,-57.281 a 13.575,13.575 0 1 1 27.15,0 z"
           transform="translate(-30.863,430)"
           fill="none"
           stroke="#cef0ff"
           stroke-width="4" />
        <path
           id="Path_198"
           data-name="Path 198"
           d="m 683.988,608.278 a 8.608,8.608 0 1 1 -8.609,-8.609 8.609,8.609 0 0 1 8.609,8.609 z"
           transform="translate(-30.863,430)"
           fill="none"
           stroke="#cef0ff"
           stroke-width="4" />
        <path
           id="Path_199"
           data-name="Path 199"
           d="m 761.68,618.3 a 31.7,31.7 0 0 1 1.11,8.32 v 70.4"
           transform="translate(-30.863,430)"
           fill="none"
           stroke="#b48ed1"
           stroke-width="4" />
        <path
           id="Path_200"
           data-name="Path 200"
           d="m 603.861,697.013 v -70.4 a 31.723,31.723 0 0 1 9.976,-23.1 l 47.739,-44.954 a 31.725,31.725 0 0 1 43.5,0 l 30.751,28.957"
           transform="translate(-30.863,430)"
           fill="none"
           stroke="#b48ed1"
           stroke-width="4" />
        <path
           id="Path_23885"
           data-name="Path 23885"
           d="M 0,226.059 V 0"
           transform="translate(205.427,875.063)"
           fill="none"
           stroke="#8cc63f"
           stroke-width="4" />
        <path
           id="Path_201"
           data-name="Path 201"
           d="m 196.072,554.718 40.66,40.66 39.857,-39.858"
           transform="translate(-30.863,395.063)"
           fill="none"
           stroke="#8cc63f"
           stroke-width="4" />
        <path
           id="Path_202"
           data-name="Path 202"
           d="m 279.79,578.5 a 43.5,43.5 0 0 1 -87,0 c 0,-24.024 19.476,-99.5 43.5,-99.5 24.024,0 43.5,75.476 43.5,99.5 z"
           transform="translate(-30.863,395.063)"
           fill="none"
           stroke="#8cc63f"
           stroke-width="4" />
        <path
           id="Path_203"
           data-name="Path 203"
           d="m 205.572,518.218 31.16,31.16 29.809,-29.129"
           transform="translate(-30.863,395.063)"
           fill="none"
           stroke="#8cc63f"
           stroke-width="4" />
        <line
           id="Line_7"
           data-name="Line 7"
           y1="216.05901"
           transform="translate(748.427,910)"
           fill="none"
           stroke="#8cc63f"
           stroke-width="4"
           x1="0"
           x2="0"
           y2="0" />
        <path
           id="Path_204"
           data-name="Path 204"
           d="m 739.071,554.718 40.66,40.66 39.857,-39.858"
           transform="translate(-30.863,430)"
           fill="none"
           stroke="#8cc63f"
           stroke-width="4" />
        <path
           id="Path_205"
           data-name="Path 205"
           d="m 822.79,578.5 a 43.5,43.5 0 0 1 -87,0 c 0,-24.024 19.476,-99.5 43.5,-99.5 24.024,0 43.5,75.476 43.5,99.5 z"
           transform="translate(-30.863,430)"
           fill="none"
           stroke="#8cc63f"
           stroke-width="4" />
        <path
           id="Path_206"
           data-name="Path 206"
           d="m 748.571,518.218 31.16,31.16 29.809,-29.129"
           transform="translate(-30.863,430)"
           fill="none"
           stroke="#8cc63f"
           stroke-width="4" />
        <path
           id="Path_207"
           data-name="Path 207"
           d="M 848.7,698.041 A 127.257,127.257 0 0 1 876.2,673.61"
           transform="translate(-30.863,424.808)"
           fill="none"
           stroke="#4ecbb6"
           stroke-width="4" />
        <path
           id="Path_208"
           data-name="Path 208"
           d="M 1063.212,649.34 A 173.417,173.417 0 0 1 1084.79,648 c 48.325,0 90.931,19.85 116.09,50.041"
           transform="translate(-30.863,430)"
           fill="none"
           stroke="#4ecbb6"
           stroke-width="4" />
        <path
           id="Path_209"
           data-name="Path 209"
           d="m 1025.211,658.761 a 160.5,160.5 0 0 1 20.755,-6.34"
           transform="translate(-30.863,430)"
           fill="none"
           stroke="#4ecbb6"
           stroke-width="4" />
        <line
           id="Line_8"
           data-name="Line 8"
           x2="3.155"
           y2="184.153"
           transform="translate(1029.699,925)"
           fill="none"
           stroke="#3491e2"
           stroke-width="4"
           x1="0"
           y1="0" />
        <line
           id="Line_9"
           data-name="Line 9"
           y1="174.418"
           x2="2.1210001"
           transform="translate(1014.6,924)"
           fill="none"
           stroke="#3491e2"
           stroke-width="4"
           x1="0"
           y2="0" />
        <path
           id="Path_210"
           data-name="Path 210"
           d="m 1049.778,484.825 a 6.68,6.68 0 1 1 9.443,-0.3 6.68,6.68 0 0 1 -9.443,0.3 z"
           transform="translate(-30.863,430)"
           fill="none"
           stroke="#3491e2"
           stroke-width="4" />
        <path
           id="Path_211"
           data-name="Path 211"
           d="M 1131.834,533.135 1056.4,492.249 a 9.335,9.335 0 0 1 -1.834,-1.121"
           transform="translate(-30.863,430)"
           fill="none"
           stroke="#3491e2"
           stroke-width="4" />
        <path
           id="Path_212"
           data-name="Path 212"
           d="m 1058.237,474.529 v 0 a 9.418,9.418 0 0 1 8.059,1.866 l 67.776,48.362"
           transform="translate(-30.863,430)"
           fill="none"
           stroke="#3491e2"
           stroke-width="4" />
        <path
           id="Path_213"
           data-name="Path 213"
           d="m 1047.583,479.566 a 9.421,9.421 0 0 1 -2.19,-6.95 l 3.048,-102.763 a 3.027,3.027 0 0 1 6.04,-0.193 l 9.6,102.359 a 9.429,9.429 0 0 1 -0.05,3.216"
           transform="translate(-30.863,430)"
           fill="none"
           stroke="#3491e2"
           stroke-width="4" />
        <path
           id="Path_214"
           data-name="Path 214"
           d="m 1057.745,485.634 a 9.426,9.426 0 0 1 -6.328,6.868 L 955.573,529.7 a 3.027,3.027 0 0 1 -2.529,-5.488 l 90.551,-48.683 a 9.4,9.4 0 0 1 1.832,-0.879"
           transform="translate(-30.863,430)"
           fill="none"
           stroke="#3491e2"
           stroke-width="4" />
        <path
           id="Path_215"
           data-name="Path 215"
           d="m 897,662.168 q 2.188,-0.984 4.424,-1.905 A 166.416,166.416 0 0 1 964.789,648 c 48.326,0 90.932,19.85 116.091,50.041"
           transform="translate(-30.863,430)"
           fill="none"
           stroke="#4ecbb6"
           stroke-width="4" />
        <line
           id="Line_10"
           data-name="Line 10"
           x2="3.911"
           y2="244.72501"
           transform="translate(862.523,881.775)"
           fill="none"
           stroke="#3491e2"
           stroke-width="4"
           x1="0"
           y1="0" />
        <line
           id="Line_11"
           data-name="Line 11"
           y1="211.864"
           x2="1.959"
           transform="translate(845.03,914.636)"
           fill="none"
           stroke="#3491e2"
           stroke-width="4"
           x1="0"
           y2="0" />
        <circle
           id="Ellipse_1"
           data-name="Ellipse 1"
           cx="7.5679998"
           cy="7.5679998"
           r="7.5679998"
           transform="translate(847.327,861.571)"
           fill="none"
           stroke="#3491e2"
           stroke-width="4" />
        <path
           id="Path_216"
           data-name="Path 216"
           d="m 884.766,431.644 v 0 a 10.668,10.668 0 0 1 8.1,-4.705 L 1008.3,411.411 a 3.43,3.43 0 0 1 1.329,6.716 L 896.98,447.713 a 10.678,10.678 0 0 1 -2.385,0.495"
           transform="translate(-30.863,430)"
           fill="none"
           stroke="#3491e2"
           stroke-width="4" />
        <path
           id="Path_217"
           data-name="Path 217"
           d="m 879.869,444.063 a 10.671,10.671 0 0 1 -7.2,-4.045 l -77.135,-87.269 a 3.429,3.429 0 0 1 4.841,-4.84 l 87.268,77.135 a 10.675,10.675 0 0 1 2.451,2.7"
           transform="translate(-30.863,430)"
           fill="none"
           stroke="#3491e2"
           stroke-width="4" />
        <path
           id="Path_218"
           data-name="Path 218"
           d="m 892.967,441.2 a 10.8,10.8 0 0 1 0.61,1.222 10.67,10.67 0 0 1 -0.514,9.357 L 842.7,556.8 a 3.43,3.43 0 0 1 -6.344,-2.575 l 37.082,-110.41 a 10.7,10.7 0 0 1 0.832,-2.147"
           transform="translate(-30.863,430)"
           fill="none"
           stroke="#3491e2"
           stroke-width="4" />
        <path
           id="Path_219"
           data-name="Path 219"
           d="m 1433.176,643.706 v 0 a 35.759,35.759 0 0 1 -35.759,-35.759 V 580.8 a 35.759,35.759 0 0 1 71.518,0 v 27.15 a 35.759,35.759 0 0 1 -35.759,35.756 z"
           transform="translate(-30.863,430)"
           fill="none"
           stroke="#4ecbb6"
           stroke-width="4" />
        <line
           id="Line_12"
           data-name="Line 12"
           y1="126.52"
           transform="translate(1402.313,999.539)"
           fill="none"
           stroke="#4ecbb6"
           stroke-width="4"
           x1="0"
           x2="0"
           y2="0" />
        <line
           id="Line_13"
           data-name="Line 13"
           x1="14.648"
           y2="14.648"
           transform="translate(1402.22,1020.73)"
           fill="none"
           stroke="#4ecbb6"
           stroke-width="4"
           y1="0"
           x2="0" />
        <path
           id="Path_220"
           data-name="Path 220"
           d="m 977.176,635.706 v 0 A 35.759,35.759 0 0 1 941.417,599.947 V 572.8 a 35.759,35.759 0 0 1 71.518,0 v 27.15 a 35.759,35.759 0 0 1 -35.759,35.756 z"
           transform="translate(-30.863,430)"
           fill="none"
           stroke="#4ecbb6"
           stroke-width="4" />
        <line
           id="Line_14"
           data-name="Line 14"
           y1="146.52"
           transform="translate(946.313,991.539)"
           fill="none"
           stroke="#4ecbb6"
           stroke-width="4"
           x1="0"
           x2="0"
           y2="0" />
        <line
           id="Line_15"
           data-name="Line 15"
           x1="14.648"
           y2="14.648"
           transform="translate(946.22,1012.73)"
           fill="none"
           stroke="#4ecbb6"
           stroke-width="4"
           y1="0"
           x2="0" />
        <rect
           id="Rectangle_76"
           data-name="Rectangle 76"
           width="26.299999"
           height="33.012001"
           rx="0.95899999"
           transform="translate(1205.474,858.491)"
           fill="none"
           stroke="#2688ba"
           stroke-width="4"
           x="0"
           y="0" />
        <rect
           id="Rectangle_77"
           data-name="Rectangle 77"
           width="26.299999"
           height="33.012001"
           rx="0.95899999"
           transform="translate(1261.027,858.705)"
           fill="none"
           stroke="#2688ba"
           stroke-width="4"
           x="0"
           y="0" />
        <rect
           id="Rectangle_78"
           data-name="Rectangle 78"
           width="26.299999"
           height="33.012001"
           rx="0.95899999"
           transform="translate(1316.58,858.919)"
           fill="none"
           stroke="#2688ba"
           stroke-width="4"
           x="0"
           y="0" />
        <rect
           id="Rectangle_79"
           data-name="Rectangle 79"
           width="26.299999"
           height="33.012001"
           rx="0.95899999"
           transform="translate(1205.474,935.306)"
           fill="none"
           stroke="#2688ba"
           stroke-width="4"
           x="0"
           y="0" />
        <rect
           id="Rectangle_80"
           data-name="Rectangle 80"
           width="26.299999"
           height="33.012001"
           rx="0.95899999"
           transform="translate(1261.027,935.521)"
           fill="none"
           stroke="#2688ba"
           stroke-width="4"
           x="0"
           y="0" />
        <rect
           id="Rectangle_81"
           data-name="Rectangle 81"
           width="26.299999"
           height="33.012001"
           rx="0.95899999"
           transform="translate(1316.58,935.735)"
           fill="none"
           stroke="#2688ba"
           stroke-width="4"
           x="0"
           y="0" />
        <path
           id="Path_221"
           data-name="Path 221"
           d="M 1690.79,544.417 V 409.08 c 0,-16.059 11.177,-29.077 24.965,-29.077 h 172.571 c 13.787,0 24.964,13.019 24.964,29.077 v 168.154"
           transform="translate(-30.863,377.569)"
           fill="none"
           stroke="#2688ba"
           stroke-width="4" />
        <line
           id="Line_16"
           data-name="Line 16"
           y1="127.89"
           transform="translate(1659.927,999.123)"
           fill="none"
           stroke="#2688ba"
           stroke-width="4"
           x1="0"
           x2="0"
           y2="0" />
        <rect
           id="Rectangle_82"
           data-name="Rectangle 82"
           width="26.299999"
           height="33.012001"
           rx="0.95899999"
           transform="translate(1702.474,875.425)"
           fill="none"
           stroke="#2688ba"
           stroke-width="4"
           x="0"
           y="0" />
        <rect
           id="Rectangle_9601"
           data-name="Rectangle 9601"
           width="26.299999"
           height="33.012001"
           rx="0.95899999"
           transform="translate(1702.474,798.61)"
           fill="none"
           stroke="#2688ba"
           stroke-width="4"
           x="0"
           y="0" />
        <rect
           id="Rectangle_83"
           data-name="Rectangle 83"
           width="26.299999"
           height="33.012001"
           rx="0.95899999"
           transform="translate(1758.027,875.64)"
           fill="none"
           stroke="#2688ba"
           stroke-width="4"
           x="0"
           y="0" />
        <rect
           id="Rectangle_9600"
           data-name="Rectangle 9600"
           width="26.299999"
           height="33.012001"
           rx="0.95899999"
           transform="translate(1758.027,798.824)"
           fill="none"
           stroke="#2688ba"
           stroke-width="4"
           x="0"
           y="0" />
        <rect
           id="Rectangle_84"
           data-name="Rectangle 84"
           width="26.299999"
           height="33.012001"
           rx="0.95899999"
           transform="translate(1813.58,875.854)"
           fill="none"
           stroke="#2688ba"
           stroke-width="4"
           x="0"
           y="0" />
        <rect
           id="Rectangle_9599"
           data-name="Rectangle 9599"
           width="26.299999"
           height="33.012001"
           rx="0.95899999"
           transform="translate(1813.58,799.039)"
           fill="none"
           stroke="#2688ba"
           stroke-width="4"
           x="0"
           y="0" />
        <rect
           id="Rectangle_85"
           data-name="Rectangle 85"
           width="26.299999"
           height="33.012001"
           rx="0.95899999"
           transform="translate(1702.474,952.241)"
           fill="none"
           stroke="#2688ba"
           stroke-width="4"
           x="0"
           y="0" />
        <rect
           id="Rectangle_86"
           data-name="Rectangle 86"
           width="26.299999"
           height="33.012001"
           rx="0.95899999"
           transform="translate(1758.027,952.455)"
           fill="none"
           stroke="#2688ba"
           stroke-width="4"
           x="0"
           y="0" />
        <rect
           id="Rectangle_87"
           data-name="Rectangle 87"
           width="26.299999"
           height="33.012001"
           rx="0.95899999"
           transform="translate(1813.58,952.669)"
           fill="none"
           stroke="#2688ba"
           stroke-width="4"
           x="0"
           y="0" />
        <path
           id="Path_222"
           data-name="Path 222"
           d="m 1760.044,641.719 c 0,7.5 -6.078,57.281 -13.575,57.281 -7.497,0 -13.575,-49.784 -13.575,-57.281 a 13.575,13.575 0 1 1 27.15,0 z"
           transform="translate(-30.863,430)"
           fill="none"
           stroke="#cef0ff"
           stroke-width="4" />
        <path
           id="Path_223"
           data-name="Path 223"
           d="m 1755.077,608.278 a 8.609,8.609 0 1 1 -8.609,-8.609 8.609,8.609 0 0 1 8.609,8.609 z"
           transform="translate(-30.863,430)"
           fill="none"
           stroke="#cef0ff"
           stroke-width="4" />
        <path
           id="Path_224"
           data-name="Path 224"
           d="m 1318.044,641.719 c 0,7.5 -6.078,57.281 -13.575,57.281 -7.497,0 -13.575,-49.784 -13.575,-57.281 a 13.575,13.575 0 1 1 27.15,0 z"
           transform="translate(-30.863,412.667)"
           fill="none"
           stroke="#cef0ff"
           stroke-width="4" />
        <path
           id="Path_225"
           data-name="Path 225"
           d="m 1313.077,608.278 a 8.609,8.609 0 1 1 -8.609,-8.609 8.609,8.609 0 0 1 8.609,8.609 z"
           transform="translate(-30.863,412.667)"
           fill="none"
           stroke="#cef0ff"
           stroke-width="4" />
        <path
           id="Path_226"
           data-name="Path 226"
           d="m 1479.861,697.013 v -64.361 a 45.7,45.7 0 0 1 14.37,-33.27 l 43.345,-40.817 a 31.725,31.725 0 0 1 43.5,0 l 43.345,40.817 a 45.7,45.7 0 0 1 14.369,33.27"
           transform="translate(-30.863,430)"
           fill="none"
           stroke="#b48ed1"
           stroke-width="4" />
        <path
           id="Path_227"
           data-name="Path 227"
           d="m 1835.863,697 v -70.4 a 31.723,31.723 0 0 1 9.976,-23.1 l 47.739,-44.954 a 31.725,31.725 0 0 1 43.5,0 l 30.751,28.957"
           transform="translate(-30.863,430)"
           fill="none"
           stroke="#b48ed1"
           stroke-width="4" />
        <line
           id="Line_17"
           data-name="Line 17"
           y1="216.05901"
           transform="translate(1136.427,910)"
           fill="none"
           stroke="#8cc63f"
           stroke-width="4"
           x1="0"
           x2="0"
           y2="0" />
        <path
           id="Path_228"
           data-name="Path 228"
           d="m 1127.072,554.718 40.66,40.66 39.857,-39.858"
           transform="translate(-30.863,430)"
           fill="none"
           stroke="#8cc63f"
           stroke-width="4" />
        <path
           id="Path_229"
           data-name="Path 229"
           d="m 1210.79,578.5 a 43.5,43.5 0 0 1 -87,0 c 0,-24.024 19.476,-99.5 43.5,-99.5 24.024,0 43.5,75.476 43.5,99.5 z"
           transform="translate(-30.863,430)"
           fill="none"
           stroke="#8cc63f"
           stroke-width="4" />
        <path
           id="Path_230"
           data-name="Path 230"
           d="m 1136.572,518.218 31.16,31.16 29.809,-29.129"
           transform="translate(-30.863,430)"
           fill="none"
           stroke="#8cc63f"
           stroke-width="4" />
        <line
           id="Line_18"
           data-name="Line 18"
           y1="159.606"
           transform="translate(1624.427,875)"
           fill="none"
           stroke="#8cc63f"
           stroke-width="4"
           x1="0"
           x2="0"
           y2="0" />
        <line
           id="Line_19"
           data-name="Line 19"
           y1="19.576"
           transform="translate(1624.427,1041.195)"
           fill="none"
           stroke="#8cc63f"
           stroke-width="4"
           x1="0"
           x2="0"
           y2="0" />
        <line
           id="Line_20"
           data-name="Line 20"
           y1="17.1"
           transform="translate(1624.427,1108.959)"
           fill="none"
           stroke="#8cc63f"
           stroke-width="4"
           x1="0"
           x2="0"
           y2="0" />
        <path
           id="Path_231"
           data-name="Path 231"
           d="m 1615.072,519.718 40.66,40.66 39.857,-39.858"
           transform="translate(-30.863,430)"
           fill="none"
           stroke="#8cc63f"
           stroke-width="4" />
        <path
           id="Path_232"
           data-name="Path 232"
           d="m 1698.79,543.5 a 43.5,43.5 0 0 1 -87,0 c 0,-24.024 19.476,-99.5 43.5,-99.5 24.024,0 43.5,75.476 43.5,99.5 z"
           transform="translate(-30.863,430)"
           fill="none"
           stroke="#8cc63f"
           stroke-width="4" />
        <path
           id="Path_233"
           data-name="Path 233"
           d="m 1624.572,483.218 31.16,31.16 29.809,-29.129"
           transform="translate(-30.863,430)"
           fill="none"
           stroke="#8cc63f"
           stroke-width="4" />
        <path
           id="Path_234"
           data-name="Path 234"
           d="m 1660.954,641.719 c 0,7.5 -6.078,57.281 -13.575,57.281 -7.497,0 -13.575,-49.784 -13.575,-57.281 a 13.575,13.575 0 1 1 27.15,0 z"
           transform="translate(-30.863,430)"
           fill="none"
           stroke="#cef0ff"
           stroke-width="4" />
        <path
           id="Path_235"
           data-name="Path 235"
           d="m 1655.988,608.278 a 8.609,8.609 0 1 1 -8.609,-8.609 8.609,8.609 0 0 1 8.609,8.609 z"
           transform="translate(-30.863,430)"
           fill="none"
           stroke="#cef0ff"
           stroke-width="4" />
        <path
           id="Path_236"
           data-name="Path 236"
           d="m 253.363,298.5 a 24.908,24.908 0 0 0 -17.023,6.7 50.543,50.543 0 0 0 0.523,-7.2 50,50 0 0 0 -94.811,-22.182 36.5,36.5 0 1 0 -7.689,72.182 h 52.5 c 17.354,0 53.444,0.5 66.5,0.5 a 25,25 0 0 0 0,-50 z"
           transform="translate(-30.863,430)"
           fill="none"
           stroke="#cef0ff"
           stroke-width="4" />
        <path
           id="Path_237"
           data-name="Path 237"
           d="m 1732.363,266.5 a 24.907,24.907 0 0 0 -17.023,6.7 50,50 0 0 0 -94.288,-29.38 36.5,36.5 0 1 0 -7.689,72.18 h 52.5 c 17.354,0 53.444,0.5 66.5,0.5 a 25,25 0 0 0 0,-50 z"
           transform="translate(-30.863,394.91)"
           fill="none"
           stroke="#cef0ff"
           stroke-width="4" />
        <path
           id="Path_238"
           data-name="Path 238"
           d="m 376.474,241.092 a 13.982,13.982 0 0 0 -6.194,1.438 19.759,19.759 0 0 0 -29.037,-10.307 27.3,27.3 0 0 0 -52.973,9.277 c 0,0.338 0.014,0.672 0.026,1.006 A 14.055,14.055 0 1 0 281.752,269 c 6.169,0 90.065,0.2 94.722,0.2 a 14.056,14.056 0 1 0 0,-28.111 z"
           transform="translate(-30.863,430)"
           fill="none"
           stroke="#cef0ff"
           stroke-width="4" />
        <rect
           id="Rectangle_88"
           data-name="Rectangle 88"
           width="1920"
           height="680"
           transform="translate(0,430)"
           fill="none"
           x="0"
           y="0" />
      </g>
      <path
         id="Path_24017"
         data-name="Path 24017"
         d="m 0,126.537 h 1920 v -81.71 l -163.915,-13.4 c -248.9,-20.35 -525.1,-23.369 -783.727,-8.566 v 0 c -249.081,14.257 -514.739,12 -756.783,-6.439 L 0,0 Z"
         transform="translate(0,950.338)"
         fill="#3491e2"
         stroke="rgba(0,0,0,0)"
         stroke-width="1" />
    </g>
  </g>
  <rect
     id="Rectangle_9604"
     data-name="Rectangle 9604"
     width="1933.3575"
     height="1096.9464"
     fill="none"
     stroke="#707070"
     stroke-width="1.01225"
     x="-3.3696029"
     y="-17.399691" />
</svg>
