<svg xmlns="http://www.w3.org/2000/svg" width="248.018" height="248.632" viewBox="0 0 248.018 248.632">
  <g id="Group_15462" data-name="Group 15462" transform="translate(-616.5 -1956.686)">
    <ellipse id="Ellipse_3" data-name="Ellipse 3" cx="124.009" cy="124.316" rx="124.009" ry="124.316" transform="translate(616.5 1956.686)" fill="none"/>
    <g id="Group_15461" data-name="Group 15461" transform="translate(0 -23.796)">
      <ellipse id="Ellipse_61" data-name="Ellipse 61" cx="60.509" cy="60.659" rx="60.509" ry="60.659" transform="translate(680 2020.343)" fill="#4ecbb6" opacity="0.16"/>
      <g id="Group_15460" data-name="Group 15460" transform="translate(36.509)">
        <path id="Path_23922" data-name="Path 23922" d="M20.915,87.221V71.628c0-2.75,1.813-4.98,4.05-4.98H50.18c2.237,0,4.05,2.229,4.05,4.98v38.081" transform="translate(645.313 2034.724)" fill="none" stroke="#4ecbb6" stroke-width="4"/>
        <line id="Line_36" data-name="Line 36" y1="10.877" transform="translate(666.228 2133.556)" fill="none" stroke="#4ecbb6" stroke-width="4"/>
        <line id="Line_37" data-name="Line 37" y2="6.886" transform="translate(741.772 2137.547)" fill="none" stroke="#4ecbb6" stroke-width="4"/>
        <path id="Path_23923" data-name="Path 23923" d="M107.27,76.217V6.98c0-2.75,1.813-4.98,4.05-4.98h25.215c2.237,0,4.05,2.229,4.05,4.98v38" transform="translate(601.188 2068.216)" fill="none" stroke="#4ecbb6" stroke-width="4"/>
        <line id="Line_38" data-name="Line 38" x2="96" transform="translate(656 2144.433)" fill="none" stroke="#4ecbb6" stroke-width="4"/>
        <ellipse id="Ellipse_67" data-name="Ellipse 67" cx="5.624" cy="7.229" rx="5.624" ry="7.229" transform="translate(660.604 2120.336)" fill="none" stroke="#4ecbb6" stroke-width="4"/>
        <path id="Path_23929" data-name="Path 23929" d="M0,19.036V0" transform="translate(666.228 2125.396)" fill="none" stroke="#4ecbb6" stroke-width="3.264"/>
        <line id="Line_40" data-name="Line 40" y1="19.036" transform="translate(741 2125.396)" fill="none" stroke="#4ecbb6" stroke-width="3.264"/>
        <path id="Path_23924" data-name="Path 23924" d="M166.684,110.036a6.6,6.6,0,0,1-13.2,0c0-3.593,2.956-19.036,6.6-19.036S166.684,106.443,166.684,110.036Z" transform="translate(580.918 2022.107)" fill="none" stroke="#4ecbb6" stroke-width="4"/>
        <path id="Path_23925" data-name="Path 23925" d="M94.758,245.015a2.851,2.851,0,1,0,2.851-2.808,2.83,2.83,0,0,0-2.851,2.808" transform="translate(606.392 1941.427)" fill="#4ecbb6"/>
        <path id="Path_23926" data-name="Path 23926" d="M97.679,225.716a15.123,15.123,0,0,0-21.165,0" transform="translate(616.903 1954.552)" fill="none" stroke="#4ecbb6" stroke-width="4"/>
        <path id="Path_23927" data-name="Path 23927" d="M97.376,208.9a24.8,24.8,0,0,0-34.711,0" transform="translate(623.98 1964.699)" fill="none" stroke="#4ecbb6" stroke-width="4"/>
        <path id="Path_23928" data-name="Path 23928" d="M97.052,191.022a35.084,35.084,0,0,0-49.1,0" transform="translate(631.499 1975.481)" fill="none" stroke="#4ecbb6" stroke-width="4"/>
        <line id="Line_41" data-name="Line 41" y2="3.373" transform="translate(717.291 2078.891)" fill="none" stroke="#4ecbb6" stroke-width="4"/>
        <line id="Line_42" data-name="Line 42" y2="3.373" transform="translate(732.939 2078.891)" fill="none" stroke="#4ecbb6" stroke-width="4"/>
        <line id="Line_43" data-name="Line 43" y2="3.373" transform="translate(725.115 2078.891)" fill="none" stroke="#4ecbb6" stroke-width="4"/>
        <line id="Line_44" data-name="Line 44" y2="3.373" transform="translate(717.291 2088.529)" fill="none" stroke="#4ecbb6" stroke-width="4"/>
        <line id="Line_45" data-name="Line 45" y2="3.373" transform="translate(732.939 2088.529)" fill="none" stroke="#4ecbb6" stroke-width="4"/>
        <line id="Line_46" data-name="Line 46" y2="3.373" transform="translate(725.115 2088.529)" fill="none" stroke="#4ecbb6" stroke-width="4"/>
        <line id="Line_47" data-name="Line 47" y2="3.373" transform="translate(717.291 2098.168)" fill="none" stroke="#4ecbb6" stroke-width="4"/>
        <line id="Line_48" data-name="Line 48" y2="3.373" transform="translate(732.939 2098.168)" fill="none" stroke="#4ecbb6" stroke-width="4"/>
        <line id="Line_49" data-name="Line 49" y2="3.373" transform="translate(725.115 2098.168)" fill="none" stroke="#4ecbb6" stroke-width="4"/>
        <line id="Line_50" data-name="Line 50" y2="3.373" transform="translate(717.291 2107.806)" fill="none" stroke="#4ecbb6" stroke-width="4"/>
        <line id="Line_51" data-name="Line 51" y2="3.373" transform="translate(732.939 2107.806)" fill="none" stroke="#4ecbb6" stroke-width="4"/>
        <line id="Line_52" data-name="Line 52" y2="3.373" transform="translate(725.115 2107.806)" fill="none" stroke="#4ecbb6" stroke-width="4"/>
        <line id="Line_53" data-name="Line 53" y2="3.373" transform="translate(717.363 2117.445)" fill="none" stroke="#4ecbb6" stroke-width="4"/>
        <line id="Line_54" data-name="Line 54" y2="3.373" transform="translate(733.011 2117.445)" fill="none" stroke="#4ecbb6" stroke-width="4"/>
        <line id="Line_55" data-name="Line 55" y2="3.373" transform="translate(725.187 2117.445)" fill="none" stroke="#4ecbb6" stroke-width="4"/>
        <line id="Line_56" data-name="Line 56" y2="3.373" transform="translate(675.061 2107.806)" fill="none" stroke="#4ecbb6" stroke-width="4"/>
        <line id="Line_57" data-name="Line 57" y2="3.373" transform="translate(690.709 2107.806)" fill="none" stroke="#4ecbb6" stroke-width="4"/>
        <line id="Line_58" data-name="Line 58" y2="3.373" transform="translate(682.885 2107.806)" fill="none" stroke="#4ecbb6" stroke-width="4"/>
        <line id="Line_59" data-name="Line 59" y2="3.373" transform="translate(674.818 2117.445)" fill="none" stroke="#4ecbb6" stroke-width="4"/>
        <line id="Line_60" data-name="Line 60" y2="3.373" transform="translate(690.466 2117.445)" fill="none" stroke="#4ecbb6" stroke-width="4"/>
        <line id="Line_61" data-name="Line 61" y2="3.373" transform="translate(682.642 2117.445)" fill="none" stroke="#4ecbb6" stroke-width="4"/>
        <line id="Line_62" data-name="Line 62" y2="3.373" transform="translate(674.574 2127.083)" fill="none" stroke="#4ecbb6" stroke-width="4"/>
        <line id="Line_63" data-name="Line 63" y2="3.373" transform="translate(690.223 2127.083)" fill="none" stroke="#4ecbb6" stroke-width="4"/>
        <line id="Line_64" data-name="Line 64" y2="3.373" transform="translate(682.399 2127.083)" fill="none" stroke="#4ecbb6" stroke-width="4"/>
        <line id="Line_65" data-name="Line 65" y2="3.373" transform="translate(717.291 2127.083)" fill="none" stroke="#4ecbb6" stroke-width="4"/>
        <line id="Line_66" data-name="Line 66" y2="3.373" transform="translate(725.115 2127.083)" fill="none" stroke="#4ecbb6" stroke-width="4"/>
      </g>
    </g>
  </g>
</svg>
