<svg xmlns="http://www.w3.org/2000/svg" width="560" height="207.353" viewBox="0 0 560 207.353">
  <g id="Group_15484" data-name="Group 15484" transform="translate(-600.844 -313.228)">
    <g id="Group_1" data-name="Group 1" transform="translate(600.844 313.228)">
      <rect id="Rectangle_63" data-name="Rectangle 63" width="153.879" height="153.879" rx="76.939" transform="translate(16.536 0)" fill="#cef0ff"/>
      <path id="Path_169" data-name="Path 169" d="M43.4,50.191h0A11.194,11.194,0,0,1,32.207,39V25.563a11.195,11.195,0,1,1,22.389,0V39A11.194,11.194,0,0,1,43.4,50.191" transform="translate(3.848 37.824)" fill="#4ecbb6"/>
      <g id="Group_32" data-name="Group 32" transform="translate(7.035 62.267)">
        <rect id="Rectangle_48" data-name="Rectangle 48" width="4.478" height="33.584" transform="translate(37.976 0)" fill="#2688ba"/>
        <rect id="Rectangle_49" data-name="Rectangle 49" width="7.748" height="4.478" transform="translate(39.175 12.799) rotate(-45)" fill="#2688ba"/>
        <path id="Path_170" data-name="Path 170" d="M22.058,99.939a4.106,4.106,0,0,0,3.8-2.774A7.933,7.933,0,0,1,33.293,92h2.661a7.929,7.929,0,0,1,7.929,7.929V100a8.906,8.906,0,0,0,8.906,8.906H62.963V61.76l-22.724-13.5a10.991,10.991,0,0,0-11.229,0l-17.346,10.3a10.992,10.992,0,0,0-5.379,9.451V99.972Z" transform="translate(-6.284 -20.578)" fill="#4ecbb6"/>
      </g>
      <path id="Path_171" data-name="Path 171" d="M117.3,107.388a8.906,8.906,0,0,0,8.906-8.88,7.967,7.967,0,0,1,7.929-7.956h2.661a7.931,7.931,0,0,1,7.432,5.163,4.1,4.1,0,0,0,3.8,2.766h16.2V70.448A10.993,10.993,0,0,0,153.23,59.455H107.543v47.933Z" transform="translate(12.848 43.21)" fill="#4ecbb6"/>
      <path id="Path_173" data-name="Path 173" d="M67.087,114.491a8.906,8.906,0,0,0,8.906-8.88,7.967,7.967,0,0,1,7.929-7.956h2.661a7.93,7.93,0,0,1,7.928,7.8,9.005,9.005,0,0,0,8.908,9.037h10.173V10.993A10.992,10.992,0,0,0,102.6,0H67.906A10.992,10.992,0,0,0,56.914,10.993v103.5Z" transform="translate(6.799 36.107)" fill="#2688ba"/>
      <g id="Group_36" data-name="Group 36" transform="translate(76.379 55.171)">
        <rect id="Rectangle_50" data-name="Rectangle 50" width="4.478" height="4.857" transform="translate(26.867)" fill="#fff"/>
        <rect id="Rectangle_51" data-name="Rectangle 51" width="4.478" height="4.857" transform="translate(13.434)" fill="#fff"/>
        <rect id="Rectangle_52" data-name="Rectangle 52" width="4.478" height="4.857" fill="#fff"/>
        <rect id="Rectangle_53" data-name="Rectangle 53" width="4.478" height="4.857" transform="translate(26.867 19.031)" fill="#fff"/>
        <rect id="Rectangle_54" data-name="Rectangle 54" width="4.478" height="4.857" transform="translate(13.434 19.031)" fill="#fff"/>
        <rect id="Rectangle_55" data-name="Rectangle 55" width="4.478" height="4.857" transform="translate(0 19.031)" fill="#fff"/>
        <rect id="Rectangle_56" data-name="Rectangle 56" width="4.478" height="4.857" transform="translate(26.867 38.062)" fill="#fff"/>
        <rect id="Rectangle_57" data-name="Rectangle 57" width="4.478" height="4.857" transform="translate(13.434 38.062)" fill="#fff"/>
        <rect id="Rectangle_58" data-name="Rectangle 58" width="4.478" height="4.857" transform="translate(0 38.062)" fill="#fff"/>
      </g>
      <g id="Group_33" data-name="Group 33" transform="translate(131.144 61.477)">
        <path id="Path_175" data-name="Path 175" d="M148.056,53.424h-4.489A26.3,26.3,0,0,0,117.3,27.152v-4.49a30.8,30.8,0,0,1,30.761,30.762" transform="translate(-117.132 -22.662)" fill="#2688ba"/>
        <path id="Path_176" data-name="Path 176" d="M136.123,52.093h-4.489a14.3,14.3,0,0,0-14.286-14.284v-4.49a18.8,18.8,0,0,1,18.775,18.775" transform="translate(-117.125 -21.389)" fill="#2688ba"/>
        <path id="Path_177" data-name="Path 177" d="M117.149,43.458V51.1h7.646A7.645,7.645,0,0,0,117.149,43.458Z" transform="translate(-117.149 -20.178)" fill="#2688ba"/>
      </g>
      <g id="Group_35" data-name="Group 35" transform="translate(120.392 109.655)">
        <rect id="Rectangle_59" data-name="Rectangle 59" width="17.534" height="4.478" transform="translate(0 12.658)" fill="#2688ba"/>
        <path id="Path_174" data-name="Path 174" d="M148.782,80.6H144.3V73.28a3.107,3.107,0,0,0-3.1-3.1H107.544V65.7H141.2a7.59,7.59,0,0,1,7.581,7.581Z" transform="translate(-107.544 -65.699)" fill="#2688ba"/>
        <path id="Path_178" data-name="Path 178" d="M159.027,82.835h-8V71.672A5.981,5.981,0,0,1,157,65.7h2.024v4.478H157a1.5,1.5,0,0,0-1.5,1.5v6.684h3.52Z" transform="translate(-102.349 -65.699)" fill="#2688ba"/>
      </g>
      <g id="Group_34" data-name="Group 34" transform="translate(0 116.295)">
        <path id="Path_172" data-name="Path 172" d="M187.183,95.171H160.874a4.1,4.1,0,0,1-3.8-2.766,7.932,7.932,0,0,0-7.432-5.162h-2.662A7.966,7.966,0,0,0,139.05,95.2a8.907,8.907,0,0,1-8.906,8.88H110.218a9.006,9.006,0,0,1-8.908-9.037,7.928,7.928,0,0,0-7.927-7.8H90.722A7.964,7.964,0,0,0,82.794,95.2a8.908,8.908,0,0,1-8.908,8.88H53.54a8.906,8.906,0,0,1-8.906-8.906V95.1a7.929,7.929,0,0,0-7.928-7.929H34.043a7.931,7.931,0,0,0-7.432,5.162,4.107,4.107,0,0,1-3.8,2.774L0,95.154v28H187.183Z" transform="translate(0 -69.773)" fill="#094069"/>
        <path id="Path_179" data-name="Path 179" d="M26.335,77.523a5.892,5.892,0,1,0,5.892-5.893,5.893,5.893,0,0,0-5.892,5.893" transform="translate(3.146 -71.63)" fill="#094069"/>
        <path id="Path_180" data-name="Path 180" d="M76.965,77.587a5.892,5.892,0,1,0,5.892-5.892,5.893,5.893,0,0,0-5.892,5.892" transform="translate(9.195 -71.622)" fill="#094069"/>
        <path id="Path_181" data-name="Path 181" d="M127.219,77.587a5.892,5.892,0,1,0,5.893-5.892,5.893,5.893,0,0,0-5.893,5.892" transform="translate(15.199 -71.622)" fill="#094069"/>
      </g>
    </g>
    <path id="Path_182" data-name="Path 182" d="M23.8.107A22.471,22.471,0,0,1,12.767-2.5,18.356,18.356,0,0,1,5.424-9.872,22.744,22.744,0,0,1,2.8-21.01a22.655,22.655,0,0,1,1.55-8.5,19.872,19.872,0,0,1,4.374-6.706,19.822,19.822,0,0,1,6.677-4.4,22.28,22.28,0,0,1,8.458-1.564,24.732,24.732,0,0,1,8.009,1.159,18.03,18.03,0,0,1,5.895,3.3l-3.36,5.3a12.37,12.37,0,0,0-4.461-2.636,17.325,17.325,0,0,0-5.62-.869,16.979,16.979,0,0,0-6.112,1.043,13.11,13.11,0,0,0-4.649,2.969,12.923,12.923,0,0,0-2.955,4.664,17.49,17.49,0,0,0-1.028,6.184,16.371,16.371,0,0,0,1.839,8.024A12.316,12.316,0,0,0,16.634-7.96a17.1,17.1,0,0,0,7.98,1.753,19.329,19.329,0,0,0,5.924-.912,16.033,16.033,0,0,0,5.344-2.969L38.9-4.615A21.5,21.5,0,0,1,32.219-1.11,27.2,27.2,0,0,1,23.8.107ZM45.732-.762V-41.316H52.22V-.762Zm33.2.869a17.2,17.2,0,0,1-9.052-2.2A14.051,14.051,0,0,1,64.4-8.076a19.178,19.178,0,0,1-1.839-8.5V-41.316H69.05v24.68q0,5.359,2.665,7.98a9.838,9.838,0,0,0,7.213,2.622,9.838,9.838,0,0,0,7.213-2.622q2.665-2.622,2.665-7.98v-24.68h6.518v24.738a19.11,19.11,0,0,1-1.839,8.473,14.142,14.142,0,0,1-5.475,6A17.173,17.173,0,0,1,78.928.107Zm26.708-.869V-41.316h12.688a21.525,21.525,0,0,1,10.689,2.593,18.76,18.76,0,0,1,7.256,7.169A20.836,20.836,0,0,1,138.89-21.01a21.724,21.724,0,0,1-1.492,8.154,18.484,18.484,0,0,1-4.244,6.416,19.43,19.43,0,0,1-6.518,4.186,22.385,22.385,0,0,1-8.314,1.492Zm6.489-6.054h5.417a17.378,17.378,0,0,0,5.953-.97,12.866,12.866,0,0,0,4.606-2.824,12.569,12.569,0,0,0,2.969-4.475,15.915,15.915,0,0,0,1.043-5.924,15.26,15.26,0,0,0-1.81-7.633,12.308,12.308,0,0,0-5.084-4.924,16.25,16.25,0,0,0-7.676-1.724h-5.417ZM141.091-.762l15.758-40.554h7.039L180.052-.762h-7.329l-3.737-9.675H151.809L148.217-.762Zm12.4-15.266h13.759l-7.01-17.67ZM185.932-.762V-41.316H198.62a21.525,21.525,0,0,1,10.689,2.593,18.76,18.76,0,0,1,7.256,7.169,20.836,20.836,0,0,1,2.622,10.544,21.725,21.725,0,0,1-1.492,8.154,18.484,18.484,0,0,1-4.244,6.416,19.43,19.43,0,0,1-6.518,4.186A22.385,22.385,0,0,1,198.62-.762Zm6.489-6.054h5.417a17.378,17.378,0,0,0,5.953-.97,12.866,12.866,0,0,0,4.606-2.824,12.569,12.569,0,0,0,2.969-4.475,15.915,15.915,0,0,0,1.043-5.924,15.26,15.26,0,0,0-1.81-7.633,12.308,12.308,0,0,0-5.084-4.924,16.25,16.25,0,0,0-7.676-1.724h-5.417ZM227.21-.762V-41.316h26.215v5.735H233.7v10.95h17.033v5.417H233.7V-6.556h19.9V-.762ZM275.9.107a28.459,28.459,0,0,1-8.212-1.2,19.207,19.207,0,0,1-6.764-3.462l3.186-4.953a14.6,14.6,0,0,0,3.375,2.144,19.671,19.671,0,0,0,4.1,1.376,20.168,20.168,0,0,0,4.345.478,12.114,12.114,0,0,0,6.416-1.506,4.86,4.86,0,0,0,2.448-4.4,4.773,4.773,0,0,0-1.666-3.679q-1.666-1.506-6.155-2.781L272.8-19.1q-5.735-1.651-8.357-4.374a9.389,9.389,0,0,1-2.621-6.778,10.73,10.73,0,0,1,1.086-4.866,11.246,11.246,0,0,1,3.071-3.766,14.078,14.078,0,0,1,4.678-2.433,19.772,19.772,0,0,1,5.909-.84,23.5,23.5,0,0,1,7.589,1.188,16.972,16.972,0,0,1,5.793,3.186l-3.3,4.809a12.343,12.343,0,0,0-2.911-1.941,16.485,16.485,0,0,0-3.577-1.246,17.459,17.459,0,0,0-3.882-.435,12.066,12.066,0,0,0-4.3.71,6.536,6.536,0,0,0-2.911,2.042,5.1,5.1,0,0,0-1.043,3.244,4.283,4.283,0,0,0,.7,2.433,6.082,6.082,0,0,0,2.39,1.9,28.4,28.4,0,0,0,4.678,1.724l4.4,1.3q5.62,1.651,8.227,4.3a9.392,9.392,0,0,1,2.607,6.88A11.394,11.394,0,0,1,289.243-5.7a11.762,11.762,0,0,1-5.171,4.273A19.7,19.7,0,0,1,275.9.107ZM5.323,51.28V10.726H18.01A21.525,21.525,0,0,1,28.7,13.319a18.76,18.76,0,0,1,7.256,7.169,20.836,20.836,0,0,1,2.622,10.544,21.724,21.724,0,0,1-1.492,8.154A18.484,18.484,0,0,1,32.841,45.6a19.43,19.43,0,0,1-6.518,4.186A22.385,22.385,0,0,1,18.01,51.28Zm6.489-6.054h5.417a17.378,17.378,0,0,0,5.953-.97,12.866,12.866,0,0,0,4.606-2.824,12.57,12.57,0,0,0,2.969-4.475A15.915,15.915,0,0,0,31.8,31.032a15.261,15.261,0,0,0-1.81-7.633A12.308,12.308,0,0,0,24.9,18.475a16.25,16.25,0,0,0-7.676-1.724H11.811ZM46.6,51.28V10.726H72.816v5.735H53.089v10.95H70.122v5.417H53.089V45.487h19.9V51.28Zm35.485,0V10.726h6.489V45.313h17.67V51.28Zm45.71,0V10.726h25.056v5.938H134.284V28.338h16.83v5.793h-16.83V51.28Zm49.765.869a17.2,17.2,0,0,1-9.052-2.2,14.05,14.05,0,0,1-5.475-5.982,19.178,19.178,0,0,1-1.839-8.5V10.726h6.489v24.68q0,5.359,2.665,7.98a11.233,11.233,0,0,0,14.426,0q2.665-2.622,2.665-7.98V10.726h6.518V35.464a19.111,19.111,0,0,1-1.839,8.473,14.142,14.142,0,0,1-5.475,6A17.172,17.172,0,0,1,177.561,52.149Zm34.413-.869V16.665H200.56V10.726h29.315v5.938H218.462V51.28Zm40.872.869a17.2,17.2,0,0,1-9.052-2.2,14.051,14.051,0,0,1-5.475-5.982,19.178,19.178,0,0,1-1.839-8.5V10.726h6.489v24.68q0,5.359,2.665,7.98a11.233,11.233,0,0,0,14.426,0q2.665-2.622,2.665-7.98V10.726h6.518V35.464a19.111,19.111,0,0,1-1.839,8.473,14.142,14.142,0,0,1-5.475,6A17.172,17.172,0,0,1,252.846,52.149Zm26.708-.869V10.726h15.324a16.926,16.926,0,0,1,7.314,1.463,11.121,11.121,0,0,1,4.78,4.157,11.774,11.774,0,0,1,1.695,6.4,10.78,10.78,0,0,1-1.289,5.33,10.631,10.631,0,0,1-3.606,3.809,14.222,14.222,0,0,1-5.359,2.013l12.224,17.38h-7.85l-11.21-16.366h-5.533V51.28Zm6.489-21.754h7.763a9.856,9.856,0,0,0,6.127-1.68,5.7,5.7,0,0,0,2.187-4.809,6.464,6.464,0,0,0-1.955-5.011q-1.955-1.8-5.895-1.8h-8.227ZM336.3,52.149a22,22,0,0,1-8.473-1.608,20.48,20.48,0,0,1-11.268-11.2A21.444,21.444,0,0,1,314.951,31a21.52,21.52,0,0,1,1.608-8.371,20.395,20.395,0,0,1,11.268-11.181A22.172,22.172,0,0,1,336.3,9.857a21.641,21.641,0,0,1,8.429,1.622,20.791,20.791,0,0,1,11.283,11.254A21.187,21.187,0,0,1,357.62,31a21.444,21.444,0,0,1-1.608,8.343,20.414,20.414,0,0,1-4.5,6.72,20.89,20.89,0,0,1-6.778,4.475A21.812,21.812,0,0,1,336.3,52.149Zm0-6.141a15.3,15.3,0,0,0,5.721-1.057,13.463,13.463,0,0,0,4.62-3.042,14.179,14.179,0,0,0,3.085-4.751A16.326,16.326,0,0,0,350.841,31a15.71,15.71,0,0,0-1.926-7.922,13.6,13.6,0,0,0-5.229-5.229A14.826,14.826,0,0,0,336.3,16a15.3,15.3,0,0,0-5.721,1.057,13.721,13.721,0,0,0-4.635,3.027,13.911,13.911,0,0,0-3.1,4.736A16.408,16.408,0,0,0,321.73,31a15.616,15.616,0,0,0,1.941,7.922,13.734,13.734,0,0,0,5.229,5.229A14.8,14.8,0,0,0,336.3,46.008Z" transform="translate(803.225 430.758)" fill="#fff"/>
    <path id="Path_183" data-name="Path 183" d="M3.288-.385a.648.648,0,0,1-.5-.191.689.689,0,0,1-.177-.486V-20.3a.73.73,0,0,1,.177-.516.648.648,0,0,1,.5-.191H15.306a.7.7,0,0,1,.516.191.7.7,0,0,1,.191.516v1.178a.648.648,0,0,1-.191.5.73.73,0,0,1-.516.177H5.467v6.864h9.25a.7.7,0,0,1,.516.191.7.7,0,0,1,.191.516v1.178a.659.659,0,0,1-.191.486.7.7,0,0,1-.516.191H5.467v7.954a.659.659,0,0,1-.191.486.7.7,0,0,1-.516.191Zm23.8.295a9.871,9.871,0,0,1-4.33-.869A6.093,6.093,0,0,1,19.99-3.64,10.534,10.534,0,0,1,18.9-8.191q-.029-1.3-.029-2.489T18.9-13.17a10.057,10.057,0,0,1,1.134-4.522,6.493,6.493,0,0,1,2.828-2.71,9.4,9.4,0,0,1,4.227-.9,9.333,9.333,0,0,1,4.2.9,6.579,6.579,0,0,1,2.843,2.71,9.69,9.69,0,0,1,1.119,4.522q.059,1.3.059,2.489t-.059,2.489A10.135,10.135,0,0,1,34.174-3.64,6.173,6.173,0,0,1,31.39-.959,9.8,9.8,0,0,1,27.09-.09Zm0-2.5a5.113,5.113,0,0,0,3.668-1.355A6.174,6.174,0,0,0,32.3-8.338q.059-1.326.059-2.371T32.3-13.052a7.311,7.311,0,0,0-.751-3.3,4.361,4.361,0,0,0-1.841-1.856A5.664,5.664,0,0,0,27.09-18.8a5.664,5.664,0,0,0-2.622.589,4.361,4.361,0,0,0-1.841,1.856,7.56,7.56,0,0,0-.781,3.3q-.029,1.3-.029,2.342t.029,2.371a6.134,6.134,0,0,0,1.561,4.389A5.165,5.165,0,0,0,27.09-2.594Zm13.2,2.209a.648.648,0,0,1-.5-.191.689.689,0,0,1-.177-.486V-20.3a.73.73,0,0,1,.177-.516.648.648,0,0,1,.5-.191h7.188a8.188,8.188,0,0,1,5.273,1.561,5.578,5.578,0,0,1,1.944,4.625,5.766,5.766,0,0,1-1.134,3.7,5.883,5.883,0,0,1-3.078,1.988L55.016-1.3a.733.733,0,0,1,.088.324.545.545,0,0,1-.191.412.615.615,0,0,1-.427.177H53.072a.937.937,0,0,1-.736-.265,4.854,4.854,0,0,1-.412-.53L47.651-8.663H42.5v7.6a.659.659,0,0,1-.191.486.7.7,0,0,1-.516.191ZM42.5-11.166h4.861a4.992,4.992,0,0,0,3.3-.928,3.416,3.416,0,0,0,1.09-2.754,3.449,3.449,0,0,0-1.075-2.74,4.927,4.927,0,0,0-3.314-.943H42.5ZM66.3-.09a9.871,9.871,0,0,1-4.33-.869A6.093,6.093,0,0,1,59.2-3.64a10.534,10.534,0,0,1-1.09-4.551q-.029-1.3-.029-2.489t.029-2.489a10.058,10.058,0,0,1,1.134-4.522,6.493,6.493,0,0,1,2.828-2.71,9.4,9.4,0,0,1,4.227-.9,9.333,9.333,0,0,1,4.2.9,6.579,6.579,0,0,1,2.843,2.71,9.69,9.69,0,0,1,1.119,4.522q.059,1.3.059,2.489t-.059,2.489A10.135,10.135,0,0,1,73.383-3.64,6.173,6.173,0,0,1,70.6-.959,9.8,9.8,0,0,1,66.3-.09Zm0-2.5a5.113,5.113,0,0,0,3.668-1.355,6.174,6.174,0,0,0,1.547-4.389q.059-1.326.059-2.371t-.059-2.342a7.31,7.31,0,0,0-.751-3.3,4.36,4.36,0,0,0-1.841-1.856A5.664,5.664,0,0,0,66.3-18.8a5.664,5.664,0,0,0-2.622.589,4.361,4.361,0,0,0-1.841,1.856,7.56,7.56,0,0,0-.781,3.3q-.029,1.3-.029,2.342t.029,2.371a6.134,6.134,0,0,0,1.561,4.389A5.165,5.165,0,0,0,66.3-2.594Z" transform="translate(805.192 372.201)" fill="#4ecbb6"/>
    <path id="Path_184" data-name="Path 184" d="M3.288-.385a.648.648,0,0,1-.5-.191.689.689,0,0,1-.177-.486V-20.3a.73.73,0,0,1,.177-.516.648.648,0,0,1,.5-.191H10.77a9.334,9.334,0,0,1,3.785.707,5.468,5.468,0,0,1,2.489,2.106,6.419,6.419,0,0,1,.884,3.491,6.344,6.344,0,0,1-.884,3.476,5.5,5.5,0,0,1-2.489,2.092,9.334,9.334,0,0,1-3.785.707H5.556v7.364a.659.659,0,0,1-.191.486.7.7,0,0,1-.516.191ZM5.526-10.9h5.1a4.783,4.783,0,0,0,3.27-.972,3.592,3.592,0,0,0,1.09-2.828,3.7,3.7,0,0,0-1.06-2.828,4.67,4.67,0,0,0-3.3-1h-5.1ZM28.945-.09a9.871,9.871,0,0,1-4.33-.869A6.093,6.093,0,0,1,21.846-3.64a10.534,10.534,0,0,1-1.09-4.551q-.029-1.3-.029-2.489t.029-2.489a10.057,10.057,0,0,1,1.134-4.522,6.493,6.493,0,0,1,2.828-2.71,9.4,9.4,0,0,1,4.227-.9,9.333,9.333,0,0,1,4.2.9,6.579,6.579,0,0,1,2.843,2.71,9.69,9.69,0,0,1,1.119,4.522q.059,1.3.059,2.489t-.059,2.489A10.134,10.134,0,0,1,36.03-3.64,6.172,6.172,0,0,1,33.246-.959,9.8,9.8,0,0,1,28.945-.09Zm0-2.5a5.113,5.113,0,0,0,3.668-1.355A6.174,6.174,0,0,0,34.16-8.338q.059-1.326.059-2.371t-.059-2.342a7.311,7.311,0,0,0-.751-3.3,4.36,4.36,0,0,0-1.841-1.856,5.664,5.664,0,0,0-2.622-.589,5.664,5.664,0,0,0-2.622.589,4.361,4.361,0,0,0-1.841,1.856,7.56,7.56,0,0,0-.781,3.3q-.029,1.3-.029,2.342T23.7-8.338a6.134,6.134,0,0,0,1.561,4.389A5.165,5.165,0,0,0,28.945-2.594Zm13.2,2.209a.648.648,0,0,1-.5-.191.689.689,0,0,1-.177-.486V-20.3a.73.73,0,0,1,.177-.516.648.648,0,0,1,.5-.191H49.33A8.188,8.188,0,0,1,54.6-19.444a5.578,5.578,0,0,1,1.944,4.625,5.766,5.766,0,0,1-1.134,3.7,5.884,5.884,0,0,1-3.078,1.988L56.872-1.3a.733.733,0,0,1,.088.324.545.545,0,0,1-.191.412.615.615,0,0,1-.427.177H54.927a.937.937,0,0,1-.736-.265,4.854,4.854,0,0,1-.412-.53L49.507-8.663H44.352v7.6a.659.659,0,0,1-.191.486.7.7,0,0,1-.516.191Zm2.209-10.782h4.861a4.992,4.992,0,0,0,3.3-.928,3.416,3.416,0,0,0,1.09-2.754,3.449,3.449,0,0,0-1.075-2.74,4.927,4.927,0,0,0-3.314-.943H44.352ZM73.309-.385a1.058,1.058,0,0,1-.692-.206,1.41,1.41,0,0,1-.4-.56L65.65-20.092a1.032,1.032,0,0,1-.059-.324.565.565,0,0,1,.177-.412.565.565,0,0,1,.412-.177h1.532a.737.737,0,0,1,.545.191,1.094,1.094,0,0,1,.25.339l5.744,16.7,5.774-16.7a1.182,1.182,0,0,1,.236-.339.687.687,0,0,1,.53-.191h1.532a.615.615,0,0,1,.427.177.545.545,0,0,1,.191.412,1.032,1.032,0,0,1-.059.324l-6.6,18.941a1.193,1.193,0,0,1-.368.56,1.058,1.058,0,0,1-.692.206Zm13.845,0a.648.648,0,0,1-.5-.191.689.689,0,0,1-.177-.486V-20.328a.689.689,0,0,1,.177-.486.648.648,0,0,1,.5-.191h1.561a.648.648,0,0,1,.5.191.689.689,0,0,1,.177.486V-1.062a.689.689,0,0,1-.177.486.648.648,0,0,1-.5.191Zm13.993.295a10.32,10.32,0,0,1-4.3-.8A6.691,6.691,0,0,1,94.18-2.933a4.709,4.709,0,0,1-.987-2.636A.592.592,0,0,1,93.385-6a.623.623,0,0,1,.457-.191h1.5a.72.72,0,0,1,.53.177.874.874,0,0,1,.236.412,3.649,3.649,0,0,0,.736,1.4,4.149,4.149,0,0,0,1.605,1.149,6.79,6.79,0,0,0,2.7.457,6.215,6.215,0,0,0,3.726-.9,2.855,2.855,0,0,0,1.193-2.4,2.25,2.25,0,0,0-.633-1.664,5.551,5.551,0,0,0-1.93-1.134q-1.3-.5-3.358-1.09a19.46,19.46,0,0,1-3.564-1.355,5.329,5.329,0,0,1-2.106-1.826,5.079,5.079,0,0,1-.692-2.769,4.925,4.925,0,0,1,.854-2.843,5.815,5.815,0,0,1,2.474-1.988A9.346,9.346,0,0,1,101-21.3a9.552,9.552,0,0,1,3.2.486,6.844,6.844,0,0,1,2.283,1.3,5.934,5.934,0,0,1,1.385,1.738,4.31,4.31,0,0,1,.5,1.812.645.645,0,0,1-.147.4.557.557,0,0,1-.471.191h-1.561a.907.907,0,0,1-.427-.118.768.768,0,0,1-.339-.442,2.978,2.978,0,0,0-1.355-2.033A5.23,5.23,0,0,0,101-18.8a5.848,5.848,0,0,0-3.108.736,2.507,2.507,0,0,0-1.193,2.3,2.491,2.491,0,0,0,.56,1.664,4.565,4.565,0,0,0,1.767,1.164,30.558,30.558,0,0,0,3.152,1.06,23.437,23.437,0,0,1,3.859,1.37,5.412,5.412,0,0,1,2.224,1.8,4.846,4.846,0,0,1,.722,2.754,5.167,5.167,0,0,1-.972,3.167,6.063,6.063,0,0,1-2.725,2A11.242,11.242,0,0,1,101.147-.09Zm19.118,0a9.871,9.871,0,0,1-4.33-.869,6.093,6.093,0,0,1-2.769-2.681,10.533,10.533,0,0,1-1.09-4.551q-.029-1.3-.029-2.489t.029-2.489a10.057,10.057,0,0,1,1.134-4.522,6.493,6.493,0,0,1,2.828-2.71,9.4,9.4,0,0,1,4.227-.9,9.333,9.333,0,0,1,4.2.9,6.579,6.579,0,0,1,2.843,2.71,9.691,9.691,0,0,1,1.119,4.522q.059,1.3.059,2.489t-.059,2.489A10.135,10.135,0,0,1,127.35-3.64a6.173,6.173,0,0,1-2.784,2.681A9.8,9.8,0,0,1,120.265-.09Zm0-2.5a5.113,5.113,0,0,0,3.668-1.355,6.174,6.174,0,0,0,1.547-4.389q.059-1.326.059-2.371t-.059-2.342a7.311,7.311,0,0,0-.751-3.3,4.361,4.361,0,0,0-1.841-1.856,5.664,5.664,0,0,0-2.622-.589,5.664,5.664,0,0,0-2.622.589,4.361,4.361,0,0,0-1.841,1.856,7.559,7.559,0,0,0-.781,3.3q-.029,1.3-.029,2.342t.029,2.371a6.133,6.133,0,0,0,1.561,4.389A5.165,5.165,0,0,0,120.265-2.594Zm13.2,2.209a.648.648,0,0,1-.5-.191.689.689,0,0,1-.177-.486V-20.3a.73.73,0,0,1,.177-.516.648.648,0,0,1,.5-.191h7.188a8.188,8.188,0,0,1,5.273,1.561,5.578,5.578,0,0,1,1.944,4.625,5.766,5.766,0,0,1-1.134,3.7,5.883,5.883,0,0,1-3.078,1.988L148.191-1.3a.733.733,0,0,1,.088.324.545.545,0,0,1-.191.412.615.615,0,0,1-.427.177h-1.414a.937.937,0,0,1-.736-.265,4.856,4.856,0,0,1-.412-.53l-4.271-7.482h-5.155v7.6a.659.659,0,0,1-.191.486.7.7,0,0,1-.516.191Zm2.209-10.782h4.861a4.992,4.992,0,0,0,3.3-.928,3.416,3.416,0,0,0,1.09-2.754,3.449,3.449,0,0,0-1.075-2.74,4.927,4.927,0,0,0-3.314-.943h-4.861ZM167.074-.09a9.489,9.489,0,0,1-4.257-.884,6.111,6.111,0,0,1-2.74-2.7,9.965,9.965,0,0,1-.957-4.669V-20.3a.73.73,0,0,1,.177-.516.648.648,0,0,1,.5-.191h1.5a.7.7,0,0,1,.516.191.7.7,0,0,1,.191.516V-8.28a5.9,5.9,0,0,0,1.355,4.271,4.955,4.955,0,0,0,3.712,1.385,4.966,4.966,0,0,0,3.7-1.385,5.859,5.859,0,0,0,1.37-4.271V-20.3a.7.7,0,0,1,.191-.516.659.659,0,0,1,.486-.191h1.532a.659.659,0,0,1,.486.191.7.7,0,0,1,.191.516v11.96a9.965,9.965,0,0,1-.957,4.669,6.128,6.128,0,0,1-2.725,2.7A9.467,9.467,0,0,1,167.074-.09Zm13.551-.295a.648.648,0,0,1-.5-.191.689.689,0,0,1-.177-.486V-20.3a.73.73,0,0,1,.177-.516.648.648,0,0,1,.5-.191h7.188a8.188,8.188,0,0,1,5.273,1.561,5.578,5.578,0,0,1,1.944,4.625,5.766,5.766,0,0,1-1.134,3.7,5.883,5.883,0,0,1-3.078,1.988L195.354-1.3a.733.733,0,0,1,.088.324.545.545,0,0,1-.191.412.615.615,0,0,1-.427.177h-1.414a.937.937,0,0,1-.736-.265,4.856,4.856,0,0,1-.412-.53l-4.271-7.482h-5.155v7.6a.659.659,0,0,1-.191.486.7.7,0,0,1-.516.191Zm2.209-10.782h4.861a4.992,4.992,0,0,0,3.3-.928,3.416,3.416,0,0,0,1.09-2.754,3.449,3.449,0,0,0-1.075-2.74,4.927,4.927,0,0,0-3.314-.943h-4.861ZM199.92-.385a.648.648,0,0,1-.5-.191.689.689,0,0,1-.177-.486V-20.3a.73.73,0,0,1,.177-.516.648.648,0,0,1,.5-.191h8.072a7.863,7.863,0,0,1,3.609.722,4.7,4.7,0,0,1,2.062,1.959,5.77,5.77,0,0,1,.663,2.769,4.96,4.96,0,0,1-.4,2.077,4.375,4.375,0,0,1-.987,1.414,5.482,5.482,0,0,1-1.149.84A5.494,5.494,0,0,1,213.839-9.4a5.158,5.158,0,0,1,.9,3.064A6.129,6.129,0,0,1,214-3.36a5.42,5.42,0,0,1-2.195,2.165,7.279,7.279,0,0,1-3.579.81Zm2.209-2.386h5.715A3.944,3.944,0,0,0,210.76-3.8a3.444,3.444,0,0,0,1.031-2.533,3.466,3.466,0,0,0-1.031-2.578,3.978,3.978,0,0,0-2.916-1.016h-5.715Zm0-9.515h5.42a4.161,4.161,0,0,0,2.857-.869,3.019,3.019,0,0,0,.972-2.371,2.8,2.8,0,0,0-.972-2.3,4.425,4.425,0,0,0-2.857-.8h-5.42ZM217.3-.385a.565.565,0,0,1-.412-.177.565.565,0,0,1-.177-.412,1.983,1.983,0,0,1,.029-.324l7.306-19.059a1.187,1.187,0,0,1,.324-.471.93.93,0,0,1,.619-.177h2a.93.93,0,0,1,.619.177,1.187,1.187,0,0,1,.324.471L235.21-1.3a1.032,1.032,0,0,1,.059.324.565.565,0,0,1-.177.412.565.565,0,0,1-.412.177h-1.5a.669.669,0,0,1-.516-.177,1.117,1.117,0,0,1-.221-.324l-1.62-4.183h-9.662l-1.62,4.183a.682.682,0,0,1-.206.324.72.72,0,0,1-.53.177ZM222.013-7.6h7.954L225.99-18.06ZM239.1-.385a.648.648,0,0,1-.5-.191.689.689,0,0,1-.177-.486V-20.3a.73.73,0,0,1,.177-.516.648.648,0,0,1,.5-.191h1.355a.761.761,0,0,1,.53.162.754.754,0,0,1,.206.25l9.78,15.024V-20.3a.73.73,0,0,1,.177-.516.647.647,0,0,1,.5-.191h1.414a.7.7,0,0,1,.516.191.7.7,0,0,1,.191.516V-1.092a.709.709,0,0,1-.191.5.634.634,0,0,1-.486.206h-1.414a.627.627,0,0,1-.486-.177q-.162-.177-.221-.236L241.22-15.674V-1.062a.659.659,0,0,1-.191.486.7.7,0,0,1-.516.191Zm27.219.295a9.871,9.871,0,0,1-4.33-.869,6.093,6.093,0,0,1-2.769-2.681,10.534,10.534,0,0,1-1.09-4.551q-.029-1.3-.029-2.489t.029-2.489a10.058,10.058,0,0,1,1.134-4.522,6.492,6.492,0,0,1,2.828-2.71,9.4,9.4,0,0,1,4.227-.9,9.333,9.333,0,0,1,4.2.9,6.579,6.579,0,0,1,2.843,2.71,9.69,9.69,0,0,1,1.119,4.522q.059,1.3.059,2.489t-.059,2.489A10.134,10.134,0,0,1,273.4-3.64a6.173,6.173,0,0,1-2.784,2.681A9.8,9.8,0,0,1,266.318-.09Zm0-2.5a5.113,5.113,0,0,0,3.667-1.355,6.174,6.174,0,0,0,1.547-4.389q.059-1.326.059-2.371t-.059-2.342a7.311,7.311,0,0,0-.751-3.3,4.361,4.361,0,0,0-1.841-1.856,5.664,5.664,0,0,0-2.622-.589,5.664,5.664,0,0,0-2.622.589,4.361,4.361,0,0,0-1.841,1.856,7.56,7.56,0,0,0-.781,3.3q-.029,1.3-.029,2.342t.029,2.371a6.134,6.134,0,0,0,1.561,4.389A5.165,5.165,0,0,0,266.318-2.594Z" transform="translate(886.308 520.671)" fill="#4ecbb6"/>
  </g>
</svg>
