<svg xmlns="http://www.w3.org/2000/svg" width="90.797" height="90.797" viewBox="0 0 90.797 90.797">
  <g id="Group_15456" data-name="Group 15456" transform="translate(-440.479 -5004)">
    <path id="Icon_feather-message-circle" data-name="Icon feather-message-circle" d="M91.3,45.488a40.409,40.409,0,0,1-4.34,18.324A40.987,40.987,0,0,1,50.31,86.475a40.409,40.409,0,0,1-18.324-4.34L4.5,91.3l9.162-27.486a40.409,40.409,0,0,1-4.34-18.324A40.987,40.987,0,0,1,31.986,8.84,40.409,40.409,0,0,1,50.31,4.5h2.411A40.891,40.891,0,0,1,91.3,43.077Z" transform="translate(437.979 5001.5)" fill="none" stroke="#fff" stroke-linecap="round" stroke-linejoin="round" stroke-width="4"/>
    <path id="Path_20733" data-name="Path 20733" d="M30.178.5a4.04,4.04,0,0,1-3.052-1.29A4.206,4.206,0,0,1,25.9-3.781,4.173,4.173,0,0,1,27.126-6.8,4.09,4.09,0,0,1,30.178-8.06,4.017,4.017,0,0,1,33.167-6.8a4.173,4.173,0,0,1,1.227,3.02A4.206,4.206,0,0,1,33.167-.792,3.969,3.969,0,0,1,30.178.5ZM6.015.5A4.04,4.04,0,0,1,2.963-.792,4.206,4.206,0,0,1,1.736-3.781,4.173,4.173,0,0,1,2.963-6.8,4.09,4.09,0,0,1,6.015-8.06,4.048,4.048,0,0,1,8.972-6.8a4.119,4.119,0,0,1,1.259,3.02A4.152,4.152,0,0,1,8.972-.792,4,4,0,0,1,6.015.5ZM18.159.5a4.113,4.113,0,0,1-3.115-1.29,4.206,4.206,0,0,1-1.227-2.989A4.173,4.173,0,0,1,15.045-6.8,4.165,4.165,0,0,1,18.159-8.06,4.048,4.048,0,0,1,21.117-6.8a4.119,4.119,0,0,1,1.259,3.02A4.152,4.152,0,0,1,21.117-.792,4,4,0,0,1,18.159.5Z" transform="translate(469.842 5051.15)" fill="#fff"/>
  </g>
</svg>
