<svg xmlns="http://www.w3.org/2000/svg" width="247.543" height="247.551" viewBox="0 0 247.543 247.551">
  <g id="Group_15454" data-name="Group 15454" transform="translate(-179.5 -1957.226)">
    <ellipse id="Ellipse_60" data-name="Ellipse 60" cx="123.771" cy="123.776" rx="123.771" ry="123.776" transform="translate(179.5 1957.226)" fill="none"/>
    <g id="Group_15453" data-name="Group 15453" transform="translate(0 -21.401)">
      <ellipse id="Ellipse_2" data-name="Ellipse 2" cx="60.729" cy="60.731" rx="60.729" ry="60.731" transform="translate(242.543 2020.271)" fill="#cef0ff"/>
      <g id="Group_15452" data-name="Group 15452" transform="translate(-158.206 32.535)">
        <line id="Line_25" data-name="Line 25" y1="40.429" transform="translate(433.471 2064.765)" fill="none" stroke="#3491e2" stroke-linecap="round" stroke-width="4"/>
        <line id="Line_26" data-name="Line 26" y1="40.429" transform="translate(445.545 2064.765)" fill="none" stroke="#3491e2" stroke-linecap="round" stroke-width="4"/>
        <line id="Line_27" data-name="Line 27" y1="40.429" transform="translate(454.963 2064.765)" fill="none" stroke="#3491e2" stroke-linecap="round" stroke-width="4"/>
        <line id="Line_28" data-name="Line 28" y1="40.429" transform="translate(467.037 2064.765)" fill="none" stroke="#3491e2" stroke-linecap="round" stroke-width="4"/>
        <line id="Line_29" data-name="Line 29" y1="40.429" transform="translate(476.454 2064.765)" fill="none" stroke="#3491e2" stroke-linecap="round" stroke-width="4"/>
        <line id="Line_30" data-name="Line 30" y1="40.429" transform="translate(488.528 2064.765)" fill="none" stroke="#3491e2" stroke-linecap="round" stroke-width="4"/>
        <path id="Path_23915" data-name="Path 23915" d="M95.791,45.412,54.838,32.89a16.775,16.775,0,0,0-9.677,0L4.209,45.412c-3.577,1.094-2.566,5.21,1.28,5.21H94.512C98.357,50.622,99.367,46.505,95.791,45.412Z" transform="translate(411 2014.347)" fill="none" stroke="#3491e2" stroke-linecap="round" stroke-width="4"/>
        <line id="Line_32" data-name="Line 32" x2="94.071" transform="translate(413.964 2104.756)" fill="none" stroke="#3491e2" stroke-width="4"/>
        <path id="Path_23916" data-name="Path 23916" d="M102.158,15.854V2h12.189v8.663H102.8" transform="translate(358.812 2030)" fill="none" stroke="#3491e2" stroke-linecap="round" stroke-width="4"/>
        <path id="Path_23917" data-name="Path 23917" d="M66.4,154.018V168.93l-9.728,9.862" transform="translate(383.017 1950.4)" fill="none" stroke="#3491e2" stroke-linecap="round" stroke-width="4"/>
        <line id="Line_33" data-name="Line 33" y2="39.948" transform="translate(461 2104.352)" fill="none" stroke="#3491e2" stroke-linecap="round" stroke-width="4"/>
        <path id="Path_23918" data-name="Path 23918" d="M126.488,155.712v17.465l5.775,5.774" transform="translate(346.156 1949.529)" fill="none" stroke="#3491e2" stroke-linecap="round" stroke-width="4"/>
        <circle id="Ellipse_64" data-name="Ellipse 64" cx="3.85" cy="3.85" r="3.85" transform="translate(477.426 2126.491)" fill="none" stroke="#3491e2" stroke-linecap="round" stroke-width="4"/>
        <circle id="Ellipse_65" data-name="Ellipse 65" cx="3.85" cy="3.85" r="3.85" transform="translate(432.394 2127.935)" fill="none" stroke="#3491e2" stroke-linecap="round" stroke-width="4"/>
        <circle id="Ellipse_66" data-name="Ellipse 66" cx="3.85" cy="3.85" r="3.85" transform="translate(457.15 2144.3)" fill="none" stroke="#3491e2" stroke-linecap="round" stroke-width="4"/>
        <line id="Line_34" data-name="Line 34" y1="40.429" transform="translate(424.101 2064.765)" fill="none" stroke="#3491e2" stroke-width="4"/>
        <line id="Line_35" data-name="Line 35" y1="40.429" transform="translate(497.898 2064.765)" fill="none" stroke="#3491e2" stroke-width="4"/>
      </g>
    </g>
  </g>
</svg>
