<svg xmlns="http://www.w3.org/2000/svg" width="91" height="229.059" viewBox="0 0 91 229.059">
  <g id="Group_15477" data-name="Group 15477" transform="translate(-428.746 -2657.531)">
    <path id="Trazado_23906" data-name="Trazado 23906" d="M2,226.059H-2V0H2Z" transform="translate(474.246 2660.531)" fill="#4ecbb5"/>
    <path id="Trazado_23907" data-name="Trazado 23907" d="M236.732,598.207l-42.074-42.074,2.828-2.828,39.246,39.246,38.443-38.444L278,556.935Z" transform="translate(237.956 2180.531)" fill="#4ecbb5"/>
    <path id="Trazado_23908" data-name="Trazado 23908" d="M236.29,624a45.464,45.464,0,0,1-45.5-45.5c0-6.226,1.229-15.493,3.461-26.094a255.917,255.917,0,0,1,9.4-33.342c2.072-5.757,4.264-11.065,6.515-15.778a94.464,94.464,0,0,1,7.554-13.263C223.754,481.382,230,477,236.29,477s12.536,4.382,18.572,13.023a94.459,94.459,0,0,1,7.554,13.263c2.251,4.713,4.443,10.021,6.515,15.778a255.917,255.917,0,0,1,9.4,33.342c2.232,10.6,3.461,19.868,3.461,26.094a45.464,45.464,0,0,1-45.5,45.5Zm0-143a12.791,12.791,0,0,0-7.571,2.894,36.556,36.556,0,0,0-7.721,8.42,90.5,90.5,0,0,0-7.224,12.7c-2.194,4.593-4.334,9.777-6.361,15.408a255.494,255.494,0,0,0-9.247,32.812c-2.145,10.188-3.376,19.4-3.376,25.27a41.5,41.5,0,1,0,83,0c0-5.871-1.23-15.082-3.376-25.27a255.5,255.5,0,0,0-9.247-32.812c-2.027-5.631-4.167-10.815-6.361-15.408a90.5,90.5,0,0,0-7.224-12.7,36.556,36.556,0,0,0-7.721-8.42A12.791,12.791,0,0,0,236.29,481Z" transform="translate(237.956 2180.531)" fill="#4ecbb5"/>
    <path id="Trazado_23909" data-name="Trazado 23909" d="M236.715,552.19l-32.558-32.558,2.828-2.828,29.762,29.762,28.395-27.747,2.8,2.861Z" transform="translate(237.956 2180.531)" fill="#4ecbb5"/>
  </g>
</svg>
