<svg xmlns="http://www.w3.org/2000/svg" width="150" height="232.325" viewBox="0 0 150 232.325">
  <g id="Group_15488" data-name="Group 15488" transform="translate(-1676 -4003.675)">
    <path id="Trazado_23929" data-name="Trazado 23929" d="M166.949,294.65c-2.7,0-7.64-.048-12.866-.1-6.175-.06-12.559-.123-16.678-.123H114.079a18.216,18.216,0,1,1,2.333-36.282,24.224,24.224,0,0,1,43.3,2.642,24.031,24.031,0,0,1,1.9,8.783,13.108,13.108,0,1,1,5.339,25.08ZM114.079,262a14.216,14.216,0,1,0,0,28.433H137.4c4.139,0,10.533.063,16.718.123,5.216.051,10.143.1,12.827.1a9.107,9.107,0,1,0-6.2-15.774l-4.148,3.86.806-5.609a20.549,20.549,0,0,0,.212-2.913,20.215,20.215,0,0,0-31.009-17.091,20.293,20.293,0,0,0-7.322,8.125l-.691,1.392-1.52-.325A14.344,14.344,0,0,0,114.079,262Z" transform="translate(1580.137 3757.675)" fill="#cef0ff"/>
    <g id="Group_15460" data-name="Group 15460" transform="translate(1717.928 3261.878)">
      <path id="Trazado_23913" data-name="Trazado 23913" d="M101.176,625.706a37.729,37.729,0,0,1-37.759-37.759V560.8a37.759,37.759,0,1,1,75.518,0v27.15a37.729,37.729,0,0,1-37.759,37.759Zm0-98.668A33.729,33.729,0,0,0,67.417,560.8v27.15a33.759,33.759,0,1,0,67.518,0V560.8a33.729,33.729,0,0,0-33.759-33.759Z" transform="translate(-30.863 278.063)" fill="#4ecbb6"/>
      <path id="Línea_21" data-name="Línea 21" d="M2,146.52H-2V0H2Z" transform="translate(70.313 827.602)" fill="#4ecbb6"/>
      <path id="Línea_22" data-name="Línea 22" d="M1.414,16.062l-2.828-2.828L13.234-1.414l2.828,2.828Z" transform="translate(70.22 848.793)" fill="#4ecbb6"/>
    </g>
  </g>
</svg>
