<svg xmlns="http://www.w3.org/2000/svg" width="248" height="248" viewBox="0 0 248 248">
  <g id="Group_15480" data-name="Group 15480" transform="translate(-1493.5 -1957)">
    <circle id="Ellipse_4" data-name="Ellipse 4" cx="124" cy="124" r="124" transform="translate(1493.5 1957)" fill="none"/>
    <g id="Group_15483" data-name="Group 15483" transform="translate(0 -21.889)">
      <circle id="Ellipse_63" data-name="Ellipse 63" cx="60.5" cy="60.5" r="60.5" transform="translate(1557 2020.5)" fill="#b48ed1" opacity="0.16"/>
      <g id="Group_15479" data-name="Group 15479" transform="translate(-2457.5 41.989)">
        <line id="Line_78" data-name="Line 78" x2="21" transform="translate(4102 2097.81)" fill="none" stroke="#b48ed1" stroke-width="4"/>
        <line id="Line_79" data-name="Line 79" x2="51" transform="translate(4027 2097.81)" fill="none" stroke="#b48ed1" stroke-width="4"/>
        <path id="Path_24024" data-name="Path 24024" d="M70.983,183.879a3.7,3.7,0,1,1-3.7-3.7A3.7,3.7,0,0,1,70.983,183.879Z" transform="translate(3995.91 1930.857)" fill="#b48ed1"/>
        <path id="Path_24032" data-name="Path 24032" d="M70.983,183.879a3.7,3.7,0,1,1-3.7-3.7A3.7,3.7,0,0,1,70.983,183.879Z" transform="translate(4022.449 1913.455)" fill="#b48ed1"/>
        <path id="Path_24033" data-name="Path 24033" d="M70.983,183.879a3.7,3.7,0,1,1-3.7-3.7A3.7,3.7,0,0,1,70.983,183.879Z" transform="translate(4022.449 1945.705)" fill="#b48ed1"/>
        <g id="Path_24025" data-name="Path 24025" transform="translate(4003.498 1938.446)" fill="none">
          <path d="M72.441,173.8l-2.208-.117a10.8,10.8,0,0,0-1.261-3.031l1.46-1.669a1.019,1.019,0,0,0-.046-1.391l-2.036-2.035a1.018,1.018,0,0,0-1.4-.037L65.305,167a10.791,10.791,0,0,0-3.035-1.249l-.148-2.214a1.019,1.019,0,0,0-1.016-.95H58.227a1.018,1.018,0,0,0-1.017.964l-.117,2.208a10.777,10.777,0,0,0-3.03,1.261l-1.67-1.46A1.018,1.018,0,0,0,51,165.6l-2.036,2.035a1.019,1.019,0,0,0-.037,1.4l1.478,1.644a10.776,10.776,0,0,0-1.249,3.035l-2.214.149a1.018,1.018,0,0,0-.95,1.016v2.878a1.019,1.019,0,0,0,.964,1.017l2.208.117a10.779,10.779,0,0,0,1.26,3.031l-1.46,1.669a1.019,1.019,0,0,0,.046,1.391l2.036,2.035a1.019,1.019,0,0,0,1.4.037l1.644-1.478a10.792,10.792,0,0,0,3.035,1.25l.148,2.214a1.019,1.019,0,0,0,1.016.951h2.879a1.018,1.018,0,0,0,1.017-.965l.117-2.208a10.791,10.791,0,0,0,3.03-1.261l1.67,1.46a1.018,1.018,0,0,0,1.39-.046l2.036-2.035a1.019,1.019,0,0,0,.037-1.4L68.991,181.9a10.78,10.78,0,0,0,1.25-3.035l2.214-.148a1.018,1.018,0,0,0,.95-1.016v-2.878A1.018,1.018,0,0,0,72.441,173.8Z" stroke="none"/>
          <path d="M 59.687255859375 169.2370452880859 L 58.05024719238281 169.6405487060547 C 57.37560653686523 169.8068542480469 56.73421859741211 170.0735626220703 56.1439094543457 170.4332885742188 L 54.70269775390625 171.3115081787109 L 53.83121490478516 172.7533416748047 C 53.47393035888672 173.3444671630859 53.20962524414062 173.9867858886719 53.04566955566406 174.6624450683594 L 52.64739227294922 176.3036041259766 L 53.05054473876953 177.9390869140625 C 53.21721649169922 178.615234375 53.48375701904297 179.2567901611328 53.84278106689453 179.845947265625 L 54.72030639648438 181.2859802246094 L 56.16328811645508 182.1581268310547 C 56.7545280456543 182.5154876708984 57.39742660522461 182.7800903320312 58.07412719726562 182.9446258544922 L 59.71350860595703 183.3432159423828 L 61.34746932983398 182.9397125244141 C 62.02408981323242 182.7726287841797 62.66599655151367 182.5057983398438 63.25536727905273 182.1466369628906 L 64.69554901123047 181.2689666748047 L 65.56863403320312 179.8252258300781 C 65.92563629150391 179.2349090576172 66.19004821777344 178.5924377441406 66.35450744628906 177.9156799316406 L 66.7530517578125 176.2756805419922 L 66.34971618652344 174.6424255371094 C 66.18248748779297 173.9652252197266 65.91563415527344 173.3231201171875 65.55659484863281 172.7339324951172 L 64.6785888671875 171.2931213378906 L 63.23605728149414 170.4212341308594 C 62.64573669433594 170.0644378662109 62.00286865234375 169.8000030517578 61.3253173828125 169.6352844238281 L 59.687255859375 169.2370452880859 M 58.22698974609375 162.5839996337891 L 61.10588836669922 162.5839996337891 C 61.6418571472168 162.5839996337891 62.08637619018555 162.9996795654297 62.12207794189453 163.5341796875 L 62.27024841308594 165.7484893798828 C 63.35442733764648 166.0120697021484 64.37550354003906 166.4360656738281 65.30514526367188 166.9979553222656 L 66.94876098632812 165.5201110839844 C 67.35123443603516 165.1577606201172 67.9669189453125 165.1743774414062 68.34982299804688 165.5572814941406 L 70.38563537597656 167.5926055908203 C 70.76463317871094 167.9716033935547 70.78468322753906 168.5794677734375 70.43209838867188 168.9833984375 L 68.97235107421875 170.6524353027344 C 69.53766632080078 171.5801239013672 69.96556091308594 172.6002197265625 70.23306274414062 173.6834259033203 L 72.44100952148438 173.80029296875 C 72.98187255859375 173.8291625976562 73.40536499023438 174.275634765625 73.40536499023438 174.8174743652344 L 73.40536499023438 177.6958770751953 C 73.40536499023438 178.2318572998047 72.99018859863281 178.6763763427734 72.45518493652344 178.7120666503906 L 70.24137878417969 178.8602600097656 C 69.977783203125 179.9449157714844 69.55331420898438 180.9660034179688 68.99142456054688 181.8951416015625 L 70.46974945068359 183.5387573242188 C 70.83162689208984 183.9417114257812 70.81549072265625 184.5574035644531 70.43258666992188 184.9403076171875 L 68.39677429199219 186.9756469726562 C 68.01777648925781 187.3546142578125 67.409912109375 187.3751678466797 67.0064697265625 187.0220947265625 L 65.33692932128906 185.5623474121094 C 64.40925598144531 186.1276702880859 63.3896369934082 186.5555725097656 62.30643844604492 186.8230590820312 L 62.18907928466797 189.031005859375 C 62.16070938110352 189.5718688964844 61.71373748779297 189.9958648681641 61.17238616943359 189.9958648681641 L 58.29348754882812 189.9958648681641 C 57.75751876831055 189.9958648681641 57.3134880065918 189.5802001953125 57.27729797363281 189.0451965332031 L 57.12912750244141 186.8313903808594 C 56.04494857788086 186.5677947998047 55.02386474609375 186.143310546875 54.09421539306641 185.5814208984375 L 52.45060729980469 187.0597534179688 C 52.04814147949219 187.4216461181641 51.43246459960938 187.405517578125 51.04954528808594 187.0225830078125 L 49.01372528076172 184.9872589111328 C 48.63473510742188 184.6082763671875 48.61468505859375 183.9999084472656 48.96727752685547 183.5964660644531 L 50.42701721191406 181.9274291992188 C 49.86170959472656 180.999755859375 49.43380737304688 179.9796447753906 49.16680145263672 178.8964385986328 L 46.95835876464844 178.7795715332031 C 46.41749572753906 178.7507171630859 45.99399566650391 178.3037414550781 45.99399566650391 177.7623901367188 L 45.99399566650391 174.8839721679688 C 45.99399566650391 174.3475341796875 46.4091796875 173.9034881591797 46.94417572021484 173.8677978515625 L 49.15848541259766 173.7191162109375 C 49.42158508300781 172.6349487304688 49.84606170654297 171.6138610839844 50.40795135498047 170.6842346191406 L 48.92962646484375 169.0406188964844 C 48.56774139404297 168.6381530761719 48.58388519287109 168.0224609375 48.96678924560547 167.6395568847656 L 51.00260925292969 165.6042175292969 C 51.38159942626953 165.2252349853516 51.98945617675781 165.2047119140625 52.39290618896484 165.5577697753906 L 54.06243896484375 167.0175170898438 C 54.99011993408203 166.4522094726562 56.00973892211914 166.0238037109375 57.09293746948242 165.7568054199219 L 57.21029663085938 163.5483703613281 C 57.2386589050293 163.0079956054688 57.68563842773438 162.5839996337891 58.22698974609375 162.5839996337891 Z" stroke="none" fill="#b48ed1"/>
        </g>
        <g id="Path_24027" data-name="Path 24027" transform="translate(3975.769 1956.628)" fill="none">
          <path d="M126.709,138.216,124.5,138.1a10.794,10.794,0,0,0-1.261-3.031l1.46-1.669a1.019,1.019,0,0,0-.046-1.391l-2.036-2.035a1.018,1.018,0,0,0-1.4-.037l-1.644,1.478a10.791,10.791,0,0,0-3.035-1.249l-.148-2.214a1.019,1.019,0,0,0-1.016-.95h-2.879a1.018,1.018,0,0,0-1.017.964l-.117,2.208a10.777,10.777,0,0,0-3.03,1.261l-1.67-1.46a1.018,1.018,0,0,0-1.39.046l-2.036,2.035a1.018,1.018,0,0,0-.037,1.4l1.478,1.644a10.777,10.777,0,0,0-1.249,3.035l-2.214.149a1.018,1.018,0,0,0-.95,1.016v2.878a1.019,1.019,0,0,0,.964,1.017l2.208.117a10.779,10.779,0,0,0,1.26,3.031l-1.46,1.669a1.019,1.019,0,0,0,.046,1.391l2.036,2.035a1.019,1.019,0,0,0,1.4.037L108.362,150a10.792,10.792,0,0,0,3.035,1.25l.148,2.214a1.019,1.019,0,0,0,1.016.951h2.879a1.018,1.018,0,0,0,1.017-.965l.117-2.208a10.792,10.792,0,0,0,3.03-1.261l1.67,1.46a1.018,1.018,0,0,0,1.39-.046l2.036-2.035a1.019,1.019,0,0,0,.037-1.4l-1.478-1.644a10.78,10.78,0,0,0,1.25-3.035l2.214-.148a1.018,1.018,0,0,0,.95-1.016v-2.878A1.018,1.018,0,0,0,126.709,138.216Z" stroke="none"/>
          <path d="M 113.9552688598633 133.6530456542969 L 112.3182525634766 134.0565490722656 C 111.6435775756836 134.2228698730469 111.002197265625 134.4895629882812 110.4119262695312 134.8492584228516 L 108.9706649780273 135.7275390625 L 108.0992279052734 137.1693115234375 C 107.7419281005859 137.7604675292969 107.4776306152344 138.4027862548828 107.3136520385742 139.0784759521484 L 106.9153823852539 140.7195739746094 L 107.3185424804688 142.3550872802734 C 107.4852066040039 143.0312194824219 107.7517623901367 143.6727752685547 108.1107711791992 144.2619018554688 L 108.9883193969727 145.7019500732422 L 110.4313430786133 146.5741577148438 C 111.0225296020508 146.9314880371094 111.665397644043 147.1960754394531 112.3420715332031 147.360595703125 L 113.9816741943359 147.7592010498047 L 115.6153869628906 147.3557281494141 C 116.2920913696289 147.1886138916016 116.9340515136719 146.9217681884766 117.5234375 146.5626068115234 L 118.9634704589844 145.6850738525391 L 119.8366394042969 144.2412261962891 C 120.1936416625977 143.65087890625 120.4580459594727 143.0084228515625 120.6225128173828 142.3316650390625 L 121.0210494995117 140.6916809082031 L 120.6177215576172 139.0583953857422 C 120.4504928588867 138.3812255859375 120.1836471557617 137.7391204833984 119.8246002197266 137.1499176025391 L 118.9466247558594 135.7091369628906 L 117.5040588378906 134.8372192382812 C 116.9137573242188 134.4804382324219 116.2708892822266 134.2160186767578 115.5933074951172 134.05126953125 L 113.9552688598633 133.6530456542969 M 112.4949798583984 127 L 115.3738784790039 127 C 115.9098510742188 127 116.354377746582 127.4156799316406 116.3900833129883 127.9501647949219 L 116.5382461547852 130.1644897460938 C 117.6224212646484 130.4280700683594 118.6435089111328 130.85205078125 119.5731506347656 131.4139404296875 L 121.2167663574219 129.9361114501953 C 121.6192474365234 129.5737609863281 122.2349319458008 129.5903778076172 122.6178283691406 129.9732666015625 L 124.6536407470703 132.0086059570312 C 125.0326309204102 132.3876037597656 125.0526809692383 132.9954528808594 124.7000961303711 133.3993835449219 L 123.2403564453125 135.0684356689453 C 123.8056716918945 135.9961242675781 124.2335662841797 137.0162353515625 124.5010604858398 138.0994262695312 L 126.7090072631836 138.21630859375 C 127.2498779296875 138.2451477050781 127.6733779907227 138.6916351318359 127.6733779907227 139.2334747314453 L 127.6733779907227 142.1118774414062 C 127.6733779907227 142.6478576660156 127.258186340332 143.0923767089844 126.7231903076172 143.1280822753906 L 124.5093765258789 143.2762451171875 C 124.2457885742188 144.3609161376953 123.8213195800781 145.3819885253906 123.2594223022461 146.3111419677734 L 124.7377471923828 147.9547729492188 C 125.0996322631836 148.3577270507812 125.0834884643555 148.9734039306641 124.7005767822266 149.3563232421875 L 122.6647720336914 151.3916320800781 C 122.285774230957 151.7706451416016 121.6779251098633 151.7911834716797 121.2744674682617 151.4380950927734 L 119.6049270629883 149.9783630371094 C 118.67724609375 150.5436706542969 117.6576309204102 150.9715576171875 116.5744400024414 151.2390594482422 L 116.4570693969727 153.447021484375 C 116.4287109375 153.9878845214844 115.9817428588867 154.411865234375 115.4403915405273 154.411865234375 L 112.5614929199219 154.411865234375 C 112.025520324707 154.411865234375 111.5814819335938 153.9961853027344 111.545295715332 153.461181640625 L 111.3971328735352 151.2473754882812 C 110.3129577636719 150.9837951660156 109.291862487793 150.5593109130859 108.3622283935547 149.9974212646484 L 106.7186126708984 151.4757537841797 C 106.3161392211914 151.8376312255859 105.7004623413086 151.8215179443359 105.3175506591797 151.4385833740234 L 103.28173828125 149.4032592773438 C 102.9027404785156 149.0242614746094 102.8826904296875 148.4159240722656 103.2352828979492 148.0124664306641 L 104.6950225830078 146.3434143066406 C 104.1297073364258 145.4157409667969 103.7018127441406 144.3956298828125 103.4347991943359 143.3124389648438 L 101.2263565063477 143.195556640625 C 100.6855010986328 143.1667175292969 100.2620010375977 142.7197418212891 100.2620010375977 142.1783752441406 L 100.2620010375977 139.2999877929688 C 100.2620010375977 138.7635192871094 100.6771774291992 138.3194885253906 101.2121658325195 138.2837829589844 L 103.4264831542969 138.1351318359375 C 103.6895904541016 137.0509490966797 104.1140594482422 136.0298614501953 104.6759490966797 135.1002197265625 L 103.198112487793 133.4566040039062 C 102.8357391357422 133.0541381835938 102.8518829345703 132.4384613037109 103.2347869873047 132.0555419921875 L 105.2705993652344 130.0202178955078 C 105.6495971679688 129.6412353515625 106.2574691772461 129.6206970214844 106.6608963012695 129.9737548828125 L 108.330436706543 131.4335021972656 C 109.2581176757812 130.8681945800781 110.2777404785156 130.4398040771484 111.3609313964844 130.1728057861328 L 111.4783020019531 127.96435546875 C 111.5066604614258 127.4239807128906 111.9536285400391 127 112.4949798583984 127 Z" stroke="none" fill="#b48ed1"/>
        </g>
        <g id="Path_24029" data-name="Path 24029" transform="translate(3975.769 1922.931)" fill="none">
          <path d="M126.709,204.162l-2.208-.117a10.794,10.794,0,0,0-1.261-3.031l1.46-1.669a1.019,1.019,0,0,0-.046-1.391l-2.036-2.035a1.018,1.018,0,0,0-1.4-.037l-1.644,1.478a10.791,10.791,0,0,0-3.035-1.249l-.148-2.214a1.019,1.019,0,0,0-1.016-.95h-2.879a1.018,1.018,0,0,0-1.017.964l-.117,2.208a10.776,10.776,0,0,0-3.03,1.261l-1.67-1.46a1.018,1.018,0,0,0-1.39.046L103.235,198a1.018,1.018,0,0,0-.037,1.4l1.478,1.644a10.768,10.768,0,0,0-1.249,3.034l-2.214.149a1.018,1.018,0,0,0-.95,1.016v2.878a1.019,1.019,0,0,0,.964,1.017l2.208.117a10.779,10.779,0,0,0,1.26,3.031l-1.46,1.669a1.019,1.019,0,0,0,.046,1.391l2.036,2.035a1.019,1.019,0,0,0,1.4.037l1.644-1.478a10.792,10.792,0,0,0,3.035,1.25l.148,2.214a1.019,1.019,0,0,0,1.016.951h2.879a1.018,1.018,0,0,0,1.017-.965l.117-2.208a10.791,10.791,0,0,0,3.03-1.261l1.67,1.46a1.018,1.018,0,0,0,1.39-.046L124.7,215.3a1.019,1.019,0,0,0,.037-1.4l-1.478-1.644a10.78,10.78,0,0,0,1.25-3.035l2.214-.148a1.018,1.018,0,0,0,.95-1.016v-2.878A1.018,1.018,0,0,0,126.709,204.162Z" stroke="none"/>
          <path d="M 113.9552688598633 199.5990447998047 L 112.3182525634766 200.0025482177734 C 111.6435775756836 200.1688690185547 111.0022125244141 200.4355621337891 110.4119567871094 200.7952575683594 L 108.9718704223633 201.6728210449219 L 108.0987396240234 203.1166381835938 C 107.7417602539062 203.7069244384766 107.4776229858398 204.3488159179688 107.3136520385742 205.0244750976562 L 106.9153823852539 206.6655426025391 L 107.3185501098633 208.3010864257812 C 107.4852066040039 208.9772186279297 107.7517623901367 209.6187744140625 108.1107788085938 210.2079467773438 L 108.9882659912109 211.6479187011719 L 110.4313430786133 212.5201568603516 C 111.0225296020508 212.8774871826172 111.665397644043 213.1420745849609 112.3420715332031 213.3065948486328 L 113.9816131591797 213.7051849365234 L 115.6154632568359 213.3017272949219 C 116.2920379638672 213.1346435546875 116.9339828491211 212.8677978515625 117.5234375 212.5085754394531 L 118.9634780883789 211.6310577392578 L 119.8366470336914 210.1872100830078 C 120.1936416625977 209.5968933105469 120.4580459594727 208.9544372558594 120.6225128173828 208.2776794433594 L 121.0210494995117 206.6377105712891 L 120.6177062988281 205.00439453125 C 120.4504928588867 204.3272247314453 120.1836471557617 203.6851196289062 119.8246002197266 203.0959167480469 L 118.9466094970703 201.6551361083984 L 117.5040588378906 200.7832336425781 C 116.9137420654297 200.4264373779297 116.270866394043 200.1620025634766 115.5933074951172 199.9972686767578 L 113.9552688598633 199.5990447998047 M 112.4949798583984 192.9459991455078 L 115.3738784790039 192.9459991455078 C 115.9098510742188 192.9459991455078 116.354377746582 193.3616638183594 116.3900833129883 193.8961791992188 L 116.5382461547852 196.1104888916016 C 117.6224212646484 196.3740692138672 118.6435089111328 196.7980651855469 119.5731506347656 197.3599548339844 L 121.2167663574219 195.8821105957031 C 121.6192321777344 195.519775390625 122.2349243164062 195.536376953125 122.6178283691406 195.9192810058594 L 124.6536407470703 197.9546051025391 C 125.0326309204102 198.3335876464844 125.0526809692383 198.9414520263672 124.7000961303711 199.3453979492188 L 123.2403564453125 201.0144348144531 C 123.8056716918945 201.9421081542969 124.2335662841797 202.9622192382812 124.5010604858398 204.0454254150391 L 126.7090072631836 204.1622924804688 C 127.2498779296875 204.1911468505859 127.6733779907227 204.6376342773438 127.6733779907227 205.1794738769531 L 127.6733779907227 208.0578918457031 C 127.6733779907227 208.5938568115234 127.258186340332 209.0383758544922 126.7231903076172 209.0740661621094 L 124.5093765258789 209.2222595214844 C 124.2457885742188 210.3069152832031 123.8213195800781 211.3280029296875 123.2594223022461 212.2571411132812 L 124.7377471923828 213.9007568359375 C 125.0996322631836 214.3037109375 125.0834884643555 214.9194030761719 124.7005767822266 215.3023071289062 L 122.6647720336914 217.337646484375 C 122.2857894897461 217.7166290283203 121.6779251098633 217.7371826171875 121.2744674682617 217.3840942382812 L 119.6049270629883 215.9243469238281 C 118.67724609375 216.4896545410156 117.6576309204102 216.9175720214844 116.5744400024414 217.18505859375 L 116.4570693969727 219.3930053710938 C 116.4287109375 219.9338684082031 115.9817428588867 220.3578643798828 115.4403915405273 220.3578643798828 L 112.5614929199219 220.3578643798828 C 112.025520324707 220.3578643798828 111.5814819335938 219.9421844482422 111.545295715332 219.4071960449219 L 111.3971328735352 217.1933746337891 C 110.3129577636719 216.9297943115234 109.291862487793 216.5053100585938 108.3622283935547 215.9434204101562 L 106.7186126708984 217.4217529296875 C 106.3161468505859 217.7836303710938 105.7004547119141 217.7675018310547 105.3175506591797 217.3845825195312 L 103.28173828125 215.3492584228516 C 102.9027404785156 214.9702606201172 102.8826904296875 214.3619079589844 103.2352828979492 213.9584655761719 L 104.6950225830078 212.2894287109375 C 104.1297073364258 211.3617401123047 103.7018127441406 210.3416442871094 103.4347991943359 209.2584381103516 L 101.2263565063477 209.1415710449219 C 100.6855010986328 209.1127014160156 100.2620010375977 208.6657409667969 100.2620010375977 208.1243896484375 L 100.2620010375977 205.2459869384766 C 100.2620010375977 204.7095336914062 100.6771774291992 204.2654876708984 101.2121658325195 204.2297973632812 L 103.4264831542969 204.0811157226562 C 103.6895904541016 202.9969482421875 104.1140594482422 201.9758605957031 104.6759490966797 201.0467224121094 L 103.198112487793 199.4026184082031 C 102.8357391357422 199.0001525878906 102.8518829345703 198.3844604492188 103.2347869873047 198.0015563964844 L 105.2705993652344 195.9662170410156 C 105.6496047973633 195.5872039794922 106.2574768066406 195.5667114257812 106.6608963012695 195.9197692871094 L 108.330436706543 197.3795166015625 C 109.2581176757812 196.8141937255859 110.2777404785156 196.3858032226562 111.3609313964844 196.1188049316406 L 111.4783020019531 193.9103698730469 C 111.5066604614258 193.3699951171875 111.9536285400391 192.9459991455078 112.4949798583984 192.9459991455078 Z" stroke="none" fill="#b48ed1"/>
        </g>
        <path id="Path_24030" data-name="Path 24030" d="M97.167,24.006A22.007,22.007,0,1,0,61.388,41.17a11.471,11.471,0,0,1,4.237,8.955,6.156,6.156,0,0,0,6.156,6.156h6.734A6.181,6.181,0,0,0,84.7,50.1a11.748,11.748,0,0,1,4.4-9.063A21.962,21.962,0,0,0,97.167,24.006Z" transform="translate(3999.839 2020.5)" fill="none" stroke="#b48ed1" stroke-width="4"/>
        <line id="Line_80" data-name="Line 80" x2="14.671" transform="translate(4067.665 2081.183)" fill="none" stroke="#b48ed1" stroke-width="4"/>
        <line id="Line_81" data-name="Line 81" x2="14.671" transform="translate(4067.824 2086.073)" fill="none" stroke="#b48ed1" stroke-width="4"/>
        <line id="Line_82" data-name="Line 82" y1="34.721" x2="4.14" transform="translate(4077.576 2042.061)" fill="none" stroke="#b48ed1" stroke-width="4"/>
        <line id="Line_83" data-name="Line 83" x1="4.14" y1="34.721" transform="translate(4068.284 2042.061)" fill="none" stroke="#b48ed1" stroke-width="4"/>
        <path id="Path_24031" data-name="Path 24031" d="M85.9,31.833l3.132-2.822a1.43,1.43,0,0,1,2.379.9,1.43,1.43,0,0,0,2.394.89l3.832-2.985" transform="translate(3983.106 2007.306)" fill="none" stroke="#b48ed1" stroke-width="4"/>
        <line id="Line_84" data-name="Line 84" x2="10.759" transform="translate(4032.21 2043.039)" fill="none" stroke="#b48ed1" stroke-width="4"/>
        <line id="Line_85" data-name="Line 85" x2="9.558" y2="4.94" transform="translate(4036.936 2024.093)" fill="none" stroke="#b48ed1" stroke-width="4"/>
        <line id="Line_86" data-name="Line 86" y1="4.841" x2="9.608" transform="translate(4036.327 2057.417)" fill="none" stroke="#b48ed1" stroke-width="4"/>
        <line id="Line_87" data-name="Line 87" x1="10.759" transform="translate(4107.031 2043.039)" fill="none" stroke="#b48ed1" stroke-width="4"/>
        <line id="Line_88" data-name="Line 88" x1="9.558" y2="4.94" transform="translate(4103.507 2024.093)" fill="none" stroke="#b48ed1" stroke-width="4"/>
        <line id="Line_89" data-name="Line 89" x1="9.608" y1="4.841" transform="translate(4104.066 2057.417)" fill="none" stroke="#b48ed1" stroke-width="4"/>
      </g>
    </g>
  </g>
</svg>
