<svg id="Group_9" data-name="Group 9" xmlns="http://www.w3.org/2000/svg" xmlns:xlink="http://www.w3.org/1999/xlink" width="130.5" height="130.5" viewBox="0 0 130.5 130.5">
  <defs>
    <clipPath id="clip-path">
      <rect id="Rectangle_5" data-name="Rectangle 5" width="130.5" height="130.5" fill="none"/>
    </clipPath>
  </defs>
  <g id="Group_8" data-name="Group 8" transform="translate(0 0)" clip-path="url(#clip-path)">
    <path id="Path_16" data-name="Path 16" d="M7.7,46.654,46.653,7.7a26.3,26.3,0,0,1,37.195,0L122.8,46.654a26.3,26.3,0,0,1,0,37.193L83.848,122.8a26.3,26.3,0,0,1-37.195,0L7.7,83.847a26.3,26.3,0,0,1,0-37.193" transform="translate(0 0.001)" fill="#fff"/>
    <path id="Path_17" data-name="Path 17" d="M35.916,48.371a.351.351,0,0,1-.255.384,4.7,4.7,0,0,1-1.452.257,2.481,2.481,0,0,1-2.475-1.325,5.19,5.19,0,0,1-3.523,1.325,5.45,5.45,0,1,1,0-10.885,5.018,5.018,0,0,1,3.01.945v-.3a.283.283,0,0,1,.248-.313.2.2,0,0,1,.067,0H33.5a.284.284,0,0,1,.315.25.359.359,0,0,1,0,.063v7.172a.8.8,0,0,0,.2.578.711.711,0,0,0,.542.212,4.13,4.13,0,0,0,.787-.086c.226-.043.354.043.384.257Zm-7.683-1.495a2.759,2.759,0,0,0,2.155-.928,3.814,3.814,0,0,0,0-4.759,2.759,2.759,0,0,0-2.155-.928,2.88,2.88,0,0,0-2.2.928,3.7,3.7,0,0,0,0,4.759A2.88,2.88,0,0,0,28.233,46.876Z" transform="translate(19.486 32.936)" fill="#7d848a"/>
    <path id="Path_18" data-name="Path 18" d="M33.527,51.111a3.4,3.4,0,0,1-2.168-.651,2.083,2.083,0,0,1-.822-1.717V36.011a.283.283,0,0,1,.248-.315.4.4,0,0,1,.067,0h1.965a.283.283,0,0,1,.313.248.2.2,0,0,1,0,.067V48.037a.81.81,0,0,0,.2.578.717.717,0,0,0,.544.212,4.288,4.288,0,0,0,.787-.086c.227-.043.354.043.384.257l.171,1.473a.327.327,0,0,1-.255.384,4.729,4.729,0,0,1-1.437.255" transform="translate(26.38 30.838)" fill="#7d848a"/>
    <path id="Path_19" data-name="Path 19" d="M35.32,38.479a1.625,1.625,0,0,1-1.152-.436,1.416,1.416,0,0,1-.114-2c.035-.039.073-.076.114-.114a1.719,1.719,0,0,1,2.295,0,1.4,1.4,0,0,1,.134,1.978,1.318,1.318,0,0,1-.134.136,1.639,1.639,0,0,1-1.143.436m1.685,12.807a3.39,3.39,0,0,1-2.166-.651,2.083,2.083,0,0,1-.822-1.717V41.037a.281.281,0,0,1,.248-.313.192.192,0,0,1,.065,0H36.3a.282.282,0,0,1,.315.246.2.2,0,0,1,0,.067v7.172a.8.8,0,0,0,.2.576.717.717,0,0,0,.544.212,4.284,4.284,0,0,0,.787-.084c.226-.043.354.041.384.255l.171,1.473a.33.33,0,0,1-.257.386,4.712,4.712,0,0,1-1.435.259Z" transform="translate(29.11 30.662)" fill="#7d848a"/>
    <path id="Path_20" data-name="Path 20" d="M41.883,49.01a6.179,6.179,0,0,1-3.51-.9,3.489,3.489,0,0,1-1.573-2.5c-.03-.227.078-.341.313-.341l1.793.022a.341.341,0,0,1,.343.276Q39.719,47,41.874,47a3.034,3.034,0,0,0,1.495-.315.945.945,0,0,0,.576-.831.964.964,0,0,0-.706-.908,6.8,6.8,0,0,0-1.7-.416q-.993-.129-1.985-.343a3.364,3.364,0,0,1-1.7-.908,2.556,2.556,0,0,1-.7-1.909,2.77,2.77,0,0,1,1.238-2.347,5.439,5.439,0,0,1,3.266-.9,5.692,5.692,0,0,1,3.159.831,3.135,3.135,0,0,1,1.493,2.2c.03.227-.076.343-.313.341H44.206c-.186,0-.3-.063-.341-.192a1.693,1.693,0,0,0-.8-.93,2.742,2.742,0,0,0-1.4-.352,2.807,2.807,0,0,0-1.4.3.89.89,0,0,0-.522.787.993.993,0,0,0,.5.874,2.865,2.865,0,0,0,1.24.4c.49.058,1.029.147,1.61.268a13.875,13.875,0,0,1,1.612.427A2.551,2.551,0,0,1,45.947,44a2.717,2.717,0,0,1,.5,1.687A2.846,2.846,0,0,1,45.19,48.1a5.5,5.5,0,0,1-3.307.913" transform="translate(31.789 32.937)" fill="#7d848a"/>
    <path id="Path_21" data-name="Path 21" d="M48.351,49.009a5.7,5.7,0,0,1-4.119-1.493,5.785,5.785,0,0,1,0-7.9,6.393,6.393,0,0,1,7.549-.49A4.228,4.228,0,0,1,53.522,41.8c.043.229-.05.343-.28.343H51.216a.341.341,0,0,1-.341-.28,2.069,2.069,0,0,0-.917-1.1,3.02,3.02,0,0,0-1.6-.416,2.935,2.935,0,0,0-2.231.885,3.667,3.667,0,0,0,0,4.675,2.935,2.935,0,0,0,2.231.885,3.022,3.022,0,0,0,1.6-.418,2.059,2.059,0,0,0,.917-1.1.342.342,0,0,1,.341-.28h2.026c.229,0,.315.116.28.341a4.228,4.228,0,0,1-1.741,2.675,5.714,5.714,0,0,1-3.43,1" transform="translate(36.868 32.937)" fill="#7d848a"/>
    <path id="Path_22" data-name="Path 22" d="M59.021,47.517a6.46,6.46,0,0,1-8.261,0,5.755,5.755,0,0,1,0-7.9,6.451,6.451,0,0,1,8.261,0,5.759,5.759,0,0,1,0,7.9M52.648,45.9a3.3,3.3,0,0,0,4.483,0,3.6,3.6,0,0,0,0-4.652,3.3,3.3,0,0,0-4.483,0,3.6,3.6,0,0,0,0,4.652" transform="translate(42.498 32.937)" fill="#7d848a"/>
    <path id="Path_23" data-name="Path 23" d="M26.711,35.778a.316.316,0,0,1,.315.315v9.219a5.557,5.557,0,0,1-1.573,4.207,6.946,6.946,0,0,1-8.315.257,4.77,4.77,0,0,1-1.761-3.353c-.028-.226.078-.341.315-.341h2.091a.3.3,0,0,1,.315.289v.011a2.479,2.479,0,0,0,1.014,1.644,3.509,3.509,0,0,0,2.125.621,2.8,2.8,0,0,0,2.2-.945,3.584,3.584,0,0,0,.831-2.475v-6.4c0-.854-.911-1.04-1.471-1.074h-.166a.259.259,0,0,1-.259-.259V36.046a.259.259,0,0,1,.259-.259Z" transform="translate(13.28 30.91)" fill="#7d848a"/>
    <path id="Path_24" data-name="Path 24" d="M19.9,46.867a1.462,1.462,0,0,1,1.519,1.061H20.86a.963.963,0,0,0-.967-.552,1.23,1.23,0,0,0,0,2.453.962.962,0,0,0,1.094-.811c0-.024.006-.047.007-.071H19.939v-.472h1.588A1.6,1.6,0,0,1,19.9,50.349a1.738,1.738,0,1,1,0-3.476Z" transform="translate(15.692 40.487)" fill="#7d848a"/>
    <path id="Path_25" data-name="Path 25" d="M22.137,50.333a1.73,1.73,0,1,1,1.73-1.73,1.651,1.651,0,0,1-1.571,1.73,1.125,1.125,0,0,1-.158,0m.009-.531a1.21,1.21,0,1,0-1.156-1.26l0,.054a1.118,1.118,0,0,0,1.023,1.2,1.106,1.106,0,0,0,.136,0Z" transform="translate(17.63 40.496)" fill="#7d848a"/>
    <path id="Path_26" data-name="Path 26" d="M24.879,48.518a.779.779,0,0,1,.548.787.965.965,0,0,1-1.075.977H22.838V46.893h1.374a.943.943,0,0,1,1.059.813.8.8,0,0,1,.007.149.7.7,0,0,1-.4.664M23.4,47.381v.954h.775c.326,0,.546-.138.552-.472s-.224-.49-.552-.49Zm0,1.415v.992h.921a.5.5,0,0,0,.377-.885.7.7,0,0,0-.44-.106Z" transform="translate(19.731 40.506)" fill="#7d848a"/>
    <path id="Path_27" data-name="Path 27" d="M26.319,49.822v.455H24.683v-.455h.535V47.339h-.494v-.451h1.549v.451h-.494v2.483Z" transform="translate(21.325 40.508)" fill="#7d848a"/>
    <path id="Path_28" data-name="Path 28" d="M28.176,47.383H26.681v.895H28.1v.5H26.681v.988h1.525v.513H26.115V46.889h2.062Z" transform="translate(22.562 40.509)" fill="#7d848a"/>
    <path id="Path_29" data-name="Path 29" d="M30.565,50.2v.082h-.57L29.152,49.1h-.746v1.182H27.84V46.891h1.4a1.092,1.092,0,0,1,1.174,1c0,.034,0,.065,0,.1a1.062,1.062,0,0,1-.714,1.016Zm-1.331-1.564a.629.629,0,1,0,0-1.258H28.4v1.258Z" transform="translate(24.052 40.508)" fill="#7d848a"/>
    <path id="Path_30" data-name="Path 30" d="M30.356,47.977l.037,1.076V50.28h-.555v-3.4h.2l2.056,2.28-.039-1.036V46.894h.561v3.392h-.192Z" transform="translate(25.778 40.505)" fill="#7d848a"/>
    <path id="Path_31" data-name="Path 31" d="M33.628,50.333a1.73,1.73,0,1,1,1.73-1.73,1.653,1.653,0,0,1-1.575,1.73,1.073,1.073,0,0,1-.155,0m.009-.531a1.21,1.21,0,1,0-1.156-1.262V48.6A1.116,1.116,0,0,0,33.5,49.8a1.047,1.047,0,0,0,.132,0Z" transform="translate(27.558 40.496)" fill="#7d848a"/>
    <path id="Path_32" data-name="Path 32" d="M36.433,46.891a1.692,1.692,0,0,1,0,3.383H35.21V46.891Zm-.009,2.87a1.185,1.185,0,0,0,0-2.36h-.658v2.36Z" transform="translate(30.419 40.511)" fill="#7d848a"/>
    <path id="Path_33" data-name="Path 33" d="M39.392,47.383H37.9v.895h1.417v.5H37.9v.988h1.527v.513H37.331V46.889h2.062Z" transform="translate(32.251 40.509)" fill="#7d848a"/>
    <path id="Path_34" data-name="Path 34" d="M39.622,49.769h1.456v.509H39.055V46.889h.567Z" transform="translate(33.741 40.509)" fill="#7d848a"/>
    <path id="Path_35" data-name="Path 35" d="M43.5,47.383H42v.895h1.417v.5H42v.988h1.527v.513H41.436V46.889H43.5Z" transform="translate(35.798 40.509)" fill="#7d848a"/>
    <path id="Path_36" data-name="Path 36" d="M43.588,49.334c.024.382.44.5.809.5s.787-.086.787-.509c0-.444-.46-.488-.854-.528-.619-.054-1.234-.252-1.234-.93s.615-1.007,1.273-1.007,1.258.291,1.267.984h-.518c-.024-.363-.421-.473-.755-.473-.315,0-.712.106-.712.49s.384.429.775.485c.688.076,1.316.213,1.316.992,0,.746-.7,1.007-1.335,1.007-.664.015-1.357-.295-1.37-1.007Z" transform="translate(37.182 40.488)" fill="#7d848a"/>
    <path id="Path_37" data-name="Path 37" d="M44.864,47.388v-.5h2.516v.5H46.4V50.27h-.554V47.38Z" transform="translate(38.76 40.509)" fill="#7d848a"/>
    <path id="Path_38" data-name="Path 38" d="M47.273,49.586l-.328.7h-.591v-.073l1.573-3.34h.261l1.56,3.34v.073h-.587l-.334-.7Zm.185-.472h1.185l-.589-1.355Z" transform="translate(40.047 40.498)" fill="#7d848a"/>
    <path id="Path_39" data-name="Path 39" d="M49.861,46.891a1.692,1.692,0,0,1,0,3.383H48.638V46.891Zm-.009,2.87a1.185,1.185,0,0,0,0-2.36h-.66v2.36Z" transform="translate(42.02 40.511)" fill="#7d848a"/>
    <path id="Path_40" data-name="Path 40" d="M52.375,50.333A1.73,1.73,0,1,1,54.1,48.6a1.653,1.653,0,0,1-1.575,1.73,1.073,1.073,0,0,1-.155,0m.009-.531a1.21,1.21,0,1,0-1.156-1.26l0,.054a1.118,1.118,0,0,0,1.023,1.2,1.076,1.076,0,0,0,.134,0Z" transform="translate(43.754 40.496)" fill="#7d848a"/>
    <path id="Path_41" data-name="Path 41" d="M35.151,13.8v1.87a1.848,1.848,0,0,1,.757,0V13.8a1.221,1.221,0,0,0-.757,0" transform="translate(30.368 11.87)" fill="#7d848a"/>
    <path id="Path_42" data-name="Path 42" d="M30.954,16.613a.332.332,0,0,0,.19.268,5.848,5.848,0,0,0,2.472.565,5.681,5.681,0,0,0,3.226-1.033,4.446,4.446,0,0,1,4.593-.19,1.7,1.7,0,0,1-1.212.459h-.287v.665h.287a2.3,2.3,0,0,0,1.994-1.036.358.358,0,0,0,.043-.157V12.183a.345.345,0,0,0-.145-.276,5.125,5.125,0,0,0-5.653,0,4.959,4.959,0,0,1-5.042.416.332.332,0,0,0-.358.554l2.158,1.866-2.138,1.573a.325.325,0,0,0-.129.3m3-1.582a.332.332,0,0,0,.071-.466.279.279,0,0,0-.05-.054l-1.269-1.1a5.6,5.6,0,0,0,4.136-.958,4.446,4.446,0,0,1,4.757-.1v3.2a5.13,5.13,0,0,0-5.131.315,4.938,4.938,0,0,1-4.507.628Z" transform="translate(26.733 9.553)" fill="#7d848a"/>
    <path id="Path_43" data-name="Path 43" d="M35.483,13.912h.757v-.719h.719v-.757H36.24v-.718h-.757v.718h-.719v.757h.719Z" transform="translate(30.034 10.124)" fill="#7d848a"/>
    <path id="Path_44" data-name="Path 44" d="M60.951,38.477c.239-.283.492-.569.734-.848a16.465,16.465,0,0,0,2.7-3.747,6.625,6.625,0,0,0,.643-3.7,5.8,5.8,0,0,0-3.459-4.563,2.681,2.681,0,0,0,.375-1.713v-.015a.363.363,0,0,0-.4-.315.369.369,0,0,0-.212.1,1.414,1.414,0,0,1-1.476.33l-.052-.021a6.932,6.932,0,0,0-2.468-.453,7.046,7.046,0,0,0-1.01.075v-.05a2.323,2.323,0,0,0-.121-.74.364.364,0,0,0-.459-.231.7.7,0,0,0-.065.03.96.96,0,0,1-.473.129,1.116,1.116,0,0,1-.112,0,5.281,5.281,0,0,0-.537-.03,5.829,5.829,0,0,0-.764.054,5.527,5.527,0,0,0-3.228,1.678c-.106.114-.212.229-.315.352a4.2,4.2,0,0,0-.265.378c-.173.263-.326.541-.5.8l-.058.082-.03.043s-.028.03-.028.039l-.013.019-.157.207c-.052.069-.119.145-.185.216-.093.108-.2.209-.3.315l-.119.112c-.073.067-.145.13-.22.194l-.065.054L47.2,26.5l-.175-1.059c.075-.116.144-.235.207-.349l.039-.067c.034-.063.062-.13.091-.2l.022-.056c.024-.056.048-.11.073-.168.007-.022.019-.043.028-.067s.017-.05.026-.078l.315-.065.25-1.8-.337-.08a1.074,1.074,0,0,0-.021-.173c-.009-.056-.026-.157-.043-.226a2.8,2.8,0,0,0-.231-.617.084.084,0,0,0-.015-.041,2.3,2.3,0,0,0-1.3-1.135l-.045-.017.021-.05.05-.117a2.283,2.283,0,0,1,1.042-1.1c.076.194.116.332.116.334a.315.315,0,0,0,.345.218.57.57,0,0,0,.261-.1,1.115,1.115,0,0,0,.315-.345,2.453,2.453,0,0,0,.171-2.268,1.613,1.613,0,0,0-1.385-1.014,1.514,1.514,0,0,0-.61.106,1.762,1.762,0,0,0-3.18,0,1.514,1.514,0,0,0-.61-.106,1.611,1.611,0,0,0-1.387,1.014,2.447,2.447,0,0,0,.171,2.268,1.115,1.115,0,0,0,.315.345.57.57,0,0,0,.261.1.315.315,0,0,0,.345-.218s.039-.14.116-.334a2.3,2.3,0,0,1,1.044,1.1c.017.039.032.078.048.117l.021.05-.047.017a2.306,2.306,0,0,0-1.3,1.135.13.13,0,0,1-.013.041,2.8,2.8,0,0,0-.231.617c-.019.075-.03.158-.043.226s-.013.116-.022.173l-.336.08.248,1.8.315.065c.009.028.015.052.026.078a.645.645,0,0,1,.028.067c.024.058.047.112.073.168l.022.056c.03.065.058.132.091.2l.041.067c.063.117.134.237.209.356L42.438,26.5l-1.111.766a6.447,6.447,0,0,1-.608-.565c-.034-.035-.065-.071-.1-.106-.125-.14-.239-.281-.347-.427l-.015-.022c0-.009-.022-.032-.028-.039l-.03-.043-.056-.084c-.175-.261-.328-.537-.5-.8-.086-.129-.17-.259-.267-.378a4.261,4.261,0,0,0-.315-.352,5.466,5.466,0,0,0-1.788-1.266,5.465,5.465,0,0,0-2.2-.464q-.238,0-.537.028-.056,0-.112,0a.951.951,0,0,1-.472-.127.362.362,0,0,0-.494.134.273.273,0,0,0-.03.067,2.271,2.271,0,0,0-.119.74v.071a6.957,6.957,0,0,0-3.618.358l-.052.021a1.418,1.418,0,0,1-1.478-.33.36.36,0,0,0-.615.212v.013a2.661,2.661,0,0,0,.375,1.715,5.8,5.8,0,0,0-3.459,4.561,6.629,6.629,0,0,0,.643,3.7,16.506,16.506,0,0,0,2.7,3.747c.244.278.5.565.733.848l.252.293a4.23,4.23,0,0,1,1.32,2.309A1.231,1.231,0,0,1,29,42.421a1.543,1.543,0,0,1-.227,0,1.564,1.564,0,0,1-.514-.089.613.613,0,0,0-.2-.039.825.825,0,0,0-.887.554.689.689,0,0,0-.2.026.728.728,0,0,0-.529.774v.039a4.217,4.217,0,0,0,4.1,3.724H30.6a4.312,4.312,0,0,0,2.587-.908l.022.022a.729.729,0,0,0,.943.082,4.576,4.576,0,0,0,1.372-1.541c.026-.05.052-.1.076-.157.024.043.048.084.075.127q.073.126.157.246a10.916,10.916,0,0,0,17.858,0l.158-.246.073-.127c.024.05.05.1.076.157a4.57,4.57,0,0,0,1.37,1.541.726.726,0,0,0,.938-.082l.024-.022a4.307,4.307,0,0,0,2.585.908h.056a4.217,4.217,0,0,0,4.1-3.724v-.039a.724.724,0,0,0-.527-.774.688.688,0,0,0-.2-.026.825.825,0,0,0-.887-.554.623.623,0,0,0-.2.039,1.545,1.545,0,0,1-.513.089A1.231,1.231,0,0,1,59.41,41.31a1.158,1.158,0,0,1,0-.227,4.23,4.23,0,0,1,1.32-2.309,1.577,1.577,0,0,1,.222-.3m-3.616-14.22a6.225,6.225,0,0,1,2.211.406l.056.022a2.139,2.139,0,0,0,1.6-.054,1.955,1.955,0,0,1-.324.727,10.457,10.457,0,0,0-1.426-.177,5.2,5.2,0,0,0-4.427,2.475.8.8,0,0,0-.787-.554H52.11a6.213,6.213,0,0,1,5.215-2.852Zm.753,8.926a1.447,1.447,0,0,0,.062.171A2.159,2.159,0,0,0,60.224,34.7h.089c-1.573,1.6-3.774,2.46-5.267,4.13V33.077c.063-.062.114-.108.157-.157.427-.44.813-.932,1.258-1.364a4.187,4.187,0,0,1,2.349-1.335,1.793,1.793,0,0,1,1.1.129,1.036,1.036,0,0,1,.429.457.926.926,0,0,1-.3,1.21,1.056,1.056,0,0,1-.5.183.789.789,0,0,1-.349-.035.9.9,0,0,0-.414-.056.8.8,0,0,0-.554.3.837.837,0,0,0-.145.768ZM47.372,23.129l-.069.637H47.29l-.35.073-.336.069v-.966l.429.1ZM44.8,25.016h.011l1.842-.393a4.149,4.149,0,0,1-.244.423c-.063.093-.13.185-.2.272a1.647,1.647,0,0,1-2.8,0c-.073-.088-.14-.179-.2-.272a3.842,3.842,0,0,1-.246-.423Zm-1.085-.964V22.773l.736-.175v1.6Zm1.443.157v-1.6l.736.173v1.279Zm-2.4-5.834a1.526,1.526,0,0,1,.531-.514,2.337,2.337,0,0,0-1.389.684,1.764,1.764,0,0,1,0-1.4.869.869,0,0,1,.749-.569,1.444,1.444,0,0,1,.734.185,2.206,2.206,0,0,1,1.1,1.441,2.288,2.288,0,0,0-.472-1.637,2.07,2.07,0,0,0-.186-.216,1.031,1.031,0,0,1,1.948,0,1.868,1.868,0,0,0-.186.216,2.3,2.3,0,0,0-.473,1.637,2.206,2.206,0,0,1,1.1-1.441,1.444,1.444,0,0,1,.734-.185.874.874,0,0,1,.751.569,1.78,1.78,0,0,1,0,1.4,2.347,2.347,0,0,0-1.389-.684,1.526,1.526,0,0,1,.531.514,3.006,3.006,0,0,0-1.37,1.452l-.056.136c-.013.032-.026.063-.041.093-.2-.084-.384-.2-.58-.3-.2.1-.378.214-.582.3l-.039-.093c-.015-.032-.037-.091-.058-.136a3.009,3.009,0,0,0-1.37-1.454Zm1.064,2.61c.157-.058.337-.1.5-.168a.586.586,0,0,1,.815-.145.606.606,0,0,1,.147.145c.157.065.339.112.5.168a1.845,1.845,0,0,1,1.144,1.31c-1.937-.472-2.073-.509-2.121-.511H44.8c-.047,0-.183.035-2.121.511a1.848,1.848,0,0,1,1.139-1.31Zm-1.5,2.787h-.013l-.069-.639.339-.08.431-.1v.966l-.337-.069Zm.807,3.077.108-.63.048.041a2.107,2.107,0,0,0,3.034,0l.05-.056.112.63,1.206.833c-.06.039-.119.073-.179.11a6.16,6.16,0,0,1-1.646.654,4.562,4.562,0,0,1-1.066.157,4.792,4.792,0,0,1-.923-.119,6.048,6.048,0,0,1-1.7-.63c-.088-.05-.173-.1-.259-.157ZM28.656,24.757a2.158,2.158,0,0,0,1.21-.075l.058-.022a6.214,6.214,0,0,1,7.433,2.44H35.229a.785.785,0,0,0-.787.554,5.206,5.206,0,0,0-4.427-2.477,10.176,10.176,0,0,0-1.426.179,1.982,1.982,0,0,1-.324-.727,2.163,2.163,0,0,0,.39.127Zm6.662,18.418a1.427,1.427,0,0,1-.017.175v.039c-.007.062-.017.123-.028.183v.017a3.787,3.787,0,0,1-.25.8l-.013.034c-.021.045-.043.091-.065.138s-.034.065-.05.1A3.825,3.825,0,0,1,33.715,46a3.851,3.851,0,0,0,.574-3.318v-.009a5.334,5.334,0,0,1-.7,2.244v.009a3.494,3.494,0,0,1-3.007,1.747h-.045a3.514,3.514,0,0,1-3.379-3.081v-.026l.017.024a2.554,2.554,0,0,0,4.69-1.236,2.557,2.557,0,0,1-1.122,1.286l-.03.021a2.64,2.64,0,0,1-.449.19,1.92,1.92,0,0,1-2.516-.926,1.239,1.239,0,0,1,.157.062,2.5,2.5,0,0,0,.345.116,1.965,1.965,0,0,0,.391.041A2.846,2.846,0,0,0,29,43.128l.179-.019a.951.951,0,0,0,.127-.024,2.055,2.055,0,0,0,.518-.188,1.823,1.823,0,0,0,.742-.723,2.02,2.02,0,0,0,.2-.509,2.412,2.412,0,0,0,.069-.589c0-1.178-1.033-2.229-1.743-3.07a21.3,21.3,0,0,1-3.327-4.434,5.964,5.964,0,0,1-.582-3.294A4.96,4.96,0,0,1,30.043,25.9a4.346,4.346,0,0,1,4.4,3.965v2.045a10.379,10.379,0,0,0-1.683-1.64,3.441,3.441,0,0,0-3.515-.565,1.889,1.889,0,0,0-.706,2.574c.024.043.05.086.078.127a1.727,1.727,0,0,0,1.924.613,1.356,1.356,0,0,1-1.732.828,1.21,1.21,0,0,1-.212-.1,1.558,1.558,0,0,1-.315-.158,2.6,2.6,0,0,1-.509-.451,2.835,2.835,0,0,1-.218-.276,3.03,3.03,0,0,1-.24-.431,2.649,2.649,0,0,1,.056-2.332,3.508,3.508,0,0,1,2.1-1.73,4.051,4.051,0,0,1,2.928.352c.127.073.244.157.365.237a2.019,2.019,0,0,1,.291.244,3.239,3.239,0,0,0-2.76-1.573,3.832,3.832,0,0,0-3.118,1.445,3.888,3.888,0,0,0-.749,3.1,7.321,7.321,0,0,0,1.918,3.09,31.35,31.35,0,0,1,3.726,5.049,4.627,4.627,0,0,1,.563,2.306,3.047,3.047,0,0,1-2.9,3.044h-.009a3,3,0,0,0,.533.045A3.1,3.1,0,0,0,33,44.075c1.374-2.557-.794-5.148-2.308-7.025-.093-.117-.576-.671-.787-.917L31.663,37.4c.356.259.708.522,1.061.805a9.491,9.491,0,0,1,1.415,1.389,5.317,5.317,0,0,1,1.176,3.579ZM29.158,34.7h.088a2.159,2.159,0,0,0,2.075-1.349,1.338,1.338,0,0,0,.062-.171.84.84,0,0,0-.138-.77.813.813,0,0,0-.554-.3.892.892,0,0,0-.414.058.835.835,0,0,1-.352.035,1.042,1.042,0,0,1-.5-.183.928.928,0,0,1-.3-1.21,1.03,1.03,0,0,1,.431-.457,1.8,1.8,0,0,1,1.1-.13,4.18,4.18,0,0,1,2.347,1.336c.44.432.826.926,1.258,1.363.041.043.091.091.157.158v5.756c-1.5-1.67-3.7-2.528-5.267-4.13Zm24.265,8.494v.037a4.782,4.782,0,0,0,.1.649,8.028,8.028,0,0,1-.421.8c-.047.076-.093.158-.142.227a10.063,10.063,0,0,1-16.459,0c-.048-.075-.1-.157-.14-.227a7.5,7.5,0,0,1-.421-.805,5.044,5.044,0,0,0,.1-.649v-.035a5.706,5.706,0,0,0-.813-3.264V27.815h3.4l-.431-.727.022.039a6.933,6.933,0,0,0-4.2-3.35,1.433,1.433,0,0,1-.021-.237v-.132a1.749,1.749,0,0,0,.574.035c.181-.017.332-.024.473-.024h.116a4.766,4.766,0,0,1,.764.08,4.655,4.655,0,0,1,.727.2,4.762,4.762,0,0,1,2.326,1.8c.177.255.33.524.5.787a7.049,7.049,0,0,0,.563.725c.144.157.293.313.447.453.075.073.157.142.231.209l.022.021c.076.063.158.125.231.185l.032.024c.076.06.157.116.233.171l.032.022a2.557,2.557,0,0,0,.242.157l.017.009a6.849,6.849,0,0,0,1.072.552l.056.022.2.076a5.755,5.755,0,0,0,3.336.157c.175-.047.347-.1.516-.157l.205-.076.054-.022a6.85,6.85,0,0,0,1.072-.552l.017-.009c.082-.052.158-.106.244-.157l.034-.022c.078-.056.157-.112.233-.171l.03-.024.073-.06.058-.048.1-.078.024-.021c.065-.056.13-.116.194-.175l.058-.028c.157-.145.3-.295.445-.455.1-.106.186-.216.274-.328l.056-.073q.109-.145.212-.3l.022-.028.021-.032c.048-.071.093-.145.14-.22.112-.179.222-.356.343-.531a4.813,4.813,0,0,1,1.031-1.09,4.761,4.761,0,0,1,1.3-.708,4.605,4.605,0,0,1,.727-.2,4.988,4.988,0,0,1,.764-.08h.116a3.153,3.153,0,0,1,.472.026,1.735,1.735,0,0,0,.572-.037v.132a1.416,1.416,0,0,1-.013.2,6.937,6.937,0,0,0-4.341,3.387l.022-.039-.429.727h3.4V39.933a5.686,5.686,0,0,0-.815,3.264Zm5.238-2.121a2.516,2.516,0,0,0,.067.589,2.172,2.172,0,0,0,.2.509,1.824,1.824,0,0,0,.744.721,2.121,2.121,0,0,0,.516.19,1.04,1.04,0,0,0,.129.024l.179.019a3.229,3.229,0,0,0,.356.017,2.13,2.13,0,0,0,.391-.041,2.279,2.279,0,0,0,.345-.117,1.138,1.138,0,0,1,.157-.062,1.917,1.917,0,0,1-2.516.926,2.46,2.46,0,0,1-.451-.19l-.03-.019a2.548,2.548,0,0,1-1.122-1.286,2.554,2.554,0,0,0,4.688,1.234l.019-.022v.026a3.511,3.511,0,0,1-3.379,3.079h-.045A3.492,3.492,0,0,1,55.9,44.921v-.009a5.342,5.342,0,0,1-.7-2.244v.009a3.859,3.859,0,0,0,.576,3.318,3.849,3.849,0,0,1-1.18-1.346c-.017-.03-.034-.062-.048-.093s-.043-.091-.063-.138l-.017-.034a3.811,3.811,0,0,1-.246-.8v-.017c-.011-.062-.021-.123-.03-.185V43.34a1.372,1.372,0,0,0-.021-.173,5.329,5.329,0,0,1,1.219-3.6,9.491,9.491,0,0,1,1.415-1.389c.35-.283.706-.546,1.061-.805L59.622,36.1c-.209.244-.692.8-.787.917-1.514,1.875-3.681,4.468-2.309,7.023a3.1,3.1,0,0,0,2.744,1.646,3.187,3.187,0,0,0,.535-.045H59.8A3.046,3.046,0,0,1,56.9,42.6a4.627,4.627,0,0,1,.563-2.306,31.349,31.349,0,0,1,3.726-5.049,7.285,7.285,0,0,0,1.918-3.09,3.888,3.888,0,0,0-.749-3.1,3.831,3.831,0,0,0-3.117-1.445,3.237,3.237,0,0,0-2.76,1.573,1.905,1.905,0,0,1,.291-.244,3.92,3.92,0,0,1,.363-.237,4.039,4.039,0,0,1,2.928-.352,3.5,3.5,0,0,1,2.1,1.73,2.852,2.852,0,0,1,.244,1.76,2.9,2.9,0,0,1-.188.572,2.857,2.857,0,0,1-.24.431,2.559,2.559,0,0,1-.216.276,2.735,2.735,0,0,1-.511.451,1.559,1.559,0,0,1-.315.158,1.356,1.356,0,0,1-1.845-.518,1.3,1.3,0,0,1-.1-.214,1.728,1.728,0,0,0,1.924-.615,1.877,1.877,0,0,0-.488-2.61c-.045-.032-.093-.062-.142-.089a3.445,3.445,0,0,0-3.515.563,10.457,10.457,0,0,0-1.681,1.642V29.871a4.34,4.34,0,0,1,4.4-3.966,4.957,4.957,0,0,1,4.861,4.373,5.968,5.968,0,0,1-.619,3.292A21.34,21.34,0,0,1,60.4,38.006c-.708.839-1.741,1.888-1.741,3.068Z" transform="translate(21.098 12.929)" fill="#7d848a"/>
    <path id="Path_45" data-name="Path 45" d="M36.247,29.943v-.119a.335.335,0,0,0-.336-.336v1.023l1.228-.4a1.2,1.2,0,0,0,.349.673,1.153,1.153,0,0,1,.315.49l-.9.39a1.382,1.382,0,0,0,0,.859,1.364,1.364,0,0,1-.63-.272v-.313a.335.335,0,0,0-.336-.336v1.027a1.907,1.907,0,0,0,1.033.354.314.314,0,0,1,.315.313.09.09,0,0,0,.1-.084v-.006a.838.838,0,0,0-.037-.263.986.986,0,0,1,.06-.677,1.212,1.212,0,0,1,.157-.041,1.342,1.342,0,0,1,.595.024,1.148,1.148,0,0,0,.224.039H38.5a1.356,1.356,0,0,0,.4-.062s.048-.019.06.021-.032.071-.032.071a.7.7,0,0,1-.378.158,1.553,1.553,0,0,1-.186,0c.136.315.235.572.252.61a1.415,1.415,0,0,0,.861,0,1.384,1.384,0,0,1-.272.63H38.89a.337.337,0,0,0-.337.336h1.029a1.883,1.883,0,0,0,.354-1.034.315.315,0,0,1,.315-.315.093.093,0,0,0-.086-.1h0a.889.889,0,0,0-.263.039,1.019,1.019,0,0,1-.259.034.959.959,0,0,1-.419-.1,1.345,1.345,0,0,1-.015-.753.173.173,0,0,0,.009-.054,1.069,1.069,0,0,0,1.217-1.51l-.093-.2a1.793,1.793,0,0,1,.084-1.812l.032-.011a1.026,1.026,0,0,0,.177-.1.659.659,0,0,0,.224-.423v-.088a.715.715,0,0,0-.013-.108l-.076.048c-.039.026-.078.056-.116.086s-.075.062-.108.091a1.283,1.283,0,0,0-.1.1c-.034.035-.065.071-.1.108L40.322,28l-.009.013-.021.028-.028.039v.011a2.022,2.022,0,0,0-.127,2.088l.091.192a.839.839,0,0,1-.384,1.122.83.83,0,0,1-.367.086h-.03a.769.769,0,0,1-.572-.293c-.026-.032-.05-.065-.071-.093a1.379,1.379,0,0,1-.253-.8l.017.019a.9.9,0,0,0,.326.22.026.026,0,0,0,.032-.015l0-.017a.987.987,0,0,1-.034-.52,1.246,1.246,0,0,1,.093-.3.288.288,0,0,0,.058.171.021.021,0,0,0,.03.007l.011-.017a1.5,1.5,0,0,1,.157-.472.662.662,0,0,0,.047-.089c.028-.048.056-.1.084-.142a1.47,1.47,0,0,0,.088-.158v-.009l.009-.019v-.017l.011-.019v-.557a1.385,1.385,0,0,0-.522-1.083l.076.019a.023.023,0,0,0,.028-.015.023.023,0,0,0-.009-.024,1.375,1.375,0,0,0-1.007-.293l-.076.011a.064.064,0,0,0-.052.047l-.047.144H37.83a.4.4,0,0,0-.267.183l-.382.158a.077.077,0,0,0-.052.08.086.086,0,0,0,.021.05c0,.06.047.295.144.306l.119-.035h.017c.108-.028.25-.05.289.015,0,0,.084.183-.024.224a1.117,1.117,0,0,1-.158.021h-.151s-.06.179.054.233a.893.893,0,0,1,.272-.043h.175a1.286,1.286,0,0,0,.412-.117.573.573,0,0,1-.3.2s-.1.032-.17.05a.633.633,0,0,0-.084.028,1.293,1.293,0,0,0-.472.347L36.1,28.414l.019-.015v-.214a.337.337,0,0,0-.209-.315.272.272,0,0,0-.127-.032v.8l.984.708.39-.1a.06.06,0,0,1,.078.03.059.059,0,0,1-.024.075Z" transform="translate(30.914 23.377)" fill="#7d848a"/>
    <path id="Path_46" data-name="Path 46" d="M34.372,33.1a1.387,1.387,0,0,1-.861,0,1.4,1.4,0,0,0,.272.63H34.1a.335.335,0,0,1,.336.334H33.406a1.877,1.877,0,0,1-.354-1.033.316.316,0,0,0-.315-.315.092.092,0,0,1,.086-.1h0a.939.939,0,0,1,.261.037,1,1,0,0,0,.68-.06,1.332,1.332,0,0,0,.062-.4,1.315,1.315,0,0,0-.047-.352.279.279,0,0,1-.011-.054,1.069,1.069,0,0,1-1.3-.775,1.123,1.123,0,0,1-.032-.261,1.086,1.086,0,0,1,.108-.472l.093-.2a1.785,1.785,0,0,0-.082-1.81l-.032-.013a.915.915,0,0,1-.177-.1.631.631,0,0,1-.222-.421v-.089a.686.686,0,0,1,.013-.108l.075.048a1.339,1.339,0,0,1,.117.084c.037.03.075.062.108.093s.069.065.1.1a1.247,1.247,0,0,1,.093.108l.022.03.011.015.021.026.028.039v.011a2.018,2.018,0,0,1,.129,2.088l-.091.192a.829.829,0,0,0-.088.371.839.839,0,0,0,.837.837h.03a.769.769,0,0,0,.572-.293l.073-.1a1.391,1.391,0,0,0,.252-.8l-.015.021a.909.909,0,0,1-.328.22.024.024,0,0,1-.03-.015V30.6a.993.993,0,0,0,.035-.522,1.182,1.182,0,0,0-.1-.295.286.286,0,0,1-.056.171.02.02,0,0,1-.028.011l-.013-.011a1.544,1.544,0,0,0-.157-.472c-.035-.062-.047-.086-.05-.089-.026-.05-.052-.1-.08-.144a1.2,1.2,0,0,1-.089-.158v-.009l-.009-.019v-.017l-.009-.019V29.01l-.009-.019v-.514a1.386,1.386,0,0,1,.522-1.085l-.075.019a.022.022,0,0,1-.028-.013.021.021,0,0,1,.009-.026,1.377,1.377,0,0,1,1.007-.291l.073.011a.064.064,0,0,1,.054.045l.047.145h.039a.388.388,0,0,1,.267.183l.382.157a.082.082,0,0,1,.054.08.081.081,0,0,1-.024.05c0,.06-.045.294-.142.308l-.119-.035h-.015c-.11-.03-.252-.05-.291.015,0,0-.082.183.028.224a1.5,1.5,0,0,0,.157.021H35.6s.06.179-.052.233a.848.848,0,0,0-.272-.043H35.1a1.332,1.332,0,0,1-.414-.117.57.57,0,0,0,.3.2s.1.032.17.052a.341.341,0,0,1,.084.028,1.273,1.273,0,0,1,.472.345l1.176-.554-.019-.013V28.2a.334.334,0,0,1,.209-.315.243.243,0,0,1,.125-.03v.8l-.977.7-.419-.112a.06.06,0,0,0-.078.03.059.059,0,0,0,.022.076l1.118.565v-.119a.337.337,0,0,1,.334-.337v1.027l-1.226-.4a1.206,1.206,0,0,1-.347.671,1.13,1.13,0,0,0-.315.49l.9.39a1.382,1.382,0,0,1,0,.859,1.374,1.374,0,0,0,.628-.27v-.313a.336.336,0,0,1,.336-.337V32.6a1.907,1.907,0,0,1-1.033.354.313.313,0,0,0-.313.315.1.1,0,0,1-.1-.086v-.006a.963.963,0,0,1,.037-.263.921.921,0,0,0,.035-.257.959.959,0,0,0-.1-.419,1.486,1.486,0,0,0-.157-.041,1.243,1.243,0,0,0-.39-.011l.078-.5a.058.058,0,0,0-.045-.067.055.055,0,0,0-.063.037Z" transform="translate(27.761 23.389)" fill="#7d848a"/>
    <path id="Path_47" data-name="Path 47" d="M40.859,24.872a2.621,2.621,0,0,0-2.227-1.4,2.537,2.537,0,0,0-2.4,0A2.621,2.621,0,0,0,34,24.872a2.046,2.046,0,0,0-.388,3.351A2.543,2.543,0,0,0,35.571,29.8a1.686,1.686,0,0,1,1.415,1.622v4.431A1.294,1.294,0,0,1,35.8,37.085h-.261a.351.351,0,0,0-.352.352h4.494a.352.352,0,0,0-.352-.352h-.263a1.268,1.268,0,0,1-1.187-1.236V31.418a1.675,1.675,0,0,1,1.3-1.6l.063-.013a2.535,2.535,0,0,0,2-1.573,2.047,2.047,0,0,0,.2-2.885,2.081,2.081,0,0,0-.589-.468ZM40.794,27.7l-.127.112-.063.157a1.819,1.819,0,0,1-1.195,1.087,3.538,3.538,0,0,0-.561.171h-.013a.983.983,0,0,1-.1.1l-.013.011c-.032.03-.062.054-.093.08s-.076.056-.117.082a1.925,1.925,0,0,1-2.168,0c-.039-.026-.076-.052-.114-.082s-.063-.05-.1-.08l-.013-.011a.931.931,0,0,1-.1-.1l-.015-.009a3.5,3.5,0,0,0-.563-.171,1.827,1.827,0,0,1-1.191-1.087L34.2,27.81l-.127-.112a1.347,1.347,0,0,1-.14-1.9,1.4,1.4,0,0,1,.4-.315l.19-.1.1-.19a1.941,1.941,0,0,1,1.64-1.029h.158l.142-.076a1.843,1.843,0,0,1,1.745,0l.142.076H38.6a1.938,1.938,0,0,1,1.64,1.029l.1.19.19.1a1.351,1.351,0,0,1,.257,2.216Z" transform="translate(28.435 20.021)" fill="#7d848a"/>
    <path id="Path_48" data-name="Path 48" d="M43.357,22.681a7.234,7.234,0,0,1-1.517.639h4.494v9.752a7.469,7.469,0,0,1-.194,1.676,7.348,7.348,0,0,1-.677,1.784c-.035.065-.071.13-.108.194a7.313,7.313,0,0,1-12.664,0c-.037-.065-.073-.129-.108-.194a7.2,7.2,0,0,1-.677-1.784,7.362,7.362,0,0,1-.194-1.676V23.311h4.574a7.313,7.313,0,0,1-1.556-.639H31.074v10.38a7.93,7.93,0,0,0,.947,3.765c.039.071.078.142.117.211a7.949,7.949,0,0,0,13.767,0c.041-.069.078-.14.117-.211a7.924,7.924,0,0,0,.945-3.765V22.681Z" transform="translate(26.846 19.587)" fill="#7d848a"/>
    <path id="Path_49" data-name="Path 49" d="M40.692,22.834l-.157-.157-.308.306-.315-.306-.157.157.315.308-.306.3.157.158.306-.308.308.308.157-.158-.308-.306Z" transform="translate(34.347 19.592)" fill="#7d848a"/>
    <path id="Path_50" data-name="Path 50" d="M31.331,22.834l-.157-.157-.308.306-.315-.306-.157.157.315.308-.308.3.158.158.3-.308.308.308.157-.158-.306-.306Z" transform="translate(26.26 19.592)" fill="#7d848a"/>
    <path id="Path_51" data-name="Path 51" d="M40.692,26.839l-.157-.157-.308.306-.315-.306-.157.157.315.308-.306.306.157.157.306-.306.308.306.157-.157-.308-.306Z" transform="translate(34.347 23.052)" fill="#7d848a"/>
    <path id="Path_52" data-name="Path 52" d="M31.331,26.839l-.157-.157-.308.306-.315-.306-.157.157.315.308-.308.306.158.157.3-.306.308.306.157-.157-.306-.306Z" transform="translate(26.26 23.052)" fill="#7d848a"/>
    <path id="Path_53" data-name="Path 53" d="M32.265,31l-.157-.157-.308.306-.315-.306L31.33,31l.315.308-.306.306.157.157.306-.306.308.306.157-.157-.308-.306Z" transform="translate(27.067 26.65)" fill="#7d848a"/>
    <path id="Path_54" data-name="Path 54" d="M39.777,31l-.157-.157-.315.306-.315-.306L38.834,31l.313.308-.3.306.157.157.308-.306.306.306.158-.157-.308-.306Z" transform="translate(33.55 26.65)" fill="#7d848a"/>
    <path id="Path_55" data-name="Path 55" d="M36.016,32.825l-.157-.157-.308.306-.315-.306-.157.157.315.308-.306.3.157.158.308-.308.308.308.157-.158-.308-.306Z" transform="translate(30.308 28.224)" fill="#7d848a"/>
  </g>
</svg>
