<?xml version="1.0" encoding="UTF-8" standalone="no"?>
<!-- Created with Inkscape (http://www.inkscape.org/) -->

<svg
   width="1921"
   height="598"
   viewBox="0 0 508.26458 158.22083"
   version="1.1"
   id="svg1"
   xml:space="preserve"
   inkscape:version="1.3.2 (1:1.3.2+202311252150+091e20ef0f)"
   sodipodi:docname="Subtraction_2_v2.svg"
   xmlns:inkscape="http://www.inkscape.org/namespaces/inkscape"
   xmlns:sodipodi="http://sodipodi.sourceforge.net/DTD/sodipodi-0.dtd"
   xmlns="http://www.w3.org/2000/svg"
   xmlns:svg="http://www.w3.org/2000/svg"><sodipodi:namedview
     id="namedview1"
     pagecolor="#ffffff"
     bordercolor="#000000"
     borderopacity="0.25"
     inkscape:showpageshadow="2"
     inkscape:pageopacity="0.0"
     inkscape:pagecheckerboard="0"
     inkscape:deskcolor="#d1d1d1"
     inkscape:document-units="px"
     inkscape:zoom="0.84880128"
     inkscape:cx="647.97263"
     inkscape:cy="305.72527"
     inkscape:window-width="1680"
     inkscape:window-height="1013"
     inkscape:window-x="0"
     inkscape:window-y="0"
     inkscape:window-maximized="1"
     inkscape:current-layer="layer1" /><defs
     id="defs1" /><g
     inkscape:label="Layer 1"
     inkscape:groupmode="layer"
     id="layer1"><path
       id="Subtraction_2"
       data-name="Subtraction 2"
       d="m -0.63118342,157.96941 v 0 V 0.01315916 L 56.560734,3.2550982 c 18.045038,1.02288 36.828674,1.804459 55.829316,2.322778 18.88154,0.515143 38.19074,0.776287 57.39117,0.776287 29.62626,0 59.08431,-0.614892 87.55518,-1.827742 28.47087,-1.21285 57.92734,-1.827741 87.55174,-1.827741 20.4813,0 41.05519,0.296862 61.14677,0.882121 20.22661,0.589227 40.15317,1.476375 59.22625,2.637102 l 43.48696,2.645833 V 149.11936 l -57.19193,3.24089 c -18.04477,1.02287 -36.82893,1.80445 -55.83064,2.32277 -18.88233,0.51515 -38.19206,0.77629 -57.39249,0.77629 -29.62361,0 -59.08061,-0.61489 -87.5528,-1.82774 -28.4722,-1.21285 -57.9268,-1.82695 -87.55359,-1.82695 -20.4813,0 -41.05493,0.29686 -61.14572,0.88212 -20.226866,0.58923 -40.152893,1.47638 -59.224914,2.63684 z"
       fill="#084571"
       stroke="rgba(0,0,0,0)"
       stroke-width="0.264942" /></g></svg>
