<svg xmlns="http://www.w3.org/2000/svg" width="1922.033" height="743.435" viewBox="0 0 1922.033 743.435">
  <path id="Subtraction_1" data-name="Subtraction 1" d="M-2038,742h0V0l215.573,15.229c68.017,4.8,138.818,8.476,210.437,10.911,71.17,2.42,143.952,3.647,216.324,3.647,111.67,0,222.706-2.889,330.021-8.586s218.342-8.585,330.006-8.585c77.2,0,154.749,1.394,230.48,4.144,76.24,2.768,151.349,6.936,223.241,12.387L-118,41.577V700.422l-215.575,15.229c-68.016,4.805-138.819,8.476-210.442,10.911-71.173,2.42-143.957,3.647-216.329,3.647-111.66,0-222.692-2.888-330.012-8.586s-218.348-8.586-330.015-8.586c-77.2,0-154.748,1.394-230.476,4.144-76.241,2.768-151.348,6.936-223.236,12.387L-2038,742Z" transform="translate(2039.533 0.537)" fill="#2688ba" stroke="rgba(0,0,0,0)" stroke-width="1"/>
</svg>
