<?xml version="1.0" encoding="UTF-8" standalone="no"?>
<!-- Created with Inkscape (http://www.inkscape.org/) -->

<svg
   width="1922"
   height="801"
   viewBox="0 0 508.52916 211.93125"
   version="1.1"
   id="svg1"
   xml:space="preserve"
   inkscape:version="1.3.2 (1:1.3.2+202311252150+091e20ef0f)"
   sodipodi:docname="Subtraction.svg"
   xmlns:inkscape="http://www.inkscape.org/namespaces/inkscape"
   xmlns:sodipodi="http://sodipodi.sourceforge.net/DTD/sodipodi-0.dtd"
   xmlns="http://www.w3.org/2000/svg"
   xmlns:svg="http://www.w3.org/2000/svg"><sodipodi:namedview
     id="namedview1"
     pagecolor="#ffffff"
     bordercolor="#000000"
     borderopacity="0.25"
     inkscape:showpageshadow="2"
     inkscape:pageopacity="0.0"
     inkscape:pagecheckerboard="0"
     inkscape:deskcolor="#d1d1d1"
     inkscape:document-units="px"
     inkscape:zoom="0.35678662"
     inkscape:cx="709.10732"
     inkscape:cy="298.49774"
     inkscape:window-width="1680"
     inkscape:window-height="1013"
     inkscape:window-x="0"
     inkscape:window-y="0"
     inkscape:window-maximized="1"
     inkscape:current-layer="layer1" /><defs
     id="defs1" /><g
     inkscape:label="Layer 1"
     inkscape:groupmode="layer"
     id="layer1"><path
       id="Subtraction_1"
       data-name="Subtraction 1"
       d="m 508.5581,0.52514865 v 0 L 508.14625,212.1914 450.99371,207.736 c -18.03261,-1.40563 -36.80405,-2.48964 -55.79308,-3.22113 -18.86997,-0.72701 -38.16805,-1.1146 -57.3581,-1.15194 -29.61023,-0.0576 -59.05397,0.70927 -87.5126,2.27897 -28.45862,1.5697 -57.90076,2.33686 -87.50914,2.27925 -20.47024,-0.0398 -41.03223,-0.47672 -61.11141,-1.30107 -20.214135,-0.82911 -40.127605,-2.05664 -59.187352,-3.64895 L -0.93477005,199.34036 -0.56907544,11.395276 56.600899,7.162316 C 74.638572,5.8266003 93.414624,4.8159118 112.40742,4.1583358 131.28088,3.5047576 150.58084,3.1922699 169.7709,3.229609 c 29.60757,0.057609 59.04704,0.9388025 87.50067,2.6195093 28.45363,1.6806967 57.89203,2.5618881 87.50147,2.6195008 20.47022,0.03983 41.03351,-0.3170297 61.11495,-1.0632377 20.21748,-0.7501833 40.13504,-1.9004709 59.19977,-3.4185986 z"
       fill="#3491e2"
       stroke="rgba(0,0,0,0)"
       stroke-width="0.264871" /></g></svg>
