<svg xmlns="http://www.w3.org/2000/svg" width="1921" height="598.028" viewBox="0 0 1921 598.028">
  <path id="Subtraction_2" data-name="Subtraction 2" d="M-2038,597h0V0l215.573,12.253c68.017,3.866,138.818,6.82,210.437,8.779,71.17,1.947,143.952,2.934,216.324,2.934,111.67,0,222.706-2.324,330.021-6.908S-847.3,10.15-735.637,10.15c77.2,0,154.749,1.122,230.48,3.334,76.24,2.227,151.349,5.58,223.241,9.967l163.915,10v530.1L-333.574,575.8c-68.016,3.866-138.819,6.82-210.442,8.779-71.173,1.947-143.957,2.934-216.329,2.934-111.66,0-222.692-2.324-330.012-6.908S-1308.7,573.7-1420.372,573.7c-77.2,0-154.748,1.122-230.476,3.334-76.241,2.227-151.348,5.58-223.236,9.966L-2038,597Z" transform="translate(2038.499 0.529)" fill="#084571" stroke="rgba(0,0,0,0)" stroke-width="1"/>
</svg>
