<svg xmlns="http://www.w3.org/2000/svg" width="164.993" height="73.886" viewBox="0 0 164.993 73.886">
  <g id="Group_15486" data-name="Group 15486" transform="translate(0 0)">
    <path id="Path_23886" data-name="Path 23886" d="M10.566,332.073l-3.453,11.74-3.228-11.74H0l4.92,16.4H9.271l5.179-16.4Z" transform="translate(0 -274.743)" fill="#fff"/>
    <rect id="Rectangle_9591" data-name="Rectangle 9591" width="3.677" height="16.401" transform="translate(17.678 57.33)" fill="#fff"/>
    <path id="Path_23887" data-name="Path 23887" d="M144.2,335.539c0-3.246,1.934-4.282,4.437-4.316a21.191,21.191,0,0,1,6.612.691v2.866c-1.433-.138-4.316-.224-5.438-.224-1.295-.017-1.934.052-1.934,1.329v.552c0,1.036.345,1.347,1.571,1.347h2.382c3.3,0,4.005,2.728,4.005,4.523v.932c0,3.919-2.331,4.679-4.54,4.679-3.418,0-4.661-.086-6.595-.708v-2.866c.9.086,3.66.242,5.749.242.95,0,1.709-.19,1.709-1.191v-.656c0-.811-.242-1.295-1.347-1.295h-2.3c-4.092,0-4.316-3.263-4.316-4.523Z" transform="translate(-119.305 -274.031)" fill="#fff"/>
    <path id="Path_23888" data-name="Path 23888" d="M237.581,331.373c3.867,0,6.664.742,6.664,8.425,0,7.234-2.641,8.166-6.664,8.166s-6.681-.725-6.681-8.166,2.918-8.425,6.681-8.425m0,13.259c2.313,0,3-.846,3-4.834,0-4.523-.708-5.093-3-5.093s-3,.4-3,5.093c0,4.005.466,4.834,3,4.834" transform="translate(-191.037 -274.164)" fill="#fff"/>
    <path id="Path_23889" data-name="Path 23889" d="M327.9,332.073h7.234c2.71,0,4.713,1.191,4.713,5.179s-1.519,4.506-2.521,4.868l2.969,6.353h-4.161l-2.434-6.025-2.123-.311v6.336H327.9Zm6.819,7.234c1.122,0,1.433-.432,1.433-2.054,0-1.467-.449-1.985-1.433-1.985h-3.125v4.04Z" transform="translate(-271.291 -274.743)" fill="#fff"/>
    <path id="Path_23890" data-name="Path 23890" d="M420.5,332.073h2.054v9.236c0,5.214,1.536,5.283,4.074,5.283,2.193,0,3.936-.242,3.936-5.283v-9.236h2.089v9.236c0,7.234-3.315,7.285-6.025,7.285-3.038,0-6.129.173-6.129-7.285Z" transform="translate(-347.904 -274.743)" fill="#81c569"/>
    <path id="Path_23891" data-name="Path 23891" d="M515.4,332.073h7.044c2.244,0,3.971,1.208,3.971,4.972,0,4.2-2.072,4.592-2.78,4.73l3.349,6.681h-2.262l-3.246-6.56-4.005-.311v6.871h-2.054Zm6.94,7.769c1.053,0,1.968-.086,1.968-2.8s-.984-2.987-1.968-2.987h-4.886v5.783Z" transform="translate(-426.421 -274.743)" fill="#81c569"/>
    <path id="Path_23892" data-name="Path 23892" d="M604.6,332.073h6.44a4.008,4.008,0,0,1,4.351,4.281c0,1.623-.518,3.159-2.106,3.591,1.088.224,2.244,1.45,2.244,3.867s-1.036,4.644-4.471,4.644H604.6Zm6.388,6.854a2.182,2.182,0,0,0,2.365-2.5,2.136,2.136,0,0,0-2.365-2.4h-4.316v4.886Zm.035,7.579c1.036,0,2.452-.328,2.452-2.745,0-1.536-.725-2.9-2.452-2.9h-4.333v5.663Z" transform="translate(-500.221 -274.743)" fill="#81c569"/>
    <path id="Path_23893" data-name="Path 23893" d="M689.687,332.073h2.175l5.645,16.4H695.16l-1.347-4.316H687.6l-1.4,4.316h-2.4Zm3.5,10.117-2.417-7.147-2.521,7.147Z" transform="translate(-565.748 -274.743)" fill="#81c569"/>
    <path id="Path_23894" data-name="Path 23894" d="M785.5,332.073h2.106l8.131,12.568V332.073h2.054v16.4h-2.054l-8.149-12.534v12.534H785.5Z" transform="translate(-649.89 -274.743)" fill="#81c569"/>
    <path id="Path_23895" data-name="Path 23895" d="M887.922,331.373c3.867,0,6.388.742,6.388,8.425,0,7.234-2.348,8.166-6.388,8.166s-6.422-.725-6.422-8.166,2.659-8.425,6.422-8.425m0,14.605c3.263,0,4.333-.915,4.333-6.181,0-6.267-1.433-6.422-4.333-6.422s-4.368.138-4.368,6.422c0,5.4,1.036,6.181,4.368,6.181" transform="translate(-729.317 -274.164)" fill="#81c569"/>
    <path id="Path_23896" data-name="Path 23896" d="M244.143,48.715h-6.612v-13.1a.737.737,0,0,0-.742-.742H223.961v-8.8a.737.737,0,0,0-.742-.742H204.5a.748.748,0,0,0-.518.224.731.731,0,0,0-.207.518l.173,22.651H196.01V42.983a5.286,5.286,0,0,0-.276-10.514c-.121,0-.242-.017-.38-.017a5.289,5.289,0,0,0-3.9,8.891,5.219,5.219,0,0,0,3.194,1.64v5.732h-8.08V35.974a.737.737,0,0,0-.742-.742h-5.11V7.039a.727.727,0,0,0-.483-.691L162.846.047a.719.719,0,0,0-.673.086.752.752,0,0,0-.311.6V38.512h-7.009a.737.737,0,0,0-.742.742v9.461h-7.8V42.983a5.286,5.286,0,0,0-.276-10.514c-.121,0-.242-.017-.38-.017a5.289,5.289,0,0,0-3.9,8.891,5.219,5.219,0,0,0,3.194,1.64v5.732h-8.252v-10a.737.737,0,0,0-.742-.742H125.521a.737.737,0,0,0-.742.742v10h-3.936a.742.742,0,0,0,0,1.485H125.5a.737.737,0,0,0,.742-.742v-10h8.943v10a.748.748,0,0,0,.742.742h18.852a.737.737,0,0,0,.742-.742V39.979h6.284v9.478a.748.748,0,0,0,.742.742h4.523a.748.748,0,0,0,.742-.742v-10.2a.737.737,0,0,0-.742-.742h-3.729V28h15.9v7.976a.737.737,0,0,0,.742.742h5.11V49.457a.748.748,0,0,0,.742.742h18.835a.748.748,0,0,0,.518-.224.731.731,0,0,0,.207-.518l-.173-22.633h17.247V34.9h-4.143a.748.748,0,0,0-.742.742v8.511a.737.737,0,0,0,.742.742H223.2a.748.748,0,0,0,.742-.742V36.388h12.085v13.1a.748.748,0,0,0,.742.742h7.372a.748.748,0,0,0,.742-.742.779.779,0,0,0-.742-.777m-97.819-8.028,1.916-1.433a.672.672,0,0,0,.207-.777.7.7,0,0,0-.656-.483.621.621,0,0,0-.38.121l-1.088.829V37.718l1.4-1.088a.623.623,0,0,0,.242-.725.716.716,0,0,0-.656-.518.619.619,0,0,0-.414.155l-.57.432a.669.669,0,0,0-1.329.121v1.657l-.95-.552a.725.725,0,0,0-.363-.1.7.7,0,0,0-.673.518.652.652,0,0,0,.328.76l1.64.984V41.55a3.886,3.886,0,0,1-3.228-3.867,3.919,3.919,0,1,1,4.558,3.867Zm17.022-29.608h15.918v1.9H163.347Zm0,6.785h15.918v1.9H163.347Zm15.918-1.485H163.347V14.446h15.918Zm-15.918,4.851h15.9v1.934h-15.9ZM179.264,7.557V9.612H163.347V1.791ZM166.4,48.715h-3.056V39.979H166.4Zm-3.056-24.083h15.9v1.9h-15.9ZM195.993,40.67l1.916-1.433a.672.672,0,0,0,.207-.777.717.717,0,0,0-.656-.483.622.622,0,0,0-.38.121l-1.088.829V37.7l1.4-1.088a.647.647,0,0,0,.242-.725.716.716,0,0,0-.656-.518.619.619,0,0,0-.414.155l-.57.432a.654.654,0,0,0-.656-.57.668.668,0,0,0-.673.691v1.657l-.95-.552a.725.725,0,0,0-.363-.1.665.665,0,0,0-.656.518.653.653,0,0,0,.328.76l1.64.984v2.193a3.886,3.886,0,0,1-3.228-3.867,3.927,3.927,0,0,1,3.919-3.919,3.98,3.98,0,0,1,3.9,3.971,3.9,3.9,0,0,1-3.28,3.867Zm26.5,2.71h-3.4V36.337h3.4Z" transform="translate(-99.366 0)" fill="#fff"/>
    <path id="Path_23897" data-name="Path 23897" d="M632.941,168.573h-3.833a.7.7,0,0,0-.708.708v3.833a.7.7,0,0,0,.708.708h3.833a.7.7,0,0,0,.708-.708v-3.833a.711.711,0,0,0-.708-.708m-.708,3.833h-2.417v-2.417h2.417Z" transform="translate(-519.912 -139.47)" fill="#fff"/>
    <path id="Path_23898" data-name="Path 23898" d="M753.24,220.973h-3.833a.7.7,0,0,0-.708.708v3.833a.7.7,0,0,0,.708.708h3.833a.7.7,0,0,0,.708-.708v-3.833a.711.711,0,0,0-.708-.708m-.708,3.833h-2.417v-2.417h2.417Z" transform="translate(-619.443 -182.824)" fill="#fff"/>
  </g>
</svg>
