<svg xmlns="http://www.w3.org/2000/svg" xmlns:xlink="http://www.w3.org/1999/xlink" width="28" height="28" viewBox="0 0 28 28">
  <defs>
    <clipPath id="clip-path">
      <rect id="Rectangle_6994" data-name="Rectangle 6994" width="28" height="28" fill="none"/>
    </clipPath>
  </defs>
  <g id="Group_6019" data-name="Group 6019" transform="translate(0 0)">
    <g id="Group_6018" data-name="Group 6018" transform="translate(0 0)" clip-path="url(#clip-path)">
      <path id="Path_14312" data-name="Path 14312" d="M27.318,28.059H7.617A2.819,2.819,0,0,1,4.8,25.243V7.617A2.819,2.819,0,0,1,7.617,4.8h19.7a.741.741,0,0,1,.741.741V27.318a.741.741,0,0,1-.741.741M7.617,6.283A1.336,1.336,0,0,0,6.283,7.617V25.243a1.336,1.336,0,0,0,1.334,1.334h18.96V6.283Z" transform="translate(-2.43 -2.43)" fill="#65c65e"/>
      <path id="Path_14313" data-name="Path 14313" d="M27.318,46.093H7.408A2.61,2.61,0,0,1,4.8,43.486v-.445a2.61,2.61,0,0,1,2.607-2.607h19.91a.741.741,0,0,1,.741.741v4.177a.741.741,0,0,1-.741.741M7.408,41.916a1.127,1.127,0,0,0-1.125,1.126v.445a1.126,1.126,0,0,0,1.125,1.125H26.577v-2.7Z" transform="translate(-2.43 -20.464)" fill="#65c65e"/>
      <path id="Path_14314" data-name="Path 14314" d="M13.367,20.169a.741.741,0,0,1-.741-.741V5.542a.741.741,0,0,1,1.482,0V19.428a.741.741,0,0,1-.741.741" transform="translate(-6.39 -2.43)" fill="#65c65e"/>
      <path id="Path_14315" data-name="Path 14315" d="M41.624,46.145H33.809a.741.741,0,0,1,0-1.482h7.815a.741.741,0,1,1,0,1.482" transform="translate(-16.736 -22.604)" fill="#65c65e"/>
      <path id="Path_14317" data-name="Path 14317" d="M27.678,24.122a2.971,2.971,0,1,1,2.972-2.971,2.975,2.975,0,0,1-2.972,2.971m0-4.461a1.49,1.49,0,1,0,1.49,1.49,1.492,1.492,0,0,0-1.49-1.49" transform="translate(-12.504 -9.201)" fill="#65c65e"/>
    </g>
  </g>
</svg>
