<svg xmlns="http://www.w3.org/2000/svg" xmlns:xlink="http://www.w3.org/1999/xlink" width="54.71" height="57.197" viewBox="0 0 54.71 57.197">
  <defs>
    <linearGradient id="linear-gradient" x1="0.5" x2="0.5" y2="1" gradientUnits="objectBoundingBox">
      <stop offset="0" stop-color="#70cd67"/>
      <stop offset="1" stop-color="#50ac4a"/>
    </linearGradient>
    <clipPath id="clip-path">
      <rect id="Rectangle_6995" data-name="Rectangle 6995" width="54.71" height="57.196" fill="url(#linear-gradient)"/>
    </clipPath>
  </defs>
  <g id="Group_8938" data-name="Group 8938" transform="translate(0 0)">
    <g id="Group_8937" data-name="Group 8937" transform="translate(0 0)" clip-path="url(#clip-path)">
      <path id="Path_21534" data-name="Path 21534" d="M52.612,29.548a3.145,3.145,0,0,1,0-1.907l1.945-5.972a3.09,3.09,0,0,0-1.127-3.45l-5.082-3.7a3.056,3.056,0,0,1-1.119-1.541L45.283,7a3.08,3.08,0,0,0-2.938-2.131h-6.28a3.089,3.089,0,0,1-1.818-.591L29.167.591a3.075,3.075,0,0,0-3.624,0l-5.087,3.69a3.062,3.062,0,0,1-1.814.591H12.356A3.078,3.078,0,0,0,9.423,7.009L7.477,12.981a3.066,3.066,0,0,1-1.127,1.548l-5.076,3.69a3.091,3.091,0,0,0-1.127,3.45l1.945,5.972a3.145,3.145,0,0,1,0,1.907L.153,35.527a3.089,3.089,0,0,0,1.127,3.45l5.083,3.69a3.139,3.139,0,0,1,1.119,1.547L9.42,50.187a3.09,3.09,0,0,0,2.938,2.138h6.285a3.122,3.122,0,0,1,1.813.583l5.088,3.7a3.075,3.075,0,0,0,3.624,0l5.087-3.7a3.1,3.1,0,0,1,1.814-.583h6.285a3.079,3.079,0,0,0,2.933-2.138l1.945-5.972a3.1,3.1,0,0,1,1.119-1.547l5.082-3.69a3.089,3.089,0,0,0,1.127-3.45ZM39.986,22.655a2.954,2.954,0,0,1-.872,2.1L27.239,36.623a3.019,3.019,0,0,1-4.184,0l-7.472-7.458a2.983,2.983,0,0,1-.007-4.191,3.042,3.042,0,0,1,4.2-.007l5.365,5.365,9.772-9.77a3.064,3.064,0,0,1,4.2,0,2.951,2.951,0,0,1,.875,2.093Z" transform="translate(0 0)" fill="url(#linear-gradient)"/>
    </g>
  </g>
</svg>
