<svg xmlns="http://www.w3.org/2000/svg" width="120" height="120" viewBox="0 0 120 120">
  <g id="Group_8934" data-name="Group 8934" transform="translate(-1103 -3814)">
    <g id="Group_8927" data-name="Group 8927" transform="translate(1106.14 3838.43)">
      <g id="Group_8936" data-name="Group 8936">
        <path id="Path_14269" data-name="Path 14269" d="M105.045,52.862c-1.378,1.655-1.806,3.81-2.583,5.776-3.35,8.466-9.055,16.924-31.333,9.7C47.883,60.807,41.356,63.2,27.769,66.12,4.75,71.07-4.045,52.706,1.709,39.342S5.6,22.8,16.259,8.94,57.388.5,68.408,4.352C88.373,11.327,102.9,8.94,109.541,16.92c4.556,5.472,9.227,19.464-4.5,35.942" fill="#e1f2df"/>
        <g id="Group_8935" data-name="Group 8935">
          <path id="Path_14290" data-name="Path 14290" d="M59.193,68.184a1.5,1.5,0,0,1-.083-3,28.583,28.583,0,0,0,4.7-.658,1.5,1.5,0,1,1,.662,2.925,31.615,31.615,0,0,1-5.192.729l-.085,0m-4.989-.13a1.5,1.5,0,0,1-.164-.009,31.364,31.364,0,0,1-5.146-1,1.5,1.5,0,1,1,.816-2.886,28.562,28.562,0,0,0,4.654.9,1.5,1.5,0,0,1-.16,2.991m14.7-2.073a1.5,1.5,0,0,1-.572-2.887,28.371,28.371,0,0,0,4.217-2.169,1.5,1.5,0,0,1,1.59,2.545,31.55,31.55,0,0,1-4.664,2.4,1.494,1.494,0,0,1-.571.113m-24.274-.639a1.51,1.51,0,0,1-.644-.145,31.755,31.755,0,0,1-4.531-2.64A1.5,1.5,0,0,1,41.17,60.1a28.782,28.782,0,0,0,4.1,2.39,1.5,1.5,0,0,1-.645,2.854m-8.153-5.708a1.5,1.5,0,0,1-1.052-.43A31.611,31.611,0,0,1,32,55.231a1.5,1.5,0,0,1,2.428-1.762,28.611,28.611,0,0,0,3.1,3.595,1.5,1.5,0,0,1-1.051,2.57m-5.844-8.052a1.5,1.5,0,0,1-1.344-.832,31.228,31.228,0,0,1-1.932-4.876,1.5,1.5,0,1,1,2.873-.867,28.271,28.271,0,0,0,1.745,4.407,1.5,1.5,0,0,1-.675,2.011,1.477,1.477,0,0,1-.667.157M27.75,42.057a1.5,1.5,0,0,1-1.486-1.312,31.819,31.819,0,0,1-.25-3.982c0-.42.007-.839.024-1.254A1.465,1.465,0,0,1,27.6,34.07a1.5,1.5,0,0,1,1.439,1.558q-.022.564-.022,1.135a28.878,28.878,0,0,0,.226,3.606,1.5,1.5,0,0,1-1.3,1.676,1.538,1.538,0,0,1-.19.012" transform="translate(0 1)" fill="#65c65e"/>
          <path id="Path_14291" data-name="Path 14291" d="M87.371,36.1a1.5,1.5,0,0,1-1.5-1.394,28.346,28.346,0,0,0-.728-4.685,1.5,1.5,0,0,1,2.916-.707,31.409,31.409,0,0,1,.805,5.181,1.5,1.5,0,0,1-1.391,1.6c-.036,0-.071,0-.107,0m-2.344-9.668a1.5,1.5,0,0,1-1.379-.907,28.5,28.5,0,0,0-2.231-4.184,1.5,1.5,0,0,1,2.52-1.627A31.554,31.554,0,0,1,86.4,24.341a1.5,1.5,0,0,1-1.377,2.093m-5.4-8.359a1.5,1.5,0,0,1-1.108-.489,28.879,28.879,0,0,0-3.477-3.23A1.5,1.5,0,1,1,76.9,12a31.7,31.7,0,0,1,3.842,3.567,1.5,1.5,0,0,1-1.109,2.511M71.8,11.929a1.494,1.494,0,0,1-.716-.182,28.38,28.38,0,0,0-4.34-1.912A1.5,1.5,0,1,1,67.718,7a31.382,31.382,0,0,1,4.8,2.115,1.5,1.5,0,0,1-.718,2.817M47.6,9.963a1.5,1.5,0,0,1-.494-2.916A31.113,31.113,0,0,1,52.188,5.74a1.5,1.5,0,0,1,.5,2.957A28.306,28.306,0,0,0,48.1,9.879a1.5,1.5,0,0,1-.494.084M62.392,8.694a1.455,1.455,0,0,1-.245-.02A28.926,28.926,0,0,0,57.482,8.3a1.53,1.53,0,0,1-1.534-1.5,1.47,1.47,0,0,1,1.465-1.5h.069a31.726,31.726,0,0,1,5.151.419,1.5,1.5,0,0,1-.241,2.98" transform="translate(0 1)" fill="#65c65e"/>
          <path id="Path_14292" data-name="Path 14292" d="M40.979,40.52h-.032l-6.665-.143a1.5,1.5,0,0,1-1.468-1.532l.064-2.994A12.2,12.2,0,0,1,31.25,35.2l-2.293,2.2a1.525,1.525,0,0,1-1.07.417,1.5,1.5,0,0,1-1.051-.463L22.225,32.54a1.5,1.5,0,0,1,.045-2.12l2.285-2.189A12.551,12.551,0,0,1,23.99,26.8l-3.008.021a1.373,1.373,0,0,1-1.068-.435,1.5,1.5,0,0,1-.443-1.065v-7.1a1.5,1.5,0,0,1,1.489-1.5l3.29-.023a11.2,11.2,0,0,1,.652-1.426l-1.98-2.064a1.5,1.5,0,0,1,.045-2.121l5.125-4.909a1.5,1.5,0,0,1,2.121.045l1.816,1.9c.338-.173.727-.363,1.124-.532l-.067-3.073a1.5,1.5,0,0,1,1.468-1.532l6.665-.143a1.573,1.573,0,0,1,1.07.417,1.5,1.5,0,0,1,.462,1.05l.064,2.977a13.137,13.137,0,0,1,1.883.775l2.434-2.2a1.53,1.53,0,0,1,1.081-.385,1.5,1.5,0,0,1,1.038.492l4.533,5.016a1.5,1.5,0,0,1-.214,2.206l-2.4,1.793a14.74,14.74,0,0,1,1,2.315l2.783.088a1.5,1.5,0,0,1,1.453,1.5v7.1a1.5,1.5,0,0,1-.458,1.08,1.433,1.433,0,0,1-1.1.419l-3.217-.121a14.594,14.594,0,0,1-.587,1.337l2.363,2.318a1.5,1.5,0,0,1-.011,2.154l-5.125,4.909a1.59,1.59,0,0,1-1.071.417,1.5,1.5,0,0,1-1.05-.463l-2.337-2.439a13.093,13.093,0,0,1-1.276.487l-.063,2.978a1.5,1.5,0,0,1-1.5,1.467m-5.132-3.111,3.664.079.056-2.593a1.5,1.5,0,0,1,1.16-1.428,10.223,10.223,0,0,0,2.692-1.027,1.5,1.5,0,0,1,1.781.255l2.084,2.174,2.923-2.8-2.071-2.03a1.5,1.5,0,0,1-.232-1.85A11.606,11.606,0,0,0,49.131,25.4a1.473,1.473,0,0,1,1.5-1.08l2.781.1V20.334L51,20.258a1.5,1.5,0,0,1-1.405-1.122,11.987,11.987,0,0,0-1.2-2.991l-.47-.788a1.5,1.5,0,0,1,.351-1.937l.247-.2,1.934-1.451L48.031,9.089l-2.12,1.916a1.5,1.5,0,0,1-1.764.181l-.493-.289A10.085,10.085,0,0,0,41,9.892a1.5,1.5,0,0,1-1.161-1.428l-.055-2.593-3.666.079.058,2.529a1.5,1.5,0,0,1-1.11,1.6,14.025,14.025,0,0,0-2.554,1.2,1.5,1.5,0,0,1-1.823-.231l-1.6-1.659-2.958,2.834,1.695,1.753a1.5,1.5,0,0,1,.216,1.916,9.1,9.1,0,0,0-1.271,2.746A1.527,1.527,0,0,1,25.247,19.7l-.2-.011-2.578.021v4.1l2.648-.019h.011a1.5,1.5,0,0,1,1.462,1.165,10.14,10.14,0,0,0,1.03,2.7l.086.155a1.5,1.5,0,0,1-.272,1.813l-2.007,1.923L27.965,34.2l2.006-1.922a1.5,1.5,0,0,1,1.817-.2l.163.1a10.375,10.375,0,0,0,2.841,1.108A1.5,1.5,0,0,1,35.9,34.865Z" transform="translate(0 1)" fill="#65c65e"/>
          <path id="Path_14293" data-name="Path 14293" d="M38.214,31.631A9.881,9.881,0,1,1,48.1,21.75a9.893,9.893,0,0,1-9.881,9.881m0-16.762A6.881,6.881,0,1,0,45.1,21.75a6.889,6.889,0,0,0-6.881-6.881" transform="translate(0 1)" fill="#65c65e"/>
          <path id="Path_21533" data-name="Path 21533" d="M33.538,22.28a5.205,5.205,0,1,1,5.205-5.205,5.212,5.212,0,0,1-5.205,5.205m0-8.83a3.625,3.625,0,1,0,3.625,3.625,3.629,3.629,0,0,0-3.625-3.625" transform="translate(48.029 32.553)" fill="#65c65e" stroke="#64c65e" stroke-width="1"/>
          <path id="Path_14294" data-name="Path 14294" d="M83.646,61.991h-.032l-4.559-.1a1.5,1.5,0,0,1-1.468-1.532l.037-1.7c-.177-.064-.357-.134-.538-.213l-1.336,1.28a1.585,1.585,0,0,1-1.07.417,1.5,1.5,0,0,1-1.051-.462l-3.156-3.294a1.511,1.511,0,0,1-.417-1.07,1.5,1.5,0,0,1,.463-1.051L71.842,53c-.055-.132-.107-.262-.156-.393l-1.716.012a1.6,1.6,0,0,1-1.069-.435,1.5,1.5,0,0,1-.443-1.065V46.262a1.5,1.5,0,0,1,1.489-1.5l1.932-.014q.09-.215.192-.421l-1.12-1.169A1.5,1.5,0,0,1,71,41.038L74.5,37.68a1.549,1.549,0,0,1,1.07-.417,1.5,1.5,0,0,1,1.051.463l1,1.044c.061-.03.124-.059.188-.089l-.039-1.787a1.5,1.5,0,0,1,1.468-1.532l4.56-.1a1.527,1.527,0,0,1,1.069.417,1.5,1.5,0,0,1,.463,1.051l.036,1.707c.251.091.5.192.74.305l1.43-1.293a1.521,1.521,0,0,1,1.082-.384,1.5,1.5,0,0,1,1.037.492l3.1,3.431a1.5,1.5,0,0,1-.214,2.207l-1.319.988a10.278,10.278,0,0,1,.417.979l1.58.05a1.5,1.5,0,0,1,1.454,1.5v4.856a1.5,1.5,0,0,1-.459,1.08,1.433,1.433,0,0,1-1.1.419L91.254,53c-.046.111-.094.22-.144.328l1.374,1.348a1.5,1.5,0,0,1-.011,2.154l-3.506,3.359A1.532,1.532,0,0,1,87.9,60.6a1.5,1.5,0,0,1-1.05-.463l-1.373-1.433q-.144.057-.291.111l-.036,1.707a1.5,1.5,0,0,1-1.5,1.467m-3.027-3.065,1.561.033.027-1.3a1.5,1.5,0,0,1,1.16-1.428,6.5,6.5,0,0,0,1.72-.657,1.5,1.5,0,0,1,1.782.255l1.1,1.153,1.306-1.25-1.067-1.047a1.5,1.5,0,0,1-.233-1.85,7.426,7.426,0,0,0,.789-1.795,1.478,1.478,0,0,1,1.5-1.082l1.412.053V48.166l-1.191-.038a1.5,1.5,0,0,1-1.4-1.12,7.736,7.736,0,0,0-.775-1.93l-.317-.535a1.5,1.5,0,0,1,.354-1.939l1.087-.823-.994-1.1-1.1.993a1.5,1.5,0,0,1-1.762.182l-.338-.2a6.415,6.415,0,0,0-1.684-.635A1.5,1.5,0,0,1,82.393,39.6l-.027-1.3-1.56.033.027,1.268a1.576,1.576,0,0,1-1.112,1.551,8.988,8.988,0,0,0-1.629.769,1.5,1.5,0,0,1-1.816-.227l-.782-.805-1.339,1.283.816.841a1.5,1.5,0,0,1,.217,1.916,5.766,5.766,0,0,0-.811,1.753,1.491,1.491,0,0,1-1.524,1.069l-.135-.008-1.26.011v1.857l1.334-.01H72.8a1.5,1.5,0,0,1,1.461,1.166,6.405,6.405,0,0,0,.661,1.73l.059.11a1.5,1.5,0,0,1-.277,1.8l-1.03.988,1.079,1.127,1.03-.988a1.5,1.5,0,0,1,1.823-.195l.112.068a6.667,6.667,0,0,0,1.812.7,1.5,1.5,0,0,1,1.112,1.578Z" transform="translate(0 1)" fill="#65c65e"/>
        </g>
      </g>
    </g>
    <rect id="Rectangle_6994" data-name="Rectangle 6994" width="120" height="120" transform="translate(1103 3814)" fill="none"/>
  </g>
</svg>
