<svg id="Group_8932" data-name="Group 8932" xmlns="http://www.w3.org/2000/svg" xmlns:xlink="http://www.w3.org/1999/xlink" width="120" height="120" viewBox="0 0 120 120">
  <defs>
    <clipPath id="clip-path">
      <rect id="Rectangle_6988" data-name="Rectangle 6988" width="120" height="120" fill="none"/>
    </clipPath>
  </defs>
  <g id="Group_6006" data-name="Group 6006" clip-path="url(#clip-path)">
    <path id="Path_14260" data-name="Path 14260" d="M107.971,77.327c-1.378,1.655-1.806,3.81-2.583,5.776-3.35,8.466-9.055,16.924-31.333,9.7-23.246-7.535-29.773-5.144-43.36-2.222C7.676,95.535-1.119,77.171,4.634,63.807s3.9-16.538,14.551-30.4,41.129-8.437,52.149-4.588c19.965,6.975,34.49,4.588,41.133,12.568,4.556,5.472,9.227,19.464-4.5,35.942" fill="#e1f2df"/>
    <g id="Group_6013" data-name="Group 6013" transform="translate(24.462 24.217)">
      <g id="Group_5998" data-name="Group 5998" transform="translate(0)">
        <path id="Path_14257" data-name="Path 14257" d="M11.407,44.525,26.276,59.394,62.25,49.757,56.663,38.4a5.332,5.332,0,0,0-4.918-3.061H28.73c-1.225,1.925-2.477,3.774-3.642,5.5a73.389,73.389,0,0,0-4.363,6.9,1.493,1.493,0,0,1-2.671,0,73.5,73.5,0,0,0-4.362-6.9l-.059-.1-.212-.313ZM19.39,8.806a7.886,7.886,0,1,1-5.575,2.31l.088-.081A7.859,7.859,0,0,1,19.39,8.806Zm3.457,4.427A4.9,4.9,0,0,0,16,13.171l-.061.066a4.881,4.881,0,1,0,6.912,0m5.876,48.608L35.2,68.318H62.58A5.439,5.439,0,0,0,67.5,60.424L63.6,52.5Zm2.236,6.477L10.007,47.366,3.58,60.424A5.433,5.433,0,0,0,8.5,68.318Zm-.389-35.977H51.745a8.325,8.325,0,0,1,7.6,4.737L70.181,59.1a8.444,8.444,0,0,1-7.6,12.22H8.5A8.434,8.434,0,0,1,.9,59.1c3.514-7.144,6.957-14.482,10.592-21.558C7.2,31.066,2.7,23.41,2.7,16.69a16.642,16.642,0,0,1,4.89-11.8l.085-.079a16.673,16.673,0,0,1,23.512.08l.008.009A16.637,16.637,0,0,1,36.08,16.69C36.08,21.683,33.6,27.186,30.571,32.341ZM16.176,39.163c1.2,1.776,2.311,3.415,3.214,4.882.9-1.468,2.013-3.107,3.215-4.884C27.153,32.441,33.08,23.684,33.08,16.69A13.695,13.695,0,0,0,9.774,6.939l-.066.07A13.651,13.651,0,0,0,5.7,16.69c0,6.971,5.868,15.674,10.407,22.378Z" transform="translate(0)" fill="#68bd4c" stroke="#68bd4c" stroke-width="0.1"/>
      </g>
    </g>
  </g>
</svg>
