<svg id="Group_8926" data-name="Group 8926" xmlns="http://www.w3.org/2000/svg" xmlns:xlink="http://www.w3.org/1999/xlink" width="120" height="120" viewBox="0 0 120 120">
  <defs>
    <clipPath id="clip-path">
      <rect id="Rectangle_6988" data-name="Rectangle 6988" width="120" height="120" fill="none"/>
    </clipPath>
  </defs>
  <g id="Group_6006" data-name="Group 6006" clip-path="url(#clip-path)">
    <path id="Path_14260" data-name="Path 14260" d="M107.971,77.327c-1.378,1.655-1.806,3.81-2.583,5.776-3.35,8.466-9.055,16.924-31.333,9.7-23.246-7.535-29.773-5.144-43.36-2.222C7.676,95.535-1.119,77.171,4.634,63.807s3.9-16.538,14.551-30.4,41.129-8.437,52.149-4.588c19.965,6.975,34.49,4.588,41.133,12.568,4.556,5.472,9.227,19.464-4.5,35.942" fill="#e1f2df"/>
    <path id="Path_14261" data-name="Path 14261" d="M76.858,53.706a3.114,3.114,0,0,1-3.112-3.113V34.2h3v16.39l.114.113,18.729-.1.016,3-18.729.1Z" fill="#65c65e"/>
    <path id="Path_14262" data-name="Path 14262" d="M79.94,77.056A10.864,10.864,0,1,1,90.8,66.192,10.875,10.875,0,0,1,79.94,77.056m0-18.727A7.864,7.864,0,1,0,87.8,66.192a7.871,7.871,0,0,0-7.863-7.863" fill="#65c65e"/>
    <path id="Path_14263" data-name="Path 14263" d="M76.048,93a1.5,1.5,0,0,1-1.1-.589l-3.573-4.7-6.465,1.284a1.5,1.5,0,0,1-1.517-2.337l8.73-12.35a1.5,1.5,0,1,1,2.45,1.732l-6.56,9.28,3.7-.735a1.5,1.5,0,0,1,1.486.564l2.229,2.93,2.649-10.984a1.5,1.5,0,0,1,2.917.7L77.6,91.85a1.5,1.5,0,0,1-1.15,1.116,1.528,1.528,0,0,1-.4.029" fill="#65c65e"/>
    <path id="Path_14264" data-name="Path 14264" d="M84.392,93.05a1.48,1.48,0,0,1-.4-.008,1.5,1.5,0,0,1-1.207-1.054L78.653,78.133a1.5,1.5,0,1,1,2.875-.856l3.227,10.829,2.07-3.045a1.5,1.5,0,0,1,1.454-.641l3.729.538-7.041-8.92a1.5,1.5,0,0,1,2.355-1.86L96.693,86.05A1.5,1.5,0,0,1,95.3,88.465l-6.522-.942L85.458,92.4a1.5,1.5,0,0,1-1.066.646" fill="#65c65e"/>
    <path id="Path_14265" data-name="Path 14265" d="M68.155,84.57H26.317c-3.418,0-6.2-3.1-6.2-6.917V39.622c0-3.815,2.78-6.919,6.2-6.919H76.61L97.1,51.431V77.776c0,3.48-1.741,6.251-5.067,6.623l-1.077-2.85a3.736,3.736,0,0,0,3.256-3.773V52.786L75.52,35.7h-49.2c-1.826,0-3.311,1.759-3.311,3.919V77.653c0,2.16,1.485,3.917,3.311,3.917H68.155Z" fill="#65c65e"/>
    <path id="Path_14266" data-name="Path 14266" d="M45.573,47.7H29.116a1.5,1.5,0,1,1,0-3H45.573a1.5,1.5,0,0,1,0,3" fill="#65c65e"/>
    <path id="Path_14267" data-name="Path 14267" d="M60.786,56.9H29.116a1.5,1.5,0,0,1,0-3h31.67a1.5,1.5,0,0,1,0,3" fill="#65c65e"/>
    <path id="Path_14268" data-name="Path 14268" d="M63.006,66.105H28.654a1.5,1.5,0,0,1,0-3H63.006a1.5,1.5,0,0,1,0,3" fill="#65c65e"/>
  </g>
</svg>
