<svg xmlns="http://www.w3.org/2000/svg" xmlns:xlink="http://www.w3.org/1999/xlink" width="120" height="120" viewBox="0 0 120 120">
  <defs>
    <clipPath id="clip-path">
      <rect id="Rectangle_6989" data-name="Rectangle 6989" width="114.148" height="71.07" transform="translate(0 0)" fill="none"/>
    </clipPath>
  </defs>
  <g id="Group_8933" data-name="Group 8933" transform="translate(-1103 -3814)">
    <g id="Group_8927" data-name="Group 8927" transform="translate(1106.14 3838.43)">
      <g id="Group_6008" data-name="Group 6008" clip-path="url(#clip-path)">
        <path id="Path_14269" data-name="Path 14269" d="M105.045,52.862c-1.378,1.655-1.806,3.81-2.583,5.776-3.35,8.466-9.055,16.924-31.333,9.7C47.883,60.807,41.356,63.2,27.769,66.12,4.75,71.07-4.045,52.706,1.709,39.342S5.6,22.8,16.259,8.94,57.388.5,68.408,4.352C88.373,11.327,102.9,8.94,109.541,16.92c4.556,5.472,9.227,19.464-4.5,35.942" fill="#e1f2df"/>
        <path id="Path_14270" data-name="Path 14270" d="M74.734,67.213H39.415a4.577,4.577,0,0,1-4.576-4.567V15.4a4.577,4.577,0,0,1,4.576-4.567,1.5,1.5,0,0,1,0,3A1.573,1.573,0,0,0,37.839,15.4V62.646a1.573,1.573,0,0,0,1.576,1.567H74.734a1.4,1.4,0,0,0,1.575-1.485V15.4a1.573,1.573,0,0,0-1.575-1.567,1.5,1.5,0,0,1,0-3A4.577,4.577,0,0,1,79.309,15.4V62.728a4.384,4.384,0,0,1-4.575,4.485" fill="#65c65e"/>
        <path id="Path_14271" data-name="Path 14271" d="M73.168,15.923H40.753a1.5,1.5,0,0,1-1.5-1.5v-5.6a1.5,1.5,0,0,1,1.5-1.5h7.89V5.357a1.5,1.5,0,0,1,1.5-1.5H64.088a1.5,1.5,0,0,1,1.5,1.5V7.319h7.58a1.5,1.5,0,0,1,1.5,1.5v5.6a1.5,1.5,0,0,1-1.5,1.5m-30.915-3H71.668v-2.6h-7.58a1.5,1.5,0,0,1-1.5-1.5V6.857H51.643V8.819a1.5,1.5,0,0,1-1.5,1.5h-7.89Z" fill="#65c65e"/>
        <path id="Path_14272" data-name="Path 14272" d="M47.045,30.735a5.7,5.7,0,1,1,5.627-5.695,5.667,5.667,0,0,1-5.627,5.695m0-8.39a2.7,2.7,0,1,0,2.627,2.7,2.664,2.664,0,0,0-2.627-2.7" fill="#65c65e"/>
        <path id="Path_14273" data-name="Path 14273" d="M67.9,56.52a5.7,5.7,0,1,1,5.627-5.695A5.668,5.668,0,0,1,67.9,56.52m0-8.39a2.7,2.7,0,1,0,2.627,2.695A2.665,2.665,0,0,0,67.9,48.13" fill="#65c65e"/>
        <path id="Path_14274" data-name="Path 14274" d="M59.951,43.628a5.7,5.7,0,1,1,5.626-5.695,5.668,5.668,0,0,1-5.626,5.695m0-8.39a2.7,2.7,0,1,0,2.626,2.695,2.665,2.665,0,0,0-2.626-2.695" fill="#65c65e"/>
        <path id="Path_14275" data-name="Path 14275" d="M65.688,39.433a1.5,1.5,0,0,1,0-3,4.947,4.947,0,0,0,0-9.892H52.229a1.5,1.5,0,0,1,0-3H65.688a7.947,7.947,0,0,1,0,15.892" fill="#65c65e"/>
        <path id="Path_14276" data-name="Path 14276" d="M63.776,52.325H50.407a7.947,7.947,0,0,1,0-15.893H54.8a1.5,1.5,0,0,1,0,3h-4.39a4.948,4.948,0,0,0,0,9.893H63.776a1.5,1.5,0,0,1,0,3" fill="#65c65e"/>
      </g>
    </g>
    <rect id="Rectangle_6994" data-name="Rectangle 6994" width="120" height="120" transform="translate(1103 3814)" fill="none"/>
  </g>
</svg>
