<svg xmlns="http://www.w3.org/2000/svg" xmlns:xlink="http://www.w3.org/1999/xlink" width="51.217" height="47.421" viewBox="0 0 51.217 47.421">
  <defs>
    <clipPath id="clip-path">
      <rect id="Rectangle_6985" data-name="Rectangle 6985" width="51.217" height="47.421" fill="#fff"/>
    </clipPath>
  </defs>
  <g id="Group_8907" data-name="Group 8907" clip-path="url(#clip-path)">
    <path id="Path_21529" data-name="Path 21529" d="M48.262,28.031A13.031,13.031,0,1,0,35.231,41.062,13.033,13.033,0,0,0,48.262,28.031M45.939,26.9H42.6a17.835,17.835,0,0,0-2.266-8.328A10.847,10.847,0,0,1,45.939,26.9m-3.4,2.266h3.343a10.745,10.745,0,0,1-5.552,8.385,18.083,18.083,0,0,0,2.21-8.385M36.364,17.55c2.153,1.076,3.683,5.269,3.909,9.348H36.364Zm0,11.614h3.909c-.227,4.079-1.756,8.272-3.909,9.348Zm-11.841,0h3.343a17.835,17.835,0,0,0,2.266,8.328,10.755,10.755,0,0,1-5.609-8.328M27.866,26.9H24.523a10.755,10.755,0,0,1,5.609-8.328A18.532,18.532,0,0,0,27.866,26.9M34.1,38.512c-2.153-1.076-3.683-5.269-3.909-9.348H34.1Zm0-11.614H30.188c.227-4.079,1.756-8.272,3.909-9.348Z" transform="translate(-9.622 -6.502)" fill="#fff"/>
    <path id="Path_21530" data-name="Path 21530" d="M44.872,42.355a1.1,1.1,0,0,0-1.473.623,20.745,20.745,0,0,1-3.173,5.1,1.045,1.045,0,0,0-.283.68,29.035,29.035,0,0,0,1.473,10.085l-.567-.057a8.959,8.959,0,0,1-7.082-4.7,1.191,1.191,0,0,0-1.416-.567,19.9,19.9,0,0,1-6.742,1.19A19.338,19.338,0,0,1,6.345,36.349l1.813,2.266a1.1,1.1,0,0,0,1.586.17,1.183,1.183,0,0,0,.453-.906.989.989,0,0,0-.227-.68L6.232,32.5a1.2,1.2,0,0,0-.85-.4,1.153,1.153,0,0,0-.85.34L.34,36.746a1.1,1.1,0,0,0,0,1.586,1.1,1.1,0,0,0,1.586,0l2.153-2.21A21.582,21.582,0,0,0,25.609,57.029a21.884,21.884,0,0,0,6.629-1.02,11.255,11.255,0,0,0,8.385,5.1l2.38.227h.113a1.183,1.183,0,0,0,.906-.453,1.213,1.213,0,0,0,.17-1.076l-.453-1.02a26.057,26.057,0,0,1-1.586-9.518,21.119,21.119,0,0,0,3.286-5.382,1.17,1.17,0,0,0-.567-1.53" transform="translate(0 -13.913)" fill="#fff"/>
    <path id="Path_21531" data-name="Path 21531" d="M55.232,18.7a1.1,1.1,0,0,0-1.586,0l-2.153,2.21a21.535,21.535,0,0,0-41.359-7.762,1.131,1.131,0,0,0,2.1.85,19.28,19.28,0,0,1,37,6.629l-1.813-2.266a1.1,1.1,0,0,0-1.586-.17,1.183,1.183,0,0,0-.453.906.989.989,0,0,0,.227.68l3.739,4.7a1.2,1.2,0,0,0,.85.4h.057a1.029,1.029,0,0,0,.793-.34l4.193-4.306a1.03,1.03,0,0,0,0-1.53" transform="translate(-4.355)" fill="#fff"/>
  </g>
</svg>
