<svg xmlns="http://www.w3.org/2000/svg" width="140" height="140" viewBox="0 0 140 140">
  <g id="Group_8920" data-name="Group 8920" transform="translate(-960 -4273)">
    <g id="Group_8902" data-name="Group 8902">
      <path id="Path_21477" data-name="Path 21477" d="M70,0A70,70,0,1,1,0,70,70,70,0,0,1,70,0Z" transform="translate(960 4273)" fill="#bce2af"/>
      <g id="Group_8895" data-name="Group 8895" transform="translate(994.911 4307.819)">
        <g id="Group_8896" data-name="Group 8896">
          <path id="Path_21527" data-name="Path 21527" d="M46.3,32.93l3.79-2.14a2.877,2.877,0,0,0,1.36-2.62,5.891,5.891,0,0,1-.49-1.36l-10.98,6.31c-.29.19-.1.58.19.68,1.76.68,4.57,0,6.13-.87m16.22,14.18a.875.875,0,1,1,1.75,0v6.7a1.483,1.483,0,0,0,2.23-1.17.863.863,0,0,1,.49-.78,2.283,2.283,0,0,0,.68-3.98.8.8,0,0,1-.1-1.17,3.088,3.088,0,0,0,.49-1.17,2.135,2.135,0,0,0-2.04-2.14.854.854,0,0,1-.78-1.07,1.87,1.87,0,1,0-3.7,0,.907.907,0,0,1-.78,1.07,2.135,2.135,0,0,0-2.04,2.14,2.936,2.936,0,0,0,.49,1.17.8.8,0,0,1-.1,1.17,2.282,2.282,0,0,0,.68,3.98.881.881,0,0,1,.49.78,1.483,1.483,0,0,0,2.23,1.17v-6.7Zm1.75,8.45v4.08a28.975,28.975,0,0,1,5.63,7.77c.1.68-.1,1.36-.97,1.17a32.026,32.026,0,0,0-6.22.39c-3.79.49-7.97,1.36-10.39-2.72a6.573,6.573,0,0,1-.97-3.5c-2.82,3.11-6.99,6.12-11.37,4.95l.19.39c.39.68-.1,1.36-.97,1.26-1.55-.39-4.76,0-7.87.39-3.89.49-8.16,1.46-11.27-.87a8.291,8.291,0,0,1-3.11-5.34c-2.33,3.98-5.25,5.44-6.99,5.83C1.8,71.4-2.379,62.17,1.411,56.54V31.86a.864.864,0,0,1,.39-.78l9.81-5.93v-10a.864.864,0,0,1,.87-.87h2.04V11.56a.864.864,0,0,1,.87-.87h3.4V2.13a.827.827,0,1,1,1.65,0v8.55h2.53V.87a.864.864,0,0,1,.87-.87h15.15a.857.857,0,0,1,.78.87V8.93l9.03,6.12a.735.735,0,0,1,.39.68v10.1l2.04-1.17a3.029,3.029,0,0,1,1.26-1.46,4.509,4.509,0,0,1-1.46-3.21V15.62c.1-2.23,1.26-5.63,3.11-7.09a2.016,2.016,0,0,1,3.3,1.55V23.97a4.447,4.447,0,0,1,.78,1.85,4.622,4.622,0,0,1,3.4.39l3.79,2.23c1.94,1.17,4.27,3.89,4.57,6.22a2.066,2.066,0,0,1-3.01,2.14l-9.69-5.62.68,12.05a3.707,3.707,0,0,1,1.85-1.36,3.6,3.6,0,0,1,3.59-3.3,3.446,3.446,0,0,1,3.5,3.3,3.614,3.614,0,0,1,2.72,3.89,2.235,2.235,0,0,1-.39,1.36,3.9,3.9,0,0,1-1.17,6.02,3.141,3.141,0,0,1-3.79,2.42m-1.75,2.72V55.56a3.14,3.14,0,0,1-3.79-2.43c-.1,0-.19-.1-.29-.1l.19,3.69a9.727,9.727,0,0,1,3.89,1.56m-9.32,3.3a24.545,24.545,0,0,1,7.97,1.07c1.07.29.58,1.94-.58,1.65a21.664,21.664,0,0,0-7.48-1.07,4.256,4.256,0,0,0,.68,2.14c1.94,3.21,5.73,2.33,8.74,1.94a35.353,35.353,0,0,1,5.15-.49c-2.04-3.59-6.31-9.23-10.98-8.35a4.177,4.177,0,0,0-3.5,3.11m1.94-4.46a10.854,10.854,0,0,1,1.85-.49l-.29-4.27h-4.37l-.1,2.33a7.836,7.836,0,0,0,2.72-.1.821.821,0,0,1,.87,1.26,8.729,8.729,0,0,1-.68,1.27m-18.36,3.49a23.883,23.883,0,0,0,8.65-1.17.861.861,0,0,1,.49,1.65,25.719,25.719,0,0,1-9.03,1.26,5.4,5.4,0,0,0,4.08,3.79c1.36.19,3.89.1,6.9-2.43a23.883,23.883,0,0,0,5.73-7.29,52.068,52.068,0,0,1-6.02-.58c-3.5-.39-7.77-1.46-10.01,2.23a5.889,5.889,0,0,0-.79,2.54m-3.6.2c-4.08-4.27-12.34-7.29-14.28.1a28.48,28.48,0,0,1,10.3,1.36.862.862,0,1,1-.49,1.65A27.108,27.108,0,0,0,18.7,62.66a5.99,5.99,0,0,0,2.33,4.76c2.72,2.04,6.8,1.07,10.1.68a45.616,45.616,0,0,1,6.8-.58,48.149,48.149,0,0,0-4.75-6.71m1.85-.49a7.788,7.788,0,0,1,3.11-5.34V1.75H24.731V14.28h2.04a.864.864,0,0,1,.87.87V55.08c2.73.77,5.25,2.81,7.39,5.24m4.76-6.22c2.33-.78,5.34-.29,7.67,0V51.58l-7.67-5.25V54.1m9.42.3c.49,0,.87.1,1.36.1l1.07-22.73a3.214,3.214,0,0,1-.68.49l-1.75,1.07Zm-29.63,2.23a8.732,8.732,0,0,1,6.31-1.94V15.93H13.371V50.8a22.31,22.31,0,0,0,5.93-2.33c.87-.58,1.36.1,1.26.68a38.872,38.872,0,0,1-.98,7.48M2.2,63.82a31.5,31.5,0,0,0,9.13-5.54.827.827,0,1,1,1.07,1.26,32.641,32.641,0,0,1-9.42,5.83,5.761,5.761,0,0,0,6.61,2.33c1.55-.39,4.27-1.75,6.41-5.93a29.068,29.068,0,0,0,2.82-11.17c-3.89,1.85-8.55,2.62-12.63,4.27A6.786,6.786,0,0,0,2.2,63.82m.87-9.13c2.23-1.75,5.93-2.53,8.55-3.3V27.2l-8.55,5.15v3.4l5.54-3.3a.85.85,0,1,1,.87,1.46l-6.41,3.87v3.4l5.54-3.3a.85.85,0,1,1,.87,1.46l-6.41,3.89v3.3l5.54-3.3c.97-.58,1.85.97.87,1.46l-6.41,3.89v6.11m51.49-32.16a5.215,5.215,0,0,1,1.26.19V10.1c0-.39-.39-.39-.68-.19-1.46,1.17-2.23,3.98-2.33,5.73v4.37a3.029,3.029,0,0,0,1.65,2.53h.1Zm3.2,5.35a3.049,3.049,0,0,1-.87,1.07l10.98,6.31c.29.19.49-.1.49-.39-.29-1.85-2.33-3.98-3.79-4.95l-3.79-2.14a3.046,3.046,0,0,0-3.02.1m-2.82,1.94h-.39a2.531,2.531,0,0,1-1.17-.19l-.97,20.98h4.18l-1.17-20.5Zm-.38-5.54a1.887,1.887,0,0,0-1.94,1.94,1.94,1.94,0,1,0,3.88,0,1.892,1.892,0,0,0-1.94-1.94m-7.87,3.01-6.9-4.66v3.89l3.79,2.53Zm-4.67,2.72-2.23-1.46v2.72Zm-2.23,5.44v2.91l7.67,5.25V39.72l-5.73-3.98a6.069,6.069,0,0,1-1.94-.29m4.57,0,3.11,2.23v-3.4l-.29.19a10.265,10.265,0,0,1-2.82.98m-4.57-24.48v3.69l7.67,5.25V16.22Zm0,5.74V20.6l7.67,5.25V21.96Zm0,23.7V44.2l7.67,5.34V45.65ZM30.851,6.02h4.76a.864.864,0,0,1,.87.87v5.25a.864.864,0,0,1-.87.87h-4.76a.864.864,0,0,1-.87-.87V6.89a.871.871,0,0,1,.87-.87m3.99,1.65h-3.21v3.69h3.21Zm-3.99,8.55h4.76a.787.787,0,0,1,.87.78v5.34a.857.857,0,0,1-.87.78h-4.76a.85.85,0,0,1-.87-.78V17a.792.792,0,0,1,.87-.78m3.99,1.65h-3.21v3.59h3.21Zm-3.99,8.45h4.76a.85.85,0,0,1,.87.78v5.34a.792.792,0,0,1-.87.78h-4.76a.787.787,0,0,1-.87-.78V27.1a.857.857,0,0,1,.87-.78m3.99,1.65h-3.21v3.59h3.21Zm-3.99,8.26h4.76a.864.864,0,0,1,.87.87v5.25a.864.864,0,0,1-.87.87h-4.76a.864.864,0,0,1-.87-.87V37.1a.871.871,0,0,1,.87-.87m3.99,1.65h-3.21v3.69h3.21ZM16.961,19.13H22.3a.864.864,0,0,1,.87.87v5.34a.864.864,0,0,1-.87.87h-5.34a.864.864,0,0,1-.87-.87V20a.871.871,0,0,1,.87-.87m4.47,1.75h-3.59v3.59h3.59Zm-4.47,8.45H22.3a.787.787,0,0,1,.87.78v5.34a.864.864,0,0,1-.87.87h-5.34a.864.864,0,0,1-.87-.87V30.11a.792.792,0,0,1,.87-.78m4.47,1.65h-3.59v3.59h3.59Zm-4.47,8.46H22.3a.864.864,0,0,1,.87.87v5.25a.864.864,0,0,1-.87.87h-5.34a.864.864,0,0,1-.87-.87V40.31a.813.813,0,0,1,.87-.87m4.47,1.65h-3.59v3.59h3.59Zm-5.15-26.81h6.7V12.43h-6.7v1.85" fill="#2151c6"/>
          <path id="Path_21527_-_Outline" data-name="Path 21527 - Outline" d="M25.3,70.863a8.806,8.806,0,0,1-5.54-1.593l-.01-.008a8.715,8.715,0,0,1-3.026-4.44c-2.549,3.734-5.447,4.753-6.649,5.024a9.811,9.811,0,0,1-2.367.3h0a7.737,7.737,0,0,1-4.28-1.237A8.385,8.385,0,0,1,.619,65.8,9.4,9.4,0,0,1,.911,56.39V31.86a1.356,1.356,0,0,1,.645-1.216l9.555-5.776V15.15a1.372,1.372,0,0,1,1.37-1.37h1.54V11.56a1.372,1.372,0,0,1,1.37-1.37h2.9V2.13a1.383,1.383,0,0,1,.414-1.021A1.331,1.331,0,0,1,20.941,2.13v8.05h1.53V.87A1.372,1.372,0,0,1,23.841-.5h15.15A1.362,1.362,0,0,1,40.271.87V8.665l8.808,5.97a1.225,1.225,0,0,1,.612,1.1v9.237l1.136-.651a3.227,3.227,0,0,1,.922-1.183,4.785,4.785,0,0,1-1.218-3.142V15.6c.111-2.472,1.373-5.933,3.293-7.455a2.425,2.425,0,0,1,1.582-.579,2.594,2.594,0,0,1,1.744.684,2.467,2.467,0,0,1,.79,1.832V23.82a5.245,5.245,0,0,1,.664,1.412,5.043,5.043,0,0,1,3.254.538l.015.009,3.795,2.233a11.71,11.71,0,0,1,3.038,2.8,8.379,8.379,0,0,1,1.769,3.776,2.448,2.448,0,0,1-.542,2.019,2.6,2.6,0,0,1-1.994.928,2.656,2.656,0,0,1-1.191-.284l-.028-.015-8.888-5.155.564,9.987a4.471,4.471,0,0,1,.947-.546,4.1,4.1,0,0,1,6.841-2.356,3.693,3.693,0,0,1,1.2,2.337,4.106,4.106,0,0,1,2.739,4.285,2.913,2.913,0,0,1-.283,1.3A4.4,4.4,0,0,1,68.5,53.466a3.634,3.634,0,0,1-3.539,2.674q-.1,0-.194-.005v3.287a29.792,29.792,0,0,1,5.574,7.758l.039.074.012.083a1.718,1.718,0,0,1-.3,1.389,1.134,1.134,0,0,1-.893.386,1.791,1.791,0,0,1-.368-.041,5.882,5.882,0,0,0-.876-.052c-1.291,0-3.262.226-5.169.445l-.023,0-.736.1a28.268,28.268,0,0,1-3.727.336,8.23,8.23,0,0,1-3.517-.677,6.524,6.524,0,0,1-2.9-2.712,6.85,6.85,0,0,1-.954-2.6,19.033,19.033,0,0,1-3.563,2.862,10.46,10.46,0,0,1-5.43,1.687,8.122,8.122,0,0,1-1.154-.082,1.245,1.245,0,0,1-.154.813,1.43,1.43,0,0,1-1.271.671,1.978,1.978,0,0,1-.225-.013l-.033,0-.032-.008a7.023,7.023,0,0,0-1.623-.146,55.059,55.059,0,0,0-6.063.548c-.462.058-.941.125-1.4.189A34.588,34.588,0,0,1,25.3,70.863Zm-4.935-2.389A7.869,7.869,0,0,0,25.3,69.863a33.854,33.854,0,0,0,4.549-.428c.466-.065.949-.132,1.418-.191a55.671,55.671,0,0,1,6.188-.555,8,8,0,0,1,1.831.168.5.5,0,0,0,.488-.168.364.364,0,0,0-.038-.349l-.016-.03-.67-1.375,1.058.283a7.124,7.124,0,0,0,1.838.241,9.483,9.483,0,0,0,4.91-1.541,19.015,19.015,0,0,0,4.123-3.5l.87-.96v1.3a6.087,6.087,0,0,0,.892,3.232l.008.013C53.943,68,55.657,68.9,58.308,68.9a27.53,27.53,0,0,0,3.593-.327l.745-.1.034,0c1.934-.222,3.935-.451,5.282-.451a6.666,6.666,0,0,1,1.048.067l.027.005a.808.808,0,0,0,.169.021c.1,0,.127-.029.137-.04a.764.764,0,0,0,.073-.511,28.338,28.338,0,0,0-5.483-7.553l-.162-.149V54.928l.615.145a2.519,2.519,0,0,0,.579.067,2.605,2.605,0,0,0,2.6-2.082l.041-.247.222-.115a3.4,3.4,0,0,0,1.019-5.252l-.258-.3.237-.319a1.726,1.726,0,0,0,.291-1.062v-.026l0-.025a3.1,3.1,0,0,0-2.357-3.357l-.365-.1V41.87a2.944,2.944,0,0,0-3-2.8A3.084,3.084,0,0,0,60.31,41.9l-.018.327-.307.114a3.185,3.185,0,0,0-1.619,1.184l-.825,1.145L56.73,30.282l10.478,6.077a1.662,1.662,0,0,0,.732.173,1.621,1.621,0,0,0,1.228-.571,1.464,1.464,0,0,0,.321-1.215l0-.023c-.271-2.1-2.457-4.723-4.33-5.854l-3.78-2.224a3.978,3.978,0,0,0-1.908-.483,4.691,4.691,0,0,0-1.126.143l-.535.133-.08-.545a3.915,3.915,0,0,0-.7-1.644l-.085-.127V10.08a1.51,1.51,0,0,0-1.534-1.516,1.438,1.438,0,0,0-.942.347l-.014.011c-1.3,1.029-2.79,3.885-2.92,6.709V19.99a4,4,0,0,0,1.314,2.856l.43.43-.5.339a2.548,2.548,0,0,0-1.064,1.2l-.06.183-2.955,1.695V15.73c0-.1,0-.154-.164-.262l-.007,0L39.271,9.2V.87a.372.372,0,0,0-.28-.37H23.841a.366.366,0,0,0-.37.37V11.18h-3.53V2.13c0-.341-.227-.378-.325-.378s-.325.037-.325.378v9.06h-3.9a.366.366,0,0,0-.37.37v3.22h-2.54a.366.366,0,0,0-.37.37V25.432l-10.086,6.1a.442.442,0,0,0-.114.333V56.693l-.085.127A8.37,8.37,0,0,0,1.5,65.333a6.887,6.887,0,0,0,6.206,3.816,8.8,8.8,0,0,0,2.131-.274l.012,0a8.446,8.446,0,0,0,3.087-1.484,13.48,13.48,0,0,0,3.581-4.111l.716-1.224.21,1.4A7.76,7.76,0,0,0,20.366,68.474Zm5.194.7a7.789,7.789,0,0,1-4.829-1.354,6.478,6.478,0,0,1-2.53-5.16V62.2l.458-.039c.6-.051,1.209-.077,1.821-.077a29.256,29.256,0,0,1,8.361,1.352.609.609,0,0,0,.138.017.39.39,0,0,0,.389-.351c.022-.178-.075-.3-.287-.348l-.034-.01A28.076,28.076,0,0,0,20.4,61.369c-.49,0-.986.013-1.473.04l-.685.037.174-.663a6.693,6.693,0,0,1,2.266-3.733,5.676,5.676,0,0,1,3.558-1.129c3.424,0,7.135,2.279,9.3,4.539a48.015,48.015,0,0,1,4.837,6.831l.4.776-.872-.047c-.187-.01-.39-.015-.6-.015a41.259,41.259,0,0,0-4.8.43c-.431.054-.878.11-1.315.163-.468.055-.946.122-1.451.192A30.731,30.731,0,0,1,25.56,69.174Zm-6.34-6.051a5.453,5.453,0,0,0,2.112,3.9,6.753,6.753,0,0,0,4.228,1.153A29.991,29.991,0,0,0,29.6,67.8c.51-.071.992-.138,1.47-.194.434-.052.878-.108,1.308-.162a45.249,45.249,0,0,1,4.678-.436,50.116,50.116,0,0,0-4.23-5.841l-.01-.01a15.4,15.4,0,0,0-4.044-2.991,10.257,10.257,0,0,0-4.534-1.244,4.7,4.7,0,0,0-2.947.92,5.33,5.33,0,0,0-1.71,2.54c.273-.008.546-.012.818-.012a29.071,29.071,0,0,1,8.938,1.42,1.293,1.293,0,0,1,1.021,1.435,1.382,1.382,0,0,1-1.382,1.23,1.616,1.616,0,0,1-.388-.049L28.57,64.4a28.311,28.311,0,0,0-8.091-1.315C20.058,63.085,19.636,63.1,19.22,63.123ZM7.752,68.444a6.08,6.08,0,0,1-5.19-2.8l-.335-.515L2.8,64.9a31.887,31.887,0,0,0,9.275-5.743l.018-.015a.278.278,0,0,0,.112-.336.378.378,0,0,0-.315-.264.351.351,0,0,0-.226.107l-.015.013a31.5,31.5,0,0,1-9.275,5.623l-.471.175-.172-.472a7.927,7.927,0,0,1-.013-5.438A7.057,7.057,0,0,1,6.009,54.4a59.792,59.792,0,0,1,5.725-1.87,46.061,46.061,0,0,0,6.872-2.386l.781-.371-.068.862A29.854,29.854,0,0,1,16.445,62a13.738,13.738,0,0,1-3.558,4.547,8.436,8.436,0,0,1-3.174,1.638A7.868,7.868,0,0,1,7.752,68.444Zm-3.989-2.85a5.018,5.018,0,0,0,3.989,1.85,6.876,6.876,0,0,0,1.714-.229,7.435,7.435,0,0,0,2.8-1.45,12.758,12.758,0,0,0,3.293-4.223,28,28,0,0,0,2.692-10.134,53.55,53.55,0,0,1-6.235,2.087,58.986,58.986,0,0,0-5.634,1.839l-.012,0a6.085,6.085,0,0,0-3.713,3.569,6.87,6.87,0,0,0-.14,4.258A31.153,31.153,0,0,0,11.006,57.9a1.329,1.329,0,0,1,.885-.355,1.372,1.372,0,0,1,1.26.939,1.273,1.273,0,0,1-.431,1.442A33.26,33.26,0,0,1,3.763,65.594Zm54.779,2.627a7.049,7.049,0,0,1-2.851-.517,5.049,5.049,0,0,1-2.328-2.076l-.006-.01a4.748,4.748,0,0,1-.746-2.389v-.481l.48-.019c.265-.01.535-.016.8-.016a22.415,22.415,0,0,1,6.833,1.1.587.587,0,0,0,.131.016.417.417,0,0,0,.4-.378.267.267,0,0,0-.22-.324l-.011,0a24.3,24.3,0,0,0-6.989-1.065c-.272,0-.548.005-.82.015l-.662.024.158-.643a4.675,4.675,0,0,1,3.9-3.483,5.833,5.833,0,0,1,1.071-.1c2.035,0,4.135,1.047,6.241,3.113a26.46,26.46,0,0,1,4.189,5.582l.424.747h-.859a34.705,34.705,0,0,0-5.073.484l-.013,0c-.269.035-.54.073-.827.114A23.254,23.254,0,0,1,58.542,68.221Zm-4.32-3.105c.882,1.456,2.215,2.105,4.32,2.105a22.51,22.51,0,0,0,3.087-.292c.288-.041.559-.079.832-.114a40.715,40.715,0,0,1,4.358-.475,24.552,24.552,0,0,0-3.591-4.635c-1.913-1.876-3.777-2.827-5.541-2.827a4.831,4.831,0,0,0-.892.083l-.013,0a3.749,3.749,0,0,0-2.874,2.1h.133a25.28,25.28,0,0,1,7.268,1.1,1.255,1.255,0,0,1,.944,1.419,1.409,1.409,0,0,1-1.395,1.246,1.6,1.6,0,0,1-.387-.049l-.032-.009a21.424,21.424,0,0,0-6.545-1.061h-.237A4.5,4.5,0,0,0,54.222,65.116ZM41.89,66.7a7.166,7.166,0,0,1-.988-.068h-.008A5.873,5.873,0,0,1,36.4,62.459l-.145-.651.665.043c.391.025.793.038,1.193.038a26.459,26.459,0,0,0,7.661-1.278l.011,0a.278.278,0,0,0,.222-.346c-.019-.143-.124-.356-.334-.356a.435.435,0,0,0-.107.015,25.372,25.372,0,0,1-7.512,1.231h0c-.439,0-.879-.014-1.308-.042l-.524-.034.06-.522a6.419,6.419,0,0,1,.862-2.746,6.255,6.255,0,0,1,5.82-2.915,26.993,26.993,0,0,1,3.455.3c.422.055.821.107,1.216.151h.009l.329.043a48.276,48.276,0,0,0,5.626.533h.849l-.411.742A24.581,24.581,0,0,1,48.187,64.1,10.124,10.124,0,0,1,41.89,66.7Zm-.845-1.058a6.165,6.165,0,0,0,.845.058,8.978,8.978,0,0,0,5.659-2.376l.012-.01A22.562,22.562,0,0,0,52.754,56.9c-1.44-.068-3.134-.289-4.909-.52l-.325-.042c-.4-.045-.823-.1-1.23-.153a26.25,26.25,0,0,0-3.326-.292c-2.412,0-3.944.752-4.967,2.438l0,.008a4.879,4.879,0,0,0-.642,1.8c.234.009.47.013.7.013a24.385,24.385,0,0,0,7.225-1.189l.018-.005a1.441,1.441,0,0,1,.376-.051A1.363,1.363,0,0,1,47,60.129a1.27,1.27,0,0,1-.943,1.442,27.409,27.409,0,0,1-7.943,1.318q-.261,0-.521-.007a4.932,4.932,0,0,0,1.13,1.545A4.606,4.606,0,0,0,41.045,65.645Zm-5.665-4.173-.724-.822c-2.389-2.712-4.795-4.425-7.15-5.089l-.364-.1V15.15a.366.366,0,0,0-.37-.37h-2.54V1.25h14.41V55.236l-.208.15a7.262,7.262,0,0,0-2.907,5Zm-7.238-6.763a16.251,16.251,0,0,1,6.588,4.538,8.147,8.147,0,0,1,2.912-4.518V2.25H25.231V13.78h1.54a1.372,1.372,0,0,1,1.37,1.37Zm34.88,4.505-.777-.518a9.28,9.28,0,0,0-3.685-1.481l-.406-.06-.238-4.625h.526a.775.775,0,0,1,.363.1h.35l.069.418a2.608,2.608,0,0,0,2.6,2.092,2.519,2.519,0,0,0,.578-.067l.615-.145ZM59.11,56.3a10,10,0,0,1,2.911,1.093V56.135q-.1.005-.193.005a3.722,3.722,0,0,1-2.791-1.258Zm-5.31,1.79.94-1.264a5.014,5.014,0,0,0,.461-.839c.057-.12.116-.245.175-.361l.013-.026.016-.025a.341.341,0,0,0,.01-.349.28.28,0,0,0-.25-.159.4.4,0,0,0-.087.01,5.745,5.745,0,0,1-1.583.182c-.388,0-.829-.023-1.311-.068l-.473-.044.141-3.284h5.316l.353,5.2-.457.067a9.976,9.976,0,0,0-1.681.442ZM56.254,56.1c-.03.059-.06.122-.091.187q.147-.037.3-.07l-.036-.528A1.312,1.312,0,0,1,56.254,56.1Zm-1.089-2.037a1.269,1.269,0,0,1,1.133.689,1.383,1.383,0,0,1,.075.166l-.14-2.058H52.81l-.059,1.37c.268.017.517.026.744.026a4.829,4.829,0,0,0,1.314-.145l.023-.006A1.409,1.409,0,0,1,55.166,54.063Zm-36.4,3.9.331-1.446a38.135,38.135,0,0,0,.968-7.386V49.1l.006-.034a.361.361,0,0,0-.06-.275.105.105,0,0,0-.092-.041.647.647,0,0,0-.337.136,22.055,22.055,0,0,1-6.074,2.4l-.635.178V15.43h13.52V55.237l-.545-.049c-.239-.021-.482-.032-.723-.032A8.263,8.263,0,0,0,19.9,57.014Zm2.3-8.766a38.847,38.847,0,0,1-.721,6.28,9.24,9.24,0,0,1,5.053-1.318V16.43H13.871V50.137a19.381,19.381,0,0,0,5.147-2.08l.005,0a1.619,1.619,0,0,1,.893-.3,1.1,1.1,0,0,1,.856.4A1.346,1.346,0,0,1,21.06,49.2ZM2.571,55.718V48.3l6.686-4.056a.234.234,0,0,0,.141-.3.43.43,0,0,0-.353-.341.353.353,0,0,0-.178.057l-6.3,3.751V42.949l6.651-4.036a.311.311,0,0,0,.174-.376.379.379,0,0,0-.329-.291.393.393,0,0,0-.2.063l-6.3,3.751V37.5l6.652-4.016a.31.31,0,0,0,.173-.376.379.379,0,0,0-.329-.291.393.393,0,0,0-.2.063l-6.3,3.751V32.067l9.55-5.752V51.764l-.359.106c-.457.134-.939.267-1.45.407C7.89,52.943,5.145,53.7,3.38,55.083Zm1-6.857v4.873a25.415,25.415,0,0,1,6.476-2.422c.373-.1.732-.2,1.074-.3V28.085l-7.55,4.548V34.87l4.784-2.85a1.33,1.33,0,0,1,2,.818,1.312,1.312,0,0,1-.62,1.5L3.571,38.062V40.3l4.784-2.85a1.33,1.33,0,0,1,2,.818,1.312,1.312,0,0,1-.62,1.5L3.571,43.511V45.65L8.355,42.8a1.334,1.334,0,0,1,.691-.2,1.408,1.408,0,0,1,1.326,1.111,1.231,1.231,0,0,1-.647,1.414ZM51.048,55h-.477a6.181,6.181,0,0,1-.737-.053,5.311,5.311,0,0,0-.623-.047h-.5V33.05l2.017-1.232a2.739,2.739,0,0,0,.559-.4L52.2,30.5Zm-1.337-1.073.237.026.147.017,1-21.2-1.383.845Zm-10.42.867V45.382l8.67,5.934v3.35L47.4,54.6l-.624-.079a31.573,31.573,0,0,0-3.953-.337,9.033,9.033,0,0,0-2.872.395Zm3.531-1.615a32.339,32.339,0,0,1,4.081.345l.058.007V51.844l-6.67-4.566v6.161A11.043,11.043,0,0,1,42.822,53.18Zm22.171,1.343a1.793,1.793,0,0,1-1-.3l-.223-.148V47.11a.375.375,0,1,0-.75,0v.5h-.01v6.468l-.223.148a1.793,1.793,0,0,1-1,.3,1.979,1.979,0,0,1-2.008-1.882.446.446,0,0,0-.155-.308l-.016-.006a2.887,2.887,0,0,1-1.864-2.242A2.771,2.771,0,0,1,58.8,47.49l.008-.006c.2-.151.089-.36.006-.473a3.291,3.291,0,0,1-.562-1.294l-.029-.114V45.54a2.639,2.639,0,0,1,2.5-2.638l.043,0a.267.267,0,0,0,.183-.114.465.465,0,0,0,.108-.349,2.1,2.1,0,0,1,.391-1.827,2.522,2.522,0,0,1,3.9,0,2.105,2.105,0,0,1,.387,1.84l-.008.031-.011.03a.267.267,0,0,0,.052.215.375.375,0,0,0,.261.174l.043,0a2.639,2.639,0,0,1,2.5,2.638V45.6l-.016.061a3.559,3.559,0,0,1-.573,1.344c-.053.071-.21.316,0,.47l.013.01a2.759,2.759,0,0,1,1.055,2.586,2.888,2.888,0,0,1-1.865,2.251l-.023.008A.43.43,0,0,0,67,52.64,1.979,1.979,0,0,1,64.993,54.522Zm-.222-1.028a.857.857,0,0,0,.222.028A.981.981,0,0,0,66,52.64a1.351,1.351,0,0,1,.818-1.25,1.9,1.9,0,0,0,1.23-1.465,1.747,1.747,0,0,0-.683-1.65,1.288,1.288,0,0,1-.2-1.864,2.484,2.484,0,0,0,.39-.931A1.637,1.637,0,0,0,66,43.9a1.361,1.361,0,0,1-1.061-.609,1.226,1.226,0,0,1-.173-1.106,1.108,1.108,0,0,0-.21-.959,1.524,1.524,0,0,0-2.321,0,1.11,1.11,0,0,0-.2.983l0,.02a1.448,1.448,0,0,1-.312,1.188,1.252,1.252,0,0,1-.932.481,1.637,1.637,0,0,0-1.565,1.581,2.342,2.342,0,0,0,.385.924l0,.007a1.3,1.3,0,0,1-.192,1.861,1.759,1.759,0,0,0-.686,1.659,1.9,1.9,0,0,0,1.231,1.459,1.376,1.376,0,0,1,.816,1.249.981.981,0,0,0,1.008.882.857.857,0,0,0,.222-.028V46.61h.1a1.379,1.379,0,0,1,2.663.5ZM57.12,51.11H51.887l1.029-22.262.683.333a2.1,2.1,0,0,0,.951.139h.529l.825.5Zm-4.186-1h3.127L54.937,30.4,54.8,30.32h-.251a4.926,4.926,0,0,1-.7-.035Zm-4.974.387-8.67-6.036v-5l8.67,5.923Zm-7.67-6.558,6.67,4.644V45.914l-6.67-4.557ZM22.3,46.93h-5.34a1.372,1.372,0,0,1-1.37-1.37V40.31a1.311,1.311,0,0,1,1.37-1.37H22.3a1.372,1.372,0,0,1,1.37,1.37v5.25A1.372,1.372,0,0,1,22.3,46.93Zm-5.34-6.99c-.328,0-.37.2-.37.37v5.25a.366.366,0,0,0,.37.37H22.3a.366.366,0,0,0,.37-.37V40.31a.366.366,0,0,0-.37-.37Zm4.97,5.24h-4.59V40.59h4.59Zm-3.59-1h2.59V41.59h-2.59Zm29.62.378-8.67-5.934V34.749l.663.229a5.555,5.555,0,0,0,1.777.263h.157l6.073,4.219ZM40.291,38.1l6.67,4.566v-2.68l-5.389-3.743a7.128,7.128,0,0,1-1.281-.137Zm-4.68,5.624h-4.76a1.372,1.372,0,0,1-1.37-1.37V37.1a1.372,1.372,0,0,1,1.37-1.37h4.76a1.372,1.372,0,0,1,1.37,1.37v5.25A1.372,1.372,0,0,1,35.611,43.72Zm-4.76-6.99a.37.37,0,0,0-.37.37v5.25a.366.366,0,0,0,.37.37h4.76a.366.366,0,0,0,.37-.37V37.1a.366.366,0,0,0-.37-.37Zm4.49,5.34h-4.21V37.38h4.21Zm-3.21-1h2.21V38.38h-2.21Zm15.84-2.416-4.863-3.487,1.165-.209a9.835,9.835,0,0,0,2.657-.921l1.042-.682Zm-2.434-2.976,1.434,1.028V35.128A11.328,11.328,0,0,1,45.537,35.678ZM22.3,36.82h-5.34a1.372,1.372,0,0,1-1.37-1.37V30.11a1.284,1.284,0,0,1,1.37-1.28H22.3a1.284,1.284,0,0,1,1.37,1.28v5.34A1.372,1.372,0,0,1,22.3,36.82Zm-5.34-6.99c-.111,0-.37.027-.37.28v5.34a.366.366,0,0,0,.37.37H22.3a.366.366,0,0,0,.37-.37V30.11c0-.231-.2-.28-.37-.28ZM68.05,35.821a.814.814,0,0,1-.439-.133L55.99,29.009l.6-.456a2.537,2.537,0,0,0,.724-.892l.074-.151.15-.076a4.314,4.314,0,0,1,1.934-.512,3.035,3.035,0,0,1,1.562.425L64.848,29.5c1.372.911,3.672,3.153,4.007,5.289l.006.038v.039a1.087,1.087,0,0,1-.163.579A.765.765,0,0,1,68.05,35.821ZM57.718,28.849l10.084,5.8a6.3,6.3,0,0,0-1.284-2.261,10.921,10.921,0,0,0-2.21-2.036L60.526,28.21a2.021,2.021,0,0,0-1.057-.289,3.209,3.209,0,0,0-1.341.336A3.61,3.61,0,0,1,57.718,28.849ZM21.931,35.07h-4.59V30.48h4.59Zm-3.59-1h2.59V31.48h-2.59Zm23.537.507h0A5.257,5.257,0,0,1,40,34.269a1,1,0,0,1-.655-.794.793.793,0,0,1,.364-.773l.025-.015,11.581-6.655.139.679a5.284,5.284,0,0,0,.45,1.241l.051.1v.115a3.343,3.343,0,0,1-1.6,3.049l-.011.006-3.79,2.14A10.32,10.32,0,0,1,41.878,34.577Zm-1.365-1.186a4.5,4.5,0,0,0,1.365.186,9.391,9.391,0,0,0,4.18-1.084l3.782-2.135a2.33,2.33,0,0,0,1.11-2.077,7.377,7.377,0,0,1-.3-.717Zm-4.9.329h-4.76a1.284,1.284,0,0,1-1.37-1.28V27.1a1.362,1.362,0,0,1,1.37-1.28h4.76a1.345,1.345,0,0,1,1.37,1.28v5.34A1.284,1.284,0,0,1,35.611,33.72Zm-4.76-6.9a.372.372,0,0,0-.37.28v5.34c0,.231.2.28.37.28h4.76c.111,0,.37-.027.37-.28V27.1a.361.361,0,0,0-.37-.28Zm8.44,5.307v-4.5l3.691,2.416Zm1-2.652v.938l.769-.435Zm-4.95,2.585h-4.21V27.47h4.21Zm-3.21-1h2.21V28.47h-2.21Zm11.428-1.423-4.268-2.849v-5.1l8.349,5.639Zm-3.268-3.384L43.6,28.463l2.139-1.211-5.451-3.681Zm14.27,2.407a2.443,2.443,0,0,1-2.44-2.44,2.44,2.44,0,1,1,4.88,0A2.443,2.443,0,0,1,54.561,28.66Zm0-3.88a1.393,1.393,0,0,0-1.44,1.44,1.44,1.44,0,0,0,2.88,0A1.393,1.393,0,0,0,54.561,24.78Zm-6.6,2.018-8.67-5.934v-5.1l8.67,5.934Zm-7.67-6.462,6.67,4.566V22.224l-6.67-4.566ZM22.3,26.71h-5.34a1.372,1.372,0,0,1-1.37-1.37V20a1.372,1.372,0,0,1,1.37-1.37H22.3A1.372,1.372,0,0,1,23.671,20v5.34A1.372,1.372,0,0,1,22.3,26.71Zm-5.34-7.08a.37.37,0,0,0-.37.37v5.34a.366.366,0,0,0,.37.37H22.3a.366.366,0,0,0,.37-.37V20a.366.366,0,0,0-.37-.37Zm4.97,5.34h-4.59V20.38h4.59Zm-3.59-1h2.59V21.38h-2.59Zm17.27-.35h-4.76a1.345,1.345,0,0,1-1.37-1.28V17a1.284,1.284,0,0,1,1.37-1.28h4.76A1.284,1.284,0,0,1,36.981,17v5.34A1.362,1.362,0,0,1,35.611,23.62Zm-4.76-6.9c-.111,0-.37.027-.37.28v5.34a.361.361,0,0,0,.37.28h4.76a.372.372,0,0,0,.37-.28V17c0-.231-.2-.28-.37-.28Zm25.47,6.629-.718-.166a5.264,5.264,0,0,0-.8-.143h-.487l-.12-.073a3.494,3.494,0,0,1-1.89-2.957v-4.4c.1-1.717.849-4.756,2.517-6.092l.029-.021a1.191,1.191,0,0,1,.664-.22.785.785,0,0,1,.8.822ZM54.59,22.03a4.26,4.26,0,0,1,.731.07V10.414c-1.24,1.129-1.919,3.7-2.01,5.241V20.01A2.424,2.424,0,0,0,54.59,22.03Zm-19.249-.07h-4.21V17.37h4.21Zm-3.21-1h2.21V18.37h-2.21Zm15.83-.1-8.67-5.934v-4.9l8.67,5.934ZM40.291,14.4l6.67,4.566V16.484l-6.67-4.566Zm-16.81.384h-7.7V11.93h7.7Zm-6.7-1h5.7v-.85h-5.7Zm18.83-.27h-4.76a1.372,1.372,0,0,1-1.37-1.37V6.89a1.372,1.372,0,0,1,1.37-1.37h4.76a1.372,1.372,0,0,1,1.37,1.37v5.25A1.372,1.372,0,0,1,35.611,13.51Zm-4.76-6.99a.37.37,0,0,0-.37.37v5.25a.366.366,0,0,0,.37.37h4.76a.366.366,0,0,0,.37-.37V6.89a.366.366,0,0,0-.37-.37Zm4.49,5.34h-4.21V7.17h4.21Zm-3.21-1h2.21V8.17h-2.21Z" fill="#2151c6"/>
        </g>
      </g>
    </g>
  </g>
</svg>
