<svg xmlns="http://www.w3.org/2000/svg" width="140" height="140" viewBox="0 0 140 140">
  <g id="Group_8925" data-name="Group 8925" transform="translate(-1504 -4840)">
    <g id="Group_8899" data-name="Group 8899">
      <circle id="Ellipse_9" data-name="Ellipse 9" cx="70" cy="70" r="70" transform="translate(1504 4840)" fill="#bce2af"/>
      <g id="Group_8880" data-name="Group 8880" transform="translate(1520.11 4873.545)">
        <g id="Group_8881" data-name="Group 8881">
          <path id="Path_21518" data-name="Path 21518" d="M11.032,19.064,5.563,14.29a1.147,1.147,0,0,1-.285-.381L.1,2.641A1.133,1.133,0,0,1,1,1.043L9.467.008a1.134,1.134,0,0,1,1.271,1.126V1.39l12.216,4.7h7.883V5.426A1.133,1.133,0,0,1,31.97,4.293h6.211a1.135,1.135,0,0,1,.672.219l6.282,4.625a1.137,1.137,0,0,1,.422.616l.812,2.994,3.45,2.447.613-.631,1.144-2.519a1.134,1.134,0,0,1,1.332-.625l3.375.925a1.146,1.146,0,0,1,.44.234L59.777,15.2a1.124,1.124,0,0,1,.324.466l1.183,3.2,2.471,2.709a1.165,1.165,0,0,1,.238.406L65.2,25.6l3.861,1.561h2.557a1.132,1.132,0,0,1,.993,1.679l-1.251,2.275-1.37,3.881.422,5.283a1.135,1.135,0,0,1-.018.309l-.385,1.954,1.656,5.441,3.93,5.8,4.828,2.827,6.469-1.834a1.126,1.126,0,0,1,.639.006l3.151.956,2.129-3.569.874-4.989a1.134,1.134,0,0,1,.825-.9l7.317-1.944q.1-.026,4.9-.039a1.133,1.133,0,0,1,1.1.856l.612,2.426a1.133,1.133,0,0,1-.133.871l-2.336,3.81-.761,4.992a1.135,1.135,0,0,1-1.121.962h-1.646l-2.218,1.394a1.124,1.124,0,0,1-.417.158L93.04,60.893l-.321.385,2.9,3.017a1.134,1.134,0,0,1-.419,1.847l-4.766,1.791a27.065,27.065,0,0,1-.4,2.711,4.049,4.049,0,0,1-.338,1.024,1.227,1.227,0,0,1-1.9.513c-.376-.275-2.355-2.189-6.3-6.078l-2.243-.572-4.651,2.861a1.13,1.13,0,0,1-.974.1l-13.7-4.87q-.083-.029-6.146-3.927l-5.73-1.521a1.13,1.13,0,0,1-.546-.332L45.9,56.1l-4.519-3.32a1.137,1.137,0,0,1-.462-.914V47.377a1.135,1.135,0,0,1,.422-.882,4.252,4.252,0,0,1-.381-.764L39.9,41.86,32.79,33.794l-5.11-4.251A1.133,1.133,0,0,1,27.493,28l.319-.432-4.685-4.4-2.346-2.9-4-3.334a1.136,1.136,0,0,1-.346-.5l-2.1-6.068L11.521,9.321v2l3.388,4.006L17.182,18a1.169,1.169,0,0,1,.212.379L18.5,21.732l3.9,3.92a1.131,1.131,0,0,1,.264.419l2.226,6.29,4.934,4.975a1.132,1.132,0,0,1,.033,1.561l-2.314,2.54a1.134,1.134,0,0,1-1.849-.251l-1.172-2.314-6.454-5a1.132,1.132,0,0,1-.439-.9v-3.86l-2.57-2.769-.382.256a1.134,1.134,0,0,1-1.347-.065l-5.2-4.247a1.132,1.132,0,0,1,.716-2.01h1.7ZM2.812,3.1l4.425,9.637,5.889,5.142a1.136,1.136,0,0,1,.308,1.274l-1.067,2.679a1.136,1.136,0,0,1-.512.575l2.257,1.842.489-.324a1.131,1.131,0,0,1,1.46.171l3.53,3.8a1.132,1.132,0,0,1,.3.77v3.752l6.215,4.814a1.143,1.143,0,0,1,.317.384L26.97,38.7l.483-.529L23.1,33.777a1.122,1.122,0,0,1-.264-.422L20.609,27.07,16.7,23.14a1.137,1.137,0,0,1-.273-.444L15.311,19.3,13.18,16.794,9.522,12.469a1.134,1.134,0,0,1-.268-.732V7.693a1.134,1.134,0,0,1,1.527-1.064l4.844,1.8a1.13,1.13,0,0,1,.677.691l2.173,6.275,3.844,3.2,2.418,2.972L30.1,26.605a1.132,1.132,0,0,1,.135,1.5l-.281.381,4.355,3.622,7.471,8.452a1.123,1.123,0,0,1,.243.45l.9,3.289h1.543a1.133,1.133,0,0,1,.712,2.015l-1.986,1.6v3.371l4.149,3.048,1.61,1.734,5.58,1.482a1.168,1.168,0,0,1,.324.143l5.95,3.838,13.065,4.644,4.6-2.829a1.139,1.139,0,0,1,.875-.133l3.006.767a1.139,1.139,0,0,1,.516.291c2.328,2.3,4.061,3.99,5.111,5,.092-.6.185-1.353.278-2.27a1.132,1.132,0,0,1,.729-.946l3.811-1.432-2.409-2.51a1.134,1.134,0,0,1-.052-1.512l1.24-1.486a1.14,1.14,0,0,1,.685-.392l6.956-1.158,2.3-1.446a1.137,1.137,0,0,1,.6-.173h1l.648-4.255a1.147,1.147,0,0,1,.154-.422l2.207-3.6-.279-1.106h-3.581L95.79,48.286l-.784,4.481a1.111,1.111,0,0,1-.144.384l-2.69,4.511a1.133,1.133,0,0,1-1.3.5l-3.682-1.117-6.615,1.876a1.138,1.138,0,0,1-.882-.112l-5.466-3.2a1.14,1.14,0,0,1-.366-.343l-4.17-6.158a1.135,1.135,0,0,1-.146-.306l-1.788-5.876a1.129,1.129,0,0,1-.028-.55l.41-2.079-.428-5.366a1.157,1.157,0,0,1,.061-.469l1.483-4.2.448-.843h-.861a1.145,1.145,0,0,1-.425-.084L63.863,27.5a1.137,1.137,0,0,1-.651-.693l-1.294-3.881-2.457-2.7a1.115,1.115,0,0,1-.226-.37l-1.158-3.13-2.639-2.269-2.2-.6-.825,1.817A1.159,1.159,0,0,1,52.2,16l-1.427,1.468A1.134,1.134,0,0,1,49.3,17.6l-4.574-3.243a1.13,1.13,0,0,1-.439-.628l-.815-3L37.809,6.56H33.1v.662A1.133,1.133,0,0,1,31.97,8.355H22.743a1.136,1.136,0,0,1-.407-.076L9.2,3.226a1.135,1.135,0,0,1-.7-.816Z" transform="translate(0 0)" fill="#2151c6" fill-rule="evenodd"/>
          <path id="Path_21518_-_Outline" data-name="Path 21518 - Outline" d="M9.605-.75A1.886,1.886,0,0,1,11.469.867L23.093,5.338h7a1.886,1.886,0,0,1,1.882-1.8h6.211a1.875,1.875,0,0,1,1.115.364l6.283,4.626a1.9,1.9,0,0,1,.7,1.024l.741,2.734,2.707,1.92.075-.077,1.09-2.4a1.883,1.883,0,0,1,2.213-1.038l3.374.925a1.908,1.908,0,0,1,.727.385l3.058,2.629a1.879,1.879,0,0,1,.54.778l1.131,3.058,2.373,2.6a1.909,1.909,0,0,1,.394.669l0,0,1.1,3.285,3.4,1.376h2.411a1.882,1.882,0,0,1,1.65,2.79l-1.222,2.221-1.3,3.673.409,5.124a1.888,1.888,0,0,1-.03.516L70.778,42.5l1.569,5.153,3.771,5.57,4.405,2.58,6.161-1.747a1.888,1.888,0,0,1,1.062.01l2.589.785L92.093,51.9l.85-4.853a1.888,1.888,0,0,1,1.371-1.5l7.317-1.944c.139-.037.186-.05,5.094-.064a1.881,1.881,0,0,1,1.828,1.422l.612,2.426a1.871,1.871,0,0,1-.22,1.446l-2.257,3.681-.738,4.842a1.874,1.874,0,0,1-1.863,1.6h-1.43l-2.035,1.279a1.866,1.866,0,0,1-.7.263L93.97,61.5l2.187,2.278a1.884,1.884,0,0,1-.7,3.068l-4.338,1.63c-.119,1-.239,1.766-.365,2.334a4.694,4.694,0,0,1-.409,1.215,2.072,2.072,0,0,1-1.8,1.182,2.014,2.014,0,0,1-1.2-.417c-.339-.248-1.535-1.369-6.24-6.007l-1.739-.444-4.38,2.695a1.88,1.88,0,0,1-1.619.169l-13.7-4.868c-.127-.044-.2-.084-6.2-3.94L47.85,58.9a1.874,1.874,0,0,1-.909-.553L45.4,56.657,40.94,53.382a1.894,1.894,0,0,1-.768-1.518V47.377a1.877,1.877,0,0,1,.265-.965,2.3,2.3,0,0,1-.2-.486l-1.012-3.7-6.961-7.892L27.2,30.12a1.883,1.883,0,0,1-.385-2.46l-4.2-3.946a.751.751,0,0,1-.07-.075l-2.3-2.843L18.5,19.343l.655,1.986,3.772,3.794a1.9,1.9,0,0,1,.44.7l2.17,6.131,4.816,4.856a1.88,1.88,0,0,1,.054,2.595l-2.313,2.539a1.883,1.883,0,0,1-3.072-.417l-1.1-2.163-6.321-4.9a1.87,1.87,0,0,1-.729-1.488V29.412l-1.94-2.091a1.884,1.884,0,0,1-2.082-.2l-5.2-4.248a1.882,1.882,0,0,1,1.191-3.341h1.194l.1-.254L5.07,14.855a1.91,1.91,0,0,1-.472-.632L-.577,2.954A1.883,1.883,0,0,1,.907.3L9.376-.736A1.917,1.917,0,0,1,9.605-.75ZM30.837,6.838H22.954a.75.75,0,0,1-.269-.05L10.469,2.09a.75.75,0,0,1-.481-.7V1.134A.385.385,0,0,0,9.557.753L1.087,1.787a.383.383,0,0,0-.3.54L5.96,13.6a.4.4,0,0,0,.1.13L11.525,18.5a.75.75,0,0,1,.2.843l-.486,1.22a.75.75,0,0,1-.7.472h-1.7a.382.382,0,0,0-.243.678l5.2,4.248a.384.384,0,0,0,.456.022l.38-.255a.75.75,0,0,1,.967.113l2.57,2.769a.75.75,0,0,1,.2.51v3.86a.38.38,0,0,0,.148.3l6.454,5a.75.75,0,0,1,.21.254l1.172,2.314a.381.381,0,0,0,.344.21.372.372,0,0,0,.282-.125l2.313-2.54a.382.382,0,0,0-.011-.528l-4.934-4.975a.75.75,0,0,1-.175-.278l-2.226-6.29a.38.38,0,0,0-.09-.142l-3.9-3.919a.75.75,0,0,1-.18-.294l-1.105-3.351a.416.416,0,0,0-.075-.132l-2.269-2.67-3.389-4.007a.75.75,0,0,1-.177-.484v-2a.75.75,0,0,1,1.011-.7l2.812,1.045a.75.75,0,0,1,.447.458l2.1,6.068a.382.382,0,0,0,.116.167l4,3.335a.75.75,0,0,1,.1.1l2.314,2.861,4.647,4.364a.75.75,0,0,1,.09.992l-.319.432a.383.383,0,0,0,.063.523l5.11,4.251a.747.747,0,0,1,.083.081l7.114,8.066a.75.75,0,0,1,.161.3l1.059,3.871a1.607,1.607,0,0,0,.168.338c.054.092.109.186.162.293a.75.75,0,0,1-.2.915.383.383,0,0,0-.143.3v4.487a.388.388,0,0,0,.158.31l4.518,3.319a.75.75,0,0,1,.11.1L48.05,57.34a.384.384,0,0,0,.184.112l5.73,1.521a.75.75,0,0,1,.213.094c3.669,2.358,5.7,3.66,6.055,3.873L73.87,67.788a.38.38,0,0,0,.329-.034l4.651-2.861a.75.75,0,0,1,.578-.088l2.243.572a.75.75,0,0,1,.341.193c1.569,1.547,5.736,5.655,6.217,6.007a.559.559,0,0,0,.315.128.638.638,0,0,0,.48-.389,3.4,3.4,0,0,0,.268-.834c.132-.59.263-1.476.391-2.631a.75.75,0,0,1,.482-.619l4.766-1.791a.384.384,0,0,0,.142-.626l-2.9-3.017a.75.75,0,0,1-.035-1l.321-.385a.75.75,0,0,1,.453-.26l6.766-1.127a.382.382,0,0,0,.143-.054l2.217-1.393a.75.75,0,0,1,.4-.115h1.646a.387.387,0,0,0,.38-.326l.76-4.991a.75.75,0,0,1,.1-.279l2.336-3.81a.382.382,0,0,0,.045-.3l-.612-2.425a.382.382,0,0,0-.371-.289c-3.452.01-4.527.022-4.78.032L94.7,47.006a.384.384,0,0,0-.279.3L93.546,52.3a.75.75,0,0,1-.095.255l-2.129,3.569a.75.75,0,0,1-.862.334L87.31,55.5a.376.376,0,0,0-.215,0l-6.471,1.835a.75.75,0,0,1-.584-.074l-4.828-2.827a.75.75,0,0,1-.242-.227l-3.93-5.8a.75.75,0,0,1-.1-.2l-1.656-5.441a.75.75,0,0,1-.018-.363l.385-1.954a.388.388,0,0,0,.006-.107l-.422-5.281a.75.75,0,0,1,.04-.309l1.37-3.881a.751.751,0,0,1,.05-.112l1.251-2.275a.382.382,0,0,0-.336-.567H69.059a.75.75,0,0,1-.281-.055l-3.861-1.561a.75.75,0,0,1-.43-.458l-1.2-3.611a.413.413,0,0,0-.084-.143L60.73,19.373a.75.75,0,0,1-.149-.245l-1.183-3.2a.378.378,0,0,0-.11-.158l-3.055-2.626a.388.388,0,0,0-.148-.079l-3.375-.925a.383.383,0,0,0-.451.211l-1.144,2.519a.75.75,0,0,1-.145.212l-.613.631a.75.75,0,0,1-.972.089l-3.45-2.447a.75.75,0,0,1-.29-.416l-.812-2.994a.388.388,0,0,0-.144-.209l-6.28-4.624a.383.383,0,0,0-.228-.073H31.97a.384.384,0,0,0-.384.384v.662A.75.75,0,0,1,30.837,6.838Zm-17.1,4.108L12.271,10.4v.648l2.548,3.013ZM8.5,1.66a.75.75,0,0,1,.732.59.385.385,0,0,0,.238.277L22.605,7.579a.386.386,0,0,0,.138.026H31.97a.384.384,0,0,0,.384-.384V6.56a.75.75,0,0,1,.75-.75h4.705a.75.75,0,0,1,.445.146l5.663,4.168a.75.75,0,0,1,.279.408l.815,3a.382.382,0,0,0,.147.211l4.575,3.244a.384.384,0,0,0,.5-.047l1.427-1.468a.4.4,0,0,0,.076-.111l.824-1.815a.75.75,0,0,1,.881-.413l2.2.6a.75.75,0,0,1,.291.155l2.639,2.269a.75.75,0,0,1,.214.308l1.158,3.13a.362.362,0,0,0,.073.12l0,0,2.457,2.7a.75.75,0,0,1,.157.268l1.294,3.881a.386.386,0,0,0,.221.235l4.549,1.838a.391.391,0,0,0,.144.029H69.7a.75.75,0,0,1,.662,1.1l-.422.794-1.464,4.144a.4.4,0,0,0-.021.161l.428,5.365a.75.75,0,0,1-.012.2l-.41,2.079a.377.377,0,0,0,.01.185l1.788,5.877a.387.387,0,0,0,.05.1l4.17,6.157a.39.39,0,0,0,.126.118l5.464,3.2a.392.392,0,0,0,.3.038l6.615-1.876a.75.75,0,0,1,.422,0l3.682,1.117a.385.385,0,0,0,.441-.17l2.69-4.511,0,0a.36.36,0,0,0,.047-.125l.784-4.481a.75.75,0,0,1,.546-.6l6.474-1.721a.75.75,0,0,1,.193-.025h3.581a.75.75,0,0,1,.727.567l.279,1.106a.75.75,0,0,1-.088.575l-2.207,3.6a.39.39,0,0,0-.052.142l-.648,4.256a.75.75,0,0,1-.741.637h-1a.388.388,0,0,0-.206.059l-2.3,1.445a.75.75,0,0,1-.276.1l-6.956,1.158a.39.39,0,0,0-.233.134L90.9,61.085a.384.384,0,0,0,.018.512l2.409,2.509a.75.75,0,0,1-.277,1.221L89.242,66.76a.381.381,0,0,0-.246.319c-.094.923-.189,1.7-.283,2.31a.75.75,0,0,1-1.261.426c-1.123-1.08-2.892-2.811-5.118-5.006a.39.39,0,0,0-.176-.1l-3-.767a.393.393,0,0,0-.3.046l-4.6,2.828a.75.75,0,0,1-.644.068L60.55,62.24a.75.75,0,0,1-.155-.076l-5.95-3.838a.413.413,0,0,0-.111-.049L48.754,56.8a.75.75,0,0,1-.357-.215L46.836,54.9l-4.091-3.006a.75.75,0,0,1-.306-.6V47.918a.75.75,0,0,1,.279-.583l1.986-1.6a.383.383,0,0,0-.241-.682H42.92A.75.75,0,0,1,42.2,44.5l-.9-3.29a.376.376,0,0,0-.08-.15l-7.434-8.409-4.311-3.585a.75.75,0,0,1-.124-1.022l.281-.381a.382.382,0,0,0-.045-.507l-5.363-5.037a.751.751,0,0,1-.068-.073l-2.372-2.916L17.994,15.97a.75.75,0,0,1-.229-.331L15.593,9.364a.378.378,0,0,0-.227-.233l-4.846-1.8A.382.382,0,0,0,10,7.693v4.043a.385.385,0,0,0,.09.248l3.658,4.325,2.13,2.506a.75.75,0,0,1,.141.251l1.119,3.394a.385.385,0,0,0,.091.149l3.908,3.932a.75.75,0,0,1,.175.278L23.541,33.1a.377.377,0,0,0,.09.144l4.355,4.39a.75.75,0,0,1,.022,1.034l-.483.529a.75.75,0,0,1-1.223-.167l-.544-1.075a.393.393,0,0,0-.109-.131l-6.214-4.813a.75.75,0,0,1-.291-.593V28.671a.38.38,0,0,0-.1-.259l-3.53-3.8a.381.381,0,0,0-.492-.059l-.492.326a.75.75,0,0,1-.889-.044l-2.257-1.842a.75.75,0,0,1,.117-1.24.387.387,0,0,0,.174-.2l1.066-2.676a.386.386,0,0,0-.1-.431L6.744,13.307a.75.75,0,0,1-.188-.252L2.131,3.418A.75.75,0,0,1,2.721,2.36l5.686-.695A.757.757,0,0,1,8.5,1.66ZM31.97,9.105H22.743a1.882,1.882,0,0,1-.675-.125L8.928,3.926a1.888,1.888,0,0,1-.885-.705l-4.121.5,3.93,8.558,2.026,1.769-.929-1.1A1.887,1.887,0,0,1,8.5,11.737V7.693a1.882,1.882,0,0,1,2.537-1.768l4.845,1.8A1.872,1.872,0,0,1,17.01,8.873l2.1,6.078,3.684,3.07a.751.751,0,0,1,.1.1l2.386,2.933,5.326,5a1.881,1.881,0,0,1,.353,2.294l3.822,3.178a.75.75,0,0,1,.082.08l7.471,8.452a1.882,1.882,0,0,1,.4.75l.748,2.736h.97A1.883,1.883,0,0,1,45.646,46.9l-1.707,1.379v2.633l3.843,2.823a.75.75,0,0,1,.106.094L49.349,55.4l5.371,1.426a1.914,1.914,0,0,1,.534.235l5.881,3.793,12.645,4.495,4.292-2.641a1.888,1.888,0,0,1,1.453-.221l3.006.767a1.894,1.894,0,0,1,.856.483c1.584,1.563,2.971,2.923,4.034,3.957q.041-.364.082-.769a1.872,1.872,0,0,1,1.211-1.573l2.746-1.032L89.84,62.636a1.883,1.883,0,0,1-.087-2.512l1.01-1.21q-.056-.013-.112-.03l-3.47-1.052-6.4,1.816a1.887,1.887,0,0,1-1.464-.186l-5.467-3.2a1.88,1.88,0,0,1-.608-.57l-4.17-6.159a1.885,1.885,0,0,1-.243-.51l-1.787-5.875a1.886,1.886,0,0,1-.047-.913l.39-1.977-.42-5.263a1.918,1.918,0,0,1,.1-.776L68.5,30.143a1.932,1.932,0,0,1-.366-.106L63.582,28.2a1.885,1.885,0,0,1-1.081-1.15l-1.245-3.731-2.348-2.578a1.856,1.856,0,0,1-.376-.616L57.44,17.173,55.077,15.14l-1.417-.388L53.1,15.988a1.906,1.906,0,0,1-.363.532l-1.429,1.47a1.9,1.9,0,0,1-1.353.572,1.871,1.871,0,0,1-1.088-.347l-4.574-3.243a1.884,1.884,0,0,1-.729-1.043l-.747-2.753L37.563,7.31H33.852A1.886,1.886,0,0,1,31.97,9.105ZM14.644,19.676l-.43-.505a1.885,1.885,0,0,1-.083.264l-1.067,2.68a1.9,1.9,0,0,1-.109.227l1.2.982.028-.019a1.876,1.876,0,0,1,1.582-.238q-.028-.066-.05-.133Zm7.287,13.378-1.288-3.638v2.64ZM105.26,47.315h-2.9l-5.915,1.572-.7,4.009a1.854,1.854,0,0,1-.24.641l-2.573,4.316,6.007-1,2.175-1.366a1.888,1.888,0,0,1,1-.288h.354l.551-3.618a1.887,1.887,0,0,1,.254-.7l2.044-3.333Z" transform="translate(0 0)" fill="#2151c6"/>
        </g>
      </g>
    </g>
  </g>
</svg>
