<svg xmlns="http://www.w3.org/2000/svg" xmlns:xlink="http://www.w3.org/1999/xlink" width="140" height="140" viewBox="0 0 140 140">
  <defs>
    <clipPath id="clip-path">
      <rect id="Rectangle_6984" data-name="Rectangle 6984" width="54.069" height="98.628" transform="translate(0 0)" fill="#2151c6" stroke="#2151c6" stroke-linecap="round" stroke-linejoin="round" stroke-width="1.8"/>
    </clipPath>
  </defs>
  <g id="Group_8919" data-name="Group 8919" transform="translate(-554 -4273)">
    <g id="Group_8903" data-name="Group 8903">
      <path id="Path_21475" data-name="Path 21475" d="M70,0A70,70,0,1,1,0,70,70,70,0,0,1,70,0Z" transform="translate(554 4273)" fill="#bce2af"/>
      <g id="Group_8898" data-name="Group 8898" transform="translate(597 4293.687)">
        <g id="Group_8897" data-name="Group 8897" clip-path="url(#clip-path)">
          <path id="Path_21528" data-name="Path 21528" d="M53.01,47.808h-2.7v-9.26a1,1,0,0,0-1-1H45.95a1,1,0,0,0-.59.19l-1.18.86-2.09-2a1,1,0,0,0-.68-.27H39.66l-.82-3.29a1,1,0,0,0-.55-.66l-3.7-1.71.73-4.81a1,1,0,0,0-.79-1.13l-3.27-.65.53-3.26a1,1,0,0,0-.78-1.11l-1.69-.28,1.41-2.83a1,1,0,0,0,.07-.72l-2-7.24a1,1,0,0,0-.47-.6L26.01,6.8l2.5-2.78a1,1,0,0,0,.08-1.24L26.94.428a1,1,0,0,0-1.47-.19l-3.16,2.74-.91-1.66a1,1,0,0,0-1.32-.4l-3,1.51a1,1,0,0,0-.5.57l-1.87,5.46L7.9,11.148a1,1,0,0,0-.63.93V16.8a1,1,0,0,0,1,1h4.4l1.7,3.8-2.61,4.1-1.84-2.58a.992.992,0,0,0-1.5-.15L.31,30.578a1,1,0,0,0-.09,1.35l5.95,7.45,3,8.31a1,1,0,0,0,.37.49l7.58,5.25-1.17,1.63-4.94-1.48a1,1,0,0,0-1.18.51l-2.82,5.73a.929.929,0,0,0-.11.49l.34,7.74a1,1,0,0,0,.18.54l2.91,4,.81,4.38,2.49,10.35-.33,7.27a1,1,0,0,0,.25.71l2.7,3a1.007,1.007,0,0,0,1.29.17l7.47-4.87a1,1,0,0,0,.39-1.2l-.74-1.89,2.9-4.66h3.06a1,1,0,0,0,.81-.42l2.19-3a1,1,0,0,0,0-1.19l-3.09-4,1.09-5.45a1,1,0,0,0-.12-.71L30.01,68.6l8-3.9a1,1,0,0,0,.51-.58l1.79-5.21h3a1,1,0,0,0,.68-.27l9.76-9.1a1,1,0,0,0-.74-1.73m-10.16,9.1h-3.3a1,1,0,0,0-.94.67l-1.89,5.5-8.55,4.24a1,1,0,0,0-.459,1.338q.018.036.039.072l1.82,3-1.1,5.51a1,1,0,0,0,.19.81l2.91,3.78-1.45,2H27.01a1,1,0,0,0-.85.47l-3.45,5.55a1,1,0,0,0-.08.89l.62,1.61-6.08,4-1.85-2.08.31-7a.877.877,0,0,0,0-.28l-2.54-10.41-.84-4.54a.989.989,0,0,0-.17-.41l-2.86-4-.31-7.19,2.37-4.74,4.73,1.48a1,1,0,0,0,1.1-.37l2.19-3a1.014,1.014,0,0,0-.24-1.41l-8.14-5.68-2.91-8.18a1.012,1.012,0,0,0-.16-.28L2.37,31.4l6.57-6.16,2,2.86a1,1,0,0,0,1.66-.05l3.7-5.8a1,1,0,0,0,.07-.95l-2.17-4.88a1,1,0,0,0-.91-.59H9.24v-3l6.6-2.61a1,1,0,0,0,.58-.61l1.89-5.5,1.81-.91,1,1.87a1.006,1.006,0,0,0,1.53.26l3.24-2.81.56.8-2.77,3.12a1,1,0,0,0,.25,1.53l2.94,1.65,1.8,6.47-1.85,3.7a1,1,0,0,0,.452,1.34,1.016,1.016,0,0,0,.278.09l2,.34-.51,3.23a1,1,0,0,0,.79,1.14l3.27.65-.7,4.62a1,1,0,0,0,.57,1l4,1.82.89,3.58a1,1,0,0,0,1,.76h2.15l2.41,2.25a1,1,0,0,0,1.27.08l1.59-1.15h2V48.8a1,1,0,0,0,1,1h1.16Z" fill="#2151c6"/>
          <path id="Path_21528_-_Outline" data-name="Path 21528 - Outline" d="M26.117-.9a1.915,1.915,0,0,1,.232.014,1.9,1.9,0,0,1,1.328.8l1.649,2.349,0,0a1.893,1.893,0,0,1-.151,2.356L27.447,6.546l1.307.7.019.01A1.886,1.886,0,0,1,29.667,8.4l2,7.243A1.9,1.9,0,0,1,31.534,17l-.866,1.737.488.081.043.008a1.91,1.91,0,0,1,1.482,2.109l0,.025-.391,2.4,2.418.481a1.9,1.9,0,0,1,1.5,2.148l-.629,4.142,3.086,1.426a1.894,1.894,0,0,1,1.044,1.253l0,.006.65,2.608H41.41a1.894,1.894,0,0,1,1.3.514l.006.005,1.546,1.479.572-.417a1.894,1.894,0,0,1,1.115-.363H49.31a1.9,1.9,0,0,1,1.9,1.9v8.36h1.778a1.908,1.908,0,0,1,1.47.6,1.9,1.9,0,0,1-.1,2.685L44.6,59.3a1.889,1.889,0,0,1-1.29.512H40.952l-1.58,4.6a1.908,1.908,0,0,1-.969,1.1l-7.116,3.469.984,1.638a1.9,1.9,0,0,1,.23,1.355l-1.009,5.043,2.839,3.675.01.014a1.889,1.889,0,0,1,0,2.258l-2.187,3a1.9,1.9,0,0,1-1.536.792H28.06l-2.4,3.852.575,1.47a1.908,1.908,0,0,1-.74,2.284l-7.467,4.868A1.9,1.9,0,0,1,17,99.528h-.01a1.906,1.906,0,0,1-1.4-.626l-2.7-3,0,0a1.89,1.89,0,0,1-.476-1.349l.324-7.142-2.46-10.226q-.006-.023-.01-.047l-.773-4.179-2.79-3.835-.01-.014a1.893,1.893,0,0,1-.341-1.021L6,60.352a1.827,1.827,0,0,1,.208-.944l2.814-5.717,0-.007a1.9,1.9,0,0,1,2.242-.968l4.325,1.3.262-.365L9.028,48.918a1.887,1.887,0,0,1-.706-.928L5.374,39.823-.483,32.49a1.911,1.911,0,0,1,.173-2.563l0,0L7.8,22.313a1.892,1.892,0,0,1,2.852.285l1.063,1.49,1.633-2.565L12.087,18.7H8.27a1.9,1.9,0,0,1-1.9-1.9v-4.72a1.892,1.892,0,0,1,1.2-1.766l6.427-2.539,1.735-5.067a1.888,1.888,0,0,1,.95-1.084l3-1.508a1.9,1.9,0,0,1,2.508.76l.006.011.374.682L24.88-.442l.007-.006A1.9,1.9,0,0,1,26.117-.9Zm1.734,4.191L26.2.945A.1.1,0,0,0,26.132.9h-.015a.1.1,0,0,0-.063.022L22.9,3.658a.9.9,0,0,1-1.379-.247l-.906-1.652a.1.1,0,0,0-.086-.048.1.1,0,0,0-.044.011l-3,1.51a.1.1,0,0,0-.053.058l-1.87,5.46a.9.9,0,0,1-.521.545l-6.81,2.69a.1.1,0,0,0-.061.093V16.8a.1.1,0,0,0,.1.1h4.4a.9.9,0,0,1,.822.532l1.7,3.8a.9.9,0,0,1-.062.851l-2.61,4.1a.9.9,0,0,1-1.492.039l-1.84-2.58,0-.007a.1.1,0,0,0-.069-.041H9.108a.1.1,0,0,0-.067.027l0,0L.929,31.231a.1.1,0,0,0-.007.134l5.951,7.452a.9.9,0,0,1,.143.256l3,8.31,0,.009a.1.1,0,0,0,.035.048l7.577,5.248a.9.9,0,0,1,.219,1.265l-1.17,1.63a.9.9,0,0,1-.989.337l-4.94-1.48a.1.1,0,0,0-.028,0,.1.1,0,0,0-.089.054L7.818,60.215l-.016.03a.029.029,0,0,0,0,.015v.008l.34,7.74v.012a.1.1,0,0,0,.016.049l2.9,3.989a.9.9,0,0,1,.157.366l.806,4.357,2.484,10.326a.9.9,0,0,1,.024.251l-.33,7.27a.1.1,0,0,0,.023.071l2.7,3a.1.1,0,0,0,.074.032.105.105,0,0,0,.058-.016l7.467-4.868a.1.1,0,0,0,.042-.121l-.739-1.887a.9.9,0,0,1,.074-.8l2.9-4.66a.9.9,0,0,1,.764-.424h3.06a.1.1,0,0,0,.077-.043L30.7,84.9l2.19-3,0,0a.1.1,0,0,0,0-.115l-3.082-3.99a.9.9,0,0,1-.17-.727l1.09-5.45a.1.1,0,0,0-.011-.074l-1.487-2.476a.9.9,0,0,1,.377-1.272l8-3.9a.1.1,0,0,0,.051-.057l0-.007,1.79-5.21a.9.9,0,0,1,.851-.608h3a.1.1,0,0,0,.064-.026l9.763-9.1a.1.1,0,0,0,.032-.07.1.1,0,0,0-.026-.071.1.1,0,0,0-.075-.033H50.31a.9.9,0,0,1-.9-.9v-9.26a.1.1,0,0,0-.1-.1H45.95a.1.1,0,0,0-.064.02l-1.176.857a.9.9,0,0,1-1.152-.077l-2.086-2a.1.1,0,0,0-.066-.025H39.66a.9.9,0,0,1-.873-.682l-.819-3.285a.1.1,0,0,0-.055-.066l-3.7-1.71a.9.9,0,0,1-.512-.952l.73-4.81a.1.1,0,0,0-.079-.113l-3.266-.649a.9.9,0,0,1-.713-1.027l.527-3.241a.1.1,0,0,0-.068-.1l-1.657-.275a.9.9,0,0,1-.658-1.289l1.41-2.83a.106.106,0,0,0,.009-.077l-2-7.242a.1.1,0,0,0-.041-.054L25.586,7.592a.9.9,0,0,1-.245-1.4l2.5-2.78A.1.1,0,0,0,27.851,3.292ZM25.89,1.618A.9.9,0,0,1,26.627,2l.56.8a.9.9,0,0,1-.064,1.114l-2.77,3.12a.1.1,0,0,0-.025.084.1.1,0,0,0,.046.066L27.31,8.833a.9.9,0,0,1,.427.544l1.8,6.47a.9.9,0,0,1-.062.644l-1.85,3.7a.1.1,0,0,0,.046.131.106.106,0,0,0,.027.009l2,.34a.9.9,0,0,1,.738,1.028l-.51,3.23a.1.1,0,0,0,.079.117l3.268.65a.9.9,0,0,1,.714,1.018L33.3,31.3a.1.1,0,0,0,.056.087L37.343,33.2a.9.9,0,0,1,.5.6l.89,3.58a.1.1,0,0,0,.1.078h2.18a.9.9,0,0,1,.614.242l2.41,2.25a.1.1,0,0,0,.07.028.1.1,0,0,0,.058-.019l1.59-1.15a.9.9,0,0,1,.527-.171h2a.9.9,0,0,1,.9.9V48.8a.1.1,0,0,0,.1.1h1.16a.9.9,0,0,1,.615,1.557l-7.59,7.11a.9.9,0,0,1-.615.243h-3.3a.1.1,0,0,0-.09.066l-1.889,5.5a.9.9,0,0,1-.451.514l-8.55,4.24a.1.1,0,0,0-.052.134l.006.012,1.815,2.991a.9.9,0,0,1,.113.643l-1.1,5.51a.1.1,0,0,0,.019.083l2.911,3.782a.9.9,0,0,1,.016,1.077l-1.45,2a.9.9,0,0,1-.729.372H27.01a.1.1,0,0,0-.087.047l-3.449,5.548a.1.1,0,0,0-.007.086l0,.005.62,1.61a.9.9,0,0,1-.345,1.075l-6.08,4a.9.9,0,0,1-1.167-.154l-1.85-2.08a.9.9,0,0,1-.227-.638l.31-7a.9.9,0,0,1,.009-.092L12.216,76.791q-.006-.025-.011-.05l-.84-4.54,0-.014a.09.09,0,0,0-.015-.037l-2.859-4a.9.9,0,0,1-.167-.485l-.31-7.19a.9.9,0,0,1,.094-.441l2.37-4.74a.9.9,0,0,1,1.074-.456l4.724,1.478a.1.1,0,0,0,.108-.037l2.188-3a.1.1,0,0,0,.016-.075V53.2a.1.1,0,0,0-.04-.065L10.4,47.456a.9.9,0,0,1-.333-.436L7.166,38.851a.112.112,0,0,0-.016-.027l0,0-5.48-6.86a.9.9,0,0,1,.088-1.218l6.57-6.16a.9.9,0,0,1,1.353.141l2,2.855a.1.1,0,0,0,.082.041.1.1,0,0,0,.08-.046l.005-.008,3.7-5.8a.1.1,0,0,0,.008-.1l-2.172-4.885a.1.1,0,0,0-.09-.056H9.24a.9.9,0,0,1-.9-.9v-3a.9.9,0,0,1,.569-.837l6.6-2.61a.1.1,0,0,0,.058-.06l0-.005,1.89-5.5a.9.9,0,0,1,.447-.512l1.81-.91a.9.9,0,0,1,1.2.38l.992,1.854a.1.1,0,0,0,.065.043l.023,0a.1.1,0,0,0,.067-.025l3.24-2.81A.9.9,0,0,1,25.89,1.618Zm-3.9,4.855a1.91,1.91,0,0,1-.329-.029,1.888,1.888,0,0,1-1.327-.931l-.011-.021L19.74,4.4l-.7.351L17.272,9.9a1.894,1.894,0,0,1-1.1,1.158L10.14,13.44v1.488h3.15a1.9,1.9,0,0,1,1.731,1.121l2.172,4.883a1.892,1.892,0,0,1-.134,1.8l-3.7,5.8a1.893,1.893,0,0,1-1.556.888h-.048a1.9,1.9,0,0,1-1.549-.8l0-.006L8.8,26.605,3.592,31.486l4.96,6.209a1.907,1.907,0,0,1,.3.527l.006.015,2.813,7.908,7.9,5.515a1.888,1.888,0,0,1,.781,1.232,1.912,1.912,0,0,1-.324,1.439l-.006.008-2.19,3a1.9,1.9,0,0,1-2.089.7l-.007,0-4-1.251L9.819,60.632l.288,6.69,2.7,3.782a1.9,1.9,0,0,1,.324.776l.834,4.509L16.5,86.775q.008.035.014.07a1.776,1.776,0,0,1,.009.506l-.292,6.592,1.09,1.226,4.824-3.174-.358-.93a1.91,1.91,0,0,1,.152-1.688L25.4,83.823a1.889,1.889,0,0,1,1.611-.895h2.654l.786-1.084-2.5-3.247a1.9,1.9,0,0,1-.359-1.536L28.619,71.9l-1.638-2.7-.008-.013c-.024-.041-.046-.082-.067-.123l0-.007a1.9,1.9,0,0,1,.872-2.542l8.215-4.074,1.77-5.15,0,0a1.9,1.9,0,0,1,1.785-1.273h2.949l5.9-5.528A1.9,1.9,0,0,1,47.38,48.8v-8.36h-.809l-1.354.979a1.9,1.9,0,0,1-2.412-.152l-2.15-2.008H38.871a1.9,1.9,0,0,1-1.885-1.444L36.2,34.657l-3.6-1.64-.011-.005a1.906,1.906,0,0,1-1.082-1.9q0-.025.006-.049l.571-3.77-2.427-.482a1.894,1.894,0,0,1-1.5-2.167l.371-2.348L27.4,22.105a1.9,1.9,0,0,1-1.386-2.716L27.71,16,26.1,10.22,23.49,8.753l0,0a1.9,1.9,0,0,1-.8-2.407A1.9,1.9,0,0,1,21.993,6.473Z" fill="#2151c6"/>
        </g>
      </g>
    </g>
  </g>
</svg>
