<?xml version="1.0" encoding="UTF-8"?>
<svg id="Capa_1" xmlns="http://www.w3.org/2000/svg" version="1.1" viewBox="0 0 200.1 243.1">
  <!-- Generator: Adobe Illustrator 29.0.1, SVG Export Plug-In . SVG Version: 2.1.0 Build 192)  -->
  <defs>
    <style>
      .st0 {
        fill: #2d2f30;
        fill-rule: evenodd;
      }
    </style>
  </defs>
  <path class="st0" d="M1.8,218.3v-12.6h9.3v2.1h-6.8v2.8h6.3v2.1h-6.3v3.4h7v2.1H1.8ZM12.2,215.7l2.4-.4c.1.5.3.8.6,1.1.3.2.8.4,1.3.4s1.1-.1,1.4-.3c.2-.2.3-.4.3-.6s0-.3-.2-.5c-.1-.1-.4-.2-.8-.3-1.9-.4-3.2-.8-3.7-1.2-.7-.5-1.1-1.2-1.1-2.1s.3-1.5.9-2c.6-.5,1.6-.8,2.9-.8s2.2.2,2.8.6c.6.4,1,1,1.2,1.8l-2.3.4c0-.4-.3-.6-.6-.8-.3-.2-.7-.3-1.2-.3s-1.1,0-1.4.3c-.2.1-.3.3-.3.5s0,.3.2.4c.2.2,1,.4,2.3.7,1.3.3,2.2.6,2.7,1.1.5.4.8,1,.8,1.8s-.3,1.6-1,2.2c-.7.6-1.7.9-3.1.9s-2.2-.3-2.9-.8c-.7-.5-1.2-1.2-1.4-2h0ZM26.5,209.2v1.9h-1.6v3.7c0,.7,0,1.2,0,1.3,0,.1.1.2.2.3.1,0,.2.1.4.1.2,0,.5,0,1-.2l.2,1.9c-.6.2-1.2.4-1.9.4s-.8,0-1.2-.2c-.3-.1-.6-.3-.8-.6-.2-.2-.3-.5-.3-.9,0-.3,0-.8,0-1.7v-4h-1.1v-1.9h1.1v-1.8l2.4-1.4v3.2h1.6ZM29.6,212l-2.2-.4c.2-.9.7-1.5,1.3-2,.6-.4,1.5-.6,2.7-.6s1.9.1,2.4.4c.5.3.9.6,1.1,1,.2.4.3,1.1.3,2.2v2.8c0,.8,0,1.4,0,1.8,0,.4.2.8.4,1.2h-2.4c0-.2-.1-.4-.2-.7,0-.1,0-.2,0-.3-.4.4-.9.7-1.3.9-.5.2-1,.3-1.5.3-.9,0-1.7-.3-2.2-.8-.5-.5-.8-1.2-.8-1.9s.1-1,.4-1.4c.2-.4.6-.7,1-.9.4-.2,1.1-.4,1.9-.6,1.1-.2,1.9-.4,2.3-.6v-.2c0-.5-.1-.8-.3-1-.2-.2-.7-.3-1.3-.3s-.8,0-1,.3c-.2.2-.4.5-.6.9h0ZM32.8,213.9c-.3.1-.8.2-1.5.4-.7.1-1.1.3-1.3.4-.3.2-.5.5-.5.8s.1.6.4.9c.3.2.6.4,1,.4s.8-.1,1.2-.4c.3-.2.5-.5.6-.8,0-.2,0-.6,0-1.2v-.5h0ZM45.4,218.3h-2.2v-1.3c-.4.5-.8.9-1.3,1.2-.5.3-1,.4-1.5.4-1,0-1.9-.4-2.7-1.3-.7-.8-1.1-2-1.1-3.5s.4-2.7,1.1-3.5c.7-.8,1.6-1.2,2.8-1.2s1.9.4,2.6,1.3v-4.5h2.4v12.6h0ZM39,213.5c0,1,.1,1.7.4,2.1.4.6.9.9,1.6.9s1-.2,1.4-.7c.4-.5.6-1.2.6-2.1s-.2-1.8-.6-2.3c-.4-.5-.9-.7-1.4-.7s-1,.2-1.4.7c-.4.5-.6,1.1-.6,2h0ZM46.8,213.6c0-.8.2-1.6.6-2.3.4-.7,1-1.3,1.7-1.7.7-.4,1.5-.6,2.4-.6,1.4,0,2.5.4,3.4,1.3.9.9,1.3,2,1.3,3.4s-.4,2.5-1.3,3.4c-.9.9-2,1.4-3.4,1.4s-1.6-.2-2.4-.6c-.8-.4-1.3-.9-1.7-1.7-.4-.7-.6-1.6-.6-2.7h0ZM49.3,213.7c0,.9.2,1.6.6,2.1.4.5,1,.7,1.6.7s1.2-.2,1.6-.7c.4-.5.6-1.2.6-2.1s-.2-1.6-.6-2.1c-.4-.5-1-.7-1.6-.7s-1.2.2-1.6.7c-.4.5-.6,1.2-.6,2.1h0ZM62.6,218.3v-12.5h2.5v10.3h6.3v2.1h-8.8ZM72.8,207.9v-2.2h2.4v2.2h-2.4ZM72.8,218.3v-9.1h2.4v9.1h-2.4ZM77.2,218.3v-12.6h2.4v4.5c.7-.8,1.6-1.3,2.6-1.3s2,.4,2.8,1.2c.7.8,1.1,2,1.1,3.5s-.4,2.8-1.1,3.6c-.7.8-1.6,1.3-2.7,1.3s-1-.1-1.5-.4c-.5-.3-.9-.6-1.3-1.2v1.3h-2.2ZM79.5,213.5c0,.9.1,1.6.4,2.1.4.6,1,1,1.7,1s1-.2,1.4-.7c.4-.5.6-1.2.6-2.1s-.2-1.8-.6-2.3c-.4-.5-.9-.7-1.4-.7s-1.1.2-1.4.7c-.4.5-.6,1.1-.6,2h0ZM89.8,218.3h-2.4v-9.1h2.2v1.3c.4-.6.7-1,1-1.2.3-.2.7-.3,1-.3s1.1.2,1.6.5l-.7,2.1c-.4-.3-.8-.4-1.1-.4s-.6,0-.9.3c-.2.2-.4.5-.6,1-.1.5-.2,1.5-.2,3.1v2.8h0ZM99.2,215.4c-.1.5-.3.8-.6,1-.3.2-.6.3-1,.3-.6,0-1-.2-1.4-.6-.4-.4-.6-1-.6-1.7h6c0-1.8-.3-3.2-1.1-4.1-.8-.9-1.9-1.3-3.2-1.3s-2.2.4-3,1.3c-.8.9-1.2,2-1.2,3.5s.3,2.3.9,3.1c.8,1,1.9,1.6,3.5,1.6s1.8-.2,2.5-.7c.7-.5,1.2-1.1,1.5-2l-2.4-.4h0ZM99.3,212.9h-3.6c0-.7.2-1.2.5-1.6.3-.4.8-.6,1.3-.6s.9.2,1.3.5c.3.4.5.9.5,1.6h0ZM107,209.2h2.6l2.2,6.5,2.1-6.5h2.5l-3.2,8.8-.6,1.6c-.2.5-.4.9-.6,1.2-.2.3-.4.5-.7.7-.2.2-.6.3-.9.4-.4,0-.8.1-1.2.1s-.9,0-1.4-.1l-.2-1.9c.4,0,.7.1,1,.1.6,0,1-.2,1.2-.5.3-.3.5-.7.6-1.3l-3.5-9.1h0ZM121.7,214.2l2.5-.2c.1.8.4,1.4.9,1.8.5.4,1.1.6,1.8.6s1.4-.2,1.8-.5c.4-.3.6-.7.6-1.2s0-.5-.3-.8c-.2-.2-.5-.4-.9-.5-.3-.1-1-.3-2-.6-1.4-.3-2.3-.8-2.9-1.2-.8-.7-1.2-1.5-1.2-2.5s.2-1.2.5-1.8c.4-.6.9-1,1.6-1.3.7-.3,1.5-.4,2.5-.4,1.6,0,2.8.3,3.6,1,.8.7,1.2,1.6,1.3,2.8h-2.5c-.1-.5-.3-1-.7-1.3-.4-.3-.9-.4-1.6-.4s-1.3.1-1.7.5c-.3.2-.4.5-.4.8s.1.6.4.8c.3.3,1.1.5,2.3.8,1.2.3,2.1.6,2.7.9.6.3,1.1.7,1.4,1.3.3.5.5,1.2.5,2s-.2,1.4-.6,2c-.4.6-1,1.1-1.7,1.4-.7.3-1.6.5-2.7.5-1.6,0-2.8-.4-3.7-1.1-.9-.7-1.4-1.8-1.5-3.2h0ZM133,213.6c0-.8.2-1.6.6-2.3.4-.7,1-1.3,1.7-1.7.7-.4,1.5-.6,2.4-.6,1.4,0,2.5.4,3.4,1.3.9.9,1.3,2,1.3,3.4s-.4,2.5-1.3,3.4c-.9.9-2,1.4-3.4,1.4s-1.6-.2-2.4-.6c-.8-.4-1.3-.9-1.7-1.7-.4-.7-.6-1.6-.6-2.7h0ZM135.5,213.7c0,.9.2,1.6.6,2.1.4.5,1,.7,1.6.7s1.2-.2,1.6-.7c.4-.5.6-1.2.6-2.1s-.2-1.6-.6-2.1c-.4-.5-.9-.7-1.6-.7s-1.2.2-1.6.7c-.4.5-.6,1.2-.6,2.1h0ZM143.8,218.3v-12.6h2.4v4.5c.7-.8,1.6-1.3,2.6-1.3s2,.4,2.8,1.2c.7.8,1.1,2,1.1,3.5s-.4,2.8-1.1,3.6c-.7.8-1.6,1.3-2.7,1.3s-1-.1-1.5-.4c-.5-.3-.9-.6-1.3-1.2v1.3h-2.2ZM146.2,213.5c0,.9.1,1.6.4,2.1.4.6,1,1,1.7,1s1-.2,1.4-.7c.4-.5.6-1.2.6-2.1s-.2-1.8-.6-2.3c-.4-.5-.9-.7-1.4-.7s-1.1.2-1.4.7c-.4.5-.6,1.1-.6,2h0ZM159.4,215.4l2.4.4c-.3.9-.8,1.6-1.5,2-.7.5-1.5.7-2.5.7-1.6,0-2.8-.5-3.5-1.6-.6-.8-.9-1.9-.9-3.1s.4-2.7,1.2-3.5c.8-.9,1.8-1.3,3-1.3s2.4.4,3.2,1.3c.8.9,1.2,2.3,1.1,4.1h-6c0,.7.2,1.3.6,1.7.4.4.8.6,1.4.6s.7-.1.9-.3c.3-.2.5-.5.6-1h0ZM159.6,212.9c0-.7-.2-1.2-.5-1.6-.3-.4-.8-.5-1.3-.5s-1,.2-1.3.6c-.3.4-.5.9-.5,1.6h3.6ZM165.8,218.3h-2.4v-9.1h2.2v1.3c.4-.6.7-1,1-1.2.3-.2.7-.3,1-.3s1.1.2,1.6.5l-.7,2.1c-.4-.3-.8-.4-1.1-.4s-.6,0-.9.3c-.2.2-.4.5-.6,1-.1.5-.2,1.5-.2,3.1v2.8h0ZM171.7,212c.1-.4.3-.7.6-.9.2-.2.6-.3,1-.3.6,0,1.1,0,1.3.3.2.2.3.5.3,1v.2c-.4.2-1.2.4-2.3.6-.8.2-1.5.3-1.9.6-.4.2-.8.5-1,.9-.2.4-.4.9-.4,1.4,0,.8.3,1.4.8,1.9.5.5,1.3.8,2.2.8s1,0,1.5-.3c.5-.2.9-.5,1.3-.9,0,0,0,.1,0,.3,0,.3.2.6.2.7h2.4c-.2-.4-.4-.8-.4-1.2,0-.4-.1-1-.1-1.8v-2.8c0-1,0-1.8-.3-2.2-.2-.4-.6-.7-1.1-1-.5-.3-1.3-.4-2.4-.4s-2.1.2-2.7.6c-.6.4-1,1.1-1.3,2l2.2.4h0ZM174.9,213.9v.5c0,.6,0,1,0,1.2,0,.3-.3.6-.6.8-.4.3-.8.4-1.2.4s-.7-.1-1-.4c-.3-.2-.4-.5-.4-.9s.2-.6.5-.8c.2-.1.6-.3,1.3-.4.7-.1,1.2-.3,1.5-.4h0ZM187.5,218.3h-2.4v-4.6c0-1,0-1.6-.2-1.9-.1-.3-.3-.5-.5-.7-.2-.2-.5-.2-.8-.2s-.8.1-1.1.3c-.3.2-.6.5-.7.9-.1.4-.2,1.1-.2,2.1v4.1h-2.4v-9.1h2.2v1.3c.8-1,1.8-1.5,3-1.5s1,0,1.5.3c.4.2.8.4,1,.7.2.3.4.6.5,1,0,.4.1.9.1,1.6v5.7h0ZM188.9,213.6c0-.8.2-1.6.6-2.3.4-.7,1-1.3,1.7-1.7.7-.4,1.5-.6,2.4-.6,1.4,0,2.5.4,3.4,1.3.9.9,1.3,2,1.3,3.4s-.4,2.5-1.3,3.4c-.9.9-2,1.4-3.4,1.4s-1.6-.2-2.4-.6c-.8-.4-1.3-.9-1.7-1.7-.4-.7-.6-1.6-.6-2.7h0ZM191.4,213.7c0,.9.2,1.6.6,2.1.4.5,1,.7,1.6.7s1.2-.2,1.6-.7c.4-.5.6-1.2.6-2.1s-.2-1.6-.6-2.1c-.4-.5-1-.7-1.6-.7s-1.2.2-1.6.7c-.4.5-.6,1.2-.6,2.1h0ZM66.2,236.7h-2.2v-1.3c-.4.5-.8.9-1.3,1.2-.5.3-1,.4-1.5.4-1,0-1.9-.4-2.7-1.3-.7-.8-1.1-2-1.1-3.5s.4-2.7,1.1-3.5c.7-.8,1.6-1.2,2.8-1.2s1.9.4,2.6,1.3v-4.5h2.4v12.6h0ZM59.8,232c0,1,.1,1.7.4,2.1.4.6.9.9,1.6.9s1-.2,1.4-.7c.4-.5.6-1.2.6-2.1s-.2-1.8-.6-2.3c-.4-.5-.9-.7-1.5-.7s-1,.2-1.4.7c-.4.5-.6,1.1-.6,2h0ZM73.4,233.8l2.4.4c-.3.9-.8,1.6-1.5,2-.7.5-1.5.7-2.5.7-1.6,0-2.8-.5-3.5-1.6-.6-.8-.9-1.9-.9-3.1s.4-2.7,1.2-3.5c.8-.9,1.8-1.3,3-1.3s2.4.4,3.2,1.3c.8.9,1.2,2.3,1.1,4.1h-6c0,.7.2,1.3.6,1.7.4.4.8.6,1.4.6s.7-.1,1-.3c.3-.2.5-.5.6-1h0ZM73.6,231.4c0-.7-.2-1.2-.5-1.6-.3-.4-.8-.5-1.3-.5s-1,.2-1.3.6c-.3.4-.5.9-.5,1.6h3.6ZM82.4,236.7v-12.6h2.5v4.9h5v-4.9h2.5v12.6h-2.5v-5.5h-5v5.5h-2.5ZM94.6,226.4v-2.2h2.4v2.2h-2.4ZM94.6,236.7v-9.1h2.4v9.1h-2.4ZM107.4,236.7h-2.2v-1.3c-.4.5-.8.9-1.3,1.2-.5.3-1,.4-1.5.4-1,0-1.9-.4-2.7-1.3-.7-.8-1.1-2-1.1-3.5s.4-2.7,1.1-3.5c.7-.8,1.6-1.2,2.8-1.2s1.9.4,2.6,1.3v-4.5h2.4v12.6h0ZM101,232c0,1,.1,1.7.4,2.1.4.6.9.9,1.6.9s1-.2,1.4-.7c.4-.5.6-1.2.6-2.1s-.2-1.8-.6-2.3c-.4-.5-.9-.7-1.4-.7s-1,.2-1.4.7c-.4.5-.6,1.1-.6,2h0ZM111.1,230.4l-2.2-.4c.2-.9.7-1.5,1.3-2,.6-.4,1.5-.6,2.7-.6s1.9.1,2.4.4c.5.3.9.6,1.1,1,.2.4.3,1.1.3,2.2v2.8c0,.8,0,1.4,0,1.8,0,.4.2.8.4,1.2h-2.4c0-.2-.1-.4-.2-.7,0-.1,0-.2,0-.3-.4.4-.9.7-1.3.9-.5.2-1,.3-1.5.3-.9,0-1.7-.3-2.2-.8-.5-.5-.8-1.2-.8-1.9s.1-1,.4-1.4c.2-.4.6-.7,1-.9.4-.2,1.1-.4,1.9-.6,1.1-.2,1.9-.4,2.3-.6v-.2c0-.5-.1-.8-.3-1-.2-.2-.7-.3-1.3-.3s-.8,0-1,.3c-.2.2-.4.5-.6.9h0ZM114.4,232.4c-.3.1-.8.2-1.5.4-.7.1-1.1.3-1.3.4-.3.2-.5.5-.5.8s.1.6.4.9c.3.2.6.4,1,.4s.8-.1,1.2-.4c.3-.2.5-.5.6-.8,0-.2,0-.6,0-1.2v-.5h0ZM118.7,236.7v-12.6h2.4v12.6h-2.4ZM122.9,237.3l2.8.3c0,.3.2.5.3.7.2.2.6.3,1.1.3s1.1,0,1.4-.3c.2-.1.4-.3.5-.6,0-.2.1-.6.1-1.1v-1.3c-.7,1-1.6,1.5-2.7,1.5s-2.2-.5-2.9-1.6c-.6-.8-.8-1.8-.8-3.1s.4-2.7,1.1-3.5c.7-.8,1.6-1.2,2.7-1.2s2.1.5,2.8,1.5v-1.3h2.3v8.2c0,1.1,0,1.9-.3,2.4-.2.5-.4.9-.7,1.3-.3.3-.7.5-1.3.7-.5.2-1.2.3-2,.3-1.5,0-2.6-.3-3.3-.8-.6-.5-1-1.2-1-2s0-.2,0-.3h0ZM125,232c0,1,.2,1.7.6,2.1.4.4.8.7,1.4.7s1.1-.2,1.5-.7c.4-.5.6-1.1.6-2s-.2-1.6-.6-2.1c-.4-.5-.9-.7-1.5-.7s-1.1.2-1.4.7c-.4.5-.6,1.1-.6,2.1h0ZM132.8,232c0-.8.2-1.6.6-2.3.4-.7,1-1.3,1.7-1.7.7-.4,1.5-.6,2.4-.6,1.4,0,2.5.4,3.4,1.3.9.9,1.3,2,1.3,3.4s-.4,2.5-1.3,3.4c-.9.9-2,1.4-3.4,1.4s-1.6-.2-2.4-.6c-.8-.4-1.3-.9-1.7-1.7-.4-.7-.6-1.6-.6-2.7h0ZM135.3,232.2c0,.9.2,1.6.6,2.1.4.5,1,.7,1.6.7s1.2-.2,1.6-.7c.4-.5.6-1.2.6-2.1s-.2-1.6-.6-2.1c-.4-.5-.9-.7-1.6-.7s-1.2.2-1.6.7c-.4.5-.6,1.2-.6,2.1Z"/>
  <path class="st0" d="M84.9,185.3v1.2s.7,0,.7,0v.3c-.7,0-.6.1-.9-.2l-.4-.4s-.5-.1,0-.8c.2-.3.1.2.2-.7.5,0,.3,0,.8.2l-.4.4h0ZM76.2,184.5c0,.6.4.9.8,1.3.3.2.9.7,1,1.1l2.6,1.7v-.2c.2.5,4.9.5,5.1-.3l-1.1-.3c-.4-.2-1.2-.9-1.4-1.4,0-.3,0-.9,0-1.2l-6.9-.7h0ZM110.6,188.3v-.3c1.2,0,1.6-.5,2.5-1.3v-1.7s7.2-.6,7.2-.6c0,.5-2,2.3-2.5,2.8-.5.5-.5.2-1.1.7-.9.9-3.2.8-4.6.7-1,0-.6-.4-1.5-.4h0ZM110.3,184.5c0,.6.5.6,1,.7l.3,1c-.2.1-.6.5-.6.8h.7c0,0,.4-.7.4-.7,0-.3,0-.7,0-1l-.4-.4c-.5-.5-.6-.4-1.3-.3h0ZM109.2,185.5c-.6,0,0,0-.3.1l-.2.2c-.2.3-.2,0-.2.6-.1,1.7.2,2.2,1.7,3.6.3.3,1.9.9,2.5,1,1,0,2.3-.2,2.9-.5,1.3-.6,3.4-1.7,4.2-2.7.5-.6,1.1-1.2,1.7-1.7.2-.2,1.4-1.7,1.4-2-2.9,2-1,.6-3.2,2.8-1.3,1.2-1.7,1.6-3.5,2.4-1.2.5-4.1.5-5.3,0-1.4-.6-1.9-1.4-1.9-2.7,0-1.1.3-.4.3-1.2h0ZM73.4,184.2c0,.3.6.8.8,1,.4.4.4.7.7,1,.4.5.9.9,1.7,1.7,1.1,1.3,5.1,3.6,7.1,3.1.6-.2,2-.5,2.5-1,.5-.5,1.2-1.3,1.5-1.9.3-.6.5-2.2-.3-2.3l-2,3.5c-.6.2-1.6.3-2.5.3-3.1,0-1.1-.2-2.3-.3-1.8-.2-2.4-1.3-3.5-2.1-.5-.4-1-.9-1.3-1.5-.3-.7-.8-.6-1.1-1.6h-1.3ZM101.5,178.6c-.7,0-2.6-.6-3-.8-.7-.3-.8,0-1.5-.4-.4-.3-.2-.1-.9-.2-.9,0,0,0-.7-.2-1.3-.4-6.1-.5-7.6-.5-2.1,0-5.7.2-7,1-.3.2-.4,0-.8.2-.9.2,0,.1-.7.3-1.4.3-1,.2-2.3.7-.8.3,0,.2-.7.3-1,.1-.5-.2.2-.5.3-.1,1-.4,1.4-.6.4-.2.2,0,.7-.2.7-.2-.1,0,.7-.4.9-.4,3.8-1.3,4.5-1.4,1,0,1.1-.2,1.8-.3,1.6-.2-.7-.4,3.5-.4.6,0,1.3,0,2,0,1.3,0,0,.4,1.7.4,1,0,5.4,1.3,6.2,1.7.5.3.9.3,1.4.6,1.3.8,1.2.2,1.2.8h0ZM48.7,170.9c0,.4,0,.3,0,.5h-.6v.3c-.8,0-.6,0-1.2.3v-.6c0,0,.7,0,.7,0v-.4c.5,0,.6-.2,1.1,0h0ZM117.6,172.2c.1-.3,1.7-.8,2.1-1,.6-.2-.1,0,.7-.4,2.5-1.1,6.1-1.6,6.4-1.7.7-.3-.7-.3,1.6-.3h4.1c1.3,0,0,.3,1.6.4,1.2,0,5.3,1.3,6.3,1.9l2.7,1.5c-.2,0-2.4-.6-2.6-.7-1-.4-1.9-.3-3.2-.5-.8-.1.2-.4-1.4-.4-1,0-.9,0-1.5-.2-.5-.2-7.8-.1-8.2,0-.9.2,0,0-.6.2-.4,0-1.4,0-1.8,0-1.3,0,0,.3-1.5.4-1,0-.8.2-1.5.3-.7.1-2.5.9-2.9.6h0ZM48.7,170.9c.7.2,1.9-.5,2.6-.6.9-.1.7,0,1.4-.2.2,0,.9-.4,1.1-.4,2-.2,3.9-.4,6.2-.4,1,0,.7.2,1.4.3.5,0,1.1,0,1.6,0,2.7,0,1.8.3,2.9.4,1.9.1,1.4.3,2.6.6.5.1,1.5.3,2,.5.8.4-1.1,0,2.2.7.1-.5,0-.2-.4-.5-1.3-.8-3.4-1.7-5-2-.9-.2,0-.2-.6-.4l-4.6-.7c-1.8,0-3.5,0-5.3,0-.3,0-2,.4-2.2.5-.5.2-.7,0-1.1.2-.7.2.2.1-.9.4-.8.2-3.4,1.3-3.9,1.3v.3h0ZM103.3,170.9v.3c-.6.5-.6.5-1.1,1.1-.7,0-.5.2-.9.3-.7.3-1.2-.3-2.4.3-1.3.6,0,.5-2.4.5s-.5-.2-1.3-.4c-.2,0-1.4-.3-1.5-.3-1.1-.1-2.6.2-3.4-.2-.5-.3-.8,0-1.4-.3-1.2-.6-3.1-.7-4.5-.9,0-.5-.7-.4-1.1-.3-.6.3-.9,1.1-1.6.3-.4-.5.2-.2-.8-.4-2.9-.6-1.5-.2-4.6-1.2h.8c0-.6.3-.1.8-.7.6-.6.2-.2.8-.5.8-.4,1-.9,2.9-1.2.4,0,.6-.3.9-.5l2.2-.6c0-.4.5-.2,1-.7.5-.5.5,0,1.1-.5,0,0,2.5-.5,2.9-.6,1.3-.3.8-.6,2.7-.6.9-.1,2.1-.7,3.2-.7s2.9,0,3.3,0c.7.2,1.9.6,2.9.6,1.7,0,1.4.2,2.6.7.6.2.6.2,1.4.4.5.1,2.5,1.7,3,2.2h0c0,.1,2.2,1.8,2.2,1.8h.1c-.9.1-1.2.5-1.8.8-.5.2-1.4.4-1.9.6-.5.2-.8.8-1.5.9-.7,0-1.7,0-2.5,0h0ZM38.2,126.7c-.3,0-.4.3-.6.5-.8,1.1-.8.1-.8,2.1v27.5c0,1.2-.2,9,.1,9.8.2.6,0,1.2.4,1.5.6.6.3.6.6,1.3.2.6.9,2.1,1.4,2.5.4.3.6.7.8,1.1.8,1.1,2.1,1.9,3,2.8.4.3.5.2,1.2.7.3.2,2.1,1.1,2.5,1.3.3.1,1,.5,1.4.6l2.3.7c.8.2-.2,0,.5.3.3,0,1.3.3,1.6.4.8,0,.4.3,1.7.3,1.3,0,2.5.6,5.2.7,1.1,0,1.1.2,1.8.3.3,0,.7,0,1,0,.8.1.1,0,.6.3.4.2,3.1.1,3.8.1,1.5,0,2,.3,3.6.3,2.2,0,5.4.6,7.2.6.6,0,1.3,0,2,0,.8,0,.5.3,1.6.3,1.3,0,2,.3,3.6.4,1.7,0,.2.3,1.5.4,2.1.2,1.6.3,3.3.7.6.2.3.4,1.3.7.8.2,1.6,1,2.5,1.4.5.2.7.6,1.1.8.4.2.3.1.6.4.1.1.4.4.5.5.6.5,1,.9,1.5,1.5.4.4-.1.3.6.4l1.9-1.8c.5-.5.4,0,1-.7.7-.7,1.9-1.2,2.8-1.8.5-.3-.2,0,.6-.3.4-.2.9-.5,1.2-.6,2.6-.9,1.6-.6,4.3-1.1,1-.2-.3-.4,1.3-.4.8,0,1,0,1.6-.2.3-.1,5.9-.5,6.7-.5,2.3,0,4-.5,6.4-.6,1.4,0,2.1-.3,3.3-.3.7,0,3,0,3.5,0,.8-.2-.3,0,.6-.3.7-.2,2,0,2.7,0,.9,0,0-.3,1.4-.3,1.1,0,.8,0,1.5-.3,1.1-.3,2.1,0,3.1-.5.5-.2,2.3-.5,3-.6l.6-.4c.8-.2.3-.1.8-.3,1.1-.3,1.9-.7,2.9-1.2.6-.3.6-.5,1.2-.8,0,0,.6-.2.8-.3,0,0,.6-.4.6-.4,1.3-.8,2.2-1.5,3.4-2.7.7-.7,1.2-1.5,1.9-2.3.5-.6,1-2.1,1.3-2.8.5-2,.6-1.2.7-3.5,0-1.4,0-2.7,0-4.1v-24.7c0-2.2.3-6.1,0-8.2l-1.2-1.3v30.5c0,2.3.3,5.4-.3,7.3-.1.4,0,.6,0,.9-.2.9,0,0-.3.6-.2.4-.3,1-.4,1.4-.2.9-.9,1.8-1.3,2.5-.2.5-.6.6-.9,1-.4.5-.1.5-.8,1.1-.2.2-.8.7-1,.9-.5.5,0,.2-.5.5-.3.2-.3.1-.6.4-1.1,1-1.8,1.1-2.2,1.6-.8.7-2.8,1.6-3.9,1.8-1.1.2.2.1-1.3.5-.5.1-1.8.9-2.8.9-.9,0-2.6.4-3.2.6-.8.3-.8-.1-1.6.3-.3.2-1.1.2-1.6.2-1.4,0-1.9.3-3.5.3-.6,0-1.4,0-1.9,0-.7,0-.3.3-1.5.3-.7,0-1.3,0-2,0-.8,0-.8.3-1.6.3-1.6,0-2.1,0-3.5.3-.6.1-1.4,0-1.8.1-1,.4-2.5,0-3.5.3-.6.2-.1.3-1.5.3-.6,0-1.3,0-1.9,0-.8,0-.4.3-1.5.3-.9,0-2.6.6-3.1.7-.8,0-1,.2-1.5.5-.4.2-.2,0-.7.2-.8.2,0,0-.6.3-.3.2-.5.2-.7.3-.5.4-1.1.8-1.7,1.1-.4.2-1.5,1.4-2,1.8-.6.5-1.3,1.8-2.1,1.7-.7,0-1.7-1.7-2.6-2.3-.3-.2-.3-.1-.6-.4-.3-.3-.4-.6-.9-.9-1.4-1-3.1-2-5.2-2.4-1.5-.3-1.5-.6-3.2-.6-1.3,0-.4-.3-1.6-.3-2,0-1.1,0-1.6-.3-.1,0-6.4-.5-7.1-.5-1.6,0-5.9-.6-7-.6-1.4,0-.7-.3-1.6-.3h-3.8c-.9-.1-.8-.3-1.6-.4-.5,0-1.5,0-1.9,0-.4-.2.3-.3-1.5-.4-.4,0-4.1-.9-4.6-1.1-1.5-.6-2.6-.8-4.1-1.5l-1.3-.6c-.4-.2-.3,0-.6-.3,0,0-.2,0-.3-.2-.9-.5-1.8-1-2.6-1.7-.4-.3-.5-.7-1-.9-.9-.5-.3-.2-.9-.9-1.1-1.1-1.7-2-2.4-3.3l-.7-1.2s-.8-2.8-.8-3c-.1-.7-.3-.4-.3-1.6,0-.6,0-1.2,0-1.9,0-1.3,0-2.5,0-3.8,0-10.1.2-20.4,0-30.4h0ZM130.1,163.9c0-.5,1-.9,1.2-1.1.3-.2,0,0,.2-.2,1.8-1.2,5.1-2.3,7.2-2.3,3.2-.1,5.3.9,7.8,2.2.5.2.9.7,1.3,1.1-.9,0-1.4-.4-2-.6-1-.3-1.4-.7-1.9-.8-3.4-.5-6.5-.7-9.9.2-.8.2-.3,0-1,.3,0,0-1.5.5-2,.7-.4.2-.5.3-1,.4h0ZM55.1,162.4c-.2-.4-.3-.4.9-.9.4-.2,1.1-.4,1.5-.6.5-.2.3-.2.6-.4.4-.2.3,0,.8-.2.5-.1.9-.5,1.5-.6.3,0,3.1-.8,3.3-.9.5-.2,3.2-.2,4-.2,1,0,3.3,0,4.2.1.8.1-.1.1.7.3.3,0,1.8.2,2.6.6l2.3.8c.8.3,0,0,.7.4.8.5,1.1,0,2.8,1.3-.7,0-.5,0-1.1-.2,0,0-.3-.1-.3-.1-.5-.3-.9-.2-1.4-.5-.9-.5-1.8-.7-3.1-.9-.7-.1-2.4-.6-3.2-.6-2.3,0-5.5,0-7.8,0-.4,0-1.1.2-1.6.3-.7.2.2.1-.6.2-.3,0-.7,0-1,0-.8.2.2,0-.5.3-.1,0-1.5,0-2.5.5l-2.7,1.1h0ZM103.6,158c0,.5,0,.3-1.7.4,0,.6-.2.3-1.7.4-1.3,0,.6.3-1.8.3h-3.8c-.8,0,0,0-.6-.3h-1.9c0,0,0-.8,0-.8,1.1,0,2,0,3,0,1.2,0,.3.2,1.3.3h1.6c0-.5,0-.3,1.6-.3,3.1,0,0-.3,2.6-.4,1.2,0-.2-.2,1.8-.4.6,0,.4,0,.9.2-.1.3,0,.1-.2.3-.4.3-.6.3-1.2.3h0ZM105.4,157.3v-1.4c.8,0,.5,0,1,.4v.6s0,0,0,0c0,.3-.5.4-.9.4h0ZM112,156.9c.1-.4.1-.1.6-.4.4-.3-.2,0,.6-.3,1.2-.5,2.6-1,4-1.4,0,0,1.4-.4,1.4-.4.6-.3-.3-.2.5-.3.2,0,.6,0,.8,0,.8,0,.4-.3,1.5-.3.6,0,1.2,0,1.8,0,2.5,0,2.3.2,4.2.3h1.4c.9.2-.4.3.9.4.5,0,2.8.8,3.1.9.4.2.6.3,1,.4,1.4.3.8.8,1.9.8h-1.9c-1.1-.2,0-.4-1.4-.4-.8,0-2.2-.7-4.5-.7-1.3,0-1.6-.3-3.1-.3s-4.9,0-5.5.2c-.6.3-1.5,0-2.3.3-.4.1-3.8,1-4,1v.2s-1.1,0-1.1,0h0ZM42.7,153.1c0-.4.2-.2.6-.5.2-.1,0,0,.4-.2.6-.2,1-.6,2-.8,1-.2,0-.2.8-.3,1.3-.2,1.7-.3,3-.3,1.7,0,2.5.2,3.8.6.9.3,1,0,1.7.5.4.3.9.6,1.5.6v.3c-4.7-.8-4.3-.7-9-.6-1.1,0-.9.2-1.6.3-.6,0-3.2.4-3.3.3h0ZM110.9,154.5c.2-.4.4-.5.7-.7.6-.2.3-.3.8-.5.4-.3.2,0,.7-.4h.1c0-.1.1-.1.2-.2.3-.1.1,0,.4-.3l.6-.6c.2-.2-.2,0,.3-.1.2,0,.6,0,.8,0l-.4.6c-.6.6-.6.3-1.1.7l-.3.3s0,0,0,0c0,0,0,0-.1.1,0,0,0,0,0,0-.4.3-.4,0-.8.4-.2.2-.2.2-.3.3-.2.2,0,0-.2.2-.1,0-.2,0-.3.1,0,0,0,0,0,0,0,0,0,0,0,0l-.9.5c-1.2.4-.5.4-1.1.6-1,.4,0,.3-1.1.4-.9.1.1,0-.8.4,0,0,0,0,0,0-.4.2,0,.3-.9.3v-.7c.7-.2.5-.1,1.1-.4.4-.2.1-.1.5-.3.5-.2.6-.3,1.3-.6,0,0,0,0,0,0,0,0,0,0,0,0,.6-.3,0,0,.4-.3.2-.1.3-.1.6-.1h0ZM114.4,150.4h.7s0,1,0,1h-.7s0-1,0-1h0ZM127.3,142.1c1.3,0,.8-.3,1.4-.4.5-.1,1.1,0,1.6-.2,1.5-.6.9-.5,3-.6.9,0,1.1-.7,3-.7.9,0,2.7,0,3.5,0,.9.1,1.7.6,3,.6,1.3,0,2,.2,2.8.8.7.5.6.2,1.3.5,2.1.9,2.6,2.2,3,2.3v.2c-.1,0,1.7,1,1.7,1v.5c-2.1.2-1.2.1-3.4,1-.8.3-1.1,1-1.8,1.1-1,.2-2-.3-2.6.3-.8.8-1.5,1-1.6,1.3-2-.2-1.6-.4-2.4.2h-.2c-.2.2-1.6.5-1.6.5-.4,0-2.1-.3-2.2-.3-.6-.2.2-.2-.4-.3h-3.2c0-.1,0-.3,0-.3-.9,0-1.3,0-1.9-.2-.4-.2-.5,0-.9-.2-.8-.1.1,0-.7-.3-.6-.2-2.8-.7-3.4-.7-1.2,0-1.5.3-2.2.4-.9,0-.9-.6-1.2-.7l-5-.8h0c1.8-.9,1.3-.7,3.1-1.8h0c0-.5,1.2-.6,1.6-.8.5-.2,1.6,0,1.6-.8l4.2-1.7h0ZM72.7,144.1h.7s0,.7,0,.7h-.7c-.2,0-2.4.8-3.1,1-.4.1-.2.2-.7.6-.8.6-1,.5-2.3.5-1.2,0-1.2.3-1.8.9-.3.3-1.1,1.1-1.8.9-1.3-.4-.4-.3-1.8.3-.2.1-1.9.4-2.2.4-.6,0-1.6-.5-2.1-.6-1.4-.4-3.5,0-5-.5-.7-.2.1,0-.5-.3-.2,0-.5,0-1.5-.5-.2,0-1.8-.5-2.1-.5-2.4-.2-2.5.8-4.7-.2-.6-.3-1.7-.3-2.2-.5-.9-.3.7-.4-2.3-.4v-.3c.6-.3,2.1-.9,2.6-1.3.7-.6,1.7-1,2.8-1.1.8,0,.2,0,.8-.4.6-.5,1.6-.5,1.9-.6.6-.2,0,0,.4-.3.1,0,.3-.2.4-.2.1,0,.7-.4.8-.5,1-.4,1.9-.7,3.1-.7.5,0,.7-.1,1-.3,1.1-.6-.1-.3.7-.5l3-.4c.8-.2,0-.3,1.2-.4,1.2,0,3.7,0,4.5.3,0,0,2.6.4,2.7.4,1.5,0,1.4.5,2.5.8.7.2.3.1.6.2.3.1,1.1.2,1.7.6.4.3,2.8,3,3.4,2.9h0ZM100.5,139.3c-.2-.3-.1.2-.2-.3.6-.2.6,0,1.2,0v1.5c-.5,0-.4,0-.6-.2-.5-.5-.3-.7-.4-1h0ZM86.9,137.1c0-.5,0-.3.7-.3v1.7h-.3c-.3.4-.1.4-.7.3,0-1.2-.1-1.8.4-1.8h0ZM112.7,136.5c1,0,0,.2.7.3v1c-.7,0,.3.4-.7.4v-1.7h0ZM113.8,146.7c-.3-.3-.3,0-.3-.4h-.8s-2.7.4-2.7.4l-3,8.2c.7.3.4,0,.7-.2,0,0,.2-.1.3-.1.6-.3.3-.2,1-.5.7-.3,1.1-.6,1.8-.9.7-.3,1.1-.8,1.6-1.1.7-.4.9-.9,1.7-.9-1,1.9-.4.8-1.6,1.8-1,.8-1.9,1-2.3,1.3-.5.3,0,0-.5.4-.6.3-1.1.5-1.8.8-.5.3-1,.2-1.6.2-1.5-.1-1,.3-1.5.3l-1.9-7.3-5.8-.2-4.3,8.1c.3.2,3.9.4,4.8.4,2.9,0,1.4,0,2.3-.3.8-.1,2,.3,2-.4l2.8-.4c.1.8-.4.8-.9,1-.6.2-.9,0-1.5.3-1.2.7-7.9.7-9.7,0v-1c0,0-1.4,0-1.4,0v.4h.3s.7,0,.7,0c0,.3,0,.7,0,1-.3,0-.2,0-.3.2h0c0,.1-.3.1-.3.1v.3c0,0-1.3,0-1.3,0v-.3c-1.2,0-.1,0-1.4-.3-.8-.2,0,0-.6-.3-.5-.2-.5,0-.9-.2-.3-.2-.2,0-.8-.4l-.4-.2c-.2,0,0,0-.2-.1-.2-.2-1-.5-1.4-.7l-.5-.2c-.5-.3,0-.1-.5-.3-.4-.1-.2,0-.5-.2,0,0-.3-.2-.3-.3-.5-.4-.2,0-.9-.6-.2-.2,0,0-.2-.2-.1-.2,0-.2,0-.5h.6c0,0,0-.3,0-.3h-1c-.3,0-.2,0-.3-.1v-1s0-.4,0-.4h-.9c0,0,.8,1.4.8,1.4l-.3.2-1.5-1.4v-17.6s1.4-.3,1.4-.3c1.8,2.6,1.2,1.7,4.3,3.3,1.6.8,1.5.4,1.3,1.2l-1.5-.4c-.3,0-3.7-2-3.7-2v1.9c0,1,.3.6.3,1.5,0,.5-.1,1.3.1,1.7.4.6.3.2.3,1.4,0,1.1.2,6.1.4,6.8,1.6-2,.6-1.2,1.2-2.4.2-.5.3-.3.4-.6,0,0,.3-1.2.7-1.9.4-.8.6-1.8.9-2.7.5-1.2.4-.4.6-1.1.1-.5.2-.9.4-1.4h1.5s.6-.6.6-.6l2.8.5c.4.2,1.1.1,1.7.1,1.1,0,.1.3,1.3.3.3,0,.6,0,.9,0,.7.3-.2.1.5.3.5.1,4,0,4.9.1v.6s1.6.4,1.6.4l2.4,7.5h.1c0,.3.5,2.7.5,2.9.6,1.2.6,2.3,1,2.5l6-15-1,.3c-1.2.2-.2.3-1.1.3-1.4.1-.6.1-1.2.4-.4.1-.9,0-1.4.2-.9.4-1.6.2-2.8.3-.3,0-2.6.7-2.2-.1.1-.4.8-.3,1.4-.3.8,0,.8-.1,1.2-.3.2,0,2.2-.4,2.5-.4,1,0,1.7-.3,2.4-.6.5-.2,2.2-.3,2.3-.7h.2v.6c0,0,1.5,0,1.5,0v1.3c.2.2.3.4.3,1,.1,2.8.2.9.3,2.1,0,.7,0,4.2.6,4.3l.6-10.2v-.2c-.1,0-1.7,1-1.7,1-.5-.8,1-1.4,1.3-1.7.4-.4.6-1.5,1.3-1.6l-1.1,15.3h-1.4s-.3-3.3-.3-3.3h0ZM129.4,136.2c.6,0,1.8-.4,2.1-.6.3-.2,1.5-.4,2.1-.5,1-.2-.1-.2,1-.3.7,0,.7,0,1.2-.2.7-.3,4.4-.2,5.4-.2.9,0,0,0,.7.3.3,0,.6,0,.9,0,.2,0,1.2.3,1.5.4.6.2.7.3,1.7.3l5.1,2.1v.4c-1.3,0-.6,0-1.6-.5-.2,0-2.3-.9-2.7-.9-1.2,0-2.9-.7-4.2-.7-.3,0-.9,0-1.2,0-1.4-.1,1.3-.3-3.2-.3-.9,0-.5.1-.9.3-.6.3-3.2-.2-3.2.4-2.6.5-4,.6-6.5,1.4-.6.2.1.1-.9.4-.8.2,0,.3-1,.3.3-.7.4-.6.8-.7,1-.2,0-.4,1.2-.4l1.7-.9h0ZM56.8,136.2c.8,0,2.9-1.4,3.5-1.5,1-.2.3-.2.9-.3.3,0,.8,0,1.1-.1.9-.2,2.6-.4,3.7-.3l5.1,1c.5.2.6.2,1.2.4.6.2,0,0,.4.3.2.2,1,.4,1.5.8.4.4.8.3.9.5-.5.2-.4.2-1.5-.3-.4-.2-.3-.3-1-.3l-1.3-.6c-.3,0-.6,0-.8-.1-.7-.3.3-.1-.6-.3-.9-.2-.6.1-1.5-.3-.5-.2-4.4,0-5.3,0-.9,0-.6,0-1,.3-.3.1-.7,0-1.1,0-1.2.2,0,.2-.8.4-.8.2-1.2.2-2,.5-.2,0-1.5.6-1.8.6l.4-.6h0ZM88.7,128.8c1.2,0-.2-.3,2.3-.3.7,0,2.1-.5,4.6-.3,1,0,.2.7,1.9.7.7,0,.6,0,1.1-.3.6-.3,2.9,0,3.5.1.5.2,1.8,0,2.4.1,1,0,.8.9,1.4,1.1l1.7-.3s1.1.3,1.6.4c.7,0,2.2.9,2.8,1l.3,1,2.1.3v1.6c.2.5.7.5.7.8,0,0-.4,1-.6,1.2,0,0-.9.6-1,.6-.8,0-1.5-.8-1.6,1l-1.1.4c-.9.4-2.9.5-3.5.7-.5.2-4.3.4-5.3.4l-1.4-.7c-.6,0-.3,0-.7.3-.3.2-.3.3-.7.4-.5,0-3.5,0-4,0-.6,0-.8-.2-1.8-.3-.6,0-1.4,0-2,0-.9,0,0,0-.7-.3-.3-.1-.6,0-.9-.1-.6-.2-.7-.2-1.6-.3l-.4-1.3c-1.4,0-.9-.2-1.9.7l-2.8-1.3c-.2,0-1.5-1-1.7-1.2-.7-.6-.5.2-.5-2.7l1.7-1.3,3.6-1.5.7.8c.3,0,1,0,1.3,0l.4-1.1h0ZM115.4,133.2s0,0,0,0c0,0,0,0,.1-.1.1-.1,0,0,.4,0,.4.4.2.2.5.4v.7s-1.4,0-1.4,0v-.7s0,0,0,0h.2ZM79.3,133.1c.2-.4,0,0,.2-.2,0,0,0,0,0,0l.2-.2c.3-.1.6,0,.8,0v.6s-.7,0-.7,0v.4h-.6c0,0,0-.5,0-.5h0ZM115.9,132.2c.3.3.2-.2.2.4h-.9c-.1-.2-.1-.2-.3-.3l-.6-.5s0,0,0,0c-.2-.2-.2,0-.2-.4h1c.2.5,0,.2.4.5l.4.5h0ZM79.6,131.1c.2-.2,0-.1.3-.3l.2.2c.2.2.4.2.2.5l-.7.7c-.3.2-.2,0-.2.3h-.4c.4-.8.3-.5.4-1.3l.2-.2h0ZM113.4,131.5s0,0,0,0c0,0,0,0,0,0h-.6c-.4-.5-.4-.3-.4-.7.3,0,.2-.2.4-.4h1c0,.6,0,.5-.2.7-.2.2,0,0-.2.2,0,0,0,0,0,.1h0ZM81,131.1c-.4-.2-.3-.3-.4-.5,0,0,0,0,.2,0,.7-.2.9,0,1.2.5v.6c0,0-.6,0-.6,0-.3-.6-.1-.2-.5-.5h0ZM152.2,131.9c.5,0,.5,0,.5.3h.7c0,.1.1.8.1.8-.6-.4-.3-.3-1.4-.4v-.3c-.6,0-1.9-.5-2-.6-.3,0-.5,0-.8,0-.7-.2.3-.3-1.2-.4-.8,0-.3-.3-1.4-.3-1.5,0-1.6-.3-3.1-.3-2.9,0-6.9-.1-9.5.6-.8.2-2.1.4-2.7.6-.4.2-2.4.7-2.7.4l2.5-1.2c.4-.2.9-.3,1.4-.5.7-.3,1.9-.4,2.8-.8.5-.3,1.1,0,1.7-.2.6-.2.1-.3,1.5-.4,1.2,0,4.6-.2,5.3.2.5.3,2.3.4,3,.7l2.8.8c1.1.2,1.8,1.1,2.5,1.1h0ZM105.8,128.1h1.1c0,.8,0,.5,0,1.3h-.7c-.2-.4-.3-.4-.3-.7v-.6h0ZM110.2,129.5c-1.2,0-.9,0-.9-.4-2.2-.2-.3-.3-1.8-.4v-.7c1.2,0,1,0,1,.3l1,.2c.3.1-.3.2.9.2l.2.2c.2.1.7.1,1,.1v.3c1.3,0,.2.3,1.1.3v.4h-.9c-.7,0-.3,0-.5-.2-.3-.2-.4,0-.7-.1-.5,0,0,0-.3-.3h0ZM34.3,130.4l-.6-1.1c0-.1,0-.1,0-.3-.2-.8-.3.1-.3-1.7.4.2.6.3.8.6h.9c0,.1,0,3.1,0,3.1-.2,0-.1,0-.2,0,0,0,0,0,0,0-.4-.3-.3-.3-.4-.6h0ZM82.6,128.8c.2,0,.4,0,.6,0,.7-.1,0-.2.8-.3,1-.2.1-.3,1.1-.3.7,0,.3,0,.6-.3h.5s0,.6,0,.6l-.5.2c-.7.4-.5,0-1,.2-.4.1,0,0-.3.3h-.9v.4c-1.2.4-.7.3-2.1.4.5-1,.2-.1.4-.8l.7-.4h0ZM48.3,128.4c0-.6,4-1.1,5.3-1l4.1.9c.6.3,1.1.5,1.7.8.6.3.2.2.7.6.5.4.7,0,.7.5l1,.5v.2c0,0-1.4-.5-1.4-.5h0c-.7-.2-2.4-1.1-3.3-1.3-1.4-.4-4-.8-5.5-.6l-4,.7c-.9.1,0,0-.8.4-.7.3-1.7,1-2.4,1v-.2c-.1,0,3.8-1.9,3.8-1.9h0ZM87,129.1l-.3-.7v-.3h1.4c.4.4.3.2.3.9-.8.1-.5.1-1.4,0h0ZM96.8,126.7h.9c.2.9.1.7,0,1.7h-.9s0-1,0-1v-.6h0ZM161.7,127.7v-.7c.1,0,.7,0,.7,0v.7s-.3,0-.3,0v.7s0,0,0,0h0c-.4.7,0,.4-.3.9v.2c-.4.7-.1.2-.4.6-.3.4,0,.5-.3.6l-.2-.5v-2.2c.8,0,.6,0,1-.4h0ZM102.9,127.9c-.3-.2-.9-.1-1.3-.1-1.4,0-1.1,0-1.1-.3h-2c0,0,0-.2,0-.2v-.6s1.4,0,1.4,0c1.9,0,0,.3,3.4.3l.2.4h2.1c0,0,0,.7,0,.7h-2.1c-.6-.1,0,0-.4-.2h0ZM91.8,126.9c0-.2-.2-.2.8-.2h3.4c0,.3,0,.5,0,.7h-4.5c-.7.2.2.3-1.6.3-1.2,0,.2.2-1.4.3-.6-.6-.4-.2-.8-.4,1.2-.6.5,0,.8-.6h3.3ZM160.4,125h1c-.7,1.2-.5.4-1.1.9-.1.1,0,0-.2.1l-.2-.2c-.2-.6.3-.5.4-.5v-.4h0ZM35.5,126c-.4-.2-.6-.3-1-.4-.5-.8-.5-.1-.4-.7h.8c.1.6,0,.4.5,1.1h0ZM45.5,125.7c.8,0,.1,0,.5-.3.2-.2.2,0,.4-.2.2-.1,0,0,.3-.3.4-.3.4-.2.7-.4,0,0,0,0,0,0h.1c.4-.4.1,0,.7-.4.2-.1-.2,0,.2-.1.2,0,.4,0,.6-.1.5-.2-.1-.3,1-.3.8,0,3.4-.1,3.9,0l.4.3s.8.2,1.2.5c.4.3.3,0,.7.3.9.5.5.2.8.6.3.3.2-.2.3.4-1,.1-.2,0-.9-.3-.8-.2,0,.3-1.5-.6,0,0,0,0,0,0-.3-.2-.4-.1-.8-.1-.4,0-.9,0-1.2-.1-.3-.1.3,0-.5-.2-.2,0-1.7,0-1.9,0-.2,0-.1,0-.2.1-.4.2-.8,0-1.4.1-.9.1.2.2-1.5.4v.3c-1.1.1-.7,0-1.1.3,0,0,0,0,0,0,0,0,0,0,0,0-.3.2,0,.1-.3.2-.2,0-.4,0-.5,0v-.2h0ZM163.6,125.7c.2.9.3.4.4,1.3,0,1.7,0,2.5-.7,4.3,0,.2-.8,1-1.1,2.3,0,.4-.4.6-.6,1.1-.4.8-.4,1.1-.7,1.1v-3.5s1.9-1.9,2-2.8c0-.3,0-.8,0-1,.3-.4.3.4.4-.6v-2.3s-.4,0-.4,0c0-.8,0-.6-.2-.8-.2-.2-.6-.5-.6-.5h-2s-.5.5-.5.5c-.4.5-.5,1.1-.2,1.5,0,0,0,0,0,0h0c.1.3,0,.2.2.3h1.6c0,.1,0,.4,0,.4-.6.5-.2.4-1.6.4-.5-.6-.5-.5-.9-.7h0c0-.1-.1-.2-.1-.3l-.2-.2c0-.9,0-1,.2-1.4.1-.2.1-.3.2-.6l.7-.3c.4-.2.3-.3.5-.4h1.8s.4.3.4.3c.5.2.2,0,.4.2,0,0,0,0,0,0,.4.4,0,.3.6.5.3,1.4.2.1.3,1.1h0ZM36.2,127v.4c0,0-1.4,0-1.4,0-.2-.5.2-.4-.4-.4v-.3h1.4c.8,0,1.6-2.6-1.6-2.5-1.9,0-1.9,2.1-1.9,3.4,0,.8.4,2.4,1,3,.3.3.3.4.5.8.4.7.9.5.9,1.8,0,.6.1,2.1-.1,2.5l-1.1-2c-.6-1.2-.3,0-.5-1-.1-.6-.4-.7-.6-1-.2-.5-.2-.7-.4-1.2-.2-.5-.3-.6-.4-1.2,0-.9-.2-2.3.1-2.9.4-.8.5-1.5,1-2.1.5-.5,1.5-.8,2.5-.7.6,0,.7.3,1,.5,1.4.8.9,2.8,0,2.9h0ZM111.7,125.9c0,0,2.4-1.2,2.7-1.3.7-.2.8-.2,1.5-.4.9-.2,2.1-.7,3.1-.9.4,0,.6,0,.9-.1.5-.3-.3-.2.6-.3,1-.1,2.8,0,3.9,0,2.8,0,7,1,9.6,2.1.8.3,0,.1.7.4.9.3,1.1.5,2,.8v.5c-1.2-.5-1.4-.6-2.7-1-.1,0-1.4-.3-1.5-.4-.7-.3.3-.1-.6-.3-.3,0-.5,0-.8,0-1.1-.4-1.6-.5-3.1-.6-1.5,0-2-.3-3.4-.3-3.3,0-5.8,0-8.5.9-.3,0-.5,0-.8.1-.8.2,0,0-.6.3-.5.2-2.5.9-2.9.6h0ZM157.3,124.6c.5,0,.3-.6.3-1.9v-2.1c.1-.3,0,0,.2-.2l.8-.8v-3.3c-.6,0-.2,0-.4-.2,0,0-.2-.2-.2-.2h0c-.6-.6-.4-.9-.4-2.6s0-.7,0-1c0-.6,0-.4-.2-.9-.3.5-.1,11.7,0,13.3h0ZM37.6,115.9l-.7.3v3.1s.6.8.6.8c0,0,0,0,0,0l.4.4c0,.7,0,1.4,0,2.1s0,.7,0,1c0,.7,0,.5.3.9v-12.9s-.3,0-.3,0v3.4c0,1.1-.3,0-.3.9h0ZM151.7,121.4c-.3.1-.5,0-.5,0-.2-.1,0,0-.3-.2l-.8-.4c-.2,0-.4,0-.6-.2-.2,0-.9-.5-1.1-.5-.7-.2-3.5-.7-4.1-.7-2.7,0-6.7-.2-8.9.8-.7.3-1.8.6-1.9.6-.2,0-.6.4-1,.6,0,0-.4.2-.5,0-.2-.3,0,.1.8-.7.3-.3,3.8-1.9,4.4-2.1.9-.3,1.4-.5,2.6-.6,1,0,0-.4,2.9-.3.3,0,2.4.5,2.7.6.2,0,1.1.3,1.3.4.7.1,2.7,1.2,3.4,1.5.4.2,1.4.7,1.6,1.1,0,0,0,0,0,0,.2.2.1,0,.1.3h0ZM47.6,119.3c0-.4.7-.3,1.2-.3,1.3,0,0-.3,1.1-.4,1,0,2,0,3,0l.7.4c.3,0,.7,0,1,0,.8,0,0,0,.6.3.2,0,.3,0,.5,0,.6.1.2,0,.3.1.4.2.4,0,.8.2.5.2.1,0,.3.2.4.3.5,0,.8.2.4.2,0,0,.2.2.4.2.5,0,.7.3-.2.1-.3.2-.5.2-.6,0-.1-.2-1.3-.4-.8-.1,0-.1-.7-.3-.3,0-.6,0-.9-.1,0,0,0,0,0,0-.7-.3-.8-.2-1.8-.3-1.5,0-.6-.1-1.2-.3-.2,0-2.4,0-2.6,0-.9,0,0,.1-.6.3-.5,0-1.7,0-2.1.1-.2,0,0,.2-.8.2-1.3,0,.1.3-1.7.3-.6.7-.2,0-.7.6-.2.2-.5.2-1,.2l.3-.4c.1-.1,1-.3,1.2-.5.2-.2-.5,0,.7-.2.8-.1-.5,0,1-.3,1-.2-.4-.3,1.7-.4h0ZM163.3,110.7v.7s-.5,0-.5,0v-.7s.5,0,.5,0h0ZM161.2,110.9c-.5.3-.2.2-.7.2v-.2c-.3-.1-.3-.1-.4-.3,0-.2,0-.2,0-.4.7.4.5.4,1.2.6h0ZM34.4,111c0-.7.1.1.4-.7,1-.2.5,0,.7,0-.6.7-.3.6-1.1.6h0ZM162.8,111.4c0,.4-.1.4-.1.4-.2.2-.5.5-.7.6-.7.3-.3,0-.5.4h-1.2s-.1-.4-.1-.4c-.6,0-.6,0-1.4-.8-.3-.3-.3-.4-.4-.8,0-1.1,0-1.2.7-1.6.3-.2,0-.2.3-.2h1.5c-.7.3-.8.2-1.1.5,0,0,0,0,0,0,0,0,0,0-.1.1,0,0,0,0-.1.1-.3.4-.2.1-.3.6,0,.6,0,.7.4,1,.7.7.4.2.9.6.6.4-.5-.2.2.1l1.3-.2.4-.3c.2-.1.3-.1.5,0h0ZM35.8,109.3c-.7,0-1.3,0-1.4-.2.2-.1-.4-.1.9-.2.4,0,.7,0,1,0,.3.4.1.2.4.4l.3.3s.1,1.1-.1,1.6c0,0,0,0,0,.1,0,0,0,0,0,0l-.2.2c-.7.8-.6.6-1.2.7h0c0,.2,0,.2,0,.2-.2.4,0,0,0,.1h-1.2s0-.4,0-.4c-.8,0-.5,0-.7-.2,0,0,0,0,0,0,0,0-.3,0-.3-.4.4,0,.5,0,.8.2.6.4-.3-.1.2.1.3.1.7,0,1,0,.3-.1-.1-.3,1-.3.1-.4,0-.3.3-.4h.1c.2-.3.3-.4.3-.8,0-.4,0-.5-.2-.6,0,0,0,0,0,0,0,0,0,0,0,0l-.2-.2c-.1-.2-.1.3-.1-.3h0ZM163.3,110.7c.6,0,.7-2,.7-2.8,0-1.5-.3-1.7-.6-2.8-.3-1.1-.1-.2-.5-1.1l-1.7-3.6h-.4v3.4c.4,0,.6.4.7.8.2.4.4.5.7,1,.2.3.4.8.5,1.1.1.3,0,.4.2.7l.4.4v3h0ZM31.6,106.2l.2,4.6h.5s0-2.2,0-2.2l.6-2c0-.5,0-.4.2-.7l.8-1.1c.2-.3,0-.4.4-.7.6-.7.5-.3.5-1.5v-2c-.4,0-.8.9-1,1.2-.1.3-.2.6-.3.7-.4.7-.2.2-.4.7-.3.5-1.1,2.9-1.4,3h0ZM103,76c0,.6.2.7.3,1.8,0,.4-.1,1.6.3,1.6l1.6,3.5h.1c0,.6.4,1.1.7,1.6.4.9.3.8,1.5.8l.3.8,1.1.4c1.3,0,0-.4,1-.4l.9,1.5h.1c0,1,.4,2.2.6,3,0,.4,0,1.3,0,1.7,0,1.1.2.6.3,1.4.1,1.6,0,3.8,0,5.4,0,1,.3.4.4,1.4,1.1.5,1.6.6,1.9,1.4.7,1.5.2,2.3.9,2.3l.5,1.2h.2c0,.4,1,.8,1.5.8,1.7.2,1.3.9,2,1.5,1,.9.5.8,1,1.4.1.2.5.3.5.6,1.9,1.4,1.7,1.7,2.7,2.6l6.8,5-30.2.2-.6-.3,2.1-1.1-.4-1.7c0-.9.7-.8.7-1.3,2.3-1.6,1.7-1.1,3.6-3.1h0c.9-.1.4-2.5,1-2.5l1.4-1.2c0-1.4,0-1.5,0-2.9-1.4-1.1-.7-.5-1.1-1.3-.3-.5-.2.2-.3-.3-.3-1.6-.3-3.6-.3-5.2,0-.8-.6-4.3-1-4.3l-2.4-4.2c-.1-.3-1.7-7.6-1.8-8.6,0-.9.2-3.9.3-4.6.2-.9.3-.5.4-1.3,0-.5.2-.8.7-1l.4-.2c0,.6.4,1.7.4,2,0,.6,0,1.4,0,2h0ZM39.9,55.8c-.5.2-.2,3-.2,3.6v57.8s.6,0,.6,0h16.7c.9,0,.8-.6,1.5-.9.7-.4.8-.6,1.6-1l3.5-1.6c0-.2.6-.6.7-1.8,0-.8.8-.8,1.2-1.2.4-.4,2.6-1.8,3.3-1.8h0c0,0,3.2-2.1,3.2-2.1.6,0,.6-1,1.2-1.4.4-.2,1.5-.6,1.6-1h0c2.7-1.7,2.2-1.4,4.1-4.7.6,0,.3-.3.4-1,.1-.8.3,0,.3-1.1.2-2.8.3-1.8.3-4.8,0-1.4,0-1.2.4-2.4h1.7s0-1,0-1h1.2c0,0,.5.7.5.7.7,0,0,.7.7.1.4-.4.9-2.6,1.1-2.9l1.7-1.6.7-.5c.7-.5.6-.5,1.2-1.1h0c0-.4.9-.3,1.1-2.2,0-.7.7-1.9,1-2.5.3,0,1.1-.9,1.3-1.1.3-.3,1-.8,1.2-1.3.2-.4.6-1.4.6-1.8.2-.9-.1-1.6.5-2,.9-.6.7-.6,1.6-.9.4-.1,1.6-.4,1.9-.6l4.6-.5c.2.2.4.6.7.7l.2,5.7,1.2,2.7.3.9,1,2.4h-.2c0,.1,1.4.4,1.4.4l.7,1.4c.3,0,.2,0,.4.1l.7-1.2.7.3.7.4c0,.9.9,1.7,1,2.7,0,1,.3.7.3,1.5,0,.3,0,.6,0,.9.1,1,.1.1.2.8v7.6c0,0,.8.5.8.5,0,.5.4.1.9.7.4.4.3.4.5,1.1.2.7,0-.2.3.5,0,.4,0,.4.1.7.7,1.5.5,1.1,1.3,2.1.5.6.5.3,1.3.4.4,0,1.7,1.3,1.7,1.8h0c1,1.3,2.2,2.9,3.5,4l1.1.7,3.3,2.7,2.8,1.6c0,.6,1.2.7,1.4.7.5.2.2.1.9.2l.7.3,3.6.4c6.1,0,12.8,0,18.8,0v-61.6h-2.1c0,.5-5.6.2-6.4.2-2.3,0-4.6,0-6.9,0-4.5.1-9.1-.1-13.6,0h-27.3c-19.8.1-39.8,0-59.6,0h0ZM161.1,59.8c-.5,0-.4,0-.4-.6v-2.4s0-.4,0-.4c.8.4.6.5.7,1,0,.4,0,.2.1.3.3.5.1.4.1,1,0,.6.2.4.8,1.2,0,0,0,0,0,0,.3.3.3.2.6.3v.9s-.4.1-.4.1v.7c-.6,0-.6,0-.9-.4-.3-.4,0-.3-.8-.3v-1.4h0ZM36.8,52.5v55.7l1.5,1.1v-55c4.7-.4,9.8.3,14.5.3h75c5,0,10,0,15,0l14.6-.3v55.3h.3c0-1.3,1.1-.4,1.1-2.6v-54.5s-49.7,0-49.7,0c-1.6,0-2,.2-3.5.2h-15.3c-1.6,0-2-.2-3.5-.2h-49.9ZM167.5,53.2h-1.4c-.8-.1.1-.2-1.1-.3-.7,0-1-.2-1.4.1-.6.4-.3.8-.1,1,0,0,0,0,0,.1,0,0,0,0,0,0,.5.6.2.3.4.7.5.9,0,.6,0,.9v.7c.3,0,.2,0,.5-.5.2-.4,0-.3.3-.7l.9-.8c.2-.2.2-.2.3-.5,1.7,0,1.5.1,2.7-.4v-.6s-.9-.4-.9-.4c-.2.1,0,0-.2.3-.2.3-.2-.2-.2.4h0ZM160.7,71.7v-.3h.4c0-.4,0-.2-.5-.8l1.1.5-.3-.4c0-.3.1-.7,0-1l-.6.3v-.3c-.1,0,0-1.7,0-1.7l.9.3v-.4c-.2-.1-.5-.3-.6-.5,0,0-.1-.3-.1-.4l-.3-.2v-1.1s.8,0,.8,0v.6s.1.7.1.7c.4.2.2.1.3.3.2.2.3.4.5.5v.3s1.5.7,1.5.7l.4-.5,2.3.6c.1-.6-.1-.4-.5-.8-.8-.8-1.6.3-1.6-1.7h-.3c-.3,0-1.3.1-1.4-.2l.7-.3v-2.2c.1,0,.3-.1.3-.1.4-.3-.1-.3.4-.3v1.8c0,0,2.3,2.6,2.3,2.6,1.1-1.1.5-4,.6-5.9l1.5-1.4.3.2-.7,3,.8-.7-.6,1.2c-.8.8,0,.9,0,1.1l-1,1.5h.4c0-.6,0-.3.2-.4.1,0,.3,0,.5,0v.4c.8,0,.5-.1.7-.3.1-.1-.4-.2.4-.2.5,0,.4.1.4.2-.5,1-.7.5-.8,1,.5,0,.7,0,.8-.3,0,0,0,0,0,0h.3c.7.2,1.4-.5,1.7-.8.6-.6.5-.8,1.7-.9l.8-1.6c.9-1.8.4-.9.7-1.8,0-.2.2-.5.3-.9.3-.8.3.2.3-.8,0-.7,0-.7.1-1.1.1-.2.3-.2.2-.8-.2-.7-.2.2-.3-.9-.1-2.2.3-1.2-.5-2.6-.4-.8-.6-1.6-1-1.9-1.7-1-1.3-.9-2.1-.3v2s-.2,0-.2,0l-.4-2.4v-.4c0,0-.1,0-.2,0-.4-.1-.1,0-.3-.1v-.3s-.4-.6-.4-.6l-3.2-.3h-.5s0-1,0-1c.6.4.6.4,1.3,0h0c0,.2,0,.2,0,.4l.7-.5v-.2s-2.4-.4-2.4-.4c-.2,1.4-.5.3-.4,1.9,0,.3,0,.8,0,1,.2.8.3-.3.3.7l-1.8-.4h-1.6c-.4.7-.4.3-.8.8,0,0-.1.2-.2.3h-.3s0,1.7,0,1.7h-1c0-.2,0-.5,0-.7,0,0,0,0,0,0,.1-.2.4-.4.5-.6v-1.4c1.6-.4-.1-.3,1.7-.5v-1.2c.2-1,0-.9-.2-.9v-.4c-.2-.5-.7.1-.8.4-.2,1,.3.5.3,1.3l-1.7,1v1.3c-.1,0-.3,0-.3,0v-2.4c0,0-4.2,0-4.2,0v-.3c.6,0,.9,0,1.3-.2.2-.1,0,0,.2-.1h.1c.4-.3.9-.4.9-1l-1.2-.6c-1.2,0,.1.3-1.3.3l-.4,1.8h-4.7s.9-.9.9-.9c.2-.1.8-.4,1.1-.6.5-.3.5-.5,1-.6.7-.3.5-.4,1-.7.7-.4,1.5-.8,2.1-1.2l6.2-3.8c.3-.2.8-.4,1-.6.6-.4.4,0,1-.6.2-.2,2.9-1.7,3.2-1.9l2-1.3c.2-.1.9-.3,1.1-.6.4-.4.5-.5,1-.7.8-.3.4-.2,1-.6.2-.2.3-.2.6-.3,0,0,.5-.4.5-.4.2-.2.3-.1.6-.3l1.5-1c.3-.1.8-.3,1.1-.6.8-.7,1.4-.8,2-1.3.6-.5,1.4-.8,2.1-1.2.7-.4,1-1.1,2.2-1.1l1.1,3c.3,1.1,0,0,.5,1.1,0,0,0,0,0,0,0,0,0,0,0,0h0c0,.1,0,.1,0,.2,0,.2.2,1.1.4,1.6.4.9.2.7.4,1.6.6,1.9.4.3.6,2.5.1,1,0,.2.3.7,0,0,.4,1.4.4,1.5.1,1.2.3.4.3,1.7,0,.9.6,2.9.7,3.4,0,1,0,1,.2,1.8.2.5.1,1.4.1,2,0,2.2.1.9.4,1.6.1.4,0,3.3,0,4h0c-2.6,2.1-29.3,25-29.6,25.1v-10.1h0ZM35.8,48.4c0,.9-.3-.2-.3,1h.3c0-.5,1.6-1.9,2-2.1,1-.5,1.9-.8,3.4-.7,1.4,0,1.8.9,2.6,1.5.5.4,1.7,1.5,1.8,2.3h-3.5s.4-1,.4-1c-.6,0-.4,0-.7.2-.4.3-.1,0-.4.5h-.2s0,.4,0,.4h-5.4c-.3-.1-.2.1-.3-.3h-.3l-.4,2.4h-.3s-.7-2.8-.7-2.8c0-1.3-.3-1.4-.3-3.1,1.4-.2,2-.2,2.7-.9.4-.5.2-.1.7-.5.9-.6,1.9-1.2,2.7-1.9.3-.2.5-.3.7-.4.2-.2.4-.4.6-.5,2.3-1.1,1.8-1.9,3-1.3.5.2,1,.6,1.4.8.4.2,2.7,1.6,2.8,1.8,1.3,1.3,3.6,2.8,5,4.3.6.6,2.2,1.8,2.1,2.4h-4.7c-1.2,0-3.6.4-4.2-.4-.2-.3-.4-.5-.6-.7-.4-.4-.1-.3-.5-.7-.6-.8-2.1-2.5-3.1-2.8-1-.2,0-.2-.7-.4h-2.1s-.4.4-.4.4c-.2,0-.5.2-.6.3-.5.2-.5.3-1.1.5-.3.1-1.5,1.3-1.5,1.8h0ZM36.2,31.7l.3,1,1.9,3.9.2-2.4h.2l1.2,2.1c.4.7,1,1.4,1,2.3l-2.5,1.1c-.8.4-1.5.9-2.3,1.3-.7.4-.6.6-1.1.8-.7.3-.5.4-1.1.7-.5.2-1.8,1.2-1.7,1.8v.6c0,0-.7,0-.7,0v-.4c0-.8,0,0-.3-.6,0-.1,0-.2-.1-.3,0-.1-.1-.2-.1-.2-.4-.6,0-.6-.4-1.1-.3-.4-1.6-.6-2.4-.6-.1,0-1-.6-1.8-.7-.6,0-1.6-.6-2.2-.3l6.3,7.5-6.3-1,2.3,2.7h-.1c1,.2,1.6,1.5,2.2,2.1.4.5,2,1.6,2,2.2-4,0-1.6-.2-2.9-.4-.7,0-2.7-.3-3.1,0l10.1,6.5h.3c0,0,0,1.1,0,1.1h-.9s0-.3,0-.3l-9-2.8,1.2,1.1c.5.4.2,0,.7.4.2,0,.9.9,2,1.4.6.2.9.6,1.4.9.7.4.7.5,1.4.9.3.1.4.3.6.5,1.9,1.2,2.4.9,2.4,3.3l-8-2.5c-.1.5.7.9,1,1.1.5.3.7.6,1.1.9.4.2.3,0,.7.4,1.1,1,.8.6,1.6,1.2l2.3,1.6c1.2,1,1.3.3,1.3,2.5l-8-2.6c-.2.7.1.4.5.6.1,0,.4.3.5.4.4.3.3,0,.7.4.1.1.3.4.5.5.7.3,2.1,1.4,2.3,1.4.8.3-.1,0,1.2.8.3.2.7.6,1,.8,1.2.7,1.4.6,1.3,2.6l-7.6-.8c0,.4,0,.3,1,.8.8.4,1.8,1,2.6,1.4.5.2.1,0,.5.2.7.5.2.2,1.1.5.3.1.3.4.9.7.7.3,1.7.5,1.4,1.9l-6.6-1.2c0,.3.3.4,1,.7.5.2.5.4.9.6.6.4,1.3.6,2,1,1.4.8.3.5,1.9,1.2,1,.4.8.9.8,2.2l-1.7-.3c-.7,0-1.4.2-1.4-.4l-2.8-.4,5.8,4.3v2c.1,0-3.4-.1-3.4-.1l1.3,1.9c.3.3.6.5.8.8,1.5,1.7,1.4,1,1.4,3.3,0,2-.6,1.3-.7,2.4-1.8-2-.9-.9-2.2-2.9,0,0-.4-.5-.5-.5-.2-.4,0-.3-.4-.7,0,0-.4-.3-.5-.5-.4-.7-.5-.7-.8-1.3l-.8-1.2c-.3-.4-.8-.9.1-1.3.6-.3.9-.8,1.1-1l-5.2-4.3h-.1c0-.9-.2,0,1.7-1.4.5-.3.4,0,.9-.4l-4.1-5.1h0c.3-.8,1.7-.4,1.8-1.3l-3.8-4.5c.5,0,2.9,0,3.2-.1l-4.5-6.8c.3-.2,3.4,0,4,0l-3.5-4.1c.4-.4,2.8.2,3.1-.6l-4.9-5.7v-.2c.1,0,3.5.4,3.5.4l-3.7-6.3h-.4s0-.6,0-.6h.8s0,.3,0,.3l3.3,1.1-3.1-6.1v-.2s3.8-1.2,3.8-1.2c-.8-.9-.4-.6-.9-1.3-.5-.7-1.4-2.1-1.9-2.6-.3-.3-.7-.9-.7-1.5l4.4-1.2-1.8-3.4c-.9-1.3-.5-.7-1.2-2l3.4-1.9-.9-8.9h.2c0,0,5.1,6.2,5.1,6.2l3-2.4c0,.5-.1,3.7,0,3.9l4-3,.6,4.3,4.7-2.3h.3s-1.3,4.5-1.3,4.5l6-1.9c.1.7-1.1,4-.9,4.5l5.8-1.9-.7,5.2h.1c0,.1,5.4-3.1,5.4-3.1l-.4,4.6,5.6-.5-.7,4.3,5.2-1.5-.6,5.3,5.1-2.2-.6,4.6,4.8-.4-.7,2.4h-7.5c.5-2.1.4-1.9,1.2-4l-7.4,3.9-.2-.2,4-7.3-9.7,5.3,5.2-9.2-7.6,3.6,3-6.7v-.2c-.1,0-7.3,4.3-7.3,4.3l2.1-6.6c-1.8,1.2-2.6,1.7-4.2,3.2-.7.6-.5.8-1.6,1.4-.8.4-.3,1-1.7,0l2.3-7-4.8,3.2c-.3-.5,0-1.4-.2-1.7l-1.5,1.3h-.2c0-.1.5-4.7.5-4.7l-1.8,2.1h0ZM15.9,9.2c.6.4.2.4,1.2.5l1-1.3h.6c0,0,.8,3,.8,3l-.2.2-2.2-1.2c-.4.2-1,1.9-1.7,1.6,0,0-.6-.8-.8-.9-.3-.4-.5-.4-.8-.8-.3-.4-.5-.6-.8-.9-.4-.4-.3-.6-.7-1-.6-.5-1.1-1.2-1.6-1.7-.7-.8-.8-.4-.8-.9,0-.5.3-.2.4-.2,0,0,.5.3.5.3.3.2,1.3,1,2,1.3.3.1.9.5,1.1.6.4.4,1.4.9,2,1.3h0ZM186.4,4.7c0,.2,0,.1,0,.4h0c-2.6,1.7-4.9,3-7.5,4.7.3.5,1,1.7,1,2.2h-4.1s0-.1,0-.1c1.3-1,1-.9,2.4-1.7h0c0-1.5-.6-.9-.8-1.9l9.1-3.7h0ZM33.3,116.6h1.7s0,2.8,0,2.8h-.4c-1.3,0-1,.2-1.6.3-.8.2-.8.3-1.3.8-1,.9-.8,1.4-.8,3.2s0,1.4,0,2c0,1.6-.7,2-.1,3.5.2.4,0,.5.1.9.2.9,0,0,.3.6.1.3.4,1.1.5,1.6.3.9,1.5,2.9,1.7,3.4.4.9,1.5,2.3,1.6,3.2.1,1,0,2.9,0,4,0,1.7-.2,23.5.1,24,.3.6.2-.3.3.6,0,.7.2,1.1.4,1.7.2.7,0-.2.3.6.1.5.4,1.2.6,1.5.9,1.1,1.5,2.5,2.5,3.5.4.4.6.7,1,1l2.8,2.2c.3.2.4.2.6.3.3.2.9.5,1.3.7,1.2.6.6.4,1.3.7.3.1,1.1.5,1.4.6,1.1.2,2,.9,3.1,1,1.2.1,0,.4,1.6.4.3,0,3,.7,3.2.8.7.3,6.3.8,7.2.9,1.1,0,2.9-.2,3.7.3.3.2,1.3.2,1.9.2,1.1,0,.7.2,1.7.3,2.7.1,1.4-.2,2.9,1.1.2.2.3.4.5.5.4.5,1.1,1.4,1.4,1.7.7.6,1.3,1.4,2,2,.5.4.2,0,.7.4.5.3.3.5,1.8,1.1.4.2.9.4,1.4.6.4.2.3,0,.8.2.8.2,0,.2.5.3h5.4c.6,0,.5,0,1-.3.3-.2.5-.2.9-.4.6-.3.8-.9,1.6-1l.4-1c.3.2,1.2,0,1.6,0l.4,1.7h2.6s1.4,1.5,1.4,1.5h1.1s1.3-1.4,1.3-1.4l2.1-.2c.5-.4.6-.6.7-1.5,3.1,0,2.3-.3,3.5,1,.6.7,1.2,1,2,1.4.2.1.4.3.7.4.3,0,4.2,0,4.5,0,.7-.2-.7-.2,1.9-.3.7,0,1.2-.4,1.6-.6.4-.2.5,0,.9-.3.3-.2.3-.3.7-.5,1.5-.7,2.4-2,3.6-3.1.3-.2,1-1,1.1-1.2.5-.9.3-.5,1-1.2.8-.8.2-.5,1.4-.8,1.1-.3,3.1-.3,4.3-.3,1.5,0,0-.4,1.7-.4,1.6,0,2.4-.3,4.1-.3.9,0,1.1-.3,2-.3.3,0,.8,0,1.1,0,1.1-.1,0-.1.8-.3.9-.2,1,.1,2-.3.3-.1.7,0,1-.1.9,0,.3-.2.8-.3.6-.2.5,0,1-.2.4-.3,0-.2.8-.3.2,0,1.5-.4,1.7-.5.6-.2,2.9-1.1,3.2-1.2.5-.3.9-.4,1.5-.7.5-.3.8-.6,1.4-.8,1-.4.6-.5,1.2-1,.5-.4.8-.5,1.3-.9,1.3-1.3,2.8-2.8,3.5-4.4.2-.5,1-1.4,1.1-2.3.5-2.5,1-1.5,1-5.6v-22.5c0-1.7-.3-2.5.5-4,.2-.3.8-1.2.9-1.4.5-1.3,1.2-2.1,1.5-3,.2-.7.5-.9.7-1.5.5-1.8.7-1.3.7-3.8,0-1.2-.8-2.6-.3-4,.2-.5,1.7-1.8,2.1-2.3.2-.3.4-.5.5-.6.1-.2.3-.5.5-.7.4-.4.7-.7,1.1-1.2.3-.4.8-.7,1.2-1.1.4-.5.4-.8.9-1.3.4-.4,1.7-2,2-2.5.3-.6.8-.7,1.1-1.2.4-.9.6-.8.9-1.3.2-.4,0-.3.4-.7.3-.3.3-.2.6-.6l.9-1.3c.4-1,1.3-1.8,1.4-2,.2-.4.2-.5.4-.7.4-.4.6-1,.8-1.4,0-.1.5-.6.5-.6.4-.5.5-1,.9-1.4.3-.4.5-1.1.8-1.5.2-.4.4-.4.5-.6l.7-1.5c.7-1.6,1.5-2.9,2.2-4.5.2-.5.5-1.1.7-1.5.1-.3.2-.7.3-.8.2-.4,0,.2.4-.7.2-.4.4-1.1.6-1.7.2-.5.4-1.1.6-1.6.3-.7.2,0,.3-.8.2-1.1,0-.3.3-.8.2-.5,0-.8.3-1.3.4-.8,1-2.9,1.1-4,0-.8.6-.9.7-1.5.2-1,0-1,.3-1.9.3-.8.7-2.8.7-3.7,0-.4.2-1.2.3-1.9,0-.7.3-.8.3-1.9,0-.6,0-1.8.1-2.2.2-.4.3.3.3-.7,0-.3,0-.8,0-1.1,0-1.7.3-2.7.3-4.2,0-2.8.2-6.3,0-9,0-.9-.1.1-.2-.9,0-.3,0-.8,0-1.1,0-.3,0-.7,0-1,0-1.1,0,0-.3-.8-.2-.7-.3-3.1-.5-4,0-.4-.1-.3-.3-.9-.2-.9-.2,0-.3-.8l-.4-3c-.2-.4-.2.2-.3-.8,0-1,0-.5-.3-.8-.3-.4-.4-1.3-.5-1.8-.1-.9,0,0-.3-.8-.2-.9-.4-1.7-.9-2.5-.3-.5,0-.4-.2-.9-.3-.7,0,.3-.4-.8-.3-.9-.1,0-.3-.8-.1-.5-.2-.7-.3-.9-.2-.4-.3-.4-.4-.7-.3-1-.7-1.7-1-2.3-.3-.4-1.4-3-1.8-3.8-.3-.5,0,0-.4-.7-.1-.3-.3-.4-.4-.6-.2-.4-.5-1.1-.8-1.4-.3-.4-.7-1-.8-1.4-.1-.2-.4-.5-.5-.6-.2-.4,0-.3-.3-.8-.5-.6-1.5-2-1.8-2.6-.3-.6-.7-.6-.8-1.5,3.7,0,2.3.2,3.5-.8.4-.4.3-.3.5-.8.2-.4,1.1-1,1.4-1.5.3-.4.1-.4.6-.8,1-.9,1.3-1.8,2-2.3.3-.2.9-1.1,1.2-1.6.4-.5,2.4-2.6,2.4-3.3-1.6.5-3.1.9-4.6,1.5-1.4.5-4.3,1.2-5.3,1.7-.6.3,0,0-.5.3-.2,0-.3,0-.6.1-.6.2.2,0-.5.2-.8.2-1.9.3-2.1,1-.4,1.5-1.4,3-1.5,4.5l-1.3.6c-1,.5-2.2,1-3,1.6-.5.4.2,0-.5.3-1.8.8-3.3,1.6-4.9,2.6-.8.5-1.9.8-2.5,1.2-.4.3-.6.4-1.2.7-.8.3-2.4,1.3-3,1.6-.1,0-.4.2-.6.3-1,.5-2.6,1.2-3.2,1.5-.5.2-.5.6-1.7,1-.6.2-3.2,1.7-4.3,2.2,0,0-.5.4-.5.4l-2.5,1.3c-.4.2-2.4,1.1-2.5,1.2-.6.6-.5.4-1.1.7-.4.2-.8.4-1.2.6-.8.3-2,1.1-2.4,1.3-.4.2-.9.4-1.2.7-.4.3-1.4.7-1.9,1-.7.3,0,0-.5.4-.9.6-2.7,1.1-3.7,1.9-.6.6-3.3,1.5-4.2,2.2l-5.4,2.9c-.4.2-1,.4-1.3.6-.5.4,0,0-.6.3-.7.3,0,0-.5.4-1.6.9-3.7,1.5-4.9,2.6-.3.3-.8.4-1.3.6-.3.2-.9.4-1.2.6-.6.3,0,.1-.5.4-.3.2-.4.1-.7.3-.4.2-.9.4-1.2.6-1.1.7-3.6,2.1-4.8,2.6-.8.3-1.9,1.2-2.4,1.3-.4.1-6.5,0-7.4,0-1.2,0-2.2-1.1-2.5-1.3-.8-.4-1.6-.8-2.5-1.2l-2.4-1.3c-.6-.3-.7-.5-1.1-.7-.5-.2-.8-.3-1.2-.6-.3-.2-2.5-1.3-3.2-1.6-.7-.3-1-.8-1.7-1.1-1.9-.9-4.3-2.2-6.2-3.2l-1.2-.7c-.7-.4-1.7-.8-2.5-1.2-.5-.3-.9-.6-1.1-.8-.4-.2-.9-.4-1.3-.6-.7-.4-1.7-.8-2.5-1.2-.5-.3-.4-.5-1.2-.7-.6-.2-.5-.4-1.2-.7-.6-.2-1.4-.7-1.8-1-1-.6-2.2-1-3-1.6-.3-.3-.3-.1-.6-.3-1.2-.8-3.1-1.4-4.3-2.3l-.3-.2c-.3-.1,0,0-.3-.2-.8-.5-2.8-1.4-3-1.6-.4-.3-.7-.4-1.2-.6-.9-.3-1.5-.9-2.4-1.3-.4-.2-.8-.5-1.2-.7-1.1-.6-2.1-1-3.2-1.5-.4-.2,0,0-.5-.4-.3-.3-2-1-2.5-1.3-1-.5-4.2-2.1-4.9-2.6-.3-.3-2-1-2.5-1.2-1-.4-1.5-.9-2.4-1.3-.9-.4-1.7-.8-2.5-1.2-.4-.2-.7-.5-1.2-.7-.4-.2-.9-.4-1.2-.7-.7-.6-1.7-.7-2.3-1.3-.7-.8-.2-.6-.6-1.2-.4-.6-.1.3-.3-.6-.2-.9-.5-1.1-.7-2.1,0-.3-.6-1.1-.6-1.3L5.8,2.6c-.2.5.4.4.7,1.1.1.3,1.9,2.4,2.1,2.7.2.3.6.6.8.9.2.3.4.7.6,1,.2.3.6.5.8.8.3.5.3.5.7.9.3.4.4.5.8.9.5.4,1.5,2.3,2.1,2.7.5.4,4.5,0,6,0-.3.5-.8,1.3-1.1,1.6-.3.3-1.1,1.1-1.3,1.4,0,.1-2.6,3.6-3.2,4.8-.3.5-1.2,1.4-2,3.3-.4.9-.7,1-1,1.6-.3.6-.5,1.2-.8,1.9l-.9,1.7-1.9,4.8-.4.9c-.2.4-.4,1.6-.6,2.2-.2.6,0-.2-.2.5,0,.2,0,.3-.1.6-.2.5-.2,0-.3,1,0,1-.1.2-.3,1-.2,1.3-.2.2-.4.8l-1,5.3c-.3,2.7-.6,2.8-.7,5.6,0,3.3-.4.8-.4,2.8,0,2.7-.3,7.1,0,9.4.1.7.3-.1.3,1.2,0,2.4.3,1.2.3,2.8,0,1.1.3.4.3,2.9,0,1.2.2.4.3,1.2.1.8.2,2.1.5,2.7.2.5.1,1,.3,1.3.4.7.1,0,.4,1.2.1.8.6,1.5.7,2.5,0,.2.8,2.3.8,2.4.3.6,0,.6.4,1.2.1.2.4.7.5,1,.2.9.6,1.4.9,2.2,0,.2.2.9.4,1.2.3.7.2.2.6,1,.3.7.7,1.4,1,2.1.6,1.4.9,1.4,1.2,2,.1.3.3.7.5,1.1.2.4.4.5.6.9.1.3.3.8.5,1,.6.5.3.3.7.9.1.2,1.2,1.7,1.3,1.8.4.4.4.4.7.9.1.3,2,2.4,2.1,2.6l1.6,1.6c.9,1.1,3.4,3.5,4.7,4.7l3.5,2.8c.5.2.7.4.9.6.7.7.2.2.8.6v2c.6.6,1.6,1.7,2.5,1.7Z"/>
  <path class="st0" d="M128.8,93c.5-.2,0,0,.4-.4h0c.2-.3.1,0,.1-.4h.4s0,1,0,1c-.9.3,0,.5-1.1.4v-.6h0ZM128,91.6c0-.7,0-.3.2-.5l.4-.3c.3-.3,0-.3.5-.3,0,.7,0,.5-.4.9-.2.2.2,0-.3.2-.2,0-.2,0-.4,0h0ZM125.9,82.5c0-1.4.3-1.7-.5-2.4-.7-.6-.2-1.7.6-1.8,1.9-.2,4,.3,5.7.3,1,0,2,0,3,0,1,0,.2-.2,1.2-.3.4,0,1.1,0,1.5,0,.8-.2-.1-.3,1.1-.3.9,0,.8-.1,1.2-.3.7-.2.5,0,1.2-.3.6-.3,1,.1,1-.5h2.5c-.1,2,0,2.3,0,4.3-1.7,1.1-1.5,1.2-3.3,1.2-1.5,0-3,0-4.4,0-3.6,0-7.2.1-10.7,0h0ZM118.6,73.1c-1.2,0-.9,0-1-.2.1-.1-.3-.2,1.1-.2,1.4,0,1,0,1.1.2-.4.3-.4.2-1.2.2h0ZM121.8,68.2c0,.8,0,.5.2.8,0,.2.2.4,0,.5-.4-.9,0-.6-.5-.6v-.5s-.9-.7-.9-.7c0,0-.1,0-.2,0v-1.3c0,0,.7,1,.7,1,.1.1-.1,0,.4.2v.6c0,0,.4,0,.4,0h0ZM143.7,65.7c0-1.3,0-.7.2-1,.3-.5-.2-.7.5-.6v3c-.6.3-.5.4-.5.4,0,0,0,0,0,0-.7-.6-.6-.6-.5-1.7l.3-.2h0ZM150,66.4h.7v.4l-1,.6c-.5.4-.3-.1-.4.5h-1.1c0,0,.5-.4.5-.4.3-.4,0,0,.5-.3.4-.1-.2-.3.8-.3v-.4h0ZM119.7,68.9h.3c0,1.3,0,1,.3,1v1s-.3,0-.3,0v-.7c-.5,0-.5,0-1,.3-.4-.4-.3-.3-.4-.7-.2-.5-.2,0-.6-.5-.5-.6,0-.1-.6-.6-.4-.3-.9-.6-1.4-.9l-4-.7c0,1,2.1,2.3,2.9,2.6.5.2.6.1,1,.4.2,0,.8.4,1,.4,1.1.2.1-.1.9.5.4.4.8,0,.7.8l-4.8-.8c0,.5,1.2,1.3,1.5,1.7.5.5.4.3.9.7.5.4.6.4,1.1.7l-2.5.7v.4c0,0-.4,0-.4,0v.4c1,0,1.1.3,2,.3,1.3,0,4.6.3,5.5-.7l.6-.7h.2c0,.1,3.5,1.8,3.5,1.8-.2.4-.4.7-.4,1.1l-4.4-1.5c0,.6-.8.3,0,.8l1.6.2.6.7c-.2.2-1.7-.1-2.3.4-.7.6.1,1.1.5,1.4l2.8-1.3c0,.5-.3,0-.3,1.1,0,.8,0,.8.3,1.2.6,1.1.3,1.1.4,2.5h0c0,0,.9.7.9.7h8.2c0,0,0,1.7,0,1.7l-4.6,1,.9,1c.7-.3.4-.8,1.4-1l1.9-.2-2.7,1.7c-.5.3,0,0-.5.4-.3.3-.7.3-1.1.7l-2.9,4.4,1.8-.3-.5,1.1h-.2c0,.3-.1,1.1,0,1.4l4.1-1.9.6-.6s0,0,0,0c0,0,0,0,0,0l.8-.9c0,0,0,0,.2-.1v1c-.5.1-.4,0-.7.3,0,0,0,0-.1.1l-.4.4c-.3.4,0,.4-.5.4,0,.5-.5,1-.6,1.4-.1.4,0,.6-.1.9-.1.5-.2,0-.3.8,0,.8-.2,1-.5,1.6l-.6,1.7,3.2-2.5v4.1c.2,0,1.1-1.9,1.2-2.1.2-.3.7-2,.8-2.3.1-.4.1-2.6,0-3.1-.1-1.1-.7-1.1-.6-2.6h.2c0,0,.8,2.4.8,2.4h.3c.1-1.3.5-.3.3-1.1-.4,0-.7-.9-.9-1.3l-.3-2.1c.5,0,.6,1,1.3,1.6l1.8,1.2c0-1.2,0-1.3-.3-2.1-.1-.6-.3-1.4-.5-1.9-.6-1.6-.9-1.7-2.1-2.8l.3-2.6h5c1.3,0,1.4,0,2.2-.3.4-.2,1.3-.1,2-.5,1.3-.5,1.3-2,1.3-3.7,0-.7.2-1.9,0-2.5l-1.7-.8-.3-2.6-.7-1.5c2.1-.4-.2-.3,2.9-.4.6,0,1.1,0,1.4-.2,1-.4,0-.4,1.2-.5,1.3,0,2.9-2.1,3.8-3-.8-.6-1.3.6,1-2.4v-.3s-2.8.4-2.8.4c0,0,.6-.7.8-.9.2-.3.4-.7.6-1.2.2-.4.4-.9.6-1.2l.4-1.3c-.2,0-1.1,1-1.3,1.2-.3.3-.4.4-.7.6l-1.5,1-2,1.8v-1.7c-.7,0-.7.3-1.5,1.4h-.3c0-.8-.6-3.1-1.4-4l-.9-1c-.2.3.2,1.9.2,2.7,0,.8-1,3-1,3.5-.2,1.4-.2.3-.4,1.2v3.1c-.4,0-.9-.8-1.1-1.1-.1-.2-.8-.6-1.2-1-.3-.3-.8-.7-1.1-1.1-.1-.2-.4-.4-.5-.6-.5-.6.3-.2-1.4-1.8-.7-.7-.3-.5-1.3-.9-1.4-.6-1.8-.8-3.7-.8-1.7,0-2.6,0-3.5.9-.8.7-1.5,1.4-2,2.4-.2.5-.3,1.2-.6,1.6-.2.4-.2,1.6,0,1.9.5.8,0,.8.7,1.5l1.7.7c-.2.5-1.3,2.5-1.3,2.9l-2.6-.9c0-.7,0-1.3,0-1.9,0-1.2-.3-.9-.3-1.6-.1-1.4-.2-.4-.4-1.6-.3-1.1-1.4-3.1-2.1-3.7-.5-.5-.4-.6-.8-1.2l-.9-1.1h-.6s.9,5.6.9,5.6Z"/>
  <path class="st0" d="M49,87.9l.9-1.3c0,0,.9.3,1.2.4h2.9c1.1.1.1.3,1.2.4.9,0,10.5,0,11.6,0,1.2,0,1.5-.3,2.6-.3l2.5-.3.7,1.3c-2.8,1-21.7,1.1-23.6,0h0ZM69.2,82.3c-.3.7-1.5.5-2.3.5-1.2,0,0,.3-1.1.3-2.4,0-6,0-8.5,0-3.8,0-1.3-.2-2.9-.3-1,0-.7-.1-1.3-.2-.9-.2-.7,0-.6-1.1l6.1.4c2.6,0,7.3-.2,10-.3l.6.6h-.1ZM55.2,73.1c0-.6.5-.4,1.1-.4,3.3,0,6.7,0,10,0l.3.7c-.1.2-.5.4-.9.4-2.9,0-8.3.1-10.8,0l.3-.7h0ZM55.6,72.3c-.7,0-1.3.1-1.4.8h-.1c0,0-.3.4-.3.4.1.2.6.5.8.7h0c0,1.1,0,2.3,0,3.4,0,.7-.5,1.9-.8,2.8-.6,0-.9,0-1.3.2-2.2,1.8-.4,2.5,0,3.1h.1c-.4.5-1.8,1.8-1.9,2.1h-1.7c-.2.3-.8,1.2-1,1.3,0,.4-.2,1.1-.1,1.6l2.1.5,8.9.5,1.2,1.3h.7s1.2-.4,1.2-.4l.9-.9h4.4c0-.1,0-.3,0-.3l5.3-.7c1,0,1.3-.7.9-1.4l-1.1-1.3-2.1-.5c-1-.9-.7-.6-1.5-1.8.2-.3.6-.8,1-.9v-1.8s-1-.6-1-.6c-1.3,0-1.2-.1-1.4-1.2-.1-.6-.2-.1-.3-1l-.3-.9v-3.1s.3-1.5.3-1.5c0-.6-.6-.1-1.1-.4-.5-.3-.2-.8-.7-.9h0c0,0-1.2-1.1-1.2-1.1,0-.4-1.1-.7-1.3-.8l-2.2-.2c-1.7,0-2.2.1-3.3.8-.3.1-.9.6-1.1.9-.3.7-.7.5-.8,1.3Z"/>
  <path class="st0" d="M100.3,140.6c-.8.1-2.4,0-3.3,0-1.3,0-1.7-.3-3.1-.3-1.3,0-1.8-.3-3.1-.3-1.3,0,.1-.4-1.3-.4-1.4,0-1-.5-1.6-.3l4.2,16.1,8.2-14.7Z"/>
  <path class="st0" d="M52.5,72.7h1.4c-.2-.8,0-.8.4-1.1.3-.3.3-.7.6-1,.2-.2.5-.8.6-.9.2-.2.7-.4,1-.6.4-.4,1.3-1.1,2-1.1,1.1-.2,1.7-.3,3-.3.9,0,1.7.5,2.5.6.5.1.7.4,1,.6,2.8,2,1.6,1.7,2.3,2.4l1.7,1.5v-7.3s-16.4,0-16.4,0v7.2Z"/>
  <path class="st0" d="M103.7,168.8c.6,0,2.3.2,2.4-.4,0-1-.4-.8-1.2-1.1-.9-.3-1.2-.2-2.5-.2-1.2,0-1.3-.4-2.2-.8-.9-.4-1-.6-2.2-.6h-2.3c0,.1,0,0,0,0-1.2,0-2.8.8-3.8.9-.6,0-1.6-.1-2.1.1-.3.2-1.2.6-1.2,1-.9.3-2.1.4-2.1,1l-.3.4h3.5c.9.2.6.7,2.8.7s2-.5,3.1-.6c.9-.1,2,.3,2.8.3.8,0,2.2,0,2.9-.4.6-.3-.1-.2.4-.4h1.9Z"/>
  <path class="st0" d="M48.7,145.1c.9,0,1.8,0,2.8,0,2.2,0,1,.9,5,.6.9,0,.8-.6,2.2-.6,1.3,0,1.1.4,2.5.4.1,0,2.3-.5,2.4-.5l4.9-.8c0-.5-.4-.7-.9-.7-.9-.1-.6-.3-1.3-.3-1.8-.2-1.7.4-4.4-1-.8-.4,0-.3-.9-.4-.1,0-.8,0-.8,0-.8.1-.1,0-.5.3-.3.2-.9.2-1.2-.1-.2-.2,0-.2-.7-.2-.2,0-.7,0-.9,0-.9,0,0,0-1.1.5-1.8.9-2.8-.8-5.1,1.5-.8.8-2,0-2,1.4Z"/>
  <path class="st0" d="M131.6,143.7c-.5,0-.3.2-1.1.4-.4.1-.9.7-1.8,1.2l-1,.5v.6s6.7.8,6.7.8c1.1,0,2.4-1.1,3.9-.6.8.3.8.3,2,.3.4,0,1.6-.3,1.7-.6h0c0,0,5.2-.4,5.2-.4,0-.7,0-.8-1-1.1-2.4-.7-3.2,0-4.2-.6l-.4-.4-3.4-.4c-1-.1-2.2-.5-3.2-.1-1.7.8-.6.5-3.4.5Z"/>
  <path class="st0" d="M82.5,151.7v.6c.7,0,.1,0,.3.2,0,.5.3.2.9.6.4.3,1.3.8,1.8,1,.9.3,0,.1.9.5,1.2.5,2.8,1.3,4.5,1.3-.8-3.3-1.4-5.5-2.3-8.7h0c-.5,0-3.6-.8-3.8-1.1l-2.1,5.6Z"/>
  <path class="st0" d="M56.4,59.1c.1.4,2.1,4.9,2.5,5.6h4c.2-.3.5-1.4.6-1.7.2-.4.6-1.3.8-1.6.2-.5.7-1.2.8-1.6.2-1.1-.5-1.1-1-1.4-.6-.4-.7-.6-1.8-.6-1.2,0-3.3-.1-4.4.4-.6.3-1.3,1-1.5,1Z"/>
  <path class="st0" d="M27.1,28.1h-.5v.4c0,.4.4,1.1.5,1.3.6,1.3,1.1,3.5,1.6,4.3.3.6.8,1.6,1.1,1.9.6.6.4,1.2,1.1,1.8.6.5.6,1.3,1.1,1l-1.2-2.7h-.3c-.1-1.1-.2-.5-.3-1,0,0,0-.3,0-.3-.2-.5-.2.2-.3-.5,0-.2,0-.5,0-.6.4.4.1.1.3.5.1.2.4.5.6.6v.6c.1,0,.7.4.7.4v.4c0,.2.7,1.1.8,1.3.3.4.4,1.1,1,1.1l-2-6.5h.5s2.7,5.1,2.7,5.1h.2c0,0-1.5-4.4-1.5-4.4l-.9-.5-1.6-4.8-.2,3.8-3.3-3.1Z"/>
  <path class="st0" d="M69.9,72.7h3.2s0-7.2,0-7.2c-.6,0-1.5.1-2-.2-.4-.2-.9-1-1.2-1v8.4Z"/>
  <path class="st0" d="M48.7,65.4v7.2s3.1,0,3.1,0v-8.4c-.3,0-.8.9-1.1,1-.4.3-1.4.2-2,.2Z"/>
  <path class="st0" d="M52.5,64.7c.7,0,5.4,0,5.6,0l-2.3-5.2c-.9,0-2.2.9-2.7,1.5-.5.5-.7.5-.7,1.5,0,.7,0,1.5,0,2.2Z"/>
  <path class="st0" d="M63.6,64.7h5.3s0-3.5,0-3.5c-.4,0-2-1.7-2.8-1.7-.5,0-.9,2-1.5,3.1-.3.5-1,1.5-.9,2.2Z"/>
  <path class="st0" d="M29.1,35.5l-5.2-1,5.8,6h-.1c.5.1,0-.5,1.2.3.3.2.9.5.9.9.3,0,.2,0,.4,0l-3-6.1Z"/>
  <path class="st0" d="M36.5,32.6l-.3-1h-.4c0-.3,0-3.6,0-4.2h-.2c0,0-2.6,4.4-2.6,4.4.9.7.9,1.3,1.6,2.4.6,1,1,1.5,1.5,2.5l-1.4-5.1,2.3,4.4h.2c0-1.1-1.4-3.4-.6-3.5Z"/>
  <polygon class="st0" points="73.7 72.7 75.5 72.7 75.5 66.1 75.5 66 73.8 65.7 73.7 65.8 73.7 72.7"/>
  <polygon class="st0" points="46.2 72.7 47.6 72.7 47.5 65.8 46.2 65.8 46.2 72.7"/>
  <path class="st0" d="M167,72.4v-.3c.6,0,.2.1.8-.2-.2-.1-.2,0-.8-.3.2-.2,0,0,.4-.1.4,0,.3,0,.6-.2.5-.5.4-.1.4-.6h-1c0-.1,0-.7,0-.7h-1.8c-.2.3-.1.2-.4.5,0,0,0,0,0,0,0,0,0,0,0,0s0,0,0,0c0,0,0,0,0,0,0,0,0,0,0,0,0,.1,0,.1-.1.3h-.6v.3c.6.5.3.2.7.4.3,0,.1,0,.3.1.3.2-.2,0,.3.2.2,0,.2,0,.3,0,.5.2-.1-.2.2.1,0,0,0,0,0,0h1Z"/>
  <path class="st0" d="M80.7,151.1v-2.8c-.2-.8-.3.2-.3-1.4,0-.4,0-.7,0-1.1,0-1.5-.3.3-.3-1.8,0-.7,0-.5-.2-.9-.3.4-.1,5.4-.1,6.7,0,.5,0,.6.2.8l.3.3c.3.3-.2.2.5.3Z"/>
  <path class="st0" d="M168.7,70.4c.1.2-.3,0,.3.2,0,0,.4,0,.5,0v.4c1.1.2.6.3,1.1.3.4,0,.1-.3.9-.3l.4-.5c-1.3-1.5-1.1-1-1.1-2-.8,0-.4,0-.9.4h-.2c-.3.5-.3.6-.4,1.3l-.7.2Z"/>
  <path class="st0" d="M160.7,71.7h.7c0,0,0,.3,0,.3.8,0,.5,0,1.3-.3l.2-.4.4-.3v-.4h-.8s0-.5,0-.5c.4,0,.3.2.3-.4-.8,0-1.4,0-2.1,0v.3c.1,0,.7-.3.7-.3.2.2,0,.7,0,1l.3.4-1.1-.5c.5.6.5.4.5.8h-.4v.3Z"/>
  <path class="st0" d="M135,94.7c0,1.4,0,1.2.4,1.8h.8s0-1,0-1l-.4-.2c0-.5,0-.4-.3-.9.6,0,.7-.1,1.1.2.2.2.2.2.4.5h1.3c0,0,0-.7,0-.7-1,0,.2-.3-.9-.3h-1.1c0,0,0-.4,0-.4h-.5c.2.7-.2-.2-.3,1.1h-.3Z"/>
  <path class="st0" d="M118.2,67.8c.1.6,0,.2.2.4.3.4,0,.3.3.6.2.3.1-.2.2.8h.3s0,.6,0,.6c-.7,0,.3-.3-.6-.4,0,.4,0,.3.4.7.6-.2.5-.3,1-.3v.7h.4v-1c-.4,0-.3.3-.4-1h-.3v.4c-.3-.2-.2-.3-.3-.5-.3-.5-.3.4-.4-1.4-.2,0-.2,0-.3.2v.2c-.1,0-.4,0-.4,0Z"/>
  <path class="st0" d="M144.7,73.1c-.5,0-.4,0-.8.1.1.3,0,0,.2.2.2.1,0,0,.2.1.6.4.1.7,1.8.6,0-.8,0-.6,0-1.3-.8,0-.5,0-1.3,0-.1.2,0,0-.1.4Z"/>
  <path class="st0" d="M168.4,66.8l-.4.3s0,0,0,0h.2c0,0,.5,0,.5,0,0,.6,0,.1-.3.4-.6.5-.2-.1-.8.6h-.3s0,.4,0,.4c.2,0,.3,0,.5,0,.4-.1,0,0,.4-.2.4-.2,0,.1.5-.3.4-.3.3-.1.6-.3.2-.1-.1-.1.8-.3v-.3s-.2,0-.2,0c0,0,0,0,0,0,0,.3-.2.3-.8.3,0-.5.3,0,.8-1,0,0,0-.2-.4-.2-.8,0-.2,0-.4.2-.2.2.1.3-.7.3Z"/>
  <path class="st0" d="M99.8,143.7h1.7c.2-1-.2-1.3-.2-1.3-.2-.4,0,0-.2-.7-.3.1,0,.2-.3.6l-.2.3s-.1.2-.1.2c-.4.5,0,.3-.5.7-.1.2-.1-.3-.2.3Z"/>
  <path class="st0" d="M118.2,67.8h.3c0,0,.1-.1.1-.1.1-.1,0-.1.3-.2v-.9s0,0,0,0c0,0,0,0,0,0-.2-.2-.2-.1-.3-.4h-.5s-.4.4-.4.4v.6c.2.2.3.1.5.5.1.2,0-.2,0,.2Z"/>
  <polygon class="st0" points="26.7 28.5 26.7 28.1 27.1 28.1 27.1 27.8 26.2 27.7 26.3 28.5 26.7 28.5"/>
</svg>