<svg id="Group_5991" data-name="Group 5991" xmlns="http://www.w3.org/2000/svg" xmlns:xlink="http://www.w3.org/1999/xlink" width="254.038" height="254.038" viewBox="0 0 254.038 254.038">
  <defs>
    <clipPath id="clip-path">
      <rect id="Rectangle_6307" data-name="Rectangle 6307" width="254.038" height="254.038" fill="none"/>
    </clipPath>
  </defs>
  <g id="Group_5992" data-name="Group 5992">
    <g id="Group_5989" data-name="Group 5989">
      <g id="Group_5988" data-name="Group 5988" clip-path="url(#clip-path)">
        <path id="Path_14217" data-name="Path 14217" d="M126.941,259.574l-65.606-65.58a47.526,47.526,0,0,1,0-67.193l65.606-65.606a47.526,47.526,0,0,1,67.193,0L259.74,126.8a47.526,47.526,0,0,1,0,67.193l-65.606,65.58a47.478,47.478,0,0,1-67.193,0" transform="translate(-35.087 -34.984)" fill="#fff"/>
        <path id="Path_14218" data-name="Path 14218" d="M349.907,538.93a.64.64,0,0,1-.442.676,8.6,8.6,0,0,1-2.523.442c-2.133,0-3.564-.78-4.318-2.315a9.068,9.068,0,0,1-6.139,2.315,9.847,9.847,0,0,1-7.1-2.653,9.8,9.8,0,0,1,0-13.683,9.847,9.847,0,0,1,7.1-2.653,8.761,8.761,0,0,1,5.255,1.639v-.52a.483.483,0,0,1,.546-.546h3.434a.483.483,0,0,1,.546.546V534.69a1.466,1.466,0,0,0,.364,1.015,1.18,1.18,0,0,0,.936.364,7.208,7.208,0,0,0,1.379-.156c.39-.078.624.078.676.442Zm-13.4-2.6a4.916,4.916,0,0,0,3.772-1.613,6.674,6.674,0,0,0,0-8.324,4.755,4.755,0,0,0-3.772-1.613,5.084,5.084,0,0,0-3.85,1.613,6.5,6.5,0,0,0,0,8.324,5.084,5.084,0,0,0,3.85,1.613" transform="translate(-241.639 -385.513)" fill="#7d848a"/>
        <path id="Path_14219" data-name="Path 14219" d="M431.6,517.557a5.876,5.876,0,0,1-3.772-1.145,3.592,3.592,0,0,1-1.431-2.992V491.205a.483.483,0,0,1,.546-.546h3.434a.483.483,0,0,1,.546.546v20.967a1.467,1.467,0,0,0,.364,1.015,1.18,1.18,0,0,0,.937.364,7.2,7.2,0,0,0,1.379-.156c.39-.078.624.078.676.442l.286,2.575a.589.589,0,0,1-.442.676,7.784,7.784,0,0,1-2.523.468" transform="translate(-315.478 -363.021)" fill="#7d848a"/>
        <path id="Path_14220" data-name="Path 14220" d="M468.734,493.362a2.858,2.858,0,0,1-2-.754,2.454,2.454,0,0,1-.832-1.847,2.366,2.366,0,0,1,.832-1.847,2.788,2.788,0,0,1,2-.754,2.95,2.95,0,0,1,2,.754,2.465,2.465,0,0,1,0,3.694,3,3,0,0,1-2,.754m2.94,22.346a5.875,5.875,0,0,1-3.772-1.145,3.592,3.592,0,0,1-1.431-2.992V497.836a.483.483,0,0,1,.546-.546h3.434a.483.483,0,0,1,.546.546v12.512a1.355,1.355,0,0,0,.364,1.014,1.18,1.18,0,0,0,.936.364,7.206,7.206,0,0,0,1.379-.156c.39-.078.624.078.676.442l.286,2.575a.589.589,0,0,1-.442.676,8.6,8.6,0,0,1-2.523.442" transform="translate(-344.702 -361.172)" fill="#7d848a"/>
        <path id="Path_14221" data-name="Path 14221" d="M513.519,540.123a10.757,10.757,0,0,1-6.113-1.561,6.023,6.023,0,0,1-2.731-4.344c-.052-.39.13-.6.546-.6l3.122.026a.6.6,0,0,1,.6.494c.546,1.665,2.081,2.5,4.578,2.5a5.436,5.436,0,0,0,2.6-.546,1.645,1.645,0,0,0,1.015-1.457,1.684,1.684,0,0,0-1.223-1.587,12.058,12.058,0,0,0-2.965-.728c-1.145-.156-2.315-.338-3.46-.6a6.113,6.113,0,0,1-2.966-1.587,4.418,4.418,0,0,1-1.223-3.33,4.828,4.828,0,0,1,2.159-4.084,9.476,9.476,0,0,1,5.7-1.561,9.949,9.949,0,0,1,5.515,1.457,5.408,5.408,0,0,1,2.6,3.824c.052.39-.13.6-.546.6H517.6c-.312,0-.52-.1-.6-.338a2.822,2.822,0,0,0-1.4-1.613,4.684,4.684,0,0,0-2.445-.624,5.092,5.092,0,0,0-2.445.52,1.562,1.562,0,0,0-.91,1.379,1.734,1.734,0,0,0,.884,1.535,5.16,5.16,0,0,0,2.159.7q1.288.156,2.81.468a24.322,24.322,0,0,1,2.809.754,4.32,4.32,0,0,1,2.159,1.587,4.814,4.814,0,0,1,.885,2.94,4.982,4.982,0,0,1-2.185,4.214,10.063,10.063,0,0,1-5.8,1.561" transform="translate(-373.384 -385.587)" fill="#7d848a"/>
        <path id="Path_14222" data-name="Path 14222" d="M588.084,540.049a9.9,9.9,0,0,1-7.18-2.6,9.072,9.072,0,0,1-2.705-6.894,9.168,9.168,0,0,1,2.705-6.894,11.179,11.179,0,0,1,13.163-.859,7.489,7.489,0,0,1,3.044,4.656c.078.39-.078.6-.494.6h-3.538a.6.6,0,0,1-.6-.494,3.714,3.714,0,0,0-1.613-1.925,5.71,5.71,0,0,0-6.685.806,6.366,6.366,0,0,0,0,8.168,5.71,5.71,0,0,0,6.685.806,3.736,3.736,0,0,0,1.613-1.925.607.607,0,0,1,.6-.494h3.538c.39,0,.546.208.494.6a7.348,7.348,0,0,1-3.044,4.656,9.887,9.887,0,0,1-5.983,1.795" transform="translate(-427.789 -385.513)" fill="#7d848a"/>
        <path id="Path_14223" data-name="Path 14223" d="M676.642,537.347a11.281,11.281,0,0,1-14.411,0,10.065,10.065,0,0,1,0-13.787,11.281,11.281,0,0,1,14.411,0,10.065,10.065,0,0,1,0,13.787m-11.108-2.809a5.728,5.728,0,0,0,7.8,0,6.295,6.295,0,0,0,0-8.116,5.727,5.727,0,0,0-7.8,0,6.295,6.295,0,0,0,0,8.116" transform="translate(-487.94 -385.439)" fill="#7d848a"/>
        <path id="Path_14224" data-name="Path 14224" d="M256.645,491.659a.549.549,0,0,1,.546.546v16.076a9.669,9.669,0,0,1-2.757,7.336,12.088,12.088,0,0,1-14.49.468,8.25,8.25,0,0,1-3.07-5.853c-.052-.39.13-.6.546-.6h3.642a.512.512,0,0,1,.546.52,4.257,4.257,0,0,0,1.769,2.862,6.04,6.04,0,0,0,3.694,1.093,4.847,4.847,0,0,0,3.824-1.639,6.285,6.285,0,0,0,1.457-4.318V496.966c0-1.483-1.587-1.821-2.575-1.873h-.286a.438.438,0,0,1-.442-.442v-2.523a.438.438,0,0,1,.442-.442h7.154Z" transform="translate(-175.249 -363.761)" fill="#7d848a"/>
        <path id="Path_14225" data-name="Path 14225" d="M274.817,630.259a2.566,2.566,0,0,1,2.653,1.847h-.963a1.715,1.715,0,0,0-1.691-.963,2.139,2.139,0,0,0,0,4.266,1.674,1.674,0,0,0,1.9-1.535h-1.847v-.832h2.757c.078,1.769-.806,3.278-2.835,3.278a2.909,2.909,0,0,1-2.992-3.044,2.953,2.953,0,0,1,3.018-3.018" transform="translate(-201.095 -466.306)" fill="#7d848a"/>
        <path id="Path_14226" data-name="Path 14226" d="M302.891,636.246a3.044,3.044,0,1,1,3.044-3.044,2.894,2.894,0,0,1-3.044,3.044m.026-.936a2.109,2.109,0,1,0-2.029-2.107,1.946,1.946,0,0,0,2.029,2.107" transform="translate(-221.885 -466.232)" fill="#7d848a"/>
        <path id="Path_14227" data-name="Path 14227" d="M333.763,633.394a1.354,1.354,0,0,1,.962,1.379,1.671,1.671,0,0,1-1.873,1.717H330.2v-5.931h2.393a1.642,1.642,0,0,1,1.847,1.691,1.2,1.2,0,0,1-.676,1.145m-2.6-1.977v1.665h1.353c.572,0,.962-.234.962-.806s-.39-.859-.962-.859Zm0,2.471v1.743h1.613a.857.857,0,0,0,.963-.832.891.891,0,0,0-.312-.7,1.337,1.337,0,0,0-.78-.182h-1.483Z" transform="translate(-244.303 -466.528)" fill="#7d848a"/>
        <path id="Path_14228" data-name="Path 14228" d="M356.06,635.683v.806H353.2v-.806h.936v-4.344h-.858v-.78h2.705v.78h-.858v4.318h.936Z" transform="translate(-261.319 -466.528)" fill="#7d848a"/>
        <path id="Path_14229" data-name="Path 14229" d="M374.789,631.417h-2.6v1.561h2.471v.858h-2.471v1.717h2.653v.884H371.2v-5.879h3.59Z" transform="translate(-274.637 -466.528)" fill="#7d848a"/>
        <path id="Path_14230" data-name="Path 14230" d="M397.533,636.334v.156h-.989l-1.457-2.055h-1.3v2.055H392.8v-5.931h2.445a1.908,1.908,0,0,1,2.055,1.925,1.853,1.853,0,0,1-1.249,1.769Zm-2.341-2.731a1.106,1.106,0,1,0,0-2.211h-1.457v2.185h1.457Z" transform="translate(-290.618 -466.528)" fill="#7d848a"/>
        <path id="Path_14231" data-name="Path 14231" d="M418.583,632.384l.078,1.873v2.133H417.7v-5.931h.364l3.59,3.98-.078-1.795v-2.159h.989v5.931h-.338Z" transform="translate(-309.041 -466.454)" fill="#7d848a"/>
        <path id="Path_14232" data-name="Path 14232" d="M446.491,636.246a3.044,3.044,0,1,1,3.044-3.044,2.894,2.894,0,0,1-3.044,3.044m.026-.936a2.109,2.109,0,1,0-2.029-2.107,1.946,1.946,0,0,0,2.029,2.107" transform="translate(-328.129 -466.232)" fill="#7d848a"/>
        <path id="Path_14233" data-name="Path 14233" d="M486.932,630.559a2.953,2.953,0,0,1,0,5.905H484.8v-5.905Zm-.026,5.021a2.059,2.059,0,0,0,0-4.11h-1.145v4.11Z" transform="translate(-358.686 -466.528)" fill="#7d848a"/>
        <path id="Path_14234" data-name="Path 14234" d="M514.889,631.417h-2.6v1.561h2.471v.858h-2.471v1.717h2.653v.884H511.3v-5.879h3.59Z" transform="translate(-378.292 -466.528)" fill="#7d848a"/>
        <path id="Path_14235" data-name="Path 14235" d="M533.887,635.579h2.549v.884H532.9v-5.905h.989Z" transform="translate(-394.273 -466.528)" fill="#7d848a"/>
        <path id="Path_14236" data-name="Path 14236" d="M566.188,631.417h-2.6v1.561h2.471v.858h-2.471v1.717h2.653v.884H562.6v-5.879h3.59Z" transform="translate(-416.247 -466.528)" fill="#7d848a"/>
        <path id="Path_14237" data-name="Path 14237" d="M583.414,634.651c.052.676.78.884,1.4.884s1.379-.156,1.379-.884c0-.78-.806-.858-1.483-.911-1.093-.1-2.159-.442-2.159-1.613,0-1.223,1.067-1.769,2.211-1.769,1.119,0,2.185.494,2.211,1.717h-.91c-.052-.624-.728-.832-1.327-.832-.546,0-1.249.182-1.249.859s.676.754,1.353.832c1.2.13,2.289.364,2.289,1.743,0,1.3-1.223,1.769-2.341,1.769-1.145.026-2.367-.52-2.393-1.769h1.015Z" transform="translate(-430.897 -466.38)" fill="#7d848a"/>
        <path id="Path_14238" data-name="Path 14238" d="M605.4,631.417v-.858h4.4v.858h-1.717v5.047h-.963v-5.047Z" transform="translate(-447.913 -466.528)" fill="#7d848a"/>
        <path id="Path_14239" data-name="Path 14239" d="M625.712,635.093l-.572,1.223H624.1v-.13l2.731-5.827h.468L630,636.186v.13H628.99l-.572-1.223Zm.312-.832h2.081l-1.041-2.367Z" transform="translate(-461.749 -466.38)" fill="#7d848a"/>
        <path id="Path_14240" data-name="Path 14240" d="M654.732,630.559a2.953,2.953,0,0,1,0,5.905H652.6v-5.905Zm-.026,5.021a2.059,2.059,0,0,0,0-4.11h-1.145v4.11Z" transform="translate(-482.835 -466.528)" fill="#7d848a"/>
        <path id="Path_14241" data-name="Path 14241" d="M680.791,636.246a3.044,3.044,0,1,1,3.044-3.044,2.894,2.894,0,0,1-3.044,3.044m0-.936a2.109,2.109,0,1,0-2.029-2.107,1.973,1.973,0,0,0,2.029,2.107" transform="translate(-501.48 -466.232)" fill="#7d848a"/>
        <path id="Path_14242" data-name="Path 14242" d="M484.1,216.363v3.252a3.117,3.117,0,0,1,1.327,0v-3.252a2.143,2.143,0,0,0-1.327,0" transform="translate(-358.168 -160.002)" fill="#7d848a"/>
        <path id="Path_14243" data-name="Path 14243" d="M431.563,192.536a.586.586,0,0,0,.338.468,10.432,10.432,0,0,0,4.318.989,9.861,9.861,0,0,0,5.619-1.795,7.778,7.778,0,0,1,8.012-.338,2.9,2.9,0,0,1-2.107.806h-.52v1.171h.494a4.016,4.016,0,0,0,3.486-1.821v-.026a.524.524,0,0,0,.078-.286V184.81a.581.581,0,0,0-.26-.468,8.936,8.936,0,0,0-9.859,0,8.625,8.625,0,0,1-8.793.728.576.576,0,0,0-.728.208.594.594,0,0,0,.1.754l3.772,3.252-3.72,2.731a.51.51,0,0,0-.234.52m5.229-2.757a.579.579,0,0,0,.234-.442.651.651,0,0,0-.208-.468l-2.211-1.9a9.786,9.786,0,0,0,7.206-1.665,7.723,7.723,0,0,1,8.3-.156v5.567a8.9,8.9,0,0,0-8.949.546,8.592,8.592,0,0,1-7.856,1.093Z" transform="translate(-319.289 -135.291)" fill="#7d848a"/>
        <path id="Path_14244" data-name="Path 14244" d="M480.473,194.883h1.3v-1.249h1.249v-1.327h-1.249v-1.249h-1.3v1.249H479.2v1.327h1.275Z" transform="translate(-354.542 -141.358)" fill="#7d848a"/>
        <path id="Path_14245" data-name="Path 14245" d="M413.446,273c.416-.494.858-.988,1.275-1.483a28.25,28.25,0,0,0,4.708-6.529,11.529,11.529,0,0,0,1.119-6.451,10.124,10.124,0,0,0-6.035-7.96,4.631,4.631,0,0,0,.65-2.992v-.026a.618.618,0,0,0-.416-.52.6.6,0,0,0-.65.156,2.359,2.359,0,0,1-1.2.65,2.482,2.482,0,0,1-1.379-.078l-.078-.026a12.163,12.163,0,0,0-4.292-.78,13.164,13.164,0,0,0-1.769.13v-.078a4.387,4.387,0,0,0-.208-1.3.673.673,0,0,0-.364-.39.587.587,0,0,0-.546.052,1.614,1.614,0,0,1-.832.234h-.208c-.338-.026-.65-.052-.936-.052a7.6,7.6,0,0,0-1.327.1,6.968,6.968,0,0,0-1.275.286,9.762,9.762,0,0,0-1.223.442,9.571,9.571,0,0,0-1.145.6c-.364.234-.7.468-1.041.728a9.908,9.908,0,0,0-.936.858c-.182.208-.364.39-.546.624-.156.208-.312.442-.468.65-.312.468-.572.936-.884,1.4a.544.544,0,0,1-.1.156c-.026.026-.026.052-.052.078,0,.026-.052.052-.052.078l-.026.026a3.5,3.5,0,0,1-.286.364l-.312.39c-.156.182-.338.364-.52.546l-.208.208c-.13.1-.26.234-.39.338-.026.026-.078.052-.1.1l-1.925-1.327-.312-1.847c.13-.208.26-.416.364-.6l.078-.1c.052-.1.1-.234.156-.338l.026-.1c.052-.1.078-.182.13-.286.026-.052.026-.078.052-.1.026-.052.026-.078.052-.13l.546-.1.442-3.148-.6-.13a1.267,1.267,0,0,1-.026-.312l-.078-.39a4.784,4.784,0,0,0-.416-1.067c0-.026-.026-.052-.026-.078a3.956,3.956,0,0,0-2.263-1.977c-.026,0-.052-.026-.078-.026,0-.026.026-.052.026-.078.026-.078.052-.13.078-.208a3.968,3.968,0,0,1,1.821-1.925c.13.338.208.572.208.572a.555.555,0,0,0,.6.39,1.169,1.169,0,0,0,.468-.182,2,2,0,0,0,.546-.6,4.186,4.186,0,0,0,.286-3.954,2.785,2.785,0,0,0-2.419-1.769,2.476,2.476,0,0,0-1.067.182,3.043,3.043,0,0,0-2.783-1.743,3.088,3.088,0,0,0-2.783,1.743,2.419,2.419,0,0,0-1.067-.182A2.785,2.785,0,0,0,379,235.489a4.336,4.336,0,0,0,.286,3.954,2,2,0,0,0,.546.6,1.169,1.169,0,0,0,.468.182.53.53,0,0,0,.6-.39s.078-.234.208-.572a3.968,3.968,0,0,1,1.821,1.925c.026.078.052.13.078.208,0,.026.026.052.026.078-.026,0-.052.026-.078.026a3.967,3.967,0,0,0-2.263,1.977c0,.026-.026.052-.026.078a5.332,5.332,0,0,0-.416,1.067l-.078.39a1.267,1.267,0,0,0-.026.312l-.6.13.442,3.148.546.1c.026.052.026.078.052.13s.026.078.052.1a3.058,3.058,0,0,0,.13.286l.026.1c.052.1.1.234.156.338l.078.1c.1.208.234.416.364.624l-.312,1.847-1.925,1.327a12.629,12.629,0,0,1-1.067-.989,1.2,1.2,0,0,0-.182-.182,8.462,8.462,0,0,1-.6-.754l-.026-.026c0-.026-.052-.052-.052-.078-.026-.026-.026-.052-.052-.078-.026-.052-.078-.1-.1-.156-.312-.468-.572-.936-.884-1.4a5.9,5.9,0,0,0-.468-.65l-.546-.624a7.332,7.332,0,0,0-.936-.858,9.358,9.358,0,0,0-1.041-.728,9.574,9.574,0,0,0-1.145-.6,9.762,9.762,0,0,0-1.223-.442,11.214,11.214,0,0,0-1.275-.286,11.389,11.389,0,0,0-1.327-.1c-.286,0-.6.026-.936.052h-.208a1.614,1.614,0,0,1-.832-.234.665.665,0,0,0-.546-.052.6.6,0,0,0-.364.39,4.387,4.387,0,0,0-.208,1.3v.13a12.742,12.742,0,0,0-2-.156,12.059,12.059,0,0,0-4.292.78l-.078.026a2.5,2.5,0,0,1-1.379.078,2.7,2.7,0,0,1-1.2-.65.623.623,0,0,0-1.067.364v.026a4.667,4.667,0,0,0,.65,2.992,10.124,10.124,0,0,0-6.035,7.96,11.53,11.53,0,0,0,1.119,6.451,28.247,28.247,0,0,0,4.708,6.529c.416.494.858.989,1.275,1.483.13.156.286.338.442.52,1.067,1.249,2.315,2.679,2.315,4.032a2.16,2.16,0,0,1-2.341,2.341,2.534,2.534,0,0,1-.884-.156,1.5,1.5,0,0,0-.364-.078,1.406,1.406,0,0,0-1.535.962,1.523,1.523,0,0,0-.338.052,1.232,1.232,0,0,0-.91,1.353v.078a7.356,7.356,0,0,0,7.154,6.5h.1a7.451,7.451,0,0,0,4.5-1.587c0,.026.026.026.052.052a1.2,1.2,0,0,0,.91.364,1.217,1.217,0,0,0,.728-.234,7.854,7.854,0,0,0,2.393-2.679c.052-.078.078-.182.13-.26a1.45,1.45,0,0,0,.13.208c.078.156.182.286.26.416a19.051,19.051,0,0,0,31.164,0c.078-.13.182-.286.26-.416.052-.078.078-.156.13-.234.052.078.078.182.13.26a7.854,7.854,0,0,0,2.393,2.679,1.275,1.275,0,0,0,.728.234,1.347,1.347,0,0,0,.91-.364l.052-.052a7.451,7.451,0,0,0,4.5,1.587h.1a7.356,7.356,0,0,0,7.154-6.5v-.078a1.3,1.3,0,0,0-.91-1.353,1.523,1.523,0,0,0-.338-.052,1.418,1.418,0,0,0-1.535-.962.918.918,0,0,0-.364.078,2.643,2.643,0,0,1-.884.156,2.16,2.16,0,0,1-2.341-2.341c0-1.353,1.223-2.783,2.315-4.032a3.153,3.153,0,0,1,.39-.572m-6.321-24.791a10.741,10.741,0,0,1,3.85.7l.1.026a3.64,3.64,0,0,0,2.107.13,2.97,2.97,0,0,0,.676-.234,3.506,3.506,0,0,1-.572,1.275,17.951,17.951,0,0,0-2.5-.312,9.079,9.079,0,0,0-7.726,4.318,1.4,1.4,0,0,0-1.379-.963h-3.72a10.956,10.956,0,0,1,9.157-4.943m1.3,15.582c.026.1.078.208.1.312a3.764,3.764,0,0,0,3.616,2.341h.156c-2.731,2.809-6.581,4.292-9.183,7.206V263.609c.1-.1.208-.182.286-.26.754-.754,1.431-1.613,2.185-2.393a7.287,7.287,0,0,1,4.084-2.315,3.045,3.045,0,0,1,1.925.234,1.748,1.748,0,0,1,.39,2.783c-.052.052-.1.078-.156.13a1.721,1.721,0,0,1-.858.312,1.517,1.517,0,0,1-.6-.052,1.712,1.712,0,0,0-.728-.1,1.54,1.54,0,0,0-.963.52,1.412,1.412,0,0,0-.26,1.327m-18.678-17.533-.13,1.119h-.026l-.6.13-.6.13v-1.691c.26.052.494.13.754.182a4.039,4.039,0,0,1,.6.13m-4.474,3.3h0l3.226-.7c-.13.234-.26.494-.416.728a5.731,5.731,0,0,1-.364.468,3.225,3.225,0,0,1-2.445,1.353,3.269,3.269,0,0,1-2.445-1.353c-.13-.156-.234-.312-.364-.468a5.2,5.2,0,0,1-.416-.728Zm-1.9-1.691v-2.237c.494-.1.936-.234,1.275-.312v2.809Zm2.523.26v-2.809c.338.078.806.182,1.275.312v2.237ZM381.71,237.96a2.536,2.536,0,0,1,.936-.884,4.024,4.024,0,0,0-2.419,1.2,3.073,3.073,0,0,1,0-2.445,1.5,1.5,0,0,1,1.3-.989,2.241,2.241,0,0,1,1.275.338,3.858,3.858,0,0,1,1.925,2.523,3.935,3.935,0,0,0-.832-2.861,4.533,4.533,0,0,0-.338-.39,1.751,1.751,0,0,1,1.691-1.2,1.785,1.785,0,0,1,1.691,1.2,2.608,2.608,0,0,0-.338.39,4.088,4.088,0,0,0-.832,2.861,3.859,3.859,0,0,1,1.925-2.523,2.752,2.752,0,0,1,1.275-.338,1.5,1.5,0,0,1,1.3.989,3.074,3.074,0,0,1,0,2.445,4.024,4.024,0,0,0-2.419-1.2,2.75,2.75,0,0,1,.936.884,5.359,5.359,0,0,0-2.393,2.523c-.026.078-.078.156-.1.234l-.078.156c-.364-.156-.676-.338-1.015-.52-.338.182-.65.364-1.014.52l-.078-.156a.925.925,0,0,0-.1-.234,4.81,4.81,0,0,0-2.289-2.523m1.847,4.552c.286-.1.6-.182.884-.286a6.449,6.449,0,0,0,.832-.442c.286.156.546.312.832.442.286.1.6.182.884.286a3.234,3.234,0,0,1,2,2.289c-3.382-.832-3.616-.884-3.694-.884h-.026c-.078,0-.312.052-3.694.884a3.147,3.147,0,0,1,1.977-2.289m-2.6,4.865h0l-.156-1.119a4.04,4.04,0,0,1,.6-.13c.26-.052.494-.13.754-.182v1.691l-.6-.13Zm1.4,5.359.182-1.093.078.078a3.971,3.971,0,0,0,2.653,1.119,4.024,4.024,0,0,0,2.653-1.119.772.772,0,0,0,.078-.1l.182,1.119,2.107,1.457c-.1.052-.208.13-.312.182a10.461,10.461,0,0,1-2.861,1.145,8.79,8.79,0,0,1-1.873.26,8.294,8.294,0,0,1-1.613-.208,10.246,10.246,0,0,1-2.966-1.119c-.156-.078-.312-.182-.442-.26Zm-25.233-3.642a3.872,3.872,0,0,0,2.107-.13l.1-.026a10.846,10.846,0,0,1,12.955,4.266h-3.72a1.4,1.4,0,0,0-1.379.963,9.138,9.138,0,0,0-7.726-4.318,17.952,17.952,0,0,0-2.5.312,3.323,3.323,0,0,1-.572-1.275c.26.078.494.156.728.208m11.6,32.127c0,.1-.026.208-.026.312v.078c-.026.1-.026.208-.052.312v.026a6.313,6.313,0,0,1-.442,1.4c0,.026-.026.026-.026.052-.026.078-.078.156-.1.234L368,283.8a6.6,6.6,0,0,1-2.055,2.341,6.747,6.747,0,0,0,1.275-3.928,7.4,7.4,0,0,0-.26-1.873v-.026a9.161,9.161,0,0,1-1.223,3.9v.026a6.079,6.079,0,0,1-5.255,3.044H360.4a6.107,6.107,0,0,1-5.879-5.385v-.052a.091.091,0,0,1,.026.052,4.445,4.445,0,0,0,8.168-2.159,4.414,4.414,0,0,1-1.951,2.237.081.081,0,0,0-.052.026,5.054,5.054,0,0,1-.78.338,3.344,3.344,0,0,1-4.4-1.613c.1.026.182.078.286.1a5.451,5.451,0,0,0,.6.208,3,3,0,0,0,.676.078,5.015,5.015,0,0,0,.624-.026c.1,0,.208-.026.312-.026a.76.76,0,0,0,.234-.052,3.839,3.839,0,0,0,.91-.338,2.435,2.435,0,0,0,.728-.546,2.97,2.97,0,0,0,.546-.728,3.651,3.651,0,0,0,.338-.884,4.518,4.518,0,0,0,.13-1.015c0-2.055-1.795-3.876-3.044-5.359-2.081-2.445-4.422-4.786-5.8-7.726a10.465,10.465,0,0,1-1.015-5.749,8.639,8.639,0,0,1,8.48-7.622,7.863,7.863,0,0,1,6.816,3.98,7.533,7.533,0,0,1,.884,2.94v3.564a17.986,17.986,0,0,0-2.94-2.862c-1.691-1.2-4.188-2.081-6.139-.988a3.26,3.26,0,0,0-1.093,4.708,3.009,3.009,0,0,0,3.356,1.067s-.7,2.263-3.382,1.275a3.913,3.913,0,0,1-.572-.286,4.232,4.232,0,0,1-.884-.78c-.13-.156-.26-.312-.39-.494a4.272,4.272,0,0,1-.416-.754,4.439,4.439,0,0,1-.338-.989,5.2,5.2,0,0,1,.416-3.07,6.061,6.061,0,0,1,3.668-3.018,6.96,6.96,0,0,1,5.1.624c.208.13.416.26.624.416a6.049,6.049,0,0,1,.52.416c-.832-1.743-2.992-2.653-4.813-2.757a6.629,6.629,0,0,0-5.437,2.523,6.816,6.816,0,0,0-1.3,5.411c.364,2.081,2.029,3.824,3.356,5.385a55.483,55.483,0,0,1,6.5,8.819,7.988,7.988,0,0,1,.988,4.032A5.3,5.3,0,0,1,359,285.513h-.026a5.687,5.687,0,0,0,.936.078,5.1,5.1,0,0,0,2.055-.416,5.443,5.443,0,0,0,2.705-2.471c2.393-4.448-1.379-8.975-4.032-12.252-.156-.208-1.015-1.171-1.353-1.587l3.07,2.211c.624.442,1.249.91,1.847,1.4a18.1,18.1,0,0,1,2.471,2.419,9.864,9.864,0,0,1,2.055,6.321m-10.744-14.8h.156a3.764,3.764,0,0,0,3.616-2.341,1.466,1.466,0,0,0,.1-.312,1.489,1.489,0,0,0-.234-1.353,1.331,1.331,0,0,0-.962-.52,1.387,1.387,0,0,0-.728.1,1.179,1.179,0,0,1-.6.052,2.012,2.012,0,0,1-.858-.312.69.69,0,0,1-.156-.13,1.743,1.743,0,0,1-.364-1.977,1.86,1.86,0,0,1,.754-.806,3.233,3.233,0,0,1,1.925-.234,7.287,7.287,0,0,1,4.084,2.315c.754.754,1.431,1.613,2.185,2.393a3.138,3.138,0,0,0,.286.26v10.067c-2.627-2.913-6.477-4.4-9.209-7.206m42.324,14.828v.052a5.824,5.824,0,0,0,.182,1.145c-.208.468-.468.936-.728,1.4l-.234.39a17.577,17.577,0,0,1-28.719,0l-.234-.39a14.347,14.347,0,0,1-.728-1.4c.078-.364.13-.754.182-1.145v-.052a9.984,9.984,0,0,0-1.4-5.7V254.427h5.931l-.754-1.275c.026.026.026.052.052.078a12.181,12.181,0,0,0-7.336-5.853,2.239,2.239,0,0,1-.026-.416v-.234a2.563,2.563,0,0,0,.988.052c.312-.026.572-.052.806-.052h.208a7.643,7.643,0,0,1,1.327.13,10.2,10.2,0,0,1,1.275.338,7.978,7.978,0,0,1,1.171.52,9.415,9.415,0,0,1,1.067.7,9.879,9.879,0,0,1,.962.858,6.351,6.351,0,0,1,.832,1.041c.312.442.572.91.884,1.353a11.194,11.194,0,0,0,.988,1.275,11.032,11.032,0,0,0,.78.78c.13.13.26.234.416.364.026,0,.026.026.052.026l.39.312.052.052c.13.1.26.208.416.312.026.026.026.026.052.026.13.1.286.182.416.286a.025.025,0,0,1,.026.026,10.622,10.622,0,0,0,1.873.962c.026,0,.052.026.1.052.13.052.234.078.364.13a9.3,9.3,0,0,0,.91.286,8.567,8.567,0,0,0,4.943,0c.312-.078.6-.182.911-.286.13-.052.234-.078.364-.13.026,0,.052-.026.1-.052a10.627,10.627,0,0,0,1.873-.962.025.025,0,0,0,.026-.026,2.356,2.356,0,0,0,.416-.286c.026,0,.026-.026.052-.026.13-.1.26-.208.416-.312l.052-.052c.052-.026.078-.078.13-.1a.358.358,0,0,1,.1-.078c.052-.052.1-.078.156-.13.026,0,.026-.026.052-.026.1-.1.234-.208.338-.312.026-.026.052-.026.052-.052l.78-.78c.156-.182.312-.39.468-.572a.457.457,0,0,1,.1-.13,3.724,3.724,0,0,0,.364-.52c0-.026.026-.026.026-.052s.026-.026.026-.052l.234-.39c.208-.312.39-.624.6-.936a11.228,11.228,0,0,1,.832-1.041,7.565,7.565,0,0,1,.963-.858,9.432,9.432,0,0,1,1.067-.7,7.681,7.681,0,0,1,1.171-.52,7.075,7.075,0,0,1,1.275-.338,7.639,7.639,0,0,1,1.327-.13h.208c.234,0,.494.026.806.052a3.121,3.121,0,0,0,.988-.052v.234a1.484,1.484,0,0,1-.026.338,12.058,12.058,0,0,0-7.57,5.905c.026-.026.026-.052.052-.078l-.754,1.275h5.931V275.5a10.3,10.3,0,0,0-1.4,5.749m9.131-3.694a3.293,3.293,0,0,0,.13,1.014,3.651,3.651,0,0,0,.338.884,3.259,3.259,0,0,0,2.185,1.613c.078.026.156.026.234.052.1,0,.208.026.312.026a5.014,5.014,0,0,0,.624.026,2.835,2.835,0,0,0,.676-.078,5.451,5.451,0,0,0,.6-.208c.1-.026.182-.078.286-.1a3.344,3.344,0,0,1-4.4,1.613,4.162,4.162,0,0,1-.78-.338.081.081,0,0,0-.052-.026,4.52,4.52,0,0,1-1.951-2.237,4.468,4.468,0,0,0,4.448,4.188,4.406,4.406,0,0,0,3.72-2.029c0-.026.026-.026.026-.052v.052a6.13,6.13,0,0,1-5.879,5.385h-.078a6.112,6.112,0,0,1-5.255-3.044v-.026a9.537,9.537,0,0,1-1.223-3.9v.026a6.392,6.392,0,0,0-.26,1.873,6.627,6.627,0,0,0,1.275,3.928,6.605,6.605,0,0,1-2.055-2.341l-.078-.156a.926.926,0,0,1-.1-.234c0-.026-.026-.026-.026-.052a8.045,8.045,0,0,1-.442-1.4v-.026c-.026-.1-.026-.208-.052-.312v-.078c0-.1-.026-.208-.026-.312A9.255,9.255,0,0,1,403.769,275a15.53,15.53,0,0,1,2.471-2.419c.624-.494,1.223-.962,1.847-1.4l3.07-2.211c-.364.416-1.2,1.4-1.353,1.587-2.627,3.278-6.425,7.8-4.032,12.252a5.676,5.676,0,0,0,2.705,2.471,5.573,5.573,0,0,0,2.055.416,5.687,5.687,0,0,0,.937-.078h-.026a5.319,5.319,0,0,1-5.073-5.307,7.988,7.988,0,0,1,.988-4.032,56.69,56.69,0,0,1,6.5-8.819c1.327-1.561,2.966-3.3,3.356-5.385a6.816,6.816,0,0,0-1.3-5.411,6.7,6.7,0,0,0-5.437-2.523,5.66,5.66,0,0,0-4.812,2.757,3.3,3.3,0,0,1,.52-.416c.208-.156.416-.286.624-.416a7.106,7.106,0,0,1,5.1-.624,6.224,6.224,0,0,1,3.668,3.018,4.827,4.827,0,0,1,.416,3.07,4.44,4.44,0,0,1-.338.989,7.005,7.005,0,0,1-.416.754,2.331,2.331,0,0,1-.39.494,5.009,5.009,0,0,1-.884.78,3.924,3.924,0,0,1-.572.286c-2.679.989-3.382-1.275-3.382-1.275a3.009,3.009,0,0,0,3.356-1.067,3.28,3.28,0,0,0-1.093-4.708c-1.951-1.093-4.448-.208-6.139.989a17.985,17.985,0,0,0-2.94,2.862v-3.616a7.7,7.7,0,0,1,.884-2.94,7.8,7.8,0,0,1,6.816-3.98,8.638,8.638,0,0,1,8.48,7.622,10.463,10.463,0,0,1-1.014,5.749c-1.379,2.94-3.746,5.281-5.8,7.726-1.327,1.457-3.122,3.3-3.122,5.359" transform="translate(-258.692 -171.766)" fill="#7d848a"/>
        <path id="Path_14246" data-name="Path 14246" d="M493.323,388.125v-.208a.577.577,0,0,0-.572-.572v1.795l2.133-.7a1.96,1.96,0,0,0,.6,1.171,1.876,1.876,0,0,1,.546.858c-.572.26-1.483.65-1.561.676a2.252,2.252,0,0,0,0,1.509,2.3,2.3,0,0,1-1.093-.468v-.546a.577.577,0,0,0-.572-.572v1.795a3.317,3.317,0,0,0,1.795.624.549.549,0,0,1,.546.546.174.174,0,0,0,.182-.156,1.473,1.473,0,0,0-.078-.468,2.564,2.564,0,0,1-.052-.442,1.662,1.662,0,0,1,.156-.728c.1-.026.182-.052.286-.078a2.236,2.236,0,0,1,.416-.026,2.567,2.567,0,0,1,.624.078l.39.078h.208a2.09,2.09,0,0,0,.7-.1s.078-.026.1.026-.052.13-.052.13a1.249,1.249,0,0,1-.65.286c-.1,0-.208.026-.312.026.234.546.416.989.442,1.067a2.253,2.253,0,0,0,1.509,0,2.3,2.3,0,0,1-.468,1.093h-.546a.577.577,0,0,0-.572.572h1.795a3.317,3.317,0,0,0,.624-1.795.549.549,0,0,1,.546-.546.174.174,0,0,0-.156-.182,1.474,1.474,0,0,0-.468.078,2.561,2.561,0,0,1-.442.052,1.662,1.662,0,0,1-.728-.156,2.089,2.089,0,0,1-.1-.7,2.564,2.564,0,0,1,.078-.624c0-.026.026-.052.026-.1a2.565,2.565,0,0,0,.442.052,1.895,1.895,0,0,0,1.691-2.705l-.156-.338a3.386,3.386,0,0,1-.364-1.665,3.146,3.146,0,0,1,.494-1.509c.026,0,.026-.026.052-.026a.9.9,0,0,0,.312-.182,1.125,1.125,0,0,0,.39-.728v-.156a.443.443,0,0,0-.026-.182c-.052.026-.078.052-.13.078-.078.052-.13.1-.208.156a1.131,1.131,0,0,0-.182.156,1.2,1.2,0,0,0-.182.182c-.052.052-.1.13-.156.182l-.052.052a.025.025,0,0,1-.026.026c0,.026-.026.026-.026.052-.026.026-.026.052-.052.078v.026a3.537,3.537,0,0,0-.624,1.769,3.581,3.581,0,0,0,.39,1.873l.156.338a1.411,1.411,0,0,1,.156.65,1.454,1.454,0,0,1-1.457,1.457h-.052a1.337,1.337,0,0,1-.989-.52c-.052-.052-.078-.1-.13-.156a2.375,2.375,0,0,1-.442-1.4l.026.026a1.592,1.592,0,0,0,.572.39c.026.026.078-.026.052-.052a1.57,1.57,0,0,1-.052-.91,3.945,3.945,0,0,1,.156-.52.369.369,0,0,0,.1.286c.026.026.078.026.078-.026a2.135,2.135,0,0,1,.286-.806l.078-.156a2.291,2.291,0,0,0,.156-.26c.052-.078.1-.182.156-.26v-.026a50445761553.065,50445761553.065,0,0,0,.078-.078v-.026a.025.025,0,0,1,.026-.026v-.806a2.473,2.473,0,0,0-.91-1.9c.052,0,.078.026.13.026s.052-.052.026-.078a2.406,2.406,0,0,0-1.743-.52.234.234,0,0,0-.13.026c-.052,0-.078.026-.1.078l-.078.26h-.078a.758.758,0,0,0-.468.312l-.676.286c-.052.026-.1.078-.078.13,0,.026.026.078.052.078,0,.1.078.52.26.546a.758.758,0,0,1,.208-.052h.026c.182-.052.442-.078.494.026,0,0,.156.312-.052.39a.72.72,0,0,1-.26.026h-.26s-.1.312.078.416a1.473,1.473,0,0,1,.468-.078h.312a2.234,2.234,0,0,0,.728-.208,1,1,0,0,1-.52.338,2.857,2.857,0,0,1-.286.078.369.369,0,0,0-.156.052,2.345,2.345,0,0,0-.832.6c-.13-.052-2.055-.962-2.055-.962l.026-.026v-.416a.632.632,0,0,0-.364-.546.612.612,0,0,0-.208-.052v1.4l1.717,1.249.676-.182s.1-.026.13.052c.052.078-.052.13-.052.13Z" transform="translate(-364.531 -283.535)" fill="#7d848a"/>
        <path id="Path_14247" data-name="Path 14247" d="M450.153,393.518a2.252,2.252,0,0,1-1.509,0,2.3,2.3,0,0,0,.468,1.093h.546a.577.577,0,0,1,.572.572h-1.795a3.316,3.316,0,0,1-.624-1.795.549.549,0,0,0-.546-.546.174.174,0,0,1,.156-.182,1.473,1.473,0,0,1,.468.078,2.563,2.563,0,0,0,.442.052,1.662,1.662,0,0,0,.728-.156,2.09,2.09,0,0,0,.1-.7,2.567,2.567,0,0,0-.078-.624c0-.026-.026-.052-.026-.1a2.562,2.562,0,0,1-.442.052,1.895,1.895,0,0,1-1.691-2.705l.156-.338a3.385,3.385,0,0,0,.364-1.665,3.145,3.145,0,0,0-.494-1.509c-.026,0-.026-.026-.052-.026a.9.9,0,0,1-.312-.182,1.125,1.125,0,0,1-.39-.728v-.156a.443.443,0,0,1,.026-.182c.052.026.078.052.13.078.078.052.13.1.208.156a1.135,1.135,0,0,1,.182.156,1.205,1.205,0,0,1,.182.182c.052.052.1.13.156.182l.052.052a.026.026,0,0,0,.026.026c0,.026.026.026.026.052.026.026.026.052.052.078v.026a3.537,3.537,0,0,1,.624,1.769,3.581,3.581,0,0,1-.39,1.873l-.156.338a1.41,1.41,0,0,0-.156.65,1.454,1.454,0,0,0,1.457,1.457h.052a1.337,1.337,0,0,0,.988-.52c.052-.052.078-.1.13-.156a2.375,2.375,0,0,0,.442-1.4l-.026.026a1.592,1.592,0,0,1-.572.39c-.026.026-.078-.026-.052-.052a1.57,1.57,0,0,0,.052-.91,3.953,3.953,0,0,0-.156-.52.369.369,0,0,1-.1.286c-.026.026-.078.026-.078-.026a2.135,2.135,0,0,0-.286-.806l-.078-.156a2.29,2.29,0,0,1-.156-.26c-.052-.078-.1-.182-.156-.26v-.026a31.366,31.366,0,0,1-.052-.052.025.025,0,0,0-.026-.026v-.026a.025.025,0,0,0-.026-.026v-.806a2.473,2.473,0,0,1,.91-1.9c-.052,0-.078.026-.13.026s-.052-.052-.026-.078a2.406,2.406,0,0,1,1.743-.52.234.234,0,0,1,.13.026c.052,0,.078.026.1.078l.078.26h.078a.758.758,0,0,1,.468.312l.676.286c.052.026.1.078.078.13,0,.026-.026.078-.052.078,0,.1-.078.52-.26.52a.758.758,0,0,0-.208-.052h-.026c-.182-.052-.442-.078-.494.026,0,0-.156.312.052.39a.719.719,0,0,0,.26.026h.26s.1.312-.078.416a1.474,1.474,0,0,0-.468-.078H451.3a2.232,2.232,0,0,1-.728-.208,1,1,0,0,0,.52.338,2.863,2.863,0,0,0,.286.078.37.37,0,0,1,.156.052,2.346,2.346,0,0,1,.832.6c.13-.052,2.055-.962,2.055-.962l-.026-.026v-.338a.632.632,0,0,1,.364-.546.612.612,0,0,1,.208-.052v1.4l-1.717,1.223-.728-.208s-.1-.026-.13.052c-.052.078.052.13.052.13l1.951.988v-.208a.577.577,0,0,1,.572-.572v1.795l-2.133-.7a1.96,1.96,0,0,1-.6,1.171,1.875,1.875,0,0,0-.546.858c.572.26,1.483.65,1.561.676a2.253,2.253,0,0,1,0,1.509,2.3,2.3,0,0,0,1.093-.468v-.546a.577.577,0,0,1,.572-.572v1.795a3.317,3.317,0,0,1-1.795.624.549.549,0,0,0-.546.546.174.174,0,0,1-.182-.156,1.473,1.473,0,0,1,.078-.468,2.563,2.563,0,0,0,.052-.442,1.662,1.662,0,0,0-.156-.728c-.1-.026-.182-.052-.286-.078a2.239,2.239,0,0,0-.416-.026.885.885,0,0,0-.26.026l.13-.858s.026-.078-.078-.1a.121.121,0,0,0-.13.052Z" transform="translate(-330.127 -283.387)" fill="#7d848a"/>
        <path id="Path_14248" data-name="Path 14248" d="M469.964,337.125a4.655,4.655,0,0,0-3.876-2.445,4.36,4.36,0,0,0-2.107-.52,4.434,4.434,0,0,0-2.107.52A4.534,4.534,0,0,0,458,337.125a3.554,3.554,0,0,0-.676,5.827,4.388,4.388,0,0,0,3.408,2.731,2.905,2.905,0,0,1,2.445,2.835v7.726a2.264,2.264,0,0,1-2.055,2.159h-.468a.633.633,0,0,0-.624.624h7.856a.633.633,0,0,0-.624-.624h-.468a2.224,2.224,0,0,1-2.081-2.159v-7.726a2.9,2.9,0,0,1,2.263-2.783l.1-.026a4.443,4.443,0,0,0,3.486-2.757,3.526,3.526,0,0,0,1.223-2.679,3.383,3.383,0,0,0-1.821-3.148m-.13,4.943-.234.182-.1.286a3.217,3.217,0,0,1-2.081,1.9,5.676,5.676,0,0,0-.989.312H466.4a1.2,1.2,0,0,1-.182.182l-.026.026a.69.69,0,0,1-.156.13c-.078.052-.13.1-.208.156a3.324,3.324,0,0,1-1.9.572,3.6,3.6,0,0,1-1.9-.572c-.078-.052-.13-.1-.208-.156-.052-.052-.1-.078-.156-.13a.025.025,0,0,1-.026-.026,1.132,1.132,0,0,1-.156-.182l-.026-.026a5.676,5.676,0,0,0-.988-.312,3.154,3.154,0,0,1-2.081-1.9l-.1-.286-.234-.182a2.315,2.315,0,0,1-.806-1.769,2.378,2.378,0,0,1,1.249-2.081l.338-.182.182-.338a3.416,3.416,0,0,1,2.862-1.795h.286l.26-.13a3.106,3.106,0,0,1,1.509-.39,3.034,3.034,0,0,1,1.509.39l.26.13h.286a3.416,3.416,0,0,1,2.861,1.795l.182.338.338.182a2.328,2.328,0,0,1,1.249,2.081,2.149,2.149,0,0,1-.78,1.795" transform="translate(-337.452 -247.232)" fill="#7d848a"/>
        <path id="Path_14249" data-name="Path 14249" d="M454.756,327.885A11.756,11.756,0,0,1,452.1,329h7.83V345.99a12.066,12.066,0,0,1-.338,2.914,13.278,13.278,0,0,1-1.171,3.122c-.052.1-.13.234-.182.338a12.731,12.731,0,0,1-22.059,0c-.052-.1-.13-.234-.182-.338a12.915,12.915,0,0,1-1.509-6.035V328.978h7.986a12.868,12.868,0,0,1-2.705-1.119H433.4V345.99a14.128,14.128,0,0,0,.364,3.174,14.638,14.638,0,0,0,1.275,3.382c.078.13.13.234.208.364a13.9,13.9,0,0,0,24.036,0c.078-.13.13-.234.208-.364a12.947,12.947,0,0,0,1.275-3.382,14.13,14.13,0,0,0,.364-3.174V327.885Z" transform="translate(-320.657 -242.571)" fill="#7d848a"/>
        <path id="Path_14250" data-name="Path 14250" d="M543.237,328.245l-.286-.286-.52.52-.546-.52-.286.286.546.52-.52.546.26.26.546-.52.52.52.286-.26-.546-.546Z" transform="translate(-400.71 -242.645)" fill="#7d848a"/>
        <path id="Path_14251" data-name="Path 14251" d="M426.312,328.245l-.286-.286-.52.52-.546-.52-.26.286.52.52-.52.546.26.26.546-.52.52.52.286-.26-.52-.546Z" transform="translate(-314.22 -242.645)" fill="#7d848a"/>
        <path id="Path_14252" data-name="Path 14252" d="M543.237,378.319l-.286-.26-.52.52-.546-.52-.286.26.546.546-.52.52.26.286.546-.52.52.52.286-.286-.546-.52Z" transform="translate(-400.71 -279.712)" fill="#7d848a"/>
        <path id="Path_14253" data-name="Path 14253" d="M426.312,378.319l-.286-.26-.52.52-.546-.52-.26.26.52.546-.52.52.26.286.546-.52.52.52.286-.286-.52-.52Z" transform="translate(-314.22 -279.712)" fill="#7d848a"/>
        <path id="Path_14254" data-name="Path 14254" d="M438.012,430.345l-.286-.286-.52.546-.546-.546-.26.286.52.52-.52.546.26.286.546-.546.52.546.286-.286-.52-.546Z" transform="translate(-322.876 -318.185)" fill="#7d848a"/>
        <path id="Path_14255" data-name="Path 14255" d="M531.838,430.345l-.286-.286-.546.546-.52-.546-.286.286.546.52-.546.546.286.286.52-.546.546.546.286-.286-.546-.546Z" transform="translate(-392.275 -318.185)" fill="#7d848a"/>
        <path id="Path_14256" data-name="Path 14256" d="M484.838,453.119l-.286-.26-.546.52-.52-.52-.286.26.546.546-.546.546.286.26.52-.52.546.52.286-.26-.546-.546Z" transform="translate(-357.502 -335.054)" fill="#7d848a"/>
      </g>
    </g>
  </g>
</svg>
