<svg id="Group_15465" data-name="Group 15465" xmlns="http://www.w3.org/2000/svg" xmlns:xlink="http://www.w3.org/1999/xlink" width="216.647" height="43.593" viewBox="0 0 216.647 43.593">
  <defs>
    <clipPath id="clip-path">
      <rect id="Rectangle_9598" data-name="Rectangle 9598" width="216.648" height="43.593" fill="#fff"/>
    </clipPath>
  </defs>
  <g id="Group_15465-2" data-name="Group 15465" transform="translate(0 0)">
    <g id="Group_15464" data-name="Group 15464" transform="translate(0 0)" clip-path="url(#clip-path)">
      <path id="Path_23931" data-name="Path 23931" d="M27.236,15.772a.277.277,0,0,1-.313-.313V13.9a.277.277,0,0,1,.313-.313h1.627V6.459H27.236a.277.277,0,0,1-.313-.313V4.585a.276.276,0,0,1,.313-.311h5.831c.219,0,.329.1.329.311V6.146q0,.313-.329.313H31.441v7.128h1.625q.329,0,.329.313v1.559q0,.313-.329.313Z" transform="translate(19.881 3.156)" fill="#fff"/>
      <path id="Path_23932" data-name="Path 23932" d="M37.421,6.154a3.489,3.489,0,0,1,2.6.994A3.577,3.577,0,0,1,41,9.784v4.287a.277.277,0,0,1-.313.313H38.85q-.329,0-.329-.313V10.112a1.92,1.92,0,0,0-.468-1.347A1.628,1.628,0,0,0,36.8,8.256a1.822,1.822,0,0,0-1.323.485,1.713,1.713,0,0,0-.5,1.29v4.04a.276.276,0,0,1-.311.313H32.821a.275.275,0,0,1-.311-.313V8.913a.566.566,0,0,0-.641-.64c-.043,0-.163.017-.36.049-.242,0-.362-.087-.362-.263V6.712a.344.344,0,0,1,.245-.362,3.29,3.29,0,0,1,1.182-.2,2.044,2.044,0,0,1,1.971,1.034,3.885,3.885,0,0,1,2.875-1.034" transform="translate(23 4.544)" fill="#fff"/>
      <path id="Path_23933" data-name="Path 23933" d="M43.837,6.154a3.494,3.494,0,0,1,2.6.994,3.583,3.583,0,0,1,.984,2.635v4.287a.276.276,0,0,1-.313.313H45.264c-.217,0-.327-.1-.327-.313V10.112a1.913,1.913,0,0,0-.469-1.347,1.627,1.627,0,0,0-1.255-.509,1.823,1.823,0,0,0-1.325.485,1.718,1.718,0,0,0-.5,1.29v4.04a.277.277,0,0,1-.313.313H39.237a.275.275,0,0,1-.311-.313V8.913a.567.567,0,0,0-.641-.64,3.613,3.613,0,0,0-.36.049c-.242,0-.362-.087-.362-.263V6.712a.345.345,0,0,1,.243-.362,3.29,3.29,0,0,1,1.182-.2A2.042,2.042,0,0,1,40.96,7.188a3.889,3.889,0,0,1,2.877-1.034" transform="translate(27.737 4.544)" fill="#fff"/>
      <path id="Path_23934" data-name="Path 23934" d="M51.905,13.482a5.186,5.186,0,0,1-6.554,0A4.02,4.02,0,0,1,44.11,10.41,4.043,4.043,0,0,1,45.351,7.32a5.186,5.186,0,0,1,6.554,0,4.048,4.048,0,0,1,1.239,3.089,4.025,4.025,0,0,1-1.239,3.072m-4.847-1.471a2.352,2.352,0,0,0,3.138,0,2.164,2.164,0,0,0,.6-1.6,2.19,2.19,0,0,0-.6-1.61,2.327,2.327,0,0,0-3.138,0,2.19,2.19,0,0,0-.6,1.61,2.164,2.164,0,0,0,.6,1.6" transform="translate(32.572 4.544)" fill="#fff"/>
      <path id="Path_23935" data-name="Path 23935" d="M53.543,14.272a.349.349,0,0,1-.346-.229L49.766,6.667c-.089-.24-.007-.362.245-.362h1.956a.361.361,0,0,1,.362.231L54.463,11.3l2.168-4.763a.349.349,0,0,1,.346-.231h1.938a.272.272,0,0,1,.245.1.277.277,0,0,1,0,.263l-3.433,7.376a.346.346,0,0,1-.344.229Z" transform="translate(36.723 4.656)" fill="#fff"/>
      <path id="Path_23936" data-name="Path 23936" d="M66.234,14.1a.29.29,0,0,1-.263.346,4.466,4.466,0,0,1-1.233.2,2.16,2.16,0,0,1-2.07-1,4.06,4.06,0,0,1-2.759,1A4.265,4.265,0,0,1,56.8,13.464a4.1,4.1,0,0,1-1.206-3.056A4.118,4.118,0,0,1,56.8,7.336,4.265,4.265,0,0,1,59.91,6.154a3.679,3.679,0,0,1,2.333.756V6.729a.274.274,0,0,1,.311-.311h1.808a.275.275,0,0,1,.311.311v5.158c0,.428.181.64.542.64a2.291,2.291,0,0,0,.509-.049c.219-.021.334.066.344.263Zm-6.111-1.379a1.9,1.9,0,0,0,1.5-.65,2.42,2.42,0,0,0,.574-1.667,2.448,2.448,0,0,0-.574-1.683,1.9,1.9,0,0,0-1.5-.648,1.973,1.973,0,0,0-1.528.648A2.409,2.409,0,0,0,58,10.408a2.381,2.381,0,0,0,.591,1.667,1.974,1.974,0,0,0,1.528.65" transform="translate(41.049 4.544)" fill="#fff"/>
      <path id="Path_23937" data-name="Path 23937" d="M66.824,14.646a4.592,4.592,0,0,1-3.277-1.166,4.022,4.022,0,0,1-1.24-3.072,4.041,4.041,0,0,1,1.24-3.087,5.161,5.161,0,0,1,6.036-.362,3.357,3.357,0,0,1,1.38,2.168c.033.219-.059.329-.278.329H68.926a.369.369,0,0,1-.344-.263,1.52,1.52,0,0,0-.648-.765,2.082,2.082,0,0,0-1.109-.287,2.047,2.047,0,0,0-1.559.624,2.28,2.28,0,0,0-.593,1.643,2.25,2.25,0,0,0,.593,1.634,2.059,2.059,0,0,0,1.559.615,2.173,2.173,0,0,0,1.118-.278,1.385,1.385,0,0,0,.64-.772.391.391,0,0,1,.344-.263h1.759c.219,0,.311.11.278.329a3.362,3.362,0,0,1-1.38,2.168,4.589,4.589,0,0,1-2.759.8" transform="translate(46.01 4.544)" fill="#fff"/>
      <path id="Path_23938" data-name="Path 23938" d="M70.624,6.222a1.581,1.581,0,0,1-2.086,0,1.285,1.285,0,0,1-.419-.97,1.259,1.259,0,0,1,.419-.961,1.6,1.6,0,0,1,2.086,0,1.253,1.253,0,0,1,.419.961,1.279,1.279,0,0,1-.419.97m-1.963,9.822a.277.277,0,0,1-.313-.313V8.39a.277.277,0,0,1,.313-.313H70.5a.277.277,0,0,1,.313.313v7.341a.277.277,0,0,1-.313.313Z" transform="translate(50.301 2.884)" fill="#fff"/>
      <path id="Path_23939" data-name="Path 23939" d="M78.416,15.036a5.186,5.186,0,0,1-6.554,0,4.022,4.022,0,0,1-1.239-3.072,4.048,4.048,0,0,1,1.239-3.089,5.186,5.186,0,0,1,6.554,0,4.043,4.043,0,0,1,1.241,3.089,4.017,4.017,0,0,1-1.241,3.072m-4.845-1.471a2.352,2.352,0,0,0,3.138,0,2.171,2.171,0,0,0,.6-1.6,2.2,2.2,0,0,0-.6-1.61,2.327,2.327,0,0,0-3.138,0,2.19,2.19,0,0,0-.6,1.61,2.164,2.164,0,0,0,.6,1.6m.748-6.907a.269.269,0,0,1-.238-.108.223.223,0,0,1,.009-.254l1.083-2.02a.379.379,0,0,1,.362-.229h1.938a.252.252,0,0,1,.238.1c.038.066.019.16-.057.28l-1.4,2.053a.442.442,0,0,1-.379.181Z" transform="translate(52.15 2.988)" fill="#fff"/>
      <path id="Path_23940" data-name="Path 23940" d="M82.7,6.154a3.489,3.489,0,0,1,2.6.994,3.577,3.577,0,0,1,.986,2.635v4.287a.277.277,0,0,1-.313.313H84.128q-.329,0-.329-.313V10.112a1.92,1.92,0,0,0-.468-1.347,1.628,1.628,0,0,0-1.257-.509,1.822,1.822,0,0,0-1.323.485,1.713,1.713,0,0,0-.5,1.29v4.04a.276.276,0,0,1-.311.313H78.1a.275.275,0,0,1-.311-.313V8.913a.566.566,0,0,0-.641-.64c-.043,0-.163.017-.36.049-.242,0-.362-.087-.362-.263V6.712a.344.344,0,0,1,.245-.362,3.29,3.29,0,0,1,1.182-.2,2.044,2.044,0,0,1,1.971,1.034A3.885,3.885,0,0,1,82.7,6.154" transform="translate(56.434 4.544)" fill="#fff"/>
      <path id="Path_23941" data-name="Path 23941" d="M83.315,9.954a1.526,1.526,0,0,1,1.989,0,1.153,1.153,0,0,1,.417.9,2.332,2.332,0,0,1-.393,1.067l-.986,1.791a.407.407,0,0,1-.377.2h-.723c-.252,0-.329-.12-.231-.362l.706-1.592a1.118,1.118,0,0,1-.821-1.1,1.149,1.149,0,0,1,.419-.9" transform="translate(61.212 7.078)" fill="#fff"/>
      <path id="Path_23942" data-name="Path 23942" d="M93.9,16.129a6.2,6.2,0,0,1-4.5-1.652,5.781,5.781,0,0,1-1.709-4.36,5.767,5.767,0,0,1,1.709-4.346,6.869,6.869,0,0,1,8.344-.45,5.283,5.283,0,0,1,2,3.22c.031.219-.066.329-.3.329h-2.02a.364.364,0,0,1-.362-.264A3.1,3.1,0,0,0,95.9,6.98,3.38,3.38,0,0,0,93.911,6.4a3.487,3.487,0,0,0-2.62,1.027,3.7,3.7,0,0,0-.993,2.686,3.715,3.715,0,0,0,.993,2.71,3.494,3.494,0,0,0,2.62,1.019,3.383,3.383,0,0,0,1.98-.575,3.071,3.071,0,0,0,1.173-1.61.365.365,0,0,1,.362-.278h2.02c.231,0,.329.11.3.327a5.171,5.171,0,0,1-2,3.228A6.223,6.223,0,0,1,93.9,16.129" transform="translate(64.749 3.044)" fill="#fff"/>
      <path id="Path_23943" data-name="Path 23943" d="M98.043,6.222a1.581,1.581,0,0,1-2.086,0,1.285,1.285,0,0,1-.419-.97,1.259,1.259,0,0,1,.419-.961,1.6,1.6,0,0,1,2.086,0,1.253,1.253,0,0,1,.419.961,1.279,1.279,0,0,1-.419.97M96.08,16.044a.277.277,0,0,1-.313-.313V8.39a.277.277,0,0,1,.313-.313H97.92a.277.277,0,0,1,.313.313v7.341a.277.277,0,0,1-.313.313Z" transform="translate(70.547 2.884)" fill="#fff"/>
      <path id="Path_23944" data-name="Path 23944" d="M102.56,14.646a4.6,4.6,0,0,1-3.27-1.166,4,4,0,0,1-1.248-3.072A4.094,4.094,0,0,1,99.248,7.32a4.359,4.359,0,0,1,3.162-1.166A4.244,4.244,0,0,1,105.54,7.3a4.094,4.094,0,0,1,1.158,3.039c0,.066,0,.162-.009.287s-.007.217-.007.273a.311.311,0,0,1-.346.278h-5.9a2.052,2.052,0,0,0,.781,1.166,2.286,2.286,0,0,0,1.389.428,1.72,1.72,0,0,0,1.346-.494.667.667,0,0,1,.395-.163h1.839a.31.31,0,0,1,.256.09.218.218,0,0,1,.009.238,3.313,3.313,0,0,1-1.462,1.61,4.83,4.83,0,0,1-2.43.591m-2.136-4.928h3.925a1.759,1.759,0,0,0-.542-1.257,1.853,1.853,0,0,0-1.33-.483,2.047,2.047,0,0,0-1.372.483,1.983,1.983,0,0,0-.681,1.257" transform="translate(72.396 4.544)" fill="#fff"/>
      <path id="Path_23945" data-name="Path 23945" d="M109.91,6.154a3.489,3.489,0,0,1,2.6.994,3.577,3.577,0,0,1,.986,2.635v4.287a.277.277,0,0,1-.313.313h-1.839q-.329,0-.329-.313V10.112a1.92,1.92,0,0,0-.468-1.347,1.628,1.628,0,0,0-1.257-.509,1.822,1.822,0,0,0-1.323.485,1.713,1.713,0,0,0-.5,1.29v4.04a.276.276,0,0,1-.311.313H105.31a.275.275,0,0,1-.311-.313V8.913a.566.566,0,0,0-.641-.64c-.043,0-.163.017-.36.049-.242,0-.362-.087-.362-.263V6.712a.344.344,0,0,1,.245-.362,3.29,3.29,0,0,1,1.182-.2,2.044,2.044,0,0,1,1.971,1.034,3.885,3.885,0,0,1,2.875-1.034" transform="translate(76.527 4.544)" fill="#fff"/>
      <path id="Path_23946" data-name="Path 23946" d="M114.7,14.646a4.592,4.592,0,0,1-3.277-1.166,4.022,4.022,0,0,1-1.24-3.072,4.041,4.041,0,0,1,1.24-3.087,5.161,5.161,0,0,1,6.036-.362,3.357,3.357,0,0,1,1.38,2.168c.033.219-.059.329-.278.329H116.8a.369.369,0,0,1-.344-.263,1.52,1.52,0,0,0-.648-.765,2.082,2.082,0,0,0-1.109-.287,2.047,2.047,0,0,0-1.559.624,2.28,2.28,0,0,0-.593,1.643,2.25,2.25,0,0,0,.593,1.634,2.059,2.059,0,0,0,1.559.615,2.173,2.173,0,0,0,1.118-.278,1.385,1.385,0,0,0,.64-.772.391.391,0,0,1,.344-.263h1.759c.219,0,.311.11.278.329a3.362,3.362,0,0,1-1.38,2.168,4.589,4.589,0,0,1-2.759.8" transform="translate(81.362 4.544)" fill="#fff"/>
      <path id="Path_23947" data-name="Path 23947" d="M118.5,6.222a1.581,1.581,0,0,1-2.086,0,1.285,1.285,0,0,1-.419-.97,1.259,1.259,0,0,1,.419-.961,1.6,1.6,0,0,1,2.086,0,1.253,1.253,0,0,1,.419.961,1.279,1.279,0,0,1-.419.97m-1.963,9.822a.277.277,0,0,1-.313-.313V8.39a.277.277,0,0,1,.313-.313h1.839a.277.277,0,0,1,.313.313v7.341a.277.277,0,0,1-.313.313Z" transform="translate(85.653 2.884)" fill="#fff"/>
      <path id="Path_23948" data-name="Path 23948" d="M129.142,14.1a.29.29,0,0,1-.263.346,4.466,4.466,0,0,1-1.233.2,2.16,2.16,0,0,1-2.07-1,4.06,4.06,0,0,1-2.759,1,4.265,4.265,0,0,1-3.114-1.182,4.1,4.1,0,0,1-1.206-3.056A4.118,4.118,0,0,1,119.7,7.336a4.265,4.265,0,0,1,3.114-1.182,3.679,3.679,0,0,1,2.333.756V6.729a.274.274,0,0,1,.311-.311h1.808a.275.275,0,0,1,.311.311v5.158c0,.428.181.64.542.64a2.291,2.291,0,0,0,.509-.049c.219-.021.334.066.344.263Zm-6.111-1.379a1.9,1.9,0,0,0,1.5-.65,2.42,2.42,0,0,0,.574-1.667,2.449,2.449,0,0,0-.574-1.683,1.9,1.9,0,0,0-1.5-.648,1.973,1.973,0,0,0-1.528.648,2.409,2.409,0,0,0-.591,1.683,2.381,2.381,0,0,0,.591,1.667,1.974,1.974,0,0,0,1.528.65" transform="translate(87.502 4.544)" fill="#fff"/>
      <path id="Path_23949" data-name="Path 23949" d="M36.59,17.7a.253.253,0,0,1,.238.1.291.291,0,0,1-.009.262l-4.089,9.1a3.867,3.867,0,0,1-3.665,2.6,6.565,6.565,0,0,1-1.937-.263.272.272,0,0,1-.247-.346l.214-1.412c.054-.219.176-.306.362-.263a5.8,5.8,0,0,0,1.248.148,1.716,1.716,0,0,0,1.707-1.067l.346-.741-3.894-7.752a.242.242,0,0,1-.007-.262.3.3,0,0,1,.254-.1h1.954a.4.4,0,0,1,.362.229l2.547,5.125,2.3-5.125a.361.361,0,0,1,.362-.229Z" transform="translate(19.807 13.07)" fill="#fff"/>
      <path id="Path_23950" data-name="Path 23950" d="M45.55,15.668a.275.275,0,0,1,.311.313V17.54a.275.275,0,0,1-.311.313h-3.6v9a.275.275,0,0,1-.313.311H39.685a.275.275,0,0,1-.311-.311v-9h-3.6a.277.277,0,0,1-.313-.313V15.981a.277.277,0,0,1,.313-.313Z" transform="translate(26.187 11.57)" fill="#fff"/>
      <path id="Path_23951" data-name="Path 23951" d="M46.021,26.04a4.6,4.6,0,0,1-3.27-1.166A4,4,0,0,1,41.5,21.8a4.094,4.094,0,0,1,1.206-3.087,4.359,4.359,0,0,1,3.162-1.166A4.244,4.244,0,0,1,49,18.7a4.094,4.094,0,0,1,1.158,3.039c0,.066,0,.162-.009.287s-.007.217-.007.273a.311.311,0,0,1-.346.278H43.9a2.052,2.052,0,0,0,.781,1.166,2.286,2.286,0,0,0,1.389.428,1.72,1.72,0,0,0,1.346-.494.667.667,0,0,1,.395-.163h1.839a.31.31,0,0,1,.256.09.218.218,0,0,1,.009.238,3.313,3.313,0,0,1-1.462,1.61,4.83,4.83,0,0,1-2.43.591m-2.137-4.928H47.81a1.759,1.759,0,0,0-.542-1.257,1.853,1.853,0,0,0-1.33-.483,2.047,2.047,0,0,0-1.372.483,1.983,1.983,0,0,0-.681,1.257" transform="translate(30.647 12.958)" fill="#fff"/>
      <path id="Path_23952" data-name="Path 23952" d="M51.745,26.04a4.592,4.592,0,0,1-3.277-1.166,4.022,4.022,0,0,1-1.24-3.072,4.041,4.041,0,0,1,1.24-3.087,5.161,5.161,0,0,1,6.036-.362,3.357,3.357,0,0,1,1.38,2.168c.033.219-.059.329-.278.329H53.847a.369.369,0,0,1-.344-.263,1.52,1.52,0,0,0-.648-.765,2.082,2.082,0,0,0-1.109-.287,2.047,2.047,0,0,0-1.559.624,2.28,2.28,0,0,0-.593,1.643,2.25,2.25,0,0,0,.593,1.634,2.059,2.059,0,0,0,1.559.615,2.173,2.173,0,0,0,1.118-.278A1.385,1.385,0,0,0,53.5,23a.391.391,0,0,1,.344-.263h1.759c.219,0,.311.11.278.329a3.362,3.362,0,0,1-1.38,2.168,4.589,4.589,0,0,1-2.759.8" transform="translate(34.875 12.958)" fill="#fff"/>
      <path id="Path_23953" data-name="Path 23953" d="M59.087,17.548a3.489,3.489,0,0,1,2.6.994,3.577,3.577,0,0,1,.986,2.635v4.287a.277.277,0,0,1-.313.313H60.516q-.329,0-.329-.313V21.506a1.92,1.92,0,0,0-.468-1.347,1.628,1.628,0,0,0-1.257-.509,1.822,1.822,0,0,0-1.323.485,1.713,1.713,0,0,0-.5,1.29v4.04a.276.276,0,0,1-.311.313H54.487a.275.275,0,0,1-.311-.313V20.307a.566.566,0,0,0-.641-.64c-.043,0-.163.017-.36.049-.242,0-.362-.087-.362-.263V18.106a.344.344,0,0,1,.245-.362,3.291,3.291,0,0,1,1.182-.2,2.044,2.044,0,0,1,1.971,1.034,3.885,3.885,0,0,1,2.875-1.034" transform="translate(38.998 12.958)" fill="#fff"/>
      <path id="Path_23954" data-name="Path 23954" d="M67.155,24.876a5.186,5.186,0,0,1-6.554,0A4.02,4.02,0,0,1,59.36,21.8,4.043,4.043,0,0,1,60.6,18.714a5.186,5.186,0,0,1,6.554,0A4.048,4.048,0,0,1,68.395,21.8a4.025,4.025,0,0,1-1.239,3.072M62.308,23.4a2.352,2.352,0,0,0,3.138,0,2.164,2.164,0,0,0,.6-1.6,2.19,2.19,0,0,0-.6-1.61,2.327,2.327,0,0,0-3.138,0,2.19,2.19,0,0,0-.6,1.61,2.164,2.164,0,0,0,.6,1.6" transform="translate(43.833 12.958)" fill="#fff"/>
      <path id="Path_23955" data-name="Path 23955" d="M68.034,27.708a2.923,2.923,0,0,1-1.832-.527,1.707,1.707,0,0,1-.681-1.429V15.6a.277.277,0,0,1,.313-.313h1.839a.277.277,0,0,1,.313.313v9.363q0,.623.558.624a2.185,2.185,0,0,0,.492-.05c.219-.021.336.068.346.264l.163,1.363a.287.287,0,0,1-.263.344,4.322,4.322,0,0,1-1.248.2" transform="translate(48.381 11.29)" fill="#fff"/>
      <path id="Path_23956" data-name="Path 23956" d="M76.235,24.876a5.186,5.186,0,0,1-6.554,0A4.02,4.02,0,0,1,68.44,21.8a4.043,4.043,0,0,1,1.241-3.089,5.186,5.186,0,0,1,6.554,0A4.048,4.048,0,0,1,77.475,21.8a4.025,4.025,0,0,1-1.239,3.072M71.388,23.4a2.352,2.352,0,0,0,3.138,0,2.164,2.164,0,0,0,.6-1.6,2.19,2.19,0,0,0-.6-1.61,2.327,2.327,0,0,0-3.138,0,2.19,2.19,0,0,0-.6,1.61,2.164,2.164,0,0,0,.6,1.6" transform="translate(50.538 12.958)" fill="#fff"/>
      <path id="Path_23957" data-name="Path 23957" d="M83.184,17.811a.275.275,0,0,1,.311.313v7.851a3.585,3.585,0,0,1-1.215,2.818,4.633,4.633,0,0,1-3.187,1.074,5.1,5.1,0,0,1-2.966-.821,3.281,3.281,0,0,1-1.436-2.185c-.056-.207.043-.311.3-.311h1.839a.4.4,0,0,1,.362.247,1.4,1.4,0,0,0,.673.781,2.446,2.446,0,0,0,1.217.287,1.942,1.942,0,0,0,1.412-.509,1.807,1.807,0,0,0,.525-1.363V25.3a3.673,3.673,0,0,1-2.283.706,4.253,4.253,0,0,1-3.1-1.191,4.081,4.081,0,0,1-1.215-3.047,4.059,4.059,0,0,1,1.215-3.039,4.275,4.275,0,0,1,3.1-1.182,3.679,3.679,0,0,1,2.333.756v-.181a.276.276,0,0,1,.311-.313Zm-4.238,6.258a1.919,1.919,0,0,0,1.5-.64,2.4,2.4,0,0,0,.574-1.66,2.367,2.367,0,0,0-.582-1.658,1.928,1.928,0,0,0-1.486-.641,1.979,1.979,0,0,0-1.519.65,2.6,2.6,0,0,0-.009,3.31,1.989,1.989,0,0,0,1.528.64" transform="translate(54.948 12.958)" fill="#fff"/>
      <path id="Path_23958" data-name="Path 23958" d="M82.968,19.367a.275.275,0,0,1,.313.311v7.343a.275.275,0,0,1-.313.311H81.129a.275.275,0,0,1-.311-.311V19.679a.275.275,0,0,1,.311-.311Zm-1.74-1.314a.269.269,0,0,1-.238-.108A.223.223,0,0,1,81,17.692l1.083-2.02a.379.379,0,0,1,.362-.229h1.938a.252.252,0,0,1,.238.1c.038.066.019.16-.057.28l-1.4,2.053a.442.442,0,0,1-.379.181Z" transform="translate(59.678 11.403)" fill="#fff"/>
      <path id="Path_23959" data-name="Path 23959" d="M93.835,25.5a.292.292,0,0,1-.264.346,4.466,4.466,0,0,1-1.233.2,2.16,2.16,0,0,1-2.07-1,4.06,4.06,0,0,1-2.759,1A4.265,4.265,0,0,1,84.4,24.858,4.1,4.1,0,0,1,83.189,21.8,4.118,4.118,0,0,1,84.4,18.73a4.265,4.265,0,0,1,3.114-1.182,3.679,3.679,0,0,1,2.333.756v-.181a.275.275,0,0,1,.311-.311h1.808a.275.275,0,0,1,.311.311v5.158c0,.428.181.64.542.64a2.269,2.269,0,0,0,.509-.049c.221-.021.334.066.344.263Zm-6.111-1.379a1.9,1.9,0,0,0,1.493-.65,2.42,2.42,0,0,0,.574-1.667,2.448,2.448,0,0,0-.574-1.683,1.9,1.9,0,0,0-1.493-.648,1.976,1.976,0,0,0-1.53.648A2.409,2.409,0,0,0,85.6,21.8a2.381,2.381,0,0,0,.591,1.667,1.978,1.978,0,0,0,1.53.65" transform="translate(61.429 12.958)" fill="#fff"/>
      <path id="Path_23960" data-name="Path 23960" d="M22.422,35.137V31.445H26.25V27.822H14.97v3.623H18.8v3.692h-6.2L8.593,26a3.46,3.46,0,0,0,.076-5.021l3.9-7.044L16.133,18.6l-2.114,1.61,2.2,2.884L23,17.915l-2.2-2.881-1.8,1.37L9.746,4.25l1.8-1.368L9.342,0,2.555,5.179l2.2,2.881,2.11-1.61,3.31,4.339-5.241,9.45a3.472,3.472,0,0,0,0,6.439l3.708,8.459H0v8.456H3.625V38.762H24.439v4.831h3.623V35.137Z" transform="translate(0 0)" fill="#fff"/>
    </g>
  </g>
</svg>
