<svg id="eFAl540qZEL1" xmlns="http://www.w3.org/2000/svg" xmlns:xlink="http://www.w3.org/1999/xlink" viewBox="0 0 814.22797 1080" shape-rendering="geometricPrecision" text-rendering="geometricPrecision" style="background-color:transparent"><g transform="matrix(1.06246 0 0 1.06246-525.450215-13.8864)"><g><path d="M907.95,13.08c3.12,9.37,5.89,18.8,6.03,28.8.07,5.2-.39,10.36-1.41,16.03c13.61-8.02,15.45-20.83,15.77-34.57c6.9,7.62,12.04,22.93,12.65,37.36c10.22-5.7,23.45-6.62,28.69-19.58c1.51-3.74,3.56-7.26,5.74-11.65c3.14,10.64,5.86,20.43,3.33,30.83-1.25,5.13-3.87,9.31-8.34,12.23-4.1,2.68-6.47,6.52-7.93,11.76c15.51-7.35,29.89-6.19,43.7,4.44-2.6,1.44-4.94,2.74-7.29,4.05-7.04,3.92-13.15,8.9-17.6,15.71-.71,1.08-2.12,2.27-1.38,3.6.62,1.1,2.25.47,3.43.54c4.34.27,8.09-1.2,11.19-4.19c7.06-6.8,15.19-7.46,23.98-4.25c7.81,2.85,13.6,8.48,19.67,14.64-4.8.67-9.18,1.15-13.52,1.9-6.8,1.18-12.39,4.14-15.38,10.86-1.34,3.01-4.02,5.1-6.3,7.96c7.78,1.86,15.11,4,21.48,8.35c4.25,2.91,8.29,6.12,12.38,9.65-14.28-.75-28.18-.49-40.1,9.41c1.73,1.13,3.26.64,4.67.65c57.04.03,114.08.06,171.13-.04c3.41-.01,4.55.53,4.55,4.34-.12,143.44-.01,286.87-.13,430.31-.11,136.57-92.79,255.81-226.04,287.85-104.93,25.23-198.81,1.03-278.99-71.42-49.22-44.48-78.73-100.63-90.48-165.96-3.06-17.01-4.28-34.23-4.28-51.53c0-142.89.02-285.77-.09-428.66c0-3.8.64-4.98,4.77-4.97c52.79.17,105.58.11,158.37.11c1.33,0,2.65,0,3.81,0-7.19-13.21-17.86-21.93-33.42-25.55c17.13-6.71,33.69-9.01,50.89-5.91-2.07-4.78-8.35-10.13-14.74-12.56-6.21-2.36-12.94-2.08-19.78-3.74c11.86-6.91,23.76-12.23,38.4-11.39-4.05-5.3-5.58-10.76-7.5-16.13-2.39-6.66-8.54-10.1-14.54-13.25-3.21-1.68-6.52-3.16-10.62-5.13c10.93-2.99,20.86-5.84,31.4-3.4c5.16,1.19,9.31,3.82,12.28,8.27c2.68,4.02,6.36,6.56,11.92,7.87-7.82-15.52-5.47-29.59,4.39-43.33c2.95,5.42,5.71,10.83,9.64,15.46c3.91,4.6,8.13,8.78,14.03,11.36.95-5.97.33-11.14-3.87-15.48-6.29-6.51-7.3-14.1-4.39-22.42c1.88-5.38,4.91-10.04,8.93-14.11c1.59-1.61,3.67-2.83,4.49-5.12.82,0,1.65,0,2.47,0c1.41,1.46.99,3.33,1.12,5.07.75,9.62,3.43,18.09,13.2,22.42c1.75.78,3.13,2.19,4.99,3.63.86-1.92,1.38-3.85,1.87-5.72c2.37-9.06,8.23-16,13.84-23.1c1.07-1.36,2.35-2.51,4.07-.74c1.4,4,.52,8.13.69,12.2.39,9.55,4.38,17.54,10.5,25.49c2.69-9.18,8.47-14.96,15.83-19.71c5.31-3.43,8.14-9.11,10.3-14.98.62-1.67,1.09-3.4,2.57-4.57c1.67.01,3.31.01,4.96.01Z" fill="#2b2a25"/><path d="M1260.92,782.43c-1.6.66-1.69,2.34-2.28,3.6-6.35,13.48-12.54,27.02-18.93,40.48-1.05,2.22-.97,3.97.05,6.16c6.83,14.59,13.53,29.25,20.41,44.19-2.73.54-5.05-.28-7.41-.45-16.5-1.21-32.82-.38-48.89,3.95-3.25.88-3.83,2.19-2.95,5.32c2.69,9.61,4.81,19.38,7.66,28.94c2.19,7.35-.15,12.86-5.54,17.56-9.44,8.22-20.04,14.78-30.76,21.12-56.42,33.38-117.37,54.34-181.66,66.16-44.92,8.25-90.23,11.46-135.81,9.61-96.14-3.89-187.05-26.92-270.78-75.51-10.79-6.26-21.06-13.28-30.95-20.88-6.37-4.9-8.11-10.23-6.05-18.05c2.61-9.91,5.15-19.84,7.81-29.73.65-2.41.25-3.58-2.42-4.3-17-4.64-34.23-5.77-51.7-3.8-.82.09-1.63.19-2.45.26-.67.06-1.35.07-2.69.14c2.98-6.66,5.75-12.93,8.59-19.18c3.9-8.59,7.76-17.19,11.83-25.69c1-2.1.8-3.72-.13-5.71-6.57-13.98-13.04-28-19.55-42-.51-1.09-1.01-2.18-1.76-3.82c7.09,0,13.71-.13,20.32.02c27.56.64,55.02,2.26,81.73,9.87c10.85,3.09,21.33,7.12,29.36,15.58c4.74,4.99,6.65,10.66,4.96,17.67-2.79,11.56-5.03,23.26-7.66,34.86-.6,2.66-.22,3.98,2.48,5.3c52.07,25.47,106.6,43.2,163.88,52.24c48.14,7.6,96.51,9.21,144.99,4.14c67.97-7.11,132.74-25.56,194.15-55.69c3.59-1.76,4.41-3.57,3.49-7.39-2.79-11.56-5.17-23.23-7.71-34.85-1.2-5.51.42-10.31,3.84-14.56c5.79-7.2,13.73-11.16,22.12-14.33c14.82-5.61,30.32-8.31,45.98-10.1c21.4-2.45,42.89-3.2,64.42-2.78.01.55.01,1.1.01,1.65Z" fill="#2b2a25"/><path d="M877.57,176.14c95.31,0,190.61.02,285.92-.08c3.9,0,5.28.58,5.27,5-.14,139.61.08,279.21-.2,418.82-.16,78.78-27.53,146.99-82.5,203.55-44.86,46.16-99.54,74.36-163.12,84.04-74.64,11.36-144.35-3.28-207.24-45.27-66.86-44.64-108.57-106.88-124.58-185.94-3.66-18.05-5.06-36.32-5.05-54.74.06-140.02.05-280.04-.05-420.05c0-4.09.75-5.44,5.22-5.43c95.44.13,190.89.1,286.33.1Z" fill="#fff"/><path d="M734.83,144.38c15.91-3.04,29.89.8,44.47,6.9-5.35-13.87-12.51-25.43-25.06-33.89c11.27-2.68,21.43-.53,32.68,2.86-3.45-3.35-6.21-5.82-8.72-8.52-5.46-5.88-10.02-12.25-11.58-20.42-.99-5.16-4.48-8.96-8.68-12.99c5.39.45,9.08,1.98,11.91,6.09c6.24,9.03,15.85,11.61,26.08,12.47c3.67.31,7.38.05,11.7.05-4.29-5.47-9.86-9.44-12.53-15.7-2.63-6.16-4.2-12.31-1.87-19.36c2.73,2.93,5.11,5.68,7.7,8.22c5.2,5.08,11.36,8.49,18.44,10.26c1.76.44,2.6.11,3.45-1.63c4.9-10.11,3.45-21.44-3.99-29.81-4.83-5.43-5.13-10.36-.86-16.89c2.43,7.57,7.33,12.6,14.28,16.23c6.54,3.41,10.57,9.37,13.19,16.23.58,1.51,1.12,3.05,2.05,5.58c2.2-11.13,4.11-21.33,8.26-31.73c4.1,14.87,12.9,25.01,26.55,31.77c0-3.19-.22-6.03.04-8.83.73-7.88,3.76-14.57,10.81-18.82c4.54-2.73,8.09-6.4,11.17-11.43c1.68,8.17,1.44,15.69.18,23.23-1.27,7.57-5.03,14.07-9.22,21.07c15.09-3.88,27.38-10.76,36.08-24.32c2,10.6-.75,20.23-1.82,30.21c2.62-1.3,4.06-3.69,6.04-5.44c6.62-5.84,13.48-11.08,22.52-12.83c5.09-.99,8.91-4.61,12.98-8.52-.33,4.57-1.31,8.23-4.93,10.56-8.96,5.78-12.45,14.64-13.65,24.61-.51,4.26-.09,8.64-.09,13.97c9.79-10.38,20.26-17.49,34.77-14.48-.38,1.77-1.98,2.25-3.08,3.16-7.11,5.92-12.53,12.92-14.91,22.08-.65,2.49-.27,3.76,2.26,4.58c10.66,3.46,20.67,3.56,29.51-4.68c5.03-4.69,10.69-4,16.42-1.31-.13,1.53-1.53,1.42-2.43,1.81-5.47,2.34-9.68,5.87-12.49,11.29-3.89,7.51-10.66,11.47-18.53,13.86-1.75.53-3.79.4-5.57,1.98c10.82,2.12,21.28,4.24,32.09,8.7-7.99,2.48-15.6,4.77-19.9,10.74-5.43,7.53-12.47,6.31-19.66,6.34-7.11.02-7.11,0-8.15-6.84-5.73-37.76-32.01-66.04-69.58-73.21-51.53-9.84-96.65,26.36-102.26,72.99-.85,7.06-.92,7.16-8.06,7.03-6.15-.12-12.34.68-18.45-.6-7.95-1.65-14.62-5.19-18.87-12.51-2.38-4.18-6.31-6.97-10.69-10.11Z" fill="#fff"/><path d="M877.15,167.63c-24.4,0-48.8,0-73.19,0-5.13,0-5.13,0-4.5-5.27c3.82-32.15,28.96-59.58,60.62-66.14c44.17-9.15,85.45,18.73,93.67,63.27c1.5,8.14,1.5,8.14-6.69,8.14-23.31.01-46.61,0-69.91,0Z" fill="#fff"/><path d="M1181.58,843.64c6.43,24.88,12.78,49.46,19.16,74.04.99,3.8-.92,6.24-3.6,8.47-14.82,12.33-31.44,21.79-48.44,30.7-48.54,25.44-99.86,42.87-153.62,53.24-30.85,5.95-61.99,9.38-93.39,10.52-74.35,2.68-146.96-7.02-217.55-30.83C643,975.9,604.04,957.47,568,933.13c-3.51-2.37-6.85-5.02-10.15-7.68-2.37-1.91-3.59-4.28-2.73-7.58c6.18-23.54,12.31-47.09,18.32-70.66.76-2.97,1.32-3.29,3.99-1.45c26.48,18.29,55.37,32,85.03,44.13c50.21,20.53,102.44,33.26,156.35,38.83c79.81,8.25,157.93-.15,234.39-24.47c41.87-13.32,81.74-30.98,119.07-54.24c1.63-1.01,3.19-2.12,4.77-3.2c1.45-1.01,2.88-2.02,4.54-3.17Z" fill="#fff"/><path d="M509.52,867.1c5.27-11.42,10.3-22.59,15.62-33.63c1.39-2.88,1.35-5.11-.05-7.96-5.23-10.67-10.18-21.48-15.21-32.24-.56-1.2-1.02-2.46-1.65-4.01c9.38-.42,18.36.25,27.31.78c20.09,1.18,40.12,3.05,59.52,8.91c7.35,2.22,14.44,5.08,20.7,9.69c2.57,1.89,4.8,4.1,6.34,6.9c2.23,4.05,1.27,5.81-3.34,5.93-4.93.13-9.87.03-14.8.04-7.81.01-15.62-.06-23.43.04-6.38.08-9.83,2.87-11.47,9.03-3.53,13.34-7.09,26.68-10.51,40.05-.5,1.95-.98,2.9-3.21,2.19-14.11-4.48-28.65-5.71-43.37-5.51-.66,0-1.31-.11-2.45-.21Z" fill="#fff"/><path d="M1247.74,789.1c-5.03,10.82-9.26,21.23-14.62,31.01-3.68,6.72-3.59,12.23.02,18.88c4.86,8.96,8.66,18.5,13.15,28.33-9.3-.09-18.14.08-26.92,1.31-6.11.86-12.19,1.91-18,3.92-3,1.03-3.76.05-4.4-2.54-3.26-13.13-6.64-26.24-9.97-39.35-1.61-6.32-5.1-9.1-11.75-9.12-12.34-.05-24.68-.01-37.01-.06-1.83-.01-4.07.66-5.15-1.51-1.12-2.25,0-4.34,1.31-6.11c3.51-4.78,8.49-7.66,13.76-10.08c14.36-6.58,29.69-9.37,45.18-11.37c17.8-2.28,35.72-3.07,54.4-3.31Z" fill="#fff"/><path d="M1156.31,829.73c5.75,0,11.5-.09,17.24.05c1.7.04,4.08-.05,4.72,1.77.66,1.86-.74,3.7-2.16,5.01-1.49,1.38-3.11,2.69-4.84,3.74-8.87,5.38-17.81,10.63-26.68,16.01-2.3,1.4-3.54,1.87-4.16-1.66-1.28-7.25-2.91-14.46-4.75-21.59-.72-2.81.27-3.29,2.58-3.28c6.02.02,12.04.01,18.06.01-.01-.01-.01-.04-.01-.06Z" fill="#f6f6f5"/><path d="M614.76,858.16c-11.34-6.09-22.07-12.32-32.4-19.24-1.01-.67-1.86-1.61-2.69-2.52-1.33-1.46-2.52-3.26-1.83-5.16.8-2.21,3.11-1.17,4.72-1.18c11.92-.09,23.84.01,35.75-.11c2.09-.02,2.51.26,2.01,2.41-1.94,8.39-3.65,16.83-5.56,25.8Z" fill="#f6f6f6"/><path d="M877.81,251.83c70.2,0,140.4.03,210.6-.08c3.59-.01,4.76.69,4.76,4.59-.12,116.69.5,233.38-.36,350.06-.4,53.93-20.81,100.82-57.84,140.09-31.55,33.46-70.05,55.26-115.32,63.36-73.11,13.09-137.67-5.27-191.89-56.56-33.88-32.05-54.35-71.65-62.23-117.66-1.71-10-2.76-20.09-2.76-30.26-.02-116.28.01-232.55-.12-348.83c0-4.1,1.13-4.82,4.97-4.82c70.07.15,140.13.11,210.19.11Z" fill="#2b2a25"/><path d="M599.92,348.01c15.67-8.35,32.09-13.8,47.02-23.38-2.71-1.89-5.23-2.23-7.73-2.25-9.59-.08-19.18-.06-28.78-.01-1.35.01-2.73.25-4.06.55-4.93,1.11-5,1.13-4.88-4.17.09-3.82.08-7.66.91-11.44c2.68-12.16,11.96-19.64,23.65-18.99c12.37.68,20.7,8.58,21.63,21.46.61,8.45.15,16.98.29,25.48.03,1.83-.77,2-2.2,1.89-3.92-.3-6.95,2.21-10.41,3.35-1.4.46-1.42,1.46-1.41,2.58.01,1.64-.1,3.3.02,4.93.2,2.81-1.31,6.41.75,8.25c2.76,2.46,6.53,4.16,10.42,4.35c2.39.11,2.97.82,2.83,3.06-.19,2.97-.05,5.97-.05,9.64-7.61-5.66-15.75-9.13-23.65-13.06-7.9-3.97-15.82-7.96-24.35-12.24Z" fill="#2b2a25"/><path d="M1159.36,550.7c-15.53,8.32-32.17,13.7-47.22,23.7c0-4.06.01-7.69-.01-11.31-.01-1.44.66-1.88,2.05-1.76c3.92.34,6.96-2.14,10.41-3.32c1.41-.48,1.39-1.47,1.39-2.58-.01-1.65.09-3.3-.02-4.93-.18-2.69,1.27-6.25-.6-7.9-2.77-2.44-6.54-4.18-10.44-4.34-2.49-.11-2.88-.98-2.84-3.15.12-6.3.04-12.59.04-18.71c15.24,2.69,30.3,2.52,45.58.21c0,3.53,0,7.4,0,11.19-14-2.79-27.99-1.79-42.13-.36c13.87,9.13,29.23,15.17,43.79,23.26Z" fill="#2c2b25"/><path d="M1030.56,240.86c-4.02,0-7.69,0-11.45,0c3.29-12.39,1.62-24.89,1.88-37.28.08-3.72-4.05-5.31-5.45-8.75c3.71-.72,7.37-.18,10.98-.34c1.1-.05,1.59.47,2.11,1.47c5.63,10.98,14.08,20.02,21.09,30.21-.03-9.83,1.7-19.61-1.07-29.2-.59-2.04-.31-2.79,1.85-2.49.27.04.55-.01.82.01c2.57.12,5.92-.69,7.5.62c1.51,1.26-.87,4.41-.91,6.8-.19,11.9-.83,23.82.38,35.7.27,2.64.03,3.44-2.86,3.49-4.18.07-6.83-.31-9.38-4.86-4.7-8.39-11.06-15.85-17.18-23.6-.02,9.36-1.48,18.7,1.69,28.22Z" fill="#2b2b25"/><path d="M791.82,194.83c3.72-.7,7.4-.2,11.06-.33c1.17-.04,1.5.68,1.99,1.62c5.69,10.92,14.1,19.93,21.08,30.09-.13-9.91,1.72-19.75-1.16-29.37-.55-1.84-.24-2.47,1.71-2.37c2.73.13,6.13-.91,8.05.36c2.61,1.72-.57,4.71-.55,7.27.09,12.04-.79,24.1.54,36.11.23,2.04.12,3.14-2.3,2.81-1.08-.15-2.2-.14-3.28,0-3,.39-4.25-.85-5.95-3.58-5.3-8.53-11.47-16.52-17.77-24.54-.34,9.34-1.61,18.56,1.47,27.84-3.89,0-7.62,0-11.36,0c3.07-12.31,1.04-24.81,1.66-37.2.1-2.07-1.31-3.19-2.34-4.6-.93-1.29-2.41-2.21-2.85-4.11Z" fill="#2b2a25"/><path d="M1157.93,470.34c-13-2.96-25.84-1.75-38.65-1.42-.41.01-.83.03-1.22.12-1.84.42-4.55,1.82-5.33,1.11-1.53-1.4-.43-4.07-.57-6.2-.11-1.77-.02-3.55-.02-5.15c14.65,2.79,29.16,2.15,43.91.7-.26-.82-.27-1.12-.39-1.17-2.1-.95-4.98-1.35-6.08-2.96-.74-1.09,1.13-3.85,1.6-5.91c1.17-5.1.94-5.35-4.12-5.35-6.03,0-12.06-.02-18.08,0-5.58.02-11.21-.51-16.72,2.23c0-4.5,0-8.32,0-12.36c11.95,3.33,24.05,1.28,36.01,1.94c2.77.15,3.6-.73,3.25-3.44-.44-3.49-1.37-6.85-2.75-10.74c2.87.73,5.18,1.4,7.54,1.88c1.46.3,1.62,1.2,1.62,2.38c0,14.77,0,29.53,0,44.34Z" fill="#2c2b25"/><path d="M882.89,194.1c13.25-.01,23.3,10.18,23.23,23.56-.08,13.46-10.33,23.76-23.65,23.78-13.47.02-23.57-10.03-23.74-23.62-.17-13.26,10.47-23.71,24.16-23.72Z" fill="#2b2a25"/><path d="M790.42,217.35c.04,13.97-9.86,24.08-23.56,24.06-13.66-.02-23.44-9.9-23.47-23.71-.03-13.57,10.18-23.57,24.09-23.6c13.14-.02,22.9,9.86,22.94,23.25Z" fill="#2b2a25"/><path d="M947.4,240.87c2.13-14.85,2.66-29.4.03-43.95-.31-1.73-.31-2.46,1.7-2.44c5.07.06,10.14-.09,15.12,1.1c12.24,2.92,19.5,12.52,18.49,24.44-1.01,11.9-9.38,19.94-21.99,20.8-4.5.31-9.04.05-13.35.05Z" fill="#2c2b25"/><path d="M1157.81,353.04c0,4.07,0,7.87,0,12.04-9.65-3.02-19.48-1.65-29.22-1.82-6.95-.12-10.07,2.82-10.14,8.9-.07,6.24,3.22,9.86,9.96,9.83c9.8-.04,19.7,1.28,29.45-1.79c0,4.04,0,7.86,0,11.45-15.22-1.97-30.37-2.17-45.92.16c1.63-2.99-2.99-8.29,4.06-9.44-3.28-5.48-5.43-11.11-3.26-17.54c2.07-6.14,5.8-9.24,12.3-9.57c5.33-.27,10.67-.29,16.01-.28c5.6.03,11.2.14,16.76-1.94Z" fill="#2c2b26"/><path d="M647.98,498.76c-15.01-1.86-29.79-2.67-44.55.19-1.54.3-2,.14-1.98-1.35.05-5.05-.35-10.17.89-15.11c2.43-9.74,12.25-12.72,19.53-5.94c1.34,1.25,1.88,1.43,3-.11c3.27-4.49,7.63-6.55,13.2-5.12c5.45,1.41,7.79,5.61,9.09,10.62c1.47,5.66.49,11.42.82,16.82Z" fill="#2c2b26"/><path d="M945.7,240.51c-6.85,1.99-11.45-.62-15.14-5.78-2.84-3.97-5.94-7.74-9.41-12.22-.4,6.62-.42,12.49,1.95,18.36-4.44,0-8.4,0-11.97,0c2.18-14.74,2.77-29.4.03-44.08-.27-1.46-.54-2.33,1.41-2.3c5.61.09,11.26-.32,16.72,1.34c4.94,1.5,8.39,4.46,9.18,9.9.84,5.75-.92,10.32-6.19,13.06-1.97,1.02-2.1,1.74-.9,3.56c4.23,6.41,9.03,12.34,14.32,18.16Z" fill="#2b2a25"/><path d="M647.83,422.46c0,4.36,0,8.18,0,12.09-13.39-2.73-26.86-2.09-40.28-1.01-6.18.5-6.18.93-6.06-5.62.08-4.38.17-8.75,1.79-12.94c1.85-4.8,5.19-7.5,10.38-8.03c5.17-.52,9.39,1.21,11.76,5.74c1.53,2.93,2.65,2.38,4.76.96c6.1-4.11,11.74-8.79,17.32-13.79c1.65,6.37-.07,11.07-5.31,14.7-4.21,2.92-8.11,6.29-12.69,9.88c6.45.38,12.22.39,18.33-1.98Z" fill="#2c2a25"/><path d="M737.61,204.83c-10.7-5.59-19.61-5.03-24.82,1.31-4.95,6.01-5.13,17.2-.37,23.05c5.48,6.75,12.72,6.76,26.38.02.11.21.31.41.31.62-.01,8.8-.08,8.88-8.84,10.82-14.9,3.29-28.03-4.34-30.31-17.61-2.59-15,7.71-28.03,22.95-28.89c3.13-.18,6.33-.1,9.43.33c6.07.84,6.05.98,5.51,7.18-.1.95-.15,1.9-.24,3.17Z" fill="#2b2a25"/><path d="M621.62,441.75c1.44.86,2.29,1.51,3.25,1.92c3.55,1.54,4.95,3.55,3.38,7.73-1.72,4.59-1.28,4.75,3.44,4.75c1.64,0,3.29-.01,4.93-.01c6.23,0,6.24,0,5.49-6.33-.48-4.05-1.85-7.88-3.15-11.74.41-.08.53-.15.61-.12c8.39,3.31,8.39,3.31,8.39,12.43c0,5.07-.01,10.13-.04,15.2c0,.23-.2.46-.31.69-11.44-2.61-35.76-2.59-45.83.12c0-8.6,0-17.12,0-25.9c2.64.25,4.76,2.08,7.2,3.08c1.59.65.8,1.58.41,2.62-3.67,9.86-3.6,9.95,6.87,9.95c5.37,0,5.37,0,5.37-5.41-.01-2.73-.01-5.47-.01-8.98Z" fill="#2c2b26"/><path d="M1147.79,510.8c5.62-10.91,4.94-19.39-1.72-24.62-5.87-4.6-16.76-4.57-22.3.06-6.63,5.54-6.56,13.49.36,25.89-2.49,0-4.86-.04-7.21.02-1.15.03-1.8-.48-2.18-1.47-3.68-9.65-4.94-21.98,3.41-30.47c6.89-7.01,15.33-8.24,24.27-5.36c9.42,3.04,14.18,10.29,15.63,19.81.39,2.55.58,5.13.26,7.77-1.3,10.73-.13,8.54-10.52,8.37Z" fill="#2b2b25"/><path d="M1012.05,214.67c-.76,1.32-1.23,1.97-1.53,2.69-1.68,3.98-4.06,5.9-8.57,3.71-2.93-1.42-4.88-.81-4.37,3.16.28,2.16.32,4.42-.01,6.56-.67,4.3,1.26,4.97,5,4.52c4.46-.54,8.7-1.84,13.67-3.44-1.36,3.03-2.51,5.44-3.52,7.9-.47,1.14-1.26,1.23-2.27,1.23-7.64-.01-15.27-.01-22.53-.01c1.91-14.94,2.71-29.59-.07-44.25-.3-1.58-.09-2.28,1.66-2.27c7.39.05,14.78.03,22.18.04.4,0,1.11-.01,1.17.17.94,2.73-1.66,4.32-2.22,6.6-.26,1.04-.6,2.13-2.55,1.44-10.43-3.68-10.27-3.59-10.57,7.15-.11,3.88.74,5.4,4.82,4.87c2.95-.38,5.99-.07,9.71-.07Z" fill="#2c2b26"/><path d="M986.15,820.83c-.73,1.68-.14,2.67,1.99,3.52c5.78,2.32,8.54,9.05,6.47,14.94-2.22,6.31-9.78,10.42-16.16,8.78-5.71-1.47-9.76-7.96-8.52-14.06.39-1.91.68-2.97-1.56-4.1-4.93-2.48-6.72-8.12-4.75-13.32c2.09-5.49,8.58-9.01,14.27-7.73c5.09,1.14,8.59,6.07,8.26,11.97Z" fill="#2c2b25"/><path d="M957.99,832.58c-1.76,2.9-.01,4.53,2.87,6.63c4.74,3.46,5.26,11.04,1.87,15.95-3.54,5.13-11.3,7.33-16.79,4.76-5.41-2.53-8.09-8.9-6.02-14.86.66-1.89.72-2.9-1.18-4.21-4.47-3.1-5.5-8.44-3.05-13.45c2.46-5.03,8.52-7.76,14.18-6.37c4.84,1.17,8.22,5.72,8.12,11.55Z" fill="#2c2b25"/><path d="M1147.09,418.98c1.9-2.22,3.6-3.83,4.05-6.26.56-3-.1-5.59-2.92-6.98-2.64-1.29-5.19-.57-6.93,1.81-1.93,2.64-3.57,5.5-5.4,8.22-3.78,5.63-7.9,7.52-13.91,6.18-5.61-1.25-8.43-5.19-9.6-10.56-.03-.13-.08-.26-.11-.4-2.34-11.38.31-13.94,13.06-12.11-1.88,1.66-4.05,2.57-5.24,4.59-1.93,3.29-1.69,7.09.74,8.98c2.36,1.83,5.58,1.07,8.11-2.24c1.9-2.49,3.35-5.32,5.21-7.85c4.56-6.19,11.87-7.47,18.07-3.29c5.69,3.84,8.12,13.57,4.87,19.19-.71,1.22-1.71,1.21-2.8,1.16-2.16-.11-4.32-.27-7.2-.44Z" fill="#2c2b25"/><path d="M1157.94,318.18c-5.96-3.53-11.75-6.38-16.88-10.14-7.87-5.77-16.41-5.39-25.03-3.44-3.63.82-4.22.06-3.93-3.16.22-2.44-.8-5.74.44-7.16c1.45-1.67,4.38.74,6.75.85c7.35.35,14.56,1.01,21.12-3.98c5.37-4.09,11.78-6.73,16.98-11.21.27.45.5.65.51.86.22,6.2,1.69,12.81-7.77,14.04-2.99.39-5.68,3.06-9.01,4.98c5.61,2.27,9.56,6.83,15.62,6.77c1.56-.02,1.17,1.22,1.18,2.07.05,3.01.02,6.03.02,9.52Z" fill="#2c2b25"/><path d="M647.8,379.11c0,4.1,0,8.03,0,11.96-12.68-3.35-25.47-1.22-38.14-1.81-1.83-.09-1.86.88-1.71,2.35.4,3.95,1.09,7.82,2.76,11.45-.39.14-.65.34-.85.29-8.43-1.75-8.41-1.76-8.39-10.2.02-7.81.16-15.62-.07-23.43-.11-3.72,1.04-4.33,4.1-2.65.71.39,1.52.63,2.3.85c2.34.65,2.66,1.63,1.66,4.06-3.4,8.31-2.81,9.17,5.96,9c9.29-.19,18.63.89,27.87-.86c1.47-.28,2.91-.65,4.51-1.01Z" fill="#2c2a25"/><path d="M1149.98,329.92c.55,0,.93-.07,1.29.01c6.68,1.55,6.68,1.55,6.68,8.39c0,3.55,0,7.11,0,10.93-13.41-3.32-26.92-.81-40.3-1.92-11.67-.97-15.5-5.53-13.96-16.99.07-.54.13-1.09.19-1.64.26.07.65.06.71.2c3.45,8.34,10.15,10.69,18.54,10.46c7.93-.22,15.87-.22,23.8.05c3.41.11,4.41-1,3.78-4.17-.34-1.71-.48-3.45-.73-5.32Z" fill="#2c2b26"/><path d="M788.22,857.56c5.56-3.42,10.17-7.17,14.44-11.42-9.3-4.74-11.72-10.91-7.31-18.34c3.78-6.35,12.54-8.2,19.12-4.02c5.9,3.75,7.09,11.44,2.71,17.68-2.87,4.08-6.69,7.22-10.38,10.49-1.84,1.63-4.34,3.1-5.16,5.19-1.85,4.7-4.64,3.6-7.89,2.26-1.59-.64-3.26-1.09-5.53-1.84Z" fill="#2c2b26"/><path d="M1024.22,814.13c5.01,6.82,5,6.81-1.47,11.25-5.95,4.08-11.89,8.18-18.47,12.7.45-7.23.78-13.81,1.31-20.37.31-3.86.02-7.67-.58-11.45-.39-2.43-.96-5.08-3.9-5.66-2.21-.44-4.02.74-5.14,2.64-1.56,2.62-.19,4.7,1.51,6.64.53.6,1.12,1.15,2.15,2.2-3.39.1-6.49,2.11-8.8-.44-2.54-2.79-2.7-6.46-1.42-10.07c1.74-4.9,8.01-8.87,12.96-8.22c5.5.73,8.53,4.37,9.26,10.8.78,6.9-.01,13.82.04,21.29c4.97-3.31,9.17-6.66,12.55-11.31Z" fill="#2c2b26"/><path d="M851.47,831.66c-6.07,3.9-10.26,8.18-14.68,12.87c5.46,1.08,9.08,4.07,10.14,9.32.91,4.54-.24,8.67-3.75,11.96-4.84,4.55-12.59,4.97-17.67.92-5.14-4.1-6.3-11.02-2.7-16.97c2.29-3.78,5.76-6.56,8.74-9.75c2.69-2.88,6.01-5.23,7.64-9.01.41-.95.88-1.45,2.16-1.15c3.04.68,6.12,1.11,10.12,1.81Z" fill="#2b2b25"/><path d="M794.49,817.18c-1.68,1.82-2.89,3.91-4.7,4.9-2.45,1.34-3.34-1.86-5.05-2.82-7.06-3.92-8.61-3.35-10.75,4.47-.68,2.47,1.35,2.34,2.43,2.99c8.24,4.88,8.79,14.78,1.05,20.25-3.11,2.2-6.61,2.6-10.2,1.8-1.84-.41-3.66-1.15-5.34-2.03-2.94-1.54-6.61-3.5-6.62-6.7-.01-2.64,4-3.89,6.33-5.88c1.29,5.79,4.47,9.34,8.18,8.95c3.39-.36,5.39-2.55,5.9-5.9.65-4.26-2.37-6.83-10.79-9.31c2.25-6.58,6.36-12.39,8.05-19.18.41-1.65,1.44-.87,2.19-.52c6.42,2.95,12.83,5.95,19.32,8.98Z" fill="#2c2b26"/><path d="M637.68,517.98c10.27,3.68,10.27,3.68,10.27,13.36c0,4.52-.01,9.04-.03,13.56c0,.26-.13.53-.11.46-14.86-2.09-29.65-2.81-44.45.13-1.14.23-1.9.26-1.89-1.17c0-.14-.01-.27-.01-.41.01-3.01-1.02-6.65.3-8.89c1.66-2.81,4.86.5,7.5.48c10.27-.1,20.55-.05,30.82.1c2.53.04,2.19-1.34,1.93-2.86-.82-4.82-1.77-9.62-4.33-14.76Z" fill="#2b2a25"/><path d="M601.45,517.49c0-3.83.06-7.1-.02-10.37-.05-2.07.72-1.93,2.49-1.64c13.84,2.28,27.73,2.34,41.56-.03c2.23-.38,2.56-.01,2.49,1.96-.1,3.14-.03,6.29-.03,9.92-7.67-2.83-15.42-2.23-23.11-2.19-7.62.07-15.33-.76-23.38,2.35Z" fill="#2c2b26"/><path d="M745.53,800.4c4.93-.6,9.85-1.2,15.59-1.89-5.43,8.54-10.38,16.34-15.34,24.13-1.98,3.11-4.08,6.17-4.87,9.85-.46,2.14-1.39,1.89-2.81.91-2.22-1.54-4.51-2.97-6.92-4.54c7.57-6.37,11.24-15.45,16.86-23.12c2.57-3.54-2.15-3.12-2.51-5.34Z" fill="#2c2b26"/><path d="M907.77,839.4c3.28-3.98,6.45-7.83,9.91-12.03c3.85,13.56,4.15,27.44,9.5,40.16-.09.08-.25.33-.45.37-2.94.59-6.53,2.43-8.67,1.36-2.38-1.19-.28-5.28-.91-8.11-1.44-6.52-2.62-13.1-3.68-19.69-.66-4.13-3.58-1.22-5.7-2.06Z" fill="#2c2b26"/><path d="M884.58,854.82c.17.34.39.57.41.82.57,6.27.57,6.23-5.54,6.24-3,.01-6.03.52-8.99.27-3.6-.31-1.32-3.32-1.8-5.05-.42-1.54.06-2.5,2.17-2.07c4.57.94,9.2.71,13.75-.21Z" fill="#2f2e29"/><path d="M827.43,990.48c4.58-4.46,6.87-10.42,10.23-15.68c2.61-4.08,4.98-8.31,7.75-12.95c4.94,10.85,7.49,21.94,13.65,31.59c1.91-9.62,2.46-19.16,1.09-29c3.77-.47,7.68-.22,11.51.76c3.4.87,5.95,2.93,6.58,6.57.6,3.47-.21,6.7-3.44,8.56-2.1,1.21-1.64,2.18-.61,3.76c2.17,3.33,4.53,6.49,7.63,10.03c4.05-8.19,7.92-16.01,11.93-24.14-4.88-.67-8.59.85-12.93,3.73c1.02-2.94,1.82-5,2.44-7.11.32-1.1.89-1.62,2-1.63c5.71-.04,11.43-.69,17.67-.07-4.13,8.59-8.12,16.88-12.25,25.46c5.06.05,9.5-.71,14.36-3.8-.99,2.56-1.61,4.14-2.22,5.73.21,2.06-.63,2.89-2.79,2.87-3.65-.04-7.32-.29-10.96.15-.26.07-.53.16-.8.2-9.6,1.57-16.91-1.32-20.9-12.21-1.39,4.17-.94,6.96-.18,9.58.64,2.19-.18,2.31-1.89,2.2-2.45-.15-4.92-.14-7.37-.25-2.32-.11-4.81.2-6.9-.57-2.46-.9-.76-3.87-1.75-5.77-.94-1.79-1.12-4.1-3.99-3.6-2.88.5-6.72-2.12-8.32,2.56-.18.51-.37,1.09-.74,1.45-1.2,1.15.16,3.74-1.85,4.06-2.11.33-4.37-.01-6.52-.3-2.28-.32-.49-1.47-.31-2.27l-.12.09Z" fill="#2b2b26"/><path d="M638.78,922.29c-2.25,5.44-5.03,9.54-5.77,14.48-.28,1.89-.73,2.73-2.79,1.65-3.75-1.96-7.59-3.74-11.41-5.58-1.36-.66-1.94-1.16-1.23-3.04c2.32-6.17.18-9.75-6.38-11.1-2.54-.52-4.22,1.63-5.22,3.19-1.95,3.02-3.74,2.57-6.11.95-1.09-.75-2.31-1.33-3.83-2.19c10.55-5.93,19.4-13.62,29.63-20.28.27,11.69-1.9,22.91-.69,34.31c2.36-.69,3.08-2.62,3.87-4.23c2.48-5.02,4.59-10.22,7.13-15.2c1.38-2.71-.66-5.01-.37-8.09c2.49,1.1,4.68,2.03,6.83,3.04.72.34,1.18.77,1.2,1.84.08,7.45,2.69,14.48,3.69,23.05c3.24-6.81,6.56-12.33,7.5-19.15c2.48,1.15,4.89,2.27,7.35,3.41-5.71,7.52-8.51,16.15-12.31,24.28-.46.99.29,3.66-1.81,2.69-2-.92-5.44-.28-5.59-4.17-.28-6.45-2.17-12.61-3.69-19.86Z" fill="#2c2b26"/><path d="M1010.9,970.61c.24,3.73,1.71,6.77,3.57,10.06-5.35,1.65-10.61,2.86-15.98,3.73-1.38.22-1.37-.55-1.75-1.54-2.56-6.7-5.5-7.94-11.82-5.03-2.4,1.11-2.56,3.78-2.3,5.66.55,3.97-1.57,4.55-4.55,4.72-1.34.07-2.59.98-4.02.49c4.64-10.98,6.72-22.73,10.59-34.16c7.33,8.87,12.64,18.99,21,26.86-.33-9.79-2.69-19.02-6.34-28.3c3.61-1.18,7.37-2.1,11.31-2.1c3.54,0,6.45,1.22,8.05,4.6c1.63,3.42,1.48,6.73-1.39,9.4-1.54,1.43-.82,2.1.27,3.13c3.48,3.28,7.32,6.11,11.46,8.9-8.52,4.59-12.35-3.24-18.1-6.42Z" fill="#2b2b26"/><path d="M1069.59,931.03c8.95,7.35,15.67,16.46,25,23.1.6-2.14.1-3.53-.46-4.93-1.2-2.99,1.22-6.11,4.53-5.97c1.26.05,1.11,1.04,1.28,1.69c1.13,4.5.61,8.99-.38,13.42-.45,1.98-2.53,1.68-4.01,2.69-.12-1.99-.21-3.59-.31-5.25-.6.09-1.06.05-1.4.23-4.01,2.24-7.43,2.81-9.77-2.41-1.1-2.45-3.34-2.82-5.84-1.48-2.57,1.38-6.89,1.33-5.67,5.88c1.6,5.97-2.18,7.22-6.48,8.36-2.88.76-5.73,1.61-8.44,2.38-1.72-9.69-4.49-18.75-8.97-27.29-1.85-3.53.39-6.92,1.08-10.26.47-2.28,3.39-1.53,5.63-2.05-1.1,2.84-2.19,5.67-3.48,9.01c3.53-1.42,3.88.11,4.54,3.07c1.79,8.04,4.1,16.01,8.55,23.26c2.8-10.83,2.86-21.92,4.6-33.45Z" fill="#2c2b26"/><path d="M1116.26,925.87c3.18,6.1,5.01,11.46,9.45,15.78-2.65,1.32-5.01,2.5-7.47,3.73-1.65-8.44-6.41-15.12-9.76-22.4-1.04-2.26-4.02-2.11-5.97-3.6c1.88-1.87,4.46-2.49,6.66-3.75.74-.42,1.24-.41,2.09.23c5.91,4.43,12.84,7.01,19.49,10.44-2.73-5.74-4.63-11.84-9.43-16.74c2.53-1.27,4.79-2.4,7.14-3.58c2.81,9.38,7.4,17.69,12.3,25.82.89,1.48.81,2.06-.65,2.7-2.58,1.13-4.46,2.75-7.8.06-4.34-3.5-9.91-5.48-16.05-8.69Z" fill="#2b2b26"/><path d="M772.28,953.44c9.05.03,15.44,6.29,15.4,15.08-.04,9.23-6.74,16.01-15.7,15.89-8.82-.12-15.45-6.69-15.43-15.27.03-9.33,6.44-15.73,15.73-15.7Z" fill="#2c2b26"/><path d="M732.83,955.41c.05,10.08-8.04,16.85-17.92,14.92-2.93-.57-6.67-.62-8.47-2.46-2.21-2.25,1.74-4.62,2.27-7.28c1.35-6.79,4.6-13.12,4.93-20.17.05-1,0-1.75,1.5-1.73c6.26.07,14.77,6.04,16.93,11.91.58,1.59.74,3.17.76,4.81Z" fill="#2c2b26"/><path d="M968.69,966.05c-3.7-1.21-7.04-2.1-10.71-1.11-3.87,1.04-6.32,3.36-7,7.16-.79,4.41.23,8.48,3.94,11.41c3.2,2.53,6.83,2.38,10.53,1.25c1.41-.43,1.31-1.4,1.21-2.59-.24-2.94-.87-5.67-3.49-7.72c3.08-1.48,6.19-.9,9.44-1.86-.96,4.41-.43,8.54.84,12.51.59,1.86-.08,2.41-1.53,3.02-4.21,1.77-8.53,2.86-13.14,2.63-7.66-.39-12.7-4.8-14.07-12.37-1.31-7.28,2.29-14.4,8.83-17.19c2.91-1.24,5.99-1.82,9.18-1.85c6.23-.08,6.27-.06,5.97,6.71Z" fill="#2c2b26"/><path d="M827.52,990.39c-4.65,1.7-9.47,1.64-14.17.69-9.24-1.86-13.75-8.48-12.41-17.61c1.22-8.3,8.74-13.95,17.51-13.13c1.36.13,2.71.4,4.05.64c6.13,1.13,6.4,1.57,4.77,8.17-2.73-1.46-5.26-3.19-8.37-3.67-4.04-.62-7.46.27-9.69,3.73-2.53,3.94-2.88,8.24-.51,12.43c1.83,3.24,6.62,5.28,10.27,4.83c1.36-.17,1.78-.76,2.03-2.01.59-3.01.78-5.93-1.47-8.89c2.19.15,3.81.21,5.43.39c1.35.15,2.68.44,4.15.69-1.7,4.59-3.16,9.06-1.68,13.85c0-.02.09-.11.09-.11Z" fill="#2c2b26"/><path d="M738.54,945.59c4.06.83,7.95,1.55,11.47,3.48c2.97,1.63,4.85,4.06,4.75,7.57-.1,3.57-1.61,6.45-5.13,7.65-2.18.74-2.16,1.67-1.45,3.57c1.61,4.33,3.77,8.39,5.88,12.7-9.49.15-9.32-8.38-12.97-13.69-1.92,3.06-1.62,6.44-1.69,9.89-.44.06-.81.22-1.12.14-2.24-.55-5.28-.48-6.49-1.92-1.2-1.44,1.54-3.61,2.01-5.7c1.76-7.82,4.68-15.4,4.74-23.69Z" fill="#2c2b26"/><path d="M889.06,995.32c3.17-1.28,6.47-.5,9.7-.52c2.07-.01,3.36-.58,4.04-2.5c2.16.64,2.03-1.47,2.44-2.37c3.49-7.71,6.79-15.51,10.15-23.28.54-1.25,1.12-2.47,1.84-4.07c6.3,10.22,10.5,21.22,17.93,31.05-2.65.14-4.89.19-7.11.41-1.71.17-2.16-.41-2.55-2.16-1.41-6.3-5-8.3-11.05-6-2.65,1.01-3.07,4.06-3.2,6.56-.12,2.24-.9,2.75-2.94,2.73-6.41-.05-12.83.08-19.25.15Z" fill="#2c2b26"/><path d="M1051.63,962c1.3,3.66,2.59,6.71-2.08,9.02-6.43,3.19-12.7,4.76-18.96.36-5.14-3.61-7.19-8.99-6.25-15.13c1.18-7.7,6.33-12.04,13.6-13.59c8.38-1.78,7.26-1.93,8.68,5.31-9.02-1.08-13.37.54-15.36,5.73-1.69,4.41.35,10.96,4.23,13.6c4.26,2.9,9.35,1.26,16.14-5.3Z" fill="#2c2b27"/><path d="M675.38,924.75c3.73,1.18,7.36,2.37,10.65,4.32c4.31,2.54,5.7,7.05,3.79,11.67-1.8,4.36-5.98,6.74-10.68,5.12-3.5-1.21-4.47.04-5.24,2.96-.62,2.37-1.22,4.72-1.29,7.13-.35.04-.5.1-.61.06-2.3-.83-5.42-1.03-6.67-2.67-1.45-1.89,1.87-3.54,2.57-5.62c2.53-7.6,6.42-14.75,7.48-22.97Z" fill="#2c2b26"/><path d="M685.35,961.08c5.08-9.16,7.89-18.76,9.99-28.94c5.22,1.73,10.59,3.51,15.88,5.26.24,1.42-.9,1.77-1.39,2.53-1.59,2.5-3.18,3.36-5.49.62-.77-.91-2.61-2.27-3.48-1.48-1.8,1.65-2.21,4.32-2.67,6.67-.33,1.67,1.72,1.39,2.71,1.85c1.71.81,3.57,1.31,5.66,2.05-2.55,2.49-4.48,5.77-8.32,2.14-1.29-1.21-2.1-.6-2.57.99-2.18,7.35-3.85,6.74,4.86,8.04c1.47.22,3,.03,4.57.03-2.76,5.35-3.63,5.72-8.99,3.91-3.59-1.21-7.18-2.44-10.76-3.67Z" fill="#2c2b26"/><path d="M606.34,899.95c-.1-.24-.23-.47-.3-.72-.75-2.89-2.31-5.69-5.53-4.53-3.62,1.3-2.08,4.4-.88,6.93.29.62.69,1.18,1,1.79c2.88,5.61,2.12,10.37-2.08,13.06-3.92,2.51-11.12.66-14.44-3.5-.96-1.2-.52-1.94.06-2.86c1.23-1.96,2.49-3.89,4.11-6.43.26,2.92-.26,5.37,1.63,7.1c1.24,1.14,2.6,2.18,4.37,1.1c1.55-.95,1.66-2.52,1.13-4-.64-1.79-1.55-3.49-2.36-5.21-2.47-5.26-1.25-9.95,3.25-12.45c4.4-2.44,10.38-1.12,13.14,3.2c2.01,3.16-2.14,4.12-3.1,6.52Z" fill="#2c2b27"/><path d="M1147.94,894.43c2.53,8.14,7.64,14.32,11.48,21.2.93,1.67,1.65,1.75,3.03.51c2.22-2,4.59-3.84,6.59-5.5c2.08,4.95,1.82,5.9-3.2,8.95-2.91,1.77-5.82,3.53-9.13,5.53-1.97-6.9-6.29-12.35-9.73-18.28-.55-.94-1.25-1.8-1.75-2.77-1.03-2.03-4.57-3.56-3.81-5.12.97-1.99,4.06-2.94,6.52-4.52Z" fill="#2c2c26"/><path d="M1178.67,909.19c-.09,2.7-1.65,3.89-3.94,4.02-2.52.14-3.83-1.48-3.88-3.82-.05-2.41,1.42-3.91,3.83-3.89c2.37,0,3.71,1.46,3.99,3.69Z" fill="#31302c"/><path d="M1147.62,921.98c2.34.19,3.89,1.28,3.96,3.77.08,2.46-1.23,3.89-3.67,3.97-2.43.09-3.82-1.19-3.94-3.68-.12-2.54,1.36-3.68,3.65-4.06Z" fill="#2d2d28"/><path d="M1084.71,394.02c0,43.19-.05,86.37.08,129.56.01,3.57-.75,4.56-4.47,4.55-64.43-.13-128.87-.12-193.3-.02-3.56.01-4.82-.62-4.81-4.58.13-86.24.12-172.47.02-258.71c0-3.48.65-4.56,4.4-4.55c64.57.14,129.14.13,193.71.01c3.74-.01,4.45,1.09,4.44,4.6-.12,43.04-.07,86.09-.07,129.14Z" fill="#f6f6f6"/><path d="M873.78,670.91c0,43.46-.04,86.93.08,130.39.01,3.41-.77,4.34-4.24,4.23-94.45-3.04-176.49-72.76-194.62-165.44-2.59-13.22-3.88-26.54-3.88-40c0-20.02.05-40.04-.06-60.05-.02-2.77.55-3.71,3.55-3.71c65.26.09,130.52.11,195.78-.04c3.81-.01,3.41,1.87,3.4,4.23-.01,43.46-.01,86.92-.01,130.39Z" fill="#fff"/><path d="M882.31,670.97c0-43.46.04-86.92-.08-130.38-.01-3.37.72-4.28,4.2-4.27c64.71.12,129.41.12,194.12.01c3.42-.01,4.27.84,4.25,4.26-.17,21.8.44,43.61-.19,65.39-1.36,46.72-16.84,88.46-46.85,124.33-34.77,41.58-79.47,65.71-133.07,73.33-6.09.87-12.28.97-18.4,1.7-3.34.39-4.05-.79-4.05-3.98.1-43.47.07-86.93.07-130.39Z" transform="translate(-.732981 0.130738)" fill="#fff"/><path d="M671.12,440.5c0-1.26,0-2.59,0-3.93c0-30.58.03-61.15-.05-91.73-.01-2.52.56-4.31,2.6-5.97c8.2-6.64,16.22-13.48,24.37-20.18c5.2-4.27,11.21-6.89,17.87-7.67c12.04-1.41,21.2,3.99,26.81,15.41.66,1.34.72,3.14,3.27,2.81c2.52-.33,2.08-1.96,2.41-3.48c1.44-6.68,5.21-11.31,11.89-13.38c8.35-2.59,15.96-1.48,22.59,4.45c5.38,4.81,8.4,11.07,10.54,17.81.47,1.49.59,2.81,2.73,2.83c1.93.02,2.59-.93,3.2-2.44c2.71-6.69,6.69-12.51,11.97-17.46c11.2-10.49,29.38-10.45,39.35.12c2.48,2.63,4.45,5.64,5.37,9.11.71,2.68,2.26,3.93,4.68,5.03c4.33,1.96,10.32,2.66,12.43,6.45c1.99,3.59.63,9.07.64,13.72.02,28.38-.04,56.77.07,85.15.01,3.09-.42,3.95-3.73,3.01-12.4-3.52-24.38-1.4-36.12,3.23-11.07,4.36-22.33,6.43-34.04,2.63-4.82-1.56-8.95-4.74-13.95-5.87-.9-.2-1.17-1.05-1.53-1.8-4.47-9.37-5.76-19.01-2.69-29.09.59-1.95,1.19-3.33,3.62-2.49.6.2,1.38.06,2.03-.12c4.72-1.3,9.05-3.45,14.46-1.5c2.93,1.05,6.32-1.65,7.39-5.2.63-2.09,1.64-2.99,3.77-3.49c7.99-1.9,14.13-8.59,15.1-16.05c1.15-8.93-2.75-16.67-10.71-20.82-1.59-.83-2.39-1.49-2.47-3.52-.17-4.05-3.29-7.09-7.49-7.33-2.01-.12-2.7-.88-3.55-2.49-3.56-6.66-11.33-9.38-18.32-6.4-1.77.75-3.1,1.21-4.81-.08-1.75-1.32-4.37-1.67-5.86-.56-3.4,2.54-5.49.77-8.4-.91-7.28-4.2-16.48-.76-19.81,7.11-.8,1.89-1.44,2.45-3.74,2.37-10.2-.36-19.24,8.05-20.12,18.35-.12,1.46-.35,2.38-1.75,3.28-4.73,3.07-5.66,7.27-2.65,11.9.95,1.46.99,2.45.38,4.04-2.07,5.34-.98,10.27,2.85,14.47c3.69,4.06,8.29,5.77,13.71,4.34c1.98-.52,3.08-.17,4.43,1.47c2.83,3.45,6.72,4.07,10.69,1.88c1.47-.81,2.23-.62,3.84-.01c9.72,3.7,7.7,11.71,6.89,18.83-1.08,9.46-4.95,16.44-15.65,19.17-12.47,3.18-23.96,3.97-35.69-2.51-10.52-5.82-22.08-5.61-33.63-3.31-1.47.29-2.93.64-4.4.96-.15.01-.3-.05-.79-.14Z" fill="#f6f6f6"/><path d="M796.51,329.07c-5.16-12.14-12.59-21.46-26.73-22.32-11.05-.67-19.91,3.08-24.84,14.3-2.14-2.8-3.86-5.5-6.23-7.63-8.89-8.04-19.12-8.49-30-5.33-8.27,2.4-14.65,7.83-21.11,13.11-5.28,4.32-10.5,8.7-15.75,13.07-1.2-1.04-.69-2.21-.69-3.2-.04-22.22.04-44.43-.1-66.65-.02-3.19.77-4.14,4.06-4.13c64.86.1,129.72.08,194.59.07c2.23,0,4.19-.4,4.16,3.15-.14,22.49-.06,44.98-.07,67.47c0,.38-.18.76-.38,1.55-3.82-1.71-7.48-3.42-11.22-4.98-1.12-.47-1.26-1.38-1.52-2.25-6.56-21.44-32.92-24.64-47.56-14.91-6.67,4.43-11.57,10.39-15.45,17.29-.27.46-.69.83-1.16,1.39Z" fill="#fff"/><path d="M796.41,396.05c-7.34,8.93-14.53,8.47-21.52-1.62-1.12,5.78-3.16,10.85-9.62,11.88-8,1.27-10.75-4.71-13.38-11.07-2.19,3.4-.27,9.26-6.22,8.68-4.56-.45-2.79-4.53-3.39-7.23-1.64-.6-2.49.82-3.56,1.48-5.08,3.13-10,2.6-13.65-1.59-3.69-4.23-3.51-8.96.5-13.63.25-.29.44-.64.63-.92-.39-1.21-1.55-1.15-2.35-1.57-1.77-.94-2.79-2.32-2.42-4.3.35-1.89,1.57-3.45,3.58-3.39c2.76.08,2.55-1.24,2.43-3.3-.63-10.93,7.7-18.39,18.55-16.74c2.13.33,3.53.37,3.91-2.47.68-5.11,3.79-8.2,8.21-8.9c5.04-.8,8.39.92,11.16,5.74.54.94,1.07,1.89,1.62,2.89c1.76-.55,1.33-2.25,1.87-3.36c1.93-3.94,5.46-4.75,7.49-1.25c1.58,2.72,2.48,1.76,4.16.45c6.78-5.27,14.72-2.51,16.62,5.91.53,2.36,1.42,2.38,3.33,1.93c4.88-1.15,6.72.56,5.5,5.46-.81,3.26,1.73,2.92,3.2,3.47c10.89,4.06,14.3,16.52,6.68,25-3.18,3.54-7.22,5.38-12.04,5.09-1.48-.09-2.78-.4-2.62,1.8.18,2.61.62,5.49-2.95,6.24-3.67.78-4.27-2.55-5.72-4.68Z" fill="#fff"/><path d="M873.55,518.13c-14.17-4.78-27.59-2.72-40.98,2.58-13.65,5.4-27,5.74-40.74-1.37-13.65-7.05-28-4.37-41.76,1.01-9.35,3.66-18.79,5.81-28.85,3.8-2.56-.51-5.11-1.16-7.35-2.46-12.98-7.55-26.75-7.87-40.93-4.64-.51.12-1.04.13-1.57.2-.51-9.64-1.29-7.71,6.63-9.26c11.44-2.25,22.36-1.06,32.99,4.54c12.9,6.8,26.21,5.17,39.27-.18c10.99-4.49,22.24-6.68,34.03-3.86c2.11.5,4.26,1.2,6.12,2.27c14.56,8.34,29.35,7.04,44.25,1.22c10.36-4.04,20.87-6.58,32.03-3.89c7.48,1.79,7.48,1.8,6.86,10.04Z" fill="#f6f6f6"/><path d="M686.68,468.55c8.05-.22,15.64,1.18,22.92,5.04c13.28,7.05,26.9,5.87,40.48.5c11.4-4.51,23.03-7.07,35.25-3.6c1.7.48,3.48.97,4.99,1.85c14.52,8.5,29.37,7.19,44.24,1.37c10.95-4.28,22.01-6.63,33.67-3.56c5.57,1.47,6.04,2.3,5.64,7.5-.16,2.08-.88,2.15-2.58,1.6-13.06-4.2-25.68-2.15-38.07,2.79-9.89,3.94-20.01,5.65-30.54,3.24-2.24-.51-4.54-1.23-6.53-2.36-15.47-8.77-31.21-6.83-46.74-.75-13.72,5.36-26.81,6.35-40.25-1.02-10.85-5.95-22.72-5.14-34.51-2.99-1.19.22-3.37,1.84-3.35-.77.02-2.29-2.12-5.69,2.01-6.88c4.35-1.23,8.85-1.69,13.37-1.96Z" fill="#fff"/><path d="M873.3,492.55c-14.84-5.17-28.91-2.2-43.06,3.33-12.58,4.91-25.07,4.81-37.63-1.74-14.13-7.37-28.89-4.86-42.95.72-14.01,5.55-27.25,6.38-40.97-1.12-10.4-5.69-21.9-5.05-33.31-2.94-1.22.23-3.86,2.42-4.09-.71-.18-2.46-2.04-6.15,2.83-7.12c12.65-2.54,24.71-2.45,36.64,3.9c12.95,6.89,26.48,5.17,39.71-.14c10.88-4.37,22.02-6.52,33.67-3.81c2.11.49,4.28,1.15,6.14,2.22c14.53,8.38,29.32,7.17,44.25,1.37c9.55-3.71,19.25-6.25,29.62-4.44c1.08.19,2.15.41,3.2.68c7.01,1.78,7.27,2.22,5.95,9.8Z" fill="#f6f6f6"/><path d="M689.25,494.02c7.14.19,13.07,1.15,18.45,4.17c13.88,7.79,28.01,7.09,42.32,1.43c10.34-4.09,20.89-6.5,32.08-4.44c2.85.52,5.69,1.24,8.15,2.67c14.83,8.61,29.87,7.08,45.01,1.13c10.13-3.98,20.44-6.11,31.3-3.73c1.33.29,2.66.66,3.94,1.12c2.87,1.02,4.51,5.23,3.23,7.96-.65,1.37-1.56.69-2.4.43-13.37-4.24-26.23-1.98-38.87,3.07-9.61,3.84-19.45,5.57-29.7,3.08-2.11-.51-4.3-1.13-6.16-2.21-15.68-9.07-31.67-7.13-47.48-.91-13.6,5.34-26.56,6.21-39.85-1.05-10.87-5.94-22.7-5.21-34.48-2.98-1.23.23-3.43,1.71-3.47-.68-.05-2.3-2.17-5.78,1.93-6.93c5.56-1.56,11.27-2.16,16-2.13Z" fill="#fff"/><path d="M771.26,464.59c2.07-2.78,3.67-4.64,4.93-6.71.92-1.51,2.1-1.49,3.51-1.35c3.71.37,7.33,1.23,10.55,3.08c14.53,8.36,29.33,7.21,44.24,1.38c11.18-4.37,22.52-6.89,34.4-3.36c1.93.57,4.77.4,4.94,3.87.26,5.25.26,5.39-4.71,4.08-12.34-3.24-24.13-1-35.68,3.58-10,3.96-20.21,5.77-30.87,3.18-1.45-.35-2.98-.69-4.27-1.4-8.17-4.47-16.75-7.32-27.04-6.35Z" fill="#f6f6f5"/><path d="M757.38,466.45c-9.49,3.38-18.67,7.93-29.17,7.44-5.28-.25-10.43-1.15-14.98-3.78-11.84-6.85-24.39-7.3-37.42-4.91-1.4.26-3.75,2.63-4.62-.57-1.17-4.34-.07-6.44,3.3-7.17c12.66-2.76,24.73-2.31,36.63,4.05c12.11,6.47,24.94,5.12,37.43.42c4.49-1.69,8.96-3.34,13.64-4.41c2.02-.46,3.89-.57,4.34,2.15.49,3.36-1.65,4.61-4.37,5.04-1.76.26-3.47.36-4.78,1.74Z" fill="#f6f6f6"/><path d="M785.95,448.9c-2.56.89-4.72.31-6.61-.67-2.12-1.1-2.84-.29-3.61,1.55-1.19,2.88-2.39,5.79-4.62,8.45-2.11-2.57-3.41-5.38-4.7-8.17-.75-1.63-1.28-2.93-3.47-1.63-1.83,1.08-3.94.96-5.97.47-.57-1.17.37-1.82.83-2.59c6.16-10.18,8.8-21.17,7.29-33.01-.28-2.22.46-2.83,2.31-3.26c2.99-.7,5.64-2.06,7.7-4.43.61-.7.75-2.23,2.41-1.16c1.41.91.68,1.89.38,2.84-3.17,9.96-2.31,19.68,1.47,29.3c1.7,4.32,4.09,8.27,6.59,12.31Z" fill="#fff"/><path d="M787.91,453.5c1.79-1.82,4.41-3.32,1.76-6.96c15.45,8.68,30.44,7.05,45.41,1.43c10.43-3.91,21-6.08,32.12-3.82c7.12,1.44,7.52,2.1,6.1,9.84-13.95-4.81-27.36-2.73-40.74,2.63-13.35,5.35-26.82,6.35-39.95-1.09-1.4-.78-2.95-1.28-4.7-2.03Z" fill="#fff"/><path d="M757.62,453.73c-8.32,2.43-16.06,6.82-24.99,7.26-6.69.33-13.28-.18-19.11-3.53-12.38-7.12-25.43-7.54-38.97-4.92-1.07.21-3.11,1.92-3.24-.35-.12-2.22-2.03-5.79,1.54-6.78c11.72-3.24,23.63-4.35,34.74,1.75c12.83,7.05,25.83,6.94,39.24,2.61c2-.65,3.69-1.77,5.09,1.08.77,1.56,1.95,1.72,5.7,2.88Z" fill="#fff"/><path d="M743.75,527.83c18.68-8.55,36.69-12.26,54.85,0-18.11,0-36.13,0-54.85,0Z" fill="#fff"/><path d="M716.19,528.04c-14.82,0-28.61,0-42.41.01-1.44,0-2.87.06-2.66-2.04.16-1.62-.79-3.71,1.87-4.29c11.69-2.55,23.28-3.51,34.52,1.89c2.64,1.26,5.22,2.65,8.68,4.43Z" fill="#fff"/><path d="M826.39,528.04c13.61-5.4,26.09-10.58,40.07-7.28c1.59.37,3.11,1.02,4.69,1.38c2.42.55,2.88,2.15,2.6,4.3-.32,2.46-2.24,1.56-3.51,1.56-14.19.07-28.4.04-43.85.04Z" fill="#fff"/><path d="M757.38,466.45c.15-1.91,1.35-2.51,3.06-2.45c3.16.12,5.06-1.49,6.09-4.34c1.26,1.38,2.53,2.75,4.17,4.54-4.74.8-9.03,1.52-13.32,2.25Z" fill="#f6f6f5"/><path d="M624.49,314.1c-4.79,0-9.59-.1-14.37.04-2.3.07-2.84-.67-2.34-2.85c1.76-7.63,8.35-13.31,15.98-13.64c8.62-.37,15.48,4.24,17.95,12.05c1.25,3.96.94,4.39-3.25,4.4-4.66.01-9.31,0-13.97,0Z" fill="#f6f6f6"/><path d="M617.2,348.35c3.62-1.51,6.61-2.75,9.94-4.13c0,2.98,0,5.62,0,8.51-3.36-.8-6.31-2.6-9.94-4.38Z" fill="#f2f2f0"/><path d="M1132.75,554.34c0-2.96,0-5.58,0-8.62c3.22,1.47,6.12,2.81,9.35,4.29-3.02,2.1-6.17,2.89-9.35,4.33Z" fill="#f3f3f1"/><path d="M897.13,219.19c-.01,7.64-4.35,13.78-10.71,15.14-7.05,1.52-13.67-2.1-16.7-9.42-2.59-6.28-2.7-12.6,1.25-18.4c5.79-8.49,17.92-7.35,23.42,2.1c1.91,3.26,2.75,6.82,2.74,10.58Z" fill="#f6f6f6"/><path d="M752.45,218.58c-.06-9.99,4.59-16.36,11.53-17.63c6.98-1.27,13.87,3.4,16.49,11.17c1.3,3.86,1.56,7.83.57,11.73-1.38,5.43-4.71,9.32-10.38,10.45-5.89,1.17-10.81-.82-14.42-5.66-2.62-3.51-3.69-7.56-3.79-10.06Z" fill="#f6f6f6"/><path d="M957.18,217.87c0-4.93.07-9.87-.03-14.8-.04-1.95.4-2.72,2.53-2.3c7.53,1.46,13.6,8.67,13.94,16.72.33,7.91-5.29,15.46-12.91,17.47-2.51.66-3.77.43-3.6-2.72.26-4.76.07-9.57.07-14.37Z" fill="#f6f6f6"/><path d="M633.53,489.07c-1.5,0-3,.11-4.48-.03-1.24-.12-3.03.81-3.6-.75-.44-1.2.57-2.58,1.33-3.7c2.23-3.25,5.18-5.21,9.28-4.56c3.45.55,5.47,2.69,6.27,6.1.48,2.06.11,3.11-2.27,2.97-2.18-.14-4.36-.03-6.53-.03Z" fill="#f5f4f4"/><path d="M614.91,489.07c-1.22,0-2.45.11-3.66-.03-1.25-.14-2.98.8-3.63-.8-.59-1.47.42-2.86,1.35-4.06c1.79-2.31,4.16-2.82,6.9-2.22c2.95.65,4.62,2.69,5.69,5.29.47,1.14-.12,1.79-1.37,1.79-1.76,0-3.53,0-5.29,0c.01.01.01.02.01.03Z" fill="#f5f5f4"/><path d="M930.16,208.22c.03,4.05-3.33,7.78-7.45,8.61-1.85.38-1.73-.62-1.73-1.75-.01-4.24.02-8.49-.02-12.73-.02-1.55.34-2.17,2.13-1.9c4.01.62,7.04,3.79,7.07,7.77Z" fill="#f6f5f4"/><path d="M623.88,424.63c-4.99,0-9.87-.04-14.74.02-1.8.02-1.96-.77-1.68-2.28.6-3.2,2.22-5.65,5.34-6.61c3.21-.99,6.24-.27,8.5,2.38c1.49,1.76,2.55,3.79,2.58,6.49Z" fill="#f5f4f4"/><path d="M983.08,830.16c2.88.07,5.46,2.82,5.33,5.67-.14,2.81-3.17,5.46-6.23,5.43-2.97-.02-5.53-2.56-5.5-5.48.02-3.01,3.09-5.71,6.4-5.62Z" fill="#f5f4f4"/><path d="M969.55,820.19c.29-2.83,2.07-4.63,5.19-4.94c2.61-.26,5.37,2.64,5.46,5.53.08,2.5-2.7,5.11-5.43,5.08-2.69-.01-5.19-2.58-5.22-5.67Z" fill="#f4f3f3"/><path d="M952.35,843.11c3.19.05,5.58,2.3,5.62,5.3.04,3.03-3.07,5.76-6.39,5.6-3.01-.14-5.4-2.64-5.36-5.62.03-3,2.75-5.34,6.13-5.28Z" fill="#f5f4f5"/><path d="M951.64,833.3c-.32,2.61-2.02,4.24-5.06,4.33-3.01.09-5.77-2.5-5.49-5.38.3-3.14,2.39-4.86,5.44-5.12c2.76-.24,5.17,2.61,5.11,6.17Z" fill="#f3f3f2"/><path d="M812.65,833.78c.08,3.59-2.49,6.34-5.97,6.37s-5.78-2.11-5.82-5.42c-.04-3.45,2.4-6.34,5.48-6.46c3.5-.13,6.23,2.25,6.31,5.51Z" fill="#f5f5f4"/><path d="M834.16,850.72c3.4.02,5.6,2.22,5.64,5.64.05,3.81-2.38,6.56-5.77,6.56-3.4,0-6.08-2.62-6.03-5.89.05-3.59,2.73-6.33,6.16-6.31Z" fill="#f5f4f4"/><path d="M866.92,978.9c0-2.9.04-5.45-.01-8-.05-2.19,1.14-2.12,2.6-1.47c1.78.79,2.68,2.24,2.65,4.17-.05,3.09-2.02,4.45-5.24,5.3Z" fill="#f2f0ef"/><path d="M846.14,979.81c-1.71,0-3.03,0-4.49,0c.23-2.02,1.46-3.3,2.56-5.53.78,2.25,1.32,3.79,1.93,5.53Z" fill="#ddddd9"/><path d="M615.26,914.51c1.22-.93,2.39-1.83,3.91-2.99.59,1.95.07,3.55-.14,5.26-1.64-.31-2.97-.78-3.77-2.27Z" fill="#e7e6e2"/><path d="M1009.46,965.29c-.65-2.55-1.3-4.86-1.82-7.21-.19-.86-.76-2.1.31-2.56.73-.31,1.86.06,2.71.39c1.81.7,2.72,2.11,2.76,4.1.06,2.7-1.39,4.2-3.96,5.28Z" fill="#ededea"/><path d="M986.56,967.72c1.33,1.25,3.24,2.17,2.42,4.13-.23.56-2.41,1.03-2.93.6-1.82-1.48.53-3.04.51-4.73Z" fill="#d9d8d5"/><path d="M1073.66,942.6c1.61,1.79,2.65,2.95,3.71,4.12-1.04,1.33-2.44,1.35-3.75,1.82-.67-1.75-.2-3.4.04-5.94Z" fill="#e7e6e2"/><path d="M763.14,969.11c-.03-6.14,3.74-10.77,8.81-10.8c5.36-.03,9.23,4.28,9.29,10.33.05,6.1-3.77,10.78-8.83,10.81-5.36.03-9.24-4.31-9.27-10.34Z" fill="#f6f6f5"/><path d="M726.43,955.59c-.01,4.96-4.62,10.03-9.99,10.34-1.91.11-3.26-.05-2.48-2.61c1.68-5.45,3.27-10.94,4.84-16.43.49-1.73,1.13-2.21,2.78-1.01c3.1,2.24,4.7,5.19,4.85,9.71Z" fill="#f5f4f4"/><path d="M748.48,956.87c.04,1.25-.76,2.57-2.28,3.5-1.08.66-2.41,1.26-3.41.63-1.05-.66-.17-2.01-.03-3.03.13-.94.31-1.93.73-2.75.59-1.14-.21-3.53,1.96-3.21c2.07.31,3.02,2.15,3.03,4.86Z" fill="#f1f1f0"/><path d="M920.09,980.43c-1.74.41-3.06.58-4.55-.05.59-1.52,1.17-3.02,1.8-4.63c1.86,1.03,1.91,2.91,2.75,4.68Z" fill="#d9d8d4"/><path d="M679.9,942.03c-2.48.23-3.76.01-2.48-2.54.97-1.94,1.72-4.02,2.3-6.11.79-2.83,2.02-1.86,3.32-.53c1.57,1.59,1.3,3.45.63,5.34-.71,2.06-1.89,3.6-3.77,3.84Z" fill="#f2f1f0"/><path d="M1078.22,347.36c-7.09,9.17-14.74,10.6-24.9,4.97-.17.15-.47.3-.48.46-.23,4.88-.51,5.05-5.12,3.56-4.47-1.45-6.56-4.73-7.05-9.16-.3-2.73-.65-5.43-1.74-7.98-.97-2.27-2.37-4.2-5.04-4.18-2.75.01-4.59,1.77-5.51,4.25-1.94,5.27-1.7,10.45.97,15.47c3.85,7.23,9.51,12.93,15.76,19.15.16-2.99.29-5.35.46-8.37c5.93,5.2,9.57,11.19,11.54,18.47c1.64-1.39,3.17-2.69,4.96-4.21c2.54,7.49,2.76,14.66.47,21.99.44.19.77.45,1.1.46c6.49.31,6.5.3,3.99,6.34-1.92,4.61-4.71,8.54-8.44,11.95-2.37,2.17-3.69,5.53-6.12,7.61-6.09,5.2-11.85,10.59-16.22,17.4-1.56,2.43-4.46,3.57-6.75,5.31-1.5,1.14-2.63,2.6-1.83,4.58.8,1.96,2.64,2.3,4.49,2.09c5.21-.59,8.36-4.28,11.52-7.9.62-.71.98-1.64,1.47-2.46c2.92-4.87,6.93-5.12,9.49.09c1.77,3.59,4.1,3.52,7.13,3.48c6.75-.09,6.81.01,3.33,5.92-7.07,12.02-13.21,24.57-20.95,36.2-1.4,2.11-1.28,4.43.11,6.59.88,1.37,1.85,2.69,3.05,4.45-3.35.73-6.39.85-9.38-.04-1.77-.52-2.63-.36-2.4,1.67.28,2.45-1.27,2.36-2.85,1.97-2.69-.66-5.32-1.66-7.05-3.91-1.62-2.11-2.82-2.51-4.29.06-.6,1.05-1.56,1.89-2.59,3.1-3.56-4.29-5.44-8.91-3.8-14.3c1.67-5.49,5.89-8.44,11.31-9.57c2.65-.55,5.16-.93,5.95-4.01.49-1.93.64-3.81-1.3-5.16-1.99-1.38-3.44-.12-4.67,1.13-4.51,4.59-8.83,9.36-13.39,13.9-3.69,3.68-6.62,3.14-7.92-1.92-.84-3.28-2.34-3.82-5.05-3.47-2.76.35-3.57-1.22-3.78-3.62-.38-4.39,1.43-7.61,5.53-9.57c4.99-2.4,5.87-6.21,2.23-10.3-1.99-2.24-3.28-4.82-3.44-7.73-.13-2.37-1.22-2.7-3.12-2.45-2.97.39-6.01.38-8.78,1.84-2.46,1.3-4.34,3.01-4.22,5.99.12,2.9,2.28,4.22,4.63,5.18c1.12.46,2.36.74,3.57.86c4.68.47,5.05.99,4.26,5.84-.57,3.48-2.2,6.25-5.41,7.75-7.34,3.44-12.54,9.6-18.67,14.56-2.78,2.25-2.22,4.79.68,7.21c1.23,1.03,2.49,2.03,4.45,3.63-5.16.06-9.38-.19-13.45-1.89-.58,5.22-1.47,5.66-6.14,3.13-1.34-.72-2.59-1.57-3.46-2.84-.84-1.22-1.63-2.49-2.49-3.81-1.47,1.27-2.81,2.43-4.3,3.71-2.9-3.6-3.61-7.55-2.26-11.84c2.01-6.42,6.46-10.67,12.46-13.36c1.6-.71,3.35-1,5.21-.56c3.72.87,5.53-.59,6.21-4.74.57-3.51-1.15-6.06-4.72-6.29-3.82-.25-7.71-.38-11.5.06-4.1.48-4.55-1.77-4.46-4.78.06-2.11.63-4.17,2.14-5.64c1.61-1.57.96-2.2-.52-3.29-1.58-1.16-4.34-1.49-3.65-4.66.67-3.1,2.28-5.22,5.28-6.24.51-.17,1.05-.26,1.94-.48-1.16-2.51-2.26-4.9-3.55-7.68c9.63,0,18.86-.01,28.08.01c4.52.01,9.05.19,13.57.1c3.5-.07,4.76-2.2,3.44-5.54-1.51-3.82-4.73-5.48-8.47-6.38-3.51-.85-7.08-.64-10.64-.63-8.34.01-16.5-.58-22.96-6.82-.98-.94-1.63-.5-2.47.08-4.22,2.92-9.02,4.5-13.83,6.11-3.13,1.05-6,2.65-8.56,4.76-1.95,1.61-3.4,3.35-3.39,6.18.02,2.95-1.62,5.48-4.25,6.55-2.77,1.13-3.41,2.9-2.93,5.37.86,4.44-1.82,4.35-4.75,3.82-1.18-.22-2.54-.63-3.34-1.43-2.23-2.21-4.17-3.51-6.32.04-.78,1.28-1.55.41-2.26-.28-2.01-1.94-3.87-4.14-4.07-6.95-.24-3.35-1.61-4.26-4.87-4.07-4.66.27-4.78-.03-2.75-4.26c3.61-7.52,8.84-12.68,17.96-12.59c5.7.06,9.26-3.63,11.83-8.27c2.36-4.27,4.17-8.85,7.42-12.55-1.91-1.57-4.86.72-5.64-1.64-.88-2.64.2-5.43,1.71-7.79.87-1.36,2.04-2.52,3.63-4.44-3.7.69-3.8,4.24-6.34,5.32-.5-1.86-1.05-3.67-1.46-5.51-.38-1.7-.21-4.1-2.96-1.73-1.1.95-1.34-.16-1.62-.85-.9-2.19-1.17-4.08-4.6-4.79-3.54-.73-5.91-4.66-7.89-7.99-1.33-2.23-2.61-4.26-5.22-5.35-1.27-.53-2.51-1.88-3.1-3.16-1.08-2.36-2.7-3.22-5.13-3.02-3.07.26-3.8-1.39-3.21-4.04.65-2.93,1.87-5.44,4.89-6.63c1.13-.45,2.27-.58,1.26-2.48-2.4-4.51-.59-7.33,4.74-7.4c2.6-.03,4.95.4,4.29-3.53-.3-1.79,1.39-1.29,2.35-1.31c4.57-.07,8.58,3.57,9.39,8.7.32,2.01.22,4.1.25,6.15.06,5.18,1.93,8.19,6.74,9.48c5.81,1.55,11.7,2.88,17.63,3.85c3.15.52,4.93-2.93,7.68-4.01.43-.17-1.31-2.34-1.95-3.64-.41-.84-.93-1.63-1.71-2.97c9.08,0,17.73,0,26.58,0-.28-2.83-2.06-2.62-3.61-2.63-4.11-.04-8.25-.28-12.33.07-3.31.28-4.39-1.13-4.5-4.05-.13-3.39-.73-6.17-5.3-5.54-1.37.19-3.08-.49-4.03-1.74-2.55-3.38-5.5-6.29-8.57-9.21-3.07-2.91-2.96-7.75-4.13-12.1c5.3,4.85,12.87,4.11,18.48,8.06.03-.27.12-.55.09-.81-.78-6.92-.79-6.92,6.12-6.92c2.33,0,4.68-.21,6.99.05c4.13.46,7.4-.45,9.66-4.3c1.8-3.07,5.05-1.73,7.52-1.51c4.3.39,5.64-1.13,5.04-5.21-.27-1.88-.05-3.83-.04-5.75.01-.94-.19-1.97.93-2.49c5.09-2.39,5.31-6.81,4.85-11.53-.05-.54-.01-1.09-.01-2.1c5.66,4,9.51,8.82,11.09,15.5c3.58-2.33,7.3-3.87,11.51-4.2c1.83-.14,2.68.24,3.17,2.14.81,3.15.89,6.2.08,9.33-.29,1.13-.76,2.24,1.32,2.59c8.84,1.48,10.72,2.73,17.02,10.61-2.1-.24-3.88-.46-5.66-.64-3.65-.38-6.51.84-7.99,4.34-1.51,3.58-5.2,2.32-7.71,3.67-1.27.69-3.43-.19-3.62,2.4-.15,2.08.74,3.11,2.42,4.14c3.03,1.86,4.9,4.72,5.64,8.24c1.26,5.95.91,6.42-5.07,6.94-.04,2.11,1.41,3.35,2.99,3.85c3.24,1.03,3.25,3.12,1.84,5.29-1.89,2.9-2.41,5.29-.83,8.77c1.56,3.43-.26,7.24-1.58,10.72-1.32,3.49-1.57,6.66,2.67,8.64-.99.92-1.66,2.04-2.59,2.34-4.17,1.34-3.51,4.04-2.68,7.3c2.01,7.87,6.05,13.51,14.36,15.74c6.72,1.8,12.58,5.4,17.08,10.83c1.69,2.04,2.83,1.37,4.31-.07c4.64-4.53,5.46-12.53,1.21-18.54-3.87-5.46-8.29-10.55-12.61-15.68-7.67-9.11-14.08-18.77-16.18-30.86-3.75-21.53,10.75-36.8,32.38-33.94c2,.26,2.64,1.02,2.4,2.84-.26,1.99.5,2.83,2.59,3.2c3.13.55,5.48,2.38,6.5,5.59.89,2.79,2.68,4.71,5.48,5.68c2.23.77,2.75,1.66.68,3.5-3.51,3.12-3.2,4.46.79,7.13c3.73,2.39,7.77,1.62,12.15,1.88Z" fill="#2b2a25"/><path d="M736.31,706.35c-6.12-3.29-13.09-.65-20.09-.46-14.59.39-24.26-14.28-18.74-27.75.75-1.82.73-3.17-.01-4.98-3.3-8.17-1.93-15.79,4.23-21.97c6.25-6.27,13.92-7.8,22.32-4.58c3.55,1.36,7.61,0,9.65-3.3c3.22-5.2,7.79-8.4,13.89-9.14c1.96-.24,3.13-.95,4.05-2.78c2.04-4.06,5.55-6.34,10.02-6.98c1.45-.21,2.49-.81,3.59-1.7c1.88-1.53,2.08-2.6.15-4.46-8.39-8.08-16.69-16.26-24.83-24.59-2.1-2.15-3.34-1.3-4.38.51-.94,1.63-5.33,2.47-1.65,5.42c2.13,1.7,1.99,2.91,0,4.71-3.26,2.92-6.3,6.1-9.33,9.28-1.31,1.38-2.13,1.88-3.77.2-8.07-8.21-16.23-16.32-24.5-24.33-1.82-1.77-1.39-2.73.19-4.21c3.2-3,6.31-6.11,9.29-9.32c1.51-1.63,2.56-2.01,4.16-.12c3.73,4.41,4.81-.93,6.81-2.15c2.89-1.78-.1-2.98-1.06-3.81-1.96-1.69-2.09-3.51-1.69-5.83c1.85-10.57,1.82-10.44,12.43-10.85c2.26-.09,3.21,1.1,4.42,2.3c16.07,15.92,32.18,31.8,48.13,47.84c2.2,2.22,3.23,2.09,5.35-.04c15.87-15.92,31.88-31.7,47.85-47.52c2.13-2.11,11.6-3.37,14.18-1.91.89.5.77,1.36.93,2.13.52,2.55.9,5.14,1.59,7.64.78,2.79.43,5.05-2.12,6.73-2.23,1.48-1.45,2.96.31,3.97c1.72.99,2.62,5.45,5.55,1.98c2.3-2.72,3.55-1.66,5.37.31c2.89,3.12,5.92,6.1,9.02,9.01c1.38,1.3,1.58,2.11.1,3.57-8.31,8.16-16.54,16.4-24.71,24.71-1.49,1.52-2.3,1.18-3.58-.15-3.24-3.35-6.49-6.71-9.98-9.78-2.05-1.8-1.81-3,.22-4.29c2.44-1.56,1.83-3.08-.14-4.32-1.71-1.08-2.38-5.2-5.82-1.63-7.8,8.09-15.92,15.88-23.89,23.8-3.05,3.03-2.52,5.86,1.75,6.6c5.48.95,9.34,3.61,11.88,8.39.61,1.14,1.47,1.38,2.63,1.54c6.64.89,11.63,4.11,15.19,9.97c1.72,2.84,4.78,4.21,8.35,2.81c8.27-3.25,15.96-2.34,22.43,3.92c6.7,6.48,8.05,14.38,4.68,23-.62,1.58-.41,2.75.16,4.21c3.16,8.22,1.79,15.72-4.37,21.97-6.42,6.51-14.16,7.84-22.65,4.52-1.47-.58-2.64-.69-4.19-.07-8.44,3.41-16.33,2.13-22.75-4.26-6.4-6.37-7.93-14.08-4.36-22.66c1.43-3.43.06-6.49-2.88-8.3-5.61-3.46-9.1-8.23-10.15-14.68-.28-1.7-.98-2.56-2.42-3.39-4.13-2.39-6.8-5.94-7.28-10.8-.25-2.47-1.86-4.74-3.63-4.74-1.82,0-3.35,2.2-3.55,4.79-.37,4.68-2.89,8.28-6.98,10.5-2.04,1.11-2.72,2.49-3.13,4.69-1.06,5.78-4.11,10.36-9.36,13.3-3.01,1.68-4.47,5.92-3.26,9.24c4.39,11.98-1.47,23.91-13.49,27.34-1.68.48-3.49.55-6.13.95Z" fill="#2b2a25"/><path d="M1028.18,571.91c-2.44,4.81-5.61,9.43-4.11,15.25c3.78-13.38,11.8-23.13,24.23-29.24-5.44,4.43-11.14,8.63-14.18,15.34c6.93-8.66,16.04-13.96,26.5-17.2-3.72,2.15-7.47,4.23-11.14,6.45-3.65,2.22-6.9,4.92-9.58,8.29-1.56,1.96-1.92,3.77-.51,5.17c9.46-9.87,21-16.8,32.53-23.86.93,1.69-.66,1.73-1.22,2.1-5.39,3.58-10.34,7.64-14.64,12.51-4.46,5.05-5.74,12.44-12.56,15.62c3.87,3.23,6.23,1.6,8.86-.86c5.02-4.7,8.24-10.53,11.34-16.49.8-1.54,1.72-3.03,2.96-5.21.27,3.17-1.39,4.82-2.26,6.71-3.56,7.79-8.34,14.73-14.42,20.81-2.33,2.33-4.7,4.11-8.39,3.39c1.36,3,3.37,2.22,5.2,1.32c5.08-2.49,8.71-6.62,11.8-11.19c2.49-3.68,4.67-7.56,7.27-11.82-2.4,13.15-16.32,27.19-28.72,29.23c1.19,1.97,2.73,2.22,4.77,1.74c6.53-1.54,10.98-5.98,15.08-10.81c2.46-2.89,4.56-6.09,7.02-9.42-1.29,9.36-15.09,21.1-31.05,26.68c1.3,2.26,3.16,2.47,5.48,1.96c8.02-1.77,13.29-7.3,18.32-13.17c1.03-1.2,1.96-2.49,3.26-3.47-3.32,5.92-7.83,10.8-13.07,15.14-5.28,4.38-12.46,4.64-17.88,8.73c1.75,2.41,4.01,1.72,6.2.94c6.06-2.16,11.02-6.01,15.57-10.44c1.03-1,2.1-1.95,3.31-2.71-7.84,12.03-19.67,17.94-33.15,21.61.19,2.23,1.76,2.35,3.74,2.21c3.69-.27,7.4-.2,11.08-.52c2.66-.23,3.87.93,4.88,3.26c3.64,8.41,3.72,8.38-2.92,14.57-.5.47-1,.97-1.58,1.31-3.55,2.13-3.82,5.21-4.31,9.19-1.01,8.24,2.39,13.35,8.53,17.75c1.39,1,3.87,1.97,3.15,4.32-1.14,3.75-2.17,7.66-4.85,10.7-.72.81-2.07.35-3.16.27-12.81-1-12.76-.94-21.88,8.12-1.49,1.48-.67,2.32-.03,3.46c2.11,3.68,3.99,7.52,6.42,10.98c2.27,3.24,2.22,5.87-.51,8.64-1.13,1.15-2.04,2.53-3.03,3.78-.41-.2-.73-.25-.84-.42-1.49-2.44-2.48-6.22-4.57-6.98-2-.72-5.21,1.54-7.75,2.78-2.35,1.15-4.15,1.06-5.56-1.29-.07-.12-.18-.21-.27-.31-9.2-10.32-9.2-10.29-22.68-9.37-1.45.1-2.24.81-3.06,1.71-2.21,2.43-4.62,4.72-6.53,7.37-1.98,2.73-4.03,2.98-6.99,1.75-2.45-1.01-5.23-3.82-7.27-2.65-2.14,1.23-3.04,4.68-4.37,7.22-2.39,4.6-4.69,9.24-7.22,14.25-2.57-2.49-3.87-5.48-5.67-8.1-.9-1.31.31-2.38.82-3.37c4.47-8.61,8.99-17.2,13.63-25.73c1.05-1.94,1.55-3.44-.78-4.66-.12-.06-.25-.15-.32-.26-4.55-7.57-11.58-8.53-19.35-7.04-3.56.68-5.08-.79-6.34-3.9-3.15-7.77-3.47-7.94,3.04-13.35c4.4-3.66,6.14-7.42,6.06-13.47-.08-5.81-1.63-9.3-5.9-13.02-7.67-6.69-7.05-3.71-3.01-13.72.64-1.58.94-3.56,3.61-3.99-8.57-4.73-15.19-11.13-20.66-18.74-4.17-5.81-3.7-9.39,2.08-13.44c1.94-1.36,2.02-2.02.61-3.84-3.33-4.35-6.27-8.99-8.24-14.14-1.03-2.69-2.28-5.77.07-8.13c2.22-2.23,5.16-1.04,7.68.07c2.99,1.33,5.98,2.71,8.79,4.39c1.68,1.01,2.38.79,3.6-.71c4.18-5.14,6.01-5.41,11.42-1.87c8.58,5.62,15.89,12.55,21.46,21.22.42.65.68,1.41,1.12,2.34-4.44.34-7.92-1.73-12.05-2.55c2.72,3.59,5.43,7.19,8.17,10.81c3.21-4.23,8.12-4.86,12.6-6.3.44-.14,1.2.47,1.7.87.53.42,1.04.94,1.36,1.53c4.97,9.05,13.23,10.01,22.3,9.23c1.35-.12,2.3-.42,3.16-1.43c1.51-1.77,3.25-3.36,4.64-5.22c2.94-3.91,6.08-6.6,11.11-3.22.55.37,1.81,1.11,2-.09.65-4.1,4.56-6.17,5.71-10.17c2.21-7.73,6.97-14.2,12.39-20.11.43-.47.8-1.15,1.65-.81-10.31,16.31-11.85,19.6-11.77,25.63c5.03-6.51,5.53-15.12,11.29-20.8.67-.06,1.1.08.78.89Z" fill="#2b2a26"/><path d="M1028.18,571.91c-.26-.29-.52-.58-.78-.87c2.29-3.48,5.11-6.46,8.92-8.56-2.72,3.15-5.43,6.29-8.14,9.43Z" fill="#626161"/><path d="M961.49,452.29c-2.65-1.91-5.01-3.55-7.3-5.28-.65-.49-2.01-.74-1.29-2.08.49-.92,1.38-1.46,2.38-1.32c2.26.33,4.5.81,7.26,1.33-1.04-2.37-1.85-4.46-2.86-6.45-.95-1.87-1.24-2.95,1.57-2.9c10.41.15,20.83.01,31.24.26c6.24.15,9.75-3.65,8.48-9.82-1.36-6.59-7.83-11.12-16.2-11.26-5.61-.09-11.24.06-16.8-.94-3.27-.59-6.37-1.58-9.02-3.67-1.49-1.17-2.19-2.19-.22-3.79c1.48-1.19,2.23-2.04,3.74.04c1.92,2.64,4.84,2.21,7.15-1.68c1.8-3.03,3.26-4.32,7.05-3.58c3.6.7,5.03-1.26,6.54-6.56c3.4,3.1,10.73.93,14.35-4.18c1.44-2.04,2.01-4.45,3.04-6.96c1.73,2.22,1.33,4.79,1.88,7.04c2.46,10.02,7.36,17.33,18.3,19.75c6.71,1.48,11.94,5.99,15.96,11.57c1.17,1.63,2.09,2.07,4.01,1.46c3.65-1.16,6.2-3.52,7.83-6.81c3.97-8.02,4.03-15.83-1.87-23.05-5.2-6.36-10.69-12.48-15.73-18.97-5.77-7.43-10.14-15.61-11.27-25.16-1.92-16.33,7.01-26.73,23.34-27.45c2.27-.1,2.65.85,2.4,2.58-.36,2.57.67,3.29,3.19,3.21c3.2-.1,5.92.9,6.78,4.61.34,1.47,1.31,2.69,2.44,3.74.47.44,1.37.95.8,1.62-4.03,4.73.77,6.97,2.84,9.85.91,1.27,2.45,2.07,4.38,3.62-9.39.84-12.95-5.7-17.54-12.54c0,4.95,0,8.6,0,13.08-2.58-1.89-2.83-3.95-2.99-6.04-.32-4.19-1.48-8.08-4.18-11.37-4.34-5.31-11.73-5.08-15.19.81-3.95,6.7-5.09,13.82-1.19,21.1c2.87,5.36,6.54,10.15,10.81,14.41c4.45,4.45,9.23,8.56,13.71,12.68.06-1.01.18-2.89.34-5.35c3.31,5.33,3.36,10.74,3.2,17.34c2.06-2.82,3.49-4.77,4.91-6.72.45.34.91.69,1.36,1.03c1.09,5.99.04,11.62-3.59,16.66.51.35.69.57.92.62c2.06.45,5.16-1.09,6.03.84.91,2.02-1.27,4.59-2.93,5.91-6.97,5.55-9.9,15.26-19.1,18.46-.53.19-1.05.9-1.25,1.49-2.06,5.84-6.28,9.74-11.2,13.23-4.6,3.26-5.58,7.28-3.36,11.33c2.04,3.73,6.76,5.38,11.49,3.63c5.57-2.07,9.69-6.04,12.9-10.97c1.06-1.62,2.75-3.02,2.96-.12.41,5.89,4.39,4.34,7.7,4.53.27.02.53.06.86.1.22,1.66-.95,2.78-1.65,4.03-4.65,8.37-9.48,16.64-14.01,25.07-2.06,3.85-6.41,6.54-6.07,11.7.02.32-1.16,2.33-2.68.32-1.19-1.57-3.51-1.84-4.51.35-.77,1.69-2.19,1.23-3.05,1.3-1.29.1-1.18-1.51-1.33-2.57-.19-1.34-.42-2.67-.63-4.03-1.54.18-1.91,1.33-2.47,2.14-.91,1.33-1.92,2.03-3.3.9-1.66-1.36-.02-2.39.69-3.22c2.22-2.6,5.05-4.18,8.57-4.16c4.74.03,5.68-3.79,6.75-7.04c1.18-3.6,1.39-7.54-2.18-10.07-3.06-2.17-6.54-1.91-9.62.25-3.97,2.8-6.35,7.15-9.87,10.42-1.68,1.56-3.32,3.15-5.16,4.89-1.57-2.37.67-4.22.68-6.68-1.93,0-3.79.12-5.62-.04-1.22-.11-3.16.92-3.51-.92-.37-1.95,1.07-3.56,2.98-3.83c3.67-.51,4.88-3.32,6.03-6.05c1.67-3.99,1.3-7.87-2.1-10.89-2.42-2.15-2.86-4.81-2.82-7.78.09-7.04,1.82-13.74,4.25-20.34-4.58,3.43-6.83,8.23-7.94,13.54-.43,2.07-1.11,2.68-3.11,2.62-3.73-.11-7.37.6-10.85,1.93-5.11,1.94-7.72,5.71-7.5,10.57.23,5.06,3.29,8.41,8.76,10.02c1.15.34,3.22-.43,3.36,1.39.14,1.81-.99,3.73-2.79,4.17-4.28,1.04-6.97,4.24-9.93,6.95-4.38,4.01-10.13,6.7-12.57,12.7-.4.99-1.44,1.64-2.79.1-1.23-1.4-3.41-1.71-4.53.48-.52,1.03-1.11,1.74-2.05,1.46-1.1-.33-.68-1.6-.73-2.47-.09-1.35-.02-2.71-.02-4.06-.42-.05-.71-.17-.92-.09-1.47.55-2.76,3.26-4.44,1.12-1.36-1.72.76-3.17,1.87-4.24c3.24-3.14,6.15-7.42,11.81-4.38.66.35,1.89-.13,2.77-.46c4.55-1.7,7.42-8.09,6.32-13.91-.78-4.1-4.81-7.11-9.79-7.16-2.6-.03-5.2.2-7.8.2-.87,0-2.22.47-2.43-.75-.13-.77.45-1.97,1.11-2.5c1.64-1.35,3.53-2.43,5.76-3.89Z" fill="#fff"/><path d="M967.14,313.45c3.57-4.61,10.72-5.85,15.77-2.68c4.51,2.84,8.99,5.72,13.48,8.6c2.54,1.63,4.27,3.82,2.74,6.85-1.49,2.94-4.1,3.49-6.94,1.76-2.23-1.36-2.52.85-3.31,1.79-1.06,1.27.16,1.97,1.14,2.46c2.94,1.47,6.01,1.88,9.12.59c5.23-2.18,7.19-1.08,8.65,4.88-1.47,1.67-4.64-1.56-5.42,1.9-.82,3.65.25,6.91,3.02,9.3c2.51,2.16,2.61,3.39-.55,4.88-2.33,1.1-2.47,3.43-.53,4.78c3.28,2.27,3.26,5.04,2.37,8.29-1.14,4.19-2.91,8.29-1.49,13.01-2.09.4-3.29-.6-4.36-1.84-.76-.88-1.39-1.62-2.72-.8-1.18.72-2.45,1.13-2.12,2.99.4,2.25-.27,4.3-1.57,6.2-3.87,5.68-6.43,5.72-10.19.24-1.05-1.53-1.74-3.39-3.68-4.65-.65,3.79-1.25,7.37-1.89,10.94-.74,4.15-2.16,4.83-5.76,2.81-4.12-2.3-5.09-1.82-5.61,2.84-.16,1.44-.7,2.62-2.06,3.62-1.36-1.65-2.71-3.28-4.17-5.05-3.15,3.4-5.92,6.79-9.42,9.48-3.85,2.95-8.01,5.16-12.74,6.38-5.54,1.43-10.38,4.16-14.35,8.35-1.72,1.81-3.38,3.57-2.81,6.44.22,1.09-.3,2.29-1.15,2.97-2.83,2.26-6.83,2.74-8.39,6.97-.3-.33-.61-.67-.91-1-.1-1.98-.2-3.97-.33-6.53-2.68,2.38-4.78,5.81-8.59,2.85.03-2.02,2.14-3.07,2.55-5.26-1.05,0-1.98-.05-2.91.01-2.35.16-1.73-2.03-2.53-3.11-1.1-1.49.37-1.92,1.11-2.49c1.89-1.45,4.08-2.28,6.49-2.17c7.92.36,13.41-3.72,16.96-10.17c3.76-6.86,7.29-13.77,13-19.28.54-.52.58-1.2.27-1.89.27.07.54.08.81.08c2.84.03,5.43,2.95,7.65,2.22c2.31-.75,4.12-3.23,7.09-3.09.69.03,1.46-.31,1.67-1c1.76-5.72,7.19-6.97,11.5-9.59-4.62.67-8.3,3.15-11.76,6.1-4.87,4.16-10.28,6.7-16.91,5.36-3.35,1.12-6.76.1-10.36.56c1.08-5.25,5.81-4.57,9.39-6.43-2.05-1.69-3.86-3.32-5.82-4.74-1.81-1.31-1.17-2.12.34-2.89c2.1-1.07,4.29-1.55,6.7-1.53c4.53.03,8.74-4.07,9.15-8.4.27-2.8-.91-4.73-3.24-6.11c2.68-2.35,2.68-2.35,11.63-.09-1.89-3.05-3.47-5.6-5.48-8.85c6.28,0,12.05.1,17.82-.06c1.77-.05,4.37,1.21,5.19-.85.94-2.33.79-5.13-.85-7.48-.53-.76-.97-1.58-1.45-2.37c2.52-.1,4.66,1.17,6.93,1.95c3.58,1.23,7.91-1.12,9.24-5.48-1.81.9-2.98,2.23-4.4,3.15-3.86,2.52-7.78.99-11.7.47-4.42-1.28-8.95-.75-13.44-.85-1.09-.03-2.19,0-3.28-.11-.77-.08-1.2-.66-1.18-1.42.03-1.06.93-.78,1.51-.78c2.74-.04,5.49-.12,8.22.01c1.88.09,2.59-.4,2.62-2.46.08-5.6-2.72-9.39-8.17-10.64-1.86-.43-3.68-1.01-5.52-1.51-2.64-.71-2.04-2.97-2.09-4.73-.06-2.41,1.97-1.29,3.05-1.34c3.28-.15,6.58-.18,9.86-.01c2.26.12,4.01-.39,5.17-2.42.56.61,1.39.81,2,1.37c3.73,3.42,3.73,3.41,7.85-.02-3.3-.78-6.83.66-9.91-1.28Z" fill="#fff"/><path d="M900.87,346.27c-1.37-2.44-3.85-5.12-.87-7.14c2.2-1.49,2.95,2.58,5.14,2.85c1.17-1.5-.95-5.09,1.92-4.84c2.28.2,1.52,3.46,1.55,5.44.13,9.07,3.48,13.27,12.3,15.16c4.94,1.06,9.89,2.1,14.84,3.14.4.08.83.1,1.2.26c2.13.95,5.43,1.29,5.11,4.24-.31,2.87-3.11,3.88-5.96,3.9-5.06.05-9.07,2.52-12.86,6.19-.6-2.35-1.06-4.15-1.56-6.12-7.17,5.34-4.33-3.55-6.99-4.74-4.31,3.53-4.26,3.49-7.71-1.35-1.96-2.75-2.82-6.56-7.13-7.17-1.31-.19-1.85-1.92-2.44-3.15-.29-.61-.41-1.3-.6-1.96-.47-1.65-4.36-1.48-2.66-3.94c1.37-1.97,4.07-.01,6.72-.77Z" fill="#fff"/><path d="M989.41,289.04c1.77,3.38,4.05,6.69-.23,9.95-.2.16-.33.44-.46.67-1.38,2.58-1.7,5.26,1.23,6.75c2.74,1.4,4.56-.81,5.34-3c1.38-3.89,3.77-6.51,7.5-8.11s4.26-1.33,4,2.72c-.21,3.3-.68,6.56-4.14,8.32-.46.24-.83.72-1.16,1.15-1.33,1.73-1.91,3.7-1.08,5.77.53,1.32,1.7,2.22,3.23,2.11c2.19-.15,3.33-1.75,4.24-3.47c2.52-4.74,4.37-5.25,9.15-2.38-3.62,3.22-6.22,7.92-12.04,7.92-1.66,0-3.16.19-4.67-.81-4.78-3.17-9.59-6.31-14.5-9.29-1.74-1.06-2.09-2.33-2.41-4.25-1.01-5.93,1.73-10.14,6-14.05Z" fill="#fff"/><path d="M948.3,328.88c-4.36.42-8.48.9-9.29-5.12-.33-2.49-3.66-1.36-5.2-3.51c3.33-.02,6.15-.14,7.03,3.68.46,2,2.06,2.8,3.8,3.31c1.28.37,2.63.49,3.66,1.64Z" fill="#d9d9d6"/><path d="M955.42,328.25c2.63-.33,3.64,1.04,4.33,2.72.21.51-.3.98-.94,1.01-2.44.15-2.64-1.8-3.39-3.73Z" fill="#dadad6"/><path d="M731.3,591.31c.69-3.68,1.27-7.19,2.04-10.65.56-2.52.04-3.51-2.77-2.94-3.61.73-7.28,1.13-11.32,1.73.56-2.05,1.92-3.03,3.08-3.91c3.08-2.33,3.57-4.4.1-6.78-2.5-1.72-3.3-3.87-2.3-7.05c1.21-3.86,5.07-5.28,8.15-2.39c4.1,3.84,8.07,7.82,12.07,11.77c13.26,13.11,26.54,26.19,39.7,39.39c1.83,1.83,2.73,1.7,4.49-.05c16.7-16.64,33.5-33.17,50.28-49.74.88-.86,1.65-2.11,2.71-2.45c2.07-.67,5.22-.83,5.97.89.99,2.27,2.79,5.19.39,7.99-1.57,1.83-4.97,3.07-4.61,5.24.32,1.97,3.18,3.52,4.91,5.27.36.36.67.76,1.53,1.75-5.42-.68-10.06-1.26-14.96-1.87.87,4.88,1.65,9.3,2.58,14.53-2.34-2.17-4.22-3.71-5.85-5.48-1.22-1.33-2.01-1.3-3.27-.04-10.76,10.76-21.55,21.48-32.41,32.14-1.42,1.4-1.5,2.23.01,3.57c3.31,2.91,5.87,6.56,10.95,7.13c3.74.42,6.34,3.37,7.16,7.09.49,2.22,1.27,2.26,3.25,2.24c6.22-.07,11.24,2.56,14.1,8.19c1.1,2.17,2.54,2.95,4.58,3.86c3.83,1.7,7.06,1.95,11.17.13c6-2.66,12.76-.24,16.98,4.79c4.26,5.07,4.93,11.58,1.5,17.58-1.02,1.78-1.01,2.93,0,4.73c3.62,6.48,2.65,13.53-2.25,18.53-4.92,5.02-12.5,6.22-18.89,2.76-1.82-.99-3.05-1.28-5.08-.12-6.33,3.6-14.19,2.4-18.93-2.45-5.2-5.32-6.11-12.53-2.29-19.26.73-1.28.74-2.04.16-3.54-1.77-4.58-3.9-8.27-8.6-10.82-4.14-2.25-5.51-7.01-5.18-11.8.12-1.81-.09-2.54-2.07-3.11-4.94-1.44-7.77-4.83-7.95-10.18-.05-1.65-6.5-9.48-8.02-9.89-.37-.1-.71-.28-.97.25-2.11,4.34-8.01,5.95-7.83,12.22.1,3.7-3.31,6.19-6.92,7.3-2,.62-2.87,1.33-2.68,3.64.52,6.54-2.98,10.97-8.45,13.79-2.05,1.06-3.26,2.02-3.5,4.36-.13,1.3-.76,2.67-1.51,3.77-1.05,1.53-1.13,2.61-.11,4.35c3.77,6.42,2.78,13.76-2.2,18.84-4.76,4.85-12.28,6.1-18.54,2.77-2.15-1.14-3.67-1.32-5.91-.05-6.11,3.46-13.42,2.17-18.48-2.84-5.01-4.96-6.21-11.84-2.79-18.07c1.11-2.02,1.27-3.37.09-5.48-3.55-6.35-2.28-13.51,2.85-18.41c5.15-4.92,12.96-6.11,18.97-2.51c1.83,1.1,2.93,1.14,4.63-.01c1.32-.89,2.99-1.42,4.57-1.71c1.63-.31,2.51-.9,3.18-2.54c2.65-6.54,8.05-9.04,14.7-9.05c1.75,0,2.48.11,2.98-1.93c1.21-4.91,4.7-7.33,9.68-8.11c4.54-.72,6.61-4.91,9.59-7.75.89-.85-.53-1.66-1.14-2.26-10.8-10.71-21.66-21.37-32.41-32.13-1.48-1.48-2.27-1.26-3.58.1-1.62,1.6-2.98,3.55-5.33,4.68Z" fill="#fff"/><path d="M730.05,593.07c-.99,1.06-1.64,1.95-2.47,2.6-1.91,1.49-1.79,2.76.18,4.04c2.09,1.37,2.25,2.79.14,4.37-.97.73-1.83,1.65-2.6,2.6-1.5,1.85-2.65,1.49-4.25-.07-5-4.89-5.03-4.78-.08-9.84c2.4-2.46,4.61-5.13,9.08-3.7Z" fill="#f4f4f3"/><path d="M847.35,579.97c.52.8,1.04,1.6,1.58,2.39c1.68,2.45,3.39,2.84,5.23.13.91-1.34,1.96-1.79,3.13-.19.32.43.81.74,1.18,1.14c1.26,1.37,4.09,2.7,3.37,4.16-1.21,2.44-3.77,4.22-5.81,6.23-.19.18-.87.18-1.07-.01-2.68-2.53-5.41-5.02-7.93-7.71-1.44-1.55-.31-3.68-.95-5.48.42-.22.84-.44,1.27-.66Z" fill="#f5f5f3"/><path d="M717.78,580.57c.25,3.84-5.03,12.3-8.27,13.39-.87.29-1.24-.24-1.72-.69-.69-.66-1.42-1.31-2.03-2.04-1.12-1.33-3.77-2.68-3.16-3.88c1.18-2.33,3.51-4.1,5.49-5.97.89-.84,1.53.24,1.9.79c2.14,3.16,3.98,2.26,5.88-.24.45-.6.92-1.41,1.91-1.36Z" fill="#f5f4f4"/><path d="M838.7,597.76c-1.34-1.97-3.44-2.8-4.23-4.91c6.93-1.33,8.97,4.97,12.98,8.07.68.52.43,1.18-.13,1.73-.58.57-1.14,1.17-1.73,1.74-4.2,4.1-7.42,3.51-10.35-1.72-.61-1.09-.02-1.44.5-1.98.96-.98,1.94-1.92,2.96-2.93Z" fill="#f3f3f2"/><path d="M842.02,586.33c.26,2.27-1.28,1.77-2.42,1.84-2.46.15-2.32-1.71-2.66-3.31-.4-1.88.78-1.56,1.89-1.59c2.25-.06,3.28,1.02,3.19,3.06Z" fill="#fff"/><path d="M725.58,583.33c.96.04,2.45-.45,1.93,1.47-.39,1.44-.06,3.47-2.62,3.37-1.39-.06-2.35-.12-2.27-1.94.09-1.99.77-3.13,2.96-2.9Z" fill="#e9e7e5"/><path d="M934.35,631.21c5.56,2.08,9.5.06,12.32-4.76.27-.46.66-.94,1.12-1.19c7.63-4.11,8.32-10.85,7.02-18.36-.47-2.69.03-4.46,3.08-5.63c2.82-1.08,4.33-.41,5.79,1.79c4.27,6.44,9.57,8.7,17.91,8.65c7.61-.05,12.04-2.44,16.35-7.69c3.92-4.78,8.54-3.73,12,1.61c2.07,3.21,1.41,4.95-.83,7.5-4.15,4.72-8,9.73-11.73,14.8-1.59,2.16-2.87,2.4-5.37,1.42-13.45-5.32-30.48.52-36.9,12.4-7.65,14.18-4.62,30.65,7.62,39.34c8.46,6.01,17.92,8.02,28.01,4.72c2.49-.81,3.61-.31,4.83,1.84c4.06,7.13,8.24,14.18,12.5,21.19c1.03,1.7.8,2.46-.95,3.41-4.91,2.64-5.75,2.8-9.26-1.53-4.15-5.12-8.3-7.82-15.8-7.76-8.26.06-13.99,2.05-18.28,8.74-1.64,2.56-3.48,2.73-6.19,1.53-2.26-1-3.33-2.24-2.85-4.6c1.67-8.19-.52-14.27-7.35-19.96-4.37-3.63-7.61-6.8-13.5-5.15-1.28.36-2.77-.06-4.09.23-3.5.78-4.2-1.69-5.44-4.04-1.41-2.67.28-3.85,1.91-4.93c6.76-4.49,8.87-10.18,9.01-18.68.12-7.9-3.57-11.56-8.4-15.62-2.17-1.83-3.72-3.17-2.04-6.67c2.5-5.28,6.48-1.23,9.51-2.6Z" fill="#fff"/><path d="M1027.23,683.2c-4.98-2.18-8.34,1.32-11.92,5.56-4.67,5.53-4.56,5.01-8.74-.81-3.77-5.26-4.47-8.82.1-14.65c7.96-10.17,6.63-24.31-1.71-34.54-1.8-2.21-1.73-3.48.09-5.39c2.26-2.37,4.34-4.93,6.37-7.5c1.13-1.44,2.21-2.28,3.36-.27c3.82,6.72,9.91,6.39,16.34,5.69c2.1-.23,4.8-1.63,6.28,1.88c1.27,3,1.65,5.13-1.51,7.16-6.28,4.05-8.53,9.2-8.52,17.39c0,8.05,2.42,12.78,8.48,16.64c3.08,1.96,3.24,4.05,1.56,7.13-.96,1.77-1.91,2.41-3.76,2.21-1.77-.21-3.55-.29-6.42-.5Z" fill="#fff"/><path d="M1007.42,657.53c-.39,6.06-2.22,11.37-5.89,16.04-1.45,1.84-2.41,2.73-4.07.04-2.87-4.63-5.98-9.14-9.24-13.51-1.45-1.95-1.17-3.21.2-4.96c3.45-4.41,6.82-8.88,9.99-13.5c1.5-2.19,2.28-1.48,3.51.1c3.67,4.7,5.24,10.09,5.5,15.79Z" fill="#fff"/><path d="M955.02,657.41c.32-5.62,1.87-10.9,5.48-15.49c1.24-1.58,2.04-2.28,3.53-.11c3.17,4.62,6.54,9.1,9.95,13.55c1.03,1.34.88,2.25-.02,3.57-3.32,4.85-6.61,9.72-9.7,14.71-1.25,2.02-1.96,1.53-3.17.08-3.92-4.71-5.67-10.21-6.07-16.31Z" fill="#fff"/><path d="M916.23,601.01c13.02-1.95,23.88.96,33.14,9.43c2.29,2.1,2.34,5,.56,6.81-1.77,1.8-3.55,5.65-7.56,2.36-5.99-4.93-12.22-9.45-19.82-11.96-2.35-.79-3.9-4-6.32-6.64Z" fill="#fff"/><path d="M902.02,571.12c15.12,5.42,25.5,15.75,36.05,25.96-4.49-1.32-8.68-3.41-13.31-4.2-2.3-.4-4.68-1.03-6.89-.7-3.46.53-5.24-1-6.94-3.63-3.38-5.23-6.96-10.34-8.91-17.43Z" transform="translate(0-1.331466)" fill="#fff"/><path d="M980.5,649.41c-3.49-4.62-6.76-8.97-10.07-13.28-1.07-1.4-.64-2.1.87-2.63c6.26-2.19,12.5-2.63,18.86-.3c1.73.64,1.74,1.25.74,2.54-3.41,4.42-6.76,8.88-10.4,13.67Z" transform="translate(0 0.162978)" fill="#fff"/><path d="M980.31,683.23c-2.84-.35-6.98.14-8.67-2.53-.94-1.49,2.47-4.42,3.88-6.73c1.14-1.86,2.44-3.62,3.54-5.5c1.3-2.22,2.34-3.14,4.06-.23c2.14,3.63,4.51,7.14,6.97,10.57c1.48,2.07.7,2.72-1.34,3.2-2.65.64-5.29,1.31-8.44,1.22Z" fill="#fff"/><path d="M924.54,620.15c-7.46-4.1-13.05-9.88-17.78-16.56-.88-1.24-.95-2.71.36-3.66c1.26-.91,1.92.57,2.63,1.2c5.11,4.54,9.92,9.36,13.17,15.49.6,1.15,1.08,2.35,1.62,3.53Z" fill="#fff"/><path d="M926.51,613.85c6.35,2.89,10.19,7.08,14.61,10.4c1.86,1.4-.21,2.84-1.37,2.94-2.55.23-5.16-.17-7.74-.29-1.19-.05-1.08-.98-1.24-1.74-.76-3.57-1.99-6.98-4.26-11.31Z" fill="#fff"/><path d="M1041.97,581.39c-9.1,11.15-18.21,22.29-27.31,33.44-.28-.22-.55-.44-.83-.66c8.87-11.32,17.75-22.64,26.62-33.96.5.39,1.01.78,1.52,1.18Z" fill="#fff"/><path d="M1027.96,619.11c-4.44,3.61-6.62,3.55-11.22-.13c3.75-3.58,6.26-3.6,11.22.13Z" fill="#fff"/><path d="M1013.8,605.83c-3.03-3.57-3.41-6.86-1.25-9.81c1-1.37,1.63-1.42,2.65.06c2.14,3.12,1.76,6.33-1.4,9.75Z" fill="#fff"/><path d="M940.8,584.82c-4.76-1.98-8.63-5.03-11.23-9.56c4.52,2.26,8.06,5.7,11.23,9.56Z" fill="#fff"/><path d="M1019.66,593.56c.14-1.65.4-3.5,1.8-3.47c1.89.03,2.24,2.14,2.28,3.65.04,1.42-.52,3.56-2.04,3.46-1.84-.12-1.75-2.36-2.04-3.64Z" fill="#fff"/><path d="M977.43,663.64c-3.45,5.07-6.9,10.14-10.34,15.21-.3-.2-.6-.4-.9-.6c3.42-5.13,6.84-10.26,10.27-15.39.32.26.64.52.97.78Z" fill="#fff"/><path d="M1030.93,610.04c-1.6,1.9-3.37,2.61-5.62,1.28-.56-.33-1.27-.96-.64-1.51c2.03-1.79,4.13-1.45,6.26.23Z" fill="#fff"/><path d="M1029.86,602.03c2.25-1.98,4.2-2.27,6.24-.62.55.44.4,1.05-.03,1.4-2.12,1.71-3.97.85-6.21-.78Z" fill="#fff"/><path d="M924.16,573.37c.68,2.75,1.58,4.99,3.88,7.77-3.09-1.23-4.42-2.82-5.4-4.79-.8-1.63.67-1.95,1.52-2.98Z" fill="#fff"/><path d="M943.48,717.27c-.4,4.17-2.52,7.53-4.32,11.04-.32-.15-.64-.3-.95-.45c1.75-3.53,3.51-7.06,5.27-10.59Z" fill="#fff"/><path d="M1016.06,715.04c-1.83-3.46-3.67-6.92-5.5-10.37.28-.15.56-.3.84-.44c1.93,3.43,3.85,6.86,5.78,10.28-.37.18-.74.36-1.12.53Z" fill="#fff"/><path d="M949.98,705.2c-.63,4.16-2.57,7.45-4.6,10.7-.31-.15-.61-.31-.92-.46c1.84-3.42,3.68-6.83,5.52-10.24Z" fill="#fff"/><path d="M1047.83,574.17c-.35,1.24-1.46,2.16-3,2.47-.89.18-1.13-.51-.89-1.28.47-1.5,1.29-2.7,3.01-2.86.93-.09,1.06.56.88,1.67Z" fill="#fff"/><path d="M993.6,640.69c1.25-2.87,3.19-5.17,5.48-7.21-.95,3.04-3.12,5.22-5.48,7.21Z" fill="#fff"/><path d="M990.11,645.18c-1.45,2.71-3.06,5.29-5.62,7.15c1.25-2.87,3.13-5.25,5.62-7.15Z" fill="#fff"/><path d="M1040.92,594.36c-1.37,1.26-2.65,1.82-4.18,1.01-.57-.31-.58-.93-.15-1.34c1.4-1.36,2.8-1.24,4.33.33Z" fill="#fff"/><path d="M1033.96,583.96c-.99-2.13-3.99-3.55-2.01-7.36.24,3.03,1.42,5.09,2.01,7.36Z" fill="#fff"/><path d="M1029.23,587.51c-1.24-.05-1.31-.89-1.29-1.7.03-.91-.09-2.15,1.01-2.36c1.19-.23,1.38,1.01,1.53,1.87.19,1.04-.45,1.73-1.25,2.19Z" fill="#fff"/><path d="M937.36,388.77c7.42-.27,13.55-3.33,18.97-8.31c3.42-3.14,7.71-4.49,12.8-4.37-1.79,2.28-4.5,2.6-6.35,4.09-2.65,2.14-7.37,2.35-6.71,7.84.2,1.67-3.01.97-4.64,1.08-2.6.19-4.75.44-3.6,4.37-3.89-1.77-7.2-3.27-10.52-4.79-.01,0,.05.09.05.09Z" fill="#2f2e2a"/><path d="M970.46,339.63c.34-.18.74-.59,1.01-.52c6.31,1.65,11.4-.34,15.85-5.96.03,3.81.12,5.76-3.13,8.33-4.75,3.75-7.34.44-10.8-.75-1.01-.35-2-.78-3-1.18c0-.01.07.08.07.08Z" fill="#353431"/><path d="M967.14,313.45c4.15,0,8.31,0,12.46,0c.09.27.18.53.27.8-2.13,1.54-4.27,3.07-6.4,4.61-1.16.84-1.97.41-2.7-.64-1.16-1.64-2.37-3.23-3.56-4.84.01-.01-.07.07-.07.07Z" fill="#2b2a25"/><path d="M848.44,695.34c-5.44.03-9.48-3.78-9.59-9.04-.12-5.38,4.13-9.85,9.4-9.88c5.3-.03,9.77,4.26,9.92,9.49.13,5.16-4.25,9.4-9.73,9.43Z" fill="#2c2c28"/><path d="M715.83,695.34c-5.55-.06-9.43-3.81-9.46-9.17-.04-5.4,4.21-9.73,9.55-9.75c5.7-.02,9.61,4.12,9.51,10.05-.1,5.43-3.9,8.94-9.6,8.87Z" fill="#2c2c27"/><path d="M853.24,685.91c-.35,3.33-2.12,5.12-5.1,4.94-2.68-.16-4.52-1.74-4.49-4.78.03-3.31,2.16-4.69,4.98-4.62c2.7.08,4.44,1.79,4.61,4.46Z" fill="#f3f3f1"/><path d="M711.28,685.6c.34-2.49,2.04-4.21,4.78-4.16s4.5,1.82,4.65,4.68c.14,2.56-2.53,5.14-5.01,4.75-2.67-.42-4.4-1.96-4.42-5.27Z" fill="#f3f2f1"/></g></g></svg>
