<?xml version="1.0" encoding="UTF-8" standalone="no"?>
<!-- Created with Inkscape (http://www.inkscape.org/) -->

<svg
   width="1922"
   height="743"
   viewBox="0 0 508.52915 196.58541"
   version="1.1"
   id="svg1"
   xml:space="preserve"
   inkscape:version="1.3.2 (1:1.3.2+202311252150+091e20ef0f)"
   sodipodi:docname="Subtraction_3_v2.svg"
   xmlns:inkscape="http://www.inkscape.org/namespaces/inkscape"
   xmlns:sodipodi="http://sodipodi.sourceforge.net/DTD/sodipodi-0.dtd"
   xmlns="http://www.w3.org/2000/svg"
   xmlns:svg="http://www.w3.org/2000/svg"><sodipodi:namedview
     id="namedview1"
     pagecolor="#ffffff"
     bordercolor="#000000"
     borderopacity="0.25"
     inkscape:showpageshadow="2"
     inkscape:pageopacity="0.0"
     inkscape:pagecheckerboard="0"
     inkscape:deskcolor="#d1d1d1"
     inkscape:document-units="px"
     inkscape:zoom="0.68684764"
     inkscape:cx="1008.9574"
     inkscape:cy="488.46349"
     inkscape:window-width="1680"
     inkscape:window-height="1013"
     inkscape:window-x="0"
     inkscape:window-y="0"
     inkscape:window-maximized="1"
     inkscape:current-layer="layer1" /><defs
     id="defs1" /><g
     inkscape:label="Layer 1"
     inkscape:groupmode="layer"
     id="layer1"><path
       id="Subtraction_1"
       data-name="Subtraction 1"
       d="m -1.1025051,196.07399 v 0 V -0.24684005 L 56.154158,3.7824999 c 18.065461,1.27 36.870359,2.24261 55.892522,2.88687 18.90291,0.64029 38.23396,0.96493 57.45613,0.96493 29.65979,0 59.15119,-0.76438 87.65429,-2.27171 28.50309,-1.50733 57.99211,-2.27145 87.65031,-2.27145 20.50448,0 41.10167,0.36883 61.21599,1.09644 20.2495,0.73236 40.19862,1.83515 59.29329,3.27739 l 43.53698,3.2887701 v 174.31941 l -57.2572,4.02934 c -18.06519,1.27132 -36.87062,2.24261 -55.89384,2.88687 -18.9037,0.64029 -38.23529,0.96493 -57.45746,0.96493 -29.65713,0 -59.14747,-0.76411 -87.65189,-2.27171 -28.50443,-1.5076 -57.99371,-2.27171 -87.6527,-2.27171 -20.5045,0 -41.10142,0.36883 -61.21493,1.09643 -20.249781,0.73237 -40.198361,1.83515 -59.291973,3.27739 z"
       fill="#2688ba"
       stroke="rgba(0,0,0,0)"
       stroke-width="0.265092" /></g></svg>
