<svg xmlns="http://www.w3.org/2000/svg" width="43" height="43" viewBox="0 0 43 43">
  <g id="Group_15457" data-name="Group 15457" transform="translate(-706.443 -4074.443)">
    <circle id="Ellipse_20" data-name="Ellipse 20" cx="21.5" cy="21.5" r="21.5" transform="translate(706.443 4074.443)" fill="#62c756"/>
    <path id="Icon_akar-whatsapp-fill" data-name="Icon akar-whatsapp-fill" d="M16.373,13.52c-.28-.14-1.654-.815-1.909-.909s-.442-.139-.629.141-.721.908-.884,1.094-.326.21-.605.071A7.67,7.67,0,0,1,10.1,12.53a8.409,8.409,0,0,1-1.554-1.936c-.163-.279-.018-.431.122-.57s.279-.326.419-.489a1.894,1.894,0,0,0,.279-.467.509.509,0,0,0-.024-.489c-.07-.14-.628-1.515-.861-2.075-.227-.544-.457-.47-.628-.479s-.35-.009-.536-.009a1.024,1.024,0,0,0-.745.35A3.129,3.129,0,0,0,5.594,8.7a5.436,5.436,0,0,0,1.14,2.89A12.456,12.456,0,0,0,11.507,15.8a15.964,15.964,0,0,0,1.593.588,3.815,3.815,0,0,0,1.76.111,2.88,2.88,0,0,0,1.886-1.328,2.342,2.342,0,0,0,.163-1.328c-.07-.117-.256-.186-.536-.326Zm-5.1,6.959h0a9.282,9.282,0,0,1-4.732-1.3l-.337-.2-3.518.923.939-3.429L3.4,16.125a9.293,9.293,0,1,1,7.873,4.354Zm7.909-17.2a11.183,11.183,0,0,0-17.6,13.489L0,22.562l5.927-1.555a11.171,11.171,0,0,0,5.344,1.361h0A11.185,11.185,0,0,0,19.184,3.279" transform="translate(716.716 4084.663)" fill="#fff"/>
  </g>
</svg>
