<svg xmlns="http://www.w3.org/2000/svg" xmlns:xlink="http://www.w3.org/1999/xlink" id="logo_jal" width="157.827" height="50.763" viewBox="0 0 157.827 50.763">
  <defs fill="#fffbfb">
    <clipPath id="clip-path" fill="#fffbfb">
      <rect id="Rectangle_14" data-name="Rectangle 14" width="157.827" height="50.763" fill="none"/>
    </clipPath>
  </defs>
  <g id="Group_8" data-name="Group 8" clip-path="url(#clip-path)">
    <path id="Path_23" data-name="Path 23" d="M198.274,65.406a.474.474,0,0,1-.346.518,6.337,6.337,0,0,1-1.9.346,3.234,3.234,0,0,1-3.24-1.728,6.653,6.653,0,0,1-4.579,1.728,7.3,7.3,0,0,1-5.313-1.987,7.3,7.3,0,0,1,0-10.2,7.3,7.3,0,0,1,5.313-1.987,6.831,6.831,0,0,1,3.931,1.21v-.389a.388.388,0,0,1,.432-.432h2.549a.387.387,0,0,1,.432.432V62.3a1.017,1.017,0,0,0,.259.734.982.982,0,0,0,.692.26,4.842,4.842,0,0,0,1.036-.13c.3-.043.476.043.518.346Zm-10.023-1.944a3.541,3.541,0,0,0,2.808-1.21,5.019,5.019,0,0,0,0-6.221,3.6,3.6,0,0,0-2.808-1.21,3.786,3.786,0,0,0-2.895,1.21,4.869,4.869,0,0,0,0,6.221,3.945,3.945,0,0,0,2.895,1.21" transform="translate(-102.702 -29.592)" fill="#ffffff"/>
    <path id="Path_24" data-name="Path 24" d="M229.708,58.332a4.36,4.36,0,0,1-2.808-.864,2.651,2.651,0,0,1-1.08-2.247V38.632a.388.388,0,0,1,.432-.432H228.8a.388.388,0,0,1,.432.432V54.358a1.018,1.018,0,0,0,.259.734.983.983,0,0,0,.692.259,5.182,5.182,0,0,0,1.036-.13c.3-.043.476.043.518.346l.216,1.944a.437.437,0,0,1-.346.518,7.873,7.873,0,0,1-1.9.3" transform="translate(-128.26 -21.697)" fill="#ffffff"/>
    <path id="Path_25" data-name="Path 25" d="M245.736,40.988a2.122,2.122,0,0,1-1.512-.562,1.778,1.778,0,0,1-.6-1.382,1.937,1.937,0,0,1,.6-1.382,2.054,2.054,0,0,1,1.512-.562,2.194,2.194,0,0,1,1.512.562,1.8,1.8,0,0,1,0,2.765,2.121,2.121,0,0,1-1.512.562m2.2,16.719a4.358,4.358,0,0,1-2.808-.864,2.65,2.65,0,0,1-1.08-2.247V44.315a.388.388,0,0,1,.432-.432h2.548a.387.387,0,0,1,.432.432V53.69a1.016,1.016,0,0,0,.26.734.979.979,0,0,0,.691.26,5.222,5.222,0,0,0,1.037-.13c.3-.043.475.043.518.346l.216,1.944a.437.437,0,0,1-.346.518,6.575,6.575,0,0,1-1.9.346" transform="translate(-138.37 -21.072)" fill="#ffffff"/>
    <path id="Path_26" data-name="Path 26" d="M267.719,66.17A8.089,8.089,0,0,1,263.139,65a4.409,4.409,0,0,1-2.03-3.24c-.043-.3.086-.432.432-.432l2.333.043a.421.421,0,0,1,.432.346c.389,1.253,1.555,1.858,3.413,1.858a3.607,3.607,0,0,0,1.944-.432,1.3,1.3,0,0,0,.734-1.08,1.218,1.218,0,0,0-.907-1.166,11.623,11.623,0,0,0-2.2-.562c-.864-.13-1.728-.26-2.592-.432a4.215,4.215,0,0,1-2.2-1.166,3.366,3.366,0,0,1-.907-2.506,3.607,3.607,0,0,1,1.6-3.067,8.381,8.381,0,0,1,8.381-.086,4.179,4.179,0,0,1,1.944,2.851c.044.3-.086.432-.432.432h-2.332c-.26,0-.389-.086-.432-.259a2.174,2.174,0,0,0-1.037-1.21,4.03,4.03,0,0,0-3.629-.086,1.219,1.219,0,0,0-.691,1.037,1.253,1.253,0,0,0,.648,1.123,4.344,4.344,0,0,0,1.6.518c.648.087,1.339.173,2.117.346a21.305,21.305,0,0,1,2.117.562,3.284,3.284,0,0,1,1.6,1.166,3.515,3.515,0,0,1,.648,2.2,3.8,3.8,0,0,1-1.642,3.154,6.677,6.677,0,0,1-4.32,1.253" transform="translate(-148.299 -29.535)" fill="#ffffff"/>
    <path id="Path_27" data-name="Path 27" d="M301.551,66.17a7.53,7.53,0,0,1-5.4-1.944,7.525,7.525,0,0,1,0-10.282,7.46,7.46,0,0,1,5.4-1.944,7.654,7.654,0,0,1,4.493,1.3,5.55,5.55,0,0,1,2.29,3.5c.044.3-.043.432-.346.432h-2.635a.42.42,0,0,1-.432-.346,2.6,2.6,0,0,0-1.21-1.426,4.129,4.129,0,0,0-2.074-.562,3.776,3.776,0,0,0-2.895,1.166,4.227,4.227,0,0,0-1.08,3.067,4.494,4.494,0,0,0,1.08,3.067,3.841,3.841,0,0,0,2.895,1.166,3.546,3.546,0,0,0,2.074-.562,3.168,3.168,0,0,0,1.21-1.426c.086-.259.216-.345.432-.345h2.635c.3,0,.432.129.346.432a5.491,5.491,0,0,1-2.29,3.5,8.189,8.189,0,0,1-4.493,1.21" transform="translate(-167.054 -29.535)" fill="#ffffff"/>
    <path id="Path_28" data-name="Path 28" d="M343.752,64.226a8.473,8.473,0,0,1-10.8,0,6.707,6.707,0,0,1-2.031-5.141,6.864,6.864,0,0,1,2.031-5.141,8.472,8.472,0,0,1,10.8,0,6.709,6.709,0,0,1,2.03,5.141,6.708,6.708,0,0,1-2.03,5.141m-8.339-2.117a3.843,3.843,0,0,0,2.938,1.124,4.078,4.078,0,0,0,2.938-1.124,4.215,4.215,0,0,0,1.123-3.024,4.145,4.145,0,0,0-1.123-3.024,4.4,4.4,0,0,0-5.876,0,4.147,4.147,0,0,0-1.123,3.024,4.411,4.411,0,0,0,1.123,3.024" transform="translate(-187.955 -29.535)" fill="#ffffff"/>
    <path id="Path_29" data-name="Path 29" d="M155.285,38.7a.433.433,0,0,1,.432.432V51.185a7.262,7.262,0,0,1-2.074,5.487,9.03,9.03,0,0,1-10.844.346,6.146,6.146,0,0,1-2.29-4.363c-.043-.3.086-.432.432-.432h2.722a.4.4,0,0,1,.432.389,3.223,3.223,0,0,0,1.339,2.16,4.381,4.381,0,0,0,2.765.821,3.649,3.649,0,0,0,2.851-1.21,4.665,4.665,0,0,0,1.08-3.24V42.675c0-1.123-1.21-1.339-1.944-1.382h-.216a.372.372,0,0,1-.346-.346v-1.9a.372.372,0,0,1,.346-.346Z" transform="translate(-79.802 -21.981)" fill="#ffffff"/>
    <path id="Path_30" data-name="Path 30" d="M158.467,101.1a1.9,1.9,0,0,1,1.987,1.382h-.734a1.284,1.284,0,0,0-1.253-.734,1.466,1.466,0,0,0-1.469,1.6,1.443,1.443,0,0,0,1.469,1.6,1.25,1.25,0,0,0,1.426-1.166H158.51v-.648h2.074c.043,1.339-.6,2.463-2.117,2.463a2.247,2.247,0,1,1,0-4.493" transform="translate(-88.729 -57.422)" fill="#ffffff"/>
    <path id="Path_31" data-name="Path 31" d="M171.067,105.692a2.247,2.247,0,1,1,2.247-2.247,2.132,2.132,0,0,1-2.247,2.247m0-.691a1.463,1.463,0,0,0,1.512-1.556,1.5,1.5,0,0,0-1.512-1.6,1.475,1.475,0,0,0-1.512,1.6A1.439,1.439,0,0,0,171.067,105" transform="translate(-95.886 -57.479)" fill="#ffffff"/>
    <path id="Path_32" data-name="Path 32" d="M185.1,103.473a.992.992,0,0,1,.691,1.037,1.272,1.272,0,0,1-1.383,1.3H182.42V101.4h1.814a1.218,1.218,0,0,1,1.382,1.253.933.933,0,0,1-.518.82m-1.944-1.512v1.253h.994c.432,0,.691-.173.734-.605,0-.432-.3-.648-.734-.648Zm0,1.858v1.3h1.21a.659.659,0,0,0,.734-.648.715.715,0,0,0-.216-.518.9.9,0,0,0-.562-.13Z" transform="translate(-103.61 -57.592)" fill="#ffffff"/>
    <path id="Path_33" data-name="Path 33" d="M194.98,105.045v.6h-2.16v-.6h.692V101.8h-.648v-.6h2.031v.6h-.648v3.24Z" transform="translate(-109.517 -57.479)" fill="#ffffff"/>
    <path id="Path_34" data-name="Path 34" d="M203.6,101.948h-1.944v1.166h1.858v.648h-1.858v1.3h1.987v.648H200.92V101.3H203.6Z" transform="translate(-114.118 -57.536)" fill="#ffffff"/>
    <path id="Path_35" data-name="Path 35" d="M214.32,105.62v.086h-.735l-1.08-1.556h-.95v1.556h-.734V101.3h1.814a1.408,1.408,0,0,1,1.512,1.426,1.468,1.468,0,0,1-.907,1.339Zm-1.772-2.074a.821.821,0,0,0,0-1.642h-1.08v1.642Z" transform="translate(-119.741 -57.536)" fill="#ffffff"/>
    <path id="Path_36" data-name="Path 36" d="M222.511,102.569l.043,1.382v1.6h-.735V101.1h.26l2.679,2.981-.043-1.34v-1.6h.734v4.45h-.216Z" transform="translate(-125.988 -57.423)" fill="#ffffff"/>
    <path id="Path_37" data-name="Path 37" d="M235.767,105.692a2.247,2.247,0,1,1,2.247-2.247,2.132,2.132,0,0,1-2.247,2.247m0-.691a1.463,1.463,0,0,0,1.512-1.556,1.5,1.5,0,0,0-1.512-1.6,1.475,1.475,0,0,0-1.512,1.6A1.439,1.439,0,0,0,235.767,105" transform="translate(-132.634 -57.479)" fill="#ffffff"/>
    <path id="Path_38" data-name="Path 38" d="M253.719,101.3a2.2,2.2,0,0,1,0,4.407h-1.6V101.3Zm0,3.759a1.561,1.561,0,0,0,0-3.111h-.864v3.067h.864Z" transform="translate(-143.199 -57.536)" fill="#ffffff"/>
    <path id="Path_39" data-name="Path 39" d="M266.8,101.948h-1.944v1.166h1.858v.648h-1.858v1.3h1.988v.648h-2.722V101.3H266.8Z" transform="translate(-150.014 -57.536)" fill="#ffffff"/>
    <path id="Path_40" data-name="Path 40" d="M274.554,105.059h1.9v.648H273.82V101.3h.734Z" transform="translate(-155.523 -57.536)" fill="#ffffff"/>
    <path id="Path_41" data-name="Path 41" d="M289.9,101.948h-1.944v1.166h1.858v.648h-1.858v1.3h1.987v.648H287.22V101.3H289.9Z" transform="translate(-163.134 -57.536)" fill="#ffffff"/>
    <path id="Path_42" data-name="Path 42" d="M297.011,104.4c.043.518.562.648,1.036.648s1.037-.13,1.037-.648c0-.6-.605-.648-1.123-.691-.821-.086-1.6-.346-1.6-1.21,0-.907.82-1.3,1.685-1.3s1.642.389,1.642,1.3H299c-.043-.475-.562-.648-.994-.648-.389,0-.907.13-.907.648s.518.562.994.648c.907.086,1.728.259,1.728,1.3,0,.95-.908,1.3-1.728,1.3-.864,0-1.772-.389-1.772-1.3Z" transform="translate(-168.302 -57.479)" fill="#ffffff"/>
    <path id="Path_43" data-name="Path 43" d="M306.52,101.948V101.3H309.8v.648h-1.3v3.759h-.735v-3.759Z" transform="translate(-174.096 -57.536)" fill="#ffffff"/>
    <path id="Path_44" data-name="Path 44" d="M316.13,104.742l-.432.908h-.777v-.086l2.031-4.364h.346l2.03,4.364v.086h-.778l-.432-.908Zm.259-.6h1.556l-.778-1.772Z" transform="translate(-178.868 -57.479)" fill="#ffffff"/>
    <path id="Path_45" data-name="Path 45" d="M329.418,101.3a2.2,2.2,0,0,1,0,4.407h-1.6V101.3Zm-.043,3.759a1.561,1.561,0,0,0,0-3.111h-.864v3.067h.864Z" transform="translate(-186.193 -57.536)" fill="#ffffff"/>
    <path id="Path_46" data-name="Path 46" d="M341.367,105.692a2.247,2.247,0,1,1,2.247-2.247,2.131,2.131,0,0,1-2.247,2.247m0-.691a1.463,1.463,0,0,0,1.512-1.556,1.5,1.5,0,0,0-1.512-1.6,1.476,1.476,0,0,0-1.512,1.6A1.44,1.44,0,0,0,341.367,105" transform="translate(-192.613 -57.479)" fill="#ffffff"/>
    <rect id="Rectangle_13" data-name="Rectangle 13" width="0.864" height="31.538" transform="translate(54.184 16.719)" fill="#ffffff"/>
    <path id="Path_47" data-name="Path 47" d="M55.12,13.924v2.247a2.616,2.616,0,0,1,.907,0V13.924a1.823,1.823,0,0,0-.907,0" transform="translate(-31.307 -7.876)" fill="#ffffff"/>
    <path id="Path_48" data-name="Path 48" d="M33.245,6.653A.441.441,0,0,0,33.461,7a7.491,7.491,0,0,0,2.981.691,6.925,6.925,0,0,0,3.888-1.253,5.311,5.311,0,0,1,5.53-.216,2.027,2.027,0,0,1-1.469.562h-.346V7.6h.346a2.786,2.786,0,0,0,2.419-1.253.324.324,0,0,0,.043-.216V1.382a.393.393,0,0,0-.173-.346,6.136,6.136,0,0,0-6.826,0,5.944,5.944,0,0,1-6.092.518.474.474,0,0,0-.518.13.4.4,0,0,0,.086.518L35.924,4.45l-2.592,1.9a.323.323,0,0,0-.086.3m3.586-1.9A.437.437,0,0,0,37,4.45a.392.392,0,0,0-.13-.3L35.362,2.808a6.482,6.482,0,0,0,4.968-1.166,5.5,5.5,0,0,1,5.746-.13V5.357a6.1,6.1,0,0,0-6.178.389,6.133,6.133,0,0,1-5.443.778Z" transform="translate(-18.85)" fill="#ffffff"/>
    <path id="Path_49" data-name="Path 49" d="M53.984,6.035h.907V5.171h.864V4.264h-.864V3.4h-.907v.864H53.12v.907h.864Z" transform="translate(-30.171 -1.931)" fill="#ffffff"/>
    <path id="Path_50" data-name="Path 50" d="M43.729,48.541c.3-.346.6-.691.864-1.037a19.2,19.2,0,0,0,3.24-4.536,8.279,8.279,0,0,0,.778-4.45,7.124,7.124,0,0,0-4.147-5.53,3.436,3.436,0,0,0,.475-2.074.419.419,0,0,0-.3-.346.6.6,0,0,0-.475.086,1.958,1.958,0,0,1-.821.475,1.78,1.78,0,0,1-.95-.043h-.043a8.691,8.691,0,0,0-2.981-.562,11.385,11.385,0,0,0-1.21.086v-.043a3.289,3.289,0,0,0-.13-.907.389.389,0,0,0-.259-.259.42.42,0,0,0-.389.043,1.408,1.408,0,0,1-.562.173h-.13c-.259,0-.475-.043-.648-.043a6.38,6.38,0,0,0-.907.043,6.707,6.707,0,0,0-.907.173,4.606,4.606,0,0,0-.821.3,6.99,6.99,0,0,0-.778.432c-.259.173-.475.346-.734.518a4.3,4.3,0,0,0-.648.6,3.894,3.894,0,0,0-.389.432,1.784,1.784,0,0,0-.3.475c-.216.3-.389.648-.6.95l-.086.086-.043.043-.043.043c-.043.086-.13.173-.173.259-.086.086-.13.173-.216.259a2.8,2.8,0,0,0-.346.389l-.13.13a1.146,1.146,0,0,1-.259.216c-.043,0-.043.043-.086.043l-1.339-.907-.216-1.3a3.8,3.8,0,0,0,.259-.432l.043-.086a.944.944,0,0,1,.13-.216l.043-.043c.043-.086.043-.13.086-.216,0-.043.043-.043.043-.086s.043-.043.043-.086l.389-.086.3-2.16-.389-.086a.389.389,0,0,0-.043-.216c0-.086-.043-.173-.043-.259a3.676,3.676,0,0,0-.259-.734V28.02a3.049,3.049,0,0,0-1.555-1.382h-.043a.042.042,0,0,1,.043-.043c0-.043.043-.086.043-.13a2.892,2.892,0,0,1,1.253-1.339,3.362,3.362,0,0,1,.13.389.411.411,0,0,0,.432.259.467.467,0,0,0,.3-.13c.173-.086.259-.259.389-.432a2.907,2.907,0,0,0,.216-2.722,1.915,1.915,0,0,0-1.685-1.21,1.56,1.56,0,0,0-.734.13,2.125,2.125,0,0,0-1.9-1.21,2.053,2.053,0,0,0-1.9,1.21,2.4,2.4,0,0,0-.734-.13,2.044,2.044,0,0,0-1.685,1.21,2.9,2.9,0,0,0,.216,2.722,1.225,1.225,0,0,0,.389.432c.086.043.216.086.3.13a.411.411,0,0,0,.432-.259,3.361,3.361,0,0,1,.13-.389,2.892,2.892,0,0,1,1.253,1.339.159.159,0,0,1,.043.13.042.042,0,0,0,.043.043h-.043a2.732,2.732,0,0,0-1.555,1.382v.043a2.127,2.127,0,0,0-.259.734.548.548,0,0,0-.043.259.389.389,0,0,1-.043.216l-.389.086.3,2.16.389.086c0,.043.043.043.043.086s.043.043.043.086c.043.086.043.13.086.216l.043.043a.944.944,0,0,0,.13.216l.043.086c.086.13.173.3.259.432l-.216,1.253-1.339.907a5.564,5.564,0,0,1-.734-.691l-.13-.13c-.13-.173-.3-.346-.432-.518L19.1,33.55l-.043-.043-.043-.043-.086-.086c-.216-.3-.389-.648-.6-.95-.086-.173-.216-.3-.3-.475a1.857,1.857,0,0,0-.389-.432,8.3,8.3,0,0,0-.648-.6c-.216-.173-.475-.346-.734-.518a6.99,6.99,0,0,0-.778-.432,6.3,6.3,0,0,0-.821-.3,6.707,6.707,0,0,0-.907-.173,6.379,6.379,0,0,0-.907-.043,3.73,3.73,0,0,0-.648.043h-.13a.868.868,0,0,1-.562-.173.61.61,0,0,0-.389-.043.389.389,0,0,0-.259.259,3.289,3.289,0,0,0-.13.907v.086A7.487,7.487,0,0,0,9.34,30.4a7.779,7.779,0,0,0-2.981.562H6.316a1.439,1.439,0,0,1-.95.043,1.591,1.591,0,0,1-.821-.475.394.394,0,0,0-.475-.086.484.484,0,0,0-.3.346,3.158,3.158,0,0,0,.475,2.074,6.952,6.952,0,0,0-4.191,5.53,8.212,8.212,0,0,0,.778,4.45,21.573,21.573,0,0,0,3.24,4.536c.3.346.6.691.864,1.037.086.13.216.216.3.346.734.864,1.6,1.858,1.6,2.765a1.476,1.476,0,0,1-1.6,1.6,2.549,2.549,0,0,1-.6-.086.548.548,0,0,0-.259-.043,1.047,1.047,0,0,0-1.08.648.548.548,0,0,0-.259.043.935.935,0,0,0-.648.95v.043A5.1,5.1,0,0,0,7.31,59.169H7.4a5.212,5.212,0,0,0,3.111-1.08l.043.043a.853.853,0,0,0,.6.259.83.83,0,0,0,.518-.173,5.219,5.219,0,0,0,1.642-1.858c.043-.043.043-.13.086-.173.043.043.043.086.086.173s.13.216.173.3a12.745,12.745,0,0,0,10.757,5.573,12.851,12.851,0,0,0,10.757-5.573c.043-.086.13-.216.173-.3.043-.043.043-.086.086-.173.043.043.043.13.086.173a5.219,5.219,0,0,0,1.642,1.858,1.228,1.228,0,0,0,.518.173.784.784,0,0,0,.6-.259l.043-.043a4.945,4.945,0,0,0,3.111,1.08h.086a5.066,5.066,0,0,0,4.925-4.493v-.043a.889.889,0,0,0-.648-.95c-.086,0-.173-.043-.259-.043a.966.966,0,0,0-1.08-.648.548.548,0,0,0-.259.043A1.67,1.67,0,0,1,42,51.522c0-.95.864-1.9,1.6-2.765-.043.043.043-.086.13-.216M39.366,31.433a8.137,8.137,0,0,1,2.679.475l.086.043a2.447,2.447,0,0,0,1.469.086,2.106,2.106,0,0,0,.475-.173,3.118,3.118,0,0,1-.389.864,12.592,12.592,0,0,0-1.728-.216A6.374,6.374,0,0,0,36.6,35.494a.915.915,0,0,0-.95-.648H33.1a7.416,7.416,0,0,1,6.264-3.413m.907,10.757c.043.086.043.13.086.216a2.617,2.617,0,0,0,2.506,1.642h.086c-1.9,1.944-4.536,2.981-6.351,4.968V42.06l.173-.173c.518-.518.994-1.123,1.512-1.642a4.857,4.857,0,0,1,2.851-1.6,2.315,2.315,0,0,1,1.339.173,1.294,1.294,0,0,1,.518.562,1.2,1.2,0,0,1-.259,1.382c-.043.043-.086.043-.13.086a1.032,1.032,0,0,1-.6.216,1.47,1.47,0,0,1-.432-.043,2.229,2.229,0,0,0-.475-.086,1.055,1.055,0,0,0-.648.346.875.875,0,0,0-.173.907M27.356,30.05l-.086.778-.432.086L26.448,31V29.834l.518.13a1.261,1.261,0,0,0,.389.086m-3.067,2.29h0l2.247-.475a3.223,3.223,0,0,1-.3.518c-.086.13-.173.216-.259.346a2.406,2.406,0,0,1-1.685.95,2.263,2.263,0,0,1-1.685-.95,2.4,2.4,0,0,1-.259-.346,3.223,3.223,0,0,1-.3-.518Zm-1.339-1.166V29.618c.346-.086.648-.173.907-.216v1.944Zm1.771.173v-1.9c.259.043.562.13.907.216v1.512Zm-2.895-7a1.732,1.732,0,0,1,.648-.6,2.685,2.685,0,0,0-1.685.821,2.271,2.271,0,0,1,0-1.685,1.066,1.066,0,0,1,.907-.691,1.966,1.966,0,0,1,.907.216,2.711,2.711,0,0,1,1.339,1.728,2.829,2.829,0,0,0-.562-1.987c-.086-.086-.13-.173-.216-.259a1.239,1.239,0,0,1,2.333,0,1.146,1.146,0,0,0-.216.259,2.8,2.8,0,0,0-.562,1.987A2.58,2.58,0,0,1,26.06,22.4a1.417,1.417,0,0,1,.907-.216,1,1,0,0,1,.907.691,2.271,2.271,0,0,1,0,1.685,2.685,2.685,0,0,0-1.685-.821,1.732,1.732,0,0,1,.648.6A3.538,3.538,0,0,0,25.2,26.076c-.043.043-.043.086-.086.173,0,.043-.043.086-.043.13a3.445,3.445,0,0,1-.691-.346c-.259.13-.475.259-.691.346,0-.043-.043-.086-.043-.13-.043-.043-.043-.086-.086-.173a4.427,4.427,0,0,0-1.728-1.728m1.253,3.111c.173-.086.389-.13.6-.216s.389-.216.562-.3c.173.086.389.216.562.3.216.086.389.13.6.216a2.25,2.25,0,0,1,1.382,1.6c-2.333-.562-2.506-.6-2.549-.6s-.216.043-2.549.6a2.346,2.346,0,0,1,1.382-1.6m-1.814,3.37h0l-.086-.778c.13-.043.259-.043.389-.086l.518-.13V31l-.389-.086Zm.994,3.715.13-.734a.042.042,0,0,1,.043.043,2.667,2.667,0,0,0,1.814.778,2.587,2.587,0,0,0,1.814-.778l.043-.043.13.778,1.469.994c-.086.043-.13.086-.216.13a7.925,7.925,0,0,1-1.987.778,6.67,6.67,0,0,1-1.3.173,9.939,9.939,0,0,1-1.123-.13,7.622,7.622,0,0,1-2.031-.778c-.086-.043-.216-.13-.3-.173ZM4.8,32.037a2.447,2.447,0,0,0,1.469-.086l.086-.043a7.157,7.157,0,0,1,2.679-.475,7.547,7.547,0,0,1,6.308,3.413H12.8a1.006,1.006,0,0,0-.95.648,6.318,6.318,0,0,0-5.357-2.981,12.592,12.592,0,0,0-1.728.216,2.227,2.227,0,0,1-.389-.864,1.805,1.805,0,0,0,.432.173M12.84,54.2a.389.389,0,0,1-.043.216v.043c0,.086-.043.13-.043.216a3.492,3.492,0,0,1-.3.95v.043c-.043.043-.043.13-.086.173,0,.043-.043.086-.043.13A4.735,4.735,0,0,1,10.9,57.613a4.542,4.542,0,0,0,.864-2.722,4.46,4.46,0,0,0-.173-1.3,7.144,7.144,0,0,1-.821,2.722,4.25,4.25,0,0,1-3.629,2.117H7.094a4.216,4.216,0,0,1-4.061-3.715l.043.043a3.09,3.09,0,0,0,5.66-1.512A2.946,2.946,0,0,1,7.4,54.805H7.353a2.643,2.643,0,0,1-.518.216A2.3,2.3,0,0,1,3.81,53.9a.327.327,0,0,1,.173.086c.13.043.259.086.432.13a1.772,1.772,0,0,0,.475.043h.648a.327.327,0,0,0,.173-.043,2.5,2.5,0,0,0,.6-.216,2.031,2.031,0,0,0,.518-.389,1.632,1.632,0,0,0,.389-.518c.086-.216.173-.389.259-.6a3.781,3.781,0,0,0,.086-.691c0-1.426-1.253-2.679-2.117-3.715a25.55,25.55,0,0,1-4.018-5.357,7.414,7.414,0,0,1-.691-3.975,6,6,0,0,1,5.876-5.271,5.248,5.248,0,0,1,5.314,4.8v2.463A14.716,14.716,0,0,0,9.9,38.647c-1.166-.821-2.895-1.426-4.234-.691a2.264,2.264,0,0,0-.778,3.24,2.061,2.061,0,0,0,2.333.734s-.475,1.555-2.333.864a1.751,1.751,0,0,1-.389-.216,3.731,3.731,0,0,1-.6-.562,2.4,2.4,0,0,1-.259-.346,3.206,3.206,0,0,1-.216-3.327,4.093,4.093,0,0,1,2.549-2.074,5.025,5.025,0,0,1,3.543.432,1.552,1.552,0,0,1,.432.3,2.164,2.164,0,0,1,.346.3,3.863,3.863,0,0,0-3.327-1.9,4.582,4.582,0,0,0-3.759,1.728A4.821,4.821,0,0,0,2.3,40.894a8.484,8.484,0,0,0,2.333,3.715A36.325,36.325,0,0,1,9.124,50.7a5.59,5.59,0,0,1,.691,2.765,3.664,3.664,0,0,1-3.5,3.672,3.27,3.27,0,0,0,.648.043,3.971,3.971,0,0,0,1.426-.259,4.021,4.021,0,0,0,1.9-1.685c1.642-3.067-.95-6.221-2.765-8.468-.13-.13-.691-.821-.95-1.123l2.117,1.512c.432.3.864.648,1.3.95a10.36,10.36,0,0,1,1.685,1.685A8.9,8.9,0,0,1,12.84,54.2M5.409,44H5.5A2.617,2.617,0,0,0,8,42.363c.043-.086.043-.13.086-.216a.973.973,0,0,0-.173-.907.82.82,0,0,0-.648-.346.855.855,0,0,0-.475.086,1.469,1.469,0,0,1-.432.043,1.032,1.032,0,0,1-.6-.216c-.043-.043-.086-.043-.13-.086a1.29,1.29,0,0,1-.259-1.382,1.081,1.081,0,0,1,.518-.562A2.315,2.315,0,0,1,7.223,38.6a5.4,5.4,0,0,1,2.851,1.6c.518.518.994,1.123,1.512,1.642.043.043.13.086.173.173v6.956C9.945,46.985,7.31,45.949,5.409,44M34.657,54.243v.043a4.869,4.869,0,0,0,.13.778,6.675,6.675,0,0,1-.518.95c-.043.086-.13.173-.173.259a11.739,11.739,0,0,1-9.937,5.141,11.8,11.8,0,0,1-9.937-5.141c-.043-.086-.13-.173-.173-.259-.173-.3-.346-.648-.518-.95l.13-.778v-.043a6.943,6.943,0,0,0-.994-3.931V35.71h4.1l-.518-.864a.042.042,0,0,0,.043.043,8.22,8.22,0,0,0-5.055-4.018c0-.086-.043-.173-.043-.3V30.4a1.87,1.87,0,0,0,.691.043c.216,0,.389-.043.562-.043h.13a6.445,6.445,0,0,1,.907.086,5.053,5.053,0,0,1,.864.216,3.533,3.533,0,0,1,.821.389,4.992,4.992,0,0,1,1.382,1.08c.216.216.389.475.6.734.216.3.389.648.6.95a6.733,6.733,0,0,0,.691.864,6.643,6.643,0,0,0,.518.562l.259.259.043.043a1.145,1.145,0,0,0,.259.216.042.042,0,0,1,.043.043c.086.086.173.13.259.216a.042.042,0,0,1,.043.043,1.829,1.829,0,0,0,.3.216h.043a9.068,9.068,0,0,0,1.3.648c.043,0,.043,0,.043.043.086.043.173.043.259.086.216.086.389.13.6.216a7.586,7.586,0,0,0,1.685.259,5.7,5.7,0,0,0,1.685-.259,2.5,2.5,0,0,0,.6-.216c.086-.043.173-.043.259-.086.043,0,.043,0,.043-.043a9.068,9.068,0,0,0,1.3-.648h.043c.086-.043.173-.13.3-.216a.042.042,0,0,0,.043-.043,1.146,1.146,0,0,0,.259-.216.042.042,0,0,0,.043-.043c.043,0,.043-.043.086-.086.043,0,.043-.043.086-.043.043-.043.086-.043.13-.086l.043-.043c.086-.086.173-.13.259-.216l.043-.043a3.2,3.2,0,0,0,.518-.562c.13-.13.216-.259.346-.389.043-.043.043-.043.043-.086.086-.13.173-.216.259-.346l.043-.043c.043-.043,0-.043.043-.043.043-.086.13-.173.173-.259l.389-.648a9.05,9.05,0,0,1,.6-.734,8.293,8.293,0,0,1,.648-.6,4.28,4.28,0,0,1,.734-.475c.259-.13.518-.259.821-.389a6.316,6.316,0,0,1,.864-.216,6.445,6.445,0,0,1,.907-.086h.13a2.657,2.657,0,0,1,.562.043,1.87,1.87,0,0,0,.691-.043v.432a8.279,8.279,0,0,0-5.227,4.1.042.042,0,0,1,.043-.043l-.518.864h4.1v14.6a7.754,7.754,0,0,0-.864,3.888m6.308-2.549a3.782,3.782,0,0,0,.086.691,1.515,1.515,0,0,0,.259.6,2.031,2.031,0,0,0,.389.518,4.053,4.053,0,0,0,.518.389,2.5,2.5,0,0,0,.6.216c.043,0,.086.043.173.043h.648a1.772,1.772,0,0,0,.475-.043c.13-.043.259-.086.432-.13.043-.043.13-.043.173-.086A2.3,2.3,0,0,1,41.7,55.021a1.87,1.87,0,0,1-.518-.216h-.043A2.946,2.946,0,0,1,39.8,53.25a3.077,3.077,0,0,0,3.067,2.895,3.152,3.152,0,0,0,2.592-1.382l.043-.043a4.25,4.25,0,0,1-4.061,3.715H41.4a4.213,4.213,0,0,1-3.629-2.117,5.9,5.9,0,0,1-.821-2.722,4.46,4.46,0,0,0-.173,1.3,4.852,4.852,0,0,0,.864,2.722,4.735,4.735,0,0,1-1.426-1.642.159.159,0,0,1-.043-.13c-.043-.043-.043-.13-.086-.173v-.043a8.064,8.064,0,0,1-.3-.95c0-.086-.043-.13-.043-.216v-.043a.389.389,0,0,0-.043-.216,6.316,6.316,0,0,1,1.469-4.32A15.511,15.511,0,0,1,38.848,48.2c.432-.346.864-.648,1.3-.95l2.117-1.512c-.259.3-.821.95-.95,1.123-1.815,2.247-4.45,5.4-2.765,8.468a3.469,3.469,0,0,0,1.9,1.685,4.147,4.147,0,0,0,1.426.259,3.27,3.27,0,0,0,.648-.043,3.664,3.664,0,0,1-3.5-3.672,5.477,5.477,0,0,1,.691-2.765A36.325,36.325,0,0,1,44.2,44.7c.907-1.08,2.074-2.29,2.333-3.715a4.906,4.906,0,0,0-.907-3.759,4.582,4.582,0,0,0-3.759-1.728,3.863,3.863,0,0,0-3.327,1.9,2.164,2.164,0,0,1,.346-.3c.13-.086.3-.216.432-.3a5.025,5.025,0,0,1,3.543-.432,4.493,4.493,0,0,1,2.549,2.074,3.6,3.6,0,0,1,.3,2.117,4.247,4.247,0,0,1-.216.691,3.222,3.222,0,0,1-.3.518c-.086.13-.173.216-.259.346a3.73,3.73,0,0,1-.6.562c-.13.086-.259.13-.389.216-1.858.691-2.333-.864-2.333-.864a2.1,2.1,0,0,0,2.333-.734,2.264,2.264,0,0,0-.778-3.24c-1.339-.778-3.067-.173-4.234.691A12.6,12.6,0,0,0,36.9,40.721V38.259a5.248,5.248,0,0,1,5.314-4.8,6.035,6.035,0,0,1,5.876,5.271,7.414,7.414,0,0,1-.691,3.975c-.95,2.031-2.592,3.629-4.018,5.357-1.166.95-2.419,2.2-2.419,3.629" transform="translate(0 -11.473)" fill="#ffffff"/>
    <path id="Path_51" data-name="Path 51" d="M58.811,87.1v-.13a.387.387,0,0,0-.389-.388v1.21l1.469-.476a1.519,1.519,0,0,0,.432.821,1.137,1.137,0,0,1,.389.605c-.389.172-1.037.432-1.08.475a1.6,1.6,0,0,0,0,1.037,1.6,1.6,0,0,1-.778-.346V89.52a.388.388,0,0,0-.389-.389v1.253a2.093,2.093,0,0,0,1.253.432.387.387,0,0,1,.389.388c.043,0,.13-.043.13-.086a.735.735,0,0,0-.043-.3.737.737,0,0,1-.043-.3,1.152,1.152,0,0,1,.13-.518c.043,0,.13-.043.173-.043.086,0,.173-.044.3-.044a1.456,1.456,0,0,1,.432.044c.086,0,.173.043.259.043h.13a1.54,1.54,0,0,0,.475-.086.133.133,0,0,1,.086.044.153.153,0,0,1-.043.086.983.983,0,0,1-.475.216H61.4a6.453,6.453,0,0,1,.3.734,1.6,1.6,0,0,0,1.037,0,1.6,1.6,0,0,1-.346.778h-.389a.387.387,0,0,0-.389.388h1.253A2.419,2.419,0,0,0,63.3,90.9a.388.388,0,0,1,.389-.389c0-.043-.043-.129-.086-.129a.742.742,0,0,0-.3.043.728.728,0,0,1-.3.044,1.151,1.151,0,0,1-.518-.13,1.831,1.831,0,0,1-.086-.475c0-.129.043-.3.043-.432V89.39a.742.742,0,0,0,.3.043,1.3,1.3,0,0,0,1.3-1.3,1.193,1.193,0,0,0-.13-.561l-.13-.216a2.574,2.574,0,0,1-.259-1.167,2.117,2.117,0,0,1,.346-1.037h.043a.928.928,0,0,0,.216-.13.753.753,0,0,0,.259-.518v-.216c-.043,0-.043.044-.086.044-.043.043-.086.043-.13.086l-.13.13-.13.129-.13.13-.043.044-.043.043-.043.043a2.412,2.412,0,0,0-.432,1.21,2.267,2.267,0,0,0,.259,1.3l.086.216a.778.778,0,0,1,.086.432,1,1,0,0,1-.994.994h-.043a.9.9,0,0,1-.691-.346c-.043-.044-.043-.086-.086-.13a1.771,1.771,0,0,1-.3-.95,1.486,1.486,0,0,0,.389.259c.043,0,.043,0,.043-.043a1.112,1.112,0,0,1-.043-.648,1.132,1.132,0,0,1,.13-.346.436.436,0,0,0,.086.216h.043a2.144,2.144,0,0,1,.173-.562l.043-.086c.043-.043.043-.13.086-.172a.329.329,0,0,0,.086-.173V86.02h0v-.043h0v-.043h0v-.044h0v-.043h0v-.173a1.658,1.658,0,0,0-.648-1.3h.086a.042.042,0,0,0,.043-.043,1.732,1.732,0,0,0-1.21-.346h-.086a.042.042,0,0,0-.043.043l-.043.173h-.043a.589.589,0,0,0-.346.216l-.475.172c-.043,0-.043.044-.043.086s0,.043.043.043c0,.086.043.346.173.389a.438.438,0,0,1,.13-.043h.043a.458.458,0,0,1,.346,0s.086.216-.043.259a.681.681,0,0,0-.173.043h-.216s-.086.216.043.26a.835.835,0,0,1,.346-.044h.216a.985.985,0,0,0,.475-.13.925.925,0,0,1-.346.26.887.887,0,0,1-.216.043c-.043,0-.086,0-.086.043a1.106,1.106,0,0,0-.562.432c-.086-.043-1.426-.648-1.426-.648h.043v-.259a.415.415,0,0,0-.259-.389c-.043-.043-.086-.043-.173-.043v.951l1.21.864.475-.13s.043-.044.086.043c.043.043-.043.087-.043.087Z" transform="translate(-33.011 -47.7)" fill="#ffffff"/>
    <path id="Path_52" data-name="Path 52" d="M42.2,90.788a1.606,1.606,0,0,1-1.037,0,1.6,1.6,0,0,0,.346.778H41.9a.387.387,0,0,1,.389.388H41.032A2.419,2.419,0,0,1,40.6,90.7a.388.388,0,0,0-.389-.389c0-.043.043-.129.086-.129a.742.742,0,0,1,.3.043.728.728,0,0,0,.3.044,1.156,1.156,0,0,0,.518-.13,1.837,1.837,0,0,0,.086-.476c0-.129-.043-.3-.043-.432v-.043a.742.742,0,0,1-.3.043,1.3,1.3,0,0,1-1.3-1.3,1.194,1.194,0,0,1,.13-.561l.13-.216a2.574,2.574,0,0,0,.259-1.167,2.115,2.115,0,0,0-.346-1.036H40a.944.944,0,0,1-.216-.13.752.752,0,0,1-.259-.518v-.216c.043,0,.043.043.086.043.043.043.086.043.13.086l.13.13.13.129.13.13.043.044.043.043.043.044a2.409,2.409,0,0,1,.432,1.21,2.267,2.267,0,0,1-.259,1.3l-.086.216a.779.779,0,0,0-.086.432,1,1,0,0,0,.994.994h.043a.9.9,0,0,0,.691-.346c.043-.044.043-.086.086-.13a1.773,1.773,0,0,0,.3-.95,1.486,1.486,0,0,1-.389.259c-.043,0-.043,0-.043-.043a1.112,1.112,0,0,0,.043-.648,1.13,1.13,0,0,0-.13-.346.438.438,0,0,1-.086.216h-.043a2.147,2.147,0,0,0-.173-.562l-.043-.086c-.043-.044-.043-.13-.086-.173a.327.327,0,0,1-.086-.173V85.82h0v-.044h0v-.043h0V85.69h0v-.043h0v-.173a1.659,1.659,0,0,1,.648-1.3H41.9a.042.042,0,0,1-.043-.043,1.734,1.734,0,0,1,1.21-.346h.086a.042.042,0,0,1,.043.043l.043.173h.043a.592.592,0,0,1,.346.216l.475.172c.043,0,.043.044.043.086s0,.044-.043.044c0,.086-.043.346-.173.388a.438.438,0,0,0-.13-.043h-.043a.458.458,0,0,0-.346,0s-.086.216.043.259a.675.675,0,0,1,.173.044h.216s.086.216-.043.259a.843.843,0,0,0-.346-.043h-.216a.985.985,0,0,1-.475-.13.919.919,0,0,0,.346.26.887.887,0,0,0,.216.043c.043,0,.086,0,.086.044a1.1,1.1,0,0,1,.562.432c.086-.044,1.426-.648,1.426-.648h-.043v-.26a.415.415,0,0,1,.259-.388c.043-.044.086-.044.173-.044v.951l-1.166.864-.518-.13s-.043-.044-.086.043c-.389-.129-.3-.129-.3-.129l1.339.691v-.13a.387.387,0,0,1,.389-.388v1.21L43.97,87.2a1.522,1.522,0,0,1-.432.821,1.134,1.134,0,0,0-.389.6c.389.172,1.037.432,1.08.475a1.6,1.6,0,0,1,0,1.037,1.6,1.6,0,0,0,.778-.346v-.388a.388.388,0,0,1,.389-.389v1.253a2.093,2.093,0,0,1-1.253.432.387.387,0,0,0-.389.388c-.043,0-.13-.043-.13-.086a.735.735,0,0,1,.043-.3.735.735,0,0,0,.043-.3,1.152,1.152,0,0,0-.13-.519c-.043,0-.13-.043-.173-.043-.086,0-.173-.044-.3-.044h-.173l.086-.6a.133.133,0,0,0-.043-.086.151.151,0,0,0-.086.043Z" transform="translate(-22.446 -47.586)" fill="#ffffff"/>
    <path id="Path_53" data-name="Path 53" d="M53.054,65.031a3.207,3.207,0,0,0-2.679-1.685,3.294,3.294,0,0,0-2.938,0,3.119,3.119,0,0,0-2.679,1.685,2.534,2.534,0,0,0-1.339,2.16,2.453,2.453,0,0,0,.864,1.858,3.083,3.083,0,0,0,2.333,1.9A1.992,1.992,0,0,1,48.3,72.893V78.25a1.63,1.63,0,0,1-1.426,1.512h-.3a.433.433,0,0,0-.432.432h5.4a.433.433,0,0,0-.432-.432h-.3a1.543,1.543,0,0,1-1.426-1.512V72.893a2.035,2.035,0,0,1,1.555-1.944h.086a3.076,3.076,0,0,0,2.419-1.9,2.453,2.453,0,0,0,.864-1.858,2.281,2.281,0,0,0-1.253-2.16m-.086,3.413-.173.13-.086.173a2.133,2.133,0,0,1-1.426,1.3,5.437,5.437,0,0,0-.691.216l-.13.13c-.043.043-.086.043-.13.086s-.086.086-.13.086a2.355,2.355,0,0,1-2.592,0c-.043-.043-.086-.043-.13-.086s-.086-.043-.13-.086l-.13-.13a3.9,3.9,0,0,0-.691-.216,2.133,2.133,0,0,1-1.426-1.3l-.086-.173-.173-.13a1.7,1.7,0,0,1-.562-1.253,1.6,1.6,0,0,1,.864-1.426l.216-.13.13-.216a2.352,2.352,0,0,1,1.987-1.253h.173l.173-.086a2.3,2.3,0,0,1,1.037-.259,2.052,2.052,0,0,1,1.037.259l.173.086h.173a2.41,2.41,0,0,1,1.987,1.253l.13.216.216.13a1.6,1.6,0,0,1,.864,1.426,1.374,1.374,0,0,1-.475,1.253" transform="translate(-24.662 -35.783)" fill="#ffffff"/>
    <path id="Path_54" data-name="Path 54" d="M48.738,60.3a8.223,8.223,0,0,1-1.815.778h5.4V72.829a10.808,10.808,0,0,1-.216,2.031,8.238,8.238,0,0,1-.821,2.16.954.954,0,0,1-.13.216,8.838,8.838,0,0,1-15.294,0,.944.944,0,0,0-.13-.216,7.7,7.7,0,0,1-.821-2.16,7.911,7.911,0,0,1-.216-2.031V61.078h5.53A6.449,6.449,0,0,1,38.37,60.3H33.92V72.829a9.058,9.058,0,0,0,.259,2.2,7.7,7.7,0,0,0,.907,2.333l.13.259a9.572,9.572,0,0,0,16.59,0l.13-.259a10.892,10.892,0,0,0,.907-2.333,9.057,9.057,0,0,0,.259-2.2V60.3Z" transform="translate(-19.266 -34.249)" fill="#ffffff"/>
    <path id="Path_55" data-name="Path 55" d="M80.243,60.516l-.216-.216-.346.388-.389-.388-.173.216.346.346-.346.389.173.173.389-.346.346.346.216-.173-.389-.389Z" transform="translate(-44.938 -34.249)" fill="#ffffff"/>
    <path id="Path_56" data-name="Path 56" d="M31.543,60.516,31.37,60.3l-.389.388-.389-.388-.173.216.346.346-.346.389.173.173.389-.346.389.346.173-.173-.389-.389Z" transform="translate(-17.278 -34.249)" fill="#ffffff"/>
    <path id="Path_57" data-name="Path 57" d="M80.243,81.373l-.216-.173-.346.346-.389-.346-.173.173.346.389-.346.346.173.216.389-.389.346.389.216-.216-.389-.346Z" transform="translate(-44.938 -46.12)" fill="#ffffff"/>
    <path id="Path_58" data-name="Path 58" d="M31.543,81.373,31.37,81.2l-.389.346-.389-.346-.173.173.346.389-.346.346.173.216.389-.389.389.389.173-.216-.389-.346Z" transform="translate(-17.278 -46.12)" fill="#ffffff"/>
    <path id="Path_59" data-name="Path 59" d="M36.443,103.016l-.216-.216-.346.388-.389-.388-.173.216.346.346-.346.389.173.173.389-.346.346.346.216-.173-.389-.389Z" transform="translate(-20.061 -58.388)" fill="#ffffff"/>
    <path id="Path_60" data-name="Path 60" d="M75.443,103.016l-.173-.216-.389.388-.346-.388-.216.216.389.346-.389.389.216.173.346-.346.389.346.173-.173-.346-.389Z" transform="translate(-42.212 -58.388)" fill="#ffffff"/>
    <path id="Path_61" data-name="Path 61" d="M55.943,112.516l-.216-.216-.346.388-.389-.388-.173.216.346.346-.346.389.173.173.389-.346.346.346.216-.173-.389-.389Z" transform="translate(-31.137 -63.784)" fill="#ffffff"/>
  </g>
</svg>