<svg xmlns="http://www.w3.org/2000/svg" width="55" height="55" viewBox="0 0 55 55">
  <g id="ico_enlace" transform="translate(0 0.576)">
    <g id="Group_7485" data-name="Group 7485" transform="translate(0 -0.172)">
      <rect id="Rectangle_6300" data-name="Rectangle 6300" width="55" height="55" transform="translate(0 -0.404)" fill="none"/>
      <g id="documento" transform="translate(6.271 4.427)">
        <g id="Group_7727" data-name="Group 7727" transform="translate(0)">
          <g id="Group_7726" data-name="Group 7726">
            <path id="Path_16325" data-name="Path 16325" d="M68.4,5.541H67.014V4.156A4.16,4.16,0,0,0,62.859,0h-27.7A4.16,4.16,0,0,0,31,4.156V37.584a4.16,4.16,0,0,0,4.156,4.156h1.385v1.385A4.16,4.16,0,0,0,40.7,47.28H68.4a4.16,4.16,0,0,0,4.156-4.155V9.7A4.16,4.16,0,0,0,68.4,5.541ZM37.758,10.676a4.128,4.128,0,0,0-1.217,2.938V38.969H35.156a1.387,1.387,0,0,1-1.385-1.385V4.156A1.387,1.387,0,0,1,35.156,2.77h27.7a1.387,1.387,0,0,1,1.385,1.385V5.541H44.614a4.128,4.128,0,0,0-2.938,1.217Zm7.094-2.365v5.541H39.311v-.238a1.376,1.376,0,0,1,.406-.979l3.918-3.918a1.376,1.376,0,0,1,.979-.406ZM69.785,43.125A1.387,1.387,0,0,1,68.4,44.51H40.7a1.387,1.387,0,0,1-1.385-1.385v-26.5h6.926a1.385,1.385,0,0,0,1.385-1.385V8.311H68.4A1.387,1.387,0,0,1,69.785,9.7Z" transform="translate(-31)" fill="#4da847"/>
          </g>
        </g>
        <g id="Group_7729" data-name="Group 7729" transform="translate(11.081 19.577)">
          <g id="Group_7728" data-name="Group 7728" transform="translate(0)">
            <path id="Path_16326" data-name="Path 16326" d="M174.548,212H152.385a1.385,1.385,0,0,0,0,2.77h22.163a1.385,1.385,0,0,0,0-2.77Z" transform="translate(-151 -212)" fill="#4da847"/>
          </g>
        </g>
        <g id="Group_7731" data-name="Group 7731" transform="translate(11.081 25.118)">
          <g id="Group_7730" data-name="Group 7730" transform="translate(0)">
            <path id="Path_16327" data-name="Path 16327" d="M174.548,272H152.385a1.385,1.385,0,1,0,0,2.77h22.163a1.385,1.385,0,1,0,0-2.77Z" transform="translate(-151 -272)" fill="#4da847"/>
          </g>
        </g>
        <g id="Group_7733" data-name="Group 7733" transform="translate(11.081 30.658)">
          <g id="Group_7732" data-name="Group 7732" transform="translate(0)">
            <path id="Path_16328" data-name="Path 16328" d="M174.548,332H152.385a1.385,1.385,0,0,0,0,2.77h22.163a1.385,1.385,0,1,0,0-2.77Z" transform="translate(-151 -332)" fill="#4da847"/>
          </g>
        </g>
        <g id="Group_7735" data-name="Group 7735" transform="translate(11.081 36.199)">
          <g id="Group_7734" data-name="Group 7734" transform="translate(0)">
            <path id="Path_16329" data-name="Path 16329" d="M174.548,392H152.385a1.385,1.385,0,0,0,0,2.77h22.163a1.385,1.385,0,1,0,0-2.77Z" transform="translate(-151 -392)" fill="#4da847"/>
          </g>
        </g>
      </g>
    </g>
  </g>
</svg>
