<svg xmlns="http://www.w3.org/2000/svg" xmlns:xlink="http://www.w3.org/1999/xlink" width="120" height="120" viewBox="0 0 120 120">
  <defs>
    <clipPath id="clip-path">
      <rect id="Rectangle_6009" data-name="Rectangle 6009" width="106.529" height="95.133" transform="translate(0 0)" fill="#e1f2df"/>
    </clipPath>
    <clipPath id="clip-path-2">
      <rect id="Rectangle_6314" data-name="Rectangle 6314" width="42.834" height="76.961" fill="#65c65e" stroke="#65c65e" stroke-width="0.8"/>
    </clipPath>
  </defs>
  <g id="ico_licencias_negocio" transform="translate(-248 -804)">
    <g id="ico_licencia_negocio">
      <g id="Group_2316" data-name="Group 2316" transform="translate(255 816)">
        <g id="Group_2315" data-name="Group 2315" clip-path="url(#clip-path)">
          <path id="Path_13803" data-name="Path 13803" d="M106.411,39.956a19.078,19.078,0,0,0-2.023-10.75C102.112,24.633,96.869,21,92.361,18.054a64.186,64.186,0,0,0-9.439-8.911A43.17,43.17,0,0,0,49.711.528C40.144,2.03,30.1,6.794,21.979,12.063,13.441,17.6,7.189,24.609,5.025,34.218a43.41,43.41,0,0,0-3.277,9.489C-.894,54.976-1.146,66.725,5.289,76.867c6.659,10.49,17.372,17.329,29.87,18.182a38.457,38.457,0,0,0,30.382-12.06A51.944,51.944,0,0,0,73.813,71.2c.959-1.907,1.729-3.9,2.654-5.822.469-.974.946-1.945,1.495-2.878.238-.382.427-.686.572-.915l.068-.029c-.382.609-.215.538.511-.223l.675-.3c.676-.3,1.346-.633,2.017-.955-.673.355,2.882-1.1,3.693-1.408,1.4-.524,2.858-1.052,4.323-1.62a13.039,13.039,0,0,0,8.9-1.771c5.065-3.115,8.488-9.376,7.689-15.322" fill="#e1f2df"/>
        </g>
      </g>
      <g id="Group_6012" data-name="Group 6012" transform="translate(282.583 825.086)">
        <g id="Group_6011" data-name="Group 6011" clip-path="url(#clip-path-2)">
          <path id="Path_14275" data-name="Path 14275" d="M9.843,40.807H15.3a1.13,1.13,0,0,1,.688.233,19.328,19.328,0,0,0,2.15-8.715,2.624,2.624,0,0,1,2.1-2.309c2.435-.493,4.33.806,4.7,3.843a18.5,18.5,0,0,1-.026,5.362c-.036.28-.272.11-.164.277.169.272.128-.277.852-.29l3.874.041,3.694.1a3.1,3.1,0,0,1,2.393,5.056,3.1,3.1,0,0,1-.005,3.93,3.093,3.093,0,0,1-.428,4.359,3.366,3.366,0,0,1-.29.213,3.1,3.1,0,0,1-2.791,4.423q-6.919.142-13.822-.405a1.184,1.184,0,0,1-.375-.095l-1.519-.6a1.129,1.129,0,0,1-1.026.67H9.843A3.27,3.27,0,0,1,6.58,53.639V44.075a3.272,3.272,0,0,1,3.263-3.268M40.581,63.431H2.255v9.4a1.882,1.882,0,0,0,1.878,1.878H35.748a1.127,1.127,0,0,1,0,2.255H4.133A4.138,4.138,0,0,1,0,72.828V8.64a1.127,1.127,0,0,1,2.255,0V61.179H40.581V4.133A1.886,1.886,0,0,0,38.7,2.252H31.182l-.9,3.6a1.129,1.129,0,0,1-1.108.913H13.658a1.125,1.125,0,0,1-1.09-.852l-.913-3.658H4.133a1.886,1.886,0,0,0-1.878,1.88V8.64A1.127,1.127,0,1,1,0,8.64V4.133A4.137,4.137,0,0,1,4.133,0H38.7a4.14,4.14,0,0,1,4.133,4.133v68.7A4.142,4.142,0,0,1,38.7,76.961H35.32a1.127,1.127,0,1,1,0-2.255H38.7a1.887,1.887,0,0,0,1.878-1.878ZM13.973,2.252l.567,2.255H28.3l.562-2.255ZM29.691,19.774a1.13,1.13,0,0,1,0,2.26H21.626a1.13,1.13,0,1,1,0-2.26h8.068Zm0-4.507a1.127,1.127,0,0,1,0,2.255H21.626a1.127,1.127,0,1,1,0-2.255Zm1.844,9.464,2.081,1.342V14.456a1.676,1.676,0,0,0-1.673-1.665H19.366A1.673,1.673,0,0,0,17.7,14.456v8.386a1.675,1.675,0,0,0,1.665,1.667h11.5A1.1,1.1,0,0,1,31.536,24.73Zm2.6,4.353-3.594-2.322H19.366a3.929,3.929,0,0,1-3.92-3.92V14.456a3.932,3.932,0,0,1,3.92-3.922H31.944a3.931,3.931,0,0,1,3.925,3.922V28.139h0a1.13,1.13,0,0,1-1.134,1.121A1.1,1.1,0,0,1,34.132,29.083ZM32.044,51.14H33.16a.84.84,0,0,0,0-1.68,1.127,1.127,0,0,1,0-2.255h0a.835.835,0,0,0,0-1.67,1.131,1.131,0,0,1,0-2.263.835.835,0,0,0,0-1.67c-2.429-.051-5.174-.182-7.542-.149-1.616.026-2.283.033-2.783-.757a2.378,2.378,0,0,1-.156-1.783,16.649,16.649,0,0,0,.018-4.777c-.2-1.614-.78-2.168-2.024-1.916a.365.365,0,0,0-.3.336,35.051,35.051,0,0,1-1.175,6.95,9.149,9.149,0,0,1-2.773,4.364v9.987l2.124.836a133.184,133.184,0,0,0,13.348.392.948.948,0,0,0,.731-.257.84.84,0,0,0-.6-1.431,1.13,1.13,0,1,1,.005-2.26h.008ZM14.168,43.065H9.843a1.019,1.019,0,0,0-1.011,1.011v9.564A1.023,1.023,0,0,0,9.843,54.65h4.325Z" fill="#65c65e" stroke="#65c65e" stroke-width="0.8"/>
        </g>
      </g>
    </g>
    <rect id="Rectangle_6263" data-name="Rectangle 6263" width="120" height="120" transform="translate(248 804)" fill="none"/>
  </g>
</svg>
