<svg xmlns="http://www.w3.org/2000/svg" xmlns:xlink="http://www.w3.org/1999/xlink" width="120" height="120" viewBox="0 0 120 120">
  <defs>
    <clipPath id="clip-path">
      <rect id="Rectangle_6009" data-name="Rectangle 6009" width="106.529" height="95.133" transform="translate(0 0)" fill="#e1f2df"/>
    </clipPath>
    <clipPath id="clip-path-2">
      <rect id="Rectangle_6311" data-name="Rectangle 6311" width="55.504" height="63.222" fill="#65c65e" stroke="#64c65e" stroke-width="1"/>
    </clipPath>
  </defs>
  <g id="ico_licencias_negocio" transform="translate(-248 -804)">
    <g id="ico_licencia_negocio">
      <g id="Group_2316" data-name="Group 2316" transform="translate(255 816)">
        <g id="Group_2315" data-name="Group 2315" clip-path="url(#clip-path)">
          <path id="Path_13803" data-name="Path 13803" d="M106.411,39.956a19.078,19.078,0,0,0-2.023-10.75C102.112,24.633,96.869,21,92.361,18.054a64.186,64.186,0,0,0-9.439-8.911A43.17,43.17,0,0,0,49.711.528C40.144,2.03,30.1,6.794,21.979,12.063,13.441,17.6,7.189,24.609,5.025,34.218a43.41,43.41,0,0,0-3.277,9.489C-.894,54.976-1.146,66.725,5.289,76.867c6.659,10.49,17.372,17.329,29.87,18.182a38.457,38.457,0,0,0,30.382-12.06A51.944,51.944,0,0,0,73.813,71.2c.959-1.907,1.729-3.9,2.654-5.822.469-.974.946-1.945,1.495-2.878.238-.382.427-.686.572-.915l.068-.029c-.382.609-.215.538.511-.223l.675-.3c.676-.3,1.346-.633,2.017-.955-.673.355,2.882-1.1,3.693-1.408,1.4-.524,2.858-1.052,4.323-1.62a13.039,13.039,0,0,0,8.9-1.771c5.065-3.115,8.488-9.376,7.689-15.322" fill="#e1f2df"/>
        </g>
      </g>
      <g id="Group_6006" data-name="Group 6006" transform="translate(280.513 831.955)">
        <g id="Group_6005" data-name="Group 6005" transform="translate(0 0)" clip-path="url(#clip-path-2)">
          <path id="Path_14260" data-name="Path 14260" d="M32.784,4.654,29.743,2.19a3.153,3.153,0,0,0-3.982,0L22.719,4.654ZM15.2,33.94a.741.741,0,1,1-.046-1.482H36.214a.741.741,0,1,1,.046,1.482H15.2Zm0-5.916a.741.741,0,0,1-.046-1.482H36.214a.741.741,0,1,1,.046,1.482H15.2Zm0-5.918a.738.738,0,1,1-.065-1.475H15.2l11.552.031a.738.738,0,1,1,.065,1.475h-.065Zm14.769.034a.741.741,0,0,1,0-1.482h6.322a.741.741,0,1,1,0,1.482ZM15.2,16.194a.741.741,0,1,1,0-1.482H27.677a.741.741,0,1,1,0,1.482Zm29.165,3.383H36.644A1.979,1.979,0,0,1,34.668,17.6V10.063H7.543a.5.5,0,0,0-.492.492v16.26l14.03,14.144L24.4,37.641a4.749,4.749,0,0,1,6.7,0l3.321,3.318,9.939-10.017V19.577ZM36.15,11.084,43.293,18.1H36.644a.5.5,0,0,1-.492-.492v-6.52ZM20.372,4.654l4.456-3.61a4.615,4.615,0,0,1,5.846,0l4.456,3.61H47.961a1.977,1.977,0,0,1,1.976,1.975V16.649L55.181,20.9a.741.741,0,0,1,.322.611V58.482a4.75,4.75,0,0,1-4.741,4.741H4.741A4.749,4.749,0,0,1,0,58.482V21.506H0a.736.736,0,0,1,.273-.573l5.292-4.285V10.557A1.978,1.978,0,0,1,7.545,8.581H9.663V6.629a1.978,1.978,0,0,1,1.975-1.975ZM49.937,18.545v6.774l3.723-3.756-3.723-3.021Zm-1.482,8.267V6.629a.5.5,0,0,0-.492-.492H11.636a.5.5,0,0,0-.492.492V8.581H35.409a.739.739,0,0,1,.557.253l9.653,9.476a.739.739,0,0,1,.221.527V29.444l2.612-2.632ZM5.567,25.321V18.545L1.844,21.566l3.723,3.755Zm-3.643,34.8L20.037,42,1.479,23.3v35.18a3.229,3.229,0,0,0,.442,1.635ZM35.466,42,53.58,60.117a3.231,3.231,0,0,0,.442-1.635V23.3ZM52.563,61.2a3.235,3.235,0,0,1-1.8.545H4.741a3.235,3.235,0,0,1-1.8-.545L25.448,38.688a3.267,3.267,0,0,1,4.608,0Z" transform="translate(0 0)" fill="#65c65e" stroke="#64c65e" stroke-width="1" fill-rule="evenodd"/>
        </g>
      </g>
    </g>
    <rect id="Rectangle_6263" data-name="Rectangle 6263" width="120" height="120" transform="translate(248 804)" fill="none"/>
  </g>
</svg>
