<svg xmlns="http://www.w3.org/2000/svg" xmlns:xlink="http://www.w3.org/1999/xlink" width="120" height="120" viewBox="0 0 120 120">
  <defs>
    <clipPath id="clip-path">
      <rect id="Rectangle_6009" data-name="Rectangle 6009" width="106.529" height="95.133" transform="translate(0 0)" fill="#e1f2df"/>
    </clipPath>
    <clipPath id="clip-path-2">
      <rect id="Rectangle_6312" data-name="Rectangle 6312" width="56.121" height="67.702" fill="#65c65e"/>
    </clipPath>
  </defs>
  <g id="ico_licencias_negocio" transform="translate(-248 -804)">
    <g id="ico_licencia_negocio">
      <g id="Group_2316" data-name="Group 2316" transform="translate(255 816)">
        <g id="Group_2315" data-name="Group 2315" clip-path="url(#clip-path)">
          <path id="Path_13803" data-name="Path 13803" d="M106.411,39.956a19.078,19.078,0,0,0-2.023-10.75C102.112,24.633,96.869,21,92.361,18.054a64.186,64.186,0,0,0-9.439-8.911A43.17,43.17,0,0,0,49.711.528C40.144,2.03,30.1,6.794,21.979,12.063,13.441,17.6,7.189,24.609,5.025,34.218a43.41,43.41,0,0,0-3.277,9.489C-.894,54.976-1.146,66.725,5.289,76.867c6.659,10.49,17.372,17.329,29.87,18.182a38.457,38.457,0,0,0,30.382-12.06A51.944,51.944,0,0,0,73.813,71.2c.959-1.907,1.729-3.9,2.654-5.822.469-.974.946-1.945,1.495-2.878.238-.382.427-.686.572-.915l.068-.029c-.382.609-.215.538.511-.223l.675-.3c.676-.3,1.346-.633,2.017-.955-.673.355,2.882-1.1,3.693-1.408,1.4-.524,2.858-1.052,4.323-1.62a13.039,13.039,0,0,0,8.9-1.771c5.065-3.115,8.488-9.376,7.689-15.322" fill="#e1f2df"/>
        </g>
      </g>
      <g id="Group_6008" data-name="Group 6008" transform="translate(274.031 829.716)">
        <g id="Group_6007" data-name="Group 6007" transform="translate(0 0)" clip-path="url(#clip-path-2)">
          <path id="Path_14261" data-name="Path 14261" d="M49.866,29.029A10.856,10.856,0,0,0,38.6,11.215l-5.329-8.4a6.028,6.028,0,0,0-10.533.609L11.287,27.354,4.07,31.922A8.768,8.768,0,0,0,1.36,44.011l2.92,4.6a8.716,8.716,0,0,0,5.484,3.867,9.048,9.048,0,0,0,1.279.152l7.549,11.906A6.8,6.8,0,0,0,24.351,67.7a6.6,6.6,0,0,0,3.621-1.066,6.8,6.8,0,0,0,2.1-9.379l-6.6-10.445.122-.061,26.52-.122a6.111,6.111,0,0,0,5.268-3.136,5.969,5.969,0,0,0-.213-6.121ZM43.2,16.148a5.526,5.526,0,0,1,3.624,8.1L41.583,16a5.7,5.7,0,0,1,1.614.152M8.818,45.838l-2.923-4.6A3.416,3.416,0,0,1,6.96,36.52l5.606-3.563,6.608,10.384-.761.487L13.538,46.9a3.433,3.433,0,0,1-2.558.457,3.49,3.49,0,0,1-2.162-1.523M25.6,60.181A1.477,1.477,0,1,1,23.1,61.764L16.494,51.35l2.494-1.583ZM50.718,41a.694.694,0,0,1-.609.365l-25.822.122L16.43,29.09,27.575,5.8a.648.648,0,0,1,.582-.4.749.749,0,0,1,.639.3L35.34,16.057l8.8,13.886,6.547,10.323a.7.7,0,0,1,.03.731" transform="translate(0.001 -0.001)" fill="#65c65e"/>
        </g>
      </g>
    </g>
    <rect id="Rectangle_6263" data-name="Rectangle 6263" width="120" height="120" transform="translate(248 804)" fill="none"/>
  </g>
</svg>
