<svg xmlns="http://www.w3.org/2000/svg" xmlns:xlink="http://www.w3.org/1999/xlink" width="120" height="120" viewBox="0 0 120 120">
  <defs>
    <clipPath id="clip-path">
      <rect id="Rectangle_6009" data-name="Rectangle 6009" width="106.529" height="95.133" transform="translate(0 0)" fill="#e1f2df"/>
    </clipPath>
    <clipPath id="clip-path-2">
      <rect id="Rectangle_6310" data-name="Rectangle 6310" width="63.009" height="73.099" fill="#65c65e" stroke="#65c65f" stroke-width="0.8"/>
    </clipPath>
  </defs>
  <g id="ico_licencias_negocio" transform="translate(-248 -804)">
    <g id="ico_licencia_negocio">
      <g id="Group_2316" data-name="Group 2316" transform="translate(255 816)">
        <g id="Group_2315" data-name="Group 2315" clip-path="url(#clip-path)">
          <path id="Path_13803" data-name="Path 13803" d="M106.411,39.956a19.078,19.078,0,0,0-2.023-10.75C102.112,24.633,96.869,21,92.361,18.054a64.186,64.186,0,0,0-9.439-8.911A43.17,43.17,0,0,0,49.711.528C40.144,2.03,30.1,6.794,21.979,12.063,13.441,17.6,7.189,24.609,5.025,34.218a43.41,43.41,0,0,0-3.277,9.489C-.894,54.976-1.146,66.725,5.289,76.867c6.659,10.49,17.372,17.329,29.87,18.182a38.457,38.457,0,0,0,30.382-12.06A51.944,51.944,0,0,0,73.813,71.2c.959-1.907,1.729-3.9,2.654-5.822.469-.974.946-1.945,1.495-2.878.238-.382.427-.686.572-.915l.068-.029c-.382.609-.215.538.511-.223l.675-.3c.676-.3,1.346-.633,2.017-.955-.673.355,2.882-1.1,3.693-1.408,1.4-.524,2.858-1.052,4.323-1.62a13.039,13.039,0,0,0,8.9-1.771c5.065-3.115,8.488-9.376,7.689-15.322" fill="#e1f2df"/>
        </g>
      </g>
      <g id="Group_6004" data-name="Group 6004" transform="translate(276.76 827.017)">
        <g id="Group_6003" data-name="Group 6003" clip-path="url(#clip-path-2)">
          <path id="Path_14259" data-name="Path 14259" d="M57.691,19.759l.205.205a3,3,0,0,0,4.239-4.239l-4.377-4.385a3,3,0,0,0-4.239,4.239l.205.206L51.411,18.1A30.963,30.963,0,0,0,34.31,11V7.746h4.714A2.175,2.175,0,0,0,41.2,5.574v-3.4A2.175,2.175,0,0,0,39.026,0H23.983a2.175,2.175,0,0,0-2.173,2.173v3.4a2.176,2.176,0,0,0,2.173,2.171H28.7V11a30.963,30.963,0,0,0-17.1,7.1L9.288,15.789l.205-.205a3,3,0,0,0-4.239-4.239L.878,15.73a3,3,0,1,0,4.239,4.239l.205-.205L7.629,22.07a31.1,31.1,0,1,0,47.752,0Zm-2.759-7a1.013,1.013,0,0,1,1.414,0l4.378,4.385a1,1,0,1,1-1.415,1.416l-.877-.877c-.011-.012-.02-.023-.031-.034l-.034-.03L54.933,14.18a1,1,0,0,1-.005-1.42l0,0m.2,4.447,1.142,1.141L54.05,20.572q-.557-.584-1.144-1.143ZM28.3,2h2.2v3.75H28.3Zm4.2,0h2.2v3.75H32.5Zm6.7.174v3.4a.175.175,0,0,1-.174.174H36.7V2h2.322a.179.179,0,0,1,.174.174m-15.391,3.4v-3.4A.178.178,0,0,1,23.983,2h2.322v3.75H23.983a.175.175,0,0,1-.174-.174M30.7,7.746h1.618v3.142q-.4-.011-.809-.011t-.809.011ZM2.286,18.554a1,1,0,0,1,0-1.417l4.377-4.385a1,1,0,0,1,1.448,1.381l-.034.034L4.643,17.6l-.034.03-.03.034-.877.881a1.014,1.014,0,0,1-1.416.008m4.445-.21L7.872,17.2,10.1,19.429q-.584.557-1.144,1.143ZM31.5,71.081a29.1,29.1,0,0,1-1.723-58.155H29.8c.564-.033,1.132-.051,1.7-.051s1.139.018,1.7.051h.02A29.1,29.1,0,0,1,31.5,71.081m17.4-46.505a.951.951,0,0,0-.113-.1,24.564,24.564,0,0,0-34.58,0,1.02,1.02,0,0,0-.114.1.958.958,0,0,0-.1.114,24.568,24.568,0,0,0,0,34.57,1.04,1.04,0,0,0,.1.119.965.965,0,0,0,.119.1,24.563,24.563,0,0,0,34.567,0,1.189,1.189,0,0,0,.118-.1.983.983,0,0,0,.1-.12,24.57,24.57,0,0,0,0-34.567.877.877,0,0,0-.1-.116m2.426,18.4h2.76a22.528,22.528,0,0,1-5.916,14.261l-1.944-1.944A1,1,0,0,0,44.821,56.7l1.945,1.945A22.523,22.523,0,0,1,32.5,64.569V61.8a1,1,0,0,0-2-.054c0,.018,0,.036,0,.054v2.764a22.521,22.521,0,0,1-14.261-5.919L18.188,56.7a1,1,0,0,0-1.413-1.413l-1.944,1.944a22.529,22.529,0,0,1-5.915-14.26h2.76a1,1,0,0,0,0-2H8.916A22.526,22.526,0,0,1,14.83,26.719l1.945,1.945a1,1,0,0,0,1.413-1.413l-1.945-1.945A22.523,22.523,0,0,1,30.5,19.386v2.76a1,1,0,0,0,2,.054c0-.018,0-.036,0-.054V19.387a22.525,22.525,0,0,1,14.262,5.919l-1.945,1.945A1,1,0,1,0,46.2,28.7l.037-.037,1.945-1.945a22.525,22.525,0,0,1,5.915,14.256h-2.76a1,1,0,0,0-.054,2h.054M32.5,38.3V27.431a1,1,0,0,0-2,0V38.3a3.812,3.812,0,1,0,2,0Zm-1,5.494a1.815,1.815,0,1,1,1.812-1.817h0A1.817,1.817,0,0,1,31.5,43.792" transform="translate(0)" fill="#65c65e" stroke="#65c65f" stroke-width="0.8"/>
        </g>
      </g>
    </g>
    <rect id="Rectangle_6263" data-name="Rectangle 6263" width="120" height="120" transform="translate(248 804)" fill="none"/>
  </g>
</svg>
