<svg xmlns="http://www.w3.org/2000/svg" xmlns:xlink="http://www.w3.org/1999/xlink" width="120" height="120" viewBox="0 0 120 120">
  <defs>
    <clipPath id="clip-path">
      <rect id="Rectangle_6009" data-name="Rectangle 6009" width="106.529" height="95.133" transform="translate(0 0)" fill="#e1f2df"/>
    </clipPath>
    <clipPath id="clip-path-2">
      <rect id="Rectangle_6313" data-name="Rectangle 6313" width="68.194" height="60.053" fill="#65c65e"/>
    </clipPath>
  </defs>
  <g id="ico_licencias_negocio" transform="translate(-248 -804)">
    <g id="ico_licencia_negocio">
      <g id="Group_2316" data-name="Group 2316" transform="translate(255 816)">
        <g id="Group_2315" data-name="Group 2315" clip-path="url(#clip-path)">
          <path id="Path_13803" data-name="Path 13803" d="M106.411,39.956a19.078,19.078,0,0,0-2.023-10.75C102.112,24.633,96.869,21,92.361,18.054a64.186,64.186,0,0,0-9.439-8.911A43.17,43.17,0,0,0,49.711.528C40.144,2.03,30.1,6.794,21.979,12.063,13.441,17.6,7.189,24.609,5.025,34.218a43.41,43.41,0,0,0-3.277,9.489C-.894,54.976-1.146,66.725,5.289,76.867c6.659,10.49,17.372,17.329,29.87,18.182a38.457,38.457,0,0,0,30.382-12.06A51.944,51.944,0,0,0,73.813,71.2c.959-1.907,1.729-3.9,2.654-5.822.469-.974.946-1.945,1.495-2.878.238-.382.427-.686.572-.915l.068-.029c-.382.609-.215.538.511-.223l.675-.3c.676-.3,1.346-.633,2.017-.955-.673.355,2.882-1.1,3.693-1.408,1.4-.524,2.858-1.052,4.323-1.62a13.039,13.039,0,0,0,8.9-1.771c5.065-3.115,8.488-9.376,7.689-15.322" fill="#e1f2df"/>
        </g>
      </g>
      <g id="Group_6010" data-name="Group 6010" transform="translate(274.167 833.54)">
        <g id="Group_6009" data-name="Group 6009" clip-path="url(#clip-path-2)">
          <path id="Path_14262" data-name="Path 14262" d="M65.022,0H3.181A3.184,3.184,0,0,0,0,3.18V56.873a3.185,3.185,0,0,0,3.181,3.181H65.015a3.184,3.184,0,0,0,3.179-3.181V3.18A3.18,3.18,0,0,0,65.022,0M65.9,56.873a.884.884,0,0,1-.882.882H3.181a.884.884,0,0,1-.882-.882V8.887H50.1a1.149,1.149,0,1,0,0-2.3H2.3V3.18A.882.882,0,0,1,3.181,2.3H65.022a.867.867,0,0,1,.874.861V56.873Z" fill="#65c65e"/>
          <path id="Path_14263" data-name="Path 14263" d="M69.968,10.9h.9a1.149,1.149,0,1,0,0-2.3h-.9a1.149,1.149,0,0,0,0,2.3" transform="translate(-16.088 -2.01)" fill="#65c65e"/>
          <path id="Path_14264" data-name="Path 14264" d="M76.642,8.6h-.893a1.149,1.149,0,1,0,0,2.3h.895a1.149,1.149,0,1,0,0-2.3Z" transform="translate(-17.439 -2.01)" fill="#65c65e"/>
          <path id="Path_14265" data-name="Path 14265" d="M82.418,8.6h-.895a1.149,1.149,0,1,0,0,2.3h.895a1.149,1.149,0,1,0,0-2.3" transform="translate(-18.789 -2.01)" fill="#65c65e"/>
          <path id="Path_14266" data-name="Path 14266" d="M19.809,29.894A5.828,5.828,0,0,0,23,28.943a1.149,1.149,0,0,0-1.257-1.925,3.512,3.512,0,1,1-.146-5.952,1.149,1.149,0,1,0,1.2-1.959l-.019-.011a5.808,5.808,0,1,0-2.974,10.8" transform="translate(-3.274 -4.273)" fill="#65c65e"/>
          <path id="Path_14267" data-name="Path 14267" d="M63.711,24.357H32.773a1.149,1.149,0,1,0,0,2.3H63.711a1.149,1.149,0,0,0,0-2.3" transform="translate(-7.393 -5.694)" fill="#65c65e"/>
          <path id="Path_14268" data-name="Path 14268" d="M25.641,21.353l-2.758,2.755-.843-.843a1.149,1.149,0,1,0-1.654,1.6l.028.028,1.657,1.657a1.149,1.149,0,0,0,1.625,0l3.568-3.568a1.149,1.149,0,0,0-1.625-1.625Z" transform="translate(-4.69 -4.917)" fill="#65c65e"/>
          <path id="Path_14269" data-name="Path 14269" d="M19.812,46.943a5.828,5.828,0,0,0,3.193-.951,1.15,1.15,0,0,0-1.247-1.932l-.01.007a3.512,3.512,0,1,1-.146-5.953,1.151,1.151,0,0,0,1.183-1.975,5.808,5.808,0,1,0-2.974,10.8" transform="translate(-3.276 -8.258)" fill="#65c65e"/>
          <path id="Path_14270" data-name="Path 14270" d="M63.711,41.4H32.773a1.149,1.149,0,0,0,0,2.3H63.711a1.149,1.149,0,0,0,0-2.3" transform="translate(-7.393 -9.679)" fill="#65c65e"/>
          <path id="Path_14271" data-name="Path 14271" d="M25.65,38.4l-2.758,2.758-.843-.843a1.149,1.149,0,0,0-1.625,1.625L22.081,43.6a1.149,1.149,0,0,0,1.625,0l3.568-3.568A1.149,1.149,0,0,0,25.649,38.4Z" transform="translate(-4.699 -8.902)" fill="#65c65e"/>
          <path id="Path_14272" data-name="Path 14272" d="M21.748,61.11a3.512,3.512,0,1,1-.146-5.952,1.15,1.15,0,0,0,1.2-1.959l-.02-.011A5.807,5.807,0,1,0,23,63.034,1.15,1.15,0,0,0,21.758,61.1l-.01.007Z" transform="translate(-3.276 -12.243)" fill="#65c65e"/>
          <path id="Path_14273" data-name="Path 14273" d="M63.711,58.448H32.773a1.149,1.149,0,0,0,0,2.3H63.711a1.149,1.149,0,0,0,0-2.3" transform="translate(-7.393 -13.663)" fill="#65c65e"/>
          <path id="Path_14274" data-name="Path 14274" d="M25.65,55.44,22.892,58.2l-.843-.843a1.149,1.149,0,0,0-1.625,1.625l1.657,1.657a1.149,1.149,0,0,0,1.625,0l3.568-3.568a1.149,1.149,0,0,0-1.625-1.626Z" transform="translate(-4.699 -12.883)" fill="#65c65e"/>
        </g>
      </g>
    </g>
    <rect id="Rectangle_6263" data-name="Rectangle 6263" width="120" height="120" transform="translate(248 804)" fill="none"/>
  </g>
</svg>
